<svg width="80" height="70" viewBox="0 0 80 70" fill="none" xmlns="http://www.w3.org/2000/svg">
<path d="M67.4482 14.4153V28.9983L77.6565 21.7069L67.4482 14.4153Z" fill="white"/>
<path d="M12.552 28.9983V14.4153L2.34375 21.7069L12.552 28.9983Z" fill="white"/>
<path d="M62.7606 0.0341797H17.2397V32.3468L32.4689 43.2247L40.0001 37.8453L47.5314 43.2247L62.7606 32.3468V0.0341797ZM23.8621 6.10545H40.0001V10.793H23.8621V6.10545ZM56.1382 32.3104H23.8621V27.6229H56.1382V32.3104ZM23.8621 21.5516V16.8641H56.1382V21.5516H23.8621Z" fill="white"/>
<path d="M51.564 46.1053L80.0004 66.4166V25.7938L51.564 46.1053Z" fill="white"/>
<path d="M39.9994 43.606L3.09424 69.9663H76.9045L39.9994 43.606Z" fill="white"/>
<path d="M28.4364 46.1049L0 25.7935V66.4163L28.4364 46.1049Z" fill="white"/>
</svg>
