<svg width="80" height="80" viewBox="0 0 80 80" fill="none" xmlns="http://www.w3.org/2000/svg">
<path d="M41.1525 16.5152H45.84C45.84 20.7072 48.9599 24.1822 52.9991 24.7455V22.0619C52.9993 14.8939 47.1678 9.0625 39.9999 9.0625C32.8319 9.0625 27.0005 14.8939 27.0005 22.0619V24.8273H32.8403C37.4238 24.8273 41.1525 21.0984 41.1525 16.5152Z" fill="white"/>
<path d="M18.0219 39.935H22.4428C22.3579 39.195 22.3133 38.442 22.3133 37.6783V22.0617C22.3133 12.3092 30.2475 4.375 40.0001 4.375C49.7528 4.375 57.687 12.3092 57.687 22.0619V37.6784C57.687 38.4422 57.6423 39.1952 57.5575 39.9352H61.9784C65.4973 39.9352 68.3601 37.0723 68.3601 33.5534V26.4423C68.3601 23.0108 65.6373 20.2045 62.2387 20.0673C61.0895 8.81125 51.5545 0 40.0001 0C28.4458 0 18.9108 8.81125 17.7615 20.0673C14.3629 20.2045 11.6401 23.0108 11.6401 26.4423V33.5534C11.6401 37.0723 14.5029 39.935 18.0219 39.935Z" fill="white"/>
<path d="M40.0002 51.6668C43.9904 51.6668 47.5658 49.7216 49.9524 46.6668H42.69V41.9793H52.3702C52.7782 40.6236 52.9996 39.1785 52.9996 37.6785V29.4641C49.0727 29.1174 45.6418 27.0171 43.4968 23.9535C41.1443 27.3135 37.2447 29.5147 32.8408 29.5147H27.001V37.6783C27.0008 45.3916 32.8322 51.6668 40.0002 51.6668Z" fill="white"/>
<path d="M53.1661 56.3893V50.1346C49.9255 53.9496 45.2241 56.354 40.0002 56.354C34.8105 56.354 30.1358 53.9814 26.8975 50.2098V56.3821L26.875 56.3895C29.9512 58.7826 35.0564 62.0536 39.9798 62.0536C44.9255 62.0536 50.0645 58.7843 53.1661 56.3893Z" fill="white"/>
<path d="M74.0909 63.2621L58.4195 58.125C55.7669 60.4885 47.9917 66.7411 39.9798 66.7411C31.9566 66.7411 24.243 60.4747 21.62 58.1121L5.90891 63.2621C2.37469 64.4208 0 67.6983 0 71.4175V80H16.1384V71.875H20.8259V80H59.1742V71.875H63.8617V80H80V71.4175C80 67.6983 77.6253 64.4208 74.0909 63.2621Z" fill="white"/>
</svg>
