<svg width="80" height="80" viewBox="0 0 80 80" fill="none" xmlns="http://www.w3.org/2000/svg">
<path d="M0 49V23.3333L17.5 11.6666L35 23.3333V49H23.3333V32.6666H11.6667V49H0ZM56 4.66663V49H39.6667V20.8366L37.3333 19.2966V14H32.6667V16.17L23.3333 9.96329V4.66663H56ZM49 32.6666H44.3333V37.3333H49V32.6666ZM49 23.3333H44.3333V28H49V23.3333ZM49 14H44.3333V18.6666H49V14Z" fill="white"/>
<g clip-path="url(#clip0)">
<path d="M57 38.6666L42 45.3333V55.3333C42 64.5833 48.4 73.2333 57 75.3333C65.6 73.2333 72 64.5833 72 55.3333V45.3333L57 38.6666ZM57 45.3333C58.3261 45.3333 59.5979 45.8601 60.5355 46.7978C61.4732 47.7354 62 49.0072 62 50.3333C62 51.6594 61.4732 52.9311 60.5355 53.8688C59.5979 54.8065 58.3261 55.3333 57 55.3333C55.6739 55.3333 54.4021 54.8065 53.4645 53.8688C52.5268 52.9311 52 51.6594 52 50.3333C52 49.0072 52.5268 47.7354 53.4645 46.7978C54.4021 45.8601 55.6739 45.3333 57 45.3333ZM65.55 65.3333C63.5333 68.4166 60.5167 70.7333 57 71.8666C53.4833 70.7333 50.4667 68.4166 48.45 65.3333C47.8833 64.5 47.4 63.6666 47 62.7833C47 60.0333 51.5167 57.7833 57 57.7833C62.4833 57.7833 67 59.9833 67 62.7833C66.6 63.6666 66.1167 64.5 65.55 65.3333Z" fill="#414141"/>
<path d="M60 41.6666L45 48.3333V58.3333C45 67.5833 51.4 76.2333 60 78.3333C68.6 76.2333 75 67.5833 75 58.3333V48.3333L60 41.6666ZM60 48.3333C61.3261 48.3333 62.5979 48.8601 63.5355 49.7978C64.4732 50.7354 65 52.0072 65 53.3333C65 54.6594 64.4732 55.9311 63.5355 56.8688C62.5979 57.8065 61.3261 58.3333 60 58.3333C58.6739 58.3333 57.4021 57.8065 56.4645 56.8688C55.5268 55.9311 55 54.6594 55 53.3333C55 52.0072 55.5268 50.7354 56.4645 49.7978C57.4021 48.8601 58.6739 48.3333 60 48.3333ZM68.55 68.3333C66.5333 71.4166 63.5167 73.7333 60 74.8666C56.4833 73.7333 53.4667 71.4166 51.45 68.3333C50.8833 67.5 50.4 66.6666 50 65.7833C50 63.0333 54.5167 60.7833 60 60.7833C65.4833 60.7833 70 62.9833 70 65.7833C69.6 66.6666 69.1167 67.5 68.55 68.3333Z" fill="white"/>
</g>
<defs>
<clipPath id="clip0">
<rect width="40" height="40" fill="white" transform="translate(40 40)"/>
</clipPath>
</defs>
</svg>
