<svg width="68" height="51" viewBox="0 0 68 51" fill="none" xmlns="http://www.w3.org/2000/svg">
<path d="M54.4998 0.46657C53.2332 0.36657 51.8998 0.666569 50.6665 1.33324L21.8332 17.9999C18.6332 19.8666 17.5665 23.9999 19.3998 27.1332L24.3998 35.7666C26.2332 38.9999 30.2998 40.0666 33.4998 38.2332L39.4998 34.7666C40.3998 36.2999 41.7332 37.5332 43.3665 38.2332V44.1332C43.3665 47.7666 46.3332 50.6666 50.0332 50.6666H67.3332V44.1332H50.0332V38.2332C53.0665 36.8999 55.0332 33.8999 55.0332 30.6666C55.0332 29.1332 54.6332 27.6999 53.8998 26.4332L62.3332 21.5666C65.5665 19.6999 66.6665 15.6666 64.7998 12.4332L59.7998 3.7999C58.6665 1.7999 56.6332 0.66657 54.4998 0.46657ZM14.7332 27.8999L0.666504 30.2332L3.1665 34.5666L9.83317 46.0999L12.3332 50.4332L21.3998 39.4332L14.7332 27.8999Z" fill="white"/>
</svg>
