<svg width="88" height="88" viewBox="0 0 88 88" fill="none" xmlns="http://www.w3.org/2000/svg">
<path d="M69.9531 61.3594C64.5037 61.3594 60.0703 56.926 60.0703 51.4766C60.0703 46.0271 64.5037 41.5938 69.9531 41.5938C75.4026 41.5938 79.8359 46.0271 79.8359 51.4766C79.8359 56.926 75.4026 61.3594 69.9531 61.3594Z" fill="white"/>
<path d="M18.0469 61.3594C12.5974 61.3594 8.16406 56.926 8.16406 51.4766C8.16406 46.0271 12.5974 41.5938 18.0469 41.5938C23.4963 41.5938 27.9297 46.0271 27.9297 51.4766C27.9297 56.926 23.4963 61.3594 18.0469 61.3594Z" fill="white"/>
<path d="M63.7654 6.875L43.2411 0C43.2411 0 27.492 6.875 24.2341 6.875C24.2341 6.875 24.2342 8.02931 24.2342 9.45312V24.1651C24.2342 29.9494 26.0593 35.4599 29.5121 40.1007C32.9649 44.7413 37.7186 48.0729 43.259 49.735C43.5007 49.8075 43.7502 49.8438 43.9998 49.8438C44.2494 49.8438 44.4989 49.8075 44.7406 49.735C50.281 48.0729 55.0347 44.7413 58.4875 40.1007C61.9403 35.4599 63.7654 29.9494 63.7654 24.1651V9.45312C63.7654 8.02931 63.7654 6.875 63.7654 6.875ZM53.1148 21.8835L43.3922 31.6061C42.8888 32.1095 42.229 32.3613 41.5693 32.3613C40.9096 32.3613 40.2497 32.1097 39.7464 31.6061L34.8851 26.7448C33.8782 25.7379 33.8782 24.1056 34.8851 23.0988C35.8918 22.092 37.5242 22.092 38.5311 23.0988L41.5695 26.137L49.4692 18.2375C50.4759 17.2306 52.1083 17.2306 53.1152 18.2375C54.1217 19.2443 54.1217 20.8766 53.1148 21.8835Z" fill="white"/>
<path d="M80.4958 62.1903C77.7797 64.8634 74.056 66.5157 69.953 66.5157C65.8435 66.5157 62.1143 64.8583 59.3972 62.1774C57.9548 63.2165 56.671 64.4628 55.5925 65.8768L57.0091 67.1176C61.3029 70.8784 63.7655 76.2971 63.7655 81.9844V88H85.4218C86.8456 88 87.9999 86.8457 87.9999 85.4219V76.8282C87.9999 70.8098 85.038 65.4708 80.4958 62.1903Z" fill="white"/>
<path d="M7.50406 62.1903C2.96192 65.4708 0 70.8098 0 76.8282V85.4219C0 86.8457 1.15431 88 2.57812 88H24.2344V81.9844C24.2344 76.2971 26.697 70.8784 30.9908 67.1176L32.4074 65.8768C31.3289 64.4628 30.0451 63.2165 28.6027 62.1774C25.8856 64.8583 22.1564 66.5157 18.0469 66.5157C13.9439 66.5157 10.2202 64.8634 7.50406 62.1903Z" fill="white"/>
<path d="M53.6119 70.9965C51.1858 73.5282 47.7751 75.1094 44 75.1094C40.2249 75.1094 36.8143 73.5282 34.3881 70.9965C31.3283 73.6763 29.3906 77.6071 29.3906 81.9844V88H58.6094V81.9844C58.6094 77.6071 56.6717 73.6763 53.6119 70.9965Z" fill="white"/>
<path d="M44 69.9531C39.4983 69.9531 35.8359 66.2908 35.8359 61.7891C35.8359 57.2873 39.4983 53.625 44 53.625C48.5017 53.625 52.1641 57.2873 52.1641 61.7891C52.1641 66.2908 48.5017 69.9531 44 69.9531Z" fill="white"/>
</svg>
