<svg width="66" height="82" viewBox="0 0 66 82" fill="none" xmlns="http://www.w3.org/2000/svg">
<path d="M33 0.666748L0 15.3334V37.3334C0 57.6834 14.08 76.7134 33 81.3334C51.92 76.7134 66 57.6834 66 37.3334V15.3334L33 0.666748ZM33 15.3334C35.9174 15.3334 38.7153 16.4923 40.7782 18.5552C42.8411 20.6181 44 23.416 44 26.3334C44 29.2508 42.8411 32.0487 40.7782 34.1116C38.7153 36.1745 35.9174 37.3334 33 37.3334C30.0826 37.3334 27.2847 36.1745 25.2218 34.1116C23.1589 32.0487 22 29.2508 22 26.3334C22 23.416 23.1589 20.6181 25.2218 18.5552C27.2847 16.4923 30.0826 15.3334 33 15.3334ZM51.81 59.3334C47.3733 66.1167 40.7367 71.2134 33 73.7067C25.2633 71.2134 18.6267 66.1167 14.19 59.3334C12.9433 57.5001 11.88 55.6667 11 53.7234C11 47.6734 20.9367 42.7234 33 42.7234C45.0633 42.7234 55 47.5634 55 53.7234C54.12 55.6667 53.0567 57.5001 51.81 59.3334Z" fill="white"/>
</svg>
