<svg width="66" height="82" viewBox="0 0 66 82" fill="none" xmlns="http://www.w3.org/2000/svg">
<path fill-rule="evenodd" clip-rule="evenodd" d="M0 15.3333L33 0.666626L66 15.3333V37.3333C66 57.6833 51.92 76.7133 33 81.3333C14.08 76.7133 0 57.6833 0 37.3333V15.3333ZM28.3396 45.5372C29.5767 46.7406 31.2546 47.4166 33.0041 47.4166C34.7537 47.4166 36.4316 46.7406 37.6687 45.5372C38.9058 44.3339 39.6008 42.7018 39.6008 41C39.6008 39.2982 38.9058 37.666 37.6687 36.4627C36.4316 35.2593 34.7537 34.5833 33.0041 34.5833C31.2546 34.5833 29.5767 35.2593 28.3396 36.4627C27.1025 37.666 26.4074 39.2982 26.4074 41C26.4074 42.7018 27.1025 44.3339 28.3396 45.5372ZM47.1399 41C47.1399 41.605 47.0833 42.1916 47.0079 42.7783L50.9848 45.8216C51.3429 46.0966 51.4371 46.5916 51.2109 46.995L47.4414 53.3383C47.2152 53.7416 46.7064 53.8883 46.2917 53.7416L41.5986 51.89C40.6186 52.6233 39.6008 53.2283 38.4134 53.705L37.716 58.5633C37.6406 59.0033 37.2448 59.3333 36.7737 59.3333H29.2346C28.7634 59.3333 28.3676 59.0033 28.2922 58.5633L27.5948 53.705C26.4074 53.2466 25.3897 52.6233 24.4096 51.89L19.7165 53.7416C19.3019 53.8883 18.793 53.7416 18.5668 53.3383L14.7973 46.995C14.5523 46.5916 14.6654 46.0966 15.0235 45.8216L19.0003 42.7783C18.9249 42.1916 18.8684 41.605 18.8684 41C18.8684 40.395 18.9249 39.79 19.0003 39.1666L15.0235 36.1783C14.6654 35.9033 14.5523 35.4083 14.7973 35.005L18.5668 28.6616C18.793 28.2583 19.3019 28.0933 19.7165 28.2583L24.4096 30.0916C25.3897 29.3766 26.4074 28.7533 27.5948 28.295L28.2922 23.4366C28.3676 22.9966 28.7634 22.6666 29.2346 22.6666H36.7737C37.2448 22.6666 37.6406 22.9966 37.716 23.4366L38.4134 28.295C39.6008 28.7533 40.6186 29.3766 41.5986 30.0916L46.2917 28.2583C46.7064 28.0933 47.2152 28.2583 47.4414 28.6616L51.2109 35.005C51.4371 35.4083 51.3429 35.9033 50.9848 36.1783L47.0079 39.1666C47.0833 39.79 47.1399 40.395 47.1399 41Z" fill="white"/>
</svg>
