<svg width="48" height="68" viewBox="0 0 48 68" fill="none" xmlns="http://www.w3.org/2000/svg">
<path d="M44.9012 14C48.2678 21.2333 47.5012 29.7667 43.8012 36.7C40.6678 42.3333 36.1678 47.1 32.3345 52.3333C30.6678 54.6667 29.0012 57.1667 27.7678 59.8667C27.3345 60.7667 27.0345 61.7 26.7012 62.6333C26.3678 63.5667 26.0678 64.5 25.7678 65.4333C25.4678 66.3 25.1012 67.3333 24.0012 67.3333C22.7012 67.3333 22.3345 65.8667 22.0678 64.8667C21.2678 62.4333 20.4678 60.1 19.2345 57.8667C17.8345 55.2333 16.0678 52.8 14.2678 50.4333L44.9012 14ZM14.4012 22.0667L3.40116 35.1333C5.43449 39.4333 8.46782 43.1 11.3678 46.7667C12.0678 47.6 12.7678 48.4667 13.4345 49.3667L27.3345 32.9L27.2012 32.9333C22.3345 34.6 16.9345 32.1333 15.0012 27.3333C14.7345 26.7667 14.5345 26.1 14.4012 25.4333C14.2345 24.2 14.2012 23.3 14.4012 22.1V22.0667ZM5.93449 9.40001L5.90116 9.43334C0.501158 16.2667 -0.432177 25.7667 2.80116 33.8L16.1012 18L15.9345 17.8333L5.93449 9.40001ZM31.4012 1.86667L20.6678 14.5667L20.8012 14.5333C25.2678 13 30.2678 14.9333 32.5345 19C33.0345 19.9333 33.4345 20.9333 33.5678 21.9333C33.7678 23.2 33.8345 24.1 33.6012 25.3333V25.3667L44.2678 12.7C41.4678 7.63334 36.9012 3.76667 31.4345 1.9L31.4012 1.86667ZM16.9678 16.9667L30.0012 1.46667L29.8678 1.43334C27.9345 0.933338 25.9678 0.666672 24.0012 0.666672C17.4345 0.666672 11.2345 3.50001 6.83449 8.36667L6.76782 8.40001L16.9678 16.9667Z" fill="#FF0000"/>
</svg>
