<svg width="40" height="40" viewBox="0 0 40 40" fill="none" xmlns="http://www.w3.org/2000/svg">
<path d="M20 1.66663L5 8.33329V18.3333C5 27.5833 11.4 36.2333 20 38.3333C28.6 36.2333 35 27.5833 35 18.3333V8.33329L20 1.66663ZM20 8.33329C21.3261 8.33329 22.5979 8.86008 23.5355 9.79776C24.4732 10.7354 25 12.0072 25 13.3333C25 14.6594 24.4732 15.9311 23.5355 16.8688C22.5979 17.8065 21.3261 18.3333 20 18.3333C18.6739 18.3333 17.4021 17.8065 16.4645 16.8688C15.5268 15.9311 15 14.6594 15 13.3333C15 12.0072 15.5268 10.7354 16.4645 9.79776C17.4021 8.86008 18.6739 8.33329 20 8.33329ZM28.55 28.3333C26.5333 31.4166 23.5167 33.7333 20 34.8666C16.4833 33.7333 13.4667 31.4166 11.45 28.3333C10.8833 27.5 10.4 26.6666 10 25.7833C10 23.0333 14.5167 20.7833 20 20.7833C25.4833 20.7833 30 22.9833 30 25.7833C29.6 26.6666 29.1167 27.5 28.55 28.3333Z" fill="#1E1E1E"/>
</svg>
