<svg width="40" height="40" viewBox="0 0 40 40" fill="none" xmlns="http://www.w3.org/2000/svg">
<g clip-path="url(#clip0)">
<path d="M17.7165 23.5C20.3832 17.6333 27.2998 15.05 33.1665 17.7166C39.0332 20.3833 41.6165 27.3 38.9498 33.1666C37.0665 37.3333 32.9165 40 28.3332 40C23.8332 40 19.7165 37.4 17.7832 33.3333H1.6665V30C1.7665 28.1 3.0665 26.55 5.5665 25.3C8.0665 24.05 11.1998 23.4 14.9998 23.3333C15.9498 23.3333 16.8498 23.4166 17.7165 23.5ZM14.9998 6.66663C16.8665 6.71663 18.4332 7.36663 19.6832 8.61663C20.9332 9.86663 21.5498 11.4333 21.5498 13.3333C21.5498 15.2333 20.9332 16.8 19.6832 18.05C18.4332 19.3 16.8665 19.9166 14.9998 19.9166C13.1332 19.9166 11.5665 19.3 10.3165 18.05C9.0665 16.8 8.44984 15.2333 8.44984 13.3333C8.44984 11.4333 9.0665 9.86663 10.3165 8.61663C11.5665 7.36663 13.1332 6.71663 14.9998 6.66663ZM28.3332 36.6666C30.5433 36.6666 32.6629 35.7887 34.2257 34.2258C35.7885 32.663 36.6665 30.5434 36.6665 28.3333C36.6665 26.1232 35.7885 24.0035 34.2257 22.4407C32.6629 20.8779 30.5433 20 28.3332 20C26.123 20 24.0034 20.8779 22.4406 22.4407C20.8778 24.0035 19.9998 26.1232 19.9998 28.3333C19.9998 30.5434 20.8778 32.663 22.4406 34.2258C24.0034 35.7887 26.123 36.6666 28.3332 36.6666ZM26.6665 23.3333H29.1665V28.0333L33.2332 30.3833L31.9832 32.55L26.6665 29.4833V23.3333Z" fill="#1E1E1E"/>
</g>
<defs>
<clipPath id="clip0">
<rect width="40" height="40" fill="white"/>
</clipPath>
</defs>
</svg>
