<svg width="40" height="40" viewBox="0 0 40 40" fill="none" xmlns="http://www.w3.org/2000/svg">
<path d="M30.2502 8.23328C29.6168 8.18328 28.9502 8.33328 28.3335 8.66662L13.9168 17C12.3168 17.9333 11.7835 20 12.7002 21.5666L15.2002 25.8833C16.1168 27.5 18.1502 28.0333 19.7502 27.1166L22.7502 25.3833C23.2002 26.15 23.8668 26.7666 24.6835 27.1166V30.0666C24.6835 31.8833 26.1668 33.3333 28.0168 33.3333H36.6668V30.0666H28.0168V27.1166C29.5335 26.45 30.5168 24.95 30.5168 23.3333C30.5168 22.5666 30.3168 21.85 29.9502 21.2166L34.1668 18.7833C35.7835 17.85 36.3335 15.8333 35.4002 14.2166L32.9002 9.89995C32.3335 8.89995 31.3168 8.33328 30.2502 8.23328ZM10.3668 21.95L3.3335 23.1166L4.5835 25.2833L7.91683 31.0499L9.16683 33.2166L13.7002 27.7166L10.3668 21.95Z" fill="#1E1E1E"/>
</svg>
