<svg width="124" height="152" viewBox="0 0 124 152" fill="none" xmlns="http://www.w3.org/2000/svg">
<path d="M62 0.833252L0.5 28.1666V69.1666C0.5 107.092 26.74 142.557 62 151.167C97.26 142.557 123.5 107.092 123.5 69.1666V28.1666L62 0.833252Z" fill="#1E1E1E"/>
<path d="M62 5L4 30.8182V69.5454C4 105.368 28.7467 138.867 62 147C95.2533 138.867 120 105.368 120 69.5454V30.8182L62 5Z" fill="white"/>
<path d="M62 9L7 33.3636V69.9091C7 103.714 30.4667 135.325 62 143C93.5333 135.325 117 103.714 117 69.9091V33.3636L62 9Z" fill="#1E1E1E"/>
<path d="M33.1825 74.1H30.5825V80H28.0225V66H30.5825V71.86H33.2625L37.2825 66H40.0425L35.2625 72.78L40.2225 80H37.2825L33.1825 74.1ZM42.0073 66H44.5673V75.94L52.0873 66H54.5073V80H51.9473V70.08L44.4273 80H42.0073V66ZM68.9327 77.82V80H58.4327V66H68.6527V68.18H61.0327V71.82H67.7927V73.96H61.0327V77.82H68.9327ZM81.0511 72.72C81.9444 72.96 82.6244 73.3733 83.0911 73.96C83.5578 74.5333 83.7911 75.2533 83.7911 76.12C83.7911 77.3467 83.3378 78.3 82.4311 78.98C81.5244 79.66 80.2111 80 78.4911 80H71.8511V66H78.1111C79.6844 66 80.9111 66.3133 81.7911 66.94C82.6711 67.5667 83.1111 68.4533 83.1111 69.6C83.1111 70.3333 82.9311 70.9667 82.5711 71.5C82.2244 72.0333 81.7178 72.44 81.0511 72.72ZM74.4111 71.98H77.8911C78.7311 71.98 79.3711 71.8133 79.8111 71.48C80.2511 71.1467 80.4711 70.6533 80.4711 70C80.4711 69.3467 80.2511 68.8533 79.8111 68.52C79.3711 68.1733 78.7311 68 77.8911 68H74.4111V71.98ZM78.4111 78C80.2511 78 81.1711 77.3067 81.1711 75.92C81.1711 74.56 80.2511 73.88 78.4111 73.88H74.4111V78H78.4111ZM96.0403 66V80H93.4403V68.18H90.4803V66H96.0403Z" fill="white"/>
</svg>
