<svg width="136" height="40" viewBox="0 0 136 40" fill="none" xmlns="http://www.w3.org/2000/svg">
<path fill-rule="evenodd" clip-rule="evenodd" d="M130.961 40H5.03889C2.26175 40 0 37.7456 0 35V5C0 2.24439 2.26175 0 5.03889 0H130.961C133.736 0 136 2.24439 136 5V35C136 37.7456 133.736 40 130.961 40Z" fill="black"/>
<path fill-rule="evenodd" clip-rule="evenodd" d="M130.961 0.800499C133.29 0.800499 135.197 2.68828 135.197 5V35C135.197 37.3117 133.303 39.1995 130.961 39.1995H5.03889C2.70959 39.1995 0.80312 37.3117 0.80312 35V5C0.80312 2.68828 2.69708 0.800499 5.03889 0.800499H130.961ZM130.961 0H5.03889C2.26175 0 0 2.25436 0 5V35C0 37.7556 2.26175 40 5.03889 40H130.961C133.736 40 136 37.7556 136 35V5C136 2.25436 133.736 0 130.961 0Z" fill="black"/>
<path d="M71.6455 13.232C70.7373 13.232 69.9717 12.9153 69.3662 12.2918C68.7658 11.6858 68.4305 10.8504 68.4455 9.99755C68.4455 9.08732 68.7558 8.31675 69.3662 7.70577C69.9692 7.08233 70.7348 6.76562 71.643 6.76562C72.5412 6.76562 73.3068 7.08233 73.9223 7.70577C74.5327 8.3367 74.843 9.10727 74.843 9.99755C74.833 10.9103 74.5227 11.6808 73.9223 12.2893C73.3193 12.9177 72.5537 13.232 71.6455 13.232ZM44.6221 13.232C43.734 13.232 42.9634 12.9202 42.3329 12.3043C41.7074 11.6908 41.3896 10.9153 41.3896 10C41.3896 9.08483 41.7074 8.30927 42.3329 7.6958C42.9509 7.07984 43.7214 6.76812 44.6221 6.76812C45.0625 6.76812 45.4903 6.8554 45.9006 7.03246C46.3034 7.20453 46.6312 7.43894 46.8739 7.72572L46.9339 7.79804L46.2559 8.46139L46.1859 8.37909C45.8031 7.92523 45.2902 7.70328 44.6121 7.70328C44.0067 7.70328 43.4788 7.91774 43.0434 8.34169C42.6056 8.76812 42.3829 9.32672 42.3829 10.0025C42.3829 10.6783 42.6056 11.2369 43.0434 11.6634C43.4788 12.0873 44.0067 12.3018 44.6121 12.3018C45.2576 12.3018 45.8006 12.0873 46.2234 11.6634C46.4736 11.414 46.6287 11.0649 46.6837 10.6235H44.5096V9.69081H47.617L47.6295 9.7756C47.652 9.93271 47.6745 10.0948 47.6745 10.2444C47.6745 11.1048 47.4143 11.8005 46.8989 12.3143C46.3134 12.9227 45.5479 13.232 44.6221 13.232ZM80.5524 13.0998H79.5941L76.6594 8.41899L76.6844 9.26188V13.0973H75.7262V6.90029H76.8195L76.8495 6.94767L79.6092 11.3566L79.5841 10.5162V6.90029H80.5524V13.0998ZM64.445 13.0998H63.4742V7.83296H61.7904V6.90029H66.1262V7.83296H64.4424V13.0998H64.445ZM60.9998 13.0998H60.0315V6.90029H60.9998V13.0998ZM55.5581 13.0998H54.5898V7.83296H52.906V6.90029H57.2419V7.83296H55.5581V13.0998ZM52.2931 13.0898H48.5802V6.90029H52.2931V7.83296H49.5509V9.5337H52.0254V10.4564H49.5509V12.1571H52.2931V13.0898ZM70.0768 11.6509C70.5096 12.0823 71.035 12.2993 71.6455 12.2993C72.2735 12.2993 72.7864 12.0873 73.2142 11.6509C73.6395 11.227 73.8547 10.6709 73.8547 10C73.8547 9.32922 73.6395 8.77061 73.2167 8.34917C72.7839 7.91774 72.256 7.70079 71.648 7.70079C71.02 7.70079 70.5071 7.91276 70.0818 8.34917C69.6565 8.77311 69.4413 9.32922 69.4413 10C69.4413 10.6709 69.654 11.2295 70.0768 11.6509Z" fill="white"/>
<path fill-rule="evenodd" clip-rule="evenodd" d="M68.355 21.7557C65.9907 21.7557 64.0742 23.5437 64.0742 26.01C64.0742 28.4539 66.0032 30.2644 68.355 30.2644C70.7194 30.2644 72.6358 28.4639 72.6358 26.01C72.6358 23.5437 70.7194 21.7557 68.355 21.7557ZM68.355 28.5786C67.0615 28.5786 65.9482 27.5113 65.9482 26.0001C65.9482 24.4664 67.064 23.4215 68.355 23.4215C69.6485 23.4215 70.7619 24.4664 70.7619 26.0001C70.7644 27.5212 69.6485 28.5786 68.355 28.5786ZM59.0153 21.7557C56.651 21.7557 54.7345 23.5437 54.7345 26.01C54.7345 28.4539 56.6635 30.2644 59.0153 30.2644C61.3796 30.2644 63.2961 28.4639 63.2961 26.01C63.2961 23.5437 61.3771 21.7557 59.0153 21.7557ZM59.0153 28.5786C57.7218 28.5786 56.6084 27.5113 56.6084 26.0001C56.6084 24.4664 57.7243 23.4215 59.0153 23.4215C60.3088 23.4215 61.4221 24.4664 61.4221 26.0001C61.4221 27.5212 60.3088 28.5786 59.0153 28.5786ZM47.9017 23.0549V24.8554H52.2375C52.1049 25.8654 51.7697 26.611 51.2568 27.1222C50.6213 27.7557 49.6405 28.4439 47.9117 28.4439C45.2471 28.4439 43.163 26.2993 43.163 23.6434C43.163 20.9876 45.2471 18.8429 47.9117 18.8429C49.3503 18.8429 50.3986 19.409 51.1767 20.1322L52.4577 18.8554C51.3769 17.823 49.9382 17.0325 47.9217 17.0325C44.2664 17.0325 41.199 20.0001 41.199 23.6335C41.199 27.2769 44.2639 30.2345 47.9217 30.2345C49.8957 30.2345 51.3769 29.5911 52.5478 28.3791C53.7412 27.1896 54.119 25.5113 54.119 24.1572C54.119 23.7357 54.0865 23.3567 54.0189 23.035H47.8992C47.9017 23.0325 47.9017 23.0549 47.9017 23.0549ZM93.3594 24.4564C93.0016 23.5013 91.9208 21.7457 89.7041 21.7457C87.5074 21.7457 85.681 23.4689 85.681 26.0001C85.681 28.3891 87.4873 30.2544 89.9167 30.2544C91.8682 30.2544 93.0041 29.0649 93.472 28.3666L92.0234 27.3991C91.543 28.1098 90.875 28.5761 89.9267 28.5761C88.9685 28.5761 88.298 28.1422 87.8526 27.2868L93.5596 24.9302C93.5596 24.9327 93.3594 24.4564 93.3594 24.4564ZM87.5399 25.8779C87.4949 24.2345 88.8209 23.3991 89.7691 23.3991C90.5172 23.3991 91.1402 23.7656 91.3528 24.2993L87.5399 25.8779ZM82.9038 30.0001H84.7777V17.5013H82.9038V30.0001ZM79.8264 22.7008H79.7589C79.336 22.1996 78.5329 21.7457 77.5071 21.7457C75.378 21.7457 73.4164 23.6135 73.4164 26.0125C73.4164 28.4015 75.368 30.2469 77.5071 30.2469C78.5204 30.2469 79.336 29.7906 79.7589 29.2794H79.8264V29.8903C79.8264 31.5138 78.9557 32.3891 77.5521 32.3891C76.4038 32.3891 75.6907 31.5661 75.4005 30.8779L73.7717 31.5562C74.2396 32.6784 75.488 34.0674 77.5496 34.0674C79.7463 34.0674 81.6078 32.7781 81.6078 29.6335V22.0001H79.8364V22.7008C79.8389 22.7008 79.8264 22.7008 79.8264 22.7008ZM77.6747 28.5786C76.3812 28.5786 75.3004 27.5013 75.3004 26.0125C75.3004 24.5113 76.3812 23.424 77.6747 23.424C78.9557 23.424 79.949 24.5237 79.949 26.0125C79.9615 27.5013 78.9582 28.5786 77.6747 28.5786ZM102.134 17.5013H97.6527V30.0001H99.5267V25.2669H102.136C104.21 25.2669 106.249 23.7681 106.249 21.3891C106.249 19.01 104.218 17.5013 102.134 17.5013ZM102.189 23.5212H99.5242V19.232H102.189C103.592 19.232 104.385 20.3866 104.385 21.3766C104.385 22.3567 103.582 23.5212 102.189 23.5212ZM113.76 21.7332C112.399 21.7332 110.996 22.3342 110.415 23.6434L112.076 24.3317C112.434 23.6434 113.09 23.409 113.783 23.409C114.753 23.409 115.734 23.9876 115.757 25.02V25.1522C115.422 24.9626 114.686 24.6734 113.805 24.6734C112.011 24.6734 110.192 25.6509 110.192 27.4838C110.192 29.1621 111.664 30.2395 113.302 30.2395C114.561 30.2395 115.254 29.6734 115.687 29.0175H115.754V29.9851H117.561V25.1971C117.561 22.9676 115.899 21.7332 113.76 21.7332ZM113.525 28.5786C112.912 28.5786 112.054 28.2794 112.054 27.5113C112.054 26.5437 113.125 26.1771 114.038 26.1771C114.864 26.1771 115.254 26.3542 115.744 26.5986C115.609 27.7207 114.658 28.5686 113.525 28.5786ZM124.151 22.0001L121.999 27.4215H121.932L119.702 22.0001H117.686L121.031 29.5786L119.124 33.7906H121.076L126.222 22.0001H124.151ZM107.283 30.0001H109.157V17.5013H107.283V30.0001Z" fill="white"/>
<path fill-rule="evenodd" clip-rule="evenodd" d="M10.4684 7.53364C10.1781 7.84536 10.0105 8.32167 10.0105 8.94511V31.0573C10.0105 31.6808 10.1781 32.1571 10.4784 32.4563L10.5559 32.5237L22.9855 20.1346V19.8578L10.5459 7.46631L10.4684 7.53364Z" fill="#00CFFF"/>
<path fill-rule="evenodd" clip-rule="evenodd" d="M27.1211 24.2768L22.9753 20.1446V19.8553L27.1211 15.7231L27.2111 15.778L32.115 18.5561C33.5185 19.3441 33.5185 20.6458 32.115 21.4438L27.2111 24.2219L27.1211 24.2768Z" fill="#FFCB00"/>
<path fill-rule="evenodd" clip-rule="evenodd" d="M27.2107 24.2219L22.9749 20L10.4678 32.4663C10.9256 32.9551 11.6937 33.01 12.5519 32.5337L27.2107 24.2219Z" fill="#FA3646"/>
<path fill-rule="evenodd" clip-rule="evenodd" d="M27.2107 15.7779L12.5519 7.47869C11.6937 6.98992 10.9231 7.05725 10.4678 7.54603L22.9749 19.9999L27.2107 15.7779Z" fill="#00F076"/>
<path opacity="0.2" fill-rule="evenodd" clip-rule="evenodd" d="M27.1212 24.1323L12.5624 32.3767C11.7493 32.843 11.0237 32.8106 10.5558 32.3867L10.4783 32.464L10.5558 32.5313C11.0237 32.9527 11.7493 32.9877 12.5624 32.5213L27.2213 24.2221L27.1212 24.1323Z" fill="black"/>
<path opacity="0.12" fill-rule="evenodd" clip-rule="evenodd" d="M32.1148 21.2993L27.1084 24.1322L27.1985 24.2219L32.1023 21.4439C32.8053 21.0449 33.1506 20.5212 33.1506 20C33.108 20.4788 32.7503 20.9327 32.1148 21.2993Z" fill="black"/>
<path opacity="0.25" fill-rule="evenodd" clip-rule="evenodd" d="M12.5525 7.62329L32.1151 18.7006C32.7506 19.0572 33.1083 19.5235 33.1634 19.9999C33.1634 19.4787 32.8181 18.955 32.1151 18.556L12.5525 7.47866C11.1489 6.67816 10.0105 7.34649 10.0105 8.94499V9.08963C10.0105 7.48863 11.1489 6.83277 12.5525 7.62329Z" fill="#D1A2F3"/>
</svg>
