<svg width="136" height="40" viewBox="0 0 136 40" fill="none" xmlns="http://www.w3.org/2000/svg">
<path fill-rule="evenodd" clip-rule="evenodd" d="M130.961 40H5.03889C2.26175 40 0 37.7456 0 35V5C0 2.24439 2.26175 0 5.03889 0H130.961C133.736 0 136 2.24439 136 5V35C136 37.7456 133.736 40 130.961 40Z" fill="white"/>
<path fill-rule="evenodd" clip-rule="evenodd" d="M130.961 0.800499C133.29 0.800499 135.197 2.68828 135.197 5V35C135.197 37.3117 133.303 39.1995 130.961 39.1995H5.03889C2.70959 39.1995 0.80312 37.3117 0.80312 35V5C0.80312 2.68828 2.69708 0.800499 5.03889 0.800499H130.961ZM130.961 0H5.03889C2.26175 0 0 2.25436 0 5V35C0 37.7556 2.26175 40 5.03889 40H130.961C133.736 40 136 37.7556 136 35V5C136 2.25436 133.736 0 130.961 0Z" fill="white"/>
<path d="M71.6456 13.2318C70.7374 13.2318 69.9718 12.9151 69.3663 12.2917C68.7658 11.6857 68.4306 10.8503 68.4456 9.99742C68.4456 9.0872 68.7558 8.31663 69.3663 7.70565C69.9693 7.08221 70.7349 6.7655 71.6431 6.7655C72.5412 6.7655 73.3068 7.08221 73.9223 7.70565C74.5328 8.33658 74.843 9.10715 74.843 9.99742C74.833 10.9101 74.5228 11.6807 73.9223 12.2892C73.3193 12.9176 72.5538 13.2318 71.6456 13.2318ZM44.6222 13.2318C43.734 13.2318 42.9634 12.9201 42.3329 12.3042C41.7074 11.6907 41.3897 10.9151 41.3897 9.99992C41.3897 9.08471 41.7074 8.30914 42.3329 7.69568C42.9509 7.07972 43.7215 6.768 44.6222 6.768C45.0625 6.768 45.4904 6.85528 45.9007 7.03234C46.3035 7.20441 46.6312 7.43882 46.8739 7.7256L46.934 7.79792L46.256 8.46126L46.1859 8.37897C45.8031 7.9251 45.2902 7.70316 44.6122 7.70316C44.0067 7.70316 43.4788 7.91762 43.0435 8.34156C42.6056 8.768 42.383 9.3266 42.383 10.0024C42.383 10.6782 42.6056 11.2368 43.0435 11.6633C43.4788 12.0872 44.0067 12.3017 44.6122 12.3017C45.2577 12.3017 45.8006 12.0872 46.2234 11.6633C46.4736 11.4139 46.6287 11.0648 46.6838 10.6234H44.5096V9.69069H47.617L47.6295 9.77548C47.652 9.93259 47.6745 10.0947 47.6745 10.2443C47.6745 11.1047 47.4143 11.8004 46.8989 12.3141C46.3135 12.9226 45.5479 13.2318 44.6222 13.2318ZM80.5524 13.0997H79.5942L76.6594 8.41887L76.6844 9.26176V13.0972H75.7262V6.90017H76.8195L76.8496 6.94755L79.6092 11.3565L79.5842 10.5161V6.90017H80.5524V13.0997ZM64.445 13.0997H63.4742V7.83284H61.7904V6.90017H66.1263V7.83284H64.4425V13.0997H64.445ZM60.9998 13.0997H60.0316V6.90017H60.9998V13.0997ZM55.5581 13.0997H54.5899V7.83284H52.9061V6.90017H57.2419V7.83284H55.5581V13.0997ZM52.2931 13.0897H48.5802V6.90017H52.2931V7.83284H49.551V9.53358H52.0254V10.4563H49.551V12.157H52.2931V13.0897ZM70.0768 11.6508C70.5097 12.0822 71.0351 12.2992 71.6456 12.2992C72.2735 12.2992 72.7864 12.0872 73.2143 11.6508C73.6396 11.2269 73.8548 10.6707 73.8548 9.99992C73.8548 9.32909 73.6396 8.77049 73.2168 8.34904C72.7839 7.91762 72.256 7.70066 71.6481 7.70066C71.0201 7.70066 70.5072 7.91264 70.0819 8.34904C69.6565 8.77298 69.4414 9.32909 69.4414 9.99992C69.4414 10.6707 69.654 11.2293 70.0768 11.6508Z" fill="#D1A2F3"/>
<path fill-rule="evenodd" clip-rule="evenodd" d="M68.3551 21.7557C65.9908 21.7557 64.0743 23.5437 64.0743 26.01C64.0743 28.4539 66.0033 30.2644 68.3551 30.2644C70.7194 30.2644 72.6359 28.4639 72.6359 26.01C72.6359 23.5437 70.7194 21.7557 68.3551 21.7557ZM68.3551 28.5786C67.0616 28.5786 65.9482 27.5113 65.9482 26.0001C65.9482 24.4664 67.0641 23.4215 68.3551 23.4215C69.6486 23.4215 70.762 24.4664 70.762 26.0001C70.7645 27.5212 69.6486 28.5786 68.3551 28.5786ZM59.0154 21.7557C56.651 21.7557 54.7346 23.5437 54.7346 26.01C54.7346 28.4539 56.6636 30.2644 59.0154 30.2644C61.3797 30.2644 63.2962 28.4639 63.2962 26.01C63.2962 23.5437 61.3772 21.7557 59.0154 21.7557ZM59.0154 28.5786C57.7219 28.5786 56.6085 27.5113 56.6085 26.0001C56.6085 24.4664 57.7244 23.4215 59.0154 23.4215C60.3089 23.4215 61.4222 24.4664 61.4222 26.0001C61.4222 27.5212 60.3089 28.5786 59.0154 28.5786ZM47.9018 23.0549V24.8554H52.2376C52.105 25.8654 51.7698 26.611 51.2569 27.1222C50.6214 27.7557 49.6406 28.4439 47.9118 28.4439C45.2472 28.4439 43.1631 26.2993 43.1631 23.6434C43.1631 20.9876 45.2472 18.8429 47.9118 18.8429C49.3504 18.8429 50.3987 19.409 51.1768 20.1322L52.4578 18.8554C51.377 17.823 49.9383 17.0325 47.9218 17.0325C44.2664 17.0325 41.1991 20.0001 41.1991 23.6335C41.1991 27.2769 44.2639 30.2345 47.9218 30.2345C49.8958 30.2345 51.377 29.5911 52.5479 28.3791C53.7413 27.1896 54.1191 25.5113 54.1191 24.1572C54.1191 23.7357 54.0866 23.3567 54.019 23.035H47.8993C47.9018 23.0325 47.9018 23.0549 47.9018 23.0549ZM93.3595 24.4564C93.0017 23.5013 91.9209 21.7457 89.7042 21.7457C87.5075 21.7457 85.681 23.4689 85.681 26.0001C85.681 28.3891 87.4874 30.2544 89.9168 30.2544C91.8683 30.2544 93.0042 29.0649 93.4721 28.3666L92.0235 27.3991C91.5431 28.1098 90.8751 28.5761 89.9268 28.5761C88.9686 28.5761 88.2981 28.1422 87.8527 27.2868L93.5596 24.9302C93.5596 24.9327 93.3595 24.4564 93.3595 24.4564ZM87.54 25.8779C87.4949 24.2345 88.821 23.3991 89.7692 23.3991C90.5173 23.3991 91.1403 23.7656 91.3529 24.2993L87.54 25.8779ZM82.9039 30.0001H84.7778V17.5013H82.9039V30.0001ZM79.8265 22.7008H79.7589C79.3361 22.1996 78.533 21.7457 77.5072 21.7457C75.3781 21.7457 73.4165 23.6135 73.4165 26.0125C73.4165 28.4015 75.368 30.2469 77.5072 30.2469C78.5205 30.2469 79.3361 29.7906 79.7589 29.2794H79.8265V29.8903C79.8265 31.5138 78.9558 32.3891 77.5522 32.3891C76.4038 32.3891 75.6908 31.5661 75.4006 30.8779L73.7718 31.5562C74.2397 32.6784 75.4881 34.0674 77.5497 34.0674C79.7464 34.0674 81.6079 32.7781 81.6079 29.6335V22.0001H79.8365V22.7008C79.839 22.7008 79.8265 22.7008 79.8265 22.7008ZM77.6748 28.5786C76.3813 28.5786 75.3005 27.5013 75.3005 26.0125C75.3005 24.5113 76.3813 23.424 77.6748 23.424C78.9558 23.424 79.9491 24.5237 79.9491 26.0125C79.9616 27.5013 78.9583 28.5786 77.6748 28.5786ZM102.134 17.5013H97.6528V30.0001H99.5268V25.2669H102.136C104.21 25.2669 106.249 23.7681 106.249 21.3891C106.249 19.01 104.218 17.5013 102.134 17.5013ZM102.189 23.5212H99.5243V19.232H102.189C103.592 19.232 104.386 20.3866 104.386 21.3766C104.386 22.3567 103.582 23.5212 102.189 23.5212ZM113.76 21.7332C112.399 21.7332 110.996 22.3342 110.415 23.6434L112.076 24.3317C112.434 23.6434 113.09 23.409 113.783 23.409C114.754 23.409 115.734 23.9876 115.757 25.02V25.1522C115.422 24.9626 114.686 24.6734 113.805 24.6734C112.011 24.6734 110.193 25.6509 110.193 27.4838C110.193 29.1621 111.664 30.2395 113.302 30.2395C114.561 30.2395 115.254 29.6734 115.687 29.0175H115.754V29.9851H117.561V25.1971C117.561 22.9676 115.899 21.7332 113.76 21.7332ZM113.525 28.5786C112.912 28.5786 112.054 28.2794 112.054 27.5113C112.054 26.5437 113.125 26.1771 114.038 26.1771C114.864 26.1771 115.254 26.3542 115.744 26.5986C115.609 27.7207 114.658 28.5686 113.525 28.5786ZM124.151 22.0001L121.999 27.4215H121.932L119.702 22.0001H117.686L121.031 29.5786L119.124 33.7906H121.076L126.222 22.0001H124.151ZM107.283 30.0001H109.157V17.5013H107.283V30.0001Z" fill="#D1A2F3"/>
<path fill-rule="evenodd" clip-rule="evenodd" d="M10.4685 7.53376C10.1782 7.84548 10.0106 8.32179 10.0106 8.94523V31.0575C10.0106 31.6809 10.1782 32.1572 10.4785 32.4565L10.556 32.5238L22.9856 20.1348V19.858L10.546 7.46643L10.4685 7.53376Z" fill="#D1A2F3"/>
<path fill-rule="evenodd" clip-rule="evenodd" d="M27.1211 24.2768L22.9754 20.1446V19.8553L27.1211 15.7231L27.2112 15.778L32.115 18.5561C33.5186 19.3441 33.5186 20.6458 32.115 21.4438L27.2112 24.2219L27.1211 24.2768Z" fill="#D1A2F3"/>
<path fill-rule="evenodd" clip-rule="evenodd" d="M27.2106 24.2219L22.9749 20L10.4677 32.4663C10.9256 32.9551 11.6937 33.01 12.5518 32.5337L27.2106 24.2219Z" fill="#D1A2F3"/>
<path fill-rule="evenodd" clip-rule="evenodd" d="M27.2106 15.7781L12.5518 7.47882C11.6937 6.99004 10.9231 7.05737 10.4677 7.54615L22.9749 20L27.2106 15.7781Z" fill="#D1A2F3"/>
<path opacity="0.2" fill-rule="evenodd" clip-rule="evenodd" d="M27.1212 24.1323L12.5624 32.3767C11.7492 32.843 11.0237 32.8106 10.5558 32.3867L10.4782 32.464L10.5558 32.5313C11.0237 32.9527 11.7492 32.9877 12.5624 32.5213L27.2213 24.2221L27.1212 24.1323Z" fill="white"/>
<path opacity="0.12" fill-rule="evenodd" clip-rule="evenodd" d="M32.1148 21.2993L27.1084 24.1322L27.1985 24.2219L32.1023 21.4439C32.8053 21.0449 33.1506 20.5212 33.1506 20C33.1081 20.4788 32.7503 20.9327 32.1148 21.2993Z" fill="white"/>
<path opacity="0.25" fill-rule="evenodd" clip-rule="evenodd" d="M12.5526 7.62329L32.1152 18.7006C32.7507 19.0572 33.1085 19.5235 33.1635 19.9999C33.1635 19.4787 32.8182 18.955 32.1152 18.556L12.5526 7.47866C11.149 6.67816 10.0106 7.34649 10.0106 8.94499V9.08963C10.0106 7.48863 11.149 6.83277 12.5526 7.62329Z" fill="#D1A2F3"/>
</svg>
