<svg width="776" height="503" viewBox="0 0 776 503" fill="none" xmlns="http://www.w3.org/2000/svg">
<path fill-rule="evenodd" clip-rule="evenodd" d="M119.061 279.588C111.123 282.275 94.4752 290.211 74.3184 293.172C35.1994 298.919 -12.281 272.075 3.39648 247.494C21.7118 218.784 61.7515 219.829 85.3175 223.337C100.497 225.601 106.569 227.616 119.335 235.553C123.765 238.289 127.796 240.777 128.443 240.454C130.558 239.359 133.744 230.502 133.594 210.151C133.445 189.825 128.095 172.783 127.174 156.015C126.751 148.327 133.37 144.894 169.876 153.328C256.824 173.405 256.152 104.566 227.037 91.5042C181.274 71.0289 173.012 35.7756 192.895 17.7634C221.139 -7.83693 295.57 -3.50802 324.113 16.3702C356.04 38.6367 348.525 54.3601 324.138 81.5278C293.38 115.761 300.945 131.957 317.718 140.64C355.816 160.344 390.008 149.721 429.65 148.228C432.81 148.104 435.597 150.019 436.593 153.03C440.599 164.922 445.004 193.159 445.203 205.798C445.427 219.879 441.346 214.555 428.878 212.067C385.454 203.359 350.491 210.077 333.047 226.82C317.991 241.275 307.689 263.641 324.188 284.638C357.235 326.709 432.984 301.755 441.47 302.128C461.851 303.074 447.89 454.262 438.16 493.869C437.887 495.014 437.588 496.084 437.314 497.054C436.468 500.014 433.905 502.03 430.819 502.154C428.53 502.254 426.265 502.328 423.976 502.403C412.977 502.776 402.252 502.975 391.626 503C372.464 503.05 353.626 502.527 334.017 501.532C332.449 498.994 332.947 496.556 333.868 494.093C337.128 485.435 340.338 472.374 341.259 463.368C343.025 446.127 341.707 413.063 325.307 402.838C298.631 386.169 244.133 419.283 243.61 494.317C223.702 491.979 211.982 489.914 199.763 489.59C151.536 488.247 125.332 496.954 123.989 495.835C122.073 494.243 138.173 423.761 137.526 338.899C137.377 321.136 134.988 306.034 131.653 295.486C129.837 289.788 128.244 287.176 125.955 282.972C125.407 281.976 124.661 280.533 124.038 279.364C123.391 278.046 119.161 279.563 119.061 279.588Z" fill="#010005"/>
<path fill-rule="evenodd" clip-rule="evenodd" d="M443.116 279.588C435.178 282.275 418.53 290.211 398.373 293.172C359.254 298.919 311.774 272.075 327.451 247.495C345.767 218.784 385.831 219.829 409.372 223.337C424.552 225.601 430.624 227.616 443.39 235.553C447.82 238.289 451.851 240.777 452.498 240.454C454.613 239.359 457.798 230.502 457.649 210.151C457.5 189.825 452.15 172.783 451.229 156.015C450.806 148.328 457.425 144.894 493.931 153.328C580.879 173.405 580.207 104.566 551.092 91.5043C505.329 71.0041 497.067 35.7509 516.95 17.7386C545.194 -7.86171 619.625 -3.5328 648.168 16.3454C680.095 38.6119 672.58 54.3353 648.193 81.503C617.435 115.736 625 131.932 641.772 140.615C679.871 160.319 714.063 149.696 753.705 148.203C756.865 148.079 759.652 149.994 760.647 153.005C764.654 164.897 769.059 193.134 769.258 205.773C769.482 219.854 765.401 214.53 752.933 212.042C709.509 203.335 674.546 210.052 657.102 226.795C642.046 241.25 631.744 263.616 648.242 284.614C681.29 326.684 757.039 301.73 765.525 302.104C785.906 303.049 771.945 454.238 762.215 493.845C761.942 494.989 761.643 496.059 761.369 497.029C760.523 499.99 757.96 502.005 754.874 502.129C752.585 502.229 750.32 502.303 748.031 502.378C737.032 502.751 726.306 502.95 715.681 502.975C696.519 503.025 677.681 502.502 658.072 501.507C656.504 498.97 657.002 496.531 657.923 494.068C661.183 485.411 664.393 472.349 665.313 463.343C667.08 446.102 665.761 413.038 649.362 402.813C622.686 386.144 568.188 419.258 567.665 494.292C547.757 491.954 536.037 489.889 523.818 489.565C475.591 488.222 449.387 496.93 448.044 495.81C446.127 494.218 462.228 423.736 461.581 338.874C461.432 321.111 459.043 306.009 455.708 295.461C453.891 289.764 452.299 287.151 450.009 282.947C449.462 281.952 448.715 280.509 448.093 279.339C447.421 278.046 443.216 279.563 443.116 279.588Z" fill="#010005"/>
</svg>
