<svg width="80" height="58" viewBox="0 0 80 58" fill="none" xmlns="http://www.w3.org/2000/svg">
<g clip-path="url(#clip0)">
<path fill-rule="evenodd" clip-rule="evenodd" d="M59.8 1.19995L54.1 1.89995L51.6 3.69995L50.6 5.99995V8.79995L54.3 12.6L56.2 13.8L57.1 15L56.6 16.8L55.7 17.7999L52.7 17.5L46.7 17.1L47.6 21.5L47.8 23.7999L47.5 26.1L44.1 25.1L40 25L36.9 25.7999L35 27.6L34.2 29V30.2L34.6 31.2999L35.7 32.4L37.5 33.2999L40 33.7999L42.5 34L44.7 33.5999L46.8 33.0999L47.5 32.9L48 34.5999L48.4 36.2999L48.5 38.0999V40V42.2999L48.2 44.5999L48.1 46.7L47.9 48.2999L47.6 50.4L47.4 52.0999L47.2 53.9L47.1 55.9H51.7H57.6L57.7 53.4L58 51.0999L59.1 48.5999L60.7 46.5999L62.7 45.7H64.7L65.7 46.2L66.5 48L66.8 49.9V51.7999L66.6 53.5999L65.9 56.5999L70.6 56.7999L75.3 56.5999L78.2 56.2V53.7999L78.6 51.2L79 47.7999L79.4 44.2L79.7 40.2L79.5 37.2L78.9 33.7L78.4 32.5999L77.2 33.2999L76.3 34L75.4 34.2999L74.2 34.5999H71.8L69.2 33.0999L67.6 31.7999L66.6 30.2999L66.9 28.2999L68.3 26.6L71 25.4H74.2L76.7 25.9L78.6 26.2L78.9 24.1L78.6 21.2L78.2 19L77.8 17.4L74.4 17.6L70.2 17.5L66.7 17.2L64.6 16.2L64.1 15V14L65.6 12.3L67.4 10.6L68.5 8.49995L68.4 6.19995L67.4 4.49995L65.9 3.19995L63.9 2.39995L61.9 1.79995L59.8 1.19995Z" fill="#57C84B"/>
<path fill-rule="evenodd" clip-rule="evenodd" d="M47.8 54.9C47.7 53.9 47.6 53.2 47.8 52C48.2 48 49.8 40.1 48.5 34.5C47.2 28.9 46.8 33.1 42.1 33.2C39.6 33.2 35.9 32 34.9 30.4C34.7 30.1 34.6 29.8 34.6 29.6C34.6 29.4 34.7 29.1 34.8 28.8C38.1 23.1 47.3 27 47.8 26.8C48.4 26.5 48.2 23.4 48 20.9C47.9 19.5 47.8 18.7 47.6 17.6C47.5 17 46.8 16.1 46.2 16.1C45.2 16.1 44.3 16.1 43.3 16.2C39.1 16.3 35.4 16.4 34.1 14.7C33.7 14.2 33.8 14.1 34.2 13.6C35.2 12.4 37.9 10.2 38.1 7.89999C38.3 5.69999 37.8 4.09999 36.8 2.89999C34 -0.60001 25 -1.10001 21.5 1.49999C20.6 2.19999 19.8 3.19999 19.5 4.89999C18.1 11.9 25.6 13.2 25.6 14.4C25.5 17.9 17.1 15.8 13.7 15.7C12.6 15.7 12.6 15.6 12.7 16.7C12.8 18.1 13.3 19.3 13.6 20.8C14 23.3 14.3 24.9 13.3 24.7C12.6 24.4 11.6 24.1 10.1 23.8C5.99998 23.2 0.499979 24.2 0.299979 29.2C0.0999791 34.1 6.09998 36 9.99998 35C11.4 34.6 12.7 33.9 13.4 33.9C13.8 33.9 13.8 34.1 14 34.4C14.1 34.6 14.2 34.8 14.2 35C15.3 38.8 13.8 49.6 13.1 52.6C10.9 61.5 14.4 54 26.5 56.9C26.9 57 27 57.1 27.2 56.7C27.5 56.2 27.2 55.7 27.2 54.9C27.2 53.1 27.6 51.1 28.4 49.6C31.8 43.5 38.8 46.3 34.8 54.7C34.5 55.1 34.5 55.7 34.5 56.2C34.5 57.6 35.6 57.4 37 57.4C37.9 57.4 39 57.4 40.2 57.4C42.1 57.3 44.3 57.2 46.2 57.1C46.6 57.1 46.9 57 47.3 57C47.8 57 48.1 56 47.8 54.9ZM13.1 31.6C12.3 31.9 10.5 32.7 8.39998 33C4.29998 33.6 -0.700021 30.8 0.899979 28.2C2.79998 25.2 6.99998 25.3 9.49998 25.7C11.1 25.9 11.7 26.1 13.1 27C13.6 27.3 14 27.5 14.1 27.5C14.3 27.4 14.7 26.5 14.6 24.3C14.6 22.2 14 20.4 13.9 18.6C13.9 17.8 14.6 17.4 18.4 18.3C27.6 20.4 27.5 13.2 24.4 11.8C19.6 9.59999 18.7 5.89999 20.8 4.09999C23.8 1.39999 31.6 1.89999 34.6 3.99999C38 6.29999 37.2 7.99999 34.6 10.8C31.4 14.4 32.2 16.1 33.9 17C37.9 19.1 41.5 18 45.7 17.8C46 17.8 46.3 18 46.4 18.3C46.8 19.5 47.3 22.5 47.3 23.8C47.3 25.3 46.9 24.7 45.6 24.5C41 23.6 37.3 24.3 35.5 26C33.9 27.5 32.8 29.9 34.6 32.1C38.1 36.5 46.1 33.9 46.9 33.9C49 34 47.6 49.9 46.6 54C46.6 54.1 46.5 54.2 46.5 54.3C46.4 54.6 46.1 54.8 45.8 54.8C45.6 54.8 45.3 54.8 45.1 54.8C43.9 54.8 42.8 54.9 41.7 54.9C39.7 54.9 37.7 54.9 35.6 54.7C35.4 54.4 35.5 54.2 35.6 53.9C35.9 53 36.3 51.6 36.4 50.7C36.6 48.9 36.4 45.4 34.7 44.3C31.9 42.5 26.2 46 26.1 53.9C24 53.7 22.8 53.4 21.5 53.4C16.4 53.3 13.7 54.2 13.5 54.1C13.3 53.9 15 46.5 14.9 37.6C14.9 35.7 14.6 34.1 14.3 33C14.1 32.4 13.9 32.1 13.7 31.7C13.6 31.6 13.6 31.4 13.5 31.3C13.5 31.4 13.1 31.6 13.1 31.6Z" fill="#25292A"/>
<path fill-rule="evenodd" clip-rule="evenodd" d="M33.5 8.29997C33.4 9.49997 32.3 10.3 30.6 10.7C28 11.2 25.1 11 23.7 9.29997C23.5 8.99997 23.5 8.89997 23.7 8.79997C24.3 8.69997 24.7 9.29997 25.7 9.59997C28.5 10.4 30.2 9.89997 31.7 8.89997C32.5 8.19997 33.6 6.79997 33.5 8.29997Z" fill="#25292A"/>
<path fill-rule="evenodd" clip-rule="evenodd" d="M64.6 8.79997C64.4 10.5 62.7 11.3 60.8 11.5C58.7 11.8 55.8 11.5 54.6 9.59997C54.2 8.69997 56.2 10.1 57.8 10.3C59.2 10.5 61 10.2 61.9 9.69997C64.2 8.39997 64.7 7.39997 64.6 8.79997Z" fill="#25292A"/>
<path fill-rule="evenodd" clip-rule="evenodd" d="M46.6 54.4L46.2 56.2C46 56.8 45.9 57.1 47.2 57C48.4 56.9 49.6 56.8 50.7 56.8C52.7 56.8 54.9 56.9 57.1 57.4C57.5 57.5 57.6 57.6 57.8 57.2C58.1 56.7 57.8 56.2 57.8 55.4C57.8 53.6 57.9 51.6 58.7 50.1C62.2 43.9 68.4 45.4 65.4 55.2C65.1 55.6 65.1 56.2 65.1 56.7C65.1 58.1 66.2 57.9 67.6 57.9C70.1 58 74.3 57.7 78.2 57.4C78.4 57.4 78.6 57.3 78.7 57.1C78.8 56.9 78.9 56.7 78.9 56.5L79 56C78.8 54.6 78.7 53.9 78.9 52.5C79.3 48.5 80.9 40.6 79.6 35C78.3 29.4 78.3 33.9 74.1 33.7C71.9 33.6 68.3 32.1 67.4 30.5C67.3 30.3 67.2 30 67.2 29.8C67.2 29.6 67.2 29.4 67.3 29.1C70 23.6 78.4 27.4 78.9 27.2C79.5 26.9 79.3 23.8 79.1 21.3C79 19.8 78.8 18.9 78.6 17.8C78.6 17.6 78.5 17.4 78.5 17.1C78.4 16.7 78.1 16.5 77.8 16.5C76.7 16.5 75.6 16.6 74.5 16.6C70.2 16.7 66.5 16.8 65.1 15.1C64.7 14.6 64.8 14.5 65.2 14C66.2 12.8 68.9 10.6 69.1 8.30001C69.3 6.10001 68.8 4.50001 67.8 3.30001C65 -0.199986 56 -0.699985 52.5 1.90001C51.6 2.60001 50.8 3.60001 50.5 5.30001C49.1 12.3 56.6 13.6 56.6 14.8C56.5 17.1 56 16.7 52.3 16.3C50.4 16.1 48.1 16 46.3 16C46.1 16 46.2 16.3 46.3 16.6L46.7 18.2C47.1 19.4 47.6 22.4 47.6 23.7C47.6 25.2 47.2 24.6 45.9 24.4C41.3 23.5 37.6 24.2 35.8 26C34.2 27.5 33.1 29.9 34.9 32.1C38.4 36.5 46.4 33.9 47.2 33.9C49.3 34 47.9 49.9 46.9 54C46.6 54.2 46.6 54.3 46.6 54.4ZM47.5 17.7C54.2 17.5 54 19.2 55.1 18.8C58.4 17.4 57.7 13.4 55.5 12.4C50.7 10.2 49.8 6.50001 51.9 4.70001C54.9 2.00001 62.7 2.50001 65.7 4.60001C69.1 6.90001 68.3 8.60001 65.7 11.4C62.5 15 63.3 16.7 65 17.6C69 19.7 72.6 18.6 76.8 18.4C77.1 18.4 77.4 18.6 77.5 18.9C77.9 20.1 78.4 23.1 78.4 24.4C78.4 25.9 78 25.3 76.7 25.1C72.1 24.2 69.1 24.9 67.5 26.7C66.1 28.2 65.6 30.7 67.6 33.2C68.7 34.6 71 35.7 73.1 35.6C75.6 35.5 77.6 34.5 78.1 34.6C80.2 35 78.8 50.6 77.8 54.7C77.8 54.8 77.7 54.9 77.7 55C77.6 55.3 77.3 55.5 77 55.5C76.8 55.5 76.5 55.5 76.3 55.5C73.1 55.6 70 55.6 66.8 55.4C66.6 55.1 66.7 54.9 66.8 54.6C67.1 53.7 67.3 52.3 67.4 51.3C67.5 49.5 67.1 46 65.3 44.9C62.6 43.2 57 46.7 57.3 54.6C52.6 54.6 50.1 54.7 47.9 54.8C47.8 53.8 47.7 53.1 47.9 51.9C48.3 47.9 49.9 40 48.6 34.4C47.3 28.8 46.9 33 42.2 33.1C39.7 33.1 36 31.9 35 30.3C34.8 30 34.7 29.7 34.7 29.5C34.7 29.3 34.8 29 34.9 28.7C38.2 23 47.4 26.9 47.9 26.7C48.5 26.4 48.3 23.3 48.1 20.8C47.8 19.6 47.7 18.7 47.5 17.7Z" fill="#25292A"/>
</g>
<defs>
<clipPath id="clip0">
<rect width="80" height="58" fill="white"/>
</clipPath>
</defs>
</svg>
