<svg width="28" height="28" viewBox="0 0 28 28" fill="none" xmlns="http://www.w3.org/2000/svg">
<g clip-path="url(#clip0)">
<path d="M8.57534 1.07739C9.70271 1.08898 10.859 1.30913 11.9903 1.7607L12.0417 1.7825L12.093 1.80896C12.8102 2.17417 13.4638 2.63104 14.0449 3.17246C17.1721 0.467732 22.1508 0.271429 25.5569 3.34212L25.5911 3.37325L25.6222 3.40594C28.6102 6.52691 28.5402 11.3334 26.7492 15.1311L26.7336 15.1607L26.7181 15.1919C24.6086 19.098 20.6697 22.4171 17.0801 25.1458L17.0708 25.1535L17.063 25.1598C16.8321 25.3291 16.435 25.6791 15.9766 26.0236C15.5182 26.3682 15.0003 26.7458 14.2426 26.8906L14.073 26.9233L13.9018 26.9093C13.1065 26.8407 12.7945 26.547 12.2721 26.2182C11.7496 25.8893 11.1713 25.4718 10.577 25.015C9.40565 24.1145 8.1936 23.0765 7.39551 22.3362C7.38524 22.3267 7.3683 22.313 7.35815 22.3036C7.3565 22.3022 7.35512 22.3003 7.35349 22.2989C5.67227 20.8643 4.00695 19.2105 2.59521 17.2651C2.59477 17.2646 2.59409 17.2642 2.5937 17.2636C2.59104 17.26 2.58856 17.2563 2.5859 17.2527C0.346952 14.2382 -0.739141 10.1758 0.556208 6.17346L0.579565 6.10185L0.610691 6.0349C2.06508 2.89064 5.19319 1.04264 8.57534 1.07739ZM8.53485 3.5398C6.09806 3.48375 3.96215 4.78855 2.90184 7.02015C1.92207 10.1444 2.769 13.3276 4.59378 15.7786L4.59845 15.7849L4.60309 15.7911C5.87429 17.5453 7.4138 19.0808 9.00959 20.4389L9.02982 20.4576L9.05005 20.4762C9.76865 21.1451 10.985 22.1871 12.0961 23.0414C12.6518 23.4685 13.1844 23.8502 13.5982 24.1107C13.7538 24.2086 13.9017 24.2754 14.0231 24.327C14.1507 24.2573 14.3127 24.1591 14.4807 24.0329C14.8191 23.7786 15.1793 23.454 15.5719 23.1643C15.578 23.1597 15.5844 23.155 15.5905 23.1503C19.0741 20.5007 22.7434 17.2835 24.5078 14.04C25.9403 10.9798 25.8777 7.31695 23.8541 5.16478C21.1025 2.71823 17.0145 3.25012 14.9757 5.76092L13.9827 6.9828L13.0223 5.73603C12.4697 5.01916 11.8103 4.47113 11.0097 4.055C10.1706 3.72719 9.33687 3.55823 8.53485 3.5398Z" fill="white"/>
</g>
<defs>
<clipPath id="clip0">
<rect width="28" height="28" transform="matrix(-1 0 0 1 28 0)" fill="white"/>
</clipPath>
</defs>
</svg>
