<svg width="216" height="467" viewBox="0 0 216 467" fill="none" xmlns="http://www.w3.org/2000/svg">
<rect x="7" y="7" width="202" height="453" rx="25" fill="white" stroke="#FDF8FB" stroke-width="14"/>
<mask id="path-2-inside-1" fill="white">
<path d="M30 406C30 407.657 31.3431 409 33 409L183 409C184.657 409 186 407.657 186 406L186 364C186 362.343 184.657 361 183 361L33 361C31.3431 361 30 362.343 30 364L30 406Z"/>
</mask>
<path d="M33 408L183 408L183 410L33 410L33 408ZM185 406L185 364L187 364L187 406L185 406ZM183 362L33 362L33 360L183 360L183 362ZM31 364L31 406L29 406L29 364L31 364ZM33 362C31.8954 362 31 362.895 31 364L29 364C29 361.791 30.7909 360 33 360L33 362ZM185 364C185 362.895 184.105 362 183 362L183 360C185.209 360 187 361.791 187 364L185 364ZM183 408C184.105 408 185 407.105 185 406L187 406C187 408.209 185.209 410 183 410L183 408ZM33 410C30.7909 410 29 408.209 29 406L31 406C31 407.105 31.8954 408 33 408L33 410Z" fill="#D1A2F3" mask="url(#path-2-inside-1)"/>
<path d="M64.9607 208.68L63.6207 207.38C64.114 206.727 64.6874 206.247 65.3407 205.94C66.0074 205.607 66.814 205.44 67.7607 205.44C69.094 205.44 70.1274 205.793 70.8607 206.5C71.5007 207.127 71.8207 207.907 71.8207 208.84C71.8207 209.48 71.674 210.033 71.3807 210.5C71.1007 210.98 70.7007 211.367 70.1807 211.66C70.914 211.847 71.514 212.24 71.9807 212.84C72.434 213.413 72.6607 214.167 72.6607 215.1C72.6607 216.3 72.214 217.293 71.3207 218.08C70.414 218.853 69.214 219.24 67.7207 219.24C66.454 219.24 65.3607 218.893 64.4407 218.2C63.7207 217.64 63.154 216.92 62.7407 216.04L64.5407 215.12C64.8074 215.8 65.2207 216.34 65.7807 216.74C66.3674 217.153 67.1007 217.36 67.9807 217.36C68.8607 217.36 69.5407 217.12 70.0207 216.64C70.4474 216.213 70.6607 215.667 70.6607 215C70.6607 214.307 70.4007 213.787 69.8807 213.44C69.3874 213.093 68.5807 212.92 67.4607 212.92H66.2607V211H67.3407C68.194 211 68.834 210.82 69.2607 210.46C69.6607 210.127 69.8607 209.673 69.8607 209.1C69.8607 208.5 69.6474 208.04 69.2207 207.72C68.874 207.453 68.3607 207.32 67.6807 207.32C67.0407 207.32 66.5007 207.447 66.0607 207.7C65.634 207.94 65.2674 208.267 64.9607 208.68ZM74.867 219V210.58H76.827V213.7H80.307V210.58H82.267V219H80.307V215.5H76.827V219H74.867ZM90.9098 211.56V210.58H92.8698V219H90.9098V218.12C90.2564 218.88 89.4164 219.26 88.3898 219.26C87.1498 219.26 86.1564 218.82 85.4098 217.94C84.6764 217.06 84.3098 216.007 84.3098 214.78C84.3098 213.447 84.7031 212.38 85.4898 211.58C86.2898 210.767 87.2631 210.36 88.4098 210.36C89.4631 210.36 90.2964 210.76 90.9098 211.56ZM88.6498 212.12C87.9564 212.12 87.3898 212.38 86.9498 212.9C86.5231 213.42 86.3098 214.06 86.3098 214.82C86.3098 215.567 86.5231 216.2 86.9498 216.72C87.3898 217.24 87.9564 217.5 88.6498 217.5C89.3164 217.5 89.8764 217.267 90.3298 216.8C90.7964 216.333 91.0298 215.68 91.0298 214.84C91.0298 213.973 90.7964 213.307 90.3298 212.84C89.8764 212.36 89.3164 212.12 88.6498 212.12ZM95.3552 210.58H97.3152V213.58L100.115 210.58H102.715L99.0352 214.26L102.915 219H100.435L97.6352 215.54L97.3152 215.86V219H95.3552V210.58ZM104.848 211.62C105.714 210.78 106.788 210.36 108.068 210.36C109.348 210.36 110.414 210.78 111.268 211.62C112.134 212.447 112.568 213.507 112.568 214.8C112.568 216.08 112.134 217.147 111.268 218C110.414 218.84 109.348 219.26 108.068 219.26C106.788 219.26 105.714 218.84 104.848 218C103.994 217.147 103.568 216.08 103.568 214.8C103.568 213.507 103.994 212.447 104.848 211.62ZM106.248 216.78C106.701 217.26 107.308 217.5 108.068 217.5C108.828 217.5 109.434 217.26 109.888 216.78C110.341 216.287 110.568 215.633 110.568 214.82C110.568 213.927 110.321 213.253 109.828 212.8C109.348 212.347 108.761 212.12 108.068 212.12C107.374 212.12 106.781 212.347 106.288 212.8C105.808 213.253 105.568 213.927 105.568 214.82C105.568 215.633 105.794 216.287 106.248 216.78ZM113.653 219L115.693 209.82L119.173 216.24L122.653 209.82L124.693 219H122.693L121.853 214.78L119.173 219.64L116.493 214.78L115.653 219H113.653ZM126.215 219V210.58H128.175V213.56H129.295C129.655 213.56 129.948 213.573 130.175 213.6C130.401 213.613 130.675 213.687 130.995 213.82C131.315 213.953 131.595 214.153 131.835 214.42C132.275 214.913 132.495 215.527 132.495 216.26C132.495 217.1 132.241 217.773 131.735 218.28C131.508 218.507 131.235 218.68 130.915 218.8C130.608 218.907 130.348 218.967 130.135 218.98C129.935 218.993 129.648 219 129.275 219H126.215ZM128.175 217.32H129.075C129.555 217.32 129.895 217.26 130.095 217.14C130.388 216.927 130.535 216.64 130.535 216.28C130.535 215.907 130.395 215.627 130.115 215.44C129.901 215.307 129.561 215.24 129.095 215.24H128.175V217.32ZM140.742 210.96V213.16C140.036 212.467 139.242 212.12 138.362 212.12C137.616 212.12 136.996 212.367 136.502 212.86C136.022 213.34 135.782 213.987 135.782 214.8C135.782 215.64 136.036 216.313 136.542 216.82C137.022 217.273 137.616 217.5 138.322 217.5C139.296 217.5 140.102 217.14 140.742 216.42V218.6C140.036 219.04 139.182 219.26 138.182 219.26C136.836 219.26 135.769 218.847 134.982 218.02C134.182 217.193 133.782 216.14 133.782 214.86C133.782 213.54 134.209 212.453 135.062 211.6C135.889 210.773 137.016 210.36 138.442 210.36C139.256 210.36 140.022 210.56 140.742 210.96ZM141.541 219L144.181 215.66C143.661 215.58 143.214 215.367 142.841 215.02C142.374 214.567 142.141 213.987 142.141 213.28C142.141 212.48 142.401 211.833 142.921 211.34C143.454 210.833 144.268 210.58 145.361 210.58H148.501V219H146.541V215.9H146.141L143.841 219H141.541ZM146.541 214.3V212.26H145.401C144.934 212.26 144.594 212.32 144.381 212.44C144.061 212.64 143.901 212.92 143.901 213.28C143.901 213.64 144.034 213.913 144.301 214.1C144.501 214.233 144.861 214.3 145.381 214.3H146.541ZM151.4 218.9C151.174 218.66 151.06 218.373 151.06 218.04C151.06 217.707 151.174 217.427 151.4 217.2C151.64 216.96 151.927 216.84 152.26 216.84C152.594 216.84 152.874 216.96 153.1 217.2C153.34 217.427 153.46 217.707 153.46 218.04C153.46 218.373 153.34 218.66 153.1 218.9C152.874 219.127 152.594 219.24 152.26 219.24C151.927 219.24 151.64 219.127 151.4 218.9ZM90.477 245V236.02L81.477 245.6V231.66H83.517V240.68L92.517 231.1V245H90.477ZM95.3552 245V236.58H100.515V238.38H97.3152V245H95.3552ZM103.878 244.02V249.58H101.918V236.58H103.878V237.5C104.518 236.74 105.351 236.36 106.378 236.36C107.524 236.36 108.491 236.767 109.278 237.58C110.078 238.38 110.478 239.433 110.478 240.74C110.478 242.087 110.064 243.18 109.238 244.02C108.411 244.847 107.464 245.26 106.398 245.26C105.398 245.26 104.558 244.847 103.878 244.02ZM106.138 238.12C105.471 238.12 104.904 238.36 104.438 238.84C103.984 239.307 103.758 239.973 103.758 240.84C103.758 241.68 103.984 242.333 104.438 242.8C104.904 243.267 105.471 243.5 106.138 243.5C106.831 243.5 107.391 243.24 107.818 242.72C108.258 242.2 108.478 241.567 108.478 240.82C108.478 240.06 108.258 239.42 107.818 238.9C107.391 238.38 106.831 238.12 106.138 238.12ZM118.683 237.56V236.58H120.643V245H118.683V244.12C118.03 244.88 117.19 245.26 116.163 245.26C114.923 245.26 113.93 244.82 113.183 243.94C112.45 243.06 112.083 242.007 112.083 240.78C112.083 239.447 112.477 238.38 113.263 237.58C114.063 236.767 115.037 236.36 116.183 236.36C117.237 236.36 118.07 236.76 118.683 237.56ZM116.423 238.12C115.73 238.12 115.163 238.38 114.723 238.9C114.297 239.42 114.083 240.06 114.083 240.82C114.083 241.567 114.297 242.2 114.723 242.72C115.163 243.24 115.73 243.5 116.423 243.5C117.09 243.5 117.65 243.267 118.103 242.8C118.57 242.333 118.803 241.68 118.803 240.84C118.803 239.973 118.57 239.307 118.103 238.84C117.65 238.36 117.09 238.12 116.423 238.12ZM123.129 236.58H125.089V241.36L130.849 235.82V245H128.889V240.1L123.129 245.64V236.58ZM123.769 232.94L125.369 232.48C125.622 233.347 126.169 233.78 127.009 233.78C127.835 233.78 128.382 233.347 128.649 232.48L130.249 232.94C130.035 233.7 129.602 234.287 128.949 234.7C128.309 235.1 127.662 235.3 127.009 235.3C126.355 235.3 125.702 235.1 125.049 234.7C124.409 234.287 123.982 233.7 123.769 232.94ZM133.744 244.9C133.517 244.66 133.404 244.373 133.404 244.04C133.404 243.707 133.517 243.427 133.744 243.2C133.984 242.96 134.271 242.84 134.604 242.84C134.937 242.84 135.217 242.96 135.444 243.2C135.684 243.427 135.804 243.707 135.804 244.04C135.804 244.373 135.684 244.66 135.444 244.9C135.217 245.127 134.937 245.24 134.604 245.24C134.271 245.24 133.984 245.127 133.744 244.9ZM23.8891 257.66H25.9091C26.8157 257.66 27.5491 257.733 28.1091 257.88C28.6691 258.027 29.1624 258.3 29.5891 258.7C30.2957 259.367 30.6491 260.247 30.6491 261.34C30.6491 261.967 30.5157 262.493 30.2491 262.92C30.0091 263.333 29.6757 263.64 29.2491 263.84C29.9424 264.013 30.5157 264.333 30.9691 264.8C31.5557 265.413 31.8491 266.247 31.8491 267.3C31.8491 268.273 31.5557 269.073 30.9691 269.7C30.1424 270.567 28.8957 271 27.2291 271H23.8891V257.66ZM25.9291 259.58V263.4H26.5491C27.2957 263.4 27.8491 263.227 28.2091 262.88C28.5557 262.547 28.7291 262.04 28.7291 261.36C28.7291 260.813 28.5691 260.387 28.2491 260.08C27.9024 259.747 27.3624 259.58 26.6291 259.58H25.9291ZM25.9291 265.08V269.08H27.1691C28.0891 269.08 28.7624 268.907 29.1891 268.56C29.6291 268.213 29.8491 267.72 29.8491 267.08C29.8491 266.507 29.6691 266.04 29.3091 265.68C28.8957 265.28 28.1957 265.08 27.2091 265.08H25.9291ZM34.0564 271V262.58H36.0164V265.56H37.1364C37.4964 265.56 37.7897 265.573 38.0164 265.6C38.2431 265.613 38.5164 265.687 38.8364 265.82C39.1564 265.953 39.4364 266.153 39.6764 266.42C40.1164 266.913 40.3364 267.527 40.3364 268.26C40.3364 269.1 40.0831 269.773 39.5764 270.28C39.3497 270.507 39.0764 270.68 38.7564 270.8C38.4497 270.907 38.1897 270.967 37.9764 270.98C37.7764 270.993 37.4897 271 37.1164 271H34.0564ZM36.0164 269.32H36.9164C37.3964 269.32 37.7364 269.26 37.9364 269.14C38.2297 268.927 38.3764 268.64 38.3764 268.28C38.3764 267.907 38.2364 267.627 37.9564 267.44C37.7431 267.307 37.4031 267.24 36.9364 267.24H36.0164V269.32ZM41.2164 271V262.58H43.1764V271H41.2164ZM45.658 262.58H47.618V267.36L53.378 261.82V271H51.418V266.1L45.658 271.64V262.58ZM55.8533 271V262.58H61.0133V264.38H57.8133V271H55.8533ZM64.3758 270.02V275.58H62.4158V262.58H64.3758V263.5C65.0158 262.74 65.8491 262.36 66.8758 262.36C68.0224 262.36 68.9891 262.767 69.7758 263.58C70.5758 264.38 70.9758 265.433 70.9758 266.74C70.9758 268.087 70.5624 269.18 69.7358 270.02C68.9091 270.847 67.9624 271.26 66.8958 271.26C65.8958 271.26 65.0558 270.847 64.3758 270.02ZM66.6358 264.12C65.9691 264.12 65.4024 264.36 64.9358 264.84C64.4824 265.307 64.2558 265.973 64.2558 266.84C64.2558 267.68 64.4824 268.333 64.9358 268.8C65.4024 269.267 65.9691 269.5 66.6358 269.5C67.3291 269.5 67.8891 269.24 68.3158 268.72C68.7558 268.2 68.9758 267.567 68.9758 266.82C68.9758 266.06 68.7558 265.42 68.3158 264.9C67.8891 264.38 67.3291 264.12 66.6358 264.12ZM73.0213 271V262.58H74.9813V265.56H76.1013C76.4613 265.56 76.7546 265.573 76.9813 265.6C77.2079 265.613 77.4813 265.687 77.8013 265.82C78.1213 265.953 78.4013 266.153 78.6413 266.42C79.0813 266.913 79.3013 267.527 79.3013 268.26C79.3013 269.1 79.0479 269.773 78.5413 270.28C78.3146 270.507 78.0413 270.68 77.7213 270.8C77.4146 270.907 77.1546 270.967 76.9413 270.98C76.7413 270.993 76.4546 271 76.0813 271H73.0213ZM74.9813 269.32H75.8813C76.3613 269.32 76.7013 269.26 76.9013 269.14C77.1946 268.927 77.3413 268.64 77.3413 268.28C77.3413 267.907 77.2013 267.627 76.9212 267.44C76.7079 267.307 76.3679 267.24 75.9013 267.24H74.9813V269.32ZM80.1813 271V262.58H82.1413V271H80.1813ZM84.6228 262.58H87.9228C88.7628 262.58 89.4028 262.747 89.8428 263.08C90.3628 263.493 90.6228 264.033 90.6228 264.7C90.6228 265.46 90.2895 266.007 89.6228 266.34C90.0495 266.42 90.4295 266.607 90.7628 266.9C91.2028 267.3 91.4228 267.84 91.4228 268.52C91.4228 269.333 91.1161 269.973 90.5028 270.44C89.9961 270.813 89.3495 271 88.5628 271H84.6228V262.58ZM86.5828 265.86H87.5828C87.9295 265.86 88.1895 265.8 88.3628 265.68C88.6161 265.52 88.7428 265.293 88.7428 265C88.7428 264.72 88.6295 264.5 88.4028 264.34C88.2428 264.233 87.9561 264.18 87.5428 264.18H86.5828V265.86ZM86.5828 269.4H88.0428C88.4828 269.4 88.8228 269.32 89.0628 269.16C89.3295 268.987 89.4628 268.74 89.4628 268.42C89.4628 268.073 89.3361 267.827 89.0828 267.68C88.8561 267.533 88.5295 267.46 88.1028 267.46H86.5828V269.4ZM99.6305 263.56V262.58H101.59V271H99.6305V270.12C98.9771 270.88 98.1371 271.26 97.1105 271.26C95.8705 271.26 94.8771 270.82 94.1305 269.94C93.3971 269.06 93.0305 268.007 93.0305 266.78C93.0305 265.447 93.4238 264.38 94.2105 263.58C95.0105 262.767 95.9838 262.36 97.1305 262.36C98.1838 262.36 99.0171 262.76 99.6305 263.56ZM97.3705 264.12C96.6771 264.12 96.1105 264.38 95.6705 264.9C95.2438 265.42 95.0305 266.06 95.0305 266.82C95.0305 267.567 95.2438 268.2 95.6705 268.72C96.1105 269.24 96.6771 269.5 97.3705 269.5C98.0371 269.5 98.5971 269.267 99.0505 268.8C99.5171 268.333 99.7505 267.68 99.7505 266.84C99.7505 265.973 99.5171 265.307 99.0505 264.84C98.5971 264.36 98.0371 264.12 97.3705 264.12ZM104.076 262.58H106.036V267.36L111.796 261.82V271H109.836V266.1L104.076 271.64V262.58ZM104.716 258.94L106.316 258.48C106.569 259.347 107.116 259.78 107.956 259.78C108.783 259.78 109.329 259.347 109.596 258.48L111.196 258.94C110.983 259.7 110.549 260.287 109.896 260.7C109.256 261.1 108.609 261.3 107.956 261.3C107.303 261.3 106.649 261.1 105.996 260.7C105.356 260.287 104.929 259.7 104.716 258.94ZM120.071 264.38H117.611V271H115.651V264.38H113.191V262.58H120.071V264.38ZM127.163 268.16L128.803 269.08C128.43 269.747 127.957 270.26 127.383 270.62C126.73 271.047 125.903 271.26 124.903 271.26C123.73 271.26 122.783 270.9 122.063 270.18C121.237 269.353 120.823 268.28 120.823 266.96C120.823 265.573 121.27 264.42 122.163 263.5C122.923 262.74 123.863 262.36 124.983 262.36C126.077 262.36 126.977 262.727 127.683 263.46C128.47 264.273 128.863 265.46 128.863 267.02V267.26H122.823C122.877 267.967 123.117 268.533 123.543 268.96C123.903 269.32 124.403 269.5 125.043 269.5C125.563 269.5 126.01 269.36 126.383 269.08C126.69 268.84 126.95 268.533 127.163 268.16ZM122.963 265.66H126.863C126.783 265.193 126.583 264.813 126.263 264.52C125.917 264.2 125.477 264.04 124.943 264.04C124.383 264.04 123.923 264.22 123.563 264.58C123.27 264.847 123.07 265.207 122.963 265.66ZM135.58 262.58H138.88C139.72 262.58 140.36 262.747 140.8 263.08C141.32 263.493 141.58 264.033 141.58 264.7C141.58 265.46 141.247 266.007 140.58 266.34C141.007 266.42 141.387 266.607 141.72 266.9C142.16 267.3 142.38 267.84 142.38 268.52C142.38 269.333 142.073 269.973 141.46 270.44C140.953 270.813 140.307 271 139.52 271H135.58V262.58ZM137.54 265.86H138.54C138.887 265.86 139.147 265.8 139.32 265.68C139.573 265.52 139.7 265.293 139.7 265C139.7 264.72 139.587 264.5 139.36 264.34C139.2 264.233 138.913 264.18 138.5 264.18H137.54V265.86ZM137.54 269.4H139C139.44 269.4 139.78 269.32 140.02 269.16C140.287 268.987 140.42 268.74 140.42 268.42C140.42 268.073 140.293 267.827 140.04 267.68C139.813 267.533 139.487 267.46 139.06 267.46H137.54V269.4ZM143.468 271L145.508 261.82L148.988 268.24L152.468 261.82L154.508 271H152.508L151.668 266.78L148.988 271.64L146.308 266.78L145.468 271H143.468ZM161.929 268.16L163.569 269.08C163.196 269.747 162.722 270.26 162.149 270.62C161.496 271.047 160.669 271.26 159.669 271.26C158.496 271.26 157.549 270.9 156.829 270.18C156.002 269.353 155.589 268.28 155.589 266.96C155.589 265.573 156.036 264.42 156.929 263.5C157.689 262.74 158.629 262.36 159.749 262.36C160.842 262.36 161.742 262.727 162.449 263.46C163.236 264.273 163.629 265.46 163.629 267.02V267.26H157.589C157.642 267.967 157.882 268.533 158.309 268.96C158.669 269.32 159.169 269.5 159.809 269.5C160.329 269.5 160.776 269.36 161.149 269.08C161.456 268.84 161.716 268.533 161.929 268.16ZM157.729 265.66H161.629C161.549 265.193 161.349 264.813 161.029 264.52C160.682 264.2 160.242 264.04 159.709 264.04C159.149 264.04 158.689 264.22 158.329 264.58C158.036 264.847 157.836 265.207 157.729 265.66ZM172.198 262.96V265.16C171.491 264.467 170.698 264.12 169.818 264.12C169.071 264.12 168.451 264.367 167.958 264.86C167.478 265.34 167.238 265.987 167.238 266.8C167.238 267.64 167.491 268.313 167.998 268.82C168.478 269.273 169.071 269.5 169.778 269.5C170.751 269.5 171.558 269.14 172.198 268.42V270.6C171.491 271.04 170.638 271.26 169.638 271.26C168.291 271.26 167.224 270.847 166.438 270.02C165.638 269.193 165.238 268.14 165.238 266.86C165.238 265.54 165.664 264.453 166.518 263.6C167.344 262.773 168.471 262.36 169.898 262.36C170.711 262.36 171.478 262.56 172.198 262.96ZM180.071 264.38H177.611V271H175.651V264.38H173.191V262.58H180.071V264.38ZM187.163 268.16L188.803 269.08C188.43 269.747 187.957 270.26 187.383 270.62C186.73 271.047 185.903 271.26 184.903 271.26C183.73 271.26 182.783 270.9 182.063 270.18C181.237 269.353 180.823 268.28 180.823 266.96C180.823 265.573 181.27 264.42 182.163 263.5C182.923 262.74 183.863 262.36 184.983 262.36C186.077 262.36 186.977 262.727 187.683 263.46C188.47 264.273 188.863 265.46 188.863 267.02V267.26H182.823C182.877 267.967 183.117 268.533 183.543 268.96C183.903 269.32 184.403 269.5 185.043 269.5C185.563 269.5 186.01 269.36 186.383 269.08C186.69 268.84 186.95 268.533 187.163 268.16ZM182.963 265.66H186.863C186.783 265.193 186.583 264.813 186.263 264.52C185.917 264.2 185.477 264.04 184.943 264.04C184.383 264.04 183.923 264.22 183.563 264.58C183.27 264.847 183.07 265.207 182.963 265.66ZM191.332 270.9C191.105 270.66 190.992 270.373 190.992 270.04C190.992 269.707 191.105 269.427 191.332 269.2C191.572 268.96 191.859 268.84 192.192 268.84C192.525 268.84 192.805 268.96 193.032 269.2C193.272 269.427 193.392 269.707 193.392 270.04C193.392 270.373 193.272 270.66 193.032 270.9C192.805 271.127 192.525 271.24 192.192 271.24C191.859 271.24 191.572 271.127 191.332 270.9Z" fill="#353535"/>
<path d="M30 346C30 347.657 31.3431 349 33 349L183 349C184.657 349 186 347.657 186 346L186 304C186 302.343 184.657 301 183 301L33 301C31.3431 301 30 302.343 30 304L30 346Z" fill="#D1A2F3"/>
<path d="M88.216 318.328H90.856C92.0187 318.328 92.888 318.552 93.464 319C94.1253 319.512 94.456 320.248 94.456 321.208C94.456 322.157 94.056 322.856 93.256 323.304C93.8 323.389 94.264 323.613 94.648 323.976C95.16 324.467 95.416 325.133 95.416 325.976C95.416 326.872 95.112 327.592 94.504 328.136C93.8533 328.712 92.952 329 91.8 329H88.216V318.328ZM90.296 320.024V322.76H90.888C90.9947 322.76 91.0907 322.76 91.176 322.76C91.272 322.749 91.4053 322.717 91.576 322.664C91.7573 322.611 91.9067 322.541 92.024 322.456C92.152 322.36 92.264 322.221 92.36 322.04C92.456 321.848 92.504 321.624 92.504 321.368C92.504 320.909 92.3547 320.573 92.056 320.36C91.7573 320.136 91.3733 320.024 90.904 320.024H90.296ZM90.296 324.36V327.304H91.192C91.8107 327.304 92.2853 327.208 92.616 327.016C93.0533 326.76 93.272 326.349 93.272 325.784C93.272 325.208 93.0107 324.803 92.488 324.568C92.1893 324.429 91.7147 324.36 91.064 324.36H90.296ZM97.869 322.824C98.573 322.173 99.5063 321.848 100.669 321.848C101.832 321.848 102.765 322.173 103.469 322.824C104.248 323.528 104.637 324.435 104.637 325.544C104.637 326.643 104.248 327.544 103.469 328.248C102.765 328.899 101.832 329.224 100.669 329.224C99.5063 329.224 98.573 328.899 97.869 328.248C97.0903 327.544 96.701 326.643 96.701 325.544C96.701 324.435 97.0903 323.528 97.869 322.824ZM99.277 326.92C99.6503 327.304 100.114 327.496 100.669 327.496C101.224 327.496 101.688 327.304 102.061 326.92C102.434 326.536 102.621 326.077 102.621 325.544C102.621 325 102.434 324.536 102.061 324.152C101.688 323.768 101.224 323.576 100.669 323.576C100.114 323.576 99.6503 323.768 99.277 324.152C98.9037 324.536 98.717 325 98.717 325.544C98.717 326.077 98.9037 326.536 99.277 326.92ZM106.147 322.072H108.099V326.344L111.299 322.072H113.251V329H111.299V324.728L108.099 329H106.147V322.072ZM111.043 318.6L112.323 319.208C112.109 319.805 111.752 320.232 111.251 320.488C110.749 320.733 110.232 320.856 109.699 320.856C109.165 320.856 108.648 320.733 108.147 320.488C107.645 320.232 107.288 319.805 107.075 319.208L108.355 318.6C108.419 318.888 108.573 319.128 108.819 319.32C109.075 319.512 109.368 319.608 109.699 319.608C110.008 319.608 110.291 319.523 110.547 319.352C110.803 319.181 110.968 318.931 111.043 318.6ZM120.06 323.736H118.14V329H116.188V323.736H114.268V322.072H120.06V323.736ZM121.084 322.072H123.036V326.344L126.236 322.072H128.188V329H126.236V324.728L123.036 329H121.084V322.072Z" fill="white"/>
<path d="M65.216 378.328H68.32C68.9813 378.328 69.52 378.387 69.936 378.504C70.3627 378.611 70.7627 378.824 71.136 379.144C71.8613 379.784 72.224 380.643 72.224 381.72C72.224 382.723 71.9307 383.517 71.344 384.104C70.7147 384.733 69.8133 385.048 68.64 385.048H67.296V389H65.216V378.328ZM67.296 380.12V383.256H68.144C68.752 383.256 69.2053 383.144 69.504 382.92C69.888 382.621 70.08 382.205 70.08 381.672C70.08 381.149 69.8827 380.744 69.488 380.456C69.168 380.232 68.6773 380.12 68.016 380.12H67.296ZM78.3266 386.776L80.1186 387.064C80.044 387.256 79.9426 387.448 79.8146 387.64C79.6973 387.821 79.5106 388.051 79.2546 388.328C78.9986 388.595 78.652 388.813 78.2146 388.984C77.7773 389.144 77.276 389.224 76.7106 389.224C75.6226 389.224 74.7373 388.899 74.0546 388.248C73.3293 387.565 72.9666 386.664 72.9666 385.544C72.9666 384.435 73.3186 383.528 74.0226 382.824C74.684 382.173 75.5533 381.848 76.6306 381.848C77.804 381.848 78.7053 382.227 79.3346 382.984C79.8893 383.645 80.1666 384.552 80.1666 385.704V385.864H74.9826C74.9826 386.333 75.0946 386.723 75.3186 387.032C75.6386 387.469 76.1026 387.688 76.7106 387.688C77.436 387.688 77.9746 387.384 78.3266 386.776ZM75.0466 384.616H78.3266C78.252 384.168 78.0546 383.827 77.7346 383.592C77.4253 383.347 77.0733 383.224 76.6786 383.224C76.2946 383.224 75.9426 383.347 75.6226 383.592C75.3133 383.837 75.1213 384.179 75.0466 384.616ZM81.678 389V382.072H86.094V383.736H83.63V389H81.678ZM87.1155 382.072H89.0675V386.344L92.2675 382.072H94.2195V389H92.2675V384.728L89.0675 389H87.1155V382.072ZM101.285 382.264V384.184C100.847 383.779 100.314 383.576 99.6846 383.576C99.066 383.576 98.586 383.768 98.2446 384.152C97.9033 384.525 97.7326 384.984 97.7326 385.528C97.7326 386.093 97.9193 386.563 98.2926 386.936C98.6766 387.309 99.162 387.496 99.7486 387.496C100.325 387.496 100.837 387.293 101.285 386.888V388.792C100.709 389.08 100.111 389.224 99.4926 389.224C98.4153 389.224 97.5246 388.888 96.8206 388.216C96.0846 387.523 95.7166 386.637 95.7166 385.56C95.7166 384.387 96.1166 383.448 96.9166 382.744C97.5886 382.147 98.4206 381.848 99.4126 381.848C100.085 381.848 100.709 381.987 101.285 382.264ZM108.091 383.736H106.171V389H104.219V383.736H102.299V382.072H108.091V383.736ZM111.068 388.104V392.664H109.116V382.072H111.068V382.968C111.59 382.221 112.342 381.848 113.324 381.848C114.284 381.848 115.073 382.157 115.692 382.776C116.385 383.469 116.732 384.387 116.732 385.528C116.732 386.701 116.369 387.635 115.644 388.328C115.004 388.925 114.22 389.224 113.292 389.224C112.364 389.224 111.622 388.851 111.068 388.104ZM112.796 383.576C112.294 383.576 111.873 383.731 111.532 384.04C111.094 384.413 110.876 384.909 110.876 385.528C110.876 386.157 111.089 386.659 111.516 387.032C111.868 387.341 112.294 387.496 112.796 387.496C113.318 387.496 113.756 387.331 114.108 387C114.513 386.627 114.716 386.136 114.716 385.528C114.716 384.931 114.518 384.445 114.124 384.072C113.761 383.741 113.318 383.576 112.796 383.576ZM123.553 382.968V382.072H125.505V389H123.553V388.104C123.03 388.851 122.321 389.224 121.424 389.224C120.379 389.224 119.526 388.867 118.865 388.152C118.214 387.437 117.889 386.563 117.889 385.528C117.889 384.483 118.209 383.608 118.849 382.904C119.489 382.2 120.315 381.848 121.329 381.848C122.331 381.848 123.073 382.221 123.553 382.968ZM123.201 384.136C122.838 383.763 122.379 383.576 121.825 383.576C121.27 383.576 120.811 383.763 120.449 384.136C120.086 384.509 119.905 384.973 119.905 385.528C119.905 386.083 120.086 386.552 120.449 386.936C120.811 387.309 121.27 387.496 121.825 387.496C122.379 387.496 122.838 387.309 123.201 386.936C123.563 386.552 123.745 386.083 123.745 385.528C123.745 384.973 123.563 384.509 123.201 384.136ZM127.366 389V382.072H129.318V387.336H131.91V382.072H133.862V387.336H134.982V391.016H133.222V389H127.366ZM136.037 382.072H137.989V386.344L141.189 382.072H143.141V389H141.189V384.728L137.989 389H136.037V382.072ZM144.383 389L146.431 386.408C145.983 386.344 145.609 386.163 145.311 385.864C144.948 385.501 144.767 385.011 144.767 384.392C144.767 383.677 145.044 383.096 145.599 382.648C146.089 382.264 146.804 382.072 147.743 382.072H150.495V389H148.543V386.568H148.319L146.623 389H144.383ZM148.543 385.16V383.608H147.695C147.396 383.608 147.177 383.672 147.039 383.8C146.868 383.96 146.783 384.163 146.783 384.408C146.783 384.664 146.868 384.856 147.039 384.984C147.188 385.101 147.407 385.16 147.695 385.16H148.543Z" fill="#D1A2F3"/>
<path d="M66.1818 63L64.3618 58.814H56.9518L55.0538 63H52.1938L60.8258 44.644L69.0418 63H66.1818ZM58.0438 56.318H63.2958L60.7218 50.442L58.0438 56.318ZM70.7643 63V52.054H73.3123V56.11H77.8363V52.054H80.3843V63H77.8363V58.45H73.3123V63H70.7643ZM91.152 54.394H87.954V63H85.406V54.394H82.208V52.054H91.152V54.394ZM92.9811 52.054H95.5291V58.268L103.017 51.066V63H100.469V56.63L92.9811 63.832V52.054ZM108.445 47.92C110.161 46.204 112.31 45.346 114.893 45.346C117.476 45.346 119.625 46.204 121.341 47.92C123.057 49.636 123.915 51.7767 123.915 54.342C123.915 56.9073 123.057 59.048 121.341 60.764C119.625 62.48 117.476 63.338 114.893 63.338C112.31 63.338 110.161 62.48 108.445 60.764C106.729 59.048 105.871 56.9073 105.871 54.342C105.871 51.7767 106.729 49.636 108.445 47.92ZM110.317 59.074C111.513 60.2873 113.038 60.894 114.893 60.894C116.748 60.894 118.273 60.2873 119.469 59.074C120.665 57.8433 121.263 56.266 121.263 54.342C121.263 52.418 120.665 50.8493 119.469 49.636C118.273 48.4053 116.748 47.79 114.893 47.79C113.038 47.79 111.513 48.4053 110.317 49.636C109.121 50.8493 108.523 52.418 108.523 54.342C108.523 56.266 109.121 57.8433 110.317 59.074ZM127.712 52.054H135.928V60.66H137.592V66.12H135.252V63H127.608V66.12H125.268V60.66C126.152 60.608 126.819 60.1313 127.27 59.23C127.565 58.5887 127.712 57.6267 127.712 56.344V52.054ZM133.38 60.66V54.394H130.156V57.306C130.156 58.8833 129.731 60.0013 128.882 60.66H133.38ZM139.421 52.054H141.969V58.268L149.457 51.066V63H146.909V56.63L139.421 63.832V52.054ZM152.675 63V52.054H155.223V56.11H159.747V52.054H162.295V63H159.747V58.45H155.223V63H152.675Z" fill="#57C84B"/>
<g clip-path="url(#clip0)">
<path fill-rule="evenodd" clip-rule="evenodd" d="M127.71 85.7379L119.445 86.7517L115.82 89.3586L114.37 92.6896V96.7448L119.735 102.248L122.49 103.986L123.795 105.724L123.07 108.331L121.765 109.779L117.415 109.345L108.715 108.766L110.02 115.138L110.31 118.469L109.875 121.8L104.945 120.352L99 120.207L94.505 121.365L91.75 123.972L90.59 126V127.738L91.17 129.331L92.765 130.924L95.375 132.228L99 132.952L102.625 133.241L105.815 132.662L108.86 131.938L109.875 131.648L110.6 134.11L111.18 136.572L111.325 139.179V141.931V145.262L110.89 148.593L110.745 151.634L110.455 153.952L110.02 156.993L109.73 159.455L109.44 162.062L109.295 164.959H115.965H124.52L124.665 161.338L125.1 158.007L126.695 154.386L129.015 151.49L131.915 150.186H134.815L136.265 150.91L137.425 153.517L137.86 156.269V159.021L137.57 161.628L136.555 165.972L143.37 166.262L150.185 165.972L154.39 165.393V161.917L154.97 158.152L155.55 153.228L156.13 148.014L156.565 142.221L156.275 137.876L155.405 132.807L154.68 131.214L152.94 132.228L151.635 133.241L150.33 133.676L148.59 134.11H145.11L141.34 131.938L139.02 130.055L137.57 127.883L138.005 124.986L140.035 122.524L143.95 120.786H148.59L152.215 121.51L154.97 121.945L155.405 118.903L154.97 114.703L154.39 111.517L153.81 109.2L148.88 109.49L142.79 109.345L137.715 108.91L134.67 107.462L133.945 105.724V104.276L136.12 101.814L138.73 99.3517L140.325 96.3103L140.18 92.9793L138.73 90.5172L136.555 88.6345L133.655 87.4758L130.755 86.6069L127.71 85.7379Z" fill="#57C84B"/>
<path fill-rule="evenodd" clip-rule="evenodd" d="M110.31 163.51C110.165 162.062 110.02 161.048 110.31 159.31C110.89 153.517 113.21 142.076 111.325 133.965C109.44 125.855 108.86 131.938 102.045 132.082C98.42 132.082 93.055 130.345 91.605 128.027C91.315 127.593 91.17 127.158 91.17 126.869C91.17 126.579 91.315 126.145 91.46 125.71C96.245 117.455 109.585 123.103 110.31 122.814C111.18 122.379 110.89 117.889 110.6 114.269C110.455 112.241 110.31 111.082 110.02 109.489C109.875 108.62 108.86 107.317 107.99 107.317C106.54 107.317 105.235 107.317 103.785 107.462C97.695 107.607 92.33 107.751 90.445 105.289C89.865 104.565 90.01 104.42 90.59 103.696C92.04 101.958 95.955 98.7721 96.245 95.4411C96.535 92.2549 95.81 89.9377 94.36 88.1997C90.3 83.1308 77.25 82.4066 72.175 86.1721C70.87 87.1859 69.71 88.6342 69.275 91.0963C67.245 101.234 78.12 103.117 78.12 104.855C77.975 109.924 65.795 106.882 60.865 106.738C59.27 106.738 59.27 106.593 59.415 108.186C59.56 110.214 60.285 111.951 60.72 114.124C61.3 117.745 61.735 120.062 60.285 119.772C59.27 119.338 57.82 118.903 55.645 118.469C49.7 117.6 41.725 119.048 41.435 126.289C41.145 133.386 49.845 136.138 55.5 134.689C57.53 134.11 59.415 133.096 60.43 133.096C61.01 133.096 61.01 133.386 61.3 133.82C61.445 134.11 61.59 134.4 61.59 134.689C63.185 140.193 61.01 155.834 59.995 160.179C56.805 173.069 61.88 162.207 79.425 166.407C80.005 166.551 80.15 166.696 80.44 166.117C80.875 165.393 80.44 164.669 80.44 163.51C80.44 160.903 81.02 158.007 82.18 155.834C87.11 147 97.26 151.055 91.46 163.22C91.025 163.8 91.025 164.669 91.025 165.393C91.025 167.42 92.62 167.131 94.65 167.131C95.955 167.131 97.55 167.131 99.29 167.131C102.045 166.986 105.235 166.841 107.99 166.696C108.57 166.696 109.005 166.551 109.585 166.551C110.31 166.551 110.745 165.103 110.31 163.51ZM59.995 129.765C58.835 130.2 56.225 131.358 53.18 131.793C47.235 132.662 39.985 128.607 42.305 124.841C45.06 120.496 51.15 120.641 54.775 121.22C57.095 121.51 57.965 121.8 59.995 123.103C60.72 123.538 61.3 123.827 61.445 123.827C61.735 123.682 62.315 122.379 62.17 119.193C62.17 116.151 61.3 113.545 61.155 110.938C61.155 109.779 62.17 109.2 67.68 110.503C81.02 113.545 80.875 103.117 76.38 101.089C69.42 97.9032 68.115 92.5446 71.16 89.9377C75.51 86.0273 86.82 86.7515 91.17 89.7928C96.1 93.1239 94.94 95.5859 91.17 99.6411C86.53 104.855 87.69 107.317 90.155 108.62C95.955 111.662 101.175 110.069 107.265 109.779C107.7 109.779 108.135 110.069 108.28 110.503C108.86 112.241 109.585 116.586 109.585 118.469C109.585 120.641 109.005 119.772 107.12 119.482C100.45 118.179 95.085 119.193 92.475 121.655C90.155 123.827 88.56 127.303 91.17 130.489C96.245 136.862 107.845 133.096 109.005 133.096C112.05 133.241 110.02 156.269 108.57 162.207C108.57 162.351 108.425 162.496 108.425 162.641C108.28 163.076 107.845 163.365 107.41 163.365C107.12 163.365 106.685 163.365 106.395 163.365C104.655 163.365 103.06 163.51 101.465 163.51C98.565 163.51 95.665 163.51 92.62 163.22C92.33 162.786 92.475 162.496 92.62 162.062C93.055 160.758 93.635 158.731 93.78 157.427C94.07 154.82 93.78 149.751 91.315 148.158C87.255 145.551 78.99 150.62 78.845 162.062C75.8 161.772 74.06 161.338 72.175 161.338C64.78 161.193 60.865 162.496 60.575 162.351C60.285 162.062 62.75 151.345 62.605 138.455C62.605 135.703 62.17 133.386 61.735 131.793C61.445 130.924 61.155 130.489 60.865 129.91C60.72 129.765 60.72 129.476 60.575 129.331C60.575 129.476 59.995 129.765 59.995 129.765Z" fill="#25292A"/>
<path fill-rule="evenodd" clip-rule="evenodd" d="M89.575 96.0207C89.43 97.7586 87.835 98.9172 85.37 99.4965C81.6 100.221 77.395 99.931 75.365 97.4689C75.075 97.0345 75.075 96.8896 75.365 96.7448C76.235 96.6 76.815 97.4689 78.265 97.9034C82.325 99.062 84.79 98.3379 86.965 96.8896C88.125 95.8758 89.72 93.8483 89.575 96.0207Z" fill="#25292A"/>
<path fill-rule="evenodd" clip-rule="evenodd" d="M134.67 96.7448C134.38 99.2069 131.915 100.366 129.16 100.655C126.115 101.09 121.91 100.655 120.17 97.9035C119.59 96.6 122.49 98.6276 124.81 98.9172C126.84 99.2069 129.45 98.7724 130.755 98.0483C134.09 96.1655 134.815 94.7172 134.67 96.7448Z" fill="#25292A"/>
<path fill-rule="evenodd" clip-rule="evenodd" d="M108.57 162.787L107.99 165.394C107.7 166.263 107.555 166.697 109.44 166.552C111.18 166.407 112.92 166.263 114.515 166.263C117.415 166.263 120.605 166.407 123.795 167.131C124.375 167.276 124.52 167.421 124.81 166.842C125.245 166.118 124.81 165.394 124.81 164.235C124.81 161.628 124.955 158.731 126.115 156.559C131.19 147.58 140.18 149.752 135.83 163.945C135.395 164.525 135.395 165.394 135.395 166.118C135.395 168.145 136.99 167.856 139.02 167.856C142.645 168 148.735 167.566 154.39 167.131C154.68 167.131 154.97 166.987 155.115 166.697C155.26 166.407 155.405 166.118 155.405 165.828L155.55 165.104C155.26 163.076 155.115 162.063 155.405 160.035C155.985 154.242 158.305 142.8 156.42 134.69C154.535 126.58 154.535 133.097 148.445 132.807C145.255 132.663 140.035 130.49 138.73 128.173C138.585 127.883 138.44 127.449 138.44 127.159C138.44 126.869 138.44 126.58 138.585 126.145C142.5 118.18 154.68 123.683 155.405 123.394C156.275 122.959 155.985 118.469 155.695 114.849C155.55 112.676 155.26 111.373 154.97 109.78C154.97 109.49 154.825 109.2 154.825 108.766C154.68 108.187 154.245 107.897 153.81 107.897C152.215 107.897 150.62 108.042 149.025 108.042C142.79 108.187 137.425 108.331 135.395 105.869C134.815 105.145 134.96 105 135.54 104.276C136.99 102.538 140.905 99.3522 141.195 96.0211C141.485 92.8349 140.76 90.5177 139.31 88.7798C135.25 83.7108 122.2 82.9866 117.125 86.7522C115.82 87.766 114.66 89.2142 114.225 91.6763C112.195 101.814 123.07 103.697 123.07 105.435C122.925 108.766 122.2 108.187 116.835 107.607C114.08 107.318 110.745 107.173 108.135 107.173C107.845 107.173 107.99 107.607 108.135 108.042L108.715 110.359C109.295 112.097 110.02 116.442 110.02 118.325C110.02 120.497 109.44 119.628 107.555 119.338C100.885 118.035 95.52 119.049 92.91 121.656C90.59 123.828 88.995 127.304 91.605 130.49C96.68 136.863 108.28 133.097 109.44 133.097C112.485 133.242 110.455 156.269 109.005 162.207C108.57 162.497 108.57 162.642 108.57 162.787ZM109.875 109.635C119.59 109.345 119.3 111.807 120.895 111.228C125.68 109.2 124.665 103.407 121.475 101.959C114.515 98.7729 113.21 93.4142 116.255 90.8073C120.605 86.897 131.915 87.6211 136.265 90.6625C141.195 93.9935 140.035 96.4556 136.265 100.511C131.625 105.725 132.785 108.187 135.25 109.49C141.05 112.531 146.27 110.938 152.36 110.649C152.795 110.649 153.23 110.938 153.375 111.373C153.955 113.111 154.68 117.456 154.68 119.338C154.68 121.511 154.1 120.642 152.215 120.352C145.545 119.049 141.195 120.063 138.875 122.669C136.845 124.842 136.12 128.463 139.02 132.083C140.615 134.111 143.95 135.704 146.995 135.559C150.62 135.414 153.52 133.966 154.245 134.111C157.29 134.69 155.26 157.283 153.81 163.221C153.81 163.366 153.665 163.511 153.665 163.656C153.52 164.09 153.085 164.38 152.65 164.38C152.36 164.38 151.925 164.38 151.635 164.38C146.995 164.525 142.5 164.525 137.86 164.235C137.57 163.8 137.715 163.511 137.86 163.076C138.295 161.773 138.585 159.745 138.73 158.297C138.875 155.69 138.295 150.621 135.685 149.028C131.77 146.566 123.65 151.635 124.085 163.076C117.27 163.076 113.645 163.221 110.455 163.366C110.31 161.918 110.165 160.904 110.455 159.166C111.035 153.373 113.355 141.931 111.47 133.821C109.585 125.711 109.005 131.794 102.19 131.938C98.565 131.938 93.2 130.2 91.75 127.883C91.46 127.449 91.315 127.014 91.315 126.725C91.315 126.435 91.46 126 91.605 125.566C96.39 117.311 109.73 122.959 110.455 122.669C111.325 122.235 111.035 117.745 110.745 114.125C110.31 112.387 110.165 111.083 109.875 109.635Z" fill="#25292A"/>
</g>
<defs>
<clipPath id="clip0">
<rect x="41" y="84" width="116" height="84" fill="white"/>
</clipPath>
</defs>
</svg>
