<svg width="40" height="40" viewBox="0 0 40 40" fill="none" xmlns="http://www.w3.org/2000/svg">
<path d="M29.515 34.3767C24.1152 25.8006 21.25 15.8726 21.25 5.73805V5H18.75V5.73805C18.75 15.8726 15.8848 25.8006 10.485 34.3767L8.125 38.125H13.75C13.75 36.4674 14.4085 34.8777 15.5806 33.7056C16.7527 32.5335 18.3424 31.875 20 31.875C21.6576 31.875 23.2473 32.5335 24.4194 33.7056C25.5915 34.8777 26.25 36.4674 26.25 38.125H31.875L29.515 34.3767ZM17.5 26.875L19.375 21.25H20.625L22.5 26.875H17.5Z" fill="#F6C869"/>
<path d="M16.875 29.375L15 34.375H15.0085C15.5889 33.5989 16.3422 32.9689 17.2087 32.5349C18.0752 32.101 19.0309 31.875 20 31.875C20.9691 31.875 21.9248 32.101 22.7913 32.5349C23.6578 32.9689 24.4111 33.5989 24.9915 34.375H25L23.125 29.375H16.875Z" fill="#F1B355"/>
<path d="M19.375 1.25H20.625V3.75H19.375V1.25Z" fill="#F6C869"/>
<path d="M27.0464 30C26.6293 29.1755 26.2303 28.3431 25.857 27.5H14.1443C13.771 28.3431 13.3721 29.1755 12.955 30H27.0464Z" fill="#F1B355"/>
<path d="M23.0156 19.375H16.9843C16.7643 20.2141 16.5239 21.0474 16.2633 21.875H19.1669L19.3749 21.25H20.6249L20.8333 21.875H23.7369C23.4765 21.0476 23.236 20.2143 23.0156 19.375Z" fill="#F1B355"/>
<path d="M3.75 35H5V38.125H3.75V35Z" fill="#8C6847"/>
<path d="M5.625 33.125C5.625 32.4346 5.06536 31.875 4.375 31.875C3.68464 31.875 3.125 32.4346 3.125 33.125V34.375C3.125 35.0654 3.68464 35.625 4.375 35.625C5.06536 35.625 5.625 35.0654 5.625 34.375V33.125Z" fill="#83B45A"/>
<path d="M32.5 35H33.75V38.125H32.5V35Z" fill="#8C6847"/>
<path d="M34.375 33.125C34.375 32.4346 33.8154 31.875 33.125 31.875C32.4346 31.875 31.875 32.4346 31.875 33.125V34.375C31.875 35.0654 32.4346 35.625 33.125 35.625C33.8154 35.625 34.375 35.0654 34.375 34.375V33.125Z" fill="#83B45A"/>
<path d="M38.125 38.125V36.875C38.125 36.5435 37.9933 36.2255 37.7589 35.9911C37.5245 35.7567 37.2065 35.625 36.875 35.625C36.5435 35.625 36.2255 35.7567 35.9911 35.9911C35.7567 36.2255 35.625 36.5435 35.625 36.875V38.125H38.125Z" fill="#AAC56A"/>
<path d="M1.25 37.5H38.75V38.75H1.25V37.5Z" fill="#6F5438"/>
<path d="M18.75 5H21.25V6.25H18.75V5Z" fill="#F1B355"/>
<path d="M15.625 18.75H24.375V21.25H15.625V18.75Z" fill="#8C6847"/>
<path d="M11.875 26.875H28.125V29.375H11.875V26.875Z" fill="#8C6847"/>
<path d="M23.3594 30L23.125 29.375H16.875L16.6406 30H23.3594Z" fill="#F09C57"/>
<path d="M18.125 3.125H21.875V5.625H18.125V3.125Z" fill="#8C6847"/>
</svg>
