<svg width="40" height="40" viewBox="0 0 40 40" fill="none" xmlns="http://www.w3.org/2000/svg">
<g clip-path="url(#clip0)">
<path d="M17.9993 2.43173V18.5683H37.5821C38.917 18.5683 39.9993 19.6574 39.9993 21V2.43173C39.9993 1.0891 38.917 0 37.5821 0H20.4157C19.0815 0 17.9993 1.0891 17.9993 2.43173Z" fill="#444746"/>
<path d="M39.3995 20.3409V37.6584C39.3995 38.6185 38.6181 39.4 37.6512 39.4H2.34779C1.38083 39.4 0.599512 38.6184 0.599512 37.6591V20.3416C0.599512 19.3815 1.38095 18.6 2.34779 18.6H37.6505C38.6183 18.6 39.3995 19.3817 39.3995 20.3409Z" fill="white" stroke="#BFCDD0" stroke-width="1.2"/>
<path d="M18.6201 2.34828V4.13793H39.9994V2.34828C39.9994 1.05172 38.9484 0 37.6512 0H20.9684C19.6712 0 18.6201 1.05172 18.6201 2.34828Z" fill="#444746"/>
<rect x="19.9993" y="2" width="11" height="11" rx="3" fill="#F9F9F9"/>
<circle cx="23.4993" cy="5.5" r="1.5" fill="#444444"/>
<circle cx="23.4993" cy="9.5" r="1.5" fill="#444444"/>
<circle cx="27.4993" cy="7.5" r="1.5" fill="#444444"/>
<circle r="0.5" transform="matrix(-1 0 0 1 27.4993 5)" fill="#444444"/>
<path d="M1.49927 35C2.32769 35 2.99927 34.3284 2.99927 33.5L2.99927 24.5C2.99927 23.6716 2.32769 23 1.49927 23L0.999268 23L0.999267 35L1.49927 35Z" fill="#BFCDD0"/>
</g>
<path d="M16.4659 31.154V32H12.4339L14.5129 29.48C14.8249 29.102 15.0649 28.79 15.2329 28.544C15.4429 28.232 15.5479 27.944 15.5479 27.68C15.5479 27.41 15.4609 27.182 15.2869 26.996C15.1129 26.804 14.8669 26.708 14.5489 26.708C14.2309 26.708 13.9789 26.813 13.7929 27.023C13.6069 27.233 13.5049 27.491 13.4869 27.797H12.6049C12.6289 27.269 12.7969 26.831 13.1089 26.483C13.4569 26.093 13.9249 25.898 14.5129 25.898C15.1189 25.898 15.5929 26.075 15.9349 26.429C16.2769 26.783 16.4479 27.209 16.4479 27.707C16.4479 28.121 16.3039 28.541 16.0159 28.967C15.8599 29.201 15.5749 29.561 15.1609 30.047L14.2249 31.154H16.4659ZM19.9018 32V28.211H20.7838V31.19H22.0438V28.211H22.9258V31.19H24.1858V28.211H25.0678V32H19.9018ZM28.7959 29.021H27.6889V32H26.8069V29.021H25.6999V28.211H28.7959V29.021Z" fill="#353535"/>
<defs>
<clipPath id="clip0">
<rect x="-0.000488281" width="40" height="40" fill="white"/>
</clipPath>
</defs>
</svg>
