<svg width="15" height="15" viewBox="0 0 15 15" fill="none" xmlns="http://www.w3.org/2000/svg">
<g clip-path="url(#clip0)">
<path d="M12.7462 9.52115C11.8898 9.52115 11.0489 9.38424 10.2521 9.11508C9.86164 8.97896 9.38165 9.10384 9.14335 9.35401L7.57058 10.5676C5.74661 9.57238 4.62308 8.42432 3.66274 6.57393L4.81508 5.00818C5.11447 4.70257 5.22185 4.25614 5.09319 3.83726C4.82874 3.01849 4.6944 2.1594 4.6944 1.28367C4.69444 0.651032 4.19092 0.136353 3.57204 0.136353H1.00326C0.384379 0.136353 -0.119141 0.651032 -0.119141 1.28363C-0.119141 8.53487 5.65215 14.434 12.7462 14.434C13.365 14.434 13.8686 13.9194 13.8686 13.2868V10.6684C13.8685 10.0358 13.365 9.52115 12.7462 9.52115Z" fill="#060606"/>
</g>
<defs>
<clipPath id="clip0">
<rect width="15" height="15" fill="white"/>
</clipPath>
</defs>
</svg>
