<svg width="54" height="60" viewBox="0 0 54 60" fill="none" xmlns="http://www.w3.org/2000/svg">
<path d="M49.2899 7.80264H48.5816C49.9317 5.59335 49.4332 2.62726 47.2663 1.01139C44.9315 -0.729516 41.6137 -0.169135 39.9843 2.27817L36.3063 7.80276H4.70999C2.11289 7.80276 0 9.9264 0 12.5367V42.8027C0 45.413 2.11289 47.5366 4.70999 47.5366H23.005L21.6227 53.3721H18.6392C16.6948 53.3721 15.1129 54.962 15.1129 56.9163V57.6563H11.4349C10.791 57.6563 10.269 58.181 10.269 58.8281C10.269 59.4752 10.791 60 11.4349 60H42.5651C43.209 60 43.731 59.4752 43.731 58.8281C43.731 58.181 43.209 57.6563 42.5651 57.6563H38.8871V56.9163C38.8871 54.962 37.3052 53.3721 35.3608 53.3721H32.3773L30.995 47.5366H49.29C51.8871 47.5366 54 45.413 54 42.8027V36.143V12.5366C54 9.92628 51.8871 7.80264 49.2899 7.80264ZM32.5843 28.4037C30.7613 29.6863 27.3462 27.943 24.0849 29.6921C23.2891 25.5373 23.7908 21.6297 27.9328 20.7672C28.4681 20.6551 29.0444 20.6043 29.535 20.6142C30.9369 21.6596 32.3549 22.717 33.7529 23.7596C34.3649 25.5487 34.1352 27.3126 32.5843 28.4037ZM33.7593 15.8429L37.0597 18.304L34.5216 21.4142C33.4767 20.635 32.5784 19.9652 31.5335 19.1859C31.7505 18.86 33.561 16.1406 33.7593 15.8429ZM41.9224 3.58162C42.8055 2.25496 44.6065 1.9463 45.8769 2.89374C47.1477 3.84131 47.3753 5.66307 46.3683 6.89715C44.5815 9.08653 40.3336 14.292 38.5401 16.4898L35.0574 13.8928L41.9224 3.58162ZM36.5552 56.9163V57.6563H17.4447V56.9163C17.4447 56.2544 17.9806 55.7158 18.6392 55.7158H35.3607C36.0193 55.7158 36.5552 56.2544 36.5552 56.9163ZM29.9802 53.3721H24.0197L25.402 47.5366H28.5978L29.9802 53.3721ZM51.6681 42.8027C51.6681 44.1207 50.6013 45.1929 49.29 45.1929C47.4392 45.1929 6.79106 45.1929 4.71011 45.1929C3.39879 45.1929 2.33197 44.1207 2.33197 42.8027V37.3149H5.66372C6.30766 37.3149 6.82965 36.7901 6.82965 36.143C6.82965 35.4959 6.30766 34.9712 5.66372 34.9712H2.33174V12.5366C2.33174 11.2186 3.39856 10.1464 4.70988 10.1464H34.7459C33.6289 11.8241 30.3703 16.7187 29.3381 18.269C27.0532 18.2897 24.7721 19.0897 23.2788 20.8419C21.2467 23.226 20.8897 26.9722 22.2177 31.9763C22.4447 32.8319 23.5069 33.1385 24.1497 32.5214C27.1645 29.6261 30.9192 32.7843 34.2816 30.0489C36.3341 28.379 36.8198 25.7243 36.0459 23.2418C37.0921 21.9598 45.6839 11.4314 46.7325 10.1464H49.2898C50.6011 10.1464 51.6679 11.2186 51.6679 12.5366V34.9711H14.9909C14.347 34.9711 13.825 35.4958 13.825 36.1429C13.825 36.79 14.347 37.3148 14.9909 37.3148H51.6681V42.8027Z" fill="#3DE197"/>
<path d="M10.102 34.9941C9.54069 35.1094 9.16455 35.5971 9.16455 36.1439C9.16455 36.8769 9.83136 37.4382 10.5579 37.2923C11.2034 37.1606 11.5967 36.5353 11.4731 35.9142C11.3434 35.2732 10.7247 34.8681 10.102 34.9941Z" fill="#3DE197"/>
</svg>
