<svg width="60" height="60" viewBox="0 0 60 60" fill="none" xmlns="http://www.w3.org/2000/svg">
<g clip-path="url(#clip0)">
<path d="M56.9703 29.5975C56.4943 15.5481 45.2038 4.24645 31.1681 3.77004V0.983398H29.3239V3.77004C15.2882 4.24645 3.99764 15.5481 3.52171 29.5975H0.737793V31.4436H3.52171C3.99764 45.493 15.2882 56.7947 29.3239 57.2711V60.0577H31.1681V57.27C45.1964 56.7779 56.4776 45.4856 56.9692 31.4436H59.7542V29.5975H56.9703ZM30.246 55.4425C16.4954 55.4425 5.34845 44.2846 5.34845 30.5206C5.34845 16.7565 16.4954 5.59858 30.246 5.59858C43.9902 5.61381 55.1283 16.7628 55.1435 30.5206C55.1435 44.2846 43.9966 55.4425 30.246 55.4425Z" fill="#3DE197"/>
<path d="M36.0418 12.0209C34.3821 10.7664 32.3342 10.1234 30.2461 10.214C28.1447 10.1228 26.0836 10.774 24.4184 12.0445L24.4146 12.0324C16.3463 14.576 10.861 22.0676 10.8672 30.535C10.875 41.2403 19.5512 49.9124 30.2461 49.9045C38.7356 49.9116 46.2398 44.3829 48.7565 36.2671C51.923 26.0561 46.2314 15.2102 36.0418 12.0209ZM25.6355 13.4132C26.9877 12.479 28.604 12.0046 30.2461 12.0601C31.8881 12.0043 33.5045 12.4783 34.8568 13.4123V17.465C34.3957 17.3436 33.9347 17.1128 33.9347 16.6752C33.9347 16.1655 33.5218 15.7522 33.0125 15.7522H27.4797C26.9705 15.7522 26.5576 16.1655 26.5576 16.6752C26.5576 17.1128 26.0965 17.3435 25.6355 17.465V13.4132ZM25.6355 19.3585C26.7442 19.2521 27.7231 18.589 28.234 17.5983H32.2582C32.7692 18.589 33.748 19.2521 34.8568 19.3585V20.3674C34.8568 22.9224 33.6488 25.9056 30.2461 25.9056C26.8435 25.9056 25.6355 22.9224 25.6355 20.3674V19.3585ZM32.8614 28.4438L30.2461 31.0617L27.63 28.443L27.9815 27.3512C28.6745 27.6118 29.4338 27.7517 30.2461 27.7517C31.0579 27.7517 31.8169 27.6121 32.5094 27.3517L32.8614 28.4438ZM19.2774 31.0312L18.3552 32.8773C18.2914 33.0055 18.2583 33.1467 18.2584 33.2899V43.309C16.135 41.3192 14.4772 38.7726 13.5386 35.7985C10.7503 26.9632 15.3127 17.5646 23.7912 14.2117V18.5213V20.3674C23.7912 22.984 24.7539 25.1245 26.3482 26.4152L25.8549 27.9455L19.7384 30.5974C19.5385 30.683 19.3751 30.8367 19.2774 31.0312ZM40.3896 44.8191C39.5295 45.43 38.6058 45.9695 37.6232 46.4246V41.5972H35.7789V47.1354H35.8362C35.7321 47.1705 35.628 47.2056 35.5229 47.2389C31.8368 48.4044 28.053 48.2858 24.6513 47.1354H24.7133V41.5972H22.8691V46.423C21.9011 45.9729 20.9749 45.4349 20.1027 44.816V33.5077L20.7758 32.1564L26.3282 29.7503L29.324 32.749V37.9051H31.1683V32.749L34.1637 29.7506L39.7155 32.1564L40.3896 33.5077V44.8191ZM42.2338 43.3103V33.2899C42.2354 33.1471 42.2039 33.0058 42.1416 32.8773L41.2195 31.0312C41.1217 30.8367 40.9584 30.683 40.7584 30.5974L34.6355 27.9455L34.1426 26.4164C35.7378 25.1258 36.701 22.9848 36.701 20.3674V18.5213V14.2141C41.5775 16.1484 45.3581 20.1821 46.9521 25.2331C49.0487 31.8767 46.9893 38.8393 42.2338 43.3103Z" fill="#3DE197"/>
<path d="M8.11479 4.67534V7.06197L2.31194 1.25342L1.00781 2.55882L6.81078 8.36749H4.42627V10.2136H9.03692C9.54617 10.2136 9.95905 9.80027 9.95905 9.29052V4.67534H8.11479Z" fill="#3DE197"/>
<path d="M59.4822 2.55675L58.178 1.25146L52.377 7.05817V4.67501H50.5327V9.29018C50.5327 9.79993 50.9456 10.2132 51.4548 10.2132H56.0655V8.36715H53.6775L59.4822 2.55675Z" fill="#3DE197"/>
<path d="M9.03677 50.8271H4.42611V52.6732H6.8059L1.00293 58.4819L2.30705 59.7873L8.11464 53.974V56.3654H9.9589V51.7502C9.9589 51.2404 9.54601 50.8271 9.03677 50.8271Z" fill="#3DE197"/>
<path d="M53.6811 52.6732H56.0655V50.8271H51.4548C50.9456 50.8271 50.5327 51.2404 50.5327 51.7502V56.3654H52.377V53.9786L58.178 59.7853L59.4821 58.4799L53.6811 52.6732Z" fill="#3DE197"/>
</g>
<defs>
<clipPath id="clip0">
<rect width="60" height="60" fill="white"/>
</clipPath>
</defs>
</svg>
