<svg width="60" height="61" viewBox="0 0 60 61" fill="none" xmlns="http://www.w3.org/2000/svg">
<g clip-path="url(#clip0)">
<path d="M13.5957 52.2446C13.1102 52.2446 12.7168 52.6385 12.7168 53.1244V59.1787C12.7168 59.6646 13.1102 60.0585 13.5957 60.0585C14.0812 60.0585 14.4746 59.6646 14.4746 59.1787V53.1244C14.4746 52.6385 14.0812 52.2446 13.5957 52.2446Z" fill="#3DE197"/>
<path d="M54.1906 46.0001H51.3754C50.4072 44.0089 48.7819 42.433 46.7343 41.5248L35.2736 36.6074C35.2714 36.6064 35.2692 36.606 35.2671 36.605L35.2052 36.5785C35.207 36.5118 35.2111 36.445 35.2111 36.3785V31.7497C37.5615 29.6861 39.048 26.6596 39.048 23.2918V22.4611H40.2022C41.5511 22.4611 42.6485 21.3627 42.6485 20.0124V16.9104C42.6485 15.7847 41.8848 14.8366 40.8494 14.5516V12.7554C40.8494 5.72199 35.1327 0 28.1059 0H27.5155C20.4887 0 14.7719 5.72199 14.7719 12.7554V14.5514C13.7364 14.8364 12.9725 15.7846 12.9725 16.9105V20.0125C12.9725 21.3628 14.0698 22.4612 15.4188 22.4612H16.5687V23.292C16.5687 26.662 18.0572 29.6903 20.4102 31.754V36.3786C20.4102 36.4598 20.4117 36.5409 20.4143 36.6216L9.03804 41.573C5.54774 43.0429 3.29248 46.442 3.29248 50.2325V59.1783C3.29248 59.6642 3.68588 60.0581 4.17138 60.0581C4.65689 60.0581 5.05029 59.6642 5.05029 59.1783V50.2325C5.05029 47.1519 6.88321 44.3894 9.72933 43.1907L17.0829 39.9901L18.0108 41.5769C18.2561 41.9962 18.7946 42.137 19.2134 41.8917C19.6322 41.6462 19.7731 41.1073 19.5279 40.688L18.7068 39.2839L20.6043 38.4581L20.9664 38.7374C20.9691 38.7395 20.9718 38.7416 20.9745 38.7436L26.4366 42.9567L22.7751 46.2403L21.0964 43.3697C20.8511 42.9504 20.3128 42.8095 19.8938 43.0549C19.475 43.3004 19.3341 43.8393 19.5793 44.2586L21.8016 48.0588C21.9349 48.2867 22.1635 48.4426 22.4242 48.4835C22.4696 48.4907 22.5149 48.4941 22.5601 48.4941C22.7749 48.4941 22.9842 48.4151 23.1467 48.2696L26.4522 45.3052L23.8057 59.012C23.7136 59.489 24.0252 59.9505 24.5018 60.0427C24.9785 60.135 25.4394 59.8228 25.5314 59.3459L27.8104 47.5424L30.0893 59.3459C30.1704 59.7666 30.5386 60.0589 30.9512 60.0589C31.0065 60.0589 31.0625 60.0536 31.1189 60.0427C31.5955 59.9505 31.9072 59.489 31.815 59.012L29.1686 45.3052L32.474 48.2696C32.6365 48.4151 32.8456 48.4941 33.0606 48.4941C33.1058 48.4941 33.1512 48.4906 33.1965 48.4835C33.4572 48.4427 33.6858 48.2867 33.8191 48.0588L38.5693 39.9365L46.032 43.1378C47.4157 43.7515 48.5646 44.7464 49.3646 46.0001H39.8405C38.4529 46.0001 37.3241 47.1301 37.3241 48.5191V57.5397C37.3241 58.9287 38.4529 60.0586 39.8405 60.0586H54.1906C55.5782 60.0586 56.707 58.9287 56.707 57.5397V48.5191C56.707 47.1301 55.5782 46.0001 54.1906 46.0001ZM40.8905 20.0124C40.8905 20.3924 40.5816 20.7016 40.2021 20.7016H39.0499V16.2212H40.2021C40.5816 16.2212 40.8905 16.5304 40.8905 16.9104V20.0124ZM15.4188 20.7016C15.0392 20.7016 14.7303 20.3924 14.7303 20.0124V16.9104C14.7303 16.5304 15.0392 16.2212 15.4188 16.2212H16.5687V20.7016H15.4188ZM18.3265 23.2918L18.3286 15.3415C18.3286 15.3357 18.3279 15.3301 18.3278 15.3243C18.3476 14.751 18.4982 13.6964 19.2572 12.7939C20.0207 11.8863 20.9922 11.6054 21.3113 11.5131C22.5765 11.1471 23.374 11.5125 24.4774 12.0181C25.5464 12.508 26.7575 13.064 28.5468 12.9749C29.9086 12.9076 30.9008 12.4887 31.6917 12.0877C32.1247 11.8682 32.298 11.3389 32.0787 10.9053C31.8593 10.4719 31.3305 10.2986 30.8975 10.518C30.1379 10.9031 29.4326 11.1695 28.46 11.2175C27.0998 11.2848 26.1816 10.8638 25.2093 10.4183C24.0406 9.8827 22.7164 9.27542 20.8237 9.82264C19.6268 10.1687 18.6475 10.7871 17.9126 11.6606C17.117 12.6065 16.7855 13.6502 16.652 14.4612H16.5299V12.7554C16.5299 6.69232 21.4581 1.75953 27.5156 1.75953H28.106C34.1635 1.75953 39.0917 6.6922 39.0917 12.7554V14.4612H39.0126C38.9409 13.8354 38.7566 13.1052 38.3479 12.3693C37.6457 11.1047 36.4022 10.1035 35.0213 9.69102C34.5565 9.55237 34.0667 9.81701 33.9279 10.2825C33.789 10.748 34.0535 11.2381 34.5187 11.3771C34.8751 11.4835 36.0936 11.9314 36.8114 13.2242C37.2452 14.0053 37.3116 14.7878 37.291 15.3066C37.2906 15.3182 37.2903 15.33 37.2903 15.3416V23.292C37.2903 28.525 33.0368 32.7825 27.8085 32.7825C22.5801 32.7825 18.3265 28.525 18.3265 23.2918ZM22.2892 37.5364C22.2573 37.3825 22.2296 37.2271 22.2106 37.0687C22.1824 36.8449 22.1681 36.6127 22.1681 36.3786V33.0198C23.8269 33.9872 25.7541 34.5422 27.8084 34.5422C29.8646 34.5422 31.7933 33.9862 33.4533 33.0171V36.3788C33.4533 36.5991 33.4404 36.8215 33.4145 37.0418C33.3953 37.2083 33.368 37.3729 33.3343 37.5343L27.8104 41.7952L22.2892 37.5364ZM32.8458 46.2403L29.1843 42.9567L35.0551 38.4283L36.5247 39.0584L36.9415 39.2372L32.8458 46.2403ZM54.9492 57.5397C54.9492 57.9585 54.6089 58.2991 54.1906 58.2991H39.8405C39.4223 58.2991 39.0819 57.9585 39.0819 57.5397V48.5191C39.0819 48.1003 39.4222 47.7596 39.8405 47.7596H50.808C50.8084 47.7596 50.809 47.7598 50.8095 47.7598C50.8103 47.7598 50.8111 47.7596 50.8119 47.7596H54.1906C54.6088 47.7596 54.9492 48.1003 54.9492 48.5191V57.5397Z" fill="#3DE197"/>
<path d="M53.2999 51.6772C53.2999 50.3566 52.1882 49.2822 50.8217 49.2822H49.2738C49.2735 49.2822 49.2733 49.2822 49.2729 49.2822C49.2726 49.2822 49.2723 49.2822 49.272 49.2822C48.7865 49.2822 48.3931 49.6761 48.3931 50.162V55.992C48.3931 56.4779 48.7865 56.8718 49.272 56.8718C49.7575 56.8718 50.1509 56.4779 50.1509 55.992V54.7417L51.7614 56.5733C51.9351 56.7709 52.1778 56.8718 52.4215 56.8718C52.6278 56.8718 52.8348 56.7996 53.0018 56.6525C53.3661 56.3314 53.4015 55.7755 53.0809 55.4108L51.7493 53.8964C52.6572 53.5408 53.2999 52.6808 53.2999 51.6772ZM50.8217 51.0418C51.2122 51.0418 51.5421 51.3327 51.5421 51.6772C51.5421 52.0216 51.2122 52.3126 50.8217 52.3126C50.663 52.3126 50.4123 52.3136 50.1587 52.3147C50.1576 52.0698 50.1566 51.8293 50.1566 51.6773C50.1566 51.5468 50.156 51.2995 50.1553 51.0419H50.8217V51.0418Z" fill="#3DE197"/>
<path d="M45.731 49.2822C45.2455 49.2822 44.8521 49.6761 44.8521 50.162V52.0973H42.5791V50.162C42.5791 49.6761 42.1857 49.2822 41.7002 49.2822C41.2147 49.2822 40.8213 49.6761 40.8213 50.162V55.992C40.8213 56.4779 41.2147 56.8718 41.7002 56.8718C42.1857 56.8718 42.5791 56.4779 42.5791 55.992V53.8568H44.8521V55.992C44.8521 56.4779 45.2455 56.8718 45.731 56.8718C46.2165 56.8718 46.6099 56.4779 46.6099 55.992V50.162C46.6099 49.6761 46.2165 49.2822 45.731 49.2822Z" fill="#3DE197"/>
</g>
<defs>
<clipPath id="clip0">
<rect width="60" height="60.0589" fill="white"/>
</clipPath>
</defs>
</svg>
