<svg width="60" height="60" viewBox="0 0 60 60" fill="none" xmlns="http://www.w3.org/2000/svg">
<path d="M25.3102 10.748L23.5618 9.97687C23.4825 9.68332 23.3964 9.40541 23.3005 9.13741L24.2721 7.46436C24.4492 7.15841 24.4522 6.78195 24.28 6.47324C23.8013 5.61874 23.2298 4.81973 22.5756 4.09072C22.3332 3.81758 21.9606 3.69936 21.605 3.78251L19.7657 4.20331C19.5514 4.03211 19.3277 3.86705 19.0945 3.70825L18.9165 1.76119C18.8834 1.40539 18.6635 1.09417 18.3392 0.944265C17.4625 0.533612 16.5417 0.224401 15.5948 0.0226441C15.2376 -0.0533748 14.8675 0.0719876 14.6301 0.349388L13.3464 1.83959H12.5754L11.2915 0.349263C11.0543 0.0716119 10.684 -0.0538758 10.3268 0.0225189C9.3799 0.224401 8.45915 0.533612 7.58237 0.944139C7.25775 1.0943 7.03784 1.40601 7.00515 1.76206L6.82706 3.70812C6.59512 3.86667 6.3702 4.03199 6.15592 4.20319L4.31631 3.78251C3.96076 3.69911 3.58805 3.81746 3.34572 4.09072C2.69148 4.8196 2.1199 5.61862 1.64137 6.47324C1.46917 6.78195 1.47217 7.15841 1.64926 7.46436L2.62085 9.13741C2.52492 9.40554 2.43888 9.68332 2.3596 9.97687L0.611041 10.7478C0.248103 10.9083 0.0140351 11.2677 0.0141604 11.6646V14.3865C0.0139099 14.7833 0.247978 15.1428 0.611041 15.3032L2.35948 16.0743C2.43875 16.3679 2.52479 16.6458 2.62072 16.9138L1.64913 18.5868C1.47205 18.8928 1.46904 19.2692 1.64124 19.5779C2.1199 20.4324 2.69148 21.2314 3.34559 21.9604C3.58843 22.233 3.96063 22.3512 4.31618 22.2687L6.15554 21.8479C6.36982 22.0191 6.5935 22.1841 6.82669 22.3429L7.00477 24.29C7.03784 24.6458 7.25775 24.957 7.58199 25.1069C8.45878 25.5176 9.37952 25.8268 10.3264 26.0285C10.6836 26.104 11.0534 25.9788 11.2911 25.7018L12.5748 24.2117H13.3458L14.6295 25.7018C14.8197 25.9231 15.097 26.0503 15.3888 26.0501C15.4578 26.0502 15.5267 26.0429 15.5943 26.0285C16.5412 25.8266 17.462 25.5174 18.3387 25.1069C18.6634 24.9567 18.8833 24.645 18.916 24.289L19.094 22.3429C19.326 22.1844 19.5509 22.0191 19.7652 21.8479L21.6047 22.2685C21.9602 22.3514 22.3327 22.2331 22.5753 21.9603C23.2295 21.2314 23.8011 20.4324 24.2796 19.5778C24.4518 19.2691 24.4488 18.8926 24.2717 18.5867L23.3001 16.9136C23.3961 16.6455 23.4821 16.3677 23.5614 16.0742L25.3098 15.3032C25.6728 15.1428 25.9068 14.7833 25.9067 14.3865V11.6647C25.9072 11.2678 25.6731 10.9083 25.3102 10.748ZM23.9034 13.734L22.3037 14.4394C22.0148 14.5674 21.8031 14.8242 21.7323 15.1321C21.62 15.6397 21.4648 16.1369 21.2685 16.6183C21.1491 16.9069 21.1707 17.2345 21.3273 17.5048L22.244 19.0849C22.0047 19.465 21.7429 19.8305 21.4603 20.1797L19.7285 19.7834C19.4137 19.7096 19.0826 19.7935 18.8411 20.0085C18.4575 20.3453 18.0464 20.6493 17.6121 20.9175C17.3449 21.083 17.1709 21.3646 17.1425 21.6777L16.9742 23.5161C16.5743 23.6784 16.1652 23.8173 15.7492 23.9319L14.5643 22.5563C14.374 22.3353 14.0968 22.2082 13.805 22.208H12.1162C11.8245 22.2082 11.5474 22.3353 11.3569 22.5563L10.172 23.9319C9.75561 23.8173 9.34633 23.6784 8.94608 23.5161L8.77776 21.6758C8.7487 21.3632 8.57487 21.0822 8.30812 20.9166C7.87392 20.6492 7.46314 20.3454 7.08017 20.0086C6.83858 19.7937 6.50758 19.7098 6.19274 19.7836L4.46096 20.1798C4.1783 19.8307 3.91668 19.4651 3.67722 19.085L4.59396 17.5049C4.75038 17.2346 4.77217 16.907 4.6527 16.6184C4.45645 16.137 4.30128 15.6398 4.18894 15.1323C4.11818 14.8243 3.90653 14.5676 3.61748 14.4396L2.01783 13.7341V12.3173L3.61761 11.6118C3.90653 11.4839 4.11831 11.2271 4.18907 10.9192C4.3014 10.4116 4.45657 9.91438 4.65282 9.43297C4.7723 9.14442 4.75063 8.8168 4.59408 8.54654L3.67735 6.96642C3.91668 6.58633 4.1783 6.22076 4.46096 5.8716L6.19274 6.26785C6.50758 6.34111 6.83833 6.2572 7.08017 6.0428C7.46377 5.70603 7.8748 5.40196 8.30912 5.13382C8.57638 4.96826 8.75033 4.68673 8.77876 4.37363L8.94708 2.53515C9.34696 2.37284 9.75599 2.23396 10.172 2.11936L11.3569 3.49497C11.5473 3.71601 11.8244 3.84313 12.1162 3.84325H13.8049C14.0966 3.84313 14.3737 3.71589 14.5642 3.49497L15.7491 2.11936C16.1655 2.23396 16.5748 2.37284 16.975 2.53515L17.1434 4.37551C17.1724 4.68811 17.3462 4.96914 17.613 5.1347C18.0472 5.40208 18.458 5.70591 18.8409 6.04267C19.0826 6.2572 19.4135 6.34111 19.7284 6.26772L21.4601 5.87147C21.7428 6.22063 22.0046 6.5862 22.2439 6.96629L21.3271 8.54641C21.1707 8.81667 21.1489 9.14429 21.2684 9.43284C21.4647 9.91425 21.6198 10.4114 21.7322 10.919C21.8029 11.227 22.0146 11.4837 22.3036 11.6117L23.9033 12.3172V13.734H23.9034Z" fill="#3DE197"/>
<path d="M12.9605 6.01172C9.08721 6.01172 5.94727 9.15166 5.94727 13.025C5.9519 16.8963 9.08922 20.0336 12.9605 20.0383C16.8339 20.0383 19.9738 16.8983 19.9738 13.025C19.9738 9.15166 16.8339 6.01172 12.9605 6.01172ZM12.9605 18.0345C10.1939 18.0345 7.95106 15.7916 7.95106 13.025C7.95432 10.2596 10.1952 8.01877 12.9605 8.01551C15.7272 8.01551 17.97 10.2584 17.97 13.025C17.97 15.7916 15.7272 18.0345 12.9605 18.0345Z" fill="#3DE197"/>
<path d="M59.3875 8.97084L58.004 8.36031C57.9501 8.16657 57.8915 7.98072 57.8289 7.79963L58.5999 6.47099C58.777 6.16466 58.78 5.78794 58.6078 5.47886C58.2021 4.75661 57.7186 4.08108 57.1655 3.46429C56.9232 3.19165 56.5512 3.0733 56.196 3.15608L54.7401 3.48871C54.5972 3.37713 54.4504 3.26892 54.2997 3.16385L54.1588 1.61992C54.1265 1.26375 53.9065 0.951784 53.5816 0.802C52.839 0.455093 52.0595 0.193473 51.2579 0.0221481C50.9007 -0.0541213 50.5303 0.0712411 50.2931 0.348892L49.2736 1.53276H48.7844L47.7649 0.348892C47.5278 0.0709906 47.1573 -0.054497 46.8002 0.0221481C45.9986 0.193473 45.219 0.454968 44.4764 0.802C44.1515 0.951784 43.9315 1.26375 43.8992 1.61992L43.7583 3.16385C43.6076 3.26855 43.4608 3.37688 43.3179 3.48871L41.8621 3.15608C41.5068 3.0738 41.1351 3.19203 40.8925 3.46429C40.3393 4.08096 39.856 4.75699 39.4512 5.47986C39.279 5.78857 39.2819 6.16503 39.459 6.47099L40.2291 7.79862C40.1665 7.97959 40.1081 8.16682 40.054 8.36019L38.6705 8.97084C38.3071 9.13077 38.0725 9.49045 38.0728 9.88758V12.1555C38.0725 12.5526 38.3071 12.9123 38.6705 13.0722L40.054 13.6828C40.1079 13.8765 40.1665 14.0624 40.2291 14.2435L39.4581 15.5722C39.281 15.8786 39.278 16.2553 39.4502 16.5644C39.8558 17.2866 40.3394 17.9621 40.8925 18.5789C41.1351 18.8517 41.5075 18.97 41.8631 18.8871L43.3169 18.5535C43.4598 18.666 43.6075 18.7747 43.7581 18.8794L43.899 20.4233C43.9313 20.7796 44.1515 21.0914 44.4763 21.2412C45.2189 21.5881 45.9984 21.8497 46.8 22.0211C47.1572 22.0967 47.5272 21.9715 47.7647 21.6943L48.7843 20.5104H49.2735L50.293 21.6943C50.4833 21.9156 50.7605 22.0429 51.0523 22.0426C51.1213 22.0427 51.1902 22.0355 51.2579 22.0211C52.0595 21.8497 52.839 21.5882 53.5816 21.2412C53.9065 21.0914 54.1265 20.7795 54.1588 20.4233L54.2997 18.8794C54.4504 18.7747 54.5972 18.6663 54.7401 18.5545L56.196 18.8871C56.5512 18.9695 56.9231 18.8513 57.1655 18.5789C57.7185 17.9622 58.2021 17.2866 58.6078 16.5644C58.78 16.2553 58.777 15.8786 58.5999 15.5722L57.8289 14.2436C57.8915 14.0626 57.9503 13.8766 58.004 13.6829L59.3875 13.0724C59.7509 12.9124 59.9855 12.5528 59.9853 12.1556V9.88758C59.9855 9.49045 59.7509 9.13077 59.3875 8.97084ZM57.9815 11.503L56.7476 12.047C56.4573 12.1747 56.2449 12.4324 56.1753 12.7417C56.0837 13.1545 55.9574 13.5587 55.7976 13.95C55.6781 14.2388 55.6998 14.5668 55.8563 14.8375L56.5695 16.0664C56.4081 16.3169 56.2339 16.5608 56.047 16.7983L54.7046 16.4911C54.3904 16.4176 54.0602 16.5015 53.8192 16.7161C53.5071 16.9899 53.1727 17.237 52.8193 17.4548C52.5513 17.6203 52.3766 17.9023 52.3477 18.216L52.2175 19.6464C51.9485 19.7521 51.6784 19.8441 51.4094 19.9205L50.4917 18.8549C50.3013 18.6339 50.0241 18.5068 49.7325 18.5067H48.3255C48.0339 18.5068 47.7567 18.634 47.5664 18.8549L46.6486 19.9205C46.3796 19.8442 46.1095 19.7521 45.8405 19.6464L45.7103 18.216C45.6814 17.9023 45.5068 17.6203 45.2387 17.4548C44.8854 17.2372 44.5513 16.99 44.2397 16.7161C43.9971 16.503 43.6672 16.4189 43.3523 16.4901L42.0108 16.7973C41.824 16.5615 41.6498 16.3169 41.4883 16.0664L42.2016 14.8375C42.358 14.5668 42.3798 14.2388 42.2603 13.95C42.1005 13.5587 41.9741 13.1544 41.8826 12.7417C41.8128 12.4324 41.6004 12.1747 41.3103 12.047L40.0764 11.503V10.5403L41.3103 9.99629C41.6006 9.86867 41.813 9.61093 41.8826 9.3016C41.9743 8.88831 42.1006 8.48342 42.2603 8.0913C42.3798 7.80276 42.3581 7.47514 42.2016 7.20488L41.4892 5.97592C41.6497 5.72645 41.8239 5.48186 42.0107 5.24504L43.3531 5.55225C43.6674 5.62488 43.9972 5.5411 44.2386 5.32719C44.5506 5.05343 44.885 4.80633 45.2385 4.58855C45.5065 4.42298 45.6812 4.14107 45.7101 3.82735L45.8402 2.3969C46.1092 2.2912 46.3794 2.19927 46.6484 2.12288L47.5661 3.18839C47.7565 3.40944 48.0336 3.53655 48.3254 3.53668H49.7323C50.024 3.53655 50.3013 3.40944 50.4917 3.18839L51.4094 2.12288C51.6784 2.19915 51.9485 2.2912 52.2175 2.3969L52.3477 3.82735C52.3766 4.14107 52.5512 4.42298 52.8193 4.58855C53.1727 4.80633 53.5071 5.05343 53.8192 5.32719C54.0604 5.54135 54.3905 5.62526 54.7046 5.55225L56.047 5.24504C56.2339 5.48186 56.4081 5.7257 56.5695 5.97692L55.8563 7.20588C55.6999 7.47651 55.6781 7.80451 55.7976 8.09331C55.9574 8.48467 56.0837 8.88894 56.1753 9.3016C56.245 9.61093 56.4574 9.86867 56.7476 9.99629L57.9815 10.5403V11.503Z" fill="#3DE197"/>
<path d="M49.029 6.01172C46.2624 6.01172 44.0195 8.25459 44.0195 11.0212C44.0228 13.7866 46.2637 16.0274 49.029 16.0307C51.7957 16.0307 54.0385 13.7878 54.0385 11.0212C54.0385 8.25459 51.7957 6.01172 49.029 6.01172ZM49.029 14.0269C47.369 14.0269 46.0233 12.6812 46.0233 11.0212C46.0251 9.36193 47.3698 8.01726 49.029 8.01551C50.6891 8.01551 52.0347 9.36118 52.0347 11.0212C52.0347 12.6812 50.6889 14.0269 49.029 14.0269Z" fill="#3DE197"/>
<path d="M59.1398 42.3975L57.6878 42.0922C57.628 41.8407 57.5605 41.5892 57.4853 41.3398L58.5987 40.3418C58.9185 40.0556 59.0204 39.5976 58.8521 39.2029C58.3688 38.0812 57.7508 37.0227 57.0117 36.0504C56.753 35.7085 56.306 35.5682 55.8983 35.7011L54.4981 36.161C54.32 35.9721 54.1352 35.7873 53.9463 35.6092L54.4062 34.21C54.5401 33.8029 54.4 33.3557 54.0579 33.0975C53.0857 32.3573 52.0268 31.7385 50.9044 31.2552C50.5096 31.0886 50.0526 31.1903 49.7655 31.5085L48.7675 32.6229C48.518 32.5466 48.2666 32.4791 48.0151 32.4194L47.7098 30.9674C47.6121 30.5039 47.2032 30.172 46.7294 30.1719H43.3129C42.8392 30.172 42.4303 30.5038 42.3326 30.9674L42.0273 32.4194C41.7758 32.4791 41.5243 32.5466 41.2748 32.6219L40.2768 31.5084C39.9899 31.1901 39.5328 31.0884 39.1379 31.2551C38.0163 31.7383 36.9578 32.3564 35.9854 33.0954C35.6427 33.3535 35.5023 33.8011 35.6362 34.2089L36.096 35.609C35.9072 35.7871 35.7223 35.972 35.5442 36.1608L34.1451 35.701C33.7379 35.5691 33.2918 35.7087 33.0326 36.0493C32.2923 37.0215 31.6735 38.0804 31.1902 39.2027C31.0219 39.5975 31.1239 40.0555 31.4436 40.3416L32.5579 41.3397C32.4817 41.5891 32.4142 41.8406 32.3544 42.0921L30.9024 42.3974C30.4389 42.4951 30.1071 42.904 30.1069 43.3778V46.7944C30.1071 47.2681 30.4388 47.677 30.9024 47.7747L32.3544 48.08C32.4142 48.3315 32.4817 48.583 32.5569 48.8325L31.4435 49.8305C31.1237 50.1166 31.0218 50.5746 31.1901 50.9694C31.6734 52.091 32.2914 53.1495 33.0305 54.1219C33.2892 54.4638 33.7362 54.604 34.144 54.4711L35.5441 54.0113C35.7222 54.2001 35.907 54.385 36.0959 54.5631L35.636 55.9622C35.5021 56.3694 35.6422 56.8166 35.9843 57.0747C36.9565 57.815 38.0154 58.4338 39.1378 58.9171C39.5324 59.0863 39.991 58.9842 40.2767 58.6637L41.2747 57.5494C41.5242 57.6256 41.7756 57.6931 42.0271 57.7529L42.3325 59.2049C42.4301 59.6684 42.839 60.0002 43.3128 60.0004H46.7294C47.2032 60.0002 47.6121 59.6685 47.7098 59.2049L48.0151 57.7529C48.2666 57.6931 48.518 57.6256 48.7675 57.5504L49.7655 58.6638C50.0512 58.9843 50.5098 59.0863 50.9044 58.9172C52.0261 58.4339 53.0846 57.8159 54.0569 57.0768C54.3997 56.8187 54.5401 56.371 54.4062 55.9633L53.9463 54.5632C54.1352 54.3851 54.32 54.2003 54.4981 54.0114L55.8973 54.4713C56.3044 54.6041 56.751 54.4643 57.0097 54.123C57.75 53.1508 58.3688 52.0919 58.8521 50.9695C59.0204 50.5748 58.9185 50.1168 58.5987 49.8306L57.4844 48.8326C57.5606 48.5831 57.6282 48.3316 57.6879 48.0802L59.1399 47.7748C59.6034 47.6772 59.9353 47.2683 59.9354 46.7945V43.3779C59.9351 42.9042 59.6034 42.4952 59.1398 42.3975ZM57.9314 45.9814L56.635 46.2545C56.236 46.3384 55.9277 46.6556 55.8552 47.0567C55.747 47.651 55.5895 48.2351 55.3845 48.8033C55.2465 49.1873 55.3554 49.6165 55.6594 49.8883L56.7103 50.8296C56.4489 51.3516 56.1531 51.8557 55.8249 52.3384L54.5011 51.9029C54.1133 51.7763 53.6873 51.8965 53.4229 52.2072C53.032 52.6695 52.6033 53.0985 52.1413 53.4899C51.8308 53.7542 51.711 54.1798 51.8379 54.5672L52.2734 55.89C51.7907 56.2185 51.2868 56.5143 50.7647 56.7754L49.8225 55.7245C49.5496 55.4213 49.1207 55.3127 48.7364 55.4496C48.1691 55.655 47.5855 55.8124 46.9919 55.9203C46.5908 55.9928 46.2734 56.3011 46.1896 56.7001L45.9166 57.9966H44.1261L43.8531 56.7001C43.7692 56.3011 43.4519 55.9928 43.0508 55.9203C42.4566 55.8121 41.8725 55.6546 41.3043 55.4496H41.3044C40.9204 55.3139 40.4923 55.4223 40.2193 55.7245L39.278 56.7754C38.7561 56.514 38.252 56.2182 37.7693 55.89L38.2048 54.5662C38.332 54.1783 38.2116 53.752 37.9004 53.488C37.4382 53.097 37.0091 52.6684 36.6178 52.2064C36.3531 51.8965 35.928 51.7768 35.5405 51.903L34.2176 52.3385C33.8891 51.8558 33.5933 51.3519 33.3322 50.8298L34.383 49.8876C34.6872 49.6153 34.7959 49.1858 34.6579 48.8015C34.4525 48.2342 34.2951 47.6506 34.1873 47.057C34.1148 46.6558 33.8064 46.3385 33.4074 46.2547L32.111 45.9817V44.1912L33.4074 43.9182C33.8064 43.8343 34.1148 43.517 34.1873 43.1159C34.2955 42.5216 34.4529 41.9375 34.6579 41.3693C34.7959 40.9854 34.6871 40.5562 34.383 40.2843L33.3322 39.3431C33.5935 38.8211 33.8893 38.3171 34.2176 37.8344L35.5413 38.2698C35.9292 38.3965 36.3551 38.2762 36.6195 37.9655C37.0105 37.5033 37.4392 37.0742 37.9012 36.6828C38.2117 36.4186 38.3315 35.9929 38.2045 35.6055L37.7691 34.2828C38.2517 33.9543 38.7557 33.6585 39.2778 33.3974L40.22 34.4482C40.4926 34.7518 40.9218 34.8604 41.306 34.7231C41.8733 34.5177 42.4569 34.3603 43.0506 34.2525C43.4517 34.18 43.769 33.8716 43.8528 33.4726L44.1258 32.1762H45.9164L46.1894 33.4726C46.2733 33.8716 46.5905 34.18 46.9916 34.2525C47.5859 34.3607 48.17 34.5181 48.7381 34.7231C49.1221 34.8606 49.551 34.7519 49.8231 34.4482L50.7644 33.3974C51.2864 33.6587 51.7905 33.9545 52.2731 34.2828L51.8377 35.6065C51.7105 35.9944 51.8308 36.4207 52.142 36.6847C52.6043 37.0757 53.0333 37.5044 53.4247 37.9664C53.6898 38.2752 54.1145 38.3948 54.502 38.2697L55.8247 37.8343C56.1532 38.3169 56.449 38.8209 56.7102 39.343L55.6593 40.2852C55.3551 40.5574 55.2464 40.987 55.3844 41.3712C55.5898 41.9385 55.7472 42.5221 55.855 43.1158C55.9276 43.5169 56.2359 43.8343 56.6349 43.918L57.9314 44.1911V45.9814Z" fill="#3DE197"/>
<path d="M45.0215 36.0693C40.0415 36.0693 36.0044 40.1064 36.0044 45.0864C36.0044 50.0664 40.0415 54.1035 45.0215 54.1035C49.9993 54.0981 54.0332 50.0642 54.0385 45.0864C54.0385 40.1064 50.0014 36.0693 45.0215 36.0693ZM45.0215 52.0997C41.1501 52.0951 38.0128 48.9578 38.0082 45.0864C38.0082 41.2131 41.1481 38.0731 45.0215 38.0731C48.8948 38.0731 52.0347 41.2131 52.0347 45.0864C52.0347 48.9598 48.8948 52.0997 45.0215 52.0997Z" fill="#3DE197"/>
<path d="M36.0044 11.0215H27.9893V13.0253H36.0044V11.0215Z" fill="#3DE197"/>
<path d="M27.9083 43.6904C27.807 43.4534 27.6182 43.2647 27.3813 43.1634L20.368 40.1577C19.8599 39.9395 19.2712 40.1746 19.053 40.6827C18.9994 40.8077 18.9718 40.9423 18.9719 41.0783V43.0821H6.94911V27.0518H4.94531V44.084C4.94494 44.6371 5.39304 45.0855 5.94608 45.0859C5.94646 45.0859 5.94683 45.0859 5.94721 45.0859H18.9719V47.0897C18.9715 47.6426 19.4195 48.0912 19.9724 48.0916C19.9729 48.0916 19.9733 48.0916 19.9738 48.0916C20.1094 48.0919 20.2437 48.0643 20.368 48.0105L27.3813 45.0048C27.8898 44.7875 28.1257 44.1989 27.9083 43.6904ZM20.9757 45.5703V42.598L24.4432 44.0841L20.9757 45.5703Z" fill="#3DE197"/>
<path d="M48.2588 41.4385L43.9517 46.6074L41.7219 44.3777L40.3052 45.7944L43.3109 48.8C43.4985 48.9883 43.7535 49.0939 44.0192 49.0936C44.0339 49.0936 44.0495 49.0936 44.0642 49.0926C44.3456 49.08 44.6086 48.9497 44.7892 48.7335L49.7987 42.7222L48.2588 41.4385Z" fill="#3DE197"/>
</svg>
