<svg width="60" height="57" viewBox="0 0 60 57" fill="none" xmlns="http://www.w3.org/2000/svg">
<g clip-path="url(#clip0)">
<path d="M59 48.0472H58V12.0119C58 9.80061 56.2091 8.00798 54 8.00798H45V1.00111C45 0.448315 44.5524 0.000125123 44.0001 0C43.9384 0 43.8768 0.00575565 43.816 0.0171418L37.816 1.14325L36.816 1.33143L27.907 3.00307H22C20.8954 3.00307 20 3.89932 20 5.00503C18.0142 5.00766 16.2183 6.18619 15.424 8.00798H6C3.79087 8.00798 2 9.80061 2 12.0119V48.0472H1C0.44775 48.0472 0 48.4954 0 49.0482V52.0512C0 54.2625 1.79087 56.0551 4 56.0551H56C58.2091 56.0551 60 54.2625 60 52.0512V49.0482C60 48.4954 59.5522 48.0472 59 48.0472ZM29 4.83487L43 2.20729V17.8176L29 15.185V4.83487ZM29 17.217L31 17.5924V19.0188H29V17.217ZM22 5.00503H27V15.0148H22V5.00503ZM24 23.0227V17.0168H27V23.0227H24ZM27 25.0247V26.5261C27 27.3553 26.3284 28.0276 25.5 28.0276C24.6716 28.0276 24 27.3553 24 26.5261V25.0247H27ZM20 7.007V13.0129C18.3431 13.0129 17 11.6684 17 10.0099C17 8.35144 18.3431 7.007 20 7.007ZM4 12.0119C4 10.9062 4.89538 10.0099 6 10.0099H15C15.0033 12.7726 17.24 15.0116 20 15.0148C20 16.1206 20.8954 17.0168 22 17.0168V26.5261C22 28.461 23.567 30.0296 25.5 30.0296C27.433 30.0296 29 28.461 29 26.5261V21.0207H32C32.5522 21.0207 33 20.5725 33 20.0198V17.9727L43.816 20.0027C43.8768 20.0139 43.9383 20.0196 44 20.0198C44.5522 20.0198 45 19.5716 45 19.0188V10.0099H54C55.1046 10.0099 56 10.9062 56 12.0119V48.0472H39C38.735 48.047 38.4806 48.1522 38.293 48.3395L36.586 50.0492H23.414L21.707 48.3395C21.5194 48.1522 21.265 48.047 21 48.0472H4V12.0119ZM58 52.0512C58 53.1569 57.1046 54.0531 56 54.0531H4C2.89538 54.0531 2 53.1569 2 52.0512V50.0492H20.586L22.293 51.7579C22.4805 51.9456 22.7348 52.0512 23 52.0512H37C37.2653 52.0512 37.5195 51.9456 37.707 51.7579L39.414 50.0492H58V52.0512Z" fill="#3DE197"/>
<path d="M52 13.0132H48V15.0151H51V42.0416H9V15.0151H14V13.0132H8C7.44775 13.0132 7 13.4614 7 14.0142V43.0426C7 43.5954 7.44775 44.0436 8 44.0436H52C52.5523 44.0436 53 43.5954 53 43.0426V14.0142C53 13.4614 52.5523 13.0132 52 13.0132Z" fill="#3DE197"/>
<path d="M31 46.0454H29V48.0474H31V46.0454Z" fill="#3DE197"/>
<path d="M16 33.0322H14V35.0342H16V33.0322Z" fill="#3DE197"/>
<path d="M48 33.0322H18V35.0342H48V33.0322Z" fill="#3DE197"/>
<path d="M45 37.0361H12V39.0381H45V37.0361Z" fill="#3DE197"/>
</g>
<defs>
<clipPath id="clip0">
<rect width="60" height="56.0551" fill="white"/>
</clipPath>
</defs>
</svg>
