<svg width="266" height="159" viewBox="0 0 266 159" fill="none" xmlns="http://www.w3.org/2000/svg">
<path fill-rule="evenodd" clip-rule="evenodd" d="M201.156 83.8267L201.156 83.8264H240.774C245.744 83.8264 249.774 79.797 249.774 74.8265V69.5315C249.774 64.5609 245.744 60.5315 240.774 60.5315H200.737C194.635 26.6806 165.025 1 129.416 1C114.049 1 99.7984 5.78305 88.0727 13.9417H53.0014C48.0309 13.9417 44.0014 17.9711 44.0014 22.9416V28.2366C44.0014 33.2072 48.0309 37.2366 53.0014 37.2366H74.1525C79.6607 37.2538 84.1207 41.7243 84.1207 47.2366V53.1199C84.1207 58.6179 79.6837 63.0796 74.1951 63.1196H29.7065C24.736 63.1196 20.7065 67.149 20.7065 72.1196V77.4145C20.7065 82.3851 24.736 86.4145 29.7065 86.4145H58.0952C64.1971 120.266 93.8077 145.946 129.416 145.946C144.784 145.946 159.035 141.163 170.76 133.004H207.125C212.096 133.004 216.125 128.975 216.125 124.004V118.709C216.125 113.739 212.096 109.709 207.125 109.709H171.663C166.19 109.651 161.771 105.197 161.771 99.71V93.8267C161.771 88.3038 166.248 83.8267 171.771 83.8267H201.156ZM229.067 118.709C229.067 113.739 233.096 109.709 238.067 109.709H256.303C261.274 109.709 265.303 113.739 265.303 118.709V124.004C265.303 128.975 261.274 133.004 256.303 133.004H238.067C233.096 133.004 229.067 128.975 229.067 124.004V118.709ZM9 13.9417C4.02944 13.9417 0 17.9711 0 22.9416V28.2366C0 33.2072 4.02944 37.2366 9 37.2366H22.0599C27.0305 37.2366 31.0599 33.2072 31.0599 28.2366V22.9417C31.0599 17.9711 27.0305 13.9417 22.0599 13.9417H9Z" fill="#F3F7FF"/>
<ellipse cx="132" cy="157" rx="65" ry="2" fill="#E2EBF1"/>
<rect x="66" y="17" width="130" height="114" rx="4" fill="white" stroke="#85B6E6" stroke-width="2"/>
<path d="M65 32L197 32" stroke="#85B6E6" stroke-width="2"/>
<circle cx="75" cy="24" r="2" fill="#85B6E6"/>
<circle cx="82" cy="24" r="2" fill="#85B6E6"/>
<circle cx="89" cy="24" r="2" fill="#85B6E6"/>
<circle cx="114" cy="71" r="5" fill="#85B6E6"/>
<circle cx="149" cy="71" r="5" fill="#85B6E6"/>
<path d="M108 88.5003C108 88.5003 122 88.5002 130 88.5002C138 88.5002 154 88.5 154 88.5" stroke="#85B6E6" stroke-width="2" stroke-linecap="round"/>
<path d="M67 10L67 1" stroke="#ADD3F2" stroke-width="1.5" stroke-linecap="round"/>
<path d="M61.8257 12.7559L55.8257 6.75586" stroke="#ADD3F2" stroke-width="1.5" stroke-linecap="round"/>
<path d="M60 19L52 19" stroke="#ADD3F2" stroke-width="1.5" stroke-linecap="round"/>
<path d="M176 49.5385C176 50.8979 174.881 52 173.5 52C172.119 52 171 50.8979 171 49.5385C171 48.179 173.5 44 173.5 44C173.5 44 176 48.179 176 49.5385Z" fill="#ADD3F2"/>
<path d="M179 44.1538C179 45.1734 178.328 46 177.5 46C176.672 46 176 45.1734 176 44.1538C176 43.1342 177.5 40 177.5 40C177.5 40 179 43.1342 179 44.1538Z" fill="#ADD3F2"/>
</svg>
