<svg width="56" height="28" viewBox="0 0 56 28" fill="none" xmlns="http://www.w3.org/2000/svg">
<path d="M55.5807 11.0132L52.6951 4.65347C51.656 2.39214 49.3979 0.940186 46.9091 0.93335H5.53483C2.47917 0.93654 0.00319011 3.41252 0 6.46818V20.3C0.00227864 21.9744 1.35898 23.3311 3.03333 23.3333H7.56009C8.00169 25.5085 9.91393 27.0712 12.1333 27.0712C14.3527 27.0712 16.265 25.5085 16.7066 23.3333H39.2934C39.735 25.5085 41.6473 27.0712 43.8667 27.0712C46.0861 27.0712 47.9983 25.5085 48.4399 23.3333H53.4055C54.8379 23.332 55.9986 22.1712 56 20.7389V12.9455C56.0005 12.2787 55.8574 11.6197 55.5807 11.0132ZM53.5573 11.0742L44.8 10.3414V6.42124L51.0927 5.63465L53.5573 11.0742ZM12.1333 25.2C10.587 25.2 9.33333 23.9463 9.33333 22.4C9.33333 20.8537 10.587 19.6 12.1333 19.6C13.6796 19.6 14.9333 20.8537 14.9333 22.4C14.9333 23.9463 13.6796 25.2 12.1333 25.2ZM43.8667 25.2C42.3204 25.2 41.0667 23.9463 41.0667 22.4C41.0667 20.8537 42.3204 19.6 43.8667 19.6C45.413 19.6 46.6667 20.8537 46.6667 22.4C46.6667 23.9463 45.413 25.2 43.8667 25.2ZM53.4055 21.4667H48.4399C47.9983 19.2915 46.0861 17.7288 43.8667 17.7288C41.6473 17.7288 39.735 19.2915 39.2934 21.4667H16.7066C16.265 19.2915 14.3527 17.7288 12.1333 17.7288C9.91393 17.7288 8.00169 19.2915 7.56009 21.4667H3.03333C2.38939 21.4658 1.86758 20.944 1.86667 20.3V6.46818C1.86895 4.44292 3.50957 2.80229 5.53483 2.80002H46.9091C47.9947 2.80229 49.0424 3.19696 49.8595 3.91063L43.8088 4.66668H7.46667C6.95124 4.66668 6.53333 5.08459 6.53333 5.60002V11.2C6.53333 11.7154 6.95124 12.1333 7.46667 12.1333H43.8275L54.1333 12.9919V20.7389C54.1329 21.1404 53.807 21.4662 53.4055 21.4667ZM8.4 10.2667V6.53335H14.9333V10.2667H8.4ZM16.8 6.53335H24.2667V10.2667H16.8V6.53335ZM26.1333 6.53335H32.6667V10.2667H26.1333V6.53335ZM34.5333 6.53335H42.9333V10.2667H34.5333V6.53335Z" fill="white"/>
</svg>
