<svg width="56" height="47" viewBox="0 0 56 47" fill="none" xmlns="http://www.w3.org/2000/svg">
<path d="M23.6775 32.4231C22.2169 32.4231 20.939 33.7011 20.939 35.1616C20.939 36.6221 22.2169 37.9002 23.6775 37.9002C25.1381 37.9002 26.4161 36.6221 26.4161 35.1616C26.4161 33.7011 25.1381 32.4231 23.6775 32.4231ZM23.6775 36.0744C23.1298 36.0744 22.7646 35.7093 22.7646 35.1616C22.7646 34.6138 23.1298 34.2488 23.6775 34.2488C24.2252 34.2488 24.5904 34.6139 24.5904 35.1616C24.5904 35.7094 24.2252 36.0744 23.6775 36.0744Z" fill="white"/>
<path d="M33.9807 32.4231C32.5201 32.4231 31.2422 33.7011 31.2422 35.1616C31.2422 36.6221 32.5201 37.9002 33.9807 37.9002C35.4413 37.9002 36.7193 36.6221 36.7193 35.1616C36.7193 33.7011 35.4413 32.4231 33.9807 32.4231ZM33.9807 36.0744C33.433 36.0744 33.0679 35.7093 33.0679 35.1616C33.0679 34.6138 33.433 34.2488 33.9807 34.2488C34.5284 34.2488 34.8936 34.6139 34.8936 35.1616C34.8936 35.7094 34.5284 36.0744 33.9807 36.0744Z" fill="white"/>
<path d="M50.1667 0H5.8333C2.5667 0 0 2.5667 0 5.8333V41.1666C0 44.4333 2.5667 47 5.8333 47H50.1666C53.4333 47 56 44.4333 56 41.1667V5.8333C56 2.5667 53.4333 0 50.1667 0ZM53.6667 41.1667C53.6667 43.0333 52.0334 44.6667 50.1667 44.6667H5.8333C3.96659 44.6667 2.3333 43.0333 2.3333 41.1667V11.6667H53.6666L53.6667 41.1667ZM53.6667 9.3333H2.3333V5.8333C2.3333 3.9667 3.96659 2.3333 5.8333 2.3333H50.1666C52.0333 2.3333 53.6666 3.9667 53.6666 5.8333L53.6667 9.3333Z" fill="white"/>
<path d="M38.0051 20.1908C37.8226 20.0083 37.64 19.8257 37.2749 19.8257H18.2876L17.9224 18.7303C17.7399 18.3651 17.3747 18 17.0095 18H13.3582C12.8105 18 12.4453 18.3652 12.4453 18.9129C12.4453 19.4606 13.1756 19.6431 13.7233 19.6431H16.6444L19.5871 30.2697C19.7697 30.6349 20.1348 31 20.5 31H20.6825C21.2303 30.8175 21.4128 30.4523 21.4128 29.9046L21.2086 30.5972L35.6318 28.9541C35.9969 28.9541 36.362 28.5889 36.362 28.2239L38.1877 20.9211C38.1878 20.7385 38.1878 20.3734 38.0051 20.1908ZM34.9014 26.9459L20.8435 28.589L19.0178 21.2863L36.362 21.4688L34.9014 26.9459Z" fill="white"/>
<path d="M10.5002 7.00003C11.1446 7.00003 11.6669 6.47768 11.6669 5.83333C11.6669 5.18898 11.1446 4.66663 10.5002 4.66663C9.85585 4.66663 9.3335 5.18898 9.3335 5.83333C9.3335 6.47768 9.85585 7.00003 10.5002 7.00003Z" fill="white"/>
<path d="M5.83321 7.00003C6.47756 7.00003 6.99991 6.47768 6.99991 5.83333C6.99991 5.18898 6.47756 4.66663 5.83321 4.66663C5.18885 4.66663 4.6665 5.18898 4.6665 5.83333C4.6665 6.47768 5.18885 7.00003 5.83321 7.00003Z" fill="white"/>
<path d="M15.1667 7.00003C15.8111 7.00003 16.3334 6.47768 16.3334 5.83333C16.3334 5.18898 15.8111 4.66663 15.1667 4.66663C14.5224 4.66663 14 5.18898 14 5.83333C14 6.47768 14.5224 7.00003 15.1667 7.00003Z" fill="white"/>
</svg>
