<svg width="34" height="48" viewBox="0 0 34 48" fill="none" xmlns="http://www.w3.org/2000/svg">
<path d="M17.0003 22.8334C15.4532 22.8334 13.9695 22.2188 12.8755 21.1249C11.7816 20.0309 11.167 18.5472 11.167 17.0001C11.167 15.453 11.7816 13.9693 12.8755 12.8753C13.9695 11.7813 15.4532 11.1667 17.0003 11.1667C18.5474 11.1667 20.0312 11.7813 21.1251 12.8753C22.2191 13.9693 22.8337 15.453 22.8337 17.0001C22.8337 17.7661 22.6828 18.5247 22.3896 19.2324C22.0965 19.9401 21.6668 20.5832 21.1251 21.1249C20.5834 21.6665 19.9404 22.0962 19.2326 22.3894C18.5249 22.6825 17.7664 22.8334 17.0003 22.8334ZM17.0003 0.666748C12.6685 0.666748 8.51401 2.38758 5.45092 5.45067C2.38782 8.51376 0.666992 12.6682 0.666992 17.0001C0.666992 29.2501 17.0003 47.3334 17.0003 47.3334C17.0003 47.3334 33.3337 29.2501 33.3337 17.0001C33.3337 12.6682 31.6128 8.51376 28.5497 5.45067C25.4866 2.38758 21.3322 0.666748 17.0003 0.666748Z" fill="#F5BC33"/>
</svg>
