<svg width="24" height="14" viewBox="0 0 24 14" fill="none" xmlns="http://www.w3.org/2000/svg">
<path d="M22.4709 0.570923L1.52909 0.570923C0.685956 0.570923 0 1.25688 0 2.10001L0 11.9179C0 12.7611 0.685956 13.4471 1.52909 13.4471L22.4709 13.4471C23.314 13.4471 24 12.7611 24 11.9179V2.09996C24 1.25688 23.314 0.570923 22.4709 0.570923ZM19.513 12.2545L4.48824 12.2545C4.33027 10.4769 2.94813 9.0468 1.19253 8.81438L1.19253 5.04088C2.89419 4.81556 4.24475 3.465 4.47001 1.76334L19.5312 1.76334C19.7565 3.46466 21.1064 4.81499 22.8075 5.04077V8.81449C21.0525 9.04742 19.671 10.4773 19.513 12.2545ZM22.8075 2.09996V3.83347C21.765 3.62956 20.9419 2.80607 20.7384 1.76334L22.4709 1.76334C22.6565 1.7634 22.8075 1.91439 22.8075 2.09996ZM1.52909 1.7634L3.26278 1.7634C3.05926 2.80653 2.2356 3.63018 1.19247 3.83376L1.19247 2.09996C1.19253 1.91439 1.34352 1.7634 1.52909 1.7634ZM1.19253 11.9179L1.19253 10.0216C2.28926 10.2356 3.14319 11.1352 3.28895 12.2545H1.52909C1.34352 12.2545 1.19253 12.1035 1.19253 11.9179ZM22.4709 12.2545H20.7123C20.858 11.1356 21.7113 10.2361 22.8075 10.0218V11.9179C22.8075 12.1035 22.6565 12.2545 22.4709 12.2545Z" fill="white"/>
<path d="M12.0317 2.74341C9.67964 2.74341 7.76611 4.65687 7.76611 7.00888C7.76611 9.36095 9.67964 11.2745 12.0317 11.2745C14.3837 11.2745 16.2972 9.36095 16.2972 7.00888C16.2972 4.65693 14.3837 2.74341 12.0317 2.74341ZM12.0317 10.0821C10.3371 10.0821 8.95859 8.7035 8.95859 7.00894C8.95859 5.31449 10.3371 3.93594 12.0317 3.93594C13.7262 3.93594 15.1048 5.31449 15.1048 7.00894C15.1048 8.70345 13.7262 10.0821 12.0317 10.0821Z" fill="white"/>
<path d="M5.16752 5.17505C4.15619 5.17505 3.3335 5.99774 3.3335 7.00906C3.3335 8.02033 4.15619 8.84302 5.16752 8.84302C6.17879 8.84302 7.00148 8.02033 7.00148 7.00906C7.00148 5.99774 6.17879 5.17505 5.16752 5.17505ZM5.16752 7.6505C4.81381 7.6505 4.52597 7.36277 4.52597 7.00901C4.52597 6.65524 4.81375 6.36746 5.16752 6.36746C5.52128 6.36746 5.80901 6.65524 5.80901 7.00901C5.80901 7.36277 5.52128 7.6505 5.16752 7.6505Z" fill="white"/>
<path d="M18.8965 5.17505C17.8852 5.17505 17.0625 5.99774 17.0625 7.00906C17.0625 8.02033 17.8852 8.84302 18.8965 8.84302C19.9078 8.84302 20.7305 8.02033 20.7305 7.00906C20.7305 5.99774 19.9078 5.17505 18.8965 5.17505ZM18.8965 7.6505C18.5427 7.6505 18.255 7.36277 18.255 7.00901C18.255 6.65524 18.5427 6.36746 18.8965 6.36746C19.2502 6.36746 19.5381 6.65524 19.5381 7.00901C19.5381 7.36277 19.2503 7.6505 18.8965 7.6505Z" fill="white"/>
</svg>
