<svg width="157" height="95" viewBox="0 0 157 95" fill="none" xmlns="http://www.w3.org/2000/svg">
<g clip-path="url(#clip0)">
<path d="M154.491 72.8415L156.577 11.7118C156.577 6.57002 154.164 3.7543 152.16 2.28522C149.46 0.32646 145.206 5.53202e-08 144.184 0.0408076C121.729 0.856959 97.2693 6.16194 75.5503 11.2221C25.4046 22.9339 2.66309 22.1585 2.66309 22.1585L0.577087 83.2882C0.577087 88.43 2.9903 91.2457 4.9945 92.7148C7.69403 94.6735 11.9478 95 12.9704 94.9592C35.4255 94.143 59.8849 88.8381 81.6038 83.7779C131.75 72.0662 154.491 72.8415 154.491 72.8415Z" fill="#fff"/>
<path d="M144.388 3.83591C97.6374 6.28436 50.9274 22.9338 4.17645 23.7908C4.17645 23.7908 4.17645 76.5958 4.17645 83.329C4.17645 90.0623 9.61641 91.3273 12.5204 91.1641C59.2714 88.7564 105.981 72.107 152.732 71.25C152.732 71.25 152.732 18.445 152.732 11.7118C152.732 4.97852 147.292 3.71348 144.388 3.83591Z" fill="#FB1F14"/>
<path d="M97.1058 53.2538C96.8603 62.3539 90.0706 68.3118 82.1765 68.3118C77.5546 68.3118 74.2007 65.9041 74.2007 62.4355C74.2007 58.8852 77.5137 57.3346 79.8451 57.8651C79.3952 60.3951 80.6223 62.0274 83.1582 62.0274C87.3302 62.0274 89.4162 58.9261 89.4162 55.539V54.8453C88.3527 56.7633 86.3076 57.9467 83.6899 57.9467C79.8042 57.9467 77.7182 55.6206 77.7182 51.9888V44.725C77.7182 43.3376 76.9411 41.9501 75.6322 41.8685C76.6548 39.9505 78.8226 38.6855 81.0313 38.6855C83.4445 38.6855 85.2851 40.3178 85.2851 43.0927V48.969C85.2851 50.5197 85.6123 51.9072 87.1257 51.9072C89.1299 51.7439 89.3753 49.2955 89.3753 47.8264V40.073C89.3753 37.8285 90.6023 37.0532 92.4838 36.7675L97.0648 35.9922V53.2538H97.1058ZM126.432 39.5833V47.6224C126.432 49.8668 125.205 50.6421 123.324 50.9278L118.743 51.7031V29.1773C118.743 27.7899 117.966 26.4024 116.657 26.3208C117.679 24.4029 119.847 23.1378 122.056 23.1378C124.551 23.1378 126.392 24.7701 126.392 27.545V33.1765C127.496 31.2585 129.5 29.9935 132.2 29.9935C136.126 29.9935 138.253 32.3195 138.253 35.9514V43.0519C138.253 44.4394 139.03 45.8268 140.339 45.9084C139.317 47.8264 137.149 49.0914 134.94 49.0914C132.445 49.0914 130.604 47.4591 130.604 44.6842V38.9712C130.604 37.4205 130.277 36.033 128.764 36.033C126.964 36.1962 126.473 38.1142 126.432 39.5833ZM42.0108 37.6653L32.7261 58.0283V63.6597C32.7261 65.9041 31.499 66.6795 29.6175 66.9651L24.6684 67.8221V58.9261L17.9196 45.4187C17.4697 44.5618 16.6925 43.5008 15.67 43.5008C16.6925 41.5828 18.7785 40.3178 21.069 40.3178C23.4004 40.3178 24.9547 41.7869 25.6501 43.5008L28.6768 50.8462L32.6852 41.2156C33.2987 39.6649 34.444 38.8079 36.0801 38.6039L42.0108 37.6653ZM56.6946 56.9673C56.6946 58.3548 57.4718 59.7422 58.7806 59.8238C57.7581 61.7418 55.5903 63.0068 53.3816 63.0068C51.7455 63.0068 50.3548 62.3131 49.6595 61.0889C48.6369 63.0068 46.7964 64.6391 43.5651 64.6391C40.3339 64.6391 38.0024 62.9252 38.0024 59.8646C38.0024 53.9067 44.5877 52.8457 49.1278 52.6009C48.9642 51.4583 48.2688 50.6829 46.8782 50.6829C44.3422 50.6829 41.929 51.9072 40.5384 53.4578C39.7612 52.7641 39.3113 51.1318 39.3113 50.1524C39.3113 45.582 46.6737 44.2761 49.6595 44.2761C53.6679 44.2761 56.6946 46.0309 56.6946 49.9076V56.9673ZM113.712 41.7461C113.18 40.277 112.239 39.42 110.767 39.42C108.272 39.42 106.677 41.7461 106.677 44.6842C106.677 46.6022 107.904 47.908 109.867 47.908C112.28 47.908 114.53 46.6838 115.675 45.2147C116.125 45.6636 116.534 46.9286 116.534 47.704C116.534 50.9278 112.28 53.7435 107.495 53.7435C102.996 53.7435 99.069 50.887 99.069 46.0309C99.069 39.012 104.632 33.5846 111.217 33.5846C113.998 33.5846 116.861 34.8904 116.943 37.7469C116.902 39.9097 115.512 41.4604 113.712 41.7461ZM60.5803 47.7856C60.5803 46.3981 59.8032 45.0107 58.4943 44.9291C59.5169 43.0111 61.6847 41.7461 63.8934 41.7461C65.6931 41.7461 67.0837 42.603 67.7791 44.0721C68.4744 42.1541 70.0287 40.277 72.1147 40.277C73.7507 40.277 75.5913 41.3788 75.6731 44.1945C75.6731 46.3573 73.7507 48.4385 71.7465 48.8058C71.5011 47.7856 71.0512 47.1735 70.0287 47.1735C68.9652 47.1735 68.3108 48.1937 68.2699 49.6219V57.5794C68.2699 59.8238 67.0428 60.5992 65.1613 60.8848L60.5803 61.6602V47.7856ZM45.5693 57.8242C45.5693 58.5996 46.1828 59.1301 47.0418 59.1301C48.4324 59.1301 49.2096 57.9875 49.2096 56.4368V55.2942C47.4917 55.4166 45.5693 56.2736 45.5693 57.8242Z" fill="#fff"/>
</g>
<defs>
<clipPath id="clip0">
<rect width="156" height="95" fill="white" transform="translate(0.577087)"/>
</clipPath>
</defs>
</svg>
