<svg width="40" height="56" viewBox="0 0 40 56" fill="none" xmlns="http://www.w3.org/2000/svg">
<path d="M35.9361 0.00292969C35.8962 0.00292969 35.8595 0.00358594 35.8205 0.00380469C33.909 0.0656016 32.378 1.63273 32.378 3.55926V9.74354L39.378 9.72877V3.55926C39.3779 1.63295 37.8474 0.0650547 35.9361 0.00292969Z" fill="white"/>
<path d="M0.622131 3.55928V56L5.34374 55.9988H8.47307C8.47307 55.9988 8.78905 49.8738 14.75 49.8738C20.7109 49.8738 20.699 55.9988 20.699 55.9988L24.375 56L29.0968 55.9988V3.55928C29.0968 2.28594 29.4463 1.06258 30.0962 0H4.18141C2.21562 0 0.622131 1.59359 0.622131 3.55928ZM21.1474 20.9906H11.9694V24.828H21.0306V35.2279H16.5V38.0957H13.2187V35.2279H8.57129V31.9467H17.7494V28.1093H8.6881V17.7093H13.2187V14.8414H16.5V17.7093H21.1474V20.9906Z" fill="white"/>
</svg>
