<svg width="48" height="32" viewBox="0 0 48 32" fill="none" xmlns="http://www.w3.org/2000/svg">
<path d="M36.2357 22.5387C36.3489 22.6263 36.5467 22.6699 36.8285 22.6699C36.9782 22.6699 37.1078 22.6405 37.2168 22.5823C37.3257 22.5241 37.4145 22.4512 37.4827 22.3641C37.5509 22.277 37.6017 22.1818 37.6358 22.0786C37.6699 21.9754 37.6867 21.8817 37.6867 21.7965C37.6867 21.6441 37.6344 21.5177 37.5302 21.4168C37.4256 21.316 37.2417 21.2658 36.9782 21.2658C36.8193 21.2658 36.6821 21.2952 36.5659 21.3529C36.4502 21.4112 36.3537 21.485 36.2765 21.5745C36.1992 21.6639 36.1411 21.7638 36.1027 21.8732C36.0638 21.983 36.0446 22.0895 36.0446 22.1922C36.0585 22.3361 36.1224 22.4512 36.2357 22.5387Z" fill="#090909"/>
<path d="M47.844 25.8135C47.7576 25.7288 47.6577 25.6857 47.5445 25.6857C47.5171 25.6857 47.4091 25.724 47.2209 25.7998C47.0323 25.876 46.8077 25.9754 46.5465 26.0985C46.2854 26.2216 46.0128 26.3607 45.7291 26.515C45.4454 26.6694 45.1944 26.8275 44.9765 26.9889L46.5024 23.8514C46.5249 23.7979 46.5365 23.7397 46.5365 23.6767C46.5365 23.6005 46.5158 23.5281 46.475 23.4585C46.4342 23.3889 46.3661 23.3543 46.2705 23.3543C46.2163 23.3543 46.1625 23.3567 46.1107 23.361C46.0584 23.3652 46.0008 23.3799 45.9369 23.4045C45.8736 23.4291 45.7973 23.4675 45.7089 23.5186C45.6201 23.5702 45.5126 23.645 45.3854 23.7434L42.5721 26.471C42.504 26.534 42.4315 26.5898 42.3542 26.6391C42.2769 26.6883 42.2136 26.7129 42.1637 26.7129C42.1089 26.7129 42.0821 26.6793 42.0821 26.6121C42.0821 26.5359 42.1138 26.4332 42.1776 26.303L43.4241 23.7434C43.4424 23.7032 43.4515 23.6559 43.4515 23.6024C43.4515 23.4949 43.4025 23.4088 43.3051 23.3439C43.2072 23.2791 43.0881 23.2464 42.9475 23.2464C42.8112 23.2464 42.6705 23.2857 42.5251 23.3638C42.3797 23.4424 42.2616 23.5688 42.1709 23.7434C42.0389 24.0706 41.9198 24.356 41.8133 24.5998C41.7067 24.844 41.6088 25.059 41.5205 25.245C41.4888 25.3113 41.459 25.3723 41.4293 25.4339C41.351 25.4978 41.2685 25.5645 41.1797 25.6346C41.0184 25.7624 40.8494 25.8897 40.6723 26.0175C40.4952 26.1453 40.3166 26.2684 40.1376 26.3872C39.9581 26.5061 39.7857 26.6111 39.6197 26.703C39.4541 26.7948 39.2995 26.8687 39.1565 26.9245C39.0134 26.9809 38.8939 27.0083 38.7989 27.0083C38.7216 27.0083 38.6693 26.9884 38.6424 26.9477C38.615 26.9075 38.6016 26.8535 38.6016 26.7863C38.6016 26.6788 38.6256 26.5567 38.6731 26.4204C38.7206 26.2836 38.7696 26.1643 38.8195 26.0611C38.9328 25.8192 39.0681 25.5337 39.2251 25.2043C39.3816 24.8753 39.5496 24.5269 39.7291 24.1595C39.9086 23.7922 40.0925 23.4149 40.2811 23.0277C40.4697 22.6405 40.6536 22.2675 40.8326 21.9091C41.0121 21.5508 41.1801 21.2194 41.3366 20.915C41.4931 20.6107 41.6285 20.3532 41.7422 20.1425C41.8013 20.0393 41.8502 19.9432 41.8886 19.8537C41.927 19.7643 41.9467 19.6791 41.9467 19.5986C41.9467 19.4282 41.8886 19.3051 41.7729 19.2289C41.6573 19.1527 41.5286 19.1148 41.388 19.1148C41.2473 19.1148 41.1077 19.1508 40.9689 19.2223C40.8302 19.2942 40.7203 19.4173 40.6387 19.592L38.5747 23.9252C38.4384 24.2121 38.2886 24.5278 38.1249 24.8724C38.0011 25.1342 37.8792 25.3984 37.7577 25.663C37.7275 25.6947 37.6987 25.7255 37.6651 25.7595C37.5629 25.8627 37.4515 25.9702 37.3315 26.0819C37.211 26.1941 37.0829 26.3049 36.9465 26.4147C36.8102 26.5245 36.6715 26.622 36.5309 26.7068C36.3902 26.792 36.2505 26.8611 36.1118 26.9151C35.9731 26.969 35.8406 26.9955 35.7134 26.9955C35.5997 26.9955 35.5123 26.9766 35.4513 26.9382C35.3899 26.9004 35.3592 26.8204 35.3592 26.6997C35.3592 26.588 35.3808 26.4644 35.424 26.33C35.4672 26.1955 35.5195 26.0592 35.5805 25.92C35.6419 25.7813 35.7067 25.6459 35.7749 25.5134C35.843 25.3813 35.9045 25.2592 35.9587 25.147C36.0043 25.0528 36.0427 24.9723 36.0744 24.9051C36.1061 24.8379 36.1392 24.7697 36.1733 24.7001C36.2073 24.631 36.2448 24.5558 36.2856 24.4753C36.3264 24.3948 36.3787 24.2963 36.4421 24.1799C36.4646 24.1397 36.4795 24.0994 36.4862 24.0592C36.4929 24.019 36.4987 23.9787 36.503 23.938C36.503 23.7676 36.4406 23.6279 36.3158 23.5181C36.191 23.4083 36.0422 23.3534 35.8699 23.3534C35.7653 23.3534 35.663 23.3804 35.5632 23.4339C35.4634 23.4874 35.3745 23.5773 35.2977 23.7027C35.2161 23.8684 35.1389 24.0251 35.0659 24.1728C35.0021 24.2982 34.9421 24.4213 34.8854 24.5425C34.8288 24.6637 34.7889 24.7532 34.7664 24.8114C34.7025 24.9681 34.6257 25.1328 34.5345 25.3051C34.4438 25.4774 34.3574 25.6568 34.2758 25.8424C34.2585 25.8817 34.2437 25.9224 34.2273 25.9622C34.0579 26.1179 33.8784 26.2689 33.6864 26.4133C33.4752 26.5723 33.2582 26.7077 33.036 26.8194C32.8133 26.9316 32.6069 26.9875 32.4163 26.9875C32.3165 26.9875 32.2358 26.9742 32.1744 26.9472C32.1129 26.9203 32.0822 26.8578 32.0822 26.7593C32.0822 26.6519 32.1139 26.5364 32.1777 26.4133C32.2411 26.2902 32.3165 26.1704 32.4024 26.054C32.4883 25.9375 32.5771 25.8277 32.6678 25.725C32.7585 25.6218 32.8315 25.5371 32.8857 25.4698C33.0537 25.2682 33.2001 25.0466 33.3249 24.8048C33.4497 24.5629 33.5121 24.3077 33.5121 24.0388C33.5121 23.8684 33.4814 23.7255 33.42 23.609C33.3585 23.4926 33.2745 23.3974 33.168 23.3236C33.0614 23.2497 32.9395 23.1972 32.8037 23.1659C32.6673 23.1347 32.5243 23.1191 32.3745 23.1191C32.1701 23.1191 31.9838 23.1437 31.8158 23.1929C31.6478 23.2421 31.4923 23.307 31.3493 23.3875C31.2062 23.4679 31.0733 23.5588 30.9509 23.6597C30.828 23.7605 30.7147 23.8623 30.6101 23.9655C30.601 23.813 30.5678 23.6833 30.5112 23.5759C30.4545 23.4684 30.3816 23.3808 30.2933 23.3136C30.2045 23.2464 30.1037 23.1972 29.9899 23.1659C29.8761 23.1347 29.7561 23.1191 29.6289 23.1191C29.3745 23.1191 29.1451 23.155 28.9411 23.2265C28.7366 23.298 28.5518 23.3889 28.3857 23.4987C28.2197 23.6085 28.0665 23.7283 27.9259 23.858C27.7853 23.9877 27.6533 24.1089 27.5309 24.2206C27.5856 24.0819 27.6125 23.9541 27.6125 23.8377C27.6125 23.681 27.5683 23.5612 27.4795 23.4784C27.3912 23.3955 27.2899 23.3539 27.1766 23.3539C27.0446 23.3539 26.9121 23.4007 26.7782 23.4949C26.6443 23.5891 26.5363 23.7326 26.4547 23.9248C26.3865 24.0814 26.3016 24.2708 26.1993 24.4923C26.0971 24.7139 25.9881 24.9506 25.8725 25.201C25.8393 25.2724 25.8057 25.3453 25.7726 25.4168C25.487 25.7032 25.2168 25.9584 24.9629 26.1818C24.8539 26.276 24.7416 26.3688 24.6254 26.4606C24.5097 26.5524 24.3974 26.6343 24.2885 26.7058C24.1795 26.7778 24.0782 26.8346 23.9851 26.8772C23.892 26.9198 23.8113 26.9411 23.7432 26.9411C23.6342 26.9411 23.5569 26.8975 23.5113 26.81C23.4657 26.7224 23.4432 26.6116 23.4432 26.4772C23.4432 26.3745 23.459 26.25 23.4907 26.1042C23.5224 25.9588 23.5632 25.8031 23.6136 25.6374C23.6635 25.4717 23.7192 25.3027 23.7806 25.13C23.8421 24.9577 23.9021 24.792 23.9611 24.6329C24.0201 24.4739 24.0734 24.3295 24.1209 24.1998C24.1685 24.0701 24.2035 23.9626 24.2265 23.8774C24.2309 23.8594 24.2333 23.8348 24.2333 23.8036C24.2333 23.6919 24.179 23.5887 24.0696 23.4945C23.9606 23.4003 23.82 23.3534 23.6472 23.3534C23.5925 23.3534 23.5281 23.3657 23.4533 23.3903C23.3784 23.4149 23.3069 23.4429 23.2387 23.4741C23.1571 23.5101 23.0774 23.5479 23.0001 23.5882C22.9094 23.5034 22.8048 23.4249 22.6867 23.3529C22.5821 23.2947 22.4553 23.2412 22.3051 23.192C22.1553 23.1427 21.9801 23.1181 21.7805 23.1181C21.3945 23.1181 21.0446 23.1844 20.7312 23.3165C20.6347 23.3572 20.5425 23.4031 20.4523 23.4514C20.4134 23.4306 20.3702 23.4126 20.3189 23.4003C20.2257 23.378 20.1177 23.3643 19.9953 23.36C19.8725 23.3558 19.7409 23.3534 19.6003 23.3534H18.0129C18.1262 23.0845 18.2717 22.8218 18.4488 22.5638C18.6259 22.3063 18.8107 22.0767 19.0041 21.875C19.1971 21.6734 19.3877 21.5124 19.5763 21.3913C19.7649 21.2701 19.9291 21.21 20.0702 21.21C20.1883 21.21 20.2824 21.2502 20.3529 21.3311C20.4235 21.4116 20.4585 21.5461 20.4585 21.7345C20.4585 21.7837 20.4552 21.8329 20.4485 21.8821C20.4417 21.9314 20.4384 21.9853 20.4384 22.0436C20.4384 22.133 20.4768 22.1993 20.5541 22.2419C20.6313 22.2845 20.7153 22.3058 20.8061 22.3058C20.8425 22.3058 20.8853 22.3001 20.9357 22.2892C20.9856 22.2779 21.0355 22.259 21.0854 22.232C21.1353 22.205 21.1809 22.1704 21.2217 22.1278C21.2625 22.0852 21.2899 22.0327 21.3033 21.9702C21.3581 21.7373 21.3849 21.5248 21.3849 21.3321C21.3849 21.1304 21.3576 20.9548 21.3033 20.8047C21.2491 20.6547 21.1771 20.5307 21.0888 20.4317C21 20.3333 20.8982 20.2594 20.7821 20.2102C20.6664 20.161 20.5445 20.1363 20.4177 20.1363C20.1451 20.1363 19.86 20.1832 19.5629 20.2774C19.2653 20.3716 18.96 20.5397 18.6465 20.7811C18.3331 21.023 18.0139 21.352 17.6894 21.7685C17.3645 22.1851 17.0409 22.7134 16.7189 23.3539H15.9149C15.6969 23.3539 15.5309 23.404 15.4176 23.5049C15.3038 23.6057 15.2472 23.7098 15.2472 23.8173C15.2472 23.9205 15.2928 24.01 15.3835 24.0862C15.4742 24.1624 15.6446 24.2003 15.8942 24.2003H16.2552L13.8504 29.2256C13.8005 29.3283 13.7616 29.4192 13.7347 29.4978C13.7073 29.5764 13.6939 29.6445 13.6939 29.7027C13.6939 29.8192 13.7371 29.9044 13.8235 29.9579C13.9099 30.0114 14.0073 30.0384 14.1163 30.0384C14.1936 30.0384 14.2776 30.0218 14.3683 29.9882C14.459 29.9546 14.5478 29.9063 14.6342 29.8438C14.7206 29.7813 14.7998 29.7061 14.8728 29.619C14.9453 29.5314 15.0067 29.4362 15.0566 29.3335C15.1291 29.1901 15.2246 28.9965 15.3427 28.7522C15.4608 28.508 15.5923 28.2348 15.7377 27.9328C15.8832 27.6303 16.0363 27.3103 16.1976 26.9723C16.3589 26.6343 16.5201 26.2997 16.6814 25.9678C16.8427 25.6365 16.9973 25.3193 17.1446 25.0173C17.292 24.7148 17.4249 24.4497 17.543 24.2211C17.7427 24.2211 17.9405 24.2211 18.1358 24.2211C18.3312 24.2211 18.5285 24.2201 18.7286 24.2178C18.9283 24.2154 19.1342 24.2121 19.3449 24.2078C19.404 24.2064 19.4659 24.205 19.5269 24.2031C19.4299 24.3153 19.3392 24.4327 19.2561 24.5572C19.0766 24.8261 18.9293 25.0978 18.8136 25.3733C18.6979 25.6488 18.6115 25.9139 18.5549 26.1695C18.4982 26.4246 18.4699 26.6443 18.4699 26.8279C18.4699 27.0741 18.5174 27.2824 18.6129 27.4528C18.7085 27.6232 18.8265 27.7619 18.9672 27.8694C19.1078 27.9768 19.2566 28.054 19.4136 28.1013C19.5701 28.1482 19.7073 28.1719 19.8259 28.1719C20.0577 28.1719 20.2857 28.1193 20.5104 28.0142C20.735 27.9091 20.951 27.7747 21.1574 27.6109C21.3638 27.4476 21.5568 27.2663 21.7363 27.0665C21.9158 26.8672 22.0757 26.6736 22.2163 26.4852C22.1846 26.5657 22.1621 26.6523 22.1481 26.7442C22.1347 26.836 22.128 26.9288 22.128 27.023C22.128 27.1664 22.1462 27.3061 22.1822 27.4429C22.2187 27.5797 22.2744 27.7013 22.3493 27.8088C22.4241 27.9162 22.5182 28.0038 22.632 28.071C22.7453 28.1382 22.8816 28.1719 23.0405 28.1719C23.2176 28.1719 23.4062 28.1302 23.6059 28.0474C23.8056 27.9645 24.0086 27.858 24.2155 27.7283C24.4219 27.5986 24.624 27.4537 24.8217 27.2952C24.8937 27.2374 24.9624 27.1797 25.0315 27.1224C25.0113 27.1764 24.9926 27.2294 24.9753 27.2786C24.9163 27.449 24.8865 27.574 24.8865 27.6549C24.8865 27.7984 24.9341 27.9214 25.0296 28.0246C25.1251 28.1274 25.2542 28.179 25.4179 28.179C25.5677 28.179 25.6925 28.1288 25.7928 28.028C25.8926 27.9271 25.9824 27.8031 26.0621 27.6549C26.1417 27.5072 26.2152 27.3458 26.2833 27.1711C26.3515 26.9965 26.4264 26.8351 26.508 26.6874C26.5987 26.5439 26.6985 26.3849 26.8075 26.2102C26.9165 26.0355 27.0331 25.8599 27.1584 25.6829C27.2832 25.5058 27.4171 25.3345 27.5601 25.1688C27.7032 25.0031 27.8539 24.8564 28.0133 24.7285C28.1721 24.6007 28.3377 24.498 28.5105 24.4194C28.6833 24.3408 28.8624 24.302 29.0486 24.302C29.1259 24.302 29.1849 24.3257 29.2257 24.3726C29.2665 24.4194 29.2872 24.4791 29.2872 24.5506C29.2872 24.6178 29.2737 24.684 29.2464 24.7489C29.219 24.8137 29.1825 24.8824 29.1374 24.9539C28.9785 25.209 28.8105 25.459 28.6334 25.7027C28.4563 25.947 28.2926 26.1875 28.1429 26.4251C27.9931 26.6627 27.8693 26.8933 27.7718 27.1172C27.6739 27.3411 27.6254 27.5607 27.6254 27.7756C27.6298 27.8339 27.6494 27.8878 27.6835 27.9371C27.7176 27.9863 27.7608 28.0289 27.8131 28.0649C27.8654 28.1008 27.923 28.1288 27.9869 28.1487C28.0502 28.1685 28.1093 28.179 28.164 28.179C28.3137 28.179 28.4385 28.1288 28.5389 28.028C28.6387 27.9271 28.7285 27.8031 28.8081 27.6549C28.8873 27.5072 28.9613 27.3458 29.0294 27.1711C29.0976 26.9965 29.1725 26.8351 29.2541 26.6874C29.3448 26.5439 29.4446 26.3849 29.5536 26.2102C29.6625 26.0355 29.7797 25.8599 29.9045 25.6829C30.0293 25.5058 30.1632 25.3345 30.3062 25.1688C30.4493 25.0031 30.6 24.8564 30.7593 24.7285C30.9182 24.6007 31.0838 24.498 31.2566 24.4194C31.4289 24.3408 31.6085 24.302 31.7947 24.302C31.872 24.302 31.931 24.3257 31.9718 24.3726C32.0126 24.4194 32.0333 24.4791 32.0333 24.5506C32.0333 24.6178 32.0198 24.684 31.9925 24.7489C31.9651 24.8137 31.9291 24.8824 31.8835 24.9539C31.7789 25.1243 31.6565 25.2942 31.5158 25.4646C31.3752 25.635 31.2408 25.8107 31.1141 25.992C30.9869 26.1733 30.8803 26.3626 30.7939 26.5595C30.7075 26.7565 30.6643 26.9671 30.6643 27.191C30.6643 27.5314 30.7675 27.7799 30.9744 27.9366C31.1808 28.0933 31.4525 28.1719 31.7885 28.1719C32.0472 28.1719 32.3073 28.1226 32.5685 28.0242C32.8296 27.9257 33.0907 27.7946 33.3518 27.6313C33.5635 27.4987 33.7733 27.3458 33.9816 27.1811C34.007 27.4954 34.1097 27.7335 34.2917 27.8935C34.5029 28.0795 34.7923 28.1723 35.1605 28.1723C35.4192 28.1723 35.676 28.1231 35.9304 28.0246C36.1848 27.9262 36.4377 27.795 36.6897 27.6317C36.9005 27.4954 37.1059 27.3373 37.3085 27.1664C37.308 27.1858 37.3061 27.2057 37.3061 27.2251C37.3061 27.3548 37.3219 27.4784 37.3536 27.5948C37.3853 27.7113 37.4385 27.8121 37.5134 27.8973C37.5883 27.9825 37.6881 28.0493 37.813 28.099C37.9377 28.1482 38.0933 28.1728 38.2795 28.1728C38.5521 28.1728 38.8325 28.1188 39.1209 28.0114C39.4094 27.9039 39.6998 27.7595 39.9926 27.5782C40.1952 27.4528 40.3982 27.3132 40.6017 27.1607C40.5389 27.3648 40.5067 27.5522 40.5067 27.7226C40.5067 27.8836 40.5609 27.9991 40.6699 28.0687C40.7789 28.1382 40.9104 28.1728 41.0649 28.1728C41.5464 28.1728 42.0638 27.9622 42.6182 27.5413C43.1721 27.1205 43.7899 26.5113 44.471 25.7141L43.1088 28.4351C42.8093 28.8066 42.5606 29.1304 42.3629 29.4059C42.1651 29.6814 42.0062 29.9309 41.8862 30.1548C41.7657 30.3787 41.6817 30.5837 41.6342 30.7697C41.5867 30.9553 41.5627 31.1427 41.5627 31.3307C41.5627 31.5323 41.6194 31.6923 41.7331 31.8111C41.8464 31.9295 41.9942 31.9891 42.1757 31.9891C42.6163 31.9891 43.0205 31.6128 43.3881 30.8606C43.3925 30.8516 43.4222 30.7887 43.4769 30.6727C43.5312 30.5562 43.6008 30.4038 43.6848 30.2159C43.7688 30.028 43.8619 29.8107 43.9641 29.564C44.0664 29.3179 44.1696 29.0604 44.2742 28.7915C44.4149 28.6613 44.5454 28.5487 44.6659 28.4521C44.7864 28.3555 44.9088 28.2651 45.0336 28.1799C45.1584 28.0947 45.2913 28.0119 45.432 27.9314C45.5726 27.8509 45.7339 27.761 45.9158 27.6625C46.0973 27.564 46.3065 27.4533 46.5427 27.3297C46.7789 27.2066 47.0558 27.0575 47.3741 26.8829C47.5963 26.7622 47.7523 26.6367 47.8406 26.5065C47.9294 26.3768 47.9736 26.2537 47.9736 26.1368C47.9731 26.0062 47.9299 25.8987 47.844 25.8135ZM22.1894 25.1688C22.1213 25.2942 22.0329 25.4353 21.9235 25.592C21.8145 25.7487 21.6917 25.9087 21.5558 26.0724C21.4195 26.2358 21.2798 26.3858 21.1368 26.5226C20.9937 26.6594 20.855 26.7711 20.7211 26.8587C20.5872 26.9463 20.4701 26.9898 20.3702 26.9898C20.243 26.9898 20.1422 26.9629 20.0669 26.9094C19.992 26.8559 19.9339 26.7882 19.8931 26.7077C19.8523 26.6272 19.8259 26.5387 19.8149 26.4426C19.8033 26.3465 19.7981 26.2533 19.7981 26.1638C19.7981 25.9442 19.8432 25.7259 19.9344 25.5087C20.0251 25.2914 20.148 25.0954 20.3021 24.9207C20.4561 24.7461 20.6337 24.605 20.8334 24.4975C21.0331 24.3901 21.24 24.3361 21.4536 24.3361C21.5261 24.3361 21.6115 24.3484 21.7089 24.373C21.8064 24.3977 21.8985 24.4346 21.9849 24.4838C22.0709 24.533 22.1438 24.5922 22.2029 24.6618C22.2619 24.7314 22.2917 24.8085 22.2917 24.8937C22.2912 24.9515 22.2571 25.0433 22.1894 25.1688Z" fill="#090909"/>
<path d="M25.643 10.2618C25.0896 10.2618 24.5592 10.3621 24.0696 10.5439L23.099 8.58178C23.4715 8.61586 23.844 8.65042 24.2165 8.68261C24.4766 8.70485 24.7382 8.7413 24.9984 8.73657C25.3349 8.73042 25.5763 8.5529 25.6569 8.29444C25.691 8.18793 25.6958 8.06817 25.6704 7.94036C25.6085 7.63598 25.3536 7.45136 24.9144 7.4116C24.0801 7.33539 23.2459 7.26154 22.4102 7.20048C22.2374 7.18817 22.1251 7.14083 22.0358 7.01681C21.6451 6.08237 21.2395 5.15408 20.8301 4.22769C20.5233 3.53657 19.9157 3.20616 19.2806 3.3084C19.0449 3.34675 18.8064 3.44521 18.5769 3.60663C18.0235 3.99716 17.4701 4.38769 16.9176 4.77965C16.5758 5.02201 16.2336 5.26438 15.8918 5.50722L19.9421 6.25089C19.9473 6.24663 19.9536 6.24284 19.9584 6.23858C19.9613 6.24379 19.9646 6.24994 19.9665 6.25468C20.0078 6.33184 20.0477 6.40805 20.088 6.48379C20.3093 6.89988 20.5233 7.30036 20.7312 7.7032C20.7619 7.7619 20.7917 7.81965 20.8219 7.87882C21.0091 8.24521 21.2909 8.43693 21.7128 8.46627C21.8347 8.47479 21.9566 8.48521 22.0785 8.49468L22.3406 9.02438H18.7464C18.3806 8.75314 18.0158 8.47953 17.6515 8.20639C17.6054 8.17184 17.5608 8.13349 17.5137 8.09184C17.4859 8.06627 17.4552 8.04024 17.423 8.01278C17.8675 7.70225 18.3038 7.39692 18.7397 7.0916C18.7406 7.09065 18.7406 7.09065 18.7406 7.09065C18.9648 6.93349 19.1904 6.77633 19.4155 6.6187L15.3705 5.87598C15.0926 6.0729 14.8161 6.26982 14.5382 6.46533C14.2584 6.6632 14.0539 6.91361 13.9579 7.24355C13.9137 7.39266 13.8931 7.53894 13.896 7.68C13.9013 8.13775 14.147 8.55053 14.6169 8.91361C14.9942 9.20521 15.3701 9.4987 15.7454 9.79219C15.7641 9.84474 15.8117 9.88308 15.8697 9.88923C15.9249 9.93231 15.9806 9.97586 16.0358 10.0189L15.311 10.943C14.6198 10.5122 13.8019 10.2618 12.9254 10.2618C10.4544 10.2618 8.44366 12.2443 8.44366 14.6817C8.44366 17.1186 10.4539 19.1015 12.9254 19.1015C15.2486 19.1015 17.1638 17.3491 17.3856 15.1143H17.6803C17.6745 15.2024 17.6683 15.2909 17.6645 15.3789C17.6457 15.7785 17.8795 16.1297 18.2232 16.2869C18.2467 16.2982 18.2707 16.3072 18.2952 16.3162C18.6965 16.4634 19.1592 16.3607 19.4102 16.0066C19.5417 15.8211 19.6209 15.5716 19.644 15.343C19.6661 15.1228 19.6877 14.9032 19.7088 14.6831L19.7131 14.6774L23.0395 10.4365L23.2819 10.9269C22.0104 11.7075 21.1617 13.0982 21.1617 14.6812C21.1617 17.1181 23.172 19.1011 25.6435 19.1011C28.1145 19.1011 30.1253 17.1186 30.1253 14.6812C30.1248 12.2443 28.1145 10.2618 25.643 10.2618ZM19.8749 9.89065H22.3569L19.8561 13.0788C19.9248 12.3209 19.9944 11.5631 20.0745 10.8057C20.1139 10.4379 20.0457 10.1392 19.8749 9.89065ZM15.0139 12.7375C15.4051 13.146 15.6749 13.6677 15.7656 14.2476H13.8288L15.0139 12.7375ZM12.5861 14.4166C12.5837 14.4194 12.5817 14.4227 12.5798 14.4256C12.5745 14.4327 12.5697 14.4393 12.5649 14.4469C12.5611 14.4525 12.5577 14.4582 12.5544 14.4639C12.5505 14.4705 12.5467 14.4767 12.5433 14.4833C12.54 14.4895 12.5371 14.4961 12.5342 14.5022C12.5313 14.5089 12.5285 14.515 12.5256 14.5217C12.5227 14.5283 12.5203 14.5349 12.5179 14.5415C12.5155 14.5482 12.5136 14.5548 12.5112 14.5619C12.5093 14.569 12.5073 14.5756 12.5059 14.5827C12.5045 14.5894 12.503 14.5965 12.5016 14.6031C12.5001 14.6107 12.4992 14.6178 12.4982 14.6253C12.4973 14.632 12.4963 14.6386 12.4958 14.6447C12.4953 14.6528 12.4949 14.6608 12.4944 14.6694C12.4944 14.6736 12.4939 14.6774 12.4939 14.6817C12.4939 14.6836 12.4944 14.6859 12.4944 14.6878C12.4944 14.6963 12.4949 14.7044 12.4958 14.7129C12.4963 14.7191 12.4968 14.7252 12.4973 14.7314C12.4982 14.7389 12.4997 14.7465 12.5006 14.7546C12.5016 14.7612 12.5025 14.7673 12.504 14.774C12.5054 14.7811 12.5078 14.7882 12.5097 14.7957C12.5117 14.8019 12.5131 14.8085 12.515 14.8147C12.5174 14.8222 12.5208 14.8298 12.5237 14.8374C12.5256 14.8426 12.5275 14.8483 12.5299 14.8535C12.5337 14.8625 12.5381 14.871 12.5429 14.8795C12.5448 14.8833 12.5462 14.8866 12.5481 14.8904C12.5534 14.8999 12.5592 14.9094 12.5654 14.9183C12.5669 14.9207 12.5683 14.9231 12.5697 14.9254C12.576 14.9349 12.5832 14.9434 12.5904 14.9524C12.5923 14.9548 12.5937 14.9567 12.5957 14.9591C12.6024 14.9671 12.6101 14.9747 12.6173 14.9827C12.6197 14.9851 12.6221 14.9879 12.6249 14.9903C12.6321 14.9969 12.6393 15.0036 12.647 15.0097C12.6504 15.0125 12.6542 15.0159 12.6576 15.0187C12.66 15.0206 12.6624 15.023 12.6648 15.0249C12.6701 15.0286 12.6753 15.032 12.6806 15.0357C12.6845 15.0386 12.6883 15.0414 12.6926 15.0438C12.7013 15.0495 12.7094 15.0542 12.7181 15.0589C12.7214 15.0608 12.7253 15.0627 12.7286 15.0646C12.7382 15.0698 12.7478 15.0741 12.7579 15.0783C12.7608 15.0798 12.7637 15.0807 12.7665 15.0821C12.7776 15.0864 12.7881 15.0907 12.7992 15.094C12.8016 15.0949 12.8035 15.0954 12.8059 15.0959C12.8179 15.0996 12.8299 15.1025 12.8424 15.1053C12.8438 15.1058 12.8453 15.1058 12.8472 15.1063C12.8606 15.1091 12.8741 15.111 12.8875 15.1124C12.8885 15.1124 12.8889 15.1124 12.8899 15.1129C12.9048 15.1143 12.9192 15.1153 12.9341 15.1153C12.9393 15.1153 12.9451 15.1153 12.9504 15.1153H15.7665C15.5544 16.4734 14.3616 17.5167 12.9264 17.5167C11.3419 17.5167 10.0526 16.2452 10.0526 14.6826C10.0526 13.12 11.3419 11.8485 12.9264 11.8485C13.4328 11.8485 13.9085 11.9787 14.3217 12.2064L12.5861 14.4166ZM17.3856 14.248C17.2776 13.1602 16.7678 12.1875 16.0051 11.475L16.7251 10.5572C16.9709 10.7489 17.2166 10.9401 17.4629 11.1304C17.5809 11.2104 17.7005 11.2885 17.82 11.368C17.9702 11.4675 18.0072 11.5711 17.9885 11.7425C17.9112 12.4762 17.8488 13.2114 17.7825 13.946C17.7734 14.0469 17.7643 14.1477 17.7547 14.2485H17.3856V14.248ZM24.0033 12.3863L25.2974 15.0031C25.404 15.218 25.667 15.3075 25.8849 15.2024C26.1029 15.0973 26.1936 14.8379 26.087 14.623L24.7853 11.9905C25.0689 11.8978 25.3718 11.8471 25.6862 11.8471C27.2707 11.8471 28.56 13.1186 28.56 14.6812C28.56 16.2438 27.2707 17.5153 25.6862 17.5153C24.1017 17.5153 22.8125 16.2438 22.8125 14.6812C22.8125 13.7382 23.2824 12.9018 24.0033 12.3863Z" fill="#53AE00"/>
<path d="M13.4232 6.64048C13.5105 6.75929 13.679 6.7858 13.7995 6.69965L17.796 3.84379L15.3168 0.469116L11.3203 3.32497C11.1998 3.41113 11.1729 3.57728 11.2603 3.6961L13.4232 6.64048Z" fill="#53AE00"/>
<path d="M18.3566 3.43148C18.4622 3.35621 18.4857 3.21041 18.4094 3.10674L16.2067 0.1084C16.1304 0.00425795 15.9825 -0.0189373 15.8774 0.056329L15.5145 0.315737L17.9942 3.69041L18.3566 3.43148Z" fill="#53AE00"/>
<path d="M21.4449 4.23194C21.4584 4.24093 21.4718 4.2504 21.4862 4.25845C22.2619 4.74744 23.302 4.53726 23.8305 3.77466C24.3705 2.99644 24.1555 1.93608 23.3491 1.4078C23.2113 1.31738 23.0649 1.25064 22.9152 1.20472C22.2196 0.992648 21.4329 1.24732 20.9884 1.88022C20.4523 2.6433 20.6592 3.70555 21.4449 4.23194Z" fill="#53AE00"/>
<path d="M5.96542 10.2618H1.32334C0.923495 10.2618 0.607655 10.3763 0.375335 10.6054C0.143015 10.8346 0.0268555 11.1465 0.0268555 11.5404V17.5205C0.0268555 17.7591 0.0546955 17.9512 0.110375 18.098C0.166055 18.2447 0.249575 18.3593 0.361415 18.4417C0.472775 18.524 0.610055 18.5818 0.772775 18.6135C0.935495 18.6457 1.12366 18.6618 1.33726 18.6618C1.55086 18.6618 1.76686 18.6481 1.98574 18.6206C2.20414 18.5931 2.36446 18.5657 2.4667 18.5382V15.6374H4.90606C5.16622 15.6374 5.3731 15.5617 5.52622 15.4107C5.67982 15.2592 5.75614 15.0097 5.75614 14.6613C5.75614 14.4781 5.73022 14.3039 5.67934 14.1392C5.62798 13.974 5.56558 13.8414 5.49118 13.7406H2.43838V12.187H5.3659C5.62606 12.187 5.83294 12.1112 5.98606 11.9602C6.13918 11.8092 6.21598 11.5546 6.21598 11.1972C6.21598 11.014 6.19006 10.8374 6.13918 10.6679C6.0883 10.498 6.03022 10.3626 5.96542 10.2618Z" fill="#53AE00"/>
<path d="M40.4496 12.7219C40.2173 12.1718 39.8894 11.7164 39.467 11.3538C39.0442 10.9917 38.5378 10.7238 37.9474 10.5496C37.357 10.3754 36.6998 10.2883 35.975 10.2883C35.6218 10.2883 35.2224 10.3086 34.776 10.3503C34.3301 10.3915 33.9067 10.4762 33.5074 10.6045C33.3216 10.6689 33.1752 10.7536 33.0682 10.8587C32.9611 10.9642 32.9078 11.1129 32.9078 11.3055V17.7254C32.9078 18.2021 33.1632 18.5363 33.6744 18.729C33.8602 18.8023 34.0622 18.8596 34.2806 18.9008C34.499 18.942 34.7174 18.9766 34.9358 19.004C35.1542 19.0315 35.3654 19.0499 35.5699 19.0589C35.7744 19.0679 35.9554 19.0726 36.1138 19.0726C36.8107 19.0726 37.4472 18.9808 38.0237 18.7976C38.5997 18.6144 39.0946 18.337 39.5083 17.9659C39.9216 17.5948 40.2403 17.1366 40.463 16.5912C40.6862 16.0459 40.7976 15.4068 40.7976 14.6736C40.7981 13.9228 40.6819 13.2719 40.4496 12.7219ZM38.1283 15.822C38.0213 16.1292 37.8725 16.3787 37.6824 16.5713C37.4918 16.764 37.2643 16.906 36.9994 16.9974C36.7344 17.0892 36.444 17.1347 36.1282 17.1347C35.9976 17.1347 35.8584 17.1276 35.7101 17.1138C35.5613 17.1001 35.436 17.084 35.3338 17.0655V12.2821C35.473 12.2637 35.6102 12.2499 35.7451 12.2409C35.8795 12.2319 36.012 12.2272 36.1426 12.2272C36.793 12.2272 37.3138 12.436 37.704 12.8525C38.0942 13.2696 38.2896 13.8906 38.2896 14.7152C38.2891 15.1465 38.2354 15.5152 38.1283 15.822Z" fill="#53AE00"/>
</svg>
