<svg width="156" height="156" viewBox="0 0 156 156" fill="none" xmlns="http://www.w3.org/2000/svg">
<path d="M152.321 34.3706L103.266 24.6206C100.434 24.0594 97.8047 26.2287 97.8047 29.1035V136.353C97.8047 138.534 99.3455 140.411 101.484 140.836L150.539 150.586C153.362 151.146 156 148.986 156 146.103V38.8535C156 36.6728 154.459 34.7959 152.321 34.3706Z" fill="#FFE278"/>
<path d="M58.1953 35.1V150.098C53.5305 151.027 53.7926 150.966 53.6585 150.966H53.625C53.3295 150.966 3.68062 140.835 3.68062 140.835C1.54172 140.412 0 138.535 0 136.353V29.1035C0 26.2181 2.63859 24.0609 5.46 24.6215L54.2222 34.3136L58.1953 35.1Z" fill="#FFE278"/>
<path d="M102.966 141.14C75.7484 146.582 63.6279 149.013 58.1953 150.098C53.5305 151.027 53.7926 150.966 53.6585 150.966H53.625V34.4357L54.2222 34.3138L101.129 24.707C101.732 24.5852 102.393 24.4511 102.984 24.573C102.984 143.901 102.997 141.14 102.966 141.14Z" fill="#FFB454"/>
<path d="M87.4453 38.8535C87.4453 46.4738 82.4606 58.774 72.2018 76.455C64.8832 89.0721 57.6895 99.5137 57.3848 99.9494C55.5713 102.579 51.6796 102.58 49.8652 99.9494C49.5605 99.5137 42.3668 89.0721 35.0482 76.455C24.7894 58.774 19.8047 46.4738 19.8047 38.8535C19.8047 20.2036 34.9751 5.0332 53.625 5.0332C72.2749 5.0332 87.4453 20.2036 87.4453 38.8535Z" fill="#63BB66"/>
<path d="M42 37.7027L48.9231 45L66 27" stroke="white" stroke-width="6"/>
</svg>
