<svg width="276" height="678" viewBox="0 0 276 678" fill="none" xmlns="http://www.w3.org/2000/svg">
<path fill-rule="evenodd" clip-rule="evenodd" d="M70 53L70 52C73.866 52 77 55.134 77 59L77 65C77 68.866 73.866 72 70 72L70 53ZM70 73C74.4183 73 78 69.4183 78 65L78 59C78 54.5817 74.4183 51 70 51L69.748 51C68.8599 47.5495 65.7277 45 62 45L38 45C34.2723 45 31.1401 47.5495 30.252 51L30 51C25.5817 51 22 54.5817 22 59L22 65C22 69.4183 25.5817 73 30 73L30 76C30 80.4183 33.5817 84 38 84L62 84C66.4183 84 70 80.4183 70 76L70 73ZM31 72L31 53C31 49.134 34.134 46 38 46L62 46C65.866 46 69 49.134 69 53L69 72L31 72ZM69 73L31 73L31 76C31 79.866 34.134 83 38 83L62 83C65.866 83 69 79.866 69 76L69 73ZM30 72L30 53L30 52C26.134 52 23 55.134 23 59L23 65C23 68.866 26.134 72 30 72Z" fill="white" fill-opacity="0.15"/>
<path fill-rule="evenodd" clip-rule="evenodd" d="M262 1H14C6.8203 1 1 6.82029 1 14V90H107H108V91V95V96H107H1V664C1 671.18 6.8203 677 14 677H262C269.18 677 275 671.18 275 664V96H169H168V95V91V90H169H275V14C275 6.8203 269.18 1 262 1ZM276 90V14C276 6.26801 269.732 0 262 0H14C6.26801 0 0 6.26801 0 14V90V91V95V96V664C0 671.732 6.26801 678 14 678H262C269.732 678 276 671.732 276 664V96V95V91V90ZM275 91H169V95H275V91ZM1 95V91H107V95H1Z" fill="white" fill-opacity="0.15"/>
<path fill-rule="evenodd" clip-rule="evenodd" d="M50 36C44.6726 36 39.888 34.3792 36.4579 31.8066C33.028 29.2342 31 25.7568 31 22C31 18.2432 33.028 14.7658 36.4579 12.1934C39.888 9.62077 44.6726 8 50 8C55.3274 8 60.112 9.62077 63.5421 12.1934C66.972 14.7658 69 18.2432 69 22C69 25.7568 66.972 29.2342 63.5421 31.8066C60.112 34.3792 55.3274 36 50 36ZM50 37C38.9543 37 30 30.2843 30 22C30 13.7157 38.9543 7 50 7C61.0457 7 70 13.7157 70 22C70 30.2843 61.0457 37 50 37ZM50 28.375C57.0638 28.375 62.8384 26.4646 65.2652 25.5184C65.7643 25.3238 66.1218 25.17 66.3198 25.0819L66.3963 25.0477C66.4649 25.0167 66.5 25 66.5 25L66.5 25.082C66.363 25.4959 66.199 25.9018 66.0096 26.2986C63.6576 31.2253 57.3776 34.75 50 34.75C42.6674 34.75 36.4191 31.2682 34.0339 26.3888C33.826 25.9633 33.6474 25.5273 33.5 25.082C33.5 25.082 33.9493 25.29 34.7711 25.6015C37.2188 26.5294 42.9711 28.375 50 28.375ZM62.0457 27.649C63.0176 27.3711 63.8662 27.093 64.5711 26.843C62.0915 30.8332 56.5973 33.75 50 33.75C43.445 33.75 37.9791 30.8706 35.477 26.9198C36.1735 27.1599 37.0077 27.4259 37.9605 27.6917C40.9743 28.5324 45.192 29.375 50 29.375C54.8109 29.375 59.0307 28.5109 62.0457 27.649ZM54.2059 10.6621C54.0619 10.0053 54 9.60495 54 9.60495C54.3559 9.66933 54.7075 9.74211 55.0543 9.82299C61.5679 11.3421 66.4023 15.72 66.9485 21C66.9826 21.33 67 21.6635 67 22L66 22L63.2158 22C57.2287 22 54.8629 13.6599 54.2059 10.6621ZM55.2881 10.9093C55.3174 11.0325 55.349 11.1618 55.3831 11.2966C55.6679 12.4232 56.1186 13.9132 56.7831 15.3928C58.1563 18.4507 60.2186 21 63.2158 21L65.9415 21C65.4072 16.445 61.2578 12.4458 55.2881 10.9093ZM45.8907 9.625C45.8907 9.625 45.8318 10.0256 45.6927 10.6827C45.0584 13.6776 42.7563 22 36.7594 22L34 22L33 22C33 21.6635 33.0174 21.33 33.0515 21C33.5947 15.749 38.3791 11.3902 44.8385 9.84828C45.1846 9.76567 45.5354 9.69114 45.8907 9.625ZM44.5211 11.3202C44.554 11.1863 44.5845 11.0577 44.6127 10.9352C38.6952 12.4908 34.5898 16.4704 34.0585 21L36.7594 21C39.7614 21 41.8033 18.4582 43.1528 15.4079C43.806 13.9315 44.2451 12.4447 44.5211 11.3202Z" fill="white" fill-opacity="0.15"/>
</svg>
