<svg width="80" height="80" viewBox="0 0 80 80" fill="none" xmlns="http://www.w3.org/2000/svg">
<path fill-rule="evenodd" clip-rule="evenodd" d="M15 12.5C15 9.18479 16.317 6.00537 18.6612 3.66117C21.0054 1.31696 24.1848 0 27.5 0C30.8152 0 33.9946 1.31696 36.3388 3.66117C38.683 6.00537 40 9.18479 40 12.5C40 9.18479 41.317 6.00537 43.6612 3.66117C46.0054 1.31696 49.1848 0 52.5 0C55.8152 0 58.9946 1.31696 61.3388 3.66117C63.683 6.00537 65 9.18479 65 12.5V12.53C65 12.88 65 13.88 64.81 15H75C76.3261 15 77.5979 15.5268 78.5355 16.4645C79.4732 17.4021 80 18.6739 80 20V30C80 31.3261 79.4732 32.5979 78.5355 33.5355C77.5979 34.4732 76.3261 35 75 35V72.5C75 74.4891 74.2098 76.3968 72.8033 77.8033C71.3968 79.2098 69.4891 80 67.5 80H12.5C10.5109 80 8.60322 79.2098 7.1967 77.8033C5.79018 76.3968 5 74.4891 5 72.5V35C3.67392 35 2.40215 34.4732 1.46447 33.5355C0.526784 32.5979 0 31.3261 0 30V20C0 18.6739 0.526784 17.4021 1.46447 16.4645C2.40215 15.5268 3.67392 15 5 15H15.19C15.0579 14.1834 14.9944 13.3572 15 12.53V12.5ZM20.34 15H35V12.5C35 11.5151 34.806 10.5398 34.4291 9.62987C34.0522 8.71993 33.4997 7.89314 32.8033 7.1967C32.1069 6.50026 31.2801 5.94781 30.3701 5.5709C29.4602 5.19399 28.4849 5 27.5 5C26.5151 5 25.5398 5.19399 24.6299 5.5709C23.7199 5.94781 22.8931 6.50026 22.1967 7.1967C21.5003 7.89314 20.9478 8.71993 20.5709 9.62987C20.194 10.5398 20 11.5151 20 12.5C20 12.925 20.01 13.87 20.225 14.65C20.255 14.7692 20.2935 14.8862 20.34 15ZM45 15H59.66C59.706 14.886 59.7444 14.7691 59.775 14.65C59.99 13.87 60 12.925 60 12.5C60 10.5109 59.2098 8.60322 57.8033 7.1967C56.3968 5.79018 54.4891 5 52.5 5C50.5109 5 48.6032 5.79018 47.1967 7.1967C45.7902 8.60322 45 10.5109 45 12.5V15ZM5 20V30H35V20H5ZM45 20V30H75V20H45ZM70 35H45V75H67.5C68.163 75 68.7989 74.7366 69.2678 74.2678C69.7366 73.7989 70 73.163 70 72.5V35ZM35 75V35H10V72.5C10 73.163 10.2634 73.7989 10.7322 74.2678C11.2011 74.7366 11.837 75 12.5 75H35Z" fill="#04788F"/>
</svg>
