<svg width="1160" height="478" viewBox="0 0 1160 478" fill="none" xmlns="http://www.w3.org/2000/svg">
<path d="M666.879 221V202.516H673.214C675.304 202.516 676.896 202.935 677.987 203.772C679.079 204.61 679.625 205.859 679.625 207.518C679.625 208.364 679.396 209.126 678.939 209.803C678.482 210.48 677.814 211.005 676.934 211.377C677.932 211.648 678.702 212.16 679.244 212.913C679.794 213.658 680.069 214.555 680.069 215.604C680.069 217.34 679.511 218.673 678.394 219.604C677.285 220.535 675.694 221 673.62 221H666.879ZM670.091 212.659V218.436H673.658C674.665 218.436 675.452 218.186 676.02 217.687C676.587 217.187 676.87 216.493 676.87 215.604C676.87 213.683 675.888 212.701 673.925 212.659H670.091ZM670.091 210.298H673.239C674.238 210.298 675.017 210.074 675.575 209.625C676.142 209.168 676.426 208.525 676.426 207.695C676.426 206.781 676.163 206.121 675.639 205.715C675.122 205.309 674.314 205.105 673.214 205.105H670.091V210.298ZM691.559 207.264H694.631V221H691.559V211.834L686.176 221H683.104V207.264H686.176V216.43L691.559 207.264ZM709.941 214.271C709.941 216.396 709.459 218.093 708.494 219.362C707.529 220.623 706.234 221.254 704.609 221.254C703.103 221.254 701.897 220.759 700.991 219.769V226.281H697.906V207.264H700.75L700.877 208.66C701.783 207.56 703.014 207.01 704.571 207.01C706.247 207.01 707.559 207.636 708.507 208.889C709.463 210.133 709.941 211.864 709.941 214.081V214.271ZM706.869 214.005C706.869 212.634 706.594 211.546 706.044 210.742C705.502 209.938 704.724 209.536 703.708 209.536C702.447 209.536 701.541 210.057 700.991 211.098V217.191C701.55 218.258 702.464 218.791 703.733 218.791C704.715 218.791 705.481 218.397 706.031 217.61C706.59 216.815 706.869 215.613 706.869 214.005ZM722.84 209.714H718.384V221H715.299V209.714H710.894V207.264H722.84V209.714ZM729.86 216.582L732.653 207.264H735.941L730.482 223.082C729.645 225.393 728.223 226.548 726.217 226.548C725.768 226.548 725.273 226.472 724.731 226.319V223.933L725.315 223.971C726.094 223.971 726.678 223.827 727.067 223.539C727.465 223.26 727.778 222.786 728.007 222.117L728.451 220.937L723.627 207.264H726.953L729.86 216.582ZM745.729 221C745.594 220.738 745.476 220.31 745.374 219.718C744.392 220.742 743.19 221.254 741.769 221.254C740.389 221.254 739.263 220.86 738.392 220.073C737.52 219.286 737.084 218.313 737.084 217.153C737.084 215.689 737.626 214.568 738.709 213.789C739.801 213.002 741.358 212.608 743.381 212.608H745.272V211.707C745.272 210.996 745.074 210.429 744.676 210.006C744.278 209.574 743.673 209.358 742.86 209.358C742.158 209.358 741.582 209.536 741.134 209.892C740.685 210.239 740.461 210.683 740.461 211.225H737.376C737.376 210.471 737.626 209.769 738.125 209.117C738.624 208.457 739.301 207.941 740.156 207.568C741.02 207.196 741.98 207.01 743.038 207.01C744.646 207.01 745.928 207.416 746.885 208.229C747.841 209.033 748.332 210.167 748.357 211.631V217.826C748.357 219.062 748.531 220.048 748.878 220.784V221H745.729ZM742.34 218.778C742.949 218.778 743.521 218.63 744.054 218.334C744.595 218.038 745.002 217.64 745.272 217.141V214.551H743.609C742.467 214.551 741.608 214.75 741.032 215.147C740.457 215.545 740.169 216.108 740.169 216.836C740.169 217.428 740.364 217.902 740.753 218.258C741.151 218.605 741.68 218.778 742.34 218.778ZM763.262 207.264V221H760.177V209.752H756.292L756.038 214.538C755.877 216.84 755.433 218.495 754.705 219.502C753.986 220.501 752.881 221 751.392 221H750.439L750.427 218.436L751.062 218.372C751.739 218.279 752.229 217.868 752.534 217.141C752.847 216.404 753.046 215.067 753.131 213.129L753.385 207.264H763.262ZM769.863 211.631H772.885C774.01 211.631 774.992 211.826 775.83 212.215C776.668 212.604 777.303 213.15 777.734 213.853C778.174 214.555 778.395 215.372 778.395 216.303C778.395 217.716 777.895 218.85 776.896 219.705C775.898 220.56 774.569 220.992 772.91 221H766.778V207.264H769.863V211.631ZM769.863 214.106V218.537H772.872C773.625 218.537 774.218 218.351 774.649 217.979C775.09 217.598 775.31 217.06 775.31 216.366C775.31 215.672 775.094 215.126 774.662 214.729C774.239 214.322 773.663 214.115 772.936 214.106H769.863ZM792.499 221H789.414V215.452H784.069V221H780.984V207.264H784.069V212.989H789.414V207.264H792.499V221ZM804.001 221C803.866 220.738 803.747 220.31 803.646 219.718C802.664 220.742 801.462 221.254 800.04 221.254C798.66 221.254 797.535 220.86 796.663 220.073C795.791 219.286 795.355 218.313 795.355 217.153C795.355 215.689 795.897 214.568 796.98 213.789C798.072 213.002 799.63 212.608 801.652 212.608H803.544V211.707C803.544 210.996 803.345 210.429 802.947 210.006C802.549 209.574 801.944 209.358 801.132 209.358C800.429 209.358 799.854 209.536 799.405 209.892C798.957 210.239 798.732 210.683 798.732 211.225H795.647C795.647 210.471 795.897 209.769 796.396 209.117C796.896 208.457 797.573 207.941 798.428 207.568C799.291 207.196 800.252 207.01 801.31 207.01C802.918 207.01 804.2 207.416 805.156 208.229C806.113 209.033 806.604 210.167 806.629 211.631V217.826C806.629 219.062 806.802 220.048 807.149 220.784V221H804.001ZM800.611 218.778C801.221 218.778 801.792 218.63 802.325 218.334C802.867 218.038 803.273 217.64 803.544 217.141V214.551H801.881C800.738 214.551 799.879 214.75 799.304 215.147C798.728 215.545 798.44 216.108 798.44 216.836C798.44 217.428 798.635 217.902 799.024 218.258C799.422 218.605 799.951 218.778 800.611 218.778ZM820.86 207.264V221H817.788V215.96H814.906L811.974 221H808.774L812.012 215.452C811.165 215.097 810.514 214.589 810.057 213.929C809.608 213.269 809.384 212.511 809.384 211.656C809.384 210.378 809.875 209.333 810.856 208.521C811.847 207.7 813.18 207.281 814.855 207.264H820.86ZM812.469 211.732C812.469 212.308 812.68 212.778 813.104 213.142C813.535 213.497 814.085 213.675 814.754 213.675H817.788V209.714H814.944C814.191 209.714 813.59 209.904 813.142 210.285C812.693 210.666 812.469 211.148 812.469 211.732ZM677.226 252.696H670.065L668.567 257H665.229L672.211 238.516H675.093L682.088 257H678.736L677.226 252.696ZM670.967 250.106H676.324L673.646 242.438L670.967 250.106ZM696.027 241.105H690.264V257H687.077V241.105H681.364V238.516H696.027V241.105ZM712.214 250.982C712.028 252.954 711.3 254.495 710.03 255.604C708.761 256.704 707.072 257.254 704.965 257.254C703.492 257.254 702.193 256.907 701.067 256.213C699.95 255.51 699.087 254.516 698.478 253.229C697.868 251.943 697.551 250.449 697.525 248.748V247.021C697.525 245.278 697.834 243.742 698.452 242.413C699.07 241.084 699.954 240.06 701.105 239.341C702.265 238.621 703.602 238.262 705.117 238.262C707.157 238.262 708.799 238.816 710.043 239.925C711.287 241.034 712.011 242.599 712.214 244.622H709.015C708.862 243.293 708.473 242.337 707.847 241.753C707.229 241.16 706.319 240.864 705.117 240.864C703.721 240.864 702.646 241.376 701.893 242.4C701.148 243.416 700.767 244.91 700.75 246.882V248.52C700.75 250.517 701.105 252.04 701.816 253.09C702.536 254.139 703.585 254.664 704.965 254.664C706.226 254.664 707.174 254.381 707.809 253.813C708.443 253.246 708.845 252.303 709.015 250.982H712.214ZM724.782 254.436H733.174V257H721.57V238.516H724.782V254.436ZM739.026 257H735.827V238.516H739.026V257ZM749.767 249.878H746.187V257H742.975V238.516H749.475C751.607 238.516 753.254 238.994 754.413 239.95C755.573 240.907 756.152 242.29 756.152 244.102C756.152 245.337 755.852 246.374 755.251 247.212C754.659 248.041 753.829 248.68 752.763 249.129L756.914 256.835V257H753.474L749.767 249.878ZM746.187 247.301H749.487C750.571 247.301 751.417 247.03 752.026 246.488C752.636 245.938 752.94 245.189 752.94 244.241C752.94 243.251 752.657 242.485 752.09 241.943C751.531 241.402 750.693 241.122 749.576 241.105H746.187V247.301ZM769.546 252.696H762.386L760.888 257H757.549L764.531 238.516H767.413L774.408 257H771.057L769.546 252.696ZM763.287 250.106H768.645L765.966 242.438L763.287 250.106ZM782.876 245.193L786.761 238.516H790.468L784.882 247.682L790.595 257H786.85L782.876 250.221L778.89 257H775.157L780.883 247.682L775.284 238.516H778.991L782.876 245.193Z" fill="white"/>
<path d="M1131.28 379.049C1131.42 378.905 1131.42 378.905 1131.56 378.76C1133.01 377.316 1134.02 375.582 1134.88 373.704C1135.17 372.982 1135.46 372.26 1135.61 371.826C1135.75 371.393 1135.89 370.96 1136.04 370.526C1136.33 369.371 1136.33 368.359 1136.33 367.204V364.459C1136.33 364.459 1136.33 354.636 1136.33 354.492V348.569C1136.33 338.313 1127.96 329.935 1117.71 329.935H1111.07C1100.82 329.935 1092.45 338.313 1092.45 348.569V369.226H1095.77C1095.62 368.504 1095.62 367.926 1095.62 367.204V359.692H1105C1109.62 359.692 1114.1 358.248 1117.85 355.647C1120.88 353.625 1123.34 350.88 1125.07 347.702L1133.3 359.114V367.493C1133.3 369.515 1132.57 371.537 1131.71 373.271L1130.7 375.149C1129.83 376.449 1128.68 377.46 1127.38 378.327C1126.37 379.049 1125.36 379.482 1124.2 379.916L1116.7 382.372C1115.4 382.805 1113.95 382.805 1112.51 382.372L1109.91 381.505V384.827L1111.5 385.405C1111.93 385.549 1112.51 385.694 1112.94 385.838V387.427L1109.91 389.016V392.628L1114.39 390.172L1119.01 392.628L1114.39 397.25L1109.91 392.628V396.961L1112.94 399.995V412.562H1109.91V415.74H1142.53C1143.4 415.74 1144.12 415.018 1144.12 414.151V398.262C1143.98 389.739 1138.93 382.227 1131.28 379.049ZM1133.15 353.77L1125.93 343.513C1125.65 343.08 1125.07 342.791 1124.49 342.791C1123.91 342.791 1123.34 343.224 1123.19 343.802C1121.75 347.558 1119.29 350.592 1115.97 352.903C1112.65 355.214 1108.9 356.37 1105 356.37H1095.62V348.569C1095.62 344.38 1097.35 340.48 1100.1 337.735C1102.84 334.99 1106.74 333.257 1111.07 333.257H1117.71C1126.22 333.257 1133.15 340.191 1133.15 348.714V353.77ZM1115.83 387.427L1115.97 385.838C1116.41 385.838 1116.98 385.694 1117.42 385.405L1123.05 383.527L1124.49 392.05L1115.83 387.427ZM1140.8 412.562H1115.97V399.995L1121.89 394.072L1126.08 396.239C1126.37 396.384 1126.51 396.384 1126.8 396.384C1127.09 396.384 1127.52 396.239 1127.81 396.095C1128.24 395.661 1128.53 395.084 1128.39 394.506L1126.22 382.227C1126.95 381.938 1127.67 381.505 1128.24 381.216C1135.61 383.383 1140.8 390.317 1140.8 398.117V412.562Z" fill="white"/>
<path d="M1105.44 414.873V422.529C1105.44 424.118 1104.14 425.418 1102.55 425.418H1079.45C1077.87 425.418 1076.57 424.118 1076.57 422.529V414.873H1105.44Z" fill="#0BBEDF"/>
<path d="M1105.44 376.304V379.482H1076.57V376.304C1076.57 374.715 1077.87 373.415 1079.45 373.415H1102.55C1104.14 373.415 1105.44 374.715 1105.44 376.304Z" stroke="white" stroke-width="2" stroke-miterlimit="10"/>
<path d="M1105.44 379.482H1076.57V414.873H1105.44V379.482Z" stroke="white" stroke-width="2" stroke-miterlimit="10"/>
<path d="M1105.44 414.874V422.53C1105.44 424.119 1104.14 425.419 1102.55 425.419H1079.45C1077.87 425.419 1076.57 424.119 1076.57 422.53V414.874H1105.44Z" stroke="white" stroke-width="2" stroke-miterlimit="10"/>
<path d="M1090.57 421.807C1091.76 421.807 1092.73 420.837 1092.73 419.64C1092.73 418.444 1091.76 417.474 1090.57 417.474C1089.37 417.474 1088.4 418.444 1088.4 419.64C1088.4 420.837 1089.37 421.807 1090.57 421.807Z" fill="white"/>
<path d="M1125.93 64.1382C1125.65 63.7049 1125.07 63.4159 1124.49 63.5604C1123.91 63.5604 1123.34 63.9938 1123.19 64.5716C1121.75 68.3274 1119.29 71.3609 1115.97 73.6722C1112.65 75.9835 1108.9 77.1391 1105 77.1391H1095.62V69.3386C1095.62 65.1494 1097.35 61.2491 1100.1 58.5045C1102.84 55.7599 1106.74 54.0264 1111.07 54.0264H1117.71C1126.22 54.0264 1133.15 60.9602 1133.15 69.483V74.5389L1125.93 64.1382ZM1115.97 106.463C1116.41 106.319 1116.98 106.174 1117.42 106.03L1123.05 104.152L1124.49 112.53L1115.83 107.908L1115.97 106.463ZM1140.8 133.187H1115.97V120.62L1121.89 114.697L1126.08 116.864C1126.37 117.009 1126.51 117.009 1126.8 117.009C1127.09 117.009 1127.52 116.864 1127.81 116.72C1128.24 116.431 1128.53 115.708 1128.39 115.131L1126.22 102.852C1126.95 102.563 1127.67 102.13 1128.24 101.841C1135.61 104.008 1140.8 110.941 1140.8 118.742V133.187ZM1131.28 99.674C1131.42 99.5296 1131.42 99.5296 1131.56 99.3851C1133.01 97.9406 1134.02 96.2071 1134.88 94.3292C1135.17 93.6069 1135.46 92.8847 1135.61 92.4513C1135.75 92.0179 1135.89 91.5846 1136.04 91.1512C1136.33 89.9956 1136.33 88.9844 1136.33 87.8288V69.0497C1136.33 58.7934 1127.96 50.415 1117.71 50.415H1111.07C1100.82 50.415 1092.45 58.7934 1092.45 69.0497V75.2612C1092.45 75.4057 1092.45 75.4057 1092.45 75.4057V89.5622H1095.77C1095.62 88.8399 1095.62 88.1177 1095.62 87.5398V80.0282H1105C1109.62 80.0282 1114.1 78.5837 1117.85 75.9835C1120.88 73.9611 1123.34 71.2165 1125.07 68.0385L1133.3 79.4504V87.8288C1133.3 89.8511 1132.57 91.8735 1131.71 93.6069L1130.7 95.4848C1129.83 96.7849 1128.68 97.7961 1127.38 98.6629C1126.37 99.3851 1125.36 99.8185 1124.2 100.252L1116.7 102.708C1115.4 103.141 1113.95 103.141 1112.51 102.708L1109.91 101.841V105.163L1111.5 105.741C1111.93 105.886 1112.51 106.03 1112.94 106.174V107.619L1109.91 109.208V113.108L1114.39 110.653L1119.01 113.108L1114.39 117.586L1109.91 113.108V117.153L1112.94 120.187V132.754H1109.91V135.932H1142.54C1143.4 135.932 1144.12 135.21 1144.12 134.343V118.453C1143.98 110.364 1138.93 102.852 1131.28 99.674Z" fill="white"/>
<path d="M1105.44 135.499V143.155C1105.44 144.744 1104.14 146.044 1102.55 146.044H1079.45C1077.87 146.044 1076.57 144.744 1076.57 143.155V135.499H1105.44Z" fill="#0BBEDF"/>
<path d="M1105.44 96.9296V100.108H1076.57V96.9296C1076.57 95.3406 1077.87 94.0405 1079.45 94.0405H1102.55C1104.14 94.0405 1105.44 95.3406 1105.44 96.9296Z" fill="#0BBEDF" stroke="white" stroke-width="2" stroke-miterlimit="10"/>
<path d="M1105.44 100.108H1076.57V135.499H1105.44V100.108Z" fill="#0BBEDF" stroke="white" stroke-width="2" stroke-miterlimit="10"/>
<path d="M1105.44 135.499V143.155C1105.44 144.744 1104.14 146.044 1102.55 146.044H1079.45C1077.87 146.044 1076.57 144.744 1076.57 143.155V135.499H1105.44Z" stroke="white" stroke-width="2" stroke-miterlimit="10"/>
<path d="M1090.57 142.433C1091.76 142.433 1092.73 141.463 1092.73 140.266C1092.73 139.069 1091.76 138.099 1090.57 138.099C1089.37 138.099 1088.4 139.069 1088.4 140.266C1088.4 141.463 1089.37 142.433 1090.57 142.433Z" fill="white"/>
<path d="M838.677 180.28C854.123 182.591 867.547 191.114 876.208 203.248C882.993 212.637 886.89 224.049 886.89 236.472C886.89 248.896 882.848 260.307 876.208 269.697C865.959 283.998 849.07 293.388 830.16 293.388H647.124C629.946 293.388 614.501 285.731 604.108 273.742C595.447 263.774 590.25 250.773 590.25 236.472C590.25 222.171 595.447 209.171 604.108 199.203C614.501 187.213 629.946 179.557 647.124 179.557C651.31 179.557 655.352 179.991 659.25 180.857" stroke="white" stroke-width="2" stroke-miterlimit="10" stroke-linecap="round"/>
<path d="M659.249 181.002C659.105 179.991 659.105 178.835 659.105 177.824C659.105 171.468 661.27 165.545 664.735 160.778C669.931 153.845 678.159 149.366 687.398 149.366" stroke="white" stroke-width="2" stroke-miterlimit="10" stroke-linecap="round"/>
<path d="M838.677 180.28C839.543 176.09 839.976 171.757 839.976 167.279C839.976 165.112 839.832 162.801 839.687 160.634C838.677 149.944 834.924 139.832 829.438 131.31" stroke="white" stroke-width="2" stroke-miterlimit="10" stroke-linecap="round"/>
<path d="M711.216 124.953H679.892C668.921 124.953 658.961 120.041 652.321 112.385C646.691 106.029 643.371 97.6509 643.371 88.5502C643.371 79.4496 646.691 71.0712 652.321 64.7152C658.961 56.9147 668.921 52.1477 679.892 52.1477C682.634 52.1477 685.233 52.4366 687.687 53.0144" stroke="white" stroke-width="2" stroke-miterlimit="10" stroke-linecap="round"/>
<path d="M818.468 118.308C813.704 121.775 809.518 124.809 767.079 124.809C755.676 124.809 746.581 134.487 746.581 145.899L746.437 163.956" stroke="white" stroke-width="2" stroke-miterlimit="10" stroke-linecap="round"/>
<path d="M802.878 52.2925C812.839 53.737 821.355 59.2263 826.985 67.0268C831.315 73.0939 833.914 80.4611 833.914 88.4061C833.914 96.3511 831.315 103.718 826.985 109.785C824.675 113.108 821.788 115.997 818.468 118.308" stroke="white" stroke-width="2" stroke-miterlimit="10" stroke-linecap="round"/>
<path d="M719.01 38.1357C715.69 34.6688 711.071 32.502 705.875 32.502C699.956 32.502 694.615 35.391 691.295 39.8691C688.986 42.9027 687.687 46.6585 687.687 50.8477C687.687 51.57 687.687 52.2922 687.831 52.87" stroke="white" stroke-width="2" stroke-miterlimit="10" stroke-linecap="round"/>
<path d="M802.879 52.2923C803.456 49.5477 803.745 46.803 803.745 43.914C803.745 42.4694 803.6 41.0249 803.6 39.7248C801.435 18.2011 783.247 1.44434 761.306 1.44434C739.797 1.44434 722.042 17.3343 719.155 38.1358" stroke="white" stroke-width="2" stroke-miterlimit="10" stroke-linecap="round"/>
<path d="M687.543 149.221H707.752C720.31 149.221 730.415 138.965 730.415 126.542V104.151" stroke="white" stroke-width="2" stroke-miterlimit="10" stroke-linecap="round"/>
<path d="M735.612 108.485L730.271 103.141" stroke="white" stroke-width="2" stroke-miterlimit="10" stroke-linecap="round"/>
<path d="M725.074 108.485L730.415 103.141" stroke="white" stroke-width="2" stroke-miterlimit="10" stroke-linecap="round"/>
<path d="M741.238 162.078L746.724 167.278" stroke="white" stroke-width="2" stroke-miterlimit="10" stroke-linecap="round"/>
<path d="M751.776 161.645L746.579 167.278" stroke="white" stroke-width="2" stroke-miterlimit="10" stroke-linecap="round"/>
<path d="M1101.97 477.855H1092.88V476.266L1096.34 472.799C1097.35 471.788 1098.08 471.066 1098.36 470.632C1098.65 470.199 1098.94 469.766 1099.09 469.332C1099.23 468.899 1099.37 468.465 1099.37 468.032C1099.37 467.454 1099.23 466.876 1098.8 466.588C1098.36 466.299 1097.93 466.01 1097.35 466.01C1096.78 466.01 1096.34 466.154 1095.91 466.299C1095.48 466.443 1094.9 466.876 1094.18 467.31L1093.02 465.865C1093.74 465.287 1094.47 464.854 1095.19 464.565C1095.91 464.276 1096.63 464.132 1097.5 464.132C1098.8 464.132 1099.81 464.421 1100.53 465.143C1101.25 465.865 1101.68 466.732 1101.68 467.743C1101.68 468.321 1101.54 468.899 1101.4 469.477C1101.25 470.054 1100.82 470.632 1100.38 471.21C1099.95 471.788 1099.23 472.51 1098.08 473.521L1095.77 475.833V475.977H1102.12V477.855H1101.97Z" fill="white"/>
<path d="M1112.65 471.066C1112.65 473.377 1112.22 475.11 1111.5 476.266C1110.78 477.422 1109.62 478 1108.03 478C1106.59 478 1105.44 477.422 1104.71 476.266C1103.99 475.11 1103.56 473.377 1103.56 471.066C1103.56 468.754 1103.99 467.021 1104.71 465.865C1105.44 464.71 1106.59 464.132 1108.18 464.132C1109.62 464.132 1110.78 464.71 1111.64 465.865C1112.51 467.021 1112.65 468.899 1112.65 471.066ZM1105.72 471.066C1105.72 472.944 1105.87 474.244 1106.3 474.966C1106.74 475.688 1107.31 476.122 1108.03 476.122C1108.76 476.122 1109.48 475.688 1109.91 474.966C1110.34 474.244 1110.49 472.944 1110.49 471.066C1110.49 469.332 1110.34 468.032 1109.91 467.165C1109.48 466.299 1108.9 466.01 1108.03 466.01C1107.17 466.01 1106.59 466.443 1106.3 467.165C1105.87 468.032 1105.72 469.332 1105.72 471.066Z" fill="white"/>
<path d="M1123.34 477.855H1114.24V476.266L1117.71 472.799C1118.72 471.788 1119.44 471.066 1119.73 470.632C1120.02 470.199 1120.3 469.766 1120.45 469.332C1120.59 468.899 1120.74 468.465 1120.74 468.032C1120.74 467.454 1120.59 466.876 1120.16 466.588C1119.73 466.299 1119.29 466.01 1118.72 466.01C1118.14 466.01 1117.71 466.154 1117.27 466.299C1116.84 466.443 1116.26 466.876 1115.54 467.31L1114.39 465.865C1115.11 465.287 1115.83 464.854 1116.55 464.565C1117.27 464.276 1118 464.132 1118.86 464.132C1120.16 464.132 1121.17 464.421 1121.89 465.143C1122.61 465.865 1123.05 466.732 1123.05 467.743C1123.05 468.321 1122.9 468.899 1122.76 469.477C1122.61 470.055 1122.18 470.632 1121.75 471.21C1121.32 471.788 1120.59 472.51 1119.44 473.521L1117.13 475.833V475.977H1123.48V477.855H1123.34Z" fill="white"/>
<path d="M1101.97 198.335H1092.88V196.746L1096.34 193.28C1097.35 192.268 1098.08 191.546 1098.36 191.113C1098.65 190.679 1098.94 190.246 1099.09 189.813C1099.23 189.379 1099.37 188.946 1099.37 188.513C1099.37 187.935 1099.23 187.357 1098.8 187.068C1098.36 186.779 1097.93 186.49 1097.35 186.49C1096.78 186.49 1096.34 186.635 1095.91 186.779C1095.48 186.924 1094.9 187.357 1094.18 187.79L1093.02 186.346C1093.74 185.768 1094.47 185.335 1095.19 185.046C1095.91 184.757 1096.63 184.612 1097.5 184.612C1098.8 184.612 1099.81 184.901 1100.53 185.623C1101.25 186.346 1101.68 187.212 1101.68 188.224C1101.68 188.801 1101.54 189.379 1101.4 189.957C1101.25 190.535 1100.82 191.113 1100.38 191.691C1099.95 192.268 1099.23 192.991 1098.08 194.002L1095.77 196.313V196.458H1102.12V198.335H1101.97Z" fill="white"/>
<path d="M1112.65 191.69C1112.65 194.002 1112.22 195.735 1111.5 196.891C1110.78 198.046 1109.62 198.624 1108.03 198.624C1106.59 198.624 1105.44 198.046 1104.71 196.891C1103.99 195.735 1103.56 194.002 1103.56 191.69C1103.56 189.379 1103.99 187.646 1104.71 186.49C1105.44 185.334 1106.59 184.757 1108.18 184.757C1109.62 184.757 1110.78 185.334 1111.64 186.49C1112.51 187.646 1112.65 189.379 1112.65 191.69ZM1105.72 191.69C1105.72 193.568 1105.87 194.868 1106.3 195.591C1106.74 196.313 1107.31 196.746 1108.03 196.746C1108.76 196.746 1109.48 196.313 1109.91 195.591C1110.34 194.868 1110.49 193.568 1110.49 191.69C1110.49 189.957 1110.34 188.657 1109.91 187.79C1109.48 186.923 1108.9 186.634 1108.03 186.634C1107.17 186.634 1106.59 187.068 1106.3 187.79C1105.87 188.512 1105.72 189.812 1105.72 191.69Z" fill="white"/>
<path d="M1120.59 198.335H1118.43V189.668C1118.43 188.657 1118.43 187.79 1118.57 187.212C1118.43 187.357 1118.28 187.501 1118 187.646C1117.85 187.79 1117.13 188.368 1115.98 189.379L1114.96 188.079L1118.86 185.045H1120.59V198.335Z" fill="white"/>
<path d="M726.805 71.0711C725.217 71.0711 724.063 71.6489 723.197 72.6601C722.33 73.8158 721.897 75.2603 721.897 77.1382C721.897 79.1606 722.33 80.7496 723.197 81.7608C724.063 82.7719 725.217 83.3498 726.95 83.3498C727.671 83.3498 728.393 83.3498 728.971 83.2053C729.548 83.0608 730.27 82.9164 730.992 82.6275V84.9388C729.692 85.3721 728.249 85.661 726.661 85.661C724.207 85.661 722.33 84.9388 721.031 83.4942C719.732 82.0497 719.155 79.8828 719.155 77.2827C719.155 75.5492 719.443 74.1047 720.165 72.8046C720.743 71.5045 721.753 70.4933 722.908 69.9155C724.063 69.1932 725.506 68.9043 727.094 68.9043C728.826 68.9043 730.27 69.1932 731.713 69.9155L730.703 72.2268C730.125 71.9378 729.548 71.7934 728.971 71.5045C728.393 71.2156 727.527 71.0711 726.805 71.0711Z" fill="white"/>
<path d="M737.199 78.8715V85.5164H734.457V69.0486H739.076C741.241 69.0486 742.829 69.4819 743.839 70.2042C744.85 70.9265 745.427 72.2266 745.427 73.8156C745.427 75.8379 744.417 77.2825 742.251 78.1492L746.871 85.5164H743.839L739.942 78.8715H737.199ZM737.199 76.5602H739.076C740.375 76.5602 741.241 76.2713 741.818 75.838C742.396 75.4046 742.685 74.6823 742.685 73.8156C742.685 72.9489 742.396 72.2266 741.818 71.7932C741.241 71.3599 740.231 71.2154 739.076 71.2154H737.344L737.199 76.5602Z" fill="white"/>
<path d="M756.397 85.5167L751.634 71.7935H751.489C751.634 73.8159 751.634 75.6938 751.634 77.5717V85.6612H749.18V69.1934H752.933L757.552 82.3387L762.316 69.1934H766.069V85.6612H763.47V77.5717C763.47 76.705 763.47 75.6938 763.47 74.3937C763.47 73.0936 763.615 72.2269 763.615 71.938H763.47L758.563 85.6612H756.397V85.5167Z" fill="white"/>
<path d="M314.397 184.035C314.397 186.779 313.964 188.657 313.098 189.957C312.232 191.257 310.933 191.98 309.2 191.98C307.468 191.98 306.169 191.257 305.303 189.957C304.437 188.657 304.004 186.635 304.004 184.035C304.004 181.29 304.437 179.268 305.303 177.968C306.169 176.667 307.468 176.09 309.2 176.09C310.933 176.09 312.232 176.812 313.098 178.112C313.964 179.412 314.397 181.434 314.397 184.035ZM306.458 184.035C306.458 186.201 306.747 187.646 307.18 188.513C307.613 189.379 308.334 189.813 309.2 189.813C310.067 189.813 310.788 189.379 311.221 188.368C311.654 187.357 311.943 185.913 311.943 183.89C311.943 181.868 311.654 180.279 311.221 179.412C310.788 178.545 310.067 177.968 309.2 177.968C308.334 177.968 307.613 178.401 307.18 179.268C306.602 180.423 306.458 181.868 306.458 184.035Z" fill="white"/>
<path d="M327.389 188.368H325.223V191.691H322.769V188.368H315.696V186.49L322.769 176.234H325.223V186.346H327.244V188.368H327.389ZM322.769 186.201V182.301C322.769 180.857 322.769 179.845 322.914 178.834H322.769C322.625 179.268 322.192 179.845 321.903 180.568L318.006 186.201H322.769Z" fill="white"/>
<path d="M339.658 188.368H337.638V191.691H335.184V188.368H328.11V186.49L335.184 176.234H337.638V186.346H339.658V188.368ZM335.184 186.201V182.301C335.184 180.857 335.184 179.845 335.328 178.834H335.184C335.039 179.268 334.606 179.845 334.317 180.568L330.42 186.201H335.184Z" fill="white"/>
<path d="M353.95 191.691H351.496V181.723C351.496 180.568 351.496 179.557 351.64 178.834C351.496 178.979 351.207 179.123 351.063 179.412C350.774 179.557 350.052 180.279 348.753 181.29L347.454 179.701L351.929 176.09H353.95V191.691Z" fill="white"/>
<path d="M366.363 191.691H363.909V181.723C363.909 180.568 363.909 179.557 364.053 178.834C363.909 178.979 363.62 179.123 363.476 179.412C363.187 179.557 362.465 180.279 361.166 181.29L359.867 179.701L364.342 176.09H366.363V191.691Z" fill="white"/>
<path d="M378.633 191.691H376.179V181.723C376.179 180.568 376.179 179.557 376.323 178.834C376.179 178.979 375.89 179.123 375.745 179.412C375.457 179.557 374.735 180.279 373.436 181.29L372.137 179.701L376.612 176.09H378.633V191.691Z" fill="white"/>
<path d="M396.677 191.691H394.223V181.723C394.223 180.568 394.223 179.557 394.367 178.834C394.223 178.979 393.934 179.123 393.789 179.412C393.501 179.557 392.779 180.279 391.48 181.29L390.181 179.701L394.656 176.09H396.677V191.691Z" fill="white"/>
<path d="M408.946 191.691H406.492V181.723C406.492 180.568 406.492 179.557 406.636 178.834C406.492 178.979 406.203 179.123 406.059 179.412C405.77 179.557 405.049 180.279 403.749 181.29L402.45 179.701L406.925 176.09H408.946V191.691Z" fill="white"/>
<path d="M426.99 191.691H424.536V181.723C424.536 180.568 424.536 179.557 424.68 178.834C424.536 178.979 424.247 179.123 424.103 179.412C423.814 179.557 423.092 180.279 421.793 181.29L420.494 179.701L424.969 176.09H426.99V191.691Z" fill="white"/>
<path d="M439.405 191.691H436.951V181.723C436.951 180.568 436.951 179.557 437.095 178.834C436.951 178.979 436.662 179.123 436.518 179.412C436.229 179.557 435.507 180.279 434.208 181.29L432.909 179.701L437.384 176.09H439.405V191.691Z" fill="white"/>
<path d="M314.397 218.704C314.397 221.449 313.964 223.327 313.098 224.627C312.232 225.927 310.933 226.649 309.2 226.649C307.468 226.649 306.169 225.927 305.303 224.627C304.437 223.327 304.004 221.304 304.004 218.704C304.004 215.959 304.437 213.937 305.303 212.637C306.169 211.337 307.468 210.759 309.2 210.759C310.933 210.759 312.232 211.481 313.098 212.781C313.964 214.082 314.397 216.104 314.397 218.704ZM306.458 218.704C306.458 220.871 306.747 222.315 307.18 223.182C307.613 224.049 308.334 224.482 309.2 224.482C310.067 224.482 310.788 224.049 311.221 223.038C311.654 222.026 311.943 220.582 311.943 218.56C311.943 216.537 311.654 214.948 311.221 214.081C310.788 213.215 310.067 212.637 309.2 212.637C308.334 212.637 307.613 213.07 307.18 213.937C306.602 215.093 306.458 216.537 306.458 218.704Z" fill="white"/>
<path d="M316.418 219.859C316.418 213.792 318.872 210.759 323.78 210.759C324.502 210.759 325.223 210.759 325.801 210.903V212.926C325.223 212.781 324.646 212.637 323.924 212.637C322.336 212.637 321.037 213.07 320.171 213.937C319.305 214.804 318.872 216.248 318.872 218.27H319.016C319.305 217.693 319.882 217.259 320.46 216.97C321.037 216.681 321.759 216.537 322.625 216.537C324.069 216.537 325.079 216.97 325.945 217.837C326.667 218.704 327.1 219.859 327.1 221.304C327.1 222.893 326.667 224.193 325.801 225.204C324.935 226.215 323.636 226.649 322.048 226.649C320.893 226.649 320.027 226.36 319.161 225.782C318.295 225.204 317.717 224.482 317.284 223.471C316.562 222.46 316.418 221.16 316.418 219.859ZM321.759 224.482C322.625 224.482 323.202 224.193 323.78 223.615C324.213 223.037 324.502 222.315 324.502 221.304C324.502 220.437 324.213 219.715 323.78 219.137C323.347 218.559 322.625 218.415 321.759 218.415C321.182 218.415 320.748 218.559 320.315 218.704C319.882 218.993 319.449 219.282 319.305 219.715C319.016 220.148 318.872 220.582 318.872 220.871C318.872 221.882 319.161 222.749 319.738 223.326C320.171 224.193 320.893 224.482 321.759 224.482Z" fill="white"/>
<path d="M330.419 226.36L336.482 213.07H328.398V210.903H339.08V212.637L333.018 226.36H330.419Z" fill="white"/>
<path d="M357.124 226.36H346.587V224.482L350.629 220.437C351.783 219.282 352.65 218.415 352.938 217.837C353.371 217.404 353.66 216.826 353.804 216.393C353.949 215.959 354.093 215.526 354.093 214.948C354.093 214.226 353.949 213.648 353.516 213.359C353.083 212.926 352.505 212.781 351.784 212.781C351.206 212.781 350.629 212.926 350.051 213.07C349.474 213.359 348.897 213.648 348.175 214.226L346.876 212.637C347.742 211.915 348.608 211.337 349.33 211.048C350.051 210.759 351.062 210.615 351.928 210.615C353.371 210.615 354.526 211.048 355.392 211.77C356.258 212.492 356.691 213.504 356.691 214.804C356.691 215.526 356.547 216.104 356.258 216.826C355.97 217.404 355.681 218.126 355.104 218.704C354.526 219.426 353.66 220.293 352.505 221.449L349.763 224.049V224.193H357.124V226.36Z" fill="white"/>
<path d="M369.54 226.36H359.002V224.482L363.044 220.437C364.199 219.282 365.065 218.415 365.353 217.837C365.786 217.404 366.075 216.826 366.219 216.393C366.364 215.959 366.508 215.526 366.508 214.948C366.508 214.226 366.364 213.648 365.931 213.359C365.498 212.926 364.92 212.781 364.199 212.781C363.621 212.781 363.044 212.926 362.466 213.07C361.889 213.359 361.312 213.648 360.59 214.226L359.291 212.637C360.157 211.915 361.023 211.337 361.745 211.048C362.466 210.759 363.477 210.615 364.343 210.615C365.786 210.615 366.941 211.048 367.807 211.77C368.673 212.492 369.106 213.504 369.106 214.804C369.106 215.526 368.962 216.104 368.673 216.826C368.385 217.404 368.096 218.126 367.519 218.704C366.941 219.426 366.075 220.293 364.92 221.449L362.178 224.049V224.193H369.54V226.36Z" fill="white"/>
<path d="M381.809 226.36H371.416V224.482L375.458 220.437C376.613 219.282 377.479 218.415 377.767 217.837C378.2 217.404 378.489 216.826 378.634 216.393C378.778 215.959 378.922 215.526 378.922 214.948C378.922 214.226 378.778 213.648 378.345 213.359C377.912 212.926 377.334 212.781 376.613 212.781C376.035 212.781 375.458 212.926 374.88 213.07C374.303 213.359 373.726 213.648 373.004 214.226L371.705 212.637C372.571 211.915 373.437 211.337 374.159 211.048C374.88 210.759 375.891 210.615 376.757 210.615C378.2 210.615 379.355 211.048 380.221 211.77C381.087 212.492 381.521 213.504 381.521 214.804C381.521 215.526 381.376 216.104 381.087 216.826C380.799 217.404 380.51 218.126 379.933 218.704C379.355 219.426 378.489 220.293 377.334 221.449L374.592 224.049V224.193H381.954V226.36H381.809Z" fill="white"/>
<path d="M399.853 226.36H389.315V224.482L393.357 220.437C394.512 219.282 395.378 218.415 395.667 217.837C396.1 217.404 396.389 216.826 396.533 216.393C396.677 215.959 396.822 215.526 396.822 214.948C396.822 214.226 396.677 213.648 396.244 213.359C395.811 212.926 395.234 212.781 394.512 212.781C393.935 212.781 393.357 212.926 392.78 213.07C392.202 213.359 391.625 213.648 390.903 214.226L389.604 212.637C390.47 211.915 391.336 211.337 392.058 211.048C392.78 210.759 393.79 210.615 394.656 210.615C396.1 210.615 397.255 211.048 398.121 211.77C398.987 212.492 399.42 213.504 399.42 214.804C399.42 215.526 399.276 216.104 398.987 216.826C398.698 217.404 398.409 218.126 397.832 218.704C397.255 219.426 396.389 220.293 395.234 221.449L392.491 224.049V224.193H399.853V226.36Z" fill="white"/>
<path d="M412.267 226.36H401.729V224.482L405.771 220.437C406.926 219.282 407.792 218.415 408.081 217.837C408.514 217.404 408.803 216.826 408.947 216.393C409.091 215.959 409.236 215.526 409.236 214.948C409.236 214.226 409.091 213.648 408.658 213.359C408.225 212.926 407.648 212.781 406.926 212.781C406.349 212.781 405.771 212.926 405.194 213.07C404.617 213.359 404.039 213.648 403.317 214.226L402.018 212.637C402.884 211.915 403.75 211.337 404.472 211.048C405.194 210.759 406.204 210.615 407.07 210.615C408.514 210.615 409.669 211.048 410.535 211.77C411.401 212.492 411.834 213.504 411.834 214.804C411.834 215.526 411.69 216.104 411.401 216.826C411.112 217.404 410.824 218.126 410.246 218.704C409.669 219.426 408.803 220.293 407.648 221.449L404.905 224.049V224.193H412.267V226.36Z" fill="white"/>
<path d="M430.166 226.36H419.629V224.482L423.671 220.437C424.826 219.282 425.692 218.415 425.98 217.837C426.413 217.404 426.702 216.826 426.846 216.393C426.991 215.959 427.135 215.526 427.135 214.948C427.135 214.226 426.991 213.648 426.558 213.359C426.125 212.926 425.547 212.781 424.825 212.781C424.248 212.781 423.671 212.926 423.093 213.07C422.516 213.359 421.938 213.648 421.217 214.226L419.918 212.637C420.784 211.915 421.65 211.337 422.372 211.048C423.093 210.759 424.104 210.615 424.97 210.615C426.413 210.615 427.568 211.048 428.434 211.77C429.3 212.492 429.733 213.504 429.733 214.804C429.733 215.526 429.589 216.104 429.3 216.826C429.012 217.404 428.723 218.126 428.146 218.704C427.568 219.426 426.702 220.293 425.547 221.449L422.805 224.049V224.193H430.166V226.36Z" fill="white"/>
<path d="M442.581 226.36H432.043V224.482L436.085 220.437C437.24 219.282 438.106 218.415 438.394 217.837C438.828 217.404 439.116 216.826 439.261 216.393C439.405 215.959 439.549 215.526 439.549 214.948C439.549 214.226 439.405 213.648 438.972 213.359C438.539 212.926 437.961 212.781 437.24 212.781C436.662 212.781 436.085 212.926 435.507 213.07C434.93 213.359 434.353 213.648 433.631 214.226L432.332 212.637C433.198 211.915 434.064 211.337 434.786 211.048C435.507 210.759 436.518 210.615 437.384 210.615C438.827 210.615 439.982 211.048 440.848 211.77C441.715 212.492 442.148 213.504 442.148 214.804C442.148 215.526 442.003 216.104 441.715 216.826C441.426 217.404 441.137 218.126 440.56 218.704C439.982 219.426 439.116 220.293 437.961 221.449L435.219 224.049V224.193H442.581V226.36Z" fill="white"/>
<path d="M314.397 253.373C314.397 256.118 313.964 257.996 313.098 259.296C312.232 260.596 310.933 261.318 309.2 261.318C307.468 261.318 306.169 260.596 305.303 259.296C304.437 257.996 304.004 255.973 304.004 253.373C304.004 250.629 304.437 248.606 305.303 247.306C306.169 246.006 307.468 245.428 309.2 245.428C310.933 245.428 312.232 246.151 313.098 247.451C313.964 248.751 314.397 250.773 314.397 253.373ZM306.458 253.373C306.458 255.54 306.747 256.985 307.18 257.851C307.613 258.718 308.334 259.151 309.2 259.151C310.067 259.151 310.788 258.718 311.221 257.707C311.654 256.696 311.943 255.251 311.943 253.229C311.943 251.206 311.654 249.617 311.221 248.751C310.788 247.884 310.067 247.306 309.2 247.306C308.334 247.306 307.613 247.74 307.18 248.606C306.602 249.762 306.458 251.206 306.458 253.373Z" fill="white"/>
<path d="M326.811 252.217C326.811 255.251 326.234 257.562 324.935 259.007C323.78 260.451 321.903 261.318 319.449 261.318C318.583 261.318 317.861 261.318 317.428 261.173V259.151C318.006 259.296 318.728 259.44 319.305 259.44C321.037 259.44 322.192 259.007 323.058 258.14C323.924 257.273 324.357 255.829 324.357 253.951H324.213C323.78 254.529 323.347 255.106 322.769 255.395C322.192 255.684 321.47 255.829 320.749 255.829C319.449 255.829 318.295 255.395 317.573 254.529C316.851 253.662 316.418 252.506 316.418 251.062C316.418 249.473 316.851 248.173 317.717 247.161C318.583 246.15 319.882 245.717 321.47 245.717C322.625 245.717 323.491 246.006 324.357 246.584C325.223 247.161 325.801 247.884 326.234 248.895C326.523 249.473 326.811 250.773 326.811 252.217ZM321.326 247.45C320.46 247.45 319.738 247.739 319.305 248.317C318.872 248.895 318.583 249.617 318.583 250.628C318.583 251.495 318.728 252.217 319.161 252.651C319.594 253.084 320.171 253.373 321.037 253.373C321.903 253.373 322.625 253.084 323.202 252.651C323.78 252.217 324.069 251.495 324.069 250.917C324.069 250.339 323.924 249.762 323.636 249.184C323.347 248.606 323.058 248.173 322.625 247.884C322.481 247.595 321.903 247.45 321.326 247.45Z" fill="white"/>
<path d="M339.082 252.217C339.082 255.251 338.504 257.562 337.205 259.007C336.05 260.451 334.174 261.318 331.72 261.318C330.709 261.318 330.132 261.318 329.699 261.173V259.151C330.276 259.296 330.998 259.44 331.576 259.44C333.308 259.44 334.463 259.007 335.329 258.14C336.195 257.273 336.628 255.829 336.628 253.951H336.483C336.05 254.529 335.617 255.106 335.04 255.395C334.463 255.684 333.741 255.829 333.019 255.829C331.72 255.829 330.565 255.395 329.843 254.529C329.122 253.662 328.688 252.506 328.688 251.062C328.688 249.473 329.122 248.173 329.988 247.161C330.854 246.15 332.153 245.717 333.741 245.717C334.896 245.717 335.762 246.006 336.628 246.584C337.494 247.161 338.071 247.884 338.504 248.895C338.937 249.473 339.082 250.773 339.082 252.217ZM333.741 247.45C332.875 247.45 332.153 247.739 331.72 248.317C331.287 248.895 330.998 249.617 330.998 250.628C330.998 251.495 331.142 252.217 331.576 252.651C332.009 253.084 332.586 253.373 333.452 253.373C334.318 253.373 335.04 253.084 335.617 252.651C336.195 252.217 336.483 251.495 336.483 250.917C336.483 250.339 336.339 249.762 336.05 249.184C335.762 248.606 335.473 248.173 335.04 247.884C334.751 247.595 334.318 247.45 333.741 247.45Z" fill="white"/>
<path d="M356.547 249.184C356.547 250.195 356.258 250.917 355.681 251.639C355.103 252.362 354.237 252.795 353.227 252.94V253.084C354.526 253.228 355.392 253.662 355.969 254.24C356.547 254.817 356.836 255.684 356.836 256.695C356.836 258.14 356.258 259.296 355.248 260.162C354.237 261.029 352.649 261.318 350.773 261.318C349.041 261.318 347.597 261.029 346.442 260.451V258.284C347.164 258.573 347.742 258.862 348.463 259.007C349.185 259.151 349.907 259.296 350.628 259.296C351.783 259.296 352.794 259.007 353.371 258.573C353.949 258.14 354.237 257.418 354.237 256.551C354.237 255.684 353.949 255.106 353.227 254.673C352.505 254.24 351.495 254.095 350.195 254.095H348.896V252.073H350.195C352.649 252.073 353.949 251.206 353.949 249.473C353.949 248.75 353.804 248.317 353.371 247.884C352.938 247.45 352.361 247.306 351.495 247.306C350.917 247.306 350.34 247.45 349.762 247.595C349.185 247.739 348.608 248.028 347.886 248.606L346.731 246.872C348.175 245.861 349.762 245.283 351.639 245.283C353.227 245.283 354.382 245.572 355.248 246.295C356.114 247.017 356.547 248.028 356.547 249.184Z" fill="white"/>
<path d="M368.962 249.184C368.962 250.195 368.673 250.917 368.096 251.639C367.518 252.362 366.652 252.795 365.642 252.94V253.084C366.941 253.228 367.807 253.662 368.385 254.24C368.962 254.817 369.251 255.684 369.251 256.695C369.251 258.14 368.673 259.296 367.663 260.162C366.652 261.029 365.065 261.318 363.188 261.318C361.456 261.318 360.012 261.029 358.857 260.451V258.284C359.579 258.573 360.157 258.862 360.878 259.007C361.6 259.151 362.322 259.296 363.044 259.296C364.198 259.296 365.209 259.007 365.786 258.573C366.364 258.14 366.652 257.418 366.652 256.551C366.652 255.684 366.364 255.106 365.642 254.673C364.92 254.24 363.91 254.095 362.611 254.095H361.311V252.073H362.611C365.065 252.073 366.364 251.206 366.364 249.473C366.364 248.75 366.219 248.317 365.786 247.884C365.353 247.45 364.776 247.306 363.91 247.306C363.332 247.306 362.755 247.45 362.177 247.595C361.6 247.739 361.023 248.028 360.301 248.606L359.146 246.872C360.59 245.861 362.177 245.283 364.054 245.283C365.642 245.283 366.797 245.572 367.663 246.295C368.529 247.017 368.962 248.028 368.962 249.184Z" fill="white"/>
<path d="M381.231 249.184C381.231 250.195 380.943 250.917 380.365 251.639C379.788 252.362 378.922 252.795 377.911 252.94V253.084C379.211 253.228 380.077 253.662 380.654 254.24C381.231 254.817 381.52 255.684 381.52 256.695C381.52 258.14 380.943 259.296 379.932 260.162C378.922 261.029 377.334 261.318 375.457 261.318C373.725 261.318 372.282 261.029 371.127 260.451V258.284C371.849 258.573 372.426 258.862 373.148 259.007C373.87 259.151 374.591 259.296 375.313 259.296C376.468 259.296 377.478 259.007 378.056 258.573C378.633 258.14 378.922 257.418 378.922 256.551C378.922 255.684 378.633 255.106 377.911 254.673C377.19 254.24 376.179 254.095 374.88 254.095H373.581V252.073H374.88C377.334 252.073 378.633 251.206 378.633 249.473C378.633 248.75 378.489 248.317 378.056 247.884C377.623 247.45 377.045 247.306 376.179 247.306C375.602 247.306 375.024 247.45 374.447 247.595C373.87 247.739 373.292 248.028 372.57 248.606L371.416 246.872C372.859 245.861 374.447 245.283 376.324 245.283C377.911 245.283 379.066 245.572 379.932 246.295C380.798 247.017 381.231 248.028 381.231 249.184Z" fill="white"/>
<path d="M399.275 249.184C399.275 250.195 398.987 250.917 398.409 251.639C397.832 252.362 396.966 252.795 395.955 252.94V253.084C397.254 253.228 398.121 253.662 398.698 254.24C399.275 254.817 399.564 255.684 399.564 256.695C399.564 258.14 398.987 259.296 397.976 260.162C396.966 261.029 395.378 261.318 393.501 261.318C391.769 261.318 390.326 261.029 389.171 260.451V258.284C389.893 258.573 390.47 258.862 391.192 259.007C391.914 259.151 392.635 259.296 393.357 259.296C394.512 259.296 395.522 259.007 396.1 258.573C396.677 258.14 396.966 257.418 396.966 256.551C396.966 255.684 396.677 255.106 395.955 254.673C395.234 254.24 394.223 254.095 392.924 254.095H391.625V252.073H392.924C395.378 252.073 396.677 251.206 396.677 249.473C396.677 248.75 396.533 248.317 396.1 247.884C395.667 247.45 395.089 247.306 394.223 247.306C393.646 247.306 393.068 247.45 392.491 247.595C391.914 247.739 391.336 248.028 390.614 248.606L389.46 246.872C390.903 245.861 392.491 245.283 394.367 245.283C395.955 245.283 397.11 245.572 397.976 246.295C398.842 247.017 399.275 248.028 399.275 249.184Z" fill="white"/>
<path d="M411.545 249.184C411.545 250.195 411.256 250.917 410.679 251.639C410.101 252.362 409.235 252.795 408.225 252.94V253.084C409.524 253.228 410.39 253.662 410.968 254.24C411.545 254.817 411.834 255.684 411.834 256.695C411.834 258.14 411.256 259.296 410.246 260.162C409.235 261.029 407.647 261.318 405.771 261.318C404.039 261.318 402.595 261.029 401.44 260.451V258.284C402.162 258.573 402.74 258.862 403.461 259.007C404.183 259.151 404.905 259.296 405.627 259.296C406.781 259.296 407.792 259.007 408.369 258.573C408.947 258.14 409.235 257.418 409.235 256.551C409.235 255.684 408.947 255.106 408.225 254.673C407.503 254.24 406.493 254.095 405.194 254.095H403.894V252.073H405.194C407.647 252.073 408.947 251.206 408.947 249.473C408.947 248.75 408.802 248.317 408.369 247.884C407.936 247.45 407.359 247.306 406.493 247.306C405.915 247.306 405.338 247.45 404.76 247.595C404.183 247.739 403.606 248.028 402.884 248.606L401.729 246.872C403.173 245.861 404.76 245.283 406.637 245.283C408.225 245.283 409.38 245.572 410.246 246.295C411.112 247.017 411.545 248.028 411.545 249.184Z" fill="white"/>
<path d="M429.589 249.184C429.589 250.195 429.3 250.917 428.723 251.639C428.145 252.362 427.279 252.795 426.269 252.94V253.084C427.568 253.228 428.434 253.662 429.012 254.24C429.589 254.817 429.878 255.684 429.878 256.695C429.878 258.14 429.3 259.296 428.29 260.162C427.279 261.029 425.691 261.318 423.815 261.318C422.083 261.318 420.639 261.029 419.484 260.451V258.284C420.206 258.573 420.784 258.862 421.505 259.007C422.227 259.151 422.949 259.296 423.671 259.296C424.825 259.296 425.836 259.007 426.413 258.573C426.991 258.14 427.279 257.418 427.279 256.551C427.279 255.684 426.991 255.106 426.269 254.673C425.547 254.24 424.537 254.095 423.238 254.095H421.938V252.073H423.238C425.691 252.073 426.991 251.206 426.991 249.473C426.991 248.75 426.846 248.317 426.413 247.884C425.98 247.45 425.403 247.306 424.537 247.306C423.959 247.306 423.382 247.45 422.804 247.595C422.227 247.739 421.65 248.028 420.928 248.606L419.773 246.872C421.217 245.861 422.804 245.283 424.681 245.283C426.269 245.283 427.424 245.572 428.29 246.295C429.156 247.017 429.589 248.028 429.589 249.184Z" fill="white"/>
<path d="M442.003 249.184C442.003 250.195 441.715 250.917 441.137 251.639C440.56 252.362 439.694 252.795 438.683 252.94V253.084C439.982 253.228 440.849 253.662 441.426 254.24C442.003 254.817 442.292 255.684 442.292 256.695C442.292 258.14 441.715 259.296 440.704 260.162C439.694 261.029 438.106 261.318 436.229 261.318C434.497 261.318 433.054 261.029 431.899 260.451V258.284C432.621 258.573 433.198 258.862 433.92 259.007C434.642 259.151 435.363 259.296 436.085 259.296C437.24 259.296 438.25 259.007 438.828 258.573C439.405 258.14 439.694 257.418 439.694 256.551C439.694 255.684 439.405 255.106 438.683 254.673C437.962 254.24 436.951 254.095 435.652 254.095H434.353V252.073H435.652C438.106 252.073 439.405 251.206 439.405 249.473C439.405 248.75 439.261 248.317 438.828 247.884C438.395 247.45 437.817 247.306 436.951 247.306C436.374 247.306 435.796 247.45 435.219 247.595C434.642 247.739 434.064 248.028 433.342 248.606L432.188 246.872C433.631 245.861 435.219 245.283 437.095 245.283C438.683 245.283 439.838 245.572 440.704 246.295C441.57 247.017 442.003 248.028 442.003 249.184Z" fill="white"/>
<path d="M314.397 288.042C314.397 290.787 313.964 292.665 313.098 293.965C312.232 295.265 310.933 295.987 309.2 295.987C307.468 295.987 306.169 295.265 305.303 293.965C304.437 292.665 304.004 290.642 304.004 288.042C304.004 285.298 304.437 283.275 305.303 281.975C306.169 280.675 307.468 280.097 309.2 280.097C310.933 280.097 312.232 280.819 313.098 282.12C313.964 283.42 314.397 285.442 314.397 288.042ZM306.458 288.042C306.458 290.209 306.747 291.654 307.18 292.52C307.613 293.387 308.334 293.82 309.2 293.82C310.067 293.82 310.788 293.387 311.221 292.376C311.654 291.365 311.943 289.92 311.943 287.898C311.943 285.875 311.654 284.286 311.221 283.42C310.788 282.553 310.067 281.975 309.2 281.975C308.334 281.975 307.613 282.408 307.18 283.275C306.602 284.431 306.458 285.875 306.458 288.042Z" fill="white"/>
<path d="M316.418 289.198C316.418 283.13 318.872 280.097 323.78 280.097C324.502 280.097 325.223 280.097 325.801 280.241V282.264C325.223 282.119 324.646 281.975 323.924 281.975C322.336 281.975 321.037 282.408 320.171 283.275C319.305 284.142 318.872 285.586 318.872 287.609H319.016C319.305 287.031 319.882 286.597 320.46 286.308C321.037 286.02 321.759 285.875 322.625 285.875C324.069 285.875 325.079 286.309 325.945 287.175C326.667 288.042 327.1 289.198 327.1 290.642C327.1 292.231 326.667 293.531 325.801 294.542C324.935 295.554 323.636 295.987 322.048 295.987C320.893 295.987 320.027 295.698 319.161 295.12C318.295 294.542 317.717 293.82 317.284 292.809C316.562 291.798 316.418 290.498 316.418 289.198ZM321.759 293.82C322.625 293.82 323.202 293.531 323.78 292.953C324.213 292.376 324.502 291.653 324.502 290.642C324.502 289.775 324.213 289.053 323.78 288.475C323.347 287.897 322.625 287.753 321.759 287.753C321.182 287.753 320.748 287.897 320.315 288.042C319.882 288.331 319.449 288.62 319.305 289.053C319.016 289.487 318.872 289.92 318.872 290.209C318.872 291.22 319.161 292.087 319.738 292.665C320.171 293.531 320.893 293.82 321.759 293.82Z" fill="white"/>
<path d="M338.503 283.853C338.503 284.864 338.214 285.586 337.637 286.309C337.059 287.031 336.193 287.464 335.183 287.609V287.753C336.482 287.898 337.348 288.331 337.926 288.909C338.503 289.487 338.792 290.353 338.792 291.365C338.792 292.809 338.214 293.965 337.204 294.831C336.193 295.698 334.605 295.987 332.729 295.987C330.997 295.987 329.553 295.698 328.398 295.12V292.954C329.12 293.242 329.698 293.531 330.419 293.676C331.141 293.82 331.863 293.965 332.585 293.965C333.739 293.965 334.75 293.676 335.327 293.242C335.905 292.809 336.193 292.087 336.193 291.22C336.193 290.353 335.905 289.776 335.183 289.342C334.461 288.909 333.451 288.764 332.152 288.764H330.997V286.742H332.296C334.75 286.742 336.049 285.875 336.049 284.142C336.049 283.42 335.905 282.986 335.472 282.553C335.039 282.119 334.461 281.975 333.595 281.975C333.018 281.975 332.44 282.119 331.863 282.264C331.285 282.408 330.708 282.697 329.986 283.275L328.831 281.542C330.275 280.53 331.863 279.953 333.739 279.953C335.327 279.953 336.482 280.242 337.348 280.964C338.214 281.686 338.503 282.697 338.503 283.853Z" fill="white"/>
<path d="M357.702 292.376H355.537V295.698H353.083V292.376H346.01V290.498L353.083 280.242H355.537V290.354H357.558V292.376H357.702ZM353.227 290.209V286.309C353.227 284.864 353.227 283.853 353.372 282.842H353.227C353.083 283.275 352.65 283.853 352.361 284.575L348.464 290.209H353.227Z" fill="white"/>
<path d="M369.972 292.376H367.951V295.698H365.497V292.376H358.424V290.498L365.497 280.242H367.951V290.354H369.972V292.376ZM365.497 290.209V286.309C365.497 284.864 365.497 283.853 365.641 282.842H365.497C365.353 283.275 364.92 283.853 364.631 284.575L360.733 290.209H365.497Z" fill="white"/>
<path d="M382.387 292.376H380.366V295.698H377.912V292.376H370.839V290.498L377.912 280.242H380.366V290.354H382.387V292.376ZM377.912 290.209V286.309C377.912 284.864 377.912 283.853 378.056 282.842H377.912C377.768 283.275 377.335 283.853 377.046 284.575L373.148 290.209H377.912Z" fill="white"/>
<path d="M400.43 292.376H398.409V295.698H395.955V292.376H388.882V290.498L395.955 280.242H398.409V290.354H400.43V292.376ZM395.811 290.209V286.309C395.811 284.864 395.811 283.853 395.955 282.842C395.811 283.275 395.378 283.853 395.089 284.575L391.191 290.209H395.811Z" fill="white"/>
<path d="M412.7 292.376H410.68V295.698H408.226V292.376H401.152V290.498L408.226 280.242H410.68V290.354H412.7V292.376ZM408.226 290.209V286.309C408.226 284.864 408.226 283.853 408.37 282.842H408.226C408.081 283.275 407.648 283.853 407.359 284.575L403.462 290.209H408.226Z" fill="white"/>
<path d="M430.744 292.376H428.723V295.698H426.269V292.376H419.196V290.498L426.269 280.242H428.723V290.354H430.744V292.376ZM426.269 290.209V286.309C426.269 284.864 426.269 283.853 426.413 282.842H426.269C426.125 283.275 425.692 283.853 425.403 284.575L421.505 290.209H426.269Z" fill="white"/>
<path d="M443.157 292.376H441.137V295.698H438.683V292.376H431.609V290.498L438.683 280.242H441.137V290.354H443.157V292.376ZM438.538 290.209V286.309C438.538 284.864 438.538 283.853 438.683 282.842H438.538C438.394 283.275 437.961 283.853 437.672 284.575L433.775 290.209H438.538Z" fill="white"/>
<path d="M465.676 319.822H280.907C276.144 319.822 272.246 315.922 272.246 311.155V155.144C272.246 150.377 276.144 146.477 280.907 146.477H465.676C470.439 146.477 474.337 150.377 474.337 155.144V311.155C474.337 315.922 470.439 319.822 465.676 319.822Z" stroke="#E6E6E6" stroke-width="2" stroke-miterlimit="10" stroke-dasharray="4.97 4.97"/>
<path d="M322.478 339.612C322.478 341.635 322.045 343.079 321.035 344.235C320.024 345.391 318.581 345.968 316.848 345.968C314.972 345.968 313.673 345.391 312.662 344.235C311.652 343.079 311.219 341.49 311.219 339.468C311.219 337.446 311.652 335.857 312.662 334.846C313.673 333.834 315.116 333.112 316.848 333.112C318.581 333.112 320.024 333.69 321.035 334.846C322.045 336.001 322.478 337.735 322.478 339.612ZM312.518 339.612C312.518 341.346 312.807 342.502 313.528 343.368C314.25 344.235 315.261 344.668 316.704 344.668C318.003 344.668 319.158 344.235 319.88 343.368C320.602 342.502 320.89 341.201 320.89 339.612C320.89 337.879 320.602 336.723 319.88 335.857C319.158 334.99 318.148 334.557 316.848 334.557C315.549 334.557 314.394 334.99 313.673 335.857C312.951 336.723 312.518 338.024 312.518 339.612Z" fill="white"/>
<path d="M324.499 340.335C324.499 338.312 324.788 336.723 325.365 335.568C325.943 334.412 326.953 333.69 328.252 333.401C329.84 333.112 331.283 332.823 332.583 332.534L332.871 333.834C330.85 334.123 329.551 334.412 328.685 334.557C327.819 334.701 327.242 335.134 326.809 335.857C326.376 336.579 326.231 337.446 326.087 338.746H326.231C326.52 338.312 327.097 337.879 327.53 337.59C327.963 337.301 328.685 337.157 329.263 337.157C330.417 337.157 331.283 337.59 331.861 338.312C332.438 339.035 332.871 340.046 332.871 341.346C332.871 342.79 332.438 343.946 331.717 344.813C330.995 345.68 329.984 345.968 328.685 345.968C327.386 345.968 326.376 345.535 325.654 344.524C324.932 343.513 324.499 342.068 324.499 340.335ZM328.83 344.813C330.562 344.813 331.428 343.657 331.428 341.49C331.428 339.468 330.706 338.312 329.118 338.312C328.685 338.312 328.252 338.457 327.819 338.601C327.386 338.746 327.097 339.035 326.664 339.324C326.231 339.612 326.087 339.901 325.943 340.19C325.943 341.635 326.231 342.79 326.664 343.513C327.097 344.235 327.819 344.813 328.83 344.813Z" fill="white"/>
<path d="M342.254 344.669H346.296V336.579H347.739V344.669H349.039V349.002H347.595V345.824H335.325V336.579H336.769V344.669H340.811V336.579H342.254V344.669Z" fill="white"/>
<path d="M352.214 336.579V342.502V344.091V344.524L357.266 336.579H358.999V345.824H357.7V340.19V339.035V337.879L352.647 345.824H350.915V336.579H352.214Z" fill="white"/>
<path d="M365.784 346.113C364.484 346.113 363.33 345.68 362.608 344.813C361.886 343.946 361.453 342.791 361.453 341.346C361.453 339.901 361.886 338.601 362.608 337.735C363.33 336.868 364.34 336.435 365.639 336.435C366.794 336.435 367.66 336.868 368.382 337.59C369.104 338.312 369.392 339.324 369.392 340.624V341.49H362.752C362.752 342.646 363.041 343.368 363.618 343.946C364.196 344.524 364.918 344.813 365.784 344.813C366.794 344.813 367.805 344.668 368.815 344.235V345.535C368.382 345.68 367.805 345.969 367.371 345.969C366.938 345.969 366.361 346.113 365.784 346.113ZM365.351 337.59C364.629 337.59 364.051 337.879 363.618 338.312C363.185 338.746 362.897 339.468 362.897 340.335H367.805C367.805 339.468 367.66 338.746 367.227 338.312C366.794 337.879 366.072 337.59 365.351 337.59Z" fill="white"/>
<path d="M377.475 336.579V340.479H382.671V336.579H384.115V345.824H382.671V341.635H377.475V345.824H376.031V336.579H377.475Z" fill="white"/>
<path d="M394.942 341.202C394.942 342.646 394.509 343.946 393.788 344.813C393.066 345.68 391.911 346.113 390.612 346.113C389.746 346.113 389.024 345.969 388.447 345.535C387.869 345.102 387.292 344.524 387.003 343.802C386.714 343.079 386.426 342.213 386.426 341.202C386.426 339.757 386.859 338.457 387.581 337.735C388.302 337.012 389.457 336.435 390.756 336.435C392.055 336.435 393.066 336.868 393.788 337.735C394.509 338.601 394.942 339.757 394.942 341.202ZM387.869 341.202C387.869 342.357 388.158 343.224 388.591 343.946C389.024 344.668 389.746 344.813 390.612 344.813C391.478 344.813 392.2 344.524 392.777 343.946C393.355 343.368 393.499 342.357 393.499 341.202C393.499 340.046 393.21 339.179 392.777 338.457C392.344 337.735 391.622 337.59 390.612 337.59C389.746 337.59 389.024 337.879 388.591 338.457C388.158 339.035 387.869 340.046 387.869 341.202Z" fill="white"/>
<path d="M402.303 344.524L402.592 343.802L403.025 342.791L405.479 336.724H407.211V345.969H405.912V338.313L405.768 338.746L405.335 340.046L402.881 345.969H401.726L399.272 340.046C398.983 339.324 398.839 338.746 398.695 338.313V345.969H397.396V336.724H399.128L401.582 342.646C401.87 343.08 402.015 343.802 402.303 344.524Z" fill="white"/>
<path d="M414.141 346.113C412.842 346.113 411.687 345.68 410.965 344.813C410.244 343.946 409.811 342.791 409.811 341.346C409.811 339.901 410.244 338.601 410.965 337.735C411.687 336.868 412.698 336.435 413.997 336.435C415.151 336.435 416.018 336.868 416.739 337.59C417.461 338.312 417.75 339.324 417.75 340.624V341.49H411.398C411.398 342.646 411.687 343.368 412.265 343.946C412.842 344.524 413.564 344.813 414.43 344.813C415.44 344.813 416.451 344.668 417.461 344.235V345.535C417.028 345.68 416.451 345.969 416.018 345.969C415.585 345.969 414.718 346.113 414.141 346.113ZM413.708 337.59C412.986 337.59 412.409 337.879 411.976 338.312C411.543 338.746 411.254 339.468 411.254 340.335H416.162C416.162 339.468 416.018 338.746 415.585 338.312C415.151 337.879 414.43 337.59 413.708 337.59Z" fill="white"/>
<path d="M424.246 346.113C423.668 346.113 423.091 345.969 422.658 345.824C422.225 345.68 421.792 345.246 421.359 344.813H421.214C421.214 345.391 421.359 345.824 421.359 346.402V350.158H419.915V336.724H421.07L421.214 338.024C421.647 337.446 421.936 337.157 422.513 336.868C423.091 336.579 423.524 336.579 424.101 336.579C425.4 336.579 426.266 337.012 426.988 337.879C427.71 338.746 427.999 339.902 427.999 341.346C427.999 342.935 427.71 344.091 426.988 344.957C426.266 345.824 425.4 346.113 424.246 346.113ZM423.957 337.59C422.946 337.59 422.369 337.879 421.936 338.313C421.503 338.746 421.359 339.613 421.214 340.768V341.057C421.214 342.357 421.503 343.224 421.936 343.802C422.369 344.38 423.091 344.669 423.957 344.669C424.823 344.669 425.4 344.38 425.833 343.657C426.266 342.935 426.555 342.068 426.555 340.913C426.555 339.757 426.266 338.89 425.833 338.313C425.4 337.735 424.823 337.59 423.957 337.59Z" fill="white"/>
<path d="M436.226 345.824L435.938 344.524C435.505 345.102 435.072 345.535 434.494 345.68C433.917 345.824 433.484 345.969 432.762 345.969C431.896 345.969 431.174 345.68 430.597 345.246C430.019 344.813 429.875 344.091 429.875 343.224C429.875 341.346 431.319 340.335 434.35 340.335H435.938V339.757C435.938 339.035 435.793 338.457 435.505 338.168C435.216 337.879 434.639 337.59 434.061 337.59C433.339 337.59 432.473 337.879 431.463 338.313L431.03 337.301C431.463 337.012 432.04 336.868 432.473 336.724C432.906 336.579 433.628 336.579 434.061 336.579C435.216 336.579 435.938 336.868 436.515 337.301C437.092 337.735 437.381 338.601 437.381 339.613V345.969H436.226V345.824ZM433.051 344.813C433.917 344.813 434.639 344.524 435.072 344.091C435.505 343.657 435.793 342.935 435.793 342.068V341.202H434.35C433.195 341.202 432.473 341.346 431.896 341.779C431.319 342.213 431.174 342.502 431.174 343.224C431.174 343.802 431.319 344.091 431.607 344.38C431.896 344.668 432.473 344.813 433.051 344.813Z" fill="white"/>
<path d="M338.501 356.803H340.089L336.047 361.281L340.378 366.048H338.79L334.604 361.281V366.048H333.16V356.803H334.604V361.281L338.501 356.803Z" fill="white"/>
<path d="M350.049 361.425C350.049 362.87 349.616 364.17 348.894 365.037C348.172 365.903 347.018 366.337 345.718 366.337C344.852 366.337 344.131 366.192 343.553 365.759C342.976 365.325 342.398 364.748 342.11 364.025C341.821 363.303 341.532 362.436 341.532 361.425C341.532 359.981 341.965 358.681 342.687 357.958C343.409 357.236 344.564 356.658 345.863 356.658C347.162 356.658 348.172 357.092 348.894 357.958C349.616 358.825 350.049 359.981 350.049 361.425ZM343.12 361.425C343.12 362.581 343.409 363.448 343.842 364.17C344.275 364.892 344.997 365.037 345.863 365.037C346.729 365.037 347.451 364.748 348.028 364.17C348.605 363.592 348.75 362.581 348.75 361.425C348.75 360.27 348.461 359.403 348.028 358.681C347.595 357.958 346.873 357.814 345.863 357.814C344.997 357.814 344.275 358.103 343.842 358.681C343.409 359.258 343.12 360.27 343.12 361.425Z" fill="white"/>
<path d="M357.411 364.748L357.7 364.026L358.133 363.014L360.587 356.947H362.319V366.192H361.02V358.536L360.875 358.97L360.442 360.27L357.988 366.192H356.833L354.379 360.27C354.091 359.547 353.946 358.97 353.802 358.536V366.192H352.503V356.947H354.235L356.689 362.87C356.978 363.303 357.122 364.026 357.411 364.748Z" fill="white"/>
<path d="M366.649 366.048H365.205V356.802H373V366.048H371.557V357.958H366.649V366.048Z" fill="white"/>
<path d="M381.806 366.048L381.518 364.747C381.085 365.325 380.652 365.759 380.074 365.903C379.497 366.048 379.064 366.192 378.342 366.192C377.476 366.192 376.754 365.903 376.177 365.47C375.599 365.036 375.455 364.314 375.455 363.447C375.455 361.569 376.899 360.558 379.93 360.558H381.518V359.98C381.518 359.258 381.373 358.68 381.085 358.391C380.796 358.103 380.219 357.814 379.641 357.814C378.919 357.814 378.053 358.103 377.043 358.536L376.61 357.525C377.043 357.236 377.62 357.091 378.053 356.947C378.486 356.802 379.208 356.802 379.641 356.802C380.796 356.802 381.518 357.091 382.095 357.525C382.673 357.958 382.961 358.825 382.961 359.836V366.192H381.806V366.048ZM378.631 365.036C379.497 365.036 380.219 364.747 380.652 364.314C381.085 363.881 381.373 363.158 381.373 362.292V361.425H379.93C378.775 361.425 378.053 361.569 377.476 362.003C376.899 362.436 376.754 362.725 376.754 363.447C376.754 364.025 376.899 364.314 377.187 364.603C377.476 364.892 378.053 365.036 378.631 365.036Z" fill="white"/>
<path d="M387.147 356.802V360.703H392.343V356.802H393.787V366.048H392.343V361.858H387.147V366.048H385.703V356.802H387.147Z" fill="white"/>
<path d="M397.974 356.802V362.725V364.314V364.747L403.026 356.802H404.758V366.048H403.459V360.414V359.258V358.103L398.407 366.048H396.675V356.802H397.974Z" fill="white"/>
<path d="M408.945 356.802V362.725V364.314V364.747L413.997 356.802H415.729V366.048H414.43V360.414V359.258V358.103L409.378 366.048H407.646V356.802H408.945Z" fill="white"/>
<path d="M83.1445 47.6704H104.941" stroke="white" stroke-width="2" stroke-miterlimit="10"/>
<path d="M102.343 83.0619H85.7425C84.1546 83.0619 82.8555 81.7618 82.8555 80.1728V44.3481C82.8555 42.7591 84.1546 41.459 85.7425 41.459H102.343C103.931 41.459 105.23 42.7591 105.23 44.3481V80.1728C105.23 81.7618 103.931 83.0619 102.343 83.0619Z" stroke="white" stroke-width="2" stroke-miterlimit="10"/>
<path d="M83.1445 73.239H104.941" stroke="white" stroke-width="2" stroke-miterlimit="10"/>
<path d="M93.6816 79.7395C94.5586 79.7395 95.2695 79.0281 95.2695 78.1505C95.2695 77.2729 94.5586 76.5615 93.6816 76.5615C92.8047 76.5615 92.0938 77.2729 92.0938 78.1505C92.0938 79.0281 92.8047 79.7395 93.6816 79.7395Z" fill="white"/>
<path d="M39.6978 136.799C28.1498 136.799 16.4574 136.799 4.90936 136.799C2.45541 136.799 0.86755 135.643 0.290148 133.476C0.145798 133.187 0.145798 132.754 0.145798 132.465C0.145798 129.431 0.145798 126.398 0.145798 123.364C0.0014476 118.308 2.88846 114.986 7.50767 113.541C12.1269 112.097 16.8904 111.086 21.654 109.786C22.0871 109.641 22.5201 109.497 22.8088 109.063C23.9636 108.052 24.9741 106.897 25.9845 105.885C26.1289 105.741 26.2732 105.596 26.4176 105.452C26.8506 104.874 26.5619 101.407 25.9845 100.974C22.3758 96.9292 20.2105 92.1622 19.4888 86.8174C19.2001 84.9394 19.2001 82.9171 18.9114 81.0392C18.767 79.1613 18.4783 77.1389 18.334 75.261C18.1896 73.3831 17.9009 71.5052 17.7566 69.6273C17.6122 68.3272 17.4679 66.8826 17.6122 65.5826C17.7566 61.2489 19.6331 57.782 22.9532 55.0374C25.6958 52.7261 29.0159 51.8594 32.4803 51.8594C37.0995 51.8594 41.8631 51.8594 46.4823 51.8594C50.6685 51.8594 54.2772 53.3039 57.1642 56.3375C59.9069 59.2266 61.3504 62.549 61.206 66.5937C61.0617 69.6273 60.6286 72.6608 60.4843 75.6944C60.1956 78.5835 60.0512 81.3281 59.7625 84.2172C59.3295 90.5732 57.4529 96.3514 53.1224 101.118C52.6894 101.552 52.545 102.13 52.4007 102.852C52.112 105.019 52.9781 106.463 54.4216 107.908C56.0094 109.497 57.7416 110.363 59.9069 110.941C63.8043 111.808 67.7018 112.819 71.5993 113.975C74.4863 114.842 76.9402 116.575 78.095 119.464C78.5281 120.62 78.8168 121.775 78.8168 122.931C78.9611 126.109 78.8168 129.287 78.8168 132.465C78.9611 134.921 77.0846 137.232 74.0532 137.232C70.7332 137.232 67.4131 137.232 63.9487 137.232C56.2981 136.799 47.9258 136.799 39.6978 136.799ZM52.545 71.0718C51.6789 71.3607 50.8128 71.6496 49.9467 71.7941C44.6057 72.9497 39.1204 73.2386 33.6351 73.5275C31.6142 73.5275 29.7376 73.5275 27.7167 73.5275C27.428 73.5275 26.995 73.672 26.7063 73.9609C24.6854 76.4166 23.2419 79.0168 22.2314 81.9059C22.0871 82.4837 21.9427 83.206 21.9427 83.7838C22.0871 84.9395 22.2314 86.0951 22.3758 87.2507C23.2419 92.4511 25.5515 97.0736 29.5933 100.685C33.4907 104.007 37.9656 105.452 43.0179 104.152C47.0597 103.141 50.0911 100.829 52.545 97.507C54.999 94.329 56.4425 90.5732 57.0199 86.6729C57.1642 85.3728 57.5973 83.9283 57.3086 82.6282C56.5868 78.5835 54.8546 74.6832 52.545 71.0718ZM58.1747 75.8388C58.319 74.9721 58.319 74.3943 58.319 73.9609C58.4634 72.083 58.6077 70.2051 58.8964 68.3272C59.4738 63.8491 58.0303 60.0933 54.4216 57.0597C52.112 55.1818 49.3693 54.4596 46.4823 54.4596C42.1518 54.4596 37.6769 54.4596 33.3464 54.4596C32.1916 54.4596 31.0368 54.604 29.882 54.7485C24.6854 55.6152 20.3549 60.6711 20.4992 65.8715C20.4992 68.1827 20.7879 70.494 21.0766 72.9497C21.221 74.2498 21.3653 75.6944 21.5097 77.1389C21.7984 76.7055 21.7984 76.5611 21.9427 76.2722C23.0975 74.6832 24.108 73.0942 25.2628 71.5052C25.6958 70.9274 26.2732 70.7829 26.8506 70.7829C32.9133 70.7829 38.8317 70.6385 44.7501 69.9162C47.204 69.6273 49.8023 69.3384 52.112 68.0383C52.9781 67.6049 53.5555 67.7494 54.1329 68.6161C54.7103 69.6273 55.2877 70.494 55.8651 71.5052C56.7312 72.9497 57.3086 74.3943 58.1747 75.8388ZM45.6162 123.364C45.4718 124.52 45.1831 125.676 44.317 126.687C44.1727 126.831 44.1727 127.12 44.317 127.265C44.6057 129.287 45.0388 131.165 45.3275 133.187C45.4718 133.91 45.7605 134.054 46.3379 134.054C51.8233 134.054 57.1642 134.054 62.6495 134.054C62.9382 134.054 63.2269 134.054 63.5156 134.054C63.5156 131.743 63.5156 129.431 63.5156 127.265C63.5156 126.831 63.5156 126.542 63.66 126.109C63.8043 125.531 64.3817 125.242 64.9591 125.387C65.5366 125.387 65.9696 125.676 66.114 126.398C66.114 126.687 66.2583 127.12 66.2583 127.409C66.2583 129.431 66.2583 131.454 66.2583 133.476C66.2583 133.91 66.2583 134.198 66.8357 134.198C69.5784 134.198 72.321 134.198 74.9193 134.198C76.2185 134.198 76.7959 133.476 76.7959 132.176C76.7959 129.143 76.7959 125.965 76.7959 122.931C76.7959 121.92 76.5072 121.053 76.2185 120.186C75.3524 117.875 73.3315 116.719 71.1662 116.142C67.1244 114.986 62.9382 113.975 58.8964 112.964C58.1747 112.819 57.3086 112.386 56.7312 112.53C56.1538 112.819 55.8651 113.83 55.432 114.553C53.8442 117.297 52.4007 120.042 50.8128 122.787C50.0911 124.087 48.9362 124.664 47.7814 124.376C46.9153 124.087 46.3379 123.798 45.6162 123.364ZM16.1687 133.91C16.313 134.054 16.313 134.054 16.313 134.054C22.0871 134.054 27.8611 134.054 33.6351 134.054C33.7794 134.054 34.2125 133.765 34.2125 133.476C34.6456 131.598 34.9343 129.72 35.223 127.842C35.223 127.409 35.3673 126.976 35.223 126.687C34.3569 125.676 34.0682 124.52 33.9238 123.364C33.202 123.653 32.6246 124.087 31.9029 124.231C30.6037 124.52 29.5933 123.942 28.8715 122.642C26.995 119.464 25.2628 116.142 23.5306 112.964C23.3862 112.675 23.2419 112.241 22.6645 112.386C18.0453 113.541 13.2817 114.697 8.66247 115.997C4.76501 117.008 3.03281 119.609 3.03281 123.509C3.03281 126.398 3.03281 129.143 3.03281 132.032C3.03281 133.332 3.61021 134.054 5.05371 134.054C7.65202 134.054 10.3947 134.054 12.993 134.054C13.426 134.054 13.5704 133.91 13.5704 133.476C13.5704 132.176 13.5704 130.732 13.5704 129.431C13.5704 128.42 13.5704 127.409 13.7147 126.398C13.8591 125.531 14.2921 125.242 15.1582 125.242C16.0243 125.387 16.313 125.82 16.313 126.976C16.1687 129.431 16.1687 131.743 16.1687 133.91ZM29.4489 104.007C29.1602 105.019 29.4489 105.596 30.1707 106.174C33.202 109.208 36.2334 112.241 39.2648 115.13C39.4091 115.275 39.6978 115.564 39.9865 115.708C43.3066 112.386 46.4823 109.063 49.8024 105.885C50.3798 105.308 50.5241 104.73 50.3798 103.863C43.1622 108.486 36.3778 108.486 29.4489 104.007ZM37.3882 117.731C34.2125 114.553 31.0368 111.375 27.8611 108.197C26.995 109.063 26.1289 109.93 25.2628 110.797C27.2837 114.408 29.3046 118.02 31.3255 121.775C33.4908 120.331 35.5117 119.031 37.3882 117.731ZM42.0074 117.731C44.0283 119.031 46.0492 120.331 48.0701 121.775C50.091 118.02 52.112 114.408 54.1329 110.797C53.2668 109.786 52.4007 108.919 51.5346 108.052C48.3588 111.375 45.1831 114.553 42.0074 117.731ZM36.9552 134.054C38.8317 134.054 40.7083 134.054 42.5848 134.054C42.2961 132.032 41.8631 130.009 41.5744 127.987C40.2752 127.987 39.1204 127.987 37.9656 127.987C37.6769 130.009 37.2439 132.032 36.9552 134.054ZM39.6978 125.242C42.4405 125.387 42.8735 124.953 42.7292 122.209C42.7292 121.631 42.5848 121.342 42.1518 121.053C41.2857 120.62 40.5639 119.609 39.8422 119.609C38.9761 119.609 38.2543 120.475 37.3882 120.909C36.8108 121.198 36.8108 121.631 36.6665 122.209C36.6665 124.953 37.0995 125.387 39.6978 125.242Z" fill="white" stroke="#5581FF" stroke-width="0.25" stroke-miterlimit="10"/>
<path opacity="0.6" d="M1068.62 443.187C1068.62 445.354 1068.05 447.087 1067.04 448.243C1065.88 449.543 1064.44 450.121 1062.56 450.121C1060.54 450.121 1059.1 449.543 1057.94 448.243C1056.79 446.943 1056.35 445.354 1056.35 443.187C1056.35 441.02 1056.93 439.287 1057.94 438.131C1058.95 436.975 1060.54 436.398 1062.56 436.398C1064.44 436.398 1066.03 436.976 1067.04 438.276C1068.05 439.576 1068.62 441.02 1068.62 443.187ZM1057.94 443.187C1057.94 445.065 1058.38 446.365 1059.1 447.376C1059.82 448.243 1060.97 448.821 1062.42 448.821C1063.86 448.821 1065.02 448.387 1065.74 447.376C1066.46 446.51 1066.89 445.065 1066.89 443.187C1066.89 441.454 1066.46 440.009 1065.74 439.142C1065.02 438.276 1063.86 437.698 1062.42 437.698C1060.97 437.698 1059.82 438.131 1059.1 439.142C1058.38 440.154 1057.94 441.454 1057.94 443.187Z" fill="white"/>
<path opacity="0.6" d="M1072.95 449.976H1071.37V439.865H1079.74V449.976H1078.15V441.309H1072.95V449.976Z" fill="white"/>
<path opacity="0.6" d="M1087.25 450.121C1085.8 450.121 1084.65 449.688 1083.78 448.821C1082.92 447.954 1082.48 446.654 1082.48 445.065C1082.48 443.476 1082.92 442.176 1083.64 441.165C1084.5 440.154 1085.51 439.72 1086.81 439.72C1088.11 439.72 1089.12 440.154 1089.84 441.02C1090.57 441.887 1091 442.898 1091 444.343V445.354H1084.07C1084.07 446.51 1084.36 447.376 1084.94 448.099C1085.51 448.676 1086.24 448.965 1087.39 448.965C1088.4 448.965 1089.56 448.676 1090.57 448.243V449.543C1089.99 449.832 1089.56 449.976 1088.98 449.976C1088.55 450.121 1087.97 450.121 1087.25 450.121ZM1086.81 441.02C1085.95 441.02 1085.37 441.309 1084.94 441.743C1084.5 442.32 1084.21 443.043 1084.07 443.909H1089.27C1089.27 442.898 1089.12 442.176 1088.69 441.743C1088.26 441.309 1087.68 441.02 1086.81 441.02Z" fill="white"/>
<path opacity="0.6" d="M1098.22 450.121C1097.5 450.121 1096.92 449.976 1096.48 449.688C1095.91 449.399 1095.47 449.11 1095.19 448.532H1095.04C1095.19 449.11 1095.19 449.688 1095.19 450.265V454.455H1093.6V439.865H1094.9L1095.04 441.309H1095.19C1095.62 440.731 1096.05 440.298 1096.48 440.154C1096.92 440.009 1097.64 439.72 1098.22 439.72C1099.52 439.72 1100.53 440.154 1101.25 441.02C1101.97 441.887 1102.4 443.187 1102.4 444.921C1102.4 446.51 1101.97 447.81 1101.25 448.821C1100.53 449.832 1099.52 450.121 1098.22 450.121ZM1098.07 441.02C1097.06 441.02 1096.34 441.309 1095.91 441.887C1095.47 442.465 1095.19 443.332 1095.19 444.632V444.921C1095.19 446.365 1095.47 447.376 1095.91 447.954C1096.34 448.532 1097.06 448.821 1098.22 448.821C1099.08 448.821 1099.8 448.532 1100.24 447.81C1100.67 447.087 1100.96 446.076 1100.96 444.921C1100.96 443.62 1100.67 442.754 1100.24 442.031C1099.66 441.309 1098.94 441.02 1098.07 441.02Z" fill="white"/>
<path opacity="0.6" d="M1111.21 449.976L1110.92 448.532H1110.77C1110.34 449.11 1109.76 449.543 1109.33 449.832C1108.9 450.121 1108.18 450.121 1107.45 450.121C1106.44 450.121 1105.72 449.832 1105.14 449.398C1104.57 448.821 1104.28 448.098 1104.28 447.232C1104.28 445.209 1105.87 444.198 1109.19 444.054H1110.92V443.476C1110.92 442.754 1110.77 442.176 1110.34 441.742C1110.05 441.309 1109.48 441.165 1108.75 441.165C1107.89 441.165 1107.02 441.453 1105.87 441.887L1105.43 440.731C1105.87 440.442 1106.44 440.298 1107.02 440.153C1107.6 440.009 1108.18 439.865 1108.75 439.865C1109.91 439.865 1110.77 440.153 1111.35 440.731C1111.93 441.309 1112.22 442.176 1112.22 443.331V450.121H1111.21V449.976ZM1107.74 448.821C1108.75 448.821 1109.48 448.532 1109.91 448.098C1110.49 447.521 1110.77 446.798 1110.77 445.932V445.065H1109.19C1108.03 445.065 1107.17 445.354 1106.59 445.643C1106.01 445.932 1105.72 446.509 1105.72 447.232C1105.72 447.809 1105.87 448.243 1106.16 448.532C1106.73 448.676 1107.17 448.821 1107.74 448.821Z" fill="white"/>
<path opacity="0.6" d="M1122.18 441.165H1118.86V449.976H1117.27V441.165H1114.09V439.865H1122.03L1122.18 441.165Z" fill="white"/>
<path opacity="0.6" d="M1132.86 444.92C1132.86 446.509 1132.43 447.809 1131.56 448.821C1130.7 449.687 1129.54 450.265 1128.1 450.265C1127.23 450.265 1126.36 450.121 1125.64 449.687C1124.92 449.254 1124.34 448.676 1124.05 447.809C1123.62 447.087 1123.48 446.076 1123.48 445.065C1123.48 443.476 1123.91 442.176 1124.63 441.309C1125.35 440.442 1126.65 440.009 1128.1 440.009C1129.54 440.009 1130.55 440.442 1131.42 441.453C1132.43 442.031 1132.86 443.331 1132.86 444.92ZM1125.21 444.92C1125.21 446.22 1125.5 447.232 1125.93 447.809C1126.51 448.532 1127.23 448.821 1128.24 448.821C1129.25 448.821 1129.97 448.532 1130.55 447.809C1131.13 447.087 1131.27 446.22 1131.27 444.92C1131.27 443.62 1130.98 442.609 1130.55 442.031C1129.97 441.309 1129.25 441.02 1128.24 441.02C1127.23 441.02 1126.51 441.309 1125.93 442.031C1125.5 442.609 1125.21 443.62 1125.21 444.92Z" fill="white"/>
<path opacity="0.6" d="M1140.22 450.121C1139.5 450.121 1138.92 449.976 1138.49 449.688C1137.91 449.399 1137.48 449.11 1137.19 448.532H1137.05C1137.19 449.11 1137.19 449.688 1137.19 450.265V454.455H1135.6V439.865H1136.9L1137.05 441.309H1137.19C1137.62 440.731 1138.06 440.298 1138.49 440.154C1138.92 440.009 1139.64 439.72 1140.22 439.72C1141.52 439.72 1142.53 440.154 1143.25 441.02C1143.98 441.887 1144.41 443.187 1144.41 444.921C1144.41 446.51 1143.98 447.81 1143.25 448.821C1142.53 449.832 1141.52 450.121 1140.22 450.121ZM1139.93 441.02C1138.92 441.02 1138.2 441.309 1137.77 441.887C1137.33 442.465 1137.05 443.332 1137.05 444.632V444.921C1137.05 446.365 1137.33 447.376 1137.77 447.954C1138.2 448.532 1138.92 448.821 1140.08 448.821C1140.94 448.821 1141.67 448.532 1142.1 447.81C1142.53 447.087 1142.82 446.076 1142.82 444.921C1142.82 443.62 1142.53 442.754 1142.1 442.031C1141.52 441.309 1140.94 441.02 1139.93 441.02Z" fill="white"/>
<path opacity="0.6" d="M1160 449.976H1151.19V448.676L1154.66 445.065C1155.67 443.909 1156.39 443.187 1156.82 442.754C1157.11 442.32 1157.4 441.887 1157.54 441.454C1157.69 441.02 1157.83 440.587 1157.83 440.009C1157.83 439.287 1157.54 438.709 1157.11 438.276C1156.68 437.842 1156.1 437.698 1155.38 437.698C1154.8 437.698 1154.22 437.842 1153.79 437.987C1153.36 438.131 1152.78 438.565 1152.06 438.998L1151.19 437.987C1152.49 436.976 1153.79 436.398 1155.23 436.398C1156.53 436.398 1157.54 436.687 1158.12 437.409C1158.84 437.987 1159.13 438.853 1159.13 440.009C1159.13 440.876 1158.84 441.742 1158.41 442.465C1157.98 443.331 1157.11 444.343 1155.67 445.643L1152.78 448.532V448.676H1159.71V449.976H1160Z" fill="white"/>
<path opacity="0.6" d="M1068.62 163.812C1068.62 165.979 1068.05 167.712 1067.04 168.868C1065.88 170.168 1064.44 170.746 1062.56 170.746C1060.54 170.746 1059.1 170.168 1057.94 168.868C1056.79 167.568 1056.35 165.979 1056.35 163.812C1056.35 161.645 1056.93 159.912 1057.94 158.756C1058.95 157.6 1060.54 157.022 1062.56 157.022C1064.44 157.022 1066.03 157.6 1067.04 158.9C1068.05 160.2 1068.62 161.645 1068.62 163.812ZM1057.94 163.812C1057.94 165.69 1058.38 166.99 1059.1 168.001C1059.82 168.868 1060.97 169.446 1062.42 169.446C1063.86 169.446 1065.02 169.012 1065.74 168.001C1066.46 167.134 1066.89 165.69 1066.89 163.812C1066.89 162.078 1066.46 160.634 1065.74 159.767C1065.02 158.9 1063.86 158.323 1062.42 158.323C1060.97 158.323 1059.82 158.756 1059.1 159.767C1058.38 160.634 1057.94 162.078 1057.94 163.812Z" fill="white"/>
<path opacity="0.6" d="M1072.95 170.601H1071.37V160.489H1079.74V170.601H1078.15V161.934H1072.95V170.601Z" fill="white"/>
<path opacity="0.6" d="M1087.25 170.745C1085.8 170.745 1084.65 170.312 1083.78 169.445C1082.92 168.579 1082.48 167.279 1082.48 165.69C1082.48 164.101 1082.92 162.8 1083.64 161.789C1084.5 160.778 1085.51 160.345 1086.81 160.345C1088.11 160.345 1089.12 160.778 1089.84 161.645C1090.57 162.512 1091 163.523 1091 164.967V165.978H1084.07C1084.07 167.134 1084.36 168.001 1084.94 168.723C1085.51 169.301 1086.24 169.59 1087.39 169.59C1088.4 169.59 1089.56 169.301 1090.57 168.868V170.168C1089.99 170.457 1089.56 170.601 1088.98 170.601C1088.55 170.745 1087.97 170.745 1087.25 170.745ZM1086.81 161.645C1085.95 161.645 1085.37 161.934 1084.94 162.367C1084.5 162.945 1084.21 163.667 1084.07 164.534H1089.27C1089.27 163.523 1089.12 162.8 1088.69 162.367C1088.26 161.934 1087.68 161.645 1086.81 161.645Z" fill="white"/>
<path opacity="0.6" d="M1098.22 170.745C1097.5 170.745 1096.92 170.601 1096.48 170.312C1095.91 170.023 1095.47 169.734 1095.19 169.156H1095.04C1095.19 169.734 1095.19 170.312 1095.19 170.89V175.079H1093.6V160.489H1094.9L1095.04 161.934H1095.19C1095.62 161.356 1096.05 160.923 1096.48 160.778C1096.92 160.634 1097.64 160.345 1098.22 160.345C1099.52 160.345 1100.53 160.778 1101.25 161.645C1101.97 162.512 1102.4 163.812 1102.4 165.545C1102.4 167.134 1101.97 168.434 1101.25 169.445C1100.53 170.457 1099.52 170.745 1098.22 170.745ZM1098.07 161.645C1097.06 161.645 1096.34 161.934 1095.91 162.512C1095.47 163.089 1095.19 163.956 1095.19 165.256V165.545C1095.19 166.99 1095.47 168.001 1095.91 168.579C1096.34 169.156 1097.06 169.445 1098.22 169.445C1099.08 169.445 1099.8 169.156 1100.24 168.434C1100.67 167.712 1100.96 166.701 1100.96 165.545C1100.96 164.245 1100.67 163.378 1100.24 162.656C1099.66 161.934 1098.94 161.645 1098.07 161.645Z" fill="white"/>
<path opacity="0.6" d="M1111.21 170.601L1110.92 169.157H1110.77C1110.34 169.734 1109.76 170.168 1109.33 170.457C1108.9 170.746 1108.18 170.746 1107.45 170.746C1106.44 170.746 1105.72 170.457 1105.14 170.023C1104.57 169.445 1104.28 168.723 1104.28 167.856C1104.28 165.834 1105.87 164.823 1109.19 164.678H1110.92V164.101C1110.92 163.378 1110.77 162.801 1110.34 162.367C1110.05 161.934 1109.48 161.789 1108.75 161.789C1107.89 161.789 1107.02 162.078 1105.87 162.512L1105.43 161.356C1105.87 161.067 1106.44 160.923 1107.02 160.778C1107.6 160.634 1108.18 160.489 1108.75 160.489C1109.91 160.489 1110.77 160.778 1111.35 161.356C1111.93 161.934 1112.22 162.801 1112.22 163.956V170.746H1111.21V170.601ZM1107.74 169.445C1108.75 169.445 1109.48 169.157 1109.91 168.723C1110.49 168.145 1110.77 167.423 1110.77 166.556V165.69H1109.19C1108.03 165.69 1107.17 165.979 1106.59 166.267C1106.01 166.556 1105.72 167.134 1105.72 167.856C1105.72 168.434 1105.87 168.868 1106.16 169.157C1106.73 169.301 1107.17 169.445 1107.74 169.445Z" fill="white"/>
<path opacity="0.6" d="M1122.18 161.789H1118.86V170.601H1117.27V161.789H1114.09V160.489H1122.03L1122.18 161.789Z" fill="white"/>
<path opacity="0.6" d="M1132.86 165.545C1132.86 167.134 1132.43 168.434 1131.56 169.445C1130.7 170.312 1129.54 170.89 1128.1 170.89C1127.23 170.89 1126.36 170.746 1125.64 170.312C1124.92 169.879 1124.34 169.301 1124.05 168.434C1123.62 167.712 1123.48 166.701 1123.48 165.69C1123.48 164.101 1123.91 162.801 1124.63 161.934C1125.35 161.067 1126.65 160.634 1128.1 160.634C1129.54 160.634 1130.55 161.067 1131.42 162.078C1132.43 162.656 1132.86 163.956 1132.86 165.545ZM1125.21 165.545C1125.21 166.845 1125.5 167.856 1125.93 168.434C1126.51 169.157 1127.23 169.445 1128.24 169.445C1129.25 169.445 1129.97 169.157 1130.55 168.434C1131.13 167.712 1131.27 166.845 1131.27 165.545C1131.27 164.245 1130.98 163.234 1130.55 162.656C1129.97 161.934 1129.25 161.645 1128.24 161.645C1127.23 161.645 1126.51 161.934 1125.93 162.656C1125.5 163.234 1125.21 164.245 1125.21 165.545Z" fill="white"/>
<g opacity="0.6" filter="url(#filter0_d)">
<path d="M1140.22 170.745C1139.5 170.745 1138.92 170.601 1138.49 170.312C1137.91 170.023 1137.48 169.734 1137.19 169.156H1137.05C1137.19 169.734 1137.19 170.312 1137.19 170.89V175.079H1135.6V160.489H1136.9L1137.05 161.934H1137.19C1137.62 161.356 1138.06 160.923 1138.49 160.778C1138.92 160.634 1139.64 160.345 1140.22 160.345C1141.52 160.345 1142.53 160.778 1143.25 161.645C1143.98 162.512 1144.41 163.812 1144.41 165.545C1144.41 167.134 1143.98 168.434 1143.25 169.445C1142.53 170.457 1141.52 170.745 1140.22 170.745ZM1139.93 161.645C1138.92 161.645 1138.2 161.934 1137.77 162.512C1137.33 163.089 1137.05 163.956 1137.05 165.256V165.545C1137.05 166.99 1137.33 168.001 1137.77 168.579C1138.2 169.156 1138.92 169.445 1140.08 169.445C1140.94 169.445 1141.67 169.156 1142.1 168.434C1142.53 167.712 1142.82 166.701 1142.82 165.545C1142.82 164.245 1142.53 163.378 1142.1 162.656C1141.52 161.934 1140.94 161.645 1139.93 161.645Z" fill="white"/>
</g>
<path opacity="0.6" d="M1156.82 170.601H1155.38V161.067C1155.38 160.345 1155.38 159.478 1155.52 158.756C1155.38 158.9 1155.23 159.045 1155.09 159.189C1154.95 159.334 1154.22 159.911 1152.93 160.923L1152.06 159.911L1155.67 157.167H1156.97V170.601H1156.82Z" fill="white"/>
<path opacity="0.6" d="M11.691 168.579H9.81446L3.60739 161.789V168.579H2.01953V155.145H3.60739V161.645L9.6701 155.145H11.4023L5.48394 161.645L11.691 168.579Z" fill="white"/>
<path opacity="0.6" d="M20.7857 168.579H19.1978V159.767H16.1664C16.0221 161.934 15.7334 163.667 15.4447 164.967C15.156 166.268 14.7229 167.134 14.2899 167.712C13.8568 168.29 13.2794 168.579 12.5577 168.579C12.269 168.579 11.9803 168.579 11.8359 168.434V167.279C11.9803 167.279 12.1246 167.279 12.269 167.279C12.9907 167.279 13.5681 166.556 14.0012 165.112C14.4342 163.667 14.7229 161.356 15.0116 158.323H20.93L20.7857 168.579Z" fill="white"/>
<path opacity="0.6" d="M25.4044 158.467V164.823V166.556V167.134L30.8898 158.612H32.7663V168.723H31.3228V162.656V161.501V160.345L25.8375 168.868H23.9609V158.756H25.4044V158.467Z" fill="white"/>
<path opacity="0.6" d="M40.1288 168.723C38.6853 168.723 37.5305 168.29 36.6644 167.423C35.7983 166.556 35.3652 165.256 35.3652 163.667C35.3652 162.078 35.7983 160.778 36.52 159.767C37.3861 158.756 38.3966 158.323 39.6958 158.323C40.9949 158.323 42.0054 158.756 42.7271 159.623C43.4489 160.489 43.8819 161.501 43.8819 162.945V163.956H36.9531C36.9531 165.112 37.2418 165.979 37.8192 166.701C38.3966 167.279 39.1183 167.568 40.2732 167.568C41.2836 167.568 42.4384 167.279 43.4489 166.845V168.145C42.8715 168.434 42.4384 168.579 41.861 168.579C41.428 168.723 40.8506 168.723 40.1288 168.723ZM39.6958 159.623C38.8296 159.623 38.2522 159.912 37.8192 160.345C37.3861 160.923 37.0974 161.645 36.9531 162.512H42.1497C42.1497 161.501 42.0054 160.778 41.5723 160.345C41.1393 159.912 40.5619 159.623 39.6958 159.623Z" fill="white"/>
<path opacity="0.6" d="M47.9228 158.467V162.656H53.5525V158.467H55.1404V168.579H53.5525V164.101H47.9228V168.579H46.335V158.467H47.9228Z" fill="white"/>
<path opacity="0.6" d="M65.1012 159.767H61.7811V168.579H60.1933V159.767H57.0176V158.467H64.9568L65.1012 159.767Z" fill="white"/>
<path opacity="0.6" d="M76.7929 168.579H75.3494V159.045C75.3494 158.323 75.3494 157.456 75.4937 156.734C75.3494 156.878 75.205 157.022 75.0607 157.167C74.9163 157.311 74.1946 157.889 72.8954 158.9L72.0293 157.889L75.6381 155.145H76.9372L76.7929 168.579Z" fill="white"/>
<path opacity="0.6" d="M11.691 446.509H9.81446L3.60739 439.72V446.509H2.01953V433.075H3.60739V439.576L9.6701 433.075H11.4023L5.48394 439.576L11.691 446.509Z" fill="white"/>
<path opacity="0.6" d="M20.7857 446.509H19.1978V437.697H16.1664C16.0221 439.864 15.7334 441.598 15.4447 442.898C15.156 444.198 14.7229 445.065 14.2899 445.642C13.8568 446.22 13.2794 446.509 12.5577 446.509C12.269 446.509 11.9803 446.509 11.8359 446.365V445.209C11.9803 445.209 12.1246 445.209 12.269 445.209C12.9907 445.209 13.5681 444.487 14.0012 443.042C14.4342 441.598 14.7229 439.286 15.0116 436.253H20.93L20.7857 446.509Z" fill="white"/>
<path opacity="0.6" d="M25.4044 436.542V442.898V444.631V445.209L30.8898 436.686H32.7663V446.798H31.3228V440.731V439.576V438.42L25.8375 446.943H23.9609V436.831H25.4044V436.542Z" fill="white"/>
<path opacity="0.6" d="M40.1288 446.654C38.6853 446.654 37.5305 446.22 36.6644 445.354C35.7983 444.487 35.3652 443.187 35.3652 441.598C35.3652 440.009 35.7983 438.709 36.52 437.697C37.3861 436.686 38.3966 436.253 39.6958 436.253C40.9949 436.253 42.0054 436.686 42.7271 437.553C43.4489 438.42 43.8819 439.431 43.8819 440.875V441.887H36.9531C36.9531 443.042 37.2418 443.909 37.8192 444.631C38.3966 445.209 39.1183 445.498 40.2732 445.498C41.2836 445.498 42.4384 445.209 43.4489 444.776V446.076C42.8715 446.365 42.4384 446.509 41.861 446.509C41.428 446.654 40.8506 446.654 40.1288 446.654ZM39.6958 437.553C38.8296 437.553 38.2522 437.842 37.8192 438.275C37.3861 438.853 37.0974 439.575 36.9531 440.442H42.1497C42.1497 439.431 42.0054 438.709 41.5723 438.275C41.1393 437.842 40.5619 437.553 39.6958 437.553Z" fill="white"/>
<path opacity="0.6" d="M47.9228 436.542V440.731H53.5525V436.542H55.1404V446.654H53.5525V442.176H47.9228V446.654H46.335V436.542H47.9228Z" fill="white"/>
<path opacity="0.6" d="M65.1012 437.842H61.7811V446.654H60.1933V437.842H57.0176V436.542H64.9568L65.1012 437.842Z" fill="white"/>
<path opacity="0.6" d="M79.9685 446.509H71.1631V445.209L74.6275 441.598C75.6379 440.442 76.3597 439.72 76.7927 439.287C77.0814 438.853 77.3701 438.42 77.5145 437.987C77.6588 437.553 77.8032 437.12 77.8032 436.542C77.8032 435.82 77.5145 435.242 77.0814 434.809C76.6484 434.375 76.071 434.231 75.3492 434.231C74.7718 434.231 74.1944 434.375 73.7614 434.52C73.3283 434.664 72.7509 435.097 72.0292 435.531L71.1631 434.52C72.4622 433.508 73.7614 432.931 75.2049 432.931C76.504 432.931 77.5145 433.22 78.0919 433.942C78.8136 434.52 79.1023 435.386 79.1023 436.542C79.1023 437.409 78.8136 438.275 78.3806 438.998C77.9475 439.864 77.0814 440.876 75.6379 442.176L72.7509 445.065V445.209H79.6798V446.509H79.9685Z" fill="white"/>
<path d="M112.881 355.214C109.85 352.614 109.561 352.18 106.819 349.869C105.519 348.858 104.076 347.847 102.777 349.436C99.4567 353.625 96.714 351.458 91.9505 344.669C87.7643 338.746 86.0321 334.99 91.3731 333.257C93.394 332.534 93.1053 330.945 92.5279 329.356C91.3731 326.178 90.94 325.312 89.6409 321.845C88.9191 319.967 87.1869 319.245 84.4443 320.256C78.6702 322.278 77.9485 332.39 88.1974 347.269L88.4861 347.702C98.3019 361.714 108.695 364.459 112.304 360.414C114.325 358.103 114.18 356.369 112.881 355.214Z" stroke="white" stroke-width="2" stroke-miterlimit="10"/>
<path d="M39.6978 415.451C28.1498 415.451 16.4574 415.451 4.90936 415.451C2.45541 415.451 0.86755 414.295 0.290148 412.129C0.145798 411.84 0.145798 411.406 0.145798 411.117C0.145798 408.084 0.145798 405.05 0.145798 402.017C0.0014476 396.961 2.88846 393.638 7.50767 392.194C12.1269 390.749 16.8904 389.738 21.654 388.438C22.0871 388.294 22.5201 388.149 22.8088 387.716C23.9636 386.705 24.9741 385.549 25.9845 384.538C26.1289 384.393 26.2732 384.249 26.4176 384.104C26.8506 383.527 26.5619 380.06 25.9845 379.626C22.3758 375.582 20.2105 370.815 19.4888 365.47C19.2001 363.592 19.2001 361.569 18.9114 359.692C18.767 357.814 18.4783 355.791 18.334 353.913C18.1896 352.035 17.9009 350.158 17.7566 348.28C17.6122 346.98 17.4679 345.535 17.6122 344.235C17.7566 339.901 19.6331 336.434 22.9532 333.69C25.6958 331.378 29.0159 330.512 32.4803 330.512C37.0995 330.512 41.8631 330.512 46.4823 330.512C50.6685 330.512 54.2772 331.956 57.1642 334.99C59.9069 337.879 61.3504 341.201 61.206 345.246C61.0617 348.28 60.6286 351.313 60.4843 354.347C60.1956 357.236 60.0512 359.98 59.7625 362.87C59.3295 369.226 57.4529 375.004 53.1224 379.771C52.6894 380.204 52.545 380.782 52.4007 381.504C52.112 383.671 52.9781 385.116 54.4216 386.56C56.0094 388.149 57.7416 389.016 59.9069 389.594C63.8043 390.46 67.7018 391.472 71.5993 392.627C74.4863 393.494 76.9402 395.227 78.095 398.117C78.5281 399.272 78.8168 400.428 78.8168 401.583C78.9611 404.761 78.8168 407.939 78.8168 411.117C78.9611 413.573 77.0846 415.884 74.0532 415.884C70.7332 415.884 67.4131 415.884 63.9487 415.884C56.2981 415.451 47.9258 415.451 39.6978 415.451ZM52.545 349.724C51.6789 350.013 50.8128 350.302 49.9467 350.446C44.6057 351.602 39.1204 351.891 33.6351 352.18C31.6142 352.18 29.7376 352.18 27.7167 352.18C27.428 352.18 26.995 352.324 26.7063 352.613C24.6854 355.069 23.2419 357.669 22.2314 360.558C22.0871 361.136 21.9427 361.858 21.9427 362.436C22.0871 363.592 22.2314 364.747 22.3758 365.903C23.2419 371.103 25.5515 375.726 29.5933 379.337C33.4907 382.66 37.9656 384.104 43.0179 382.804C47.0597 381.793 50.0911 379.482 52.545 376.159C54.999 372.981 56.4425 369.226 57.0199 365.325C57.1642 364.025 57.5973 362.581 57.3086 361.281C56.5868 357.236 54.8546 353.336 52.545 349.724ZM58.1747 354.491C58.319 353.624 58.319 353.047 58.319 352.613C58.4634 350.735 58.6077 348.857 58.8964 346.98C59.4738 342.501 58.0303 338.746 54.4216 335.712C52.112 333.834 49.3693 333.112 46.4823 333.112C42.1518 333.112 37.6769 333.112 33.3464 333.112C32.1916 333.112 31.0368 333.256 29.882 333.401C24.6854 334.268 20.3549 339.323 20.4992 344.524C20.4992 346.835 20.7879 349.146 21.0766 351.602C21.221 352.902 21.3653 354.347 21.5097 355.791C21.7984 355.358 21.7984 355.213 21.9427 354.925C23.0975 353.336 24.108 351.747 25.2628 350.158C25.6958 349.58 26.2732 349.435 26.8506 349.435C32.9133 349.435 38.8317 349.291 44.7501 348.569C47.204 348.28 49.8023 347.991 52.112 346.691C52.9781 346.257 53.5555 346.402 54.1329 347.268C54.7103 348.28 55.2877 349.146 55.8651 350.158C56.7312 351.602 57.3086 353.047 58.1747 354.491ZM45.6162 402.017C45.4718 403.172 45.1831 404.328 44.317 405.339C44.1727 405.484 44.1727 405.773 44.317 405.917C44.6057 407.939 45.0388 409.817 45.3275 411.84C45.4718 412.562 45.7605 412.706 46.3379 412.706C51.8233 412.706 57.1642 412.706 62.6495 412.706C62.9382 412.706 63.2269 412.706 63.5156 412.706C63.5156 410.395 63.5156 408.084 63.5156 405.917C63.5156 405.484 63.5156 405.195 63.66 404.761C63.8043 404.184 64.3817 403.895 64.9591 404.039C65.5366 404.039 65.9696 404.328 66.114 405.05C66.114 405.339 66.2583 405.773 66.2583 406.062C66.2583 408.084 66.2583 410.106 66.2583 412.129C66.2583 412.562 66.2583 412.851 66.8357 412.851C69.5784 412.851 72.321 412.851 74.9193 412.851C76.2185 412.851 76.7959 412.129 76.7959 410.828C76.7959 407.795 76.7959 404.617 76.7959 401.583C76.7959 400.572 76.5072 399.705 76.2185 398.839C75.3524 396.527 73.3315 395.372 71.1662 394.794C67.1244 393.638 62.9382 392.627 58.8964 391.616C58.1747 391.472 57.3086 391.038 56.7312 391.183C56.1538 391.472 55.8651 392.483 55.432 393.205C53.8442 395.95 52.4007 398.694 50.8128 401.439C50.0911 402.739 48.9362 403.317 47.7814 403.028C46.9153 402.739 46.3379 402.306 45.6162 402.017ZM16.1687 412.562C16.313 412.706 16.313 412.706 16.313 412.706C22.0871 412.706 27.8611 412.706 33.6351 412.706C33.7794 412.706 34.2125 412.417 34.2125 412.129C34.6456 410.251 34.9343 408.373 35.223 406.495C35.223 406.061 35.3673 405.628 35.223 405.339C34.3569 404.328 34.0682 403.172 33.9238 402.017C33.202 402.306 32.6246 402.739 31.9029 402.883C30.6037 403.172 29.5933 402.595 28.8715 401.294C26.995 398.116 25.2628 394.794 23.5306 391.616C23.3862 391.327 23.2419 390.894 22.6645 391.038C18.0453 392.194 13.2817 393.35 8.66247 394.65C4.76501 395.661 3.03281 398.261 3.03281 402.161C3.03281 405.05 3.03281 407.795 3.03281 410.684C3.03281 411.984 3.61021 412.706 5.05371 412.706C7.65202 412.706 10.3947 412.706 12.993 412.706C13.426 412.706 13.5704 412.562 13.5704 412.129C13.5704 410.828 13.5704 409.384 13.5704 408.084C13.5704 407.073 13.5704 406.061 13.7147 405.05C13.8591 404.184 14.2921 403.895 15.1582 403.895C16.0243 404.039 16.313 404.472 16.313 405.628C16.1687 407.939 16.1687 410.251 16.1687 412.562ZM29.4489 382.66C29.1602 383.671 29.4489 384.249 30.1707 384.827C33.202 387.86 36.2334 390.894 39.2648 393.783C39.4091 393.927 39.6978 394.216 39.9865 394.361C43.3066 391.038 46.4823 387.716 49.8024 384.538C50.3798 383.96 50.5241 383.382 50.3798 382.515C43.1622 387.138 36.3778 387.138 29.4489 382.66ZM37.3882 396.383C34.2125 393.205 31.0368 390.027 27.8611 386.849C26.995 387.716 26.1289 388.582 25.2628 389.449C27.2837 393.061 29.3046 396.672 31.3255 400.428C33.4908 398.983 35.5117 397.539 37.3882 396.383ZM42.0074 396.239C44.0283 397.539 46.0492 398.839 48.0701 400.283C50.091 396.527 52.112 392.916 54.1329 389.305C53.2668 388.294 52.4007 387.427 51.5346 386.56C48.3588 389.883 45.1831 393.061 42.0074 396.239ZM36.9552 412.706C38.8317 412.706 40.7083 412.706 42.5848 412.706C42.2961 410.684 41.8631 408.662 41.5744 406.639C40.2752 406.639 39.1204 406.639 37.9656 406.639C37.6769 408.662 37.2439 410.54 36.9552 412.706ZM39.6978 403.895C42.4405 404.039 42.8735 403.606 42.7292 400.861C42.7292 400.283 42.5848 399.994 42.1518 399.706C41.2857 399.272 40.5639 398.261 39.8422 398.261C38.9761 398.261 38.2543 399.128 37.3882 399.561C36.8108 399.85 36.8108 400.283 36.6665 400.861C36.6665 403.606 37.0995 403.895 39.6978 403.895Z" fill="white" stroke="white" stroke-width="0.25" stroke-miterlimit="10"/>
<path d="M930.052 188.369L920.38 185.769" stroke="white" stroke-width="2" stroke-miterlimit="10" stroke-linecap="round" stroke-linejoin="round"/>
<path d="M922.978 175.946L920.38 185.913" stroke="white" stroke-width="2" stroke-miterlimit="10" stroke-linecap="round" stroke-linejoin="round"/>
<path d="M1016.95 126.831L921.535 185.191" stroke="white" stroke-width="2" stroke-miterlimit="10" stroke-linecap="round" stroke-linejoin="round"/>
<path d="M930.485 277.786L920.38 280.386" stroke="white" stroke-width="2" stroke-miterlimit="10" stroke-linecap="round" stroke-linejoin="round"/>
<path d="M922.978 290.065L920.38 280.242" stroke="white" stroke-width="2" stroke-miterlimit="10" stroke-linecap="round" stroke-linejoin="round"/>
<path d="M1016.95 339.324L921.535 281.108" stroke="white" stroke-width="2" stroke-miterlimit="10" stroke-linecap="round" stroke-linejoin="round"/>
<path d="M154.89 126.831L145.219 129.287" stroke="white" stroke-width="2" stroke-miterlimit="10" stroke-linecap="round" stroke-linejoin="round"/>
<path d="M147.817 139.254L145.219 129.287" stroke="#CCCCCC" stroke-width="2" stroke-miterlimit="10" stroke-linecap="round" stroke-linejoin="round"/>
<path d="M241.791 188.369L146.375 130.009" stroke="white" stroke-width="2" stroke-miterlimit="10" stroke-linecap="round" stroke-linejoin="round"/>
<path d="M155.323 339.324L145.219 336.723" stroke="white" stroke-width="2" stroke-miterlimit="10" stroke-linecap="round" stroke-linejoin="round"/>
<path d="M147.817 327.045L145.219 336.868" stroke="white" stroke-width="2" stroke-miterlimit="10" stroke-linecap="round" stroke-linejoin="round"/>
<path d="M241.791 277.786L146.375 336.146" stroke="white" stroke-width="2" stroke-miterlimit="10" stroke-linecap="round" stroke-linejoin="round"/>
<path d="M514.322 239.217L507.538 232.138" stroke="white" stroke-width="2" stroke-miterlimit="10" stroke-linecap="round" stroke-linejoin="round"/>
<path d="M514.322 225.638L507.538 232.283" stroke="white" stroke-width="2" stroke-miterlimit="10" stroke-linecap="round" stroke-linejoin="round"/>
<path d="M558.783 232.283H508.261" stroke="white" stroke-width="2" stroke-miterlimit="10" stroke-linecap="round" stroke-linejoin="round"/>
<defs>
<filter id="filter0_d" x="1131.6" y="160.345" width="16.8055" height="22.7344" filterUnits="userSpaceOnUse" color-interpolation-filters="sRGB">
<feFlood flood-opacity="0" result="BackgroundImageFix"/>
<feColorMatrix in="SourceAlpha" type="matrix" values="0 0 0 0 0 0 0 0 0 0 0 0 0 0 0 0 0 0 127 0"/>
<feOffset dy="4"/>
<feGaussianBlur stdDeviation="2"/>
<feColorMatrix type="matrix" values="0 0 0 0 0 0 0 0 0 0 0 0 0 0 0 0 0 0 0.25 0"/>
<feBlend mode="normal" in2="BackgroundImageFix" result="effect1_dropShadow"/>
<feBlend mode="normal" in="SourceGraphic" in2="effect1_dropShadow" result="shape"/>
</filter>
</defs>
</svg>
