<svg width="64" height="64" viewBox="0 0 64 64" fill="none" xmlns="http://www.w3.org/2000/svg">
<g clip-path="url(#clip0)">
<path d="M50.125 52.3123L59.8035 48.7749L50.125 22.2935V52.3123Z" fill="#FFD974"/>
<path d="M44.4259 6.70075L42.4339 1.25037L27.5215 6.70075H44.4259Z" fill="#FFD974"/>
<path d="M9.41317 13.3181L4.19629 15.2249L9.41317 29.4989V13.3181Z" fill="#FFD974"/>
<path d="M19.5732 57.2997L21.5654 62.7499L36.4779 57.2997H19.5732Z" fill="#FFD974"/>
<path d="M28.1294 9.38343L25.5411 7.30743C25.1326 6.9798 25.0992 6.36993 25.4694 5.99955L25.4698 5.99917C25.8132 5.6558 25.8132 5.09892 25.4698 4.75555L22.7228 2.00867L16.0869 8.64443L18.8342 11.3917C19.1777 11.7352 19.7344 11.7351 20.0779 11.3916C20.4482 11.0212 21.0582 11.0546 21.3858 11.4631L23.4617 14.0513C23.7893 14.4598 24.3992 14.4932 24.7696 14.1229L28.2012 10.6912C28.5714 10.3208 28.5379 9.71106 28.1294 9.38343Z" fill="#FF3C63"/>
<path d="M25.2159 6.69897C25.2366 6.9276 25.3462 7.14985 25.5415 7.30648L28.1299 9.38248C28.5384 9.71011 28.5718 10.32 28.2015 10.6904L24.7699 14.1221C24.3996 14.4924 23.7897 14.459 23.462 14.0505L21.3861 11.4621C21.0585 11.0536 20.4485 11.0202 20.0782 11.3906C19.7349 11.7341 19.178 11.7341 18.8345 11.3907L16.0872 8.64348L18.0306 6.70022H9.41309V57.2991H50.1247V6.70022L25.2159 6.69897Z" fill="#FFF6E1"/>
<path d="M60.9775 48.3451L51.3748 22.0712V6.7003C51.3748 6.01005 50.8152 5.4503 50.1248 5.4503L45.3 5.45005L43.608 0.820915C43.371 0.172414 42.6534 -0.160712 42.0049 0.0759139L27.3029 5.4493H26.9738C26.993 4.88005 26.7878 4.30455 26.3543 3.87092L24.4754 1.99204C24.809 1.50529 24.7605 0.835165 24.3281 0.40279C23.84 -0.0854614 23.0486 -0.0853364 22.5603 0.40279L17.5129 5.45017H9.41336C8.72298 5.45017 8.16335 6.0098 8.16335 6.70018V12.4444L3.76722 14.0513C3.45585 14.1652 3.20235 14.3979 3.06272 14.6987C2.92297 14.9993 2.90847 15.3432 3.02222 15.6544L8.16323 29.7207V57.2994C8.16323 57.9898 8.72286 58.5494 9.41323 58.5494H18.6996L20.3916 63.1788C20.5769 63.6857 21.0558 64 21.5658 64C21.7083 64 21.8531 63.9754 21.9948 63.9238L36.6995 58.5494H50.1247C50.8149 58.5494 51.3747 57.9898 51.3747 57.2994V53.1858L60.2323 49.9484C60.5437 49.8345 60.7972 49.6018 60.9368 49.3011C61.0767 49.0004 61.0912 48.6565 60.9775 48.3451ZM22.3614 10.6801C22.2291 10.5152 22.0731 10.3741 21.9018 10.2569C21.8894 10.2484 21.878 10.2387 21.8655 10.2304C21.8555 10.2239 21.8448 10.2188 21.8346 10.2126C21.5311 10.0214 21.1816 9.90631 20.8166 9.88631C20.7779 9.88418 20.7393 9.88318 20.7006 9.88318C20.6895 9.88318 20.6785 9.88431 20.6674 9.88443C20.642 9.88481 20.6168 9.88606 20.5915 9.88731C20.5596 9.88893 20.5279 9.89106 20.4963 9.89418C20.471 9.89668 20.4459 9.89956 20.4208 9.90293C20.3893 9.90718 20.3579 9.91206 20.3266 9.91768C20.302 9.92206 20.2774 9.92668 20.253 9.93206C20.2215 9.93881 20.1904 9.94656 20.1594 9.95481C20.1358 9.96106 20.1121 9.96718 20.0886 9.97418C20.0571 9.98368 20.026 9.99431 19.995 10.0053C19.9726 10.0132 19.9503 10.0207 19.9283 10.0292C19.8963 10.0417 19.865 10.0556 19.8336 10.0696C19.8133 10.0787 19.7928 10.0871 19.7728 10.0968C19.7386 10.1133 19.7054 10.1316 19.6723 10.1498C19.6559 10.1588 19.6391 10.1669 19.623 10.1764C19.5741 10.2051 19.5263 10.2354 19.4796 10.2681L17.8554 8.64381L22.7236 3.7758L24.3474 5.3998C24.0764 5.78743 23.9394 6.25843 23.9656 6.73705C23.9663 6.7493 23.9688 6.7613 23.9696 6.77355C23.9704 6.78643 23.9699 6.7993 23.9711 6.8123C23.9735 6.8388 23.979 6.86468 23.9824 6.89093C23.9868 6.9253 23.991 6.95968 23.997 6.9938C24.0034 7.02955 24.0118 7.0648 24.02 7.10018C24.0286 7.13718 24.0369 7.17418 24.0474 7.21055C24.0561 7.24068 24.0666 7.26993 24.0768 7.29955C24.0904 7.3398 24.1036 7.37993 24.1196 7.4193C24.1296 7.44393 24.1414 7.46755 24.1523 7.4918C24.1713 7.53405 24.1901 7.5763 24.2118 7.6173C24.223 7.63843 24.2359 7.65855 24.2479 7.6793C24.2719 7.72105 24.2956 7.76293 24.3224 7.80305C24.3365 7.82418 24.3525 7.84405 24.3674 7.86468C24.3945 7.9023 24.421 7.94018 24.4505 7.97606C24.4726 8.00293 24.4973 8.0278 24.5208 8.05355C24.5458 8.08105 24.5695 8.10955 24.596 8.13568C24.6473 8.18643 24.7011 8.23455 24.7575 8.28006C24.7581 8.28055 24.7588 8.2813 24.7595 8.28181L27.0253 10.0991L24.1785 12.9459L22.3614 10.6801ZM41.6889 2.85317L42.6382 5.45005L34.5849 5.44967L41.6889 2.85317ZM5.79948 15.9702L8.16335 15.1063V22.4378L5.79948 15.9702ZM22.3106 61.1464L21.3614 58.5493H29.4166L22.3106 61.1464ZM48.8747 56.0493H10.6634V7.9503H15.0131L14.4827 8.48068C13.9946 8.96881 13.9946 9.76031 14.4827 10.2484C14.7269 10.4926 15.0467 10.6146 15.3666 10.6146C15.6135 10.6146 15.86 10.5411 16.072 10.3957L17.9509 12.2748C18.3029 12.6268 18.7563 12.8403 19.2453 12.8882C19.3151 12.8951 19.3856 12.8984 19.4568 12.8984C19.5105 12.8984 19.5639 12.8964 19.6169 12.8926C19.897 12.8718 20.1658 12.7959 20.412 12.6719C20.4921 12.6316 20.5705 12.5871 20.6454 12.5364L22.4871 14.8327C22.7235 15.1273 23.032 15.3508 23.3775 15.4852C23.5848 15.5658 23.8054 15.6142 24.0318 15.6266C24.0706 15.6287 24.1093 15.6297 24.1479 15.6297C24.167 15.6297 24.1859 15.6274 24.205 15.6268C24.2389 15.6259 24.2726 15.6243 24.3063 15.6218C24.3446 15.6189 24.3828 15.6148 24.4209 15.6098C24.4546 15.6054 24.4881 15.6008 24.5215 15.5948C24.5593 15.5881 24.5966 15.5797 24.6339 15.5709C24.6665 15.5633 24.6991 15.5557 24.7313 15.5464C24.7688 15.5357 24.8056 15.5232 24.8425 15.5104C24.8734 15.4998 24.9044 15.4896 24.9346 15.4774C24.9721 15.4626 25.0086 15.4454 25.0453 15.4284C25.0736 15.4152 25.1024 15.4028 25.1301 15.3884C25.168 15.3688 25.2044 15.3466 25.2411 15.3247C25.2663 15.3097 25.2919 15.2958 25.3164 15.2797C25.3564 15.2534 25.3945 15.2244 25.4328 15.1954C25.4521 15.1807 25.4725 15.1674 25.4915 15.1521C25.5479 15.1063 25.6023 15.0578 25.654 15.0059L26.486 14.1739L28.1429 15.8308C28.387 16.0749 28.7069 16.1969 29.0268 16.1969C29.3466 16.1969 29.6666 16.0748 29.9106 15.8308C30.3988 15.3427 30.3988 14.5512 29.9106 14.0631L28.2538 12.4063L29.0856 11.5744C29.513 11.1471 29.7391 10.5558 29.7061 9.95231C29.673 9.34881 29.3836 8.78568 28.9121 8.40756L28.342 7.9503H48.8747C48.8761 7.9503 48.8733 7.9503 48.8747 7.9503V56.0493ZM51.3747 50.5239V29.3541L58.2001 48.0294L51.3747 50.5239Z" fill="black"/>
<path d="M45.0742 24.1175C44.993 24.1175 44.9105 24.1088 44.8305 24.0925C44.7505 24.0763 44.6717 24.0525 44.5967 24.0213C44.5217 23.99 44.4481 23.9513 44.3806 23.9063C44.3118 23.8613 44.248 23.8088 44.1905 23.7513C43.9581 23.5188 43.8242 23.1963 43.8242 22.8675C43.8242 22.7863 43.833 22.7038 43.8492 22.6238C43.8655 22.5438 43.8891 22.465 43.9203 22.3888C43.9516 22.3138 43.9905 22.2413 44.0355 22.1738C44.0803 22.105 44.1328 22.0413 44.1903 21.9838C44.2478 21.9263 44.3117 21.8738 44.3805 21.8288C44.448 21.7838 44.5217 21.745 44.5966 21.7138C44.6717 21.6825 44.7503 21.6575 44.8303 21.6425C44.9916 21.61 45.1578 21.61 45.3191 21.6425C45.3991 21.6575 45.4766 21.6825 45.5528 21.7138C45.6278 21.745 45.7003 21.7838 45.7678 21.8288C45.8366 21.8738 45.9005 21.9263 45.958 21.9838C46.0167 22.0413 46.068 22.105 46.1142 22.1738C46.1591 22.2413 46.198 22.3138 46.2292 22.3888C46.2605 22.465 46.2841 22.5438 46.3003 22.6238C46.3167 22.7038 46.3241 22.7863 46.3241 22.8675C46.3241 23.1963 46.1916 23.5188 45.9578 23.7513C45.9003 23.8088 45.8365 23.8613 45.7677 23.9063C45.7002 23.9513 45.6277 23.99 45.5527 24.0213C45.4765 24.0525 45.399 24.0763 45.319 24.0925C45.238 24.1087 45.1567 24.1175 45.0742 24.1175Z" fill="black"/>
<path d="M40.5377 24.1171H30.418C29.7276 24.1171 29.168 23.5574 29.168 22.8671C29.168 22.1767 29.7276 21.6171 30.418 21.6171H40.5377C41.228 21.6171 41.7877 22.1767 41.7877 22.8671C41.7877 23.5574 41.2281 24.1171 40.5377 24.1171Z" fill="black"/>
<path d="M45.0739 29.2545H30.418C29.7276 29.2545 29.168 28.6949 29.168 28.0045C29.168 27.3141 29.7276 26.7545 30.418 26.7545H45.0739C45.7641 26.7545 46.3239 27.3141 46.3239 28.0045C46.3239 28.6949 45.7643 29.2545 45.0739 29.2545Z" fill="black"/>
<path d="M19.9585 30.9307C22.9931 30.9307 25.4531 28.4706 25.4531 25.436C25.4531 22.4014 22.9931 19.9414 19.9585 19.9414C16.9239 19.9414 14.4639 22.4014 14.4639 25.436C14.4639 28.4706 16.9239 30.9307 19.9585 30.9307Z" fill="#4B7C91"/>
<path d="M19.9585 32.1803C16.2395 32.1803 13.2139 29.1547 13.2139 25.4357C13.2139 21.7167 16.2395 18.691 19.9585 18.691C23.6775 18.691 26.703 21.7167 26.703 25.4357C26.703 29.1547 23.6775 32.1803 19.9585 32.1803ZM19.9585 21.191C17.618 21.191 15.7137 23.0952 15.7137 25.4358C15.7137 27.7764 17.6179 29.6806 19.9585 29.6806C22.2991 29.6806 24.2031 27.7764 24.2031 25.4358C24.2031 23.0952 22.299 21.191 19.9585 21.191Z" fill="black"/>
<path d="M19.6723 27.7693C19.5131 27.7693 19.3525 27.7388 19.1995 27.6763L17.6064 27.025C16.9674 26.7638 16.6611 26.034 16.9224 25.3949C17.1836 24.7559 17.9135 24.4498 18.5525 24.7109L19.3764 25.0477L20.9545 23.4695C21.4426 22.9814 22.2341 22.9813 22.7223 23.4695C23.2104 23.9578 23.2105 24.7492 22.7223 25.2373L20.5564 27.4032C20.3174 27.6422 19.9976 27.7693 19.6723 27.7693Z" fill="black"/>
<path d="M45.0741 40.7768C44.9928 40.7768 44.9103 40.768 44.8303 40.7518C44.7503 40.7355 44.6716 40.7118 44.5966 40.6805C44.5216 40.6493 44.448 40.6105 44.3805 40.5655C44.3117 40.5205 44.2478 40.468 44.1903 40.4105C44.1328 40.353 44.0803 40.2893 44.0355 40.2205C43.9905 40.153 43.9516 40.0805 43.9203 40.0043C43.8891 39.9293 43.8655 39.8505 43.8492 39.7705C43.833 39.6905 43.8242 39.608 43.8242 39.5268C43.8242 39.4455 43.833 39.363 43.8492 39.2818C43.8655 39.203 43.8891 39.1243 43.9203 39.048C43.9516 38.973 43.9905 38.9005 44.0355 38.833C44.0803 38.7643 44.1328 38.7005 44.1903 38.643C44.2478 38.5855 44.3117 38.533 44.3805 38.4867C44.448 38.4417 44.5217 38.403 44.5966 38.3717C44.6717 38.3405 44.7503 38.3167 44.8303 38.3005C44.9916 38.268 45.1578 38.268 45.3191 38.3005C45.3991 38.3167 45.4766 38.3405 45.5528 38.3717C45.6278 38.403 45.7003 38.4417 45.7678 38.4867C45.8366 38.533 45.9005 38.5855 45.958 38.643C46.0167 38.7005 46.068 38.7643 46.1142 38.833C46.1591 38.9005 46.198 38.973 46.2292 39.048C46.2605 39.1243 46.2841 39.203 46.3004 39.2818C46.3167 39.363 46.3241 39.4455 46.3241 39.5268C46.3241 39.608 46.3166 39.6905 46.3004 39.7705C46.2841 39.8505 46.2605 39.9293 46.2292 40.0043C46.198 40.0805 46.1591 40.153 46.1142 40.2205C46.068 40.2893 46.0167 40.353 45.958 40.4105C45.9005 40.468 45.8366 40.5205 45.7678 40.5655C45.7003 40.6105 45.6278 40.6493 45.5528 40.6805C45.4766 40.7118 45.3991 40.7355 45.3191 40.7518C45.2378 40.768 45.1566 40.7768 45.0741 40.7768Z" fill="black"/>
<path d="M40.5377 40.7771H30.418C29.7276 40.7771 29.168 40.2175 29.168 39.5271C29.168 38.8367 29.7276 38.2771 30.418 38.2771H40.5377C41.228 38.2771 41.7877 38.8367 41.7877 39.5271C41.7877 40.2175 41.2281 40.7771 40.5377 40.7771Z" fill="black"/>
<path d="M45.0739 45.9139H30.418C29.7276 45.9139 29.168 45.3543 29.168 44.6639C29.168 43.9736 29.7276 43.4139 30.418 43.4139H45.0739C45.7641 43.4139 46.3239 43.9736 46.3239 44.6639C46.3239 45.3543 45.7643 45.9139 45.0739 45.9139Z" fill="black"/>
<path d="M19.9585 47.5901C22.9931 47.5901 25.4531 45.1301 25.4531 42.0955C25.4531 39.0609 22.9931 36.6008 19.9585 36.6008C16.9239 36.6008 14.4639 39.0609 14.4639 42.0955C14.4639 45.1301 16.9239 47.5901 19.9585 47.5901Z" fill="#00CDB3"/>
<path d="M19.9585 48.8397C16.2395 48.8397 13.2139 45.8141 13.2139 42.0951C13.2139 38.376 16.2395 35.3505 19.9585 35.3505C23.6775 35.3505 26.703 38.3761 26.703 42.0951C26.7031 45.8142 23.6775 48.8397 19.9585 48.8397ZM19.9585 37.8503C17.618 37.8503 15.7137 39.7545 15.7137 42.0951C15.7137 44.4357 17.6179 46.3399 19.9585 46.3399C22.2991 46.3399 24.2031 44.4357 24.2031 42.0951C24.2031 39.7545 22.299 37.8503 19.9585 37.8503Z" fill="black"/>
<path d="M19.6723 44.4287C19.5131 44.4287 19.3525 44.3982 19.1995 44.3357L17.6064 43.6845C16.9674 43.4232 16.6611 42.6935 16.9224 42.0543C17.1836 41.4153 17.9135 41.1093 18.5525 41.3703L19.3764 41.7071L20.9545 40.129C21.4426 39.6408 22.2341 39.6407 22.7223 40.129C23.2104 40.6172 23.2105 41.4086 22.7223 41.8967L20.5565 44.0625C20.3174 44.3016 19.9976 44.4287 19.6723 44.4287Z" fill="black"/>
</g>
<defs>
<clipPath id="clip0">
<rect width="64" height="64" fill="white"/>
</clipPath>
</defs>
</svg>
