<svg width="64" height="64" viewBox="0 0 64 64" fill="none" xmlns="http://www.w3.org/2000/svg">
<path d="M3 13H61V57C61 58.0609 60.5786 59.0783 59.8284 59.8284C59.0783 60.5786 58.0609 61 57 61H7C5.93913 61 4.92172 60.5786 4.17157 59.8284C3.42143 59.0783 3 58.0609 3 57V13Z" fill="#FFEB99"/>
<path d="M61 7V13H3V7C3 5.93913 3.42143 4.92172 4.17157 4.17157C4.92172 3.42143 5.93913 3 7 3H57C58.0609 3 59.0783 3.42143 59.8284 4.17157C60.5786 4.92172 61 5.93913 61 7Z" fill="#006DF0"/>
<path d="M59.2 35.15L56.66 37.68C55.8121 37.2258 54.921 36.8573 54 36.58V33C53.9984 32.4701 53.7872 31.9623 53.4125 31.5875C53.0377 31.2128 52.5299 31.0016 52 31H48C47.4701 31.0016 46.9623 31.2128 46.5875 31.5875C46.2128 31.9623 46.0016 32.4701 46 33V36.58C45.0771 36.8563 44.1856 37.2284 43.34 37.69L40.8 35.15C40.615 34.9646 40.3952 34.8175 40.1532 34.7171C39.9113 34.6168 39.6519 34.5651 39.39 34.5651C39.1281 34.5651 38.8687 34.6168 38.6268 34.7171C38.3848 34.8175 38.165 34.9646 37.98 35.15L35.15 37.98C34.9646 38.165 34.8175 38.3848 34.7171 38.6268C34.6168 38.8687 34.5651 39.1281 34.5651 39.39C34.5651 39.6519 34.6168 39.9113 34.7171 40.1532C34.8175 40.3952 34.9646 40.615 35.15 40.8L37.69 43.34C37.2284 44.1856 36.8563 45.0771 36.58 46H33C32.4701 46.0016 31.9623 46.2128 31.5875 46.5875C31.2128 46.9623 31.0016 47.4701 31 48V52C31.0016 52.5299 31.2128 53.0377 31.5875 53.4125C31.9623 53.7872 32.4701 53.9984 33 54H36.58C36.8563 54.9229 37.2284 55.8144 37.69 56.66L35.15 59.2C34.9182 59.4323 34.7469 59.7178 34.651 60.0316C34.5552 60.3454 34.5376 60.6779 34.6 61H57C58.0609 61 59.0783 60.5786 59.8284 59.8284C60.5786 59.0783 61 58.0609 61 57V34.6C60.6779 34.5376 60.3454 34.5552 60.0316 34.651C59.7178 34.7469 59.4323 34.9182 59.2 35.15ZM50 57C48.6155 57 47.2622 56.5895 46.111 55.8203C44.9599 55.0511 44.0627 53.9579 43.5328 52.6788C43.003 51.3997 42.8644 49.9922 43.1345 48.6344C43.4046 47.2765 44.0713 46.0292 45.0503 45.0503C46.0292 44.0713 47.2765 43.4046 48.6344 43.1345C49.9922 42.8644 51.3997 43.003 52.6788 43.5328C53.9579 44.0627 55.0511 44.9599 55.8203 46.111C56.5895 47.2622 57 48.6155 57 50C57 51.8565 56.2625 53.637 54.9497 54.9497C53.637 56.2625 51.8565 57 50 57Z" fill="#FFCD00"/>
<path d="M9 10C10.1046 10 11 9.10457 11 8C11 6.89543 10.1046 6 9 6C7.89543 6 7 6.89543 7 8C7 9.10457 7.89543 10 9 10Z" fill="#5EAC24"/>
<path d="M16 10C17.1046 10 18 9.10457 18 8C18 6.89543 17.1046 6 16 6C14.8954 6 14 6.89543 14 8C14 9.10457 14.8954 10 16 10Z" fill="#FFCD00"/>
<path d="M23 10C24.1046 10 25 9.10457 25 8C25 6.89543 24.1046 6 23 6C21.8954 6 21 6.89543 21 8C21 9.10457 21.8954 10 23 10Z" fill="#D80027"/>
<path d="M50 57C53.866 57 57 53.866 57 50C57 46.134 53.866 43 50 43C46.134 43 43 46.134 43 50C43 53.866 46.134 57 50 57Z" fill="#FFEB99"/>
<path d="M3 30V57C3 58.0609 3.42143 59.0783 4.17157 59.8284C4.92172 60.5786 5.93913 61 7 61H37C18.207 61 3 47.135 3 30Z" fill="#FFDE55"/>
<path d="M57 2H7C5.67441 2.00159 4.40356 2.52888 3.46622 3.46622C2.52888 4.40356 2.00159 5.67441 2 7V57C2.00159 58.3256 2.52888 59.5964 3.46622 60.5338C4.40356 61.4711 5.67441 61.9984 7 62H57C58.3256 61.9984 59.5964 61.4711 60.5338 60.5338C61.4711 59.5964 61.9984 58.3256 62 57V7C61.9984 5.67441 61.4711 4.40356 60.5338 3.46622C59.5964 2.52888 58.3256 2.00159 57 2ZM7 4H57C57.7957 4 58.5587 4.31607 59.1213 4.87868C59.6839 5.44129 60 6.20435 60 7V12H4V7C4 6.20435 4.31607 5.44129 4.87868 4.87868C5.44129 4.31607 6.20435 4 7 4ZM4 57V14H60V33.649C59.4317 33.761 58.9084 34.0362 58.494 34.441L56.466 36.462C55.988 36.2351 55.4987 36.0328 55 35.856V33C55 32.2044 54.6839 31.4413 54.1213 30.8787C53.5587 30.3161 52.7957 30 52 30H48C47.2043 30 46.4413 30.3161 45.8787 30.8787C45.3161 31.4413 45 32.2044 45 33V35.856C44.5 36.0339 44.0097 36.2378 43.531 36.467L41.507 34.442C40.9368 33.8973 40.1786 33.5934 39.39 33.5934C38.6014 33.5934 37.8432 33.8973 37.273 34.442L34.443 37.271C34.1646 37.5489 33.9438 37.879 33.7931 38.2423C33.6424 38.6057 33.5648 38.9951 33.5648 39.3885C33.5648 39.7819 33.6424 40.1713 33.7931 40.5347C33.9438 40.898 34.1646 41.2281 34.443 41.506L36.468 43.531C36.238 44.0094 36.0337 44.4998 35.856 45H33C32.2044 45 31.4413 45.3161 30.8787 45.8787C30.3161 46.4413 30 47.2043 30 48V52C30 52.7957 30.3161 53.5587 30.8787 54.1213C31.4413 54.6839 32.2044 55 33 55H35.856C36.0338 55.4999 36.2381 55.9899 36.468 56.468L34.443 58.493C34.0374 58.9074 33.7615 59.4312 33.649 60H7C6.20435 60 5.44129 59.6839 4.87868 59.1213C4.31607 58.5587 4 57.7957 4 57ZM57 60H35.785C35.8073 59.9677 35.8314 59.9367 35.857 59.907L38.397 57.367C38.5498 57.2141 38.649 57.0158 38.6796 56.8018C38.7103 56.5878 38.6708 56.3696 38.567 56.18C38.14 55.3945 37.7948 54.5671 37.537 53.711C37.4749 53.5055 37.3484 53.3253 37.176 53.1973C37.0037 53.0692 36.7947 53.0001 36.58 53H33C32.7348 53 32.4804 52.8946 32.2929 52.7071C32.1054 52.5196 32 52.2652 32 52V48C32 47.7348 32.1054 47.4804 32.2929 47.2929C32.4804 47.1054 32.7348 47 33 47H36.58C36.7947 46.9999 37.0037 46.9308 37.176 46.8027C37.3484 46.6747 37.4749 46.4945 37.537 46.289C37.7948 45.4329 38.14 44.6055 38.567 43.82C38.6708 43.6304 38.7103 43.4122 38.6796 43.1982C38.649 42.9842 38.5498 42.7859 38.397 42.633L35.857 40.092C35.7644 39.9999 35.691 39.8904 35.6409 39.7699C35.5908 39.6493 35.565 39.5201 35.565 39.3895C35.565 39.2589 35.5908 39.1297 35.6409 39.0091C35.691 38.8886 35.7644 38.7791 35.857 38.687L38.687 35.857C38.8761 35.6757 39.128 35.5745 39.39 35.5745C39.652 35.5745 39.9039 35.6757 40.093 35.857L42.633 38.397C42.7859 38.5498 42.9842 38.649 43.1982 38.6796C43.4122 38.7103 43.6304 38.6708 43.82 38.567C44.6046 38.1391 45.4318 37.7942 46.288 37.538C46.4939 37.4761 46.6744 37.3494 46.8026 37.1769C46.9309 37.0043 47.0001 36.795 47 36.58V33C47 32.7348 47.1054 32.4804 47.2929 32.2929C47.4804 32.1054 47.7348 32 48 32H52C52.2652 32 52.5196 32.1054 52.7071 32.2929C52.8946 32.4804 53 32.7348 53 33V36.58C52.9999 36.795 53.0691 37.0043 53.1974 37.1769C53.3256 37.3494 53.5061 37.4761 53.712 37.538C54.5692 37.7957 55.3983 38.1387 56.187 38.562C56.3761 38.6635 56.5928 38.7014 56.8051 38.6703C57.0174 38.6391 57.2141 38.5405 57.366 38.389L59.907 35.857C59.9364 35.831 59.9675 35.807 60 35.785V57C60 57.7957 59.6839 58.5587 59.1213 59.1213C58.5587 59.6839 57.7957 60 57 60Z" fill="black"/>
<path d="M9 11C9.59334 11 10.1734 10.8241 10.6667 10.4944C11.1601 10.1648 11.5446 9.69623 11.7716 9.14805C11.9987 8.59987 12.0581 7.99667 11.9424 7.41473C11.8266 6.83279 11.5409 6.29824 11.1213 5.87868C10.7018 5.45912 10.1672 5.1734 9.58527 5.05765C9.00333 4.94189 8.40013 5.0013 7.85195 5.22836C7.30377 5.45543 6.83524 5.83994 6.50559 6.33329C6.17595 6.82664 6 7.40666 6 8C6 8.79565 6.31607 9.55871 6.87868 10.1213C7.44129 10.6839 8.20435 11 9 11ZM9 7C9.19778 7 9.39112 7.05865 9.55557 7.16853C9.72002 7.27841 9.84819 7.43459 9.92388 7.61732C9.99957 7.80004 10.0194 8.00111 9.98078 8.19509C9.9422 8.38907 9.84696 8.56726 9.7071 8.70711C9.56725 8.84696 9.38907 8.9422 9.19509 8.98079C9.00111 9.01937 8.80004 8.99957 8.61731 8.92388C8.43459 8.84819 8.27841 8.72002 8.16853 8.55557C8.05865 8.39112 8 8.19778 8 8C8 7.73478 8.10536 7.48043 8.29289 7.29289C8.48043 7.10536 8.73478 7 9 7Z" fill="black"/>
<path d="M16 11C16.5933 11 17.1734 10.8241 17.6667 10.4944C18.1601 10.1648 18.5446 9.69623 18.7716 9.14805C18.9987 8.59987 19.0581 7.99667 18.9424 7.41473C18.8266 6.83279 18.5409 6.29824 18.1213 5.87868C17.7018 5.45912 17.1672 5.1734 16.5853 5.05765C16.0033 4.94189 15.4001 5.0013 14.8519 5.22836C14.3038 5.45543 13.8352 5.83994 13.5056 6.33329C13.1759 6.82664 13 7.40666 13 8C13 8.79565 13.3161 9.55871 13.8787 10.1213C14.4413 10.6839 15.2043 11 16 11ZM16 7C16.1978 7 16.3911 7.05865 16.5556 7.16853C16.72 7.27841 16.8482 7.43459 16.9239 7.61732C16.9996 7.80004 17.0194 8.00111 16.9808 8.19509C16.9422 8.38907 16.847 8.56726 16.7071 8.70711C16.5673 8.84696 16.3891 8.9422 16.1951 8.98079C16.0011 9.01937 15.8 8.99957 15.6173 8.92388C15.4346 8.84819 15.2784 8.72002 15.1685 8.55557C15.0586 8.39112 15 8.19778 15 8C15 7.73478 15.1054 7.48043 15.2929 7.29289C15.4804 7.10536 15.7348 7 16 7Z" fill="black"/>
<path d="M23 11C23.5933 11 24.1734 10.8241 24.6667 10.4944C25.1601 10.1648 25.5446 9.69623 25.7716 9.14805C25.9987 8.59987 26.0581 7.99667 25.9424 7.41473C25.8266 6.83279 25.5409 6.29824 25.1213 5.87868C24.7018 5.45912 24.1672 5.1734 23.5853 5.05765C23.0033 4.94189 22.4001 5.0013 21.8519 5.22836C21.3038 5.45543 20.8352 5.83994 20.5056 6.33329C20.1759 6.82664 20 7.40666 20 8C20 8.79565 20.3161 9.55871 20.8787 10.1213C21.4413 10.6839 22.2043 11 23 11ZM23 7C23.1978 7 23.3911 7.05865 23.5556 7.16853C23.72 7.27841 23.8482 7.43459 23.9239 7.61732C23.9996 7.80004 24.0194 8.00111 23.9808 8.19509C23.9422 8.38907 23.847 8.56726 23.7071 8.70711C23.5673 8.84696 23.3891 8.9422 23.1951 8.98079C23.0011 9.01937 22.8 8.99957 22.6173 8.92388C22.4346 8.84819 22.2784 8.72002 22.1685 8.55557C22.0586 8.39112 22 8.19778 22 8C22 7.73478 22.1054 7.48043 22.2929 7.29289C22.4804 7.10536 22.7348 7 23 7Z" fill="black"/>
<path d="M50 42C48.4178 42 46.871 42.4692 45.5554 43.3482C44.2399 44.2273 43.2145 45.4767 42.609 46.9385C42.0035 48.4003 41.845 50.0089 42.1537 51.5607C42.4624 53.1126 43.2243 54.538 44.3432 55.6569C45.462 56.7757 46.8874 57.5376 48.4393 57.8463C49.9911 58.155 51.5997 57.9965 53.0615 57.391C54.5233 56.7855 55.7727 55.7602 56.6518 54.4446C57.5308 53.129 58 51.5823 58 50C57.9976 47.879 57.154 45.8456 55.6542 44.3458C54.1545 42.846 52.121 42.0024 50 42ZM50 56C48.8133 56 47.6533 55.6481 46.6666 54.9888C45.6799 54.3295 44.9109 53.3925 44.4567 52.2961C44.0026 51.1997 43.8838 49.9933 44.1153 48.8295C44.3468 47.6656 44.9182 46.5965 45.7574 45.7574C46.5965 44.9182 47.6656 44.3468 48.8295 44.1153C49.9933 43.8838 51.1998 44.0026 52.2961 44.4567C53.3925 44.9108 54.3295 45.6799 54.9888 46.6666C55.6481 47.6533 56 48.8133 56 50C55.9984 51.5908 55.3658 53.116 54.2409 54.2409C53.116 55.3658 51.5908 55.9984 50 56Z" fill="black"/>
<path d="M9 32C9.26522 32 9.51957 31.8946 9.70711 31.7071C9.89464 31.5196 10 31.2652 10 31V26H14V31C14 31.2652 14.1054 31.5196 14.2929 31.7071C14.4804 31.8946 14.7348 32 15 32C15.2652 32 15.5196 31.8946 15.7071 31.7071C15.8946 31.5196 16 31.2652 16 31V22C16 20.9391 15.5786 19.9217 14.8284 19.1716C14.0783 18.4214 13.0609 18 12 18C10.9391 18 9.92172 18.4214 9.17157 19.1716C8.42143 19.9217 8 20.9391 8 22V31C8 31.2652 8.10536 31.5196 8.29289 31.7071C8.48043 31.8946 8.73478 32 9 32ZM12 20C12.5304 20 13.0391 20.2107 13.4142 20.5858C13.7893 20.9609 14 21.4696 14 22V24H10V22C10 21.4696 10.2107 20.9609 10.5858 20.5858C10.9609 20.2107 11.4696 20 12 20Z" fill="black"/>
<path d="M19 32C19.2652 32 19.5196 31.8946 19.7071 31.7071C19.8946 31.5196 20 31.2652 20 31V26H23C23.7956 26 24.5587 25.6839 25.1213 25.1213C25.6839 24.5587 26 23.7956 26 23V21C26 20.2044 25.6839 19.4413 25.1213 18.8787C24.5587 18.3161 23.7956 18 23 18H19C18.7348 18 18.4804 18.1054 18.2929 18.2929C18.1054 18.4804 18 18.7348 18 19V31C18 31.2652 18.1054 31.5196 18.2929 31.7071C18.4804 31.8946 18.7348 32 19 32ZM20 20H23C23.2652 20 23.5196 20.1054 23.7071 20.2929C23.8946 20.4804 24 20.7348 24 21V23C24 23.2652 23.8946 23.5196 23.7071 23.7071C23.5196 23.8946 23.2652 24 23 24H20V20Z" fill="black"/>
<path d="M29 32C29.2652 32 29.5196 31.8946 29.7071 31.7071C29.8946 31.5196 30 31.2652 30 31V19C30 18.7348 29.8946 18.4804 29.7071 18.2929C29.5196 18.1054 29.2652 18 29 18C28.7348 18 28.4804 18.1054 28.2929 18.2929C28.1054 18.4804 28 18.7348 28 19V31C28 31.2652 28.1054 31.5196 28.2929 31.7071C28.4804 31.8946 28.7348 32 29 32Z" fill="black"/>
<path d="M9 38H29C29.2652 38 29.5196 37.8946 29.7071 37.7071C29.8946 37.5196 30 37.2652 30 37C30 36.7348 29.8946 36.4804 29.7071 36.2929C29.5196 36.1054 29.2652 36 29 36H9C8.73478 36 8.48043 36.1054 8.29289 36.2929C8.10536 36.4804 8 36.7348 8 37C8 37.2652 8.10536 37.5196 8.29289 37.7071C8.48043 37.8946 8.73478 38 9 38Z" fill="black"/>
<path d="M29 42H9C8.73478 42 8.48043 42.1054 8.29289 42.2929C8.10536 42.4804 8 42.7348 8 43C8 43.2652 8.10536 43.5196 8.29289 43.7071C8.48043 43.8946 8.73478 44 9 44H29C29.2652 44 29.5196 43.8946 29.7071 43.7071C29.8946 43.5196 30 43.2652 30 43C30 42.7348 29.8946 42.4804 29.7071 42.2929C29.5196 42.1054 29.2652 42 29 42Z" fill="black"/>
<path d="M26 48H9C8.73478 48 8.48043 48.1054 8.29289 48.2929C8.10536 48.4804 8 48.7348 8 49C8 49.2652 8.10536 49.5196 8.29289 49.7071C8.48043 49.8946 8.73478 50 9 50H26C26.2652 50 26.5196 49.8946 26.7071 49.7071C26.8946 49.5196 27 49.2652 27 49C27 48.7348 26.8946 48.4804 26.7071 48.2929C26.5196 48.1054 26.2652 48 26 48Z" fill="black"/>
</svg>
