<svg width="56" height="38" viewBox="0 0 56 38" fill="none" xmlns="http://www.w3.org/2000/svg">
<path d="M56.0003 12.9497C56.0003 9.69307 53.3506 7.04346 50.0937 7.04346H49.759L48.8387 6.45185C42.6105 2.44807 35.4047 0.331665 28.0005 0.331665C20.5962 0.331665 13.3905 2.44807 7.16225 6.45185L6.24197 7.04346H5.90707C2.65021 7.04346 0.000488281 9.69307 0.000488281 12.9497C0.000488281 16.1039 2.48571 18.6884 5.60082 18.8482C6.77539 29.4199 15.7634 37.6686 26.6433 37.6686H29.3579C40.2378 37.6686 49.2258 29.4199 50.4004 18.8482C53.5152 18.6884 56.0003 16.1039 56.0003 12.9497ZM2.18777 12.9497C2.18777 11.0474 3.62408 9.47498 5.46913 9.25754V16.4947C5.46913 16.544 5.47066 16.593 5.47099 16.6422C3.62507 16.4258 2.18777 14.8528 2.18777 12.9497ZM29.3577 35.4811H26.643C16.1739 35.4811 7.65663 26.9638 7.65663 16.4947V8.73451L8.34493 8.29198C20.2851 0.615821 35.7155 0.615821 47.6558 8.29198L48.3441 8.7344V16.4947C48.3441 26.9638 39.8269 35.4811 29.3577 35.4811ZM50.5298 16.6422C50.5301 16.593 50.5316 16.544 50.5316 16.4947V9.25765C52.3766 9.47509 53.8128 11.0474 53.8128 12.9497C53.8128 14.8528 52.3756 16.4256 50.5298 16.6422Z" fill="white"/>
<path d="M41.9353 13.8195C37.7703 11.1421 32.9515 9.72681 28.0001 9.72681C23.0487 9.72681 18.23 11.142 14.065 13.8195C13.5568 14.1462 13.4097 14.8229 13.7363 15.331C14.063 15.8391 14.7398 15.9863 15.2478 15.6596C22.9946 10.6795 33.0056 10.6795 40.7525 15.6596C40.9355 15.7772 41.1403 15.8334 41.3428 15.8334C41.7025 15.8334 42.0549 15.6561 42.2639 15.331C42.5905 14.8229 42.4435 14.1463 41.9353 13.8195Z" fill="white"/>
<path d="M38.4114 20.233C32.0872 16.1673 23.9137 16.1673 17.5894 20.233C17.0812 20.5597 16.9341 21.2364 17.2607 21.7444C17.5873 22.2526 18.2642 22.3997 18.7722 22.0731C24.3781 18.4691 31.6226 18.4691 37.2286 22.0731C37.4115 22.1907 37.6164 22.2469 37.8188 22.2469C38.1786 22.2469 38.531 22.0696 38.74 21.7444C39.0667 21.2364 38.9196 20.5597 38.4114 20.233Z" fill="white"/>
</svg>
