<svg width="23" height="24" viewBox="0 0 23 24" fill="none" xmlns="http://www.w3.org/2000/svg">
<path d="M22.1551 13.8929C22.8711 7.8659 21.8111 4.0609 19.8991 2.3399L19.9001 2.3389C16.8141 -0.600097 6.39208 -1.0351 2.70008 2.4709C1.04208 4.1859 0.458079 6.7029 0.394079 9.8189C0.330079 12.9359 0.254079 18.7749 5.69508 20.3589H5.70008L5.69508 22.7779C5.69508 22.7779 5.65808 23.7579 6.28408 23.9549C7.00008 24.1869 7.32408 23.7319 9.55108 21.0719C13.2751 21.3949 16.1351 20.6549 16.4601 20.5469C17.2121 20.2949 21.4671 19.7319 22.1551 13.8929ZM9.91808 19.3699C9.91808 19.3699 7.56108 22.3089 6.82808 23.0719C6.58808 23.3199 6.32508 23.2969 6.32908 22.8049C6.32908 22.4819 6.34708 18.7889 6.34708 18.7889C1.73408 17.4669 2.00608 12.4949 2.05608 9.8939C2.10608 7.2919 2.58208 5.1609 3.98608 3.7259C7.22508 0.688903 16.3621 1.3679 18.6901 3.5559C21.5361 6.0789 20.5231 13.2069 20.5291 13.4499C19.9441 18.3239 16.4961 18.6329 15.8621 18.8439C15.5911 18.9339 13.0761 19.5809 9.91808 19.3699Z" fill="white"/>
<path d="M11.2219 4.29688C10.8369 4.29688 10.8369 4.89688 11.2219 4.90188C14.2089 4.92488 16.6689 7.00688 16.6959 10.8259C16.6959 11.2289 17.2859 11.2239 17.2809 10.8209H17.2799C17.2479 6.70588 14.5619 4.31988 11.2219 4.29688Z" fill="white"/>
<path d="M15.151 10.1929C15.142 10.5909 15.731 10.6099 15.736 10.2069C15.785 7.93791 14.3859 6.06891 11.7569 5.87191C11.3719 5.84391 11.3319 6.44891 11.7159 6.47691C13.9959 6.64991 15.197 8.20591 15.151 10.1929Z" fill="white"/>
<path d="M14.5207 12.7741C14.0267 12.4881 13.5237 12.6661 13.3157 12.9471L12.8807 13.5101C12.6597 13.7961 12.2467 13.7581 12.2467 13.7581C9.23272 12.9611 8.42672 9.8071 8.42672 9.8071C8.42672 9.8071 8.38972 9.3801 8.66572 9.1511L9.20972 8.7011C9.48172 8.4851 9.65372 7.9651 9.37672 7.4541C8.63672 6.1171 8.13972 5.6561 7.88672 5.3021C7.62072 4.9691 7.22072 4.8941 6.80472 5.1191H6.79572C5.93072 5.6251 4.98373 6.5721 5.28673 7.5471C5.80372 8.5751 6.75372 11.8521 9.78172 14.3281C11.2047 15.4991 13.4567 16.6991 14.4127 16.9761L14.4217 16.9901C15.3637 17.3041 16.2797 16.3201 16.7687 15.4291V15.4221C16.9857 14.9911 16.9137 14.5831 16.5967 14.3161C16.0347 13.7681 15.1867 13.1631 14.5207 12.7741Z" fill="white"/>
<path d="M12.1689 8.10393C13.1299 8.15993 13.5959 8.66193 13.6459 9.69294C13.6639 10.0959 14.2489 10.0679 14.2309 9.66494C14.1669 8.31893 13.4649 7.56893 12.2009 7.49893C11.8159 7.47593 11.7799 8.08093 12.1689 8.10393Z" fill="white"/>
</svg>
