<svg width="170" height="49" viewBox="0 0 170 49" fill="none" xmlns="http://www.w3.org/2000/svg">
<path d="M163.704 0.98C165.106 0.98 166.452 1.52206 167.444 2.48694C168.435 3.45181 168.993 4.76046 168.993 6.125V42.875C168.993 44.2395 168.435 45.5482 167.444 46.5131C166.452 47.4779 165.106 48.02 163.704 48.02H6.2963C4.8936 48.02 3.54835 47.4779 2.55649 46.5131C1.56463 45.5482 1.00741 44.2395 1.00741 42.875V6.125C1.00741 4.76046 1.56463 3.45181 2.55649 2.48694C3.54835 1.52206 4.8936 0.98 6.2963 0.98H163.704ZM163.704 0H6.2963C4.62641 0 3.02493 0.645311 1.84414 1.79397C0.663358 2.94263 0 4.50055 0 6.125V42.875C0 44.4995 0.663358 46.0574 1.84414 47.206C3.02493 48.3547 4.62641 49 6.2963 49H163.704C165.374 49 166.975 48.3547 168.156 47.206C169.337 46.0574 170 44.4995 170 42.875V6.125C170 4.50055 169.337 2.94263 168.156 1.79397C166.975 0.645311 165.374 0 163.704 0Z" fill="white"/>
<path d="M40.4384 23.6583C40.4036 19.8965 43.6048 18.0663 43.7512 17.9811C41.9382 15.4098 39.1282 15.0585 38.1408 15.0305C35.7807 14.7889 33.4914 16.4043 32.2892 16.4043C31.063 16.4043 29.2116 15.0538 27.2163 15.0935C24.6487 15.132 22.2466 16.5782 20.9292 18.8239C18.2104 23.4027 20.2381 30.1316 22.8429 33.8327C24.1459 35.6454 25.6685 37.6693 27.6614 37.5981C29.6112 37.5199 30.3395 36.3889 32.6923 36.3889C35.0236 36.3889 35.7075 37.5981 37.74 37.5525C39.8325 37.5199 41.1499 35.7317 42.4074 33.9027C43.9131 31.8252 44.5179 29.7791 44.5419 29.674C44.4927 29.6577 40.478 28.1672 40.4384 23.6583Z" fill="white"/>
<path d="M36.5989 12.5959C37.6476 11.3201 38.3651 9.58453 38.1659 7.82324C36.6481 7.8886 34.75 8.84453 33.657 10.0923C32.6899 11.1917 31.826 12.9939 32.0492 14.6886C33.7541 14.8124 35.5047 13.8518 36.5989 12.5959Z" fill="white"/>
<path d="M68.6545 37.3376H65.9297L64.4371 32.7751H59.2491L57.8273 37.3376H55.1744L60.3145 21.8047H63.4893L68.6545 37.3376ZM63.9872 30.8609L62.6374 26.8049C62.4946 26.3906 62.227 25.4148 61.8323 23.8788H61.7843C61.6271 24.5394 61.374 25.5152 61.026 26.8049L59.7002 30.8609H63.9872Z" fill="white"/>
<path d="M81.8728 31.5996C81.8728 33.5045 81.3437 35.0101 80.2854 36.1155C79.3375 37.0994 78.1605 37.5908 76.7555 37.5908C75.2389 37.5908 74.1495 37.0609 73.486 36.0011H73.438V41.9012H70.8799V29.8243C70.8799 28.6268 70.8475 27.3977 70.7852 26.1372H73.0348L73.1776 27.9125H73.2256C74.0787 26.5749 75.3733 25.9072 77.1107 25.9072C78.4689 25.9072 79.6027 26.429 80.5098 27.4736C81.4192 28.5194 81.8728 29.8943 81.8728 31.5996ZM79.2668 31.6906C79.2668 30.6005 79.0148 29.7018 78.5085 28.9944C77.9553 28.2568 77.2126 27.8879 76.2816 27.8879C75.6505 27.8879 75.0769 28.0934 74.5646 28.4984C74.0511 28.9069 73.7151 29.4403 73.558 30.1009C73.4788 30.4091 73.4392 30.6612 73.4392 30.8596V32.7271C73.4392 33.5418 73.6959 34.2293 74.2095 34.7907C74.723 35.3521 75.3901 35.6322 76.2108 35.6322C77.1743 35.6322 77.9241 35.2704 78.4605 34.5491C78.998 33.8266 79.2668 32.8742 79.2668 31.6906Z" fill="white"/>
<path d="M95.1156 31.5996C95.1156 33.5045 94.5865 35.0101 93.527 36.1155C92.5804 37.0994 91.4033 37.5908 89.9983 37.5908C88.4818 37.5908 87.3923 37.0609 86.73 36.0011H86.682V41.9012H84.124V29.8243C84.124 28.6268 84.0916 27.3977 84.0292 26.1372H86.2789L86.4216 27.9125H86.4696C87.3215 26.5749 88.6161 25.9072 90.3547 25.9072C91.7117 25.9072 92.8455 26.429 93.755 27.4736C94.6609 28.5194 95.1156 29.8943 95.1156 31.5996ZM92.5096 31.6906C92.5096 30.6005 92.2564 29.7018 91.7501 28.9944C91.197 28.2568 90.4567 27.8879 89.5244 27.8879C88.8921 27.8879 88.3198 28.0934 87.8063 28.4984C87.2927 28.9069 86.958 29.4403 86.8008 30.1009C86.7228 30.4091 86.682 30.6612 86.682 30.8596V32.7271C86.682 33.5418 86.9388 34.2293 87.4499 34.7907C87.9634 35.3509 88.6305 35.6322 89.4536 35.6322C90.4171 35.6322 91.167 35.2704 91.7033 34.5491C92.2408 33.8266 92.5096 32.8742 92.5096 31.6906Z" fill="white"/>
<path d="M109.922 32.9817C109.922 34.303 109.45 35.378 108.503 36.2078C107.463 37.1147 106.015 37.5676 104.154 37.5676C102.436 37.5676 101.058 37.2455 100.016 36.6L100.608 34.5259C101.732 35.1866 102.964 35.518 104.306 35.518C105.27 35.518 106.02 35.3056 106.558 34.8831C107.095 34.4606 107.362 33.8933 107.362 33.186C107.362 32.5557 107.142 32.0246 106.699 31.594C106.258 31.1633 105.523 30.7629 104.496 30.3929C101.7 29.3786 100.304 27.8928 100.304 25.9389C100.304 24.662 100.793 23.6151 101.774 22.8004C102.75 21.9845 104.053 21.5771 105.683 21.5771C107.136 21.5771 108.343 21.8234 109.306 22.3148L108.667 24.3434C107.767 23.8672 106.749 23.6291 105.611 23.6291C104.711 23.6291 104.008 23.845 103.504 24.2745C103.078 24.6585 102.864 25.1266 102.864 25.681C102.864 26.2949 103.108 26.8026 103.597 27.2018C104.023 27.5707 104.797 27.9698 105.92 28.4005C107.294 28.9386 108.303 29.5677 108.952 30.289C109.599 31.008 109.922 31.9079 109.922 32.9817Z" fill="white"/>
<path d="M118.379 28.0049H115.559V33.4429C115.559 34.826 116.056 35.5169 117.052 35.5169C117.509 35.5169 117.888 35.4784 118.188 35.4014L118.259 37.2911C117.755 37.4743 117.092 37.5665 116.27 37.5665C115.259 37.5665 114.47 37.2666 113.9 36.6678C113.333 36.0679 113.047 35.0617 113.047 33.6483V28.0026H111.367V26.1351H113.047V24.0843L115.559 23.3467V26.1351H118.379V28.0049Z" fill="white"/>
<path d="M131.101 31.6449C131.101 33.3665 130.594 34.78 129.584 35.8853C128.525 37.0233 127.119 37.5906 125.366 37.5906C123.676 37.5906 122.331 37.0455 121.328 35.9554C120.325 34.8652 119.824 33.4891 119.824 31.8305C119.824 30.0949 120.34 28.6733 121.375 27.5679C122.408 26.4615 123.802 25.9082 125.555 25.9082C127.245 25.9082 128.604 26.4533 129.63 27.5446C130.611 28.6032 131.101 29.97 131.101 31.6449ZM128.447 31.7255C128.447 30.6925 128.22 29.8066 127.76 29.0678C127.224 28.1737 126.457 27.7278 125.464 27.7278C124.436 27.7278 123.655 28.1749 123.118 29.0678C122.659 29.8078 122.432 30.7077 122.432 31.7722C122.432 32.8051 122.659 33.691 123.118 34.4287C123.671 35.3227 124.444 35.7686 125.441 35.7686C126.418 35.7686 127.185 35.3134 127.738 34.4053C128.209 33.6525 128.447 32.7573 128.447 31.7255Z" fill="white"/>
<path d="M139.415 28.3256C139.162 28.2801 138.892 28.2568 138.609 28.2568C137.709 28.2568 137.013 28.5871 136.524 29.2489C136.098 29.8325 135.884 30.5701 135.884 31.4607V37.3375H133.327L133.351 29.6644C133.351 28.3735 133.319 27.1981 133.255 26.1383H135.484L135.577 28.2813H135.648C135.918 27.5448 136.344 26.9519 136.927 26.5072C137.497 26.1068 138.112 25.9072 138.776 25.9072C139.012 25.9072 139.226 25.9236 139.415 25.9527V28.3256Z" fill="white"/>
<path d="M150.856 31.2079C150.856 31.6538 150.826 32.0296 150.762 32.3366H143.088C143.118 33.4431 143.489 34.2893 144.202 34.8729C144.848 35.3946 145.685 35.6561 146.712 35.6561C147.848 35.6561 148.885 35.4798 149.817 35.1262L150.218 36.8536C149.128 37.3158 147.842 37.5458 146.358 37.5458C144.572 37.5458 143.171 37.0345 142.151 36.0132C141.134 34.992 140.624 33.6205 140.624 31.9001C140.624 30.2111 141.098 28.8047 142.047 27.683C143.04 26.4855 144.383 25.8867 146.072 25.8867C147.732 25.8867 148.988 26.4855 149.841 27.683C150.516 28.6343 150.856 29.8108 150.856 31.2079ZM148.417 30.5625C148.433 29.8248 148.267 29.1875 147.92 28.6495C147.477 27.9573 146.797 27.6118 145.881 27.6118C145.045 27.6118 144.365 27.9491 143.845 28.6261C143.419 29.1642 143.166 29.8096 143.088 30.5613H148.417V30.5625Z" fill="white"/>
<path d="M63.1417 12.2494C63.1417 13.6232 62.7182 14.6573 61.8723 15.3518C61.0888 15.9926 59.9754 16.3136 58.5332 16.3136C57.8181 16.3136 57.2062 16.2832 56.6938 16.2225V8.71635C57.3622 8.61131 58.0821 8.55762 58.8595 8.55762C60.2333 8.55762 61.2688 8.84825 61.9671 9.42951C62.7494 10.0866 63.1417 11.0262 63.1417 12.2494ZM61.8159 12.2833C61.8159 11.3927 61.5736 10.7099 61.0888 10.2337C60.6041 9.75865 59.8962 9.52055 58.9639 9.52055C58.568 9.52055 58.2308 9.54622 57.9513 9.59992V15.3063C58.106 15.3296 58.3892 15.3401 58.8008 15.3401C59.763 15.3401 60.5057 15.0799 61.0288 14.5593C61.552 14.0387 61.8159 13.2801 61.8159 12.2833Z" fill="white"/>
<path d="M70.1716 13.4485C70.1716 14.2947 69.9232 14.988 69.4265 15.5319C68.9057 16.091 68.2158 16.3699 67.3544 16.3699C66.5241 16.3699 65.863 16.1026 65.3699 15.5657C64.8779 15.03 64.632 14.3542 64.632 13.5395C64.632 12.6874 64.8851 11.9883 65.3938 11.4456C65.9026 10.9028 66.5865 10.6309 67.448 10.6309C68.2782 10.6309 68.9453 10.8981 69.4505 11.4339C69.9304 11.9545 70.1716 12.6268 70.1716 13.4485ZM68.8673 13.4881C68.8673 12.9804 68.7546 12.545 68.5302 12.1821C68.2662 11.7432 67.8907 11.5238 67.4024 11.5238C66.8972 11.5238 66.5133 11.7432 66.2493 12.1821C66.0238 12.545 65.9122 12.9874 65.9122 13.5103C65.9122 14.018 66.025 14.4534 66.2493 14.8164C66.5217 15.2553 66.9008 15.4747 67.3904 15.4747C67.8703 15.4747 68.247 15.2518 68.5182 14.8047C68.751 14.4347 68.8673 13.9959 68.8673 13.4881Z" fill="white"/>
<path d="M79.5974 10.7432L77.8277 16.2453H76.6758L75.9427 13.8561C75.7568 13.2596 75.6056 12.6667 75.488 12.0784H75.4652C75.356 12.683 75.2049 13.2748 75.0105 13.8561L74.2318 16.2453H73.0667L71.4026 10.7432H72.6948L73.3343 13.3588C73.4891 13.9774 73.6163 14.5669 73.7183 15.1248H73.7411C73.8346 14.6649 73.9894 14.079 74.2078 13.3705L75.0105 10.7443H76.0351L76.8042 13.3145C76.9902 13.9413 77.1414 14.5447 77.2578 15.126H77.2926C77.3777 14.5599 77.5061 13.9564 77.6765 13.3145L78.3628 10.7443H79.5974V10.7432Z" fill="white"/>
<path d="M86.116 16.2456H84.8586V13.0942C84.8586 12.1231 84.4795 11.6375 83.7188 11.6375C83.3456 11.6375 83.0445 11.7706 82.8105 12.0379C82.5789 12.3052 82.4613 12.6203 82.4613 12.981V16.2444H81.2039V12.3157C81.2039 11.8325 81.1883 11.3084 81.1583 10.7411H82.2634L82.3222 11.6014H82.357C82.5033 11.3341 82.7217 11.1135 83.0085 10.9372C83.3492 10.7318 83.7308 10.6279 84.1483 10.6279C84.6762 10.6279 85.1154 10.7937 85.4645 11.1263C85.8989 11.5337 86.116 12.1418 86.116 12.9495V16.2456Z" fill="white"/>
<path d="M89.5834 16.2455H88.3271V8.21875H89.5834V16.2455Z" fill="white"/>
<path d="M96.9866 13.4485C96.9866 14.2947 96.7383 14.988 96.2415 15.5319C95.7208 16.091 95.0297 16.3699 94.1694 16.3699C93.338 16.3699 92.6768 16.1026 92.1849 15.5657C91.693 15.03 91.447 14.3542 91.447 13.5395C91.447 12.6874 91.7002 11.9883 92.2089 11.4456C92.7176 10.9028 93.4015 10.6309 94.2618 10.6309C95.0933 10.6309 95.7592 10.8981 96.2655 11.4339C96.7455 11.9545 96.9866 12.6268 96.9866 13.4485ZM95.6812 13.4881C95.6812 12.9804 95.5684 12.545 95.3441 12.1821C95.0813 11.7432 94.7046 11.5238 94.2174 11.5238C93.7111 11.5238 93.3272 11.7432 93.0644 12.1821C92.8388 12.545 92.7272 12.9874 92.7272 13.5103C92.7272 14.018 92.84 14.4534 93.0644 14.8164C93.3368 15.2553 93.7159 15.4747 94.2054 15.4747C94.6854 15.4747 95.0609 15.2518 95.3321 14.8047C95.566 14.4347 95.6812 13.9959 95.6812 13.4881Z" fill="white"/>
<path d="M103.072 16.245H101.943L101.849 15.6113H101.815C101.428 16.1166 100.877 16.3699 100.162 16.3699C99.6284 16.3699 99.1965 16.203 98.8713 15.8715C98.5762 15.5704 98.4286 15.1957 98.4286 14.751C98.4286 14.0787 98.7165 13.5663 99.2961 13.2115C99.8744 12.8567 100.688 12.6828 101.735 12.6909V12.5882C101.735 11.8634 101.344 11.5016 100.561 11.5016C100.003 11.5016 99.5108 11.6381 99.0861 11.9089L98.8305 11.1059C99.3561 10.7896 100.005 10.6309 100.771 10.6309C102.249 10.6309 102.99 11.3895 102.99 12.9069V14.9331C102.99 15.4829 103.018 15.9206 103.072 16.245ZM101.767 14.3542V13.5056C100.38 13.4823 99.686 13.8523 99.686 14.6145C99.686 14.9016 99.7652 15.1164 99.9272 15.2599C100.089 15.4035 100.296 15.4747 100.541 15.4747C100.817 15.4747 101.075 15.3895 101.311 15.2202C101.547 15.0498 101.692 14.8339 101.746 14.569C101.759 14.5094 101.767 14.4371 101.767 14.3542Z" fill="white"/>
<path d="M110.217 16.2455H109.101L109.042 15.3619H109.007C108.651 16.0342 108.044 16.3704 107.191 16.3704C106.509 16.3704 105.942 16.1101 105.492 15.5895C105.042 15.069 104.817 14.3932 104.817 13.5633C104.817 12.6727 105.061 11.9514 105.55 11.4005C106.024 10.8869 106.605 10.6302 107.296 10.6302C108.056 10.6302 108.587 10.8788 108.89 11.3772H108.914V8.21875H110.172V14.7632C110.172 15.2989 110.187 15.7926 110.217 16.2455ZM108.914 13.9251V13.0077C108.914 12.849 108.902 12.7206 108.879 12.6225C108.808 12.3284 108.656 12.081 108.424 11.8814C108.19 11.6818 107.908 11.5814 107.583 11.5814C107.114 11.5814 106.747 11.7623 106.477 12.1253C106.209 12.4883 106.074 12.9517 106.074 13.5178C106.074 14.0617 106.202 14.5029 106.46 14.8425C106.732 15.2044 107.099 15.3853 107.559 15.3853C107.972 15.3853 108.302 15.2347 108.552 14.9324C108.795 14.6535 108.914 14.3173 108.914 13.9251Z" fill="white"/>
<path d="M120.971 13.4485C120.971 14.2947 120.723 14.988 120.226 15.5319C119.705 16.091 119.016 16.3699 118.154 16.3699C117.325 16.3699 116.664 16.1026 116.169 15.5657C115.677 15.03 115.431 14.3542 115.431 13.5395C115.431 12.6874 115.685 11.9883 116.193 11.4456C116.702 10.9028 117.386 10.6309 118.249 10.6309C119.078 10.6309 119.746 10.8981 120.25 11.4339C120.73 11.9545 120.971 12.6268 120.971 13.4485ZM119.668 13.4881C119.668 12.9804 119.555 12.545 119.331 12.1821C119.066 11.7432 118.691 11.5238 118.202 11.5238C117.698 11.5238 117.314 11.7432 117.049 12.1821C116.823 12.545 116.712 12.9874 116.712 13.5103C116.712 14.018 116.824 14.4534 117.049 14.8164C117.321 15.2553 117.7 15.4747 118.19 15.4747C118.67 15.4747 119.048 15.2518 119.319 14.8047C119.55 14.4347 119.668 13.9959 119.668 13.4881Z" fill="white"/>
<path d="M127.732 16.2456H126.476V13.0942C126.476 12.1231 126.097 11.6375 125.335 11.6375C124.961 11.6375 124.66 11.7706 124.428 12.0379C124.195 12.3052 124.078 12.6203 124.078 12.981V16.2444H122.82V12.3157C122.82 11.8325 122.805 11.3084 122.775 10.7411H123.879L123.938 11.6014H123.973C124.12 11.3341 124.339 11.1135 124.624 10.9372C124.966 10.7318 125.347 10.6279 125.765 10.6279C126.292 10.6279 126.731 10.7937 127.08 11.1263C127.516 11.5337 127.732 12.1418 127.732 12.9495V16.2456Z" fill="white"/>
<path d="M136.194 11.6596H134.81V14.3324C134.81 15.0117 135.056 15.3514 135.543 15.3514C135.768 15.3514 135.955 15.3327 136.103 15.2942L136.135 16.2221C135.887 16.3131 135.561 16.3587 135.159 16.3587C134.662 16.3587 134.276 16.2116 133.996 15.9175C133.715 15.6233 133.576 15.1285 133.576 14.434V11.6596H132.75V10.7433H133.576V9.73488L134.808 9.37305V10.7422H136.193V11.6596H136.194Z" fill="white"/>
<path d="M142.851 16.2455H141.593V13.1174C141.593 12.1312 141.214 11.6374 140.454 11.6374C139.871 11.6374 139.473 11.9234 139.254 12.4953C139.217 12.6155 139.195 12.7626 139.195 12.9354V16.2443H137.939V8.21875H139.195V11.5347H139.219C139.615 10.9313 140.183 10.6302 140.918 10.6302C141.439 10.6302 141.87 10.7959 142.212 11.1285C142.638 11.5429 142.851 12.1592 142.851 12.9739V16.2455Z" fill="white"/>
<path d="M149.718 13.2344C149.718 13.4539 149.701 13.6383 149.671 13.7888H145.9C145.917 14.3328 146.097 14.7471 146.446 15.0342C146.765 15.291 147.177 15.4194 147.681 15.4194C148.239 15.4194 148.747 15.333 149.206 15.1591L149.402 16.0088C148.866 16.2353 148.235 16.3485 147.504 16.3485C146.628 16.3485 145.938 16.0975 145.439 15.5956C144.938 15.0938 144.689 14.4203 144.689 13.5752C144.689 12.7454 144.921 12.0544 145.388 11.5035C145.875 10.9152 146.534 10.6211 147.365 10.6211C148.179 10.6211 148.796 10.9152 149.214 11.5035C149.551 11.9704 149.718 12.5481 149.718 13.2344ZM148.518 12.9181C148.528 12.5551 148.445 12.2423 148.275 11.9785C148.056 11.6389 147.724 11.4685 147.274 11.4685C146.864 11.4685 146.529 11.6342 146.273 11.9669C146.064 12.2318 145.941 12.5481 145.9 12.9181H148.518Z" fill="white"/>
</svg>
