<svg width="170" height="49" viewBox="0 0 170 49" fill="none" xmlns="http://www.w3.org/2000/svg">
<path d="M163.704 0.98C165.106 0.98 166.452 1.52206 167.444 2.48694C168.435 3.45181 168.993 4.76046 168.993 6.125V42.875C168.993 44.2395 168.435 45.5482 167.444 46.5131C166.452 47.4779 165.106 48.02 163.704 48.02H6.2963C4.8936 48.02 3.54835 47.4779 2.55649 46.5131C1.56463 45.5482 1.00741 44.2395 1.00741 42.875V6.125C1.00741 4.76046 1.56463 3.45181 2.55649 2.48694C3.54835 1.52206 4.8936 0.98 6.2963 0.98H163.704ZM163.704 0H6.2963C4.62641 0 3.02493 0.645311 1.84414 1.79397C0.663358 2.94263 0 4.50055 0 6.125V42.875C0 44.4995 0.663358 46.0574 1.84414 47.206C3.02493 48.3547 4.62641 49 6.2963 49H163.704C165.374 49 166.975 48.3547 168.156 47.206C169.337 46.0574 170 44.4995 170 42.875V6.125C170 4.50055 169.337 2.94263 168.156 1.79397C166.975 0.645311 165.374 0 163.704 0Z" fill="white"/>
<path d="M85.806 26.6432C84.7486 26.6481 83.7164 26.9575 82.8396 27.5325C81.9628 28.1075 81.2808 28.9223 80.8795 29.8741C80.4783 30.8258 80.3759 31.8718 80.5853 32.8801C80.7946 33.8884 81.3063 34.8138 82.0558 35.5394C82.8052 36.2651 83.7589 36.7585 84.7963 36.9574C85.8338 37.1563 86.9086 37.0518 87.885 36.657C88.8615 36.2623 89.6959 35.595 90.2828 34.7394C90.8698 33.8837 91.183 32.8781 91.1831 31.8495C91.1933 31.161 91.0611 30.4775 90.7942 29.8397C90.5273 29.2019 90.1312 28.6229 89.6294 28.1371C89.1277 27.6514 88.5307 27.2688 87.8738 27.0121C87.217 26.7555 86.5137 26.63 85.806 26.6432ZM85.806 35.01C85.1557 35.0542 84.5068 34.9071 83.9435 34.5878C83.3803 34.2685 82.9288 33.7918 82.6478 33.2196C82.3668 32.6474 82.2693 32.0061 82.3678 31.3793C82.4664 30.7524 82.7566 30.1689 83.2006 29.7046C83.6446 29.2402 84.2219 28.9166 84.8575 28.7757C85.4931 28.6348 86.1576 28.6831 86.7645 28.9145C87.3715 29.1458 87.8929 29.5494 88.261 30.0729C88.629 30.5963 88.8267 31.2153 88.8282 31.8495C88.8485 32.2513 88.7859 32.653 88.644 33.0309C88.5022 33.4088 88.284 33.7552 88.0023 34.0498C87.7207 34.3444 87.3812 34.5811 87.004 34.746C86.6268 34.9109 86.2195 35.0007 85.806 35.01ZM74.0823 26.6432C73.0244 26.6457 71.9909 26.9531 71.1124 27.5266C70.234 28.1001 69.55 28.9141 69.1468 29.8656C68.7437 30.8171 68.6395 31.8636 68.8474 32.8727C69.0553 33.8818 69.5661 34.8083 70.315 35.5352C71.064 36.2621 72.0176 36.7567 73.0554 36.9566C74.0932 37.1565 75.1687 37.0527 76.1459 36.6583C77.1231 36.2638 77.9582 35.5965 78.5457 34.7406C79.1332 33.8848 79.4468 32.8787 79.4468 31.8495C79.457 31.161 79.3248 30.4775 79.0579 29.8397C78.791 29.2019 78.3949 28.6229 77.8932 28.1371C77.3914 27.6514 76.7944 27.2688 76.1375 27.0121C75.4807 26.7555 74.7774 26.63 74.0697 26.6432H74.0823ZM74.0823 35.01C73.4317 35.0567 72.7817 34.9118 72.2169 34.5942C71.6521 34.2765 71.1987 33.8008 70.9157 33.229C70.6327 32.6571 70.5333 32.0157 70.6303 31.3881C70.7273 30.7605 71.0163 30.1758 71.4597 29.7103C71.903 29.2447 72.4802 28.9197 73.116 28.7777C73.7519 28.6357 74.417 28.6832 75.0247 28.914C75.6324 29.1448 76.1546 29.5483 76.5233 30.0719C76.892 30.5954 77.0902 31.2148 77.0919 31.8495C77.1122 32.2513 77.0496 32.653 76.9078 33.0309C76.7659 33.4088 76.5477 33.7552 76.266 34.0498C75.9844 34.3444 75.6449 34.5811 75.2677 34.746C74.8905 34.9109 74.4832 35.0007 74.0697 35.01H74.0823ZM60.1171 28.248V30.453H65.5571C65.4718 31.4915 65.028 32.4715 64.2979 33.2337C63.7536 33.773 63.0993 34.1955 62.3771 34.474C61.6549 34.7525 60.8808 34.8808 60.1045 34.8507C58.5014 34.8507 56.964 34.2312 55.8305 33.1285C54.6969 32.0258 54.0601 30.5302 54.0601 28.9707C54.0601 27.4113 54.6969 25.9157 55.8305 24.8129C56.964 23.7102 58.5014 23.0907 60.1045 23.0907C61.6381 23.0664 63.1189 23.6347 64.2223 24.671L65.8216 23.1152C65.0767 22.3815 64.188 21.8007 63.2081 21.4072C62.2283 21.0137 61.1772 20.8155 60.1171 20.8245C58.9976 20.7821 57.8809 20.96 56.8338 21.3475C55.7866 21.735 54.8307 22.3242 54.0233 23.0797C53.2158 23.8352 52.5735 24.7415 52.1347 25.7443C51.6959 26.7471 51.4697 27.8258 51.4697 28.9156C51.4697 30.0055 51.6959 31.0841 52.1347 32.0869C52.5735 33.0897 53.2158 33.996 54.0233 34.7515C54.8307 35.507 55.7866 36.0962 56.8338 36.4837C57.8809 36.8712 58.9976 37.0491 60.1171 37.0067C61.195 37.0541 62.2708 36.8764 63.2721 36.4855C64.2735 36.0946 65.1771 35.4996 65.9223 34.7405C67.2416 33.3304 67.946 31.4768 67.8868 29.571C67.8908 29.1067 67.8486 28.6431 67.7608 28.1867L60.1171 28.248ZM117.174 29.963C116.846 29.0231 116.232 28.2024 115.413 27.6096C114.595 27.0168 113.61 26.6798 112.59 26.6432C111.902 26.6419 111.22 26.7781 110.587 27.0432C109.955 27.3084 109.385 27.697 108.913 28.1849C108.441 28.6729 108.076 29.2499 107.843 29.8802C107.609 30.5105 107.51 31.1807 107.553 31.8495C107.538 32.5342 107.665 33.2148 107.926 33.8508C108.187 34.4867 108.577 35.065 109.073 35.5509C109.569 36.0369 110.161 36.4206 110.813 36.6791C111.465 36.9377 112.164 37.0658 112.867 37.0557C113.748 37.0604 114.617 36.8524 115.395 36.4505C116.173 36.0486 116.836 35.4652 117.325 34.7527L115.499 33.5277C115.227 33.9697 114.841 34.3353 114.38 34.5886C113.918 34.842 113.397 34.9745 112.867 34.9732C112.322 34.9935 111.783 34.8536 111.32 34.5717C110.858 34.2899 110.493 33.8792 110.273 33.393L117.439 30.5142L117.174 29.963ZM109.87 31.7025C109.845 31.3236 109.897 30.9435 110.025 30.5846C110.152 30.2257 110.352 29.8951 110.612 29.6121C110.872 29.3292 111.188 29.0997 111.541 28.937C111.894 28.7742 112.276 28.6816 112.666 28.6645C113.072 28.6385 113.477 28.7291 113.831 28.9251C114.185 29.1211 114.472 29.4138 114.656 29.767L109.87 31.7025ZM104.053 36.7495H106.408V21.437H104.053V36.7495ZM100.199 27.807H100.111C99.7563 27.421 99.3215 27.1123 98.8354 26.9012C98.3493 26.6901 97.8228 26.5813 97.2905 26.582C95.9143 26.6469 94.6166 27.2244 93.6663 28.1948C92.7159 29.1652 92.1858 30.4541 92.1858 31.7944C92.1858 33.1346 92.7159 34.4235 93.6663 35.3939C94.6166 36.3643 95.9143 36.9418 97.2905 37.0067C97.8241 37.0155 98.3532 36.9103 98.8405 36.6987C99.3279 36.487 99.7616 36.174 100.111 35.7817H100.187V36.529C100.187 38.5257 99.0912 39.5915 97.3282 39.5915C96.7411 39.5781 96.1713 39.3951 95.6914 39.0657C95.2115 38.7363 94.8432 38.2754 94.6334 37.7417L92.5808 38.5747C92.9672 39.489 93.6255 40.2702 94.4714 40.818C95.3173 41.3659 96.3121 41.6554 97.3282 41.6495C100.086 41.6495 102.365 40.0692 102.365 36.2227V26.9495H100.199V27.807ZM97.5045 35.01C96.6923 34.9404 95.9362 34.5772 95.3855 33.9922C94.8348 33.4072 94.5294 32.6427 94.5294 31.8495C94.5294 31.0562 94.8348 30.2918 95.3855 29.7068C95.9362 29.1217 96.6923 28.7586 97.5045 28.689C97.9073 28.7091 98.3018 28.8074 98.6649 28.9781C99.028 29.1489 99.3523 29.3885 99.6186 29.6831C99.885 29.9776 100.088 30.321 100.216 30.6931C100.344 31.0651 100.394 31.4583 100.363 31.8495C100.397 32.2423 100.35 32.6379 100.222 33.0122C100.095 33.3865 99.891 33.7318 99.6226 34.0273C99.3542 34.3227 99.027 34.5621 98.6608 34.731C98.2946 34.8999 97.8969 34.9948 97.4919 35.01H97.5045ZM128.205 21.437H122.576V36.7495H124.931V30.943H128.218C128.889 30.9899 129.563 30.9018 130.197 30.6842C130.832 30.4666 131.414 30.1241 131.906 29.6782C132.399 29.2322 132.792 28.6923 133.06 28.0922C133.329 27.4921 133.467 26.8445 133.467 26.19C133.467 25.5354 133.329 24.8879 133.06 24.2878C132.792 23.6876 132.399 23.1478 131.906 22.7018C131.414 22.2559 130.832 21.9134 130.197 21.6958C129.563 21.4782 128.889 21.3901 128.218 21.437H128.205ZM128.205 28.787H124.919V23.5685H128.256C128.972 23.5685 129.659 23.8453 130.166 24.3381C130.672 24.8309 130.957 25.4992 130.957 26.1961C130.957 26.893 130.672 27.5613 130.166 28.0541C129.659 28.5469 128.972 28.8237 128.256 28.8237L128.205 28.787ZM142.725 26.582C141.867 26.5321 141.014 26.727 140.269 27.1427C139.524 27.5584 138.92 28.1767 138.531 28.9217L140.622 29.767C140.828 29.3975 141.14 29.0942 141.52 28.8941C141.9 28.694 142.332 28.6057 142.762 28.64C143.061 28.606 143.364 28.6303 143.653 28.7114C143.942 28.7926 144.212 28.9289 144.447 29.1125C144.681 29.2961 144.876 29.5232 145.019 29.7807C145.162 30.0382 145.251 30.3209 145.281 30.6122V30.7715C144.525 30.3819 143.681 30.18 142.825 30.1835C140.571 30.1835 138.292 31.4085 138.292 33.6257C138.314 34.0985 138.434 34.5621 138.643 34.9892C138.853 35.4163 139.148 35.7982 139.512 36.1122C139.876 36.4263 140.301 36.6662 140.762 36.8177C141.223 36.9693 141.71 37.0294 142.196 36.9945C142.789 37.0359 143.382 36.9213 143.914 36.6626C144.446 36.404 144.896 36.0108 145.218 35.5245H145.293V36.7495H147.56V30.8572C147.56 28.1745 145.47 26.6187 142.787 26.6187L142.725 26.582ZM142.435 34.9732C141.667 34.9732 140.596 34.5935 140.596 33.6747C140.596 32.4497 141.931 32.0455 143.115 32.0455C143.863 32.0275 144.602 32.2052 145.256 32.56C145.177 33.2232 144.854 33.8364 144.348 34.2866C143.841 34.7368 143.184 34.9937 142.498 35.01L142.435 34.9732ZM155.821 26.9495L153.126 33.589H153.05L150.255 26.9495H147.736L151.93 36.235L149.537 41.3922H151.993L158.44 26.9495H155.821ZM134.653 36.7495H137.008V21.437H134.653V36.7495Z" fill="white"/>
<path d="M59.6359 12.6199C59.6573 13.0692 59.5846 13.5181 59.4222 13.9393C59.2599 14.3604 59.0112 14.7451 58.6914 15.0699C58.3343 15.4308 57.903 15.7144 57.4257 15.9023C56.9483 16.0901 56.4356 16.178 55.921 16.1602C55.1403 16.1542 54.3787 15.9243 53.7317 15.4991C53.0847 15.0739 52.5811 14.4725 52.2839 13.7701C51.9868 13.0677 51.9093 12.2956 52.0613 11.5506C52.2132 10.8056 52.5878 10.1208 53.1381 9.58192C53.4998 9.22273 53.9333 8.93956 54.412 8.74992C54.8907 8.56028 55.4043 8.46822 55.921 8.47942C56.4534 8.47769 56.9805 8.58191 57.4699 8.78567C57.9256 8.96446 58.3312 9.24573 58.6536 9.60642L57.9862 10.2557C57.7349 9.96485 57.4175 9.73487 57.0591 9.58392C56.7006 9.43298 56.311 9.36519 55.921 9.38592C55.5277 9.38404 55.138 9.45945 54.7754 9.60763C54.4127 9.75581 54.0846 9.9737 53.8106 10.2482C53.5366 10.5228 53.3224 10.8483 53.1809 11.2053C53.0394 11.5624 52.9734 11.9435 52.987 12.3259C52.9787 12.8969 53.1445 13.4575 53.4634 13.937C53.7823 14.4165 54.24 14.7933 54.7788 15.02C55.3176 15.2467 55.9134 15.3131 56.4909 15.2108C57.0685 15.1085 57.6019 14.8421 58.024 14.4452C58.4115 14.0367 58.635 13.5062 58.6536 12.9507H55.921V12.0687H59.5855C59.6191 12.2506 59.6359 12.4351 59.6359 12.6199ZM65.4033 9.55742H62.0033V11.8849H65.101V12.7669H62.0033V15.0944H65.4033V16.0009H60.9959V8.65092H65.4033V9.55742ZM69.5336 16.0009H68.564V9.55742H66.4485V8.65092H71.6996V9.55742H69.5336V16.0009ZM75.4018 16.0009V8.65092H76.3714V16.0009H75.4018ZM80.6781 16.0009H79.7085V9.55742H77.5929V8.65092H82.7811V9.55742H80.6781V16.0009ZM92.6159 15.0454C91.8797 15.7576 90.8837 16.1573 89.8455 16.1573C88.8073 16.1573 87.8113 15.7576 87.0751 15.0454C86.3596 14.3086 85.9609 13.3334 85.9609 12.3198C85.9609 11.3062 86.3596 10.331 87.0751 9.59417C87.438 9.23861 87.8696 8.9564 88.345 8.76383C88.8205 8.57125 89.3305 8.47211 89.8455 8.47211C90.3605 8.47211 90.8705 8.57125 91.3459 8.76383C91.8214 8.9564 92.253 9.23861 92.6159 9.59417C93.3342 10.3296 93.7348 11.3053 93.7348 12.3198C93.7348 13.3343 93.3342 14.31 92.6159 15.0454ZM87.7929 14.4329C88.3381 14.961 89.0761 15.2576 89.8455 15.2576C90.6149 15.2576 91.3529 14.961 91.8981 14.4329C92.4361 13.856 92.7341 13.1049 92.7341 12.3259C92.7341 11.547 92.4361 10.7959 91.8981 10.2189C91.3529 9.6908 90.6149 9.39428 89.8455 9.39428C89.0761 9.39428 88.3381 9.6908 87.7929 10.2189C87.2549 10.7959 86.9569 11.547 86.9569 12.3259C86.9569 13.1049 87.2549 13.856 87.7929 14.4329ZM95.0966 16.0009V8.65092H96.2803L99.9574 14.3717V8.65092H100.927V16.0009H99.9196L96.0788 10.0107V16.0009H95.0966Z" fill="white"/>
<path fill-rule="evenodd" clip-rule="evenodd" d="M89.8455 8.59461C89.3471 8.59461 88.8536 8.69056 88.3934 8.87692C87.9338 9.06309 87.5165 9.33581 87.1656 9.6794C86.4728 10.3933 86.0869 11.338 86.0869 12.3198C86.0869 13.3015 86.4727 14.246 87.1653 14.9599C87.8778 15.6484 88.8412 16.0348 89.8455 16.0348C90.8498 16.0348 91.8134 15.6483 92.5258 14.9598C93.2212 14.2473 93.6089 13.3023 93.6089 12.3198C93.6089 11.3372 93.2211 10.3921 92.5256 9.67956C92.1746 9.33589 91.7573 9.06312 91.2975 8.87692C90.8374 8.69055 90.3439 8.59461 89.8455 8.59461ZM88.2966 8.65074C88.7875 8.45195 89.3139 8.34961 89.8455 8.34961C90.3771 8.34961 90.9035 8.45195 91.3943 8.65074C91.8852 8.84953 92.3307 9.14083 92.7052 9.50787L92.7072 9.50977C93.4478 10.2679 93.8607 11.2739 93.8607 12.3198C93.8607 13.3657 93.4478 14.3716 92.7071 15.1298L92.7047 15.1323C91.9449 15.8673 90.917 16.2798 89.8455 16.2798C88.774 16.2798 87.7461 15.8673 86.9863 15.1323L86.9835 15.1296C86.2459 14.37 85.835 13.3647 85.835 12.3198C85.835 11.2749 86.246 10.2696 86.9836 9.51005L86.9857 9.50784C87.3603 9.14081 87.8058 8.84953 88.2966 8.65074ZM55.9182 8.60189C55.4187 8.59106 54.9223 8.68006 54.4595 8.86337C53.9968 9.04669 53.5777 9.32042 53.228 9.66764L53.2274 9.66826C52.6946 10.19 52.3319 10.8531 52.1848 11.5744C52.0377 12.2958 52.1127 13.0434 52.4004 13.7235C52.6881 14.4036 53.1757 14.9859 53.8022 15.3976C54.4286 15.8093 55.1661 16.0319 55.922 16.0377L55.9255 16.0377C56.4224 16.0549 56.9175 15.9701 57.3784 15.7887C57.8393 15.6073 58.2558 15.3335 58.6006 14.9851C58.9086 14.6723 59.148 14.3018 59.3043 13.8962C59.4607 13.4906 59.5307 13.0583 59.5101 12.6256L59.6359 12.6199L59.5099 12.6199C59.51 12.4764 59.4994 12.3331 59.4783 12.1912H56.047V12.8282H58.7837L58.7795 12.9547C58.7599 13.5396 58.5245 14.0981 58.1166 14.5282L58.1117 14.5334C57.6717 14.9471 57.1155 15.2247 56.5135 15.3313C55.9115 15.4379 55.2905 15.3687 54.7288 15.1324C54.1672 14.8961 53.6901 14.5033 53.3577 14.0035C53.0258 13.5046 52.853 12.9214 52.861 12.3272C52.8473 11.9293 52.9161 11.5328 53.0634 11.1613C53.211 10.7889 53.4344 10.4493 53.7202 10.1629C54.006 9.87654 54.3483 9.64925 54.7266 9.49469C55.1037 9.34059 55.5089 9.26194 55.9179 9.26341C56.3262 9.24227 56.7339 9.31349 57.1091 9.47151C57.4434 9.61232 57.7438 9.81863 57.9918 10.0771L58.4799 9.60217C58.1843 9.29657 57.8237 9.05659 57.4228 8.89928L57.4204 8.89832C56.9467 8.70113 56.4367 8.60025 55.9215 8.60192L55.9182 8.60189ZM59.7618 12.6171C59.7835 13.082 59.7081 13.5465 59.5401 13.9823C59.3718 14.419 59.114 14.8178 58.7824 15.1547C58.413 15.5279 57.9666 15.8215 57.4729 16.0158C56.9797 16.2099 56.45 16.3008 55.9183 16.2827C55.1134 16.2762 54.3283 16.039 53.6612 15.6006C52.9937 15.1619 52.474 14.5414 52.1675 13.8167C51.8609 13.092 51.781 12.2954 51.9377 11.5268C52.0945 10.7582 52.4808 10.0518 53.0484 9.49589C53.4221 9.12487 53.87 8.83237 54.3645 8.63647C54.8587 8.44071 55.3888 8.34557 55.9222 8.35692C56.4708 8.35535 57.0139 8.46275 57.5183 8.67255C57.9919 8.8586 58.4135 9.15107 58.7487 9.52604L58.8257 9.61226L57.9782 10.4367L57.8898 10.3345C57.6511 10.0582 57.3495 9.83974 57.009 9.69634C56.6685 9.55294 56.2984 9.48854 55.9279 9.50824L55.9204 9.50864C55.544 9.50684 55.1712 9.57878 54.8241 9.72057C54.4771 9.86236 54.1631 10.0709 53.9009 10.3336C53.6387 10.5963 53.4338 10.9078 53.2984 11.2494C53.163 11.591 53.0998 11.9558 53.1128 12.3217L53.113 12.3276C53.1051 12.8745 53.2637 13.4113 53.5691 13.8705C53.8745 14.3296 54.3128 14.6905 54.8288 14.9076C55.3448 15.1247 55.9153 15.1882 56.4684 15.0903C57.0203 14.9925 57.5301 14.7383 57.9339 14.3595C58.2699 14.0042 58.4751 13.5518 58.5198 13.0732H55.7951V11.9462H59.6908L59.7094 12.047C59.7442 12.2352 59.7617 12.4259 59.7618 12.6171ZM60.8699 8.52842H65.5292V9.67992H62.1292V11.7624H65.227V12.8894H62.1292V14.9719H65.5292V16.1234H60.8699V8.52842ZM61.1218 8.77342V15.8784H65.2773V15.2169H61.8773V12.6444H64.9751V12.0074H61.8773V9.43492H65.2773V8.77342H61.1218ZM66.3225 8.52842H71.8255V9.67992H69.6596V16.1234H68.4381V9.67992H66.3225V8.52842ZM66.5744 8.77342V9.43492H68.6899V15.8784H69.4077V9.43492H71.5736V8.77342H66.5744ZM75.2759 8.52842H76.4973V16.1234H75.2759V8.52842ZM75.5277 8.77342V15.8784H76.2455V8.77342H75.5277ZM77.467 8.52842H82.907V9.67992H80.804V16.1234H79.5825V9.67992H77.467V8.52842ZM77.7188 8.77342V9.43492H79.8344V15.8784H80.5522V9.43492H82.6551V8.77342H77.7188ZM94.9707 8.52842H96.3501L99.8314 13.9447V8.52842H101.053V16.1234H99.8497L96.2048 10.4385V16.1234H94.9707V8.52842ZM95.2225 8.77342V15.8784H95.9529V9.5828L99.9894 15.8784H100.801V8.77342H100.083V14.7986L96.2105 8.77342H95.2225ZM87.704 10.1321C88.2728 9.58113 89.0428 9.27178 89.8455 9.27178C90.6482 9.27178 91.4182 9.58113 91.9869 10.1321L91.9915 10.1365C92.5505 10.736 92.86 11.5165 92.86 12.3259C92.86 13.1353 92.5504 13.9157 91.9914 14.5152L91.9871 14.5198C91.4183 15.0708 90.6482 15.3801 89.8455 15.3801C89.0428 15.3801 88.2728 15.0707 87.704 14.5197L87.7929 14.4329L87.6996 14.5152C87.1406 13.9157 86.831 13.1353 86.831 12.3259C86.831 11.5165 87.1406 10.7361 87.6996 10.1366L87.704 10.1321ZM87.884 14.3483C88.4054 14.8522 89.1105 15.1351 89.8455 15.1351C90.5805 15.1351 91.2856 14.8522 91.807 14.3483C92.3226 13.7942 92.6082 13.0734 92.6082 12.3259C92.6082 11.5784 92.3226 10.8576 91.807 10.3035C91.2856 9.79963 90.5805 9.51678 89.8455 9.51678C89.1105 9.51678 88.4054 9.79963 87.884 10.3035C87.3684 10.8576 87.0828 11.5784 87.0828 12.3259C87.0828 13.0734 87.3684 13.7942 87.884 14.3483Z" fill="white"/>
<path d="M13.2168 40.0555L28.6434 24.4904L13.2297 8.95312C12.818 9.19502 12.5632 9.75511 12.5632 10.4883V38.5353C12.5688 39.2684 12.8143 39.7876 13.2168 40.0555Z" fill="white"/>
<path d="M29.1962 24.0601L33.7913 19.4231L15.0784 9.06995C14.7633 8.88522 14.4054 8.78764 14.0409 8.78711L29.1943 24.0583L29.1962 24.0601Z" fill="white"/>
<path d="M29.1961 24.9219L13.9946 40.26C14.3762 40.2665 14.752 40.166 15.0802 39.9698L33.83 29.5886L29.1961 24.9219Z" fill="white"/>
<path d="M40.5704 23.1802L34.3432 19.7285L29.6226 24.492L34.3783 29.2853L40.5685 25.8429C41.8849 25.1117 41.8848 23.9078 40.5704 23.1802Z" fill="white"/>
</svg>
