<svg width="26" height="26" viewBox="0 0 26 26" fill="none" xmlns="http://www.w3.org/2000/svg">
<path d="M8.44589 12.6269C8.44589 10.3024 10.3298 8.41757 12.6543 8.41757C14.9789 8.41757 16.8638 10.3024 16.8638 12.6269C16.8638 14.9513 14.9789 16.8361 12.6543 16.8361C10.3298 16.8361 8.44589 14.9513 8.44589 12.6269ZM6.17034 12.6269C6.17034 16.2078 9.07322 19.1106 12.6543 19.1106C16.2355 19.1106 19.1383 16.2078 19.1383 12.6269C19.1383 9.04588 16.2355 6.14312 12.6543 6.14312C9.07322 6.14312 6.17034 9.04588 6.17034 12.6269ZM17.8797 5.88603C17.8796 6.18572 17.9684 6.47871 18.1348 6.72795C18.3012 6.97719 18.5378 7.1715 18.8146 7.28629C19.0914 7.40109 19.3961 7.43121 19.6901 7.37287C19.984 7.31452 20.2541 7.17032 20.4661 6.95849C20.6781 6.74667 20.8225 6.47674 20.8811 6.18284C20.9397 5.88894 20.9098 5.58427 20.7952 5.30735C20.6806 5.03043 20.4865 4.79371 20.2374 4.62712C19.9883 4.46052 19.6953 4.37154 19.3956 4.37142H19.395C18.9933 4.37161 18.6081 4.53122 18.324 4.81521C18.0399 5.0992 17.8801 5.48434 17.8797 5.88603ZM7.55289 22.9048C6.32177 22.8488 5.65262 22.6437 5.20793 22.4705C4.61839 22.2409 4.19775 21.9676 3.75548 21.526C3.31322 21.0843 3.03946 20.6641 2.81096 20.0746C2.63761 19.6301 2.43254 18.9608 2.37658 17.7297C2.31536 16.3988 2.30314 15.9989 2.30314 12.627C2.30314 9.25498 2.31637 8.85628 2.37658 7.52419C2.43264 6.29312 2.63923 5.62511 2.81096 5.17933C3.04047 4.58981 3.31383 4.16919 3.75548 3.72694C4.19714 3.2847 4.61738 3.01095 5.20793 2.78245C5.65242 2.60911 6.32177 2.40405 7.55289 2.34809C8.88391 2.28688 9.28374 2.27465 12.6543 2.27465C16.0249 2.27465 16.4252 2.28789 17.7573 2.34809C18.9884 2.40415 19.6565 2.61073 20.1023 2.78245C20.6918 3.01095 21.1125 3.28531 21.5547 3.72694C21.997 4.16858 22.2697 4.58981 22.4992 5.17933C22.6726 5.6238 22.8777 6.29312 22.9336 7.52419C22.9948 8.85628 23.0071 9.25498 23.0071 12.627C23.0071 15.9989 22.9948 16.3976 22.9336 17.7297C22.8776 18.9608 22.6715 19.6299 22.4992 20.0746C22.2697 20.6641 21.9964 21.0847 21.5547 21.526C21.1131 21.9672 20.6918 22.2409 20.1023 22.4705C19.6578 22.6438 18.9884 22.8489 17.7573 22.9048C16.4263 22.966 16.0265 22.9783 12.6543 22.9783C9.28223 22.9783 8.88351 22.966 7.55289 22.9048ZM7.44833 0.0764683C6.10407 0.137683 5.18551 0.350825 4.38332 0.66296C3.55254 0.985299 2.84924 1.41774 2.14646 2.11939C1.44367 2.82104 1.01232 3.52542 0.689965 4.35616C0.377816 5.15883 0.164666 6.07685 0.103449 7.42106C0.0412212 8.76738 0.0269775 9.19781 0.0269775 12.6269C0.0269775 16.0559 0.0412212 16.4863 0.103449 17.8327C0.164666 19.177 0.377816 20.0949 0.689965 20.8976C1.01232 21.7278 1.44377 22.433 2.14646 23.1343C2.84914 23.8357 3.55254 24.2675 4.38332 24.5908C5.18702 24.9029 6.10407 25.116 7.44833 25.1772C8.79542 25.2385 9.22515 25.2537 12.6543 25.2537C16.0835 25.2537 16.514 25.2395 17.8604 25.1772C19.2047 25.116 20.1227 24.9029 20.9254 24.5908C21.7556 24.2675 22.4594 23.836 23.1622 23.1343C23.865 22.4327 24.2955 21.7278 24.6187 20.8976C24.9309 20.0949 25.145 19.1769 25.2052 17.8327C25.2665 16.4853 25.2807 16.0559 25.2807 12.6269C25.2807 9.19781 25.2665 8.76738 25.2052 7.42106C25.144 6.07675 24.9309 5.15832 24.6187 4.35616C24.2955 3.52592 23.8639 2.82215 23.1622 2.11939C22.4606 1.41663 21.7556 0.985299 20.9264 0.66296C20.1227 0.350825 19.2046 0.136673 17.8614 0.0764683C16.515 0.0152532 16.0845 0 12.6554 0C9.22616 0 8.79542 0.0142431 7.44833 0.0764683Z" fill="#E6DD0C"/>
</svg>
