<svg width="20" height="27" viewBox="0 0 20 27" fill="none" xmlns="http://www.w3.org/2000/svg">
<path d="M9.79561 25.3413L9.40462 25.7818L9.79565 26.1289L10.1866 25.7818L9.79561 25.3413ZM9.79561 25.3413C10.1866 25.7818 10.1868 25.7817 10.187 25.7815L10.1875 25.781L10.1891 25.7796L10.1947 25.7746L10.2149 25.7565C10.2323 25.7407 10.2576 25.7178 10.2902 25.6878C10.3554 25.6279 10.4499 25.5399 10.5695 25.4256C10.8087 25.197 11.1487 24.8629 11.5558 24.4372C12.3694 23.5863 13.4545 22.3658 14.5406 20.8865C16.6988 17.9472 18.9251 13.9002 18.9251 9.65998C18.9251 4.64619 14.8336 0.603384 9.79561 0.603384C4.75767 0.603384 0.666128 4.64441 0.666128 9.65998C0.666128 13.9011 2.89239 17.948 5.05062 20.8872C6.13679 22.3664 7.22188 23.5867 8.03548 24.4374C8.4426 24.8631 8.78255 25.1972 9.02177 25.4257C9.14141 25.54 9.23591 25.6279 9.3011 25.6879C9.3337 25.7178 9.35897 25.7408 9.3764 25.7565L9.39659 25.7747L9.40215 25.7796L9.40378 25.7811L9.4043 25.7816C9.40448 25.7817 9.40462 25.7818 9.79561 25.3413ZM9.79561 13.7562C8.72744 13.7562 7.70379 13.3346 6.94965 12.5854C6.19564 11.8363 5.77275 10.8212 5.77275 9.76349C5.77275 8.70583 6.19564 7.69069 6.94965 6.94162C7.70379 6.19242 8.72744 5.77083 9.79561 5.77083C10.8638 5.77083 11.8874 6.19242 12.6416 6.94162C13.3956 7.69069 13.8185 8.70583 13.8185 9.76349C13.8185 10.8212 13.3956 11.8363 12.6416 12.5854C11.8874 13.3346 10.8638 13.7562 9.79561 13.7562Z" stroke="#E6DD0C" stroke-width="1.178"/>
</svg>
