<svg width="24" height="21" viewBox="0 0 24 21" fill="none" xmlns="http://www.w3.org/2000/svg">
<path d="M23.0184 0.529297H0.852535C0.380976 0.529297 0 0.926016 0 1.41706V19.1723C0 19.6634 0.380976 20.0601 0.852535 20.0601H23.0184C23.49 20.0601 23.871 19.6634 23.871 19.1723V1.41706C23.871 0.926016 23.49 0.529297 23.0184 0.529297ZM21.9528 3.60318V18.0626H1.9182V3.60318L1.18289 3.00671L2.22991 1.60571L3.37018 2.52954H20.5035L21.6437 1.60571L22.6907 3.00671L21.9528 3.60318ZM20.5035 2.52676L11.9355 9.46241L3.36751 2.52676L2.22725 1.60294L1.18023 3.00394L1.91554 3.6004L11.0163 10.9688C11.2781 11.1806 11.6001 11.2955 11.9315 11.2955C12.2629 11.2955 12.5849 11.1806 12.8466 10.9688L21.9528 3.60318L22.6881 3.00671L21.6411 1.60571L20.5035 2.52676Z" fill="#E6DD0C"/>
</svg>
