<svg width="23" height="23" viewBox="0 0 23 23" fill="none" xmlns="http://www.w3.org/2000/svg">
<path d="M14.0133 16.8047L14.3318 16.9258L14.5963 16.7109L16.9559 14.7935L21.4609 17.7573L21.4686 17.7624L21.4765 17.7673C21.5719 17.8258 21.6538 17.907 21.715 18.0051C21.7761 18.1034 21.8146 18.2156 21.8265 18.3329C21.8384 18.4503 21.8234 18.5687 21.783 18.6785C21.7425 18.7884 21.6781 18.8859 21.5956 18.9641L21.5889 18.9704L21.5824 18.977L19.4311 21.147L19.431 21.1471C19.1917 21.3886 18.8986 21.5648 18.5784 21.6612C18.2582 21.7575 17.92 21.7714 17.5935 21.7017L17.5921 21.7014C13.4754 20.8332 9.67934 18.8 6.63792 15.8323C3.66816 12.8367 1.6117 9.02431 0.719625 4.8566C0.649978 4.52808 0.664609 4.18671 0.761956 3.8659C0.859337 3.54498 1.03585 3.25654 1.27309 3.02795L1.27312 3.02797L1.27777 3.02338L3.50781 0.826546L3.51447 0.819993L3.52091 0.813233C3.59741 0.732952 3.68983 0.672284 3.79077 0.634843C3.89167 0.59742 3.9991 0.58392 4.10525 0.595039C4.21142 0.606158 4.31446 0.641714 4.40663 0.699783C4.49885 0.757886 4.57809 0.837238 4.63766 0.932687L4.64169 0.939145L4.64588 0.945497L7.64617 5.48852L5.72375 7.84806L5.50777 8.11315L5.62982 8.43257C6.35822 10.3388 7.4927 12.057 8.95203 13.4624C10.3797 14.939 12.1069 16.08 14.0133 16.8047Z" stroke="#E6DD0C" stroke-width="1.18253"/>
</svg>
