<svg width="33" height="28" viewBox="0 0 33 28" fill="none" xmlns="http://www.w3.org/2000/svg">
<path d="M29.6579 0.00286689C29.2628 0.0308752 28.8749 0.121191 28.5094 0.27029H28.5044C28.1536 0.4058 26.4855 1.08935 23.9496 2.12546L14.8619 5.85379C8.34105 8.52802 1.93096 11.1615 1.93096 11.1615L2.00729 11.1327C2.00729 11.1327 1.56534 11.2742 1.10369 11.5824C0.818493 11.7592 0.573077 11.9905 0.382297 12.2624C0.155783 12.5861 -0.0264126 13.0814 0.0412952 13.5935C0.15209 14.4593 0.728222 14.9786 1.14186 15.2652C1.56041 15.5554 1.95927 15.6909 1.95927 15.6909H1.96912L7.98035 17.6636C8.24995 18.5066 9.81215 23.5097 10.1876 24.6621C10.4092 25.3505 10.6246 25.781 10.8942 26.1096C11.0247 26.2775 11.1774 26.4178 11.3608 26.5305C11.4562 26.5845 11.5578 26.6272 11.6637 26.6576L11.6021 26.6432C11.6206 26.648 11.6353 26.6624 11.6489 26.6672C11.6981 26.6804 11.7314 26.6852 11.7941 26.6948C12.7458 26.9754 13.5102 26.3998 13.5102 26.3998L13.5533 26.3662L17.1024 23.2183L23.0509 27.6638L23.1863 27.7201C24.426 28.2502 25.6816 27.9552 26.3452 27.4347C27.0136 26.9107 27.2734 26.2403 27.2734 26.2403L27.3165 26.1324L31.9132 3.19276C32.0437 2.62673 32.077 2.09668 31.9329 1.58222C31.7844 1.06156 31.4415 0.613751 30.9715 0.326652C30.5768 0.0929451 30.1192 -0.0198598 29.6579 0.00286689ZM29.5336 2.46124C29.5287 2.53679 29.5435 2.5284 29.509 2.6735V2.68669L24.9553 25.3877C24.9356 25.42 24.9024 25.4908 24.8113 25.5616C24.7153 25.6359 24.6389 25.6827 24.2389 25.528L16.9633 20.0944L12.5685 23.9966L13.4918 18.2524L25.3788 7.45953C25.8688 7.01582 25.705 6.92229 25.705 6.92229C25.7395 6.37785 24.9652 6.76279 24.9652 6.76279L9.97588 15.8084L9.97096 15.7844L2.78654 13.428V13.4232L2.76808 13.4196C2.78067 13.4155 2.793 13.4107 2.80501 13.4052L2.8444 13.386L2.88256 13.3728C2.88256 13.3728 9.29757 10.7394 15.8185 8.06513C19.0832 6.72562 22.3726 5.37651 24.9024 4.3356C27.4322 3.30068 29.3022 2.54159 29.408 2.50081C29.509 2.46244 29.461 2.46244 29.5336 2.46244V2.46124Z" fill="#E6DD0C"/>
</svg>
