<svg width="105" height="83" viewBox="0 0 105 83" fill="none" xmlns="http://www.w3.org/2000/svg">
<g filter="url(#filter0_d)">
<path d="M89.695 33.824C86.7692 31.9925 82.6985 30.3911 77.6102 29.1712V22.3108C77.6162 21.7828 77.3127 21.2999 76.835 21.0763L53.0668 10.1244C52.7084 9.95854 52.2949 9.95854 51.9365 10.1244L28.1783 21.0777C27.7012 21.3012 27.3985 21.7835 27.4051 22.3108V29.2144C22.4863 30.4349 18.3242 32.0223 15.3991 33.8287C11.8213 36.0396 10 38.5378 10 41.2562C10 44.9033 13.3558 48.2135 19.6831 50.8311C22.1915 51.844 24.7728 52.6672 27.4051 53.2928V60.6898C27.3991 61.2178 27.7019 61.7001 28.1803 61.9237L51.9478 72.8756C52.3055 73.0415 52.7183 73.0415 53.0767 72.8756L76.8363 61.9223C77.3133 61.6988 77.6161 61.2172 77.6102 60.6898V53.2822C87.4476 50.8384 95 46.7866 95 41.2562C95 37.8592 92.1186 35.3391 89.695 33.824ZM52.5076 12.8541L73.0452 22.3155L52.5076 31.8399L31.97 22.3155L52.5076 12.8541ZM43.8574 59.8288V49.1189L52.012 54.4742L43.8574 59.8288ZM43.2452 45.4672C42.8285 45.1932 42.2945 45.17 41.8559 45.4068C41.4166 45.6443 41.143 46.1033 41.1436 46.6029V52.8098C37.4393 52.4735 33.7576 51.919 30.1189 51.1495V24.4369L51.1507 34.2041V50.6573L43.2452 45.4672ZM12.7211 41.2562C12.7211 39.1235 14.9598 37.298 16.8308 36.1418C19.3949 34.559 22.9952 33.1447 27.4051 32.0177V50.5087C17.7372 48.031 12.7211 44.3673 12.7211 41.2562ZM30.1189 53.9097C33.7596 54.6619 37.4407 55.2059 41.1436 55.5389V62.3442C41.143 62.8437 41.4166 63.3034 41.8559 63.5402C42.2945 63.7777 42.8285 63.7545 43.2452 63.4805L51.1507 58.2891V69.521L30.1189 59.8182V53.9097ZM74.8964 59.8182L53.8645 69.521V56.5074L55.2313 55.6099C55.6136 55.3584 55.8442 54.9312 55.8442 54.4735C55.8442 54.0158 55.6136 53.5886 55.2313 53.3379L53.8645 52.4404V34.2048L74.8964 24.4376V51.1355C70.6123 52.0443 66.2713 52.6599 61.9038 52.9783C61.175 53.0347 60.6218 53.6589 60.653 54.39C60.6834 55.121 61.287 55.6968 62.0178 55.6915C62.0529 55.6915 62.0754 55.6901 62.1112 55.6875C66.4065 55.3651 70.6766 54.7681 74.8964 53.8997L74.8964 59.8182ZM84.1217 48.3926C81.9989 49.2344 79.8237 49.9369 77.6102 50.4947V31.9732C86.7692 34.293 92.2862 37.7962 92.2862 41.2575C92.2862 43.6748 89.3154 46.2758 84.1217 48.3926Z" fill="#E5DD08"/>
</g>
<defs>
<filter id="filter0_d" x="0" y="0" width="105" height="83" filterUnits="userSpaceOnUse" color-interpolation-filters="sRGB">
<feFlood flood-opacity="0" result="BackgroundImageFix"/>
<feColorMatrix in="SourceAlpha" type="matrix" values="0 0 0 0 0 0 0 0 0 0 0 0 0 0 0 0 0 0 127 0"/>
<feOffset/>
<feGaussianBlur stdDeviation="5"/>
<feColorMatrix type="matrix" values="0 0 0 0 0 0 0 0 0 0 0 0 0 0 0 0 0 0 0.6 0"/>
<feBlend mode="normal" in2="BackgroundImageFix" result="effect1_dropShadow"/>
<feBlend mode="normal" in="SourceGraphic" in2="effect1_dropShadow" result="shape"/>
</filter>
</defs>
</svg>
