<svg width="30" height="30" viewBox="0 0 30 30" fill="none" xmlns="http://www.w3.org/2000/svg">
<path d="M14.0175 0.00350389C11.5655 0.03257 6.29373 0.428244 3.34515 3.08451C1.15186 5.21852 0.386072 8.3736 0.296317 12.275C0.221838 16.1624 0.132082 23.4626 7.29823 25.4504V28.478C7.29823 28.478 7.25335 29.6894 8.06879 29.9378C9.07329 30.25 9.64525 29.3181 10.6001 28.3167L12.3809 26.3393C17.284 26.7396 21.0395 25.817 21.472 25.6801C22.467 25.3679 28.071 24.6647 28.9867 17.3635C29.9263 9.82315 28.5293 5.07225 26.0076 2.92324H25.9923C25.2313 2.23503 22.1729 0.0466342 15.34 0.0222562C15.34 0.0222562 14.8329 -0.0105603 14.0175 0.00350389ZM14.1015 2.12345C14.7976 2.11877 15.2206 2.14783 15.2206 2.14783C21.0041 2.16283 23.7646 3.87211 24.4158 4.4478C26.5394 6.2349 27.6337 10.5179 26.8325 16.8131C26.0715 22.917 21.5264 23.3033 20.6852 23.5667C20.3272 23.6792 15.9477 24.7625 11.7808 24.499C11.7808 24.499 10.4031 26.3746 9.43292 27.3216C9.27919 27.4875 9.09968 27.5363 8.9851 27.5119C8.82087 27.4725 8.77121 27.2728 8.78076 26.999V23.999C2.70314 22.3488 2.43709 15.6167 2.50202 12.3641C2.5765 9.1115 3.1981 6.45055 5.0486 4.64845C7.53981 2.43662 12.0161 2.13845 14.0996 2.12345H14.1015ZM14.5599 5.3751C14.5098 5.37461 14.4602 5.38384 14.4138 5.40227C14.3675 5.42069 14.3253 5.44795 14.2897 5.48246C14.2541 5.51698 14.2258 5.55807 14.2065 5.60337C14.1871 5.64867 14.1771 5.69728 14.177 5.7464C14.177 5.95643 14.3507 6.12238 14.5599 6.12238C15.5066 6.1047 16.4475 6.27125 17.3284 6.61241C18.2093 6.95357 19.0126 7.46259 19.6922 8.11013C21.0796 9.4331 21.7556 11.2108 21.7814 13.5352C21.7814 13.7405 21.9504 13.9112 22.1643 13.9112V13.8962C22.2651 13.8964 22.3619 13.8575 22.4336 13.788C22.5054 13.7184 22.5462 13.6238 22.5472 13.5249C22.5935 12.4308 22.4129 11.3389 22.0161 10.3156C21.6194 9.2922 21.0149 8.35875 20.2393 7.57194C18.7278 6.12145 16.8124 5.3751 14.5599 5.3751ZM9.52685 6.2349C9.25658 6.19612 8.98093 6.24939 8.74578 6.38585H8.72573C8.17981 6.70008 7.68801 7.09724 7.26863 7.56256C6.92011 7.95824 6.73105 8.3586 6.6814 8.74396C6.6518 8.97367 6.67185 9.20339 6.74155 9.42279L6.76638 9.43779C7.15882 10.5704 7.67158 11.6599 8.29796 12.6857C9.10483 14.1268 10.0978 15.4595 11.2523 16.6509L11.2866 16.6996L11.3411 16.739L11.3754 16.7784L11.4155 16.8121C12.6332 17.9491 13.9937 18.9287 15.4641 19.7272C17.1446 20.6254 18.1644 21.0502 18.7765 21.2264V21.2358C18.956 21.2893 19.1193 21.3136 19.2835 21.3136C19.8051 21.2761 20.2989 21.0682 20.6862 20.7229C21.1579 20.311 21.5578 19.8261 21.8702 19.2874V19.2781C22.1633 18.7361 22.064 18.2233 21.641 17.8763C20.7939 17.1492 19.8778 16.5034 18.9054 15.9477C18.2542 15.6007 17.5925 15.8108 17.3241 16.1624L16.7522 16.8703C16.4591 17.2219 15.9262 17.1731 15.9262 17.1731L15.911 17.1825C11.9378 16.1858 10.878 12.2356 10.878 12.2356C10.878 12.2356 10.8283 11.6984 11.1959 11.4246L11.9121 10.8583C12.2549 10.5845 12.4936 9.93567 12.1259 9.29527C11.5639 8.33905 10.9077 7.43931 10.1666 6.60901C10.0046 6.41326 9.7773 6.28008 9.52494 6.23302L9.52685 6.2349ZM15.2206 7.34878C14.7136 7.34878 14.7136 8.10075 15.2254 8.10075C15.8559 8.1108 16.4781 8.24274 17.0566 8.48905C17.6352 8.73536 18.1586 9.0912 18.597 9.53624C18.9969 9.96943 19.3042 10.477 19.5007 11.029C19.6972 11.5809 19.7788 12.166 19.7409 12.7495C19.7426 12.8482 19.7837 12.9424 19.8552 13.0117C19.9268 13.0811 20.0232 13.1203 20.1238 13.1207L20.139 13.1404C20.2404 13.1397 20.3373 13.0999 20.409 13.0295C20.4806 12.9591 20.5212 12.8639 20.5219 12.7645C20.5563 11.2746 20.0846 10.0247 19.1594 9.02337C18.2293 8.02199 16.9317 7.46036 15.275 7.34878H15.2206ZM15.848 9.37028C15.3256 9.35528 15.3056 10.1223 15.8231 10.1373C17.0816 10.201 17.6927 10.8255 17.7729 12.11C17.7747 12.2075 17.8152 12.3005 17.8859 12.369C17.9566 12.4375 18.0517 12.4761 18.151 12.4766H18.1663C18.2174 12.4745 18.2675 12.4623 18.3137 12.441C18.36 12.4196 18.4014 12.3894 18.4356 12.3521C18.4699 12.3149 18.4962 12.2713 18.5131 12.2239C18.5299 12.1765 18.537 12.1263 18.5339 12.0762C18.4442 10.4017 17.5142 9.45842 15.8632 9.37122L15.848 9.37028Z" fill="#E6DD0C"/>
</svg>
