<svg width="30" height="21" viewBox="0 0 30 21" fill="none" xmlns="http://www.w3.org/2000/svg">
<path d="M29.7434 10.0144C29.7434 9.94603 29.7434 9.8683 29.7401 9.77814C29.7369 9.5263 29.7303 9.24337 29.7237 8.94179C29.6974 8.07435 29.6514 7.21002 29.579 6.39543C29.4804 5.27304 29.3357 4.3372 29.1384 3.63454C28.9302 2.90126 28.5221 2.23249 27.9549 1.69507C27.3876 1.15766 26.6812 0.770424 25.906 0.572075C24.9755 0.335783 23.1538 0.189655 20.589 0.0994913C19.369 0.0559638 18.0636 0.0279818 16.7582 0.0124362C16.3011 0.00621802 15.8769 0.00310911 15.4955 0H14.5287C14.1473 0.00310911 13.7231 0.00621802 13.266 0.0124362C11.9606 0.0279818 10.6552 0.0559638 9.43523 0.0994913C6.8704 0.192764 5.04543 0.338892 4.11814 0.572075C3.34278 0.769937 2.63603 1.15701 2.06873 1.6945C1.50142 2.23199 1.09348 2.90102 0.885799 3.63454C0.685216 4.3372 0.543821 5.27304 0.445174 6.39543C0.372833 7.21002 0.326797 8.07435 0.300491 8.94179C0.290626 9.24337 0.287338 9.5263 0.28405 9.77814C0.28405 9.8683 0.280762 9.94603 0.280762 10.0144V10.1885C0.280762 10.2569 0.280762 10.3347 0.28405 10.4248C0.287338 10.6767 0.293915 10.9596 0.300491 11.2612C0.326797 12.1286 0.372833 12.993 0.445174 13.8075C0.543821 14.9299 0.688504 15.8658 0.885799 16.5684C1.30669 18.0577 2.54307 19.2329 4.11814 19.6309C5.04543 19.8672 6.8704 20.0133 9.43523 20.1035C10.6552 20.147 11.9606 20.175 13.266 20.1905C13.7231 20.1968 14.1473 20.1999 14.5287 20.203H15.4955C15.8769 20.1999 16.3011 20.1968 16.7582 20.1905C18.0636 20.175 19.369 20.147 20.589 20.1035C23.1538 20.0102 24.9788 19.8641 25.906 19.6309C27.4811 19.2329 28.7175 18.0608 29.1384 16.5684C29.339 15.8658 29.4804 14.9299 29.579 13.8075C29.6514 12.993 29.6974 12.1286 29.7237 11.2612C29.7336 10.9596 29.7369 10.6767 29.7401 10.4248C29.7401 10.3347 29.7434 10.2569 29.7434 10.1885V10.0144ZM27.3759 10.1761C27.3759 10.2414 27.3759 10.3129 27.3726 10.3969C27.3693 10.6394 27.3627 10.9067 27.3562 11.1959C27.3331 12.0229 27.2871 12.8499 27.2181 13.6179C27.1293 14.619 27.0043 15.4398 26.8498 15.9901C26.6459 16.7083 26.0474 17.2773 25.2911 17.467C24.6006 17.6411 22.8611 17.781 20.4969 17.8649C19.3 17.9084 18.011 17.9364 16.7253 17.952C16.2748 17.9582 15.8572 17.9613 15.4823 17.9613H14.5419L13.2989 17.952C12.0132 17.9364 10.7275 17.9084 9.5273 17.8649C7.16306 17.7779 5.42029 17.6411 4.73304 17.467C3.97675 17.2742 3.37829 16.7083 3.17442 15.9901C3.01987 15.4398 2.89492 14.619 2.80613 13.6179C2.73708 12.8499 2.69433 12.0229 2.66803 11.1959C2.65816 10.9067 2.65487 10.6363 2.65159 10.3969C2.65159 10.3129 2.6483 10.2383 2.6483 10.1761V10.0269C2.6483 9.96158 2.6483 9.89007 2.65159 9.80612C2.65487 9.56361 2.66145 9.29623 2.66803 9.00708C2.69104 8.18006 2.73708 7.35304 2.80613 6.58509C2.89492 5.58395 3.01987 4.76315 3.17442 4.21284C3.37829 3.49464 3.97675 2.92567 4.73304 2.73601C5.42358 2.5619 7.16306 2.42199 9.5273 2.33805C10.7242 2.29452 12.0132 2.26654 13.2989 2.25099C13.7494 2.24477 14.167 2.24167 14.5419 2.24167H15.4823L16.7253 2.25099C18.011 2.26654 19.2967 2.29452 20.4969 2.33805C22.8611 2.4251 24.6039 2.5619 25.2911 2.73601C26.0474 2.92878 26.6459 3.49464 26.8498 4.21284C27.0043 4.76315 27.1293 5.58395 27.2181 6.58509C27.2871 7.35304 27.3299 8.18006 27.3562 9.00708C27.366 9.29623 27.3693 9.56672 27.3726 9.80612C27.3726 9.89007 27.3759 9.96468 27.3759 10.0269V10.1761ZM12.0856 14.2677L19.7143 10.0704L12.0856 5.93528V14.2677Z" fill="#E6DD0C"/>
</svg>
