<svg width="808" height="201" viewBox="0 0 808 201" fill="none" xmlns="http://www.w3.org/2000/svg">
<path fill-rule="evenodd" clip-rule="evenodd" d="M154.224 137.35H152.548C152.548 134.112 155.175 131.488 158.415 131.488H184.398C187.639 131.488 190.266 134.112 190.266 137.35H154.224ZM191.104 137.35H193.618C197.321 137.35 200.324 140.35 200.324 144.05V164.15C200.324 167.85 197.321 170.85 193.618 170.85H191.104C191.104 174.55 188.101 177.55 184.398 177.55H158.415C154.712 177.55 151.709 174.55 151.709 170.85V170.363C149.252 169.369 147.519 166.962 147.519 164.15V144.05C147.519 141.239 149.252 138.831 151.709 137.837V137.35C151.709 133.65 154.712 130.65 158.415 130.65H184.398C188.101 130.65 191.104 133.65 191.104 137.35ZM190.266 170.013H154.224C150.984 170.013 148.357 167.388 148.357 164.15V144.05C148.357 140.812 150.984 138.188 154.224 138.188H190.266V170.013ZM191.104 138.188V170.013H193.618C196.859 170.013 199.485 167.388 199.485 164.15V144.05C199.485 140.812 196.859 138.188 193.618 138.188H191.104ZM190.266 170.85H154.224H152.548C152.548 174.088 155.175 176.713 158.415 176.713H184.398C187.639 176.713 190.266 174.088 190.266 170.85Z" fill="white" fill-opacity="0.2"/>
<path fill-rule="evenodd" clip-rule="evenodd" d="M207.867 0.8375H657.129V6.7H214.573H213.734H207.867V0.8375ZM207.029 6.7V0.8375H132.432V6.7H207.029ZM213.734 7.5375H207.867V79.5625H213.734V7.5375ZM207.029 7.5375H132.432H131.593H122.373C118.207 7.5375 114.83 10.9121 114.83 15.075V185.925C114.83 190.088 118.207 193.462 122.373 193.462H207.029V121.438V120.6H207.867H213.734H214.573V121.438V193.462H792.913C797.079 193.462 800.456 190.088 800.456 185.925V15.075C800.456 10.9121 797.079 7.5375 792.913 7.5375H740.108H739.27H657.967H657.129H214.573V79.5625V80.4H213.734H207.867H207.029V79.5625V7.5375ZM131.593 6.7V0.8375H91.2822C86.0084 0.8375 80.8384 2.29976 76.3469 5.06153L16.3998 41.9224C10.6883 45.4343 6.68377 51.1263 5.53716 57.7051C3.56077 69.0449 0.838174 87.1075 0.838174 100.5C0.838174 113.892 3.56077 131.955 5.53716 143.295C6.68376 149.874 10.6883 155.566 16.3998 159.077L76.3469 195.938C80.8384 198.7 86.0084 200.162 91.283 200.162H795.427C801.908 200.162 807.162 194.913 807.162 188.438V12.5625C807.162 6.08696 801.908 0.8375 795.427 0.8375H740.108V6.7H792.913C797.542 6.7 801.295 10.4497 801.295 15.075V185.925C801.295 190.551 797.542 194.3 792.913 194.3H214.573H213.734H207.867H207.029H122.373C117.744 194.3 113.992 190.551 113.992 185.925V15.075C113.992 10.4497 117.744 6.7 122.373 6.7H131.593ZM213.734 193.462H207.867V121.438H213.734V193.462ZM131.593 0H91.2822C85.8534 0 80.5312 1.50526 75.9077 4.34827L15.9605 41.2091C10.0544 44.8408 5.90118 50.7349 4.7114 57.5615C2.73486 68.9021 0 87.028 0 100.5C0 113.972 2.73486 132.098 4.7114 143.439C5.90118 150.265 10.0544 156.159 15.9605 159.791L75.9077 196.652C80.5312 199.495 85.8534 201 91.283 201H795.427C802.371 201 808 195.375 808 188.438V12.5625C808 5.62442 802.371 0 795.427 0H740.108H739.27H657.967H657.129H207.867H207.029H132.432H131.593ZM657.967 6.7V0.8375H739.27V6.7H657.967Z" fill="white" fill-opacity="0.2"/>
<path fill-rule="evenodd" clip-rule="evenodd" d="M143.328 154.1C143.328 158.561 141.969 162.569 139.813 165.441C137.657 168.314 134.742 170.012 131.593 170.012C128.444 170.012 125.53 168.314 123.373 165.441C121.218 162.569 119.859 158.561 119.859 154.1C119.859 149.639 121.218 145.631 123.373 142.759C125.53 139.886 128.444 138.187 131.593 138.187C134.742 138.187 137.657 139.886 139.813 142.759C141.969 145.631 143.328 149.639 143.328 154.1ZM144.166 154.1C144.166 163.351 138.537 170.85 131.593 170.85C124.65 170.85 119.021 163.351 119.021 154.1C119.021 144.849 124.65 137.35 131.593 137.35C138.537 137.35 144.166 144.849 144.166 154.1ZM136.937 154.1C136.937 148.184 135.336 143.348 134.542 141.316C134.379 140.898 134.25 140.598 134.177 140.432L134.148 140.368C134.122 140.311 134.108 140.281 134.108 140.281H134.177C134.524 140.396 134.864 140.533 135.197 140.692C139.325 142.661 142.28 147.921 142.28 154.1C142.28 160.241 139.362 165.474 135.272 167.472C134.915 167.646 134.55 167.796 134.177 167.919C134.177 167.919 134.351 167.543 134.612 166.854C135.389 164.804 136.937 159.987 136.937 154.1ZM136.328 144.011C136.095 143.197 135.862 142.487 135.653 141.897C138.997 143.974 141.442 148.575 141.442 154.1C141.442 159.59 139.029 164.168 135.717 166.263C135.918 165.68 136.141 164.981 136.364 164.183C137.068 161.659 137.775 158.127 137.775 154.1C137.775 150.071 137.051 146.537 136.328 144.011ZM122.09 150.577C121.539 150.698 121.204 150.75 121.204 150.75C121.258 150.452 121.319 150.158 121.387 149.867C122.66 144.412 126.33 140.363 130.755 139.906C131.032 139.877 131.311 139.862 131.593 139.862V140.7V143.032C131.593 148.046 124.603 150.027 122.09 150.577ZM122.297 149.671C122.401 149.647 122.509 149.62 122.622 149.592C123.566 149.353 124.815 148.975 126.056 148.419C128.619 147.269 130.755 145.542 130.755 143.032V140.749C126.937 141.197 123.585 144.671 122.297 149.671ZM121.221 157.541C121.221 157.541 121.557 157.591 122.108 157.707C124.618 158.239 131.593 160.167 131.593 165.189V167.5V168.337C131.311 168.337 131.032 168.323 130.755 168.294C126.354 167.839 122.7 163.833 121.408 158.422C121.339 158.133 121.276 157.839 121.221 157.541ZM122.642 158.689C122.529 158.661 122.422 158.636 122.319 158.612C123.623 163.568 126.958 167.006 130.755 167.451V165.189C130.755 162.675 128.625 160.965 126.068 159.834C124.831 159.287 123.585 158.92 122.642 158.689Z" fill="white" fill-opacity="0.2"/>
</svg>
