<svg width="170" height="56" viewBox="0 0 170 56" fill="none" xmlns="http://www.w3.org/2000/svg">
<path d="M0 55.8254C0 55.8254 78.8621 39.4531 170 55.8254H0Z" fill="white"/>
<path d="M21.6977 42.4304C20.3337 42.5544 16.1178 42.9265 10.6619 42.9265C4.71008 42.9265 0.122192 41.8102 0.122192 36.4768V25.438C0.122192 20.1046 4.71008 18.9883 10.6619 18.9883C16.1178 18.9883 20.2097 19.2363 21.6977 19.4844C22.3176 19.6084 22.5656 19.7325 22.5656 20.1046V22.0891C22.5656 22.4612 22.1937 22.7093 21.6977 22.7093H10.0419C7.43801 22.7093 6.44604 23.3294 6.44604 25.438V28.7868H21.2017C21.6977 28.7868 22.0697 29.0349 22.0697 29.407V31.7636C22.0697 32.1357 21.6977 32.3838 21.2017 32.3838H6.44604V36.4768C6.44604 38.5854 7.43801 39.2056 10.0419 39.2056H21.6977C22.1937 39.2056 22.5656 39.4536 22.5656 39.8257V41.8102C22.6896 42.1823 22.4416 42.4304 21.6977 42.4304Z" fill="white"/>
<path d="M40.2985 42.9265C32.9827 42.9265 27.7748 40.6939 27.7748 33.9962V19.8565C27.7748 19.4844 28.1468 19.2363 28.6428 19.2363H33.1067C33.6026 19.2363 33.9746 19.4844 33.9746 19.8565V33.9962C33.9746 37.5931 35.2146 39.3296 40.1745 39.3296C45.1344 39.3296 46.3743 37.5931 46.3743 33.9962V19.8565C46.3743 19.4844 46.7463 19.2363 47.2423 19.2363H51.7062C52.2022 19.2363 52.5742 19.4844 52.5742 19.8565V33.9962C52.6982 40.6939 47.6143 42.9265 40.2985 42.9265Z" fill="white"/>
<path d="M82.3345 42.6785H76.8786C76.3826 42.6785 76.1346 42.3064 76.0106 42.0583L69.4388 33.6241H68.8188C67.7029 33.6241 65.8429 33.5001 64.7269 33.5001V42.0583C64.7269 42.4304 64.3549 42.6785 63.8589 42.6785H59.2711C58.7751 42.6785 58.4031 42.4304 58.4031 42.0583V20.3526C58.4031 19.7325 58.8991 19.4844 59.891 19.3604C62.247 19.1123 65.4709 18.9883 68.8188 18.9883C75.7627 18.9883 81.8385 20.7247 81.8385 26.0581V26.3062C81.8385 29.6551 79.4826 31.7636 75.7627 32.7559L82.8305 41.9343L82.9545 42.1823C82.9545 42.4304 82.7065 42.6785 82.3345 42.6785ZM75.6387 26.0581C75.6387 23.7015 73.4067 22.7093 68.8188 22.7093C67.8268 22.7093 65.5949 22.8333 64.7269 22.8333V29.9031C65.4709 29.9031 67.9508 30.0272 68.8188 30.0272C73.5307 30.0272 75.6387 29.1589 75.6387 26.4302V26.0581Z" fill="white"/>
<path d="M111.35 42.6785H106.514C106.142 42.6785 105.77 42.4304 105.646 42.1823L103.538 36.2288H93.1222L91.0142 42.1823C90.8902 42.4304 90.5182 42.6785 90.1462 42.6785H85.3104C84.8144 42.6785 84.4424 42.4304 84.4424 42.1823V42.0583L91.8822 22.3371C92.9982 19.3604 96.2221 19.1123 98.206 19.1123C100.19 19.1123 103.414 19.3604 104.53 22.3371L111.97 42.0583V42.1823C112.218 42.4304 111.846 42.6785 111.35 42.6785ZM99.074 23.2054C98.95 22.8333 98.826 22.7092 98.33 22.7092C97.8341 22.7092 97.71 22.8333 97.5861 23.2054L94.3621 32.5078H102.298L99.074 23.2054Z" fill="white"/>
<path d="M132.8 42.4304C131.436 42.6784 127.468 42.9265 125.112 42.9265C119.161 42.9265 114.573 41.8102 114.573 36.4768V19.8565C114.573 19.4844 114.945 19.2363 115.441 19.2363H119.905C120.401 19.2363 120.773 19.4844 120.773 19.8565V36.4768C120.773 38.5854 121.641 39.2055 124.369 39.2055H132.676C133.172 39.2055 133.544 39.4536 133.544 39.8257V41.8102C133.792 42.1823 133.544 42.3063 132.8 42.4304Z" fill="white"/>
<path d="M157.847 42.9265C154.499 42.9265 152.019 42.6785 149.787 42.3064C149.291 42.1823 148.919 42.0583 148.919 41.6862V39.4536C148.919 39.0815 149.291 38.8335 149.787 38.8335H149.911C151.771 38.9575 156.235 39.2055 157.971 39.2055C162.063 39.2055 163.179 38.2133 163.179 36.3528C163.179 35.1125 162.311 34.4923 159.335 33.252L153.383 30.7713C149.167 29.0349 148.052 27.1744 148.052 25.0659C148.052 21.593 150.903 19.1123 159.459 19.1123C162.435 19.1123 166.651 19.4844 168.139 19.7325C168.635 19.8565 169.007 19.9805 169.007 20.3526V22.7092C169.007 23.0813 168.635 23.3294 168.263 23.3294H168.139C165.163 23.0813 162.187 22.9573 159.211 22.9573C155.863 22.9573 154.499 23.8255 154.499 25.1899C154.499 26.1821 155.243 26.8023 158.219 28.0426L163.675 30.1512C168.635 32.0117 169.999 34.1202 169.999 36.6009C169.751 39.4536 166.899 42.9265 157.847 42.9265Z" fill="white"/>
<path d="M142.595 42.43H138.132C137.636 42.43 137.264 42.1819 137.264 41.8098V22.3367C137.264 21.9646 137.388 21.5925 138.132 21.3445C138.132 21.3445 139.247 20.9724 140.363 20.4762C141.851 19.8561 142.471 19.3599 142.843 19.1119C143.091 18.9878 143.587 18.9878 143.587 19.484V41.8098C143.463 42.0579 143.091 42.43 142.595 42.43Z" fill="white"/>
<path d="M138.504 9.31454C138.504 9.56261 138.38 9.81067 138.132 10.1828C137.76 10.6789 137.14 11.175 137.14 11.175C137.14 11.175 136.768 11.5471 136.272 11.5471C135.652 11.6712 135.032 11.4231 134.784 11.175C134.536 11.051 134.04 10.8029 133.792 10.1828C133.544 9.56261 133.668 9.31454 133.792 8.94244C133.916 8.57035 134.288 8.07422 134.908 7.82615C135.528 7.45405 136.272 7.45405 136.768 7.57809C137.14 7.70212 137.512 7.95018 137.76 8.07422C138.008 8.32228 138.256 8.57035 138.38 8.69438C138.504 8.81841 138.504 9.31454 138.504 9.31454Z" fill="white"/>
<path d="M152.516 15.3912C150.904 17.8719 149.788 17.8719 148.052 16.8796C146.316 15.8874 144.332 14.523 143.712 12.1664C143.092 9.9338 141.976 9.80977 142.844 9.43767C143.712 9.06558 144.084 9.80977 145.2 9.43767C146.192 9.06558 149.54 9.31364 150.656 10.3059C151.772 11.1741 154.252 12.6625 152.516 15.3912Z" fill="white"/>
<path d="M149.046 2.11986C149.046 2.11986 149.418 2.61599 149.542 3.23615C149.666 3.85632 149.666 4.60051 149.418 5.3447C149.17 5.96487 148.302 6.95713 147.93 7.32922C147.558 7.70132 146.938 7.94938 145.822 8.07342C144.458 8.19745 141.854 7.20519 142.846 3.36019C143.094 2.61599 143.962 1.62373 144.83 1.12761C145.946 0.631476 147.806 0.507443 149.046 2.11986Z" fill="white"/>
<path d="M138.38 2.74024C138.38 2.74024 138.752 2.61621 139.248 2.61621C139.62 2.61621 140.116 2.86428 140.488 3.11234C140.86 3.36041 141.232 4.1046 141.356 4.4767C141.48 4.84879 141.604 5.34492 141.356 6.08912C141.232 6.70928 140.488 7.82557 140.488 7.9496C140.364 8.07363 140.24 8.3217 140.116 8.3217C139.992 8.3217 139.868 8.07363 139.372 7.82557C138.876 7.5775 138.008 7.08138 137.636 6.70928C137.264 6.33718 136.892 5.71702 136.768 4.97283C136.644 4.22863 136.892 3.11234 138.38 2.74024Z" fill="white"/>
<path d="M142.968 13.6554C142.968 13.2833 142.72 13.0353 142.472 12.7872C141.356 11.2988 140.364 11.2988 139.868 11.2988C137.76 11.2988 134.784 13.5314 134.536 13.9035C134.288 14.1516 133.668 14.8958 133.42 15.3919C133.172 15.888 132.924 16.5082 132.924 16.5082C132.924 16.5082 132.8 16.8803 132.552 17.0043C132.304 17.2524 132.18 17.6245 132.18 17.8725C132.18 18.1206 132.304 18.2446 132.428 18.3687L132.676 18.6167C132.8 18.7408 133.048 18.8648 133.172 18.8648C133.544 18.8648 134.412 18.9888 134.908 18.9888C135.404 18.9888 136.768 19.1129 138.38 18.7408C139.868 18.2446 141.108 17.7485 141.852 17.2524C142.472 16.7563 142.844 16.1361 142.968 15.764C143.092 15.3919 142.968 15.1438 142.968 15.0198C142.968 14.7717 142.844 14.6477 142.968 14.3996C143.092 14.0275 143.092 13.7795 142.968 13.6554Z" fill="white"/>
</svg>
