<svg width="270" height="88" viewBox="0 0 270 88" fill="none" xmlns="http://www.w3.org/2000/svg">
<path d="M0 87.3533C0 87.3533 125.252 58.7651 270 87.3533H0Z" fill="#E6E6E6"/>
<path d="M33.5444 65.9491C31.4237 66.1384 24.8691 66.7062 16.3866 66.7062C7.13299 66.7062 0 65.0027 0 56.864V40.0189C0 31.8802 7.13299 30.1768 16.3866 30.1768C24.8691 30.1768 31.2309 30.5553 33.5444 30.9338C34.5083 31.1231 34.8938 31.3124 34.8938 31.8802V34.9085C34.8938 35.4764 34.3155 35.8549 33.5444 35.8549H15.4227C11.3742 35.8549 9.83197 36.8013 9.83197 40.0189V45.1292H32.7732C33.5444 45.1292 34.1227 45.5078 34.1227 46.0756V49.6717C34.1227 50.2395 33.5444 50.6181 32.7732 50.6181H9.83197V56.864C9.83197 60.0817 11.3742 61.028 15.4227 61.028H33.5444C34.3155 61.028 34.8938 61.4066 34.8938 61.9744V65.0027C35.0866 65.5705 34.7011 65.9491 33.5444 65.9491Z" fill="white"/>
<path d="M64.5203 66.7062C52.8081 66.7062 44.4706 63.2636 44.4706 52.9359V31.133C44.4706 30.5593 45.0661 30.1768 45.8602 30.1768H53.0066C53.8006 30.1768 54.3962 30.5593 54.3962 31.133V52.9359C54.3962 58.4823 56.3813 61.1598 64.3217 61.1598C72.2622 61.1598 74.2473 58.4823 74.2473 52.9359V31.133C74.2473 30.5593 74.8429 30.1768 75.6369 30.1768H82.7833C83.5774 30.1768 84.1729 30.5593 84.1729 31.133V52.9359C84.3714 63.2636 76.2324 66.7062 64.5203 66.7062Z" fill="white"/>
<path d="M130.821 66.7062H121.997C121.195 66.7062 120.794 66.1324 120.594 65.7499L109.965 52.7447H108.963C107.158 52.7447 104.15 52.5534 102.345 52.5534V65.7499C102.345 66.3237 101.743 66.7062 100.941 66.7062H93.5214C92.7193 66.7062 92.1177 66.3237 92.1177 65.7499V32.2805C92.1177 31.3243 92.9198 30.9418 94.5241 30.7505C98.3343 30.368 103.548 30.1768 108.963 30.1768C120.193 30.1768 130.019 32.8543 130.019 41.0782V41.4607C130.019 46.6246 126.209 49.8759 120.193 51.4059L131.623 65.5587L131.824 65.9412C131.824 66.3237 131.422 66.7062 130.821 66.7062ZM119.992 41.0782C119.992 37.4444 116.382 35.9144 108.963 35.9144C107.358 35.9144 103.749 36.1056 102.345 36.1056V47.0071C103.548 47.0071 107.559 47.1983 108.963 47.1983C116.583 47.1983 119.992 45.8595 119.992 41.652V41.0782Z" fill="white"/>
<path d="M176.797 66.7062H169.285C168.707 66.7062 168.129 66.3217 167.937 65.9371L164.662 56.7086H148.483L145.208 65.9371C145.016 66.3217 144.438 66.7062 143.86 66.7062H136.348C135.578 66.7062 135 66.3217 135 65.9371V65.7449L146.557 35.1755C148.29 30.5613 153.298 30.1768 156.38 30.1768C159.462 30.1768 164.47 30.5613 166.203 35.1755L177.76 65.7449V65.9371C178.145 66.3217 177.567 66.7062 176.797 66.7062ZM157.728 36.5213C157.536 35.9446 157.343 35.7523 156.572 35.7523C155.802 35.7523 155.609 35.9446 155.417 36.5213L150.409 50.9408H162.736L157.728 36.5213Z" fill="white"/>
<path d="M209.98 65.9412C207.935 66.3237 201.985 66.7062 198.452 66.7062C189.527 66.7062 182.647 64.9849 182.647 56.761V31.133C182.647 30.5593 183.205 30.1768 183.949 30.1768H190.642C191.386 30.1768 191.944 30.5593 191.944 31.133V56.761C191.944 60.0123 193.246 60.9686 197.336 60.9686H209.794C210.538 60.9686 211.096 61.3511 211.096 61.9248V64.9849C211.468 65.5586 211.096 65.7499 209.98 65.9412Z" fill="white"/>
<path d="M250.654 66.7062C245.324 66.7062 241.376 66.3257 237.823 65.7549C237.033 65.5646 236.441 65.3744 236.441 64.8036V61.379C236.441 60.8082 237.033 60.4277 237.823 60.4277H238.02C240.981 60.6179 248.088 60.9984 250.851 60.9984C257.366 60.9984 259.143 59.4764 259.143 56.6225C259.143 54.72 257.761 53.7687 253.023 51.8661L243.547 48.0609C236.835 45.3973 235.059 42.5435 235.059 39.3091C235.059 33.9819 239.599 30.1768 253.22 30.1768C257.958 30.1768 264.67 30.7475 267.039 31.128C267.829 31.3183 268.421 31.5086 268.421 32.0793V35.6942C268.421 36.265 267.829 36.6455 267.236 36.6455H267.039C262.301 36.265 257.563 36.0747 252.826 36.0747C247.496 36.0747 245.324 37.4065 245.324 39.4994C245.324 41.0214 246.508 41.9727 251.246 43.8753L259.932 47.1097C267.829 49.9635 270 53.1979 270 57.003C269.605 61.379 265.065 66.7062 250.654 66.7062Z" fill="white"/>
<path d="M226.962 65.1179H219.114C218.242 65.1179 217.588 64.7473 217.588 64.1914V35.0978C217.588 34.5418 217.806 33.9859 219.114 33.6153C219.114 33.6153 221.076 33.0594 223.038 32.3181C225.654 31.3916 226.744 30.6503 227.398 30.2797C227.834 30.0944 228.706 30.0944 228.706 30.8356V64.1914C228.488 64.562 227.834 65.1179 226.962 65.1179Z" fill="white"/>
<path d="M219.177 13.2336C219.177 13.5236 218.974 13.8136 218.568 14.2485C217.96 14.8285 216.946 15.4084 216.946 15.4084C216.946 15.4084 216.337 15.8433 215.526 15.8433C214.512 15.9883 213.498 15.6983 213.092 15.4084C212.686 15.2634 211.875 14.9734 211.47 14.2485C211.064 13.5236 211.267 13.2336 211.47 12.7987C211.672 12.3638 212.281 11.7838 213.295 11.4939C214.309 11.0589 215.526 11.0589 216.337 11.2039C216.946 11.3489 217.554 11.6388 217.96 11.7838C218.365 12.0738 218.771 12.3638 218.974 12.5087C219.177 12.6537 219.177 13.2336 219.177 13.2336Z" fill="white"/>
<path d="M242.102 22.1555C239.684 25.9871 238.01 25.9871 235.406 24.4544C232.803 22.9218 229.827 20.8144 228.897 17.1745C227.967 13.726 226.293 13.5345 227.595 12.9597C228.897 12.385 229.455 13.5345 231.129 12.9597C232.617 12.385 237.638 12.7682 239.312 14.3008C240.986 15.6418 244.706 17.9408 242.102 22.1555Z" fill="#C1C1C1"/>
<path d="M237.318 2.01735C237.318 2.01735 237.909 2.77443 238.106 3.72078C238.303 4.66713 238.303 5.80275 237.909 6.93837C237.515 7.88472 236.136 9.39887 235.545 9.96668C234.954 10.5345 233.969 10.913 232.196 11.1023C230.029 11.2916 225.891 9.77741 227.467 3.91005C227.861 2.77443 229.24 1.26027 230.62 0.503194C232.393 -0.253885 235.348 -0.443155 237.318 2.01735Z" fill="#F1F1F1"/>
<path d="M220.325 3.38392C220.325 3.38392 220.945 3.17676 221.773 3.17676C222.394 3.17676 223.221 3.59108 223.842 4.0054C224.463 4.41972 225.084 5.66269 225.291 6.28417C225.497 6.90566 225.704 7.7343 225.291 8.97727C225.084 10.0131 223.842 11.8775 223.842 12.0847C223.635 12.2918 223.428 12.7062 223.221 12.7062C223.014 12.7062 222.808 12.2918 221.98 11.8775C221.152 11.4632 219.704 10.6346 219.083 10.0131C218.462 9.39159 217.842 8.35579 217.635 7.11282C217.428 5.86985 217.842 4.0054 220.325 3.38392Z" fill="#F1F1F1"/>
<path d="M226.968 20.252C226.968 19.5621 226.57 19.1022 226.172 18.6423C224.38 15.8828 222.787 15.8828 221.991 15.8828C218.606 15.8828 213.828 20.022 213.43 20.7119C213.032 21.1718 212.036 22.5516 211.638 23.4714C211.24 24.3912 210.842 25.541 210.842 25.541C210.842 25.541 210.643 26.2309 210.244 26.4608C209.846 26.9207 209.647 27.6106 209.647 28.0705C209.647 28.5304 209.846 28.7604 210.045 28.9904L210.443 29.4503C210.643 29.6802 211.041 29.9102 211.24 29.9102C211.837 29.9102 213.231 30.1401 214.027 30.1401C214.824 30.1401 217.014 30.3701 219.602 29.6802C221.991 28.7604 223.982 27.8406 225.177 26.9207C226.172 26.0009 226.769 24.8511 226.968 24.1613C227.167 23.4714 226.968 23.0115 226.968 22.7815C226.968 22.3216 226.769 22.0916 226.968 21.6317C227.167 20.9419 227.167 20.4819 226.968 20.252Z" fill="white"/>
</svg>
