<svg width="114" height="37" viewBox="0 0 114 37" fill="none" xmlns="http://www.w3.org/2000/svg">
<g opacity="0.26">
<path d="M0 36.8823C0 36.8823 52.884 24.8117 114 36.8823H0Z" fill="#E6E6E6"/>
<path d="M14.1632 27.8451C13.2678 27.925 10.5003 28.1647 6.91879 28.1647C3.01171 28.1647 0 27.4455 0 24.0092V16.8968C0 13.4604 3.01171 12.7412 6.91879 12.7412C10.5003 12.7412 13.1864 12.901 14.1632 13.0609C14.5702 13.1408 14.733 13.2207 14.733 13.4604V14.7391C14.733 14.9788 14.4888 15.1387 14.1632 15.1387H6.5118C4.80245 15.1387 4.15127 15.5382 4.15127 16.8968V19.0545H13.8376C14.1632 19.0545 14.4074 19.2143 14.4074 19.454V20.9724C14.4074 21.2122 14.1632 21.372 13.8376 21.372H4.15127V24.0092C4.15127 25.3677 4.80245 25.7673 6.5118 25.7673H14.1632C14.4888 25.7673 14.733 25.9271 14.733 26.1669V27.4455C14.8144 27.6853 14.6516 27.8451 14.1632 27.8451Z" fill="white"/>
<path d="M27.2419 28.1647C22.2968 28.1647 18.7765 26.7112 18.7765 22.3506V13.145C18.7765 12.9027 19.0279 12.7412 19.3632 12.7412H22.3806C22.7158 12.7412 22.9673 12.9027 22.9673 13.145V22.3506C22.9673 24.6924 23.8055 25.8229 27.1581 25.8229C30.5107 25.8229 31.3489 24.6924 31.3489 22.3506V13.145C31.3489 12.9027 31.6003 12.7412 31.9356 12.7412H34.953C35.2882 12.7412 35.5397 12.9027 35.5397 13.145V22.3506C35.6235 26.7112 32.1871 28.1647 27.2419 28.1647Z" fill="white"/>
<path d="M55.2355 28.1647H51.51C51.1713 28.1647 51.002 27.9225 50.9173 27.761L46.4298 22.2699H46.0065C45.2444 22.2699 43.9744 22.1891 43.2123 22.1891V27.761C43.2123 28.0032 42.9583 28.1647 42.6197 28.1647H39.4869C39.1482 28.1647 38.8942 28.0032 38.8942 27.761V13.6295C38.8942 13.2257 39.2328 13.0642 39.9102 12.9835C41.5189 12.822 43.7204 12.7412 46.0065 12.7412C50.748 12.7412 54.8968 13.8717 54.8968 17.344V17.5055C54.8968 19.6858 53.2881 21.0586 50.748 21.7046L55.5742 27.6802L55.6589 27.8417C55.6589 28.0032 55.4895 28.1647 55.2355 28.1647ZM50.6633 17.344C50.6633 15.8098 49.1393 15.1638 46.0065 15.1638C45.3291 15.1638 43.805 15.2445 43.2123 15.2445V19.8473C43.7204 19.8473 45.4138 19.9281 46.0065 19.9281C49.2239 19.9281 50.6633 19.3628 50.6633 17.5863V17.344Z" fill="white"/>
<path d="M74.6475 28.1647H71.4758C71.2318 28.1647 70.9879 28.0024 70.9065 27.84L69.524 23.9436H62.6927L61.3102 27.84C61.2289 28.0024 60.9849 28.1647 60.7409 28.1647H57.5693C57.244 28.1647 57 28.0024 57 27.84V27.7589L61.8795 14.8518C62.6114 12.9036 64.7259 12.7412 66.0271 12.7412C67.3282 12.7412 69.4427 12.9036 70.1746 14.8518L75.0541 27.7589V27.84C75.2168 28.0024 74.9728 28.1647 74.6475 28.1647ZM66.5963 15.42C66.515 15.1765 66.4337 15.0953 66.1084 15.0953C65.7831 15.0953 65.7018 15.1765 65.6204 15.42L63.506 21.5083H68.7108L66.5963 15.42Z" fill="white"/>
<path d="M88.6583 27.8417C87.7947 28.0032 85.2825 28.1647 83.7908 28.1647C80.0225 28.1647 77.1177 27.438 77.1177 23.9657V13.145C77.1177 12.9027 77.3532 12.7412 77.6672 12.7412H80.4935C80.8075 12.7412 81.0431 12.9027 81.0431 13.145V23.9657C81.0431 25.3384 81.5926 25.7422 83.3198 25.7422H88.5798C88.8939 25.7422 89.1294 25.9037 89.1294 26.146V27.438C89.2864 27.6802 89.1294 27.761 88.6583 27.8417Z" fill="white"/>
<path d="M105.832 28.1647C103.581 28.1647 101.914 28.0041 100.414 27.7631C100.081 27.6828 99.8305 27.6024 99.8305 27.3614V25.9155C99.8305 25.6745 100.081 25.5138 100.414 25.5138H100.497C101.748 25.5942 104.748 25.7548 105.915 25.7548C108.666 25.7548 109.416 25.1122 109.416 23.9072C109.416 23.1039 108.832 22.7022 106.832 21.8989L102.831 20.2923C99.9972 19.1677 99.2471 17.9627 99.2471 16.5971C99.2471 14.3478 101.164 12.7412 106.915 12.7412C108.916 12.7412 111.75 12.9822 112.75 13.1429C113.083 13.2232 113.333 13.3035 113.333 13.5445V15.0708C113.333 15.3118 113.083 15.4725 112.833 15.4725H112.75C110.749 15.3118 108.749 15.2315 106.749 15.2315C104.498 15.2315 103.581 15.7938 103.581 16.6774C103.581 17.3201 104.081 17.7217 106.082 18.525L109.749 19.8907C113.083 21.0956 114 22.4612 114 24.0679C113.833 25.9155 111.916 28.1647 105.832 28.1647Z" fill="white"/>
<path d="M95.8284 27.4942H92.5149C92.1467 27.4942 91.8706 27.3377 91.8706 27.1029V14.819C91.8706 14.5842 91.9627 14.3495 92.5149 14.193C92.5149 14.193 93.3433 13.9583 94.1716 13.6453C95.2761 13.2541 95.7363 12.9412 96.0125 12.7847C96.1966 12.7064 96.5647 12.7064 96.5647 13.0194V27.1029C96.4727 27.2594 96.1966 27.4942 95.8284 27.4942Z" fill="white"/>
<path d="M92.5412 5.58795C92.5412 5.71038 92.4555 5.83281 92.2843 6.01646C92.0274 6.26132 91.5992 6.50617 91.5992 6.50617C91.5992 6.50617 91.3423 6.68982 90.9998 6.68982C90.5716 6.75103 90.1434 6.6286 89.9722 6.50617C89.8009 6.44496 89.4584 6.32253 89.2871 6.01646C89.1158 5.71038 89.2015 5.58795 89.2871 5.40431C89.3727 5.22066 89.6296 4.97581 90.0578 4.85338C90.486 4.66973 90.9998 4.66973 91.3423 4.73095C91.5992 4.79216 91.8561 4.91459 92.0274 4.97581C92.1986 5.09824 92.3699 5.22066 92.4555 5.28188C92.5412 5.34309 92.5412 5.58795 92.5412 5.58795Z" fill="white"/>
<path d="M102.221 9.35499C101.2 10.9728 100.493 10.9728 99.3939 10.3257C98.2945 9.67855 97.0381 8.78877 96.6454 7.25189C96.2528 5.7959 95.546 5.71501 96.0957 5.47234C96.6454 5.22968 96.881 5.71501 97.5877 5.47234C98.216 5.22968 100.336 5.39145 101.043 6.03856C101.75 6.60478 103.32 7.57545 102.221 9.35499Z" fill="#C1C1C1"/>
<path d="M100.201 0.851771C100.201 0.851771 100.45 1.17143 100.534 1.571C100.617 1.97057 100.617 2.45005 100.45 2.92953C100.284 3.3291 99.7018 3.96841 99.4523 4.20816C99.2027 4.4479 98.7868 4.60772 98.0382 4.68764C97.1232 4.76755 95.3764 4.12824 96.0418 1.65091C96.2082 1.17143 96.7905 0.532115 97.3727 0.21246C98.1214 -0.107196 99.3691 -0.18711 100.201 0.851771Z" fill="#F1F1F1"/>
<path d="M93.0259 1.42829C93.0259 1.42829 93.288 1.34082 93.6375 1.34082C93.8996 1.34082 94.249 1.51576 94.5111 1.69069C94.7732 1.86563 95.0353 2.39044 95.1227 2.65284C95.21 2.91524 95.2974 3.26512 95.1227 3.78993C95.0353 4.22727 94.5111 5.01448 94.5111 5.10195C94.4238 5.18941 94.3364 5.36435 94.249 5.36435C94.1617 5.36435 94.0743 5.18941 93.7249 5.01448C93.3754 4.83954 92.7639 4.48967 92.5018 4.22727C92.2397 3.96486 91.9776 3.52752 91.8902 3.00271C91.8029 2.4779 91.9776 1.69069 93.0259 1.42829Z" fill="#F1F1F1"/>
<path d="M95.8311 8.55082C95.8311 8.25954 95.663 8.06535 95.4949 7.87117C94.7383 6.70605 94.0658 6.70605 93.7296 6.70605C92.3005 6.70605 90.283 8.45373 90.1149 8.74501C89.9468 8.93919 89.5264 9.52175 89.3583 9.91012C89.1902 10.2985 89.0221 10.784 89.0221 10.784C89.0221 10.784 88.938 11.0752 88.7699 11.1723C88.6018 11.3665 88.5177 11.6578 88.5177 11.852C88.5177 12.0462 88.6018 12.1433 88.6858 12.2403L88.854 12.4345C88.938 12.5316 89.1061 12.6287 89.1902 12.6287C89.4424 12.6287 90.0308 12.7258 90.3671 12.7258C90.7033 12.7258 91.628 12.8229 92.7208 12.5316C93.7296 12.1433 94.5702 11.7549 95.0746 11.3665C95.4949 10.9781 95.7471 10.4927 95.8311 10.2014C95.9152 9.91012 95.8311 9.71593 95.8311 9.61884C95.8311 9.42466 95.7471 9.32756 95.8311 9.13338C95.9152 8.8421 95.9152 8.64791 95.8311 8.55082Z" fill="white"/>
</g>
</svg>
