<svg width="19" height="17" viewBox="0 0 19 17" fill="none" xmlns="http://www.w3.org/2000/svg">
<path d="M9.49922 4.48877C7.20957 4.48877 5.34668 6.32681 5.34668 8.58591C5.34668 10.845 7.20957 12.683 9.49922 12.683C11.7889 12.683 13.6518 10.845 13.6518 8.58591C13.6518 6.32681 11.7889 4.48877 9.49922 4.48877ZM9.49922 11.5846C7.82187 11.5846 6.45996 10.2409 6.45996 8.58591C6.45996 6.93094 7.82187 5.5872 9.49922 5.5872C11.1766 5.5872 12.5385 6.93094 12.5385 8.58591C12.5385 10.2409 11.1766 11.5846 9.49922 11.5846Z" fill="#C93F8D"/>
<path d="M11.033 8.00387H10.057V7.04091C10.057 6.73702 9.8084 6.4917 9.50039 6.4917C9.19239 6.4917 8.94375 6.73702 8.94375 7.04091V8.00387H7.96777C7.65977 8.00387 7.41113 8.24919 7.41113 8.55309C7.41113 8.85699 7.65977 9.1023 7.96777 9.1023H8.94375V10.0653C8.94375 10.3692 9.19239 10.6145 9.50039 10.6145C9.8084 10.6145 10.057 10.3692 10.057 10.0653V9.1023H11.033C11.341 9.1023 11.5897 8.85699 11.5897 8.55309C11.5897 8.24919 11.3373 8.00387 11.033 8.00387Z" fill="#C93F8D"/>
<path d="M17.8311 2.47146H12.6023V1.8417C12.6023 0.823821 11.7637 0 10.7357 0H8.26426C7.23633 0 6.39766 0.823821 6.39766 1.8417V2.47146H1.16895C0.523242 2.47146 0 2.98772 0 3.62481V15.8467C0 16.4837 0.523242 17 1.16895 17H17.8311C18.4768 17 19 16.4837 19 15.8467V3.62481C19 2.98772 18.4768 2.47146 17.8311 2.47146ZM17.8867 3.62481V13.6059H16.7734V3.56989H17.8311C17.8607 3.56989 17.8867 3.59186 17.8867 3.62481ZM3.33984 13.6059V3.56989H15.6602V13.6059H3.33984ZM7.51094 1.8417C7.51094 1.43162 7.84863 1.09843 8.26426 1.09843H10.7357C11.1514 1.09843 11.4891 1.43162 11.4891 1.8417V2.47146H7.51094V1.8417ZM1.16895 3.56989H2.22656V13.6059H1.11328V3.62481C1.11328 3.59186 1.13926 3.56989 1.16895 3.56989ZM17.8311 15.9016H1.16895C1.13926 15.9016 1.11328 15.8759 1.11328 15.8467V14.7043H17.8867V15.8467C17.8867 15.8759 17.8607 15.9016 17.8311 15.9016Z" fill="#C93F8D"/>
</svg>
