<svg width="20" height="20" viewBox="0 0 20 20" fill="none" xmlns="http://www.w3.org/2000/svg">
<path d="M2.3883 20H17.6245V8.24076H19.9983L10.0067 0L0.000976562 8.24076H2.38826V20H2.3883ZM10.0061 1.51878L16.7353 7.06875H16.4525V18.828H3.56031V7.06875H3.26758L10.0061 1.51878Z" fill="#499797"/>
<path d="M10.0073 17.617C12.0491 17.617 14.1094 17.0734 14.1094 15.859V8.82687C14.1094 7.61243 12.0491 7.06885 10.0073 7.06885C7.96552 7.06885 5.90527 7.61243 5.90527 8.82687V15.859C5.90527 17.0734 7.96552 17.617 10.0073 17.617ZM10.0073 16.445C8.25556 16.445 7.24973 16.0129 7.07729 15.8093V14.805C7.85859 15.1231 8.9354 15.273 10.0073 15.273C11.0793 15.273 12.1561 15.1231 12.9374 14.805V15.8093C12.765 16.0129 11.7591 16.445 10.0073 16.445ZM7.07729 12.4609C7.85859 12.779 8.9354 12.9289 10.0073 12.9289C11.0793 12.9289 12.1561 12.779 12.9374 12.4609V13.4651C12.7655 13.6686 11.7597 14.1009 10.0073 14.1009C8.25489 14.1009 7.24915 13.6686 7.07729 13.4651V12.4609ZM7.07729 10.1169C7.85859 10.435 8.9354 10.5849 10.0073 10.5849C11.0793 10.5849 12.1561 10.435 12.9374 10.1169V11.1211C12.7655 11.3245 11.7597 11.7569 10.0073 11.7569C8.25489 11.7569 7.24915 11.3245 7.07729 11.1211V10.1169ZM10.0073 8.24086C11.627 8.24086 12.609 8.61025 12.8842 8.82687C12.609 9.0435 11.627 9.41288 10.0073 9.41288C8.38764 9.41288 7.40561 9.0435 7.13046 8.82687C7.40561 8.61025 8.3876 8.24086 10.0073 8.24086Z" fill="#499797"/>
</svg>
