<svg width="29" height="29" viewBox="0 0 29 29" fill="none" xmlns="http://www.w3.org/2000/svg">
<path d="M24.4264 21.4611C26.172 19.1332 25.9906 15.8084 23.871 13.69C23.378 13.1973 22.8112 12.8064 22.2161 12.5232V7.29531L14.9166 0H0V29H22.2161V23.2736C22.5675 23.1094 22.9076 22.9055 23.2249 22.6676L27.7872 27.2781L28.9943 26.083L24.4264 21.4611ZM15.4153 2.9L19.3144 6.79688H15.4153V2.9ZM20.5159 27.3008H1.70021V1.69922H13.7151V8.49609H20.5159V12.0135C18.725 11.7586 16.8321 12.3137 15.4606 13.69C13.1427 16.0066 13.1427 19.7846 15.4606 22.1012C16.8208 23.4605 18.7024 24.0383 20.5159 23.7777V27.3008ZM22.6695 20.9004C21.0147 22.5543 18.317 22.5543 16.6564 20.9004C15.0016 19.2465 15.0016 16.5504 16.6564 14.8908C18.3113 13.2312 21.009 13.2369 22.6695 14.8908C24.3301 16.5504 24.3301 19.2465 22.6695 20.9004Z" fill="#5357B2"/>
<path d="M15.4152 10.252H3.40039V11.9522H15.4152V10.252Z" fill="#5357B2"/>
<path d="M12.0148 13.6504H3.40039V15.3506H12.0148V13.6504Z" fill="#5357B2"/>
<path d="M12.0148 20.4473H3.40039V22.1475H12.0148V20.4473Z" fill="#5357B2"/>
<path d="M12.0148 17.0488H3.40039V18.749H12.0148V17.0488Z" fill="#5357B2"/>
</svg>
