<svg width="30" height="30" viewBox="0 0 30 30" fill="none" xmlns="http://www.w3.org/2000/svg">
<path d="M27.9176 11.3583L25.6741 3.88001C25.3143 2.68067 24.2313 1.875 22.9798 1.875H7.02024C5.76869 1.875 4.68561 2.68067 4.32586 3.88001L2.08235 11.3583C0.886689 11.6822 0 12.7657 0 14.0625V22.5C0 23.5336 0.84135 24.375 1.87498 24.375V25.3125C1.87498 26.8634 3.13657 28.125 4.68748 28.125H6.56246C8.11337 28.125 9.37495 26.8634 9.37495 25.3125V24.375H20.6249V25.3125C20.6249 26.8634 21.8865 28.125 23.4374 28.125H25.3124C26.8633 28.125 28.1249 26.8634 28.1249 25.3125V24.375C29.1585 24.375 29.9999 23.5336 29.9999 22.5V14.0625C30 12.7657 29.1133 11.6822 27.9176 11.3583ZM6.12207 4.41837C6.24201 4.01828 6.60275 3.75003 7.02018 3.75003H22.9797C23.3971 3.75003 23.7578 4.01828 23.8778 4.41837L25.9273 11.25H4.07249L6.12207 4.41837ZM7.49992 25.3126C7.49992 25.8299 7.07968 26.2501 6.5624 26.2501H4.68742C4.17014 26.2501 3.7499 25.8299 3.7499 25.3126V24.3751H7.49992V25.3126ZM26.2499 25.3126C26.2499 25.8299 25.8297 26.2501 25.3124 26.2501H23.4374C22.9202 26.2501 22.4999 25.8299 22.4999 25.3126V24.3751H26.2499V25.3126ZM1.87492 22.5001V14.0626C1.87492 13.5453 2.29516 13.1251 2.81244 13.1251H27.1874C27.7047 13.1251 28.125 13.5453 28.125 14.0626V22.5001H1.87492Z" fill="#FF3827"/>
<path d="M6.67138 15.4395C5.12047 15.4395 3.85889 16.701 3.85889 18.2519C3.85889 19.8029 5.12047 21.0644 6.67138 21.0644C8.22229 21.0644 9.48388 19.8029 9.48388 18.2519C9.48388 16.701 8.22229 15.4395 6.67138 15.4395ZM6.67138 19.1895C6.1541 19.1895 5.73387 18.7692 5.73387 18.2519C5.73387 17.7347 6.1541 17.3144 6.67138 17.3144C7.18866 17.3144 7.6089 17.7347 7.6089 18.2519C7.6089 18.7692 7.18866 19.1895 6.67138 19.1895Z" fill="#FF3827"/>
<path d="M24.041 15.4395C22.4901 15.4395 21.2285 16.701 21.2285 18.2519C21.2285 19.8029 22.4901 21.0644 24.041 21.0644C25.5919 21.0644 26.8535 19.8029 26.8535 18.2519C26.8535 16.701 25.5919 15.4395 24.041 15.4395ZM24.041 19.1895C23.5237 19.1895 23.1035 18.7692 23.1035 18.2519C23.1035 17.7347 23.5237 17.3144 24.041 17.3144C24.5583 17.3144 24.9785 17.7347 24.9785 18.2519C24.9785 18.7692 24.5583 19.1895 24.041 19.1895Z" fill="#FF3827"/>
</svg>
