<svg width="12" height="19" viewBox="0 0 12 19" fill="none" xmlns="http://www.w3.org/2000/svg">
<path d="M5.40171 18.3348C4.35897 17.5884 3.60684 16.4526 3.35043 15.1546H0V1.42784C1.79487 2.28779 3.09402 4.15371 3.24786 6.10077L3.74359 9.97865L3.48718 9.9462C2.94017 9.9462 2.47863 10.4167 2.47863 10.9035C2.47863 11.3416 2.83761 11.731 3.29914 11.8284L3.91453 11.9582C4.92308 10.1409 5.50427 8.37233 5.50427 6.63621C5.50427 5.06234 5.28205 3.48847 5.24786 1.88215C5.24786 1.16823 5.53846 0.519214 6 0C6.46154 0.519214 6.75214 1.16823 6.75214 1.88215C6.75214 3.48847 6.49573 5.06234 6.49573 6.63621C6.49573 8.37233 7.07692 10.1571 8.08547 11.9582L8.70086 11.8284C9.16239 11.731 9.52137 11.3578 9.52137 10.9035C9.52137 10.433 9.05983 9.9462 8.51282 9.9462L8.27351 9.97865L8.76923 6.11699C9.02564 4.16994 10.2051 2.28779 12 1.44406V15.1708H8.68376C8.42735 16.4688 7.7094 17.6371 6.63248 18.351C6.37607 18.5295 6.17094 18.7242 6.01709 19C5.86325 18.7242 5.65812 18.5132 5.40171 18.3348ZM1.58974 10.4167C1.7265 9.89752 2.13675 9.45944 2.63248 9.1836L2.23932 6.00342C2.10256 5.01366 1.65812 4.12126 1.00855 3.40734V10.4167H1.58974ZM3.28205 14.2135C3.28205 13.743 3.35043 13.2886 3.47008 12.8506L3.00855 12.7532C2.32479 12.5423 1.77778 12.0393 1.60684 11.3903H1.02564V14.2297H3.28205V14.2135ZM5.50427 14.2135C5.50427 13.6294 5.04274 13.1264 4.42735 13.0453C4.32479 13.4184 4.23932 13.7916 4.23932 14.2135H5.50427ZM5.50427 15.1708H4.39316C4.5812 15.9172 4.97436 16.5986 5.50427 17.1827V15.1708ZM7.09402 12.2015C6.66667 11.4552 6.2735 10.6601 6.01709 9.84885C5.76068 10.6763 5.36752 11.4552 4.94017 12.2015C5.36752 12.2989 5.7265 12.5747 6.01709 12.883C6.30769 12.5747 6.66667 12.2989 7.09402 12.2015ZM7.77778 14.2135C7.77778 13.8079 7.7094 13.4347 7.58974 13.0453C6.97436 13.1102 6.51282 13.6294 6.51282 14.2135H7.77778ZM7.62393 15.1708H6.51282V17.1827C7.05983 16.5986 7.45299 15.9172 7.62393 15.1708ZM11.0085 14.2135V11.374H10.4444C10.2564 12.0231 9.7265 12.5423 9.04274 12.737L8.5812 12.8343C8.68376 13.2724 8.76923 13.7267 8.76923 14.1973H11.0085V14.2135ZM11.0085 10.4167V3.40734C10.359 4.12126 9.89744 5.01366 9.77778 6.00342L9.38462 9.1836C9.88034 9.45944 10.2906 9.89752 10.4274 10.4167H11.0085Z" fill="black"/>
</svg>
