<svg width="16" height="19" viewBox="0 0 16 19" fill="none" xmlns="http://www.w3.org/2000/svg">
<path d="M10.8815 3.04476C10.1836 3.84246 9.06681 4.47164 7.95006 4.38176C7.81046 3.30317 8.35721 2.15717 8.99701 1.44935C9.69499 0.629175 10.9164 0.0449411 11.9052 0C12.0216 1.12353 11.5679 2.22458 10.8815 3.04476ZM11.8936 4.59523C10.2766 4.50535 8.89232 5.48281 8.12455 5.48281C7.34515 5.48281 6.17023 4.64017 4.89061 4.66264C3.22711 4.68511 1.67994 5.59517 0.830743 7.04452C-0.914187 9.94322 0.377061 14.2351 2.06383 16.5945C2.88976 17.763 3.87855 19.0438 5.18143 18.9988C6.41452 18.9539 6.9031 18.2236 8.39211 18.2236C9.89274 18.2236 10.3232 18.9988 11.626 18.9764C12.9755 18.9539 13.8247 17.8079 14.6506 16.6394C15.5928 15.3137 15.9767 14.0216 16 13.9542C15.9767 13.9317 13.3942 12.9767 13.371 10.1005C13.3477 7.69616 15.4067 6.55017 15.4998 6.48275C14.3365 4.81993 12.5218 4.64017 11.8936 4.59523Z" fill="black"/>
</svg>
