<svg width="20" height="20" viewBox="0 0 20 20" fill="none" xmlns="http://www.w3.org/2000/svg">
<circle cx="10.0191" cy="10.0181" r="8.97518" fill="black"/>
<path d="M10 0C4.48122 0 0 4.47486 0 10C0 15.5251 4.47486 20 10 20C15.5251 20 20 15.5251 20 10C20 4.47486 15.5251 0 10 0ZM10 18.8988C5.08593 18.8988 1.10121 14.9141 1.10121 10C1.10121 5.08593 5.08593 1.10121 10 1.10121C14.9141 1.10121 18.8988 5.08593 18.8988 10C18.8988 14.9141 14.9141 18.8988 10 18.8988Z" fill="#8DC641"/>
<path d="M13.4947 7.72686L11.2669 11.0305H13.4947V7.72686ZM14.335 6.39014V11.0369H15.3152V11.8771H14.335V13.6148H13.4884V11.8771H10.3375V10.9732L13.5138 6.3965L14.335 6.39014ZM9.40816 12.7682V13.6085H4.68506V13.583C4.72962 12.7937 4.93331 12.2145 5.32796 11.737C5.64623 11.3424 6.03452 11.0496 6.83019 10.5531C6.83019 10.5531 7.11027 10.3749 7.19302 10.3239C7.6195 10.0502 7.89321 9.8338 8.116 9.58555C8.38971 9.26728 8.52974 8.92355 8.52974 8.51617C8.52974 7.72686 7.96959 7.18581 7.16755 7.18581C6.23184 7.18581 5.75444 7.89873 5.72898 8.96175V8.98084H4.88875V8.96175L4.88239 8.77079C4.88239 7.34494 5.81173 6.39014 7.21211 6.39014C8.58067 6.39014 9.47182 7.21764 9.47182 8.49708C9.47182 9.15271 9.2363 9.68103 8.78436 10.1457C8.44699 10.5022 8.0969 10.7377 7.31396 11.2151C7.30123 11.2215 7.29486 11.2278 7.28213 11.2342C7.24394 11.2533 7.07207 11.3551 7.02752 11.387C6.65196 11.6097 6.42281 11.7689 6.21911 11.9598C5.97086 12.1954 5.80536 12.4563 5.72898 12.7619H9.40816V12.7682Z" fill="white"/>
</svg>
