<svg width="16" height="16" viewBox="0 0 16 16" fill="none" xmlns="http://www.w3.org/2000/svg">
<path d="M16.0003 8.18326C16.001 7.63811 15.9539 7.09391 15.8597 6.55664H8.16211V9.63766H12.5709C12.4807 10.1297 12.2898 10.5988 12.0096 11.0166C11.7294 11.4344 11.3658 11.7923 10.9407 12.0687V14.0686H13.572C15.1126 12.6765 16.0003 10.6176 16.0003 8.18326Z" fill="#4285F4"/>
<path d="M8.16201 15.9999C10.3647 15.9999 12.2194 15.2911 13.5719 14.0689L10.9406 12.069C10.2083 12.5556 9.26507 12.8334 8.16201 12.8334C6.03299 12.8334 4.22592 11.4267 3.57973 9.53125H0.869141V11.5923C1.54851 12.9172 2.59025 14.031 3.87805 14.8094C5.16585 15.5877 6.64903 15.9999 8.16201 15.9999Z" fill="#34A853"/>
<path d="M3.57974 9.53138C3.23813 8.53813 3.23813 7.46251 3.57974 6.46925V4.4082H0.869149C0.297641 5.52279 0 6.75291 0 8.00032C0 9.24773 0.297641 10.4779 0.869149 11.5924L3.57974 9.53138Z" fill="#FBBC04"/>
<path d="M8.16201 3.1671C9.32604 3.14846 10.4508 3.5795 11.2932 4.36706L13.6229 2.0838C12.1456 0.723921 10.1886 -0.0226734 8.16201 0.000524859C6.64903 0.000592441 5.16585 0.412796 3.87805 1.19111C2.59025 1.96943 1.54851 3.08323 0.869141 4.40817L3.57973 6.46922C4.22592 4.57372 6.03299 3.1671 8.16201 3.1671Z" fill="#EA4335"/>
</svg>
