<svg width="21" height="12" viewBox="0 0 21 12" fill="none" xmlns="http://www.w3.org/2000/svg">
<path d="M17.5446 2.76855C16.224 2.76855 15.251 3.79772 15.251 5.05669C15.251 6.08585 15.9758 6.89519 16.8893 7.13499L15.0127 10.0226H16.7602L18.3489 7.33483H19.5404V10.0226H20.9999V2.76855H17.5446ZM17.7432 6.10583C17.1474 6.10583 16.7701 5.63622 16.7701 5.09666C16.7701 4.5571 17.1077 4.03752 17.7432 4.03752H19.5404V6.10583H17.7432Z" fill="black"/>
<path d="M9.55147 2.76855L9.06494 4.10746L11.0508 4.09747L9.8692 8.44393C9.53161 9.71289 10.8422 10.6721 11.9642 9.92272L14.5061 8.18414L13.7614 7.07504L11.2295 8.85359L12.9472 2.76855H9.55147Z" fill="black"/>
<path d="M13.3048 0.919251C13.3048 1.42884 13.0864 1.8385 12.2921 1.8385C11.5375 1.8385 11.2793 1.42884 11.2793 0.919251C11.2793 0.409667 11.5375 0 12.2921 0C13.0765 0.00999186 13.3048 0.419658 13.3048 0.919251Z" fill="black"/>
<path d="M7.13902 8.68268V1.08887H1.53901V5.14556C1.53901 7.054 0.99291 8.23304 0.66525 8.68268H0V12H1.41986V10.0416H6.73192V12H8.15178V8.68268H7.13902ZM2.94894 5.05563V2.42778H5.67944V8.67268H2.15461C2.47234 8.15311 2.94894 6.8142 2.94894 5.05563Z" fill="black"/>
</svg>
