<svg width="375" height="300" xmlns="http://www.w3.org/2000/svg"><g fill="none"><path d="M145.351 0h84.027c.16.227.408.19.64.21 12.863 1.317 23.771 6.625 32.558 16.093 7.856 8.475 12.324 18.532 12.854 30.11.427 9.141.446 18.292.621 27.441.138 6.751.252 13.503.408 20.254.057 1.99.79 3.724 2.25 5.133 1.645 1.58 3.656 2.41 5.794 2.989 4.56 1.251 9.224 1.37 13.894 1.408 5.006.043 10.006-.084 14.992-.038 11.308.124 22.614.4 33.925.662 3.902.092 7.745.492 11.362 2.027 7.27 3.084 12.656 7.97 15 15.749.251.83.438 1.678.66 2.516v5.046c-.363.427-.241.99-.382 1.486-2.503 8.887-4.957 17.768-7.449 26.646a238229.18 238229.18 0 00-32.51 116.298c-1.227 4.397-2.5 8.76-5.003 12.646-5.17 8.027-12.276 12.61-22.078 12.397-4.592-.103-9.206-.103-13.798-.122-8.035-.056-16.07-.13-24.105-.121-19.081.01-38.154.102-57.238.102-11.8 0-23.597.206-35.395.038-7.602-.121-15.2-.073-22.797-.11-4.162-.02-8.324-.05-12.484-.038-17.362.027-34.719-.073-52.073.11-7.519.092-15.032.092-22.546.133-4.524.019-8.675-1.268-12.446-3.74-5.57-3.655-9.132-8.863-11.405-15.009-1.468-3.962-2.405-8.11-3.543-12.184A133097.784 133097.784 0 015.357 147.584C3.678 141.597 2.032 135.6.362 129.597v-5.046c.07-.097.162-.18.181-.286C2.041 116.01 7.146 110.659 14.37 107c4.781-2.419 9.952-2.73 15.173-2.808 5.39-.084 10.787-.2 16.176-.33 8.23-.213 16.465-.354 24.703-.28 4.919.045 9.835.164 14.721-.393 3.065-.354 6.095-.919 8.835-2.454 2.625-1.478 4.214-3.66 4.27-6.751.266-12.992.503-25.979.774-38.96.102-4.624-.02-9.27.773-13.86 3.427-19.761 18.919-35.796 38.627-39.967 2.305-.473 4.619-.8 6.93-1.197zm42.025 283.273c4.356 0 8.71.008 13.08 0 10.641-.01 21.268-.038 31.92-.038 20.513-.01 41.046-.03 61.548.184 3.376.038 6.576-.8 9.533-2.462 6.527-3.662 10.246-9.487 12.275-16.47 2.473-8.528 4.806-17.073 7.187-25.611a152443.19 152443.19 0 0028.492-101.86c1.208-4.34.94-8.602-1.197-12.57-4.187-7.77-10.957-11.797-19.603-12.262-11.252-.606-22.533-.652-33.814-.752-4.67-.037-9.346.02-14.021-.01-3.608-.027-7.198-.317-10.646-1.46-4.462-1.484-6.416-4.016-6.092-8.273.019-.162.008-.324 0-.478-.27-12.673-.557-25.34-.792-38.003-.1-4.64-.808-9.154-2.37-13.516-6.276-17.519-23.062-29.316-41.7-29.316h-67.211c-1.6 0-3.19.046-4.79.227-12.856 1.473-23.305 7.286-31.148 17.556-5.822 7.622-8.503 16.317-8.61 25.914-.13 12.703-.563 25.413-.736 38.119-.046 3.6-1.635 5.894-4.808 7.267-2.292 1-4.732 1.417-7.208 1.673-4.868.517-9.74.22-14.62.246-12.231.079-24.461.344-36.69.679-6.044.173-11.406 2.019-15.904 6.016-5.886 5.224-8.224 11.649-6.043 19.419 1.949 6.96 3.919 13.91 5.862 20.87 9.579 34.24 19.162 68.44 28.714 102.681 1.227 4.408 2.535 8.752 5.227 12.538 4.543 6.378 10.548 9.951 18.551 9.838 8.476-.1 16.949-.184 25.424-.195 26.752 0 53.47-.046 80.19.049z" fill="#71BE44"/><path d="M187.376 283.273c-26.73-.092-53.438-.049-80.16-.03-8.475.011-16.948.095-25.424.195-7.997.113-14.01-3.457-18.551-9.838-2.692-3.784-3.998-8.138-5.227-12.538-9.552-34.24-19.13-68.44-28.714-102.68-1.938-6.96-3.91-13.912-5.862-20.871-2.181-7.77.165-14.195 6.046-19.42 4.505-3.996 9.865-5.853 15.9-6.015 12.23-.344 24.457-.6 36.692-.676 4.878-.032 9.754.257 14.619-.251 2.478-.257 4.913-.676 7.208-1.673 3.17-1.381 4.762-3.668 4.813-7.268.17-12.703.6-25.416.73-38.119.108-9.597 2.79-18.292 8.61-25.913 7.844-10.281 18.293-16.084 31.15-17.557 1.589-.19 3.189-.227 4.789-.227h67.213c18.638 0 35.419 11.794 41.7 29.322 1.562 4.362 2.278 8.87 2.37 13.51.244 12.676.52 25.338.792 38.003.008.165.02.327 0 .478-.327 4.246 1.627 6.79 6.09 8.273 3.448 1.144 7.037 1.433 10.645 1.463 4.67.037 9.346-.02 14.033.008 11.27.092 22.562.137 33.813.751 8.627.465 15.398 4.492 19.592 12.262 2.149 3.97 2.411 8.238 1.2 12.57a193637.17 193637.17 0 01-28.492 101.86c-2.38 8.535-4.705 17.092-7.189 25.61-2.027 6.993-5.757 12.814-12.276 16.471-2.948 1.662-6.145 2.5-9.53 2.462-20.513-.203-41.037-.194-61.55-.184-10.63 0-21.268.027-31.928.038-4.392-.01-8.743-.016-13.102-.016zm-37.908-232.51c.943-2.636-.627-5.533-3.325-5.906-2.616-.362-4.808.589-6.378 2.705-1.543 2.084-1.562 4.381-.503 6.681.42.935 1.13 1.64 2.227 1.814.381.057.733.048.954-.306 1.59-2.486 4.398-3.116 6.77-4.397 0 .4-.018.79 0 1.19.073 1.724 1.72 3.445 3.333 2.845-1.224 2.735-.735 5.097 1.457 6.476.627.4.619.61.362 1.246-1.627 3.989 1.835 9.475 6.17 8.532-2.008.79-3.98 1.67-5.83 2.781-16.221 9.76-17.7 30.854-2.948 42.452 5.57 4.38 11.994 6.389 19.035 6.551 1.8 5.722 5.092 10.476 9.416 14.554.514.673 1.19 1.168 1.857 1.665 5.067 3.77 10.843 5.986 16.905 7.503 1.692.416 3.387.954 5.17.683 9.857.373 18.733-1.902 25.5-9.683.263-.292.541-.549.987-.627 5.878-1.054 10.51-4.263 14.462-8.587.195-.21.476-.384.484-.83-.751.246-1.422.476-2.11.684-2.26.697-4.52 1.416-6.92 1.335-1.746-.065-2.148-.583-1.989-2.308.305-3.638.427-7.27-.392-10.862-.984-4.41-2.948-8.257-6.732-10.965-.679-.619-1.433-1.143-2.214-1.627-2.9-1.8-6.043-3.038-9.205-4.254.438.038.875.057 1.31.114 4.865.619 9.72 1.046 14.555.089 6.994-1.381 12.08-5.195 14.375-12.103 1.676-5.051-.354-9.63-5.019-12.154-2.418-1.295-4.986-2.019-7.691-2.076-9.773-.189-17.355 3.627-22.19 12.349-.213.4-.297.962-.873 1.154-.175-.735.057-1.351.287-1.935 1.99-4.79 4.986-8.722 9.56-11.314 3.326-1.873 6.88-2.989 10.694-3.246.538-.037 1.276.13 1.078-.916-1.062-5.724-4.967-10.397-12.294-8.943-8.77 1.727-16.86 11.468-17.298 20.724-.25 5.406.8 10.56 3.295 15.406.168.335.519.697.203 1.105-.287.373-.679.114-1.003.057-1.397-.208-2.773-.427-4.168-.273.195-10.687-4.67-18.484-13.613-23.978-1.773-1.09-3.73-1.782-5.608-2.65.154-.037.305-.113.457-.102 3.516.246 6.818-4.66 5.275-8.521-.297-.736-.316-.981.446-1.373 2.392-1.22 3.187-5.036 1.354-6.636 1.46.111 2.362-.391 2.968-1.608.392-.78.297-1.605.305-2.413 2.02.98 4.12 1.803 5.898 3.19.316.24.621.553.78.896.447.944 1.136.838 1.887.517.727-.317 1.2-.898 1.562-1.59 2.17-4.194-.819-9.275-5.578-9.475-2.754-.117-4.64 1.532-4.965 4.262-.057.508.222 1.019-.04 1.516-1.798-.657-3.055 0-3.67 1.827-.298.916-.03 1.716.264 2.535-2.638-.762-5.513 2.581-4.416 6.06-4.487.608-7.306 7.092-3.697 10.451-.409.2-.782-.019-1.155-.11-4.235-1.071-8.513-1.317-12.824-.652-1.762.27-3.505.662-5.26.992.657-.646 1.228-1.33 1.48-2.265.826-3.06-1.052-6.743-4.03-7.77-.62-.208-.774-.363-.647-1.052.525-3.035-1.664-5.416-4.705-5.216 0-.143-.038-.31.008-.446.516-1.37.097-2.505-.854-3.505-.922-.946-1.949-.733-2.986-.268zM64.195 175.175c-.238 5.132-.911 11.365-2.827 17.392-.646 2.064-1.298 4.202-3.038 5.616-1.452 1.189-.781 2.648.521 3.2.479.194.97.392 1.479.484 3.246.65 6.524.518 9.789.11 1.954-.26 3.86-.686 5.59-1.662 1.677-.94 2.313-2.11 1.98-3.832-.703-3.608-.703-7.235-.238-10.862.438-3.357 1.163-6.64 3.479-9.292 1.389-1.581 2.989-2.938 5.273-2.42 2.389.558 3.267 2.53 3.705 4.695.608 2.984.284 5.97-.335 8.92-.724 3.459-2.073 6.732-2.873 10.145-.64 2.716.073 3.879 2.846 4.416 3.47.682 6.913.273 10.378-.156 2.381-.29 3.562-1.508 4.181-3.73 1.39-5.03 1.725-10.146 1.414-15.327-.297-4.854-1.251-9.56-3.124-14.078-4.23-10.268-15.836-12.546-23.36-5.86-.354.297-.684 1.043-1.238.633-.408-.298-.173-.976-.06-1.47.044-.203.136-.393.193-.576.543-1.733.18-2.4-1.62-2.625-4.207-.548-8.28.244-12.283 1.479-1.138.346-1.457 1.275-1.065 2.38.22.644.427 1.295.59 1.955.689 3.084.71 6.205.643 10.465zm253.062 12.062c-.727.062-1.135.397-1.581.64-2.12 1.098-4.203 2.29-6.565 2.846-2.735.633-4.24-.465-4.225-3.254.02-3.551.152-7.105.282-10.675.091-2.95.373-5.879.073-8.852-.484-5.116-2.668-7.97-7.717-9.075-6.473-1.411-12.889-.93-19.054 1.543-2.14.854-4.008 2.186-5.284 4.175-1.405 2.222-1.154 5.384.568 7.784 1.34 1.852 3.681 2.546 6.378 1.86.522-.14.933-.244.892-.987-.073-1.794.933-2.93 2.514-3.551 1.589-.63 3.243-.819 4.946-.606 1.284.16 2.557.317 3.662 1.033.913.578.913 1.219.084 1.897-.606.52-1.387.622-2.13.743-3.57.52-6.862 1.806-9.895 3.75-2.827 1.813-5.262 4.102-5.913 7.52-1.581 8.241 1.803 15.922 10.851 17.976 7.3 1.644 14.498.64 21.23-2.648 5.157-2.514 8.69-6.66 10.884-12.12zm-188.508.994c.046 1.954.189 3.895.53 5.83 1.116 6.184 4.497 10.368 10.713 12.024 3.208.838 6.476.984 9.765.741 1.827-.13 3.662-.416 5.243-1.486 1.057-.7 1.019-1.109-.073-1.695-6.105-3.254-10.084-8.292-12.135-14.81-1.473-4.717-1.246-9.552-.465-14.387.581-3.608 1.478-7.095 3.6-10.173.838-1.208.478-2.708-.684-3.627-.708-.579-1.524-.895-2.4-1.025-3.154-.51-6.305-.446-9.402.335-4.092 1.025-5.133 2.679-4.525 6.863.362 2.454.154 4.883-.819 7.178-.638 1.508-2.246 2.343-3.702 1.954-1.24-.335-1.981-1.757-1.773-3.405a15.64 15.64 0 01.81-3.254c.484-1.387 1.046-2.754 1.363-4.203.754-3.406-.354-5.078-3.8-5.7-2.47-.457-4.933-.373-7.403-.01-2.135.315-3.608 1.47-4.265 3.534-1.924 6.035-1.619 12.025 1.057 17.743 2.619 5.636 7.26 8.352 13.448 8.25 1.622-.025 3.238-.444 4.917-.677zm134.443 14.341c.232 0 .484.019.727 0 1.73 0 3.438-.095 4.984-.976 1.208-.678 1.71-2.427.819-3.135-2.195-1.73-3.263-4.165-4.006-6.676-1.386-4.743-3.973-8.686-7.57-12.005-.354-.324-.408-.605-.214-1.013 1.173-2.717 2.268-5.46 3.487-8.146.922-2.038 2.26-3.627 4.549-4.298 1.618-.475 2.4-1.58 2.4-3.051.018-1.357-.763-2.584-2.279-3.04-4.51-1.35-8.992-1.46-13.327.621-2.121 1.014-3.338 2.77-3.46 5.227-.056.987-.25 1.97-.372 2.968-.149 1.189-.262 2.392-.652 3.527-.183.556-.537 1.143-1.162.983-.494-.148-.194-.78-.175-1.173.194-2.754.437-5.486.67-8.24.175-1.746-.597-2.992-2.16-3.627-3.124-1.284-6.362-1.562-9.597-.465-2.222.762-3.235 2.77-2.735 5.068.335 1.524.522 3.062.597 4.621.27 5.646-.148 11.273-.297 16.89-.092 3.608-.24 7.197.262 10.786.26 1.897.949 3.438 2.938 4.138 2.29.8 4.613 1.227 7.049.838 2.827-.465 3.756-1.757 3.383-4.55-.483-3.737-.873-7.459-.93-11.231 0-.438-.243-1.025.317-1.303.621-.279 1.265-.13 1.803.273.837.605 1.378 1.44 1.767 2.38 1.246 2.968 2.084 6.025 2.168 9.271.056 2.587 1.44 4.168 3.989 4.633 2.332.427 4.665.724 7.027.705zm-113.816-23.9a26.856 26.856 0 001.302 8.627c1.133 3.562 2.581 6.976 5.379 9.619 3.378 3.151 7.57 4.154 12.038 4.238 4.897.092 9.494-.965 13.23-4.34 2.926-2.633 4.616-5.887 3.883-10.017-.173-.965-.627-1.71-1.494-2.203-.47-.251-.82-.362-1.163.252-1.078 1.897-2.862 2.856-4.905 3.348-3.905.949-7.714.446-11.397-.975-.87-.336-2.079-.67-2.022-1.776.051-1.078 1.249-1.33 2.162-1.6 2.833-.884 5.779-1.208 8.638-1.935 4.535-1.135 7.887-3.7 9.4-8.211 1.516-4.549.868-8.79-2.343-12.451-2.93-3.346-6.911-4.281-11.133-4.473-5.9-.235-10.813 2.148-15.092 5.962-4.754 4.235-6.373 9.797-6.483 15.935zm76.673-.8c0-4.157-.111-8.314.04-12.478.092-2.354-.986-3.684-2.978-4.522-.82-.335-1.654-.614-2.511-.781-4.065-.8-8.165-1.06-12.295-.668-7.264.687-10.75 3.811-12.294 10.935-.69 3.125-.995 6.325-1.452 9.476-.659 4.651-1.58 9.235-3.832 13.41-2.305 4.26-5.227 7.941-9.749 10.074-.6.27-1.678.305-1.667.91 0 .782 1.013 1.117 1.705 1.509.308.184.638.332.981.427 4.36 1.376 8.687 1.292 12.898-.506 4.564-1.97 6.964-5.697 8.07-10.386 1.732-7.41 2.624-14.943 3.321-22.514.122-1.245.644-2.197 1.555-2.975 1.062-.914 2.297-1.452 3.662-1.676 1.673-.278 2.278.243 2.324 1.954a12 12 0 01-.019 1.433c-.494 6.619-.53 13.26-.494 19.9.018 2.846.27 5.673 1.237 8.389.354.965.854 1.916 1.868 2.202 3.132.922 6.313.995 9.419-.113 1.451-.527 1.813-1.54 1.478-3.103a33.777 33.777 0 01-.324-1.775c-1.043-6.325-1.073-12.722-.943-19.122zm-100.025 47.332c.154.298.22.354.22.43.007 2.23.018 4.481.018 6.71 0 3.033 0 3.014 2.997 2.858.592-.049.744-.225.736-.77-.02-5.041-.02-10.082 0-15.122 0-.681-.29-.792-.854-.781-1.163.038-2.325.073-3.479-.011-.854-.062-1.173.305-1.416 1.051a458.585 458.585 0 01-3.17 9.03c-.125.346-.084.81-.6 1.016-.827-2.402-1.627-4.762-2.479-7.124-.465-1.303-.492-3.124-1.548-3.76-1.052-.605-2.725-.13-4.114-.213-.897-.062-1.143.213-1.135 1.124.049 4.279.019 8.546.019 12.843 0 2.77 0 2.746 2.77 2.706.762 0 .946-.24.935-.965-.038-2.195-.008-4.397-.008-6.6v-2.513c1.154 2.548 2.027 5.097 2.927 7.643.838 2.435.846 2.38 3.416 2.446.922.019 1.295-.298 1.59-1.154.967-2.892 2.051-5.754 3.175-8.844zm47.287 8.13c1.832 1.57 2.505 1.962 3.651 2.157 3.216.549 6.17-1.31 7.314-4.63.846-2.494.883-5.04.16-7.551-1.112-3.833-4.563-5.86-8.1-4.876-1.214.335-2.152 1.116-3.068 2.01-.427-1.896-.427-1.896-2.476-1.896-.162 0-.324.027-.478 0-1.02-.17-1.363.183-1.355 1.283.06 6.233.02 12.479.038 18.7 0 .957-.419 2.187.192 2.77.6.587 1.833.066 2.784.195 1.092.14 1.419-.251 1.376-1.356-.092-2.184-.038-4.37-.038-6.806zm56.616-5.105h2.39c3.256 0 3.256 0 2.8-3.284-.587-4.073-3.266-6.603-7.144-6.762-3.86-.16-6.835 2.221-7.654 6.165-.335 1.619-.335 3.235-.073 4.883.519 3.303 2.754 5.7 5.8 6.203 3.935.651 6.995-.613 8.538-3.551.616-1.19.586-1.276-.708-1.49-.717-.11-1.422-.202-2.12-.37-.67-.17-1.061-.056-1.378.668-.556 1.246-1.6 1.71-2.956 1.47-1.422-.224-2.473-1.397-2.808-3.051-.141-.64-.02-.94.743-.911 1.53.076 3.046.03 4.57.03zm-72.792 6.956c-1.24-2.613-.97-5.31-.954-7.97.008-1.467.027-2.957-.046-4.427-.124-2.419-1.46-3.903-3.84-4.351-1.82-.333-3.646-.37-5.473-.02-2.208.43-3.6 1.777-4.325 3.852-.073.206-.392.598.02.708 1.161.281 2.342.476 3.515.67.246.057.284-.224.354-.41.676-1.84 2.817-1.914 4.428-1.384.9.295 1.045 1.124 1.102 1.951.06.84-.665.773-1.16.903-1.897.503-3.82.854-5.675 1.433-2.381.762-3.478 2.675-3.19 5.235.236 2.186 1.874 3.767 4.18 4.119 2.361.354 4.37-.392 6.034-1.879.64.457.173 1.592 1.298 1.573 1.208-.032 2.397-.003 3.732-.003zm53.346 0c-1.6-3.013-2.584-6.202-5.354-8.259-.262-.195-.446-.324-.092-.605 1.022-.8 1.395-1.99 1.784-3.163.335-.994.884-1.745 2.065-1.635.762.073.986-.26.921-.965-.046-.483-.008-.967-.008-1.44-.01-.29-.065-.522-.408-.64-1.654-.568-4.167.372-4.967 1.97-.511 1.032-.854 2.146-1.322 3.216-.222.546-.465 1.094-1.06 1.386-.578.24-.994.344-.967-.54.03-.922 0-1.84 0-2.76 0-3.292 0-3.273-3.346-3.21-.781.01-.995.25-.986 1.013.04 4.13.01 8.24.01 12.368 0 3.44 0 3.424 3.517 3.294.605-.03.837-.205.827-.821-.038-1.73-.027-3.438-.009-5.16.009-.373-.213-.921.233-1.07.457-.149.976.11 1.284.503.297.354.56.78.762 1.208a222.215 222.215 0 012.067 4.575c.184.417.344.77.93.763 1.292-.057 2.606-.028 4.12-.028zm42.405-16.648h-4.797c-2.808 0-2.789 0-2.624 2.865.04.586.224.762.78.754 1.08-.03 2.16.057 3.236-.03.968-.081 1.303.195 1.268 1.219-.065 3.635 0 7.262-.04 10.897-.009.716.17 1.025.932.968a14.032 14.032 0 012.521 0c.781.062.92-.262.911-.968-.03-3.105-.019-6.23-.019-9.335 0-2.754 0-2.754 2.697-2.754 2.614 0 2.595 0 2.576-2.668-.019-.735-.232-.956-.968-.95-2.156.032-4.316.002-6.473.002zm-83.572-69.397c-.084-1.063-.336-2.344-1.336-3.333-.93-.927-1.721-.865-2.53.135-.726.884-1.67 1.465-2.678 1.96-.819.4-1.646.8-2.446 1.246-.489.275-.916.637-1.062 1.237-.51 2.192 1.097 4.563 3.324 4.887 3.444.484 6.736-2.384 6.728-6.132zm5.067 6.167c2.884-.008 5.408-2.008 5.924-4.797.32-1.77.027-3.449-1.305-4.768-.865-.86-1.716-.762-2.438.2-.58.738-1.335 1.252-2.151 1.681-.954.5-1.943.946-2.879 1.47-.591.33-1.102.75-1.208 1.522-.365 2.511 1.503 4.692 4.057 4.692z" fill="#FEFEFD"/><path d="M180.197 137.99c-4.324-4.087-7.616-8.841-9.416-14.555 2.39-.11 4.79-.254 7.13-.8 10-2.292 17.338-7.851 21.319-17.5.91-2.238 1.189-4.627 1.58-6.986 1.395-.154 2.79.065 4.168.273.325.048.706.316 1.003-.057.297-.408-.038-.773-.203-1.106-2.494-4.837-3.546-9.997-3.294-15.405.446-9.257 8.538-18.997 17.286-20.724 7.338-1.446 11.244 3.219 12.295 8.943.194 1.035-.538.878-1.07.916-3.814.257-7.368 1.381-10.695 3.246-4.565 2.59-7.57 6.533-9.56 11.314-.232.58-.464 1.189-.286 1.935.576-.19.64-.754.873-1.154 4.835-8.733 12.416-12.54 22.19-12.349 2.686.057 5.272.781 7.68 2.076 4.676 2.524 6.703 7.102 5.03 12.154-2.297 6.913-7.381 10.721-14.376 12.103-4.835.956-9.708.53-14.554-.09-.438-.056-.873-.075-1.31-.113-2.9-.543-3.079-.422-4.128 2.319-3.327 8.66-7.616 16.702-14.313 23.313-5.105 5.054-10.978 9.006-17.349 12.246z" fill="#71BE44"/><path d="M200.81 98.149c-.391 2.362-.67 4.751-1.58 6.986-3.981 9.649-11.32 15.208-21.32 17.5-2.34.546-4.74.69-7.129.8-7.038-.162-13.465-2.18-19.035-6.551-14.751-11.598-13.284-32.7 2.949-42.452 1.85-1.11 3.821-1.989 5.821-2.77.092-.038.2-.076.303-.121.162-.044.362-.022.4-.26h-.038c1.751-.33 3.495-.71 5.26-.992 4.318-.665 8.586-.419 12.824.652.373.091.743.31 1.154.11l-.03-.008c.095.373.4.238.627.257l-.027-.019c.135.287.392.238.627.26l-.03-.009c1.873.865 3.836 1.557 5.609 2.646 8.93 5.487 13.81 13.295 13.616 23.97zm-31.161 18.243c10.151-.108 15.775-5.343 20.005-12.676.16-.286.276-.654.03-.897-.298-.281-.592.03-.82.219-1.407 1.143-2.98 2.024-4.65 2.697-5.587 2.227-11.376 2.827-17.292 1.933-5.181-.79-9.922-2.544-12.968-7.23-.19-.281-.524-.608-.886-.408-.45.251-.122.662 0 .962.789 2.086 1.646 4.151 2.705 6.124 3.197 5.962 8.19 9.068 13.876 9.276zm15.854-36.462c-4.379-.008-7.949 3.705-7.979 8.324-.032 4.854 4.054 9.295 8.608 9.332 4.598.038 8.711-4.008 8.711-8.597-.002-4.527-4.667-9.04-9.34-9.06zm-28.284 16.356c4.543-.027 8.551-4.091 8.532-8.635-.019-4.578-4.694-8.978-9.513-8.96-4.352.009-7.852 3.82-7.806 8.463.054 4.851 4.198 9.168 8.787 9.132zm-93.024 78.89c.07-4.26.046-7.381-.665-10.452-.154-.651-.373-1.31-.59-1.954-.391-1.116-.064-2.038 1.065-2.38 3.99-1.239 8.068-2.028 12.284-1.49 1.8.232 2.173.914 1.62 2.632-.058.195-.15.373-.19.568-.114.51-.349 1.19.06 1.49.562.391.891-.336 1.237-.652 7.533-6.676 19.13-4.39 23.36 5.86 1.865 4.529 2.827 9.224 3.119 14.088.316 5.179-.02 10.295-1.409 15.317-.618 2.221-1.8 3.438-4.18 3.738-3.465.427-6.914.837-10.379.17-2.77-.549-3.486-1.714-2.846-4.43.8-3.422 2.149-6.695 2.873-10.135.619-2.957.943-5.922.335-8.927-.438-2.178-1.305-4.149-3.705-4.687-2.284-.53-3.887.82-5.279 2.4-2.319 2.65-3.037 5.933-3.473 9.298-.464 3.627-.464 7.254.238 10.862.335 1.732-.292 2.903-1.98 3.832-1.736.987-3.647 1.398-5.59 1.665-3.265.408-6.543.549-9.79-.113-.507-.1-.988-.287-1.478-.492-1.302-.54-1.97-2.008-.521-3.181 1.74-1.414 2.38-3.57 3.038-5.617 1.932-6.037 2.608-12.256 2.846-17.41zm253.062 12.062c-2.195 5.46-5.727 9.605-10.898 12.116-6.732 3.31-13.948 4.314-21.23 2.657-9.037-2.054-12.432-9.727-10.85-17.973.648-3.424 3.086-5.72 5.913-7.524 3.032-1.933 6.324-3.225 9.894-3.757.744-.111 1.509-.214 2.13-.727.83-.69.83-1.338-.084-1.906-1.105-.716-2.38-.883-3.662-1.032-1.702-.206-3.356-.03-4.946.594-1.58.633-2.586 1.768-2.513 3.552.04.743-.373.854-.892.994-2.697.679-5.038-.008-6.378-1.867-1.722-2.4-1.97-5.562-.568-7.773 1.276-2 3.135-3.33 5.284-4.168 6.162-2.483 12.58-2.975 19.054-1.543 5.038 1.097 7.235 3.962 7.716 9.076.297 2.967.019 5.897-.073 8.851-.14 3.551-.262 7.106-.281 10.657-.019 2.79 1.49 3.905 4.224 3.254 2.362-.557 4.446-1.746 6.565-2.846.46-.235.868-.57 1.595-.635zm-23.768-1.033a6.436 6.436 0 00-.419-2.586c-.175-.465-.427-.697-.956-.751-2.436-.306-5.133 1.978-5.209 4.48-.019.633.206 1.163.598 1.647.892 1.07 2.248 1.394 3.68.891 1.728-.632 2.314-1.524 2.306-3.68zm-164.74 2.027c-1.679.233-3.298.65-4.914.679-6.19.103-10.83-2.614-13.449-8.249-2.672-5.73-2.98-11.708-1.056-17.743.656-2.065 2.143-3.216 4.265-3.535 2.47-.362 4.943-.446 7.402.01 3.446.622 4.554 2.298 3.8 5.7-.316 1.45-.878 2.817-1.362 4.203a15.628 15.628 0 00-.81 3.254c-.2 1.657.53 3.07 1.772 3.406 1.446.392 3.054-.446 3.703-1.954.97-2.298 1.181-4.725.819-7.179-.61-4.175.422-5.83 4.524-6.862 3.098-.78 6.249-.846 9.403-.335.884.13 1.7.465 2.4 1.024 1.173.92 1.53 2.42.684 3.627-2.135 3.079-3.02 6.565-3.6 10.173-.781 4.835-1.011 9.67.465 14.387 2.05 6.519 6.03 11.557 12.135 14.81 1.092.587 1.13.995.073 1.695-1.581 1.07-3.417 1.368-5.244 1.487-3.286.232-6.556.094-9.764-.74-6.227-1.658-9.606-5.822-10.714-12.025-.34-1.935-.486-3.879-.532-5.833zm134.443 14.341c-2.362.019-4.695-.281-7.022-.708-2.538-.484-3.935-2.046-3.992-4.633-.073-3.243-.91-6.302-2.156-9.27-.392-.94-.94-1.776-1.776-2.38-.549-.4-1.184-.568-1.795-.274-.578.273-.316.865-.316 1.303.049 3.773.438 7.494.922 11.232.362 2.79-.568 4.084-3.376 4.549-2.454.392-4.781-.038-7.067-.838-1.97-.681-2.657-2.24-2.92-4.138-.518-3.589-.353-7.178-.262-10.786.152-5.627.568-11.252.298-16.89a30.857 30.857 0 00-.606-4.621c-.51-2.297.511-4.305 2.735-5.068 3.236-1.097 6.473-.819 9.598.465 1.562.622 2.324 1.879 2.167 3.627a604.532 604.532 0 00-.689 8.24c-.019.393-.305 1.025.184 1.174.632.167.986-.427 1.165-.984.392-1.135.51-2.335.64-3.527.13-.995.317-1.978.373-2.968.14-2.454 1.357-4.202 3.479-5.227 4.316-2.092 8.816-1.97 13.316-.621 1.516.456 2.297 1.692 2.29 3.04-.02 1.47-.782 2.587-2.4 3.052-2.29.67-3.647 2.26-4.56 4.297-1.217 2.686-2.322 5.43-3.495 8.146-.186.427-.132.69.222 1.013 3.6 3.322 6.175 7.265 7.57 12.006.743 2.53 1.805 4.957 4.008 6.675.9.709.392 2.457-.819 3.136-1.543.88-3.265.975-4.994.975-.238.022-.482.003-.722.003z" fill="#F9A61B"/><path d="M149.376 178.673c.113-6.138 1.73-11.7 6.473-15.932 4.278-3.822 9.202-6.198 15.092-5.96 4.221.19 8.213 1.124 11.132 4.481 3.213 3.646 3.86 7.906 2.343 12.443-1.51 4.522-4.865 7.087-9.397 8.222-2.86.708-5.808 1.043-8.638 1.916-.91.279-2.11.52-2.162 1.62-.057 1.086 1.154 1.42 2.024 1.764 3.692 1.414 7.49 1.916 11.398.987 2.035-.506 3.816-1.452 4.902-3.357.34-.606.695-.511 1.165-.252.862.503 1.327 1.246 1.492 2.203.732 4.127-.962 7.376-3.884 10.014-3.735 3.367-8.332 4.446-13.23 4.343-4.459-.095-8.656-1.09-12.037-4.249-2.8-2.624-4.246-6.046-5.379-9.608-.886-2.803-1.338-5.686-1.294-8.635zm24.586-9.022c.027-.689-.497-1.356-1.405-1.783-3.779-1.787-9.308 1.264-9.87 5.43-.07.494-.079.78.58.567 3.265-1.033 6.541-2.035 9.798-3.079.527-.156.897-.53.897-1.135z" fill="#F9A61B"/><path d="M226.049 177.873c-.13 6.397-.1 12.795.932 19.138.092.605.203 1.189.324 1.775.336 1.563-.027 2.576-1.478 3.106-3.105 1.105-6.286 1.013-9.419.11-1.013-.286-1.516-1.245-1.867-2.202-.968-2.716-1.22-5.543-1.238-8.39-.038-6.64 0-13.28.494-19.9.027-.483.027-.956.02-1.432-.05-1.71-.652-2.23-2.325-1.954-1.368.225-2.595.762-3.662 1.676-.911.781-1.433 1.746-1.554 2.976-.679 7.57-1.59 15.102-3.322 22.513-1.097 4.687-3.497 8.416-8.07 10.387-4.206 1.786-8.538 1.87-12.898.505a4.173 4.173 0 01-.98-.427c-.692-.392-1.706-.719-1.706-1.508 0-.597 1.07-.632 1.668-.91 4.535-2.13 7.446-5.804 9.748-10.074 2.252-4.176 3.173-8.76 3.833-13.4.465-3.162.762-6.362 1.451-9.486 1.54-7.125 5.03-10.249 12.295-10.935 4.127-.392 8.23-.133 12.294.667.854.17 1.692.446 2.511.781 1.99.838 3.07 2.168 2.978 4.522-.14 4.148-.03 8.305-.03 12.462zm-45.852-39.883c6.379-3.241 12.244-7.193 17.36-12.247 6.694-6.61 10.98-14.665 14.302-23.313 1.052-2.752 1.246-2.865 4.127-2.32 3.163 1.22 6.325 2.458 9.217 4.255.78.484 1.532 1.01 2.221 1.627-.854 6.297-2.967 12.173-5.86 17.773-4.602 8.894-10.31 16.997-17.426 24.07-1.784.27-3.479-.257-5.17-.684-6.063-1.516-11.838-3.732-16.906-7.502-.676-.487-1.36-.984-1.865-1.66z" fill="#F9A61B"/><path d="M204.13 147.84c7.113-7.07 12.824-15.175 17.416-24.07 2.91-5.597 5.022-11.484 5.86-17.77 3.783 2.705 5.745 6.551 6.732 10.965.819 3.59.697 7.227.392 10.862-.16 1.727.243 2.24 1.989 2.308 2.4.084 4.651-.627 6.919-1.332.67-.211 1.36-.438 2.11-.684-.007.454-.286.619-.483.827-3.954 4.324-8.565 7.532-14.462 8.59-.446.078-.727.334-.987.626-6.757 7.781-15.619 10.052-25.486 9.679z" fill="#71BE44"/><path d="M126.024 225.205c-1.116 3.09-2.197 5.952-3.18 8.854-.298.855-.671 1.173-1.59 1.155-2.57-.076-2.581-.011-3.416-2.438-.897-2.557-1.773-5.106-2.927-7.644v2.514c0 2.195-.02 4.397.008 6.6.01.708-.17.957-.935.957-2.77.038-2.77.065-2.77-2.706 0-4.289.03-8.556-.02-12.854-.008-.892.228-1.186 1.136-1.113 1.389.092 3.054-.392 4.113.221 1.057.617 1.084 2.435 1.549 3.749.851 2.362 1.651 4.735 2.478 7.124.525-.202.484-.67.6-1.013a614.283 614.283 0 003.17-9.022c.246-.74.563-1.132 1.417-1.06 1.154.082 2.324.047 3.478.009.565-.008.854.103.854.78-.019 5.03-.019 10.08 0 15.123 0 .548-.154.732-.735.773-2.997.167-2.99.183-2.997-2.85 0-2.24-.008-4.48-.02-6.729.006-.076-.059-.13-.213-.43zm47.286 8.13c0 2.435-.056 4.622.028 6.797.051 1.098-.276 1.49-1.381 1.35-.94-.112-2.181.391-2.781-.185-.611-.597-.192-1.824-.192-2.77-.02-6.232.024-12.47-.038-18.703-.008-1.086.327-1.44 1.351-1.283.165.03.317 0 .479 0 2.046 0 2.046 0 2.475 1.908.917-.895 1.846-1.676 3.065-2.03 3.552-.984 6.995 1.043 8.106 4.884.724 2.51.686 5.048-.16 7.551-1.146 3.327-4.097 5.181-7.316 4.64-1.119-.197-1.803-.589-3.635-2.159zm7.076-6.37c.065-1.087-.045-2.203-.543-3.224-.57-1.184-1.465-1.965-2.873-2-1.44-.027-2.497.605-3.078 1.867-1.008 2.233-.91 4.51.192 6.678.627 1.228 1.751 1.879 3.154 1.75 1.392-.152 2.308-1.006 2.754-2.325.3-.876.435-1.77.394-2.746zm49.541 1.265c-1.524 0-3.04.046-4.565-.022-.743-.027-.873.262-.727.922.335 1.654 1.376 2.808 2.808 3.04 1.349.233 2.4-.213 2.949-1.478.305-.727.697-.819 1.367-.66.698.168 1.406.27 2.13.382 1.295.205 1.33.28.697 1.47-1.524 2.948-4.583 4.213-8.527 3.551-3.04-.503-5.291-2.9-5.81-6.192-.252-1.638-.252-3.275.073-4.894.837-3.944 3.794-6.306 7.662-6.154 3.886.148 6.567 2.697 7.143 6.76.457 3.283.457 3.283-2.797 3.283-.814-.008-1.614-.008-2.403-.008zm-2.213-2.811c.883 0 1.756-.019 2.632.01.53.02.632-.167.578-.688-.205-1.795-1.432-3.087-3.032-3.144-1.497-.056-2.706 1.062-3.143 2.735-.252.968.048 1.19.951 1.109.657-.065 1.335-.022 2.014-.022zm-70.579 9.767c-1.343 0-2.535-.03-3.724.009-1.125.021-.654-1.114-1.297-1.57-1.665 1.478-3.673 2.24-6.036 1.867-2.308-.354-3.943-1.916-4.178-4.11-.281-2.547.808-4.474 3.19-5.239 1.853-.586 3.778-.94 5.678-1.421.483-.14 1.208-.073 1.156-.911-.046-.83-.2-1.654-1.102-1.954-1.608-.538-3.763-.465-4.427 1.397-.07.173-.098.454-.354.408-1.182-.205-2.363-.408-3.517-.68-.408-.1-.092-.504-.019-.706.717-2.084 2.106-3.414 4.325-3.844 1.827-.37 3.654-.332 5.473 0 2.38.45 3.716 1.936 3.84 4.352.073 1.48.057 2.967.046 4.448-.027 2.663-.294 5.341.946 7.954zm-5.221-6.483c-.276-.317.6-1.33-.428-1.227-1.33.11-2.637.597-3.935.994-1 .306-1.502 1.052-1.283 2.13.21 1.051.883 1.673 1.98 1.784 2.128.189 3.455-1.125 3.666-3.681zm58.567 6.483c-1.516 0-2.827-.03-4.127.02-.586.01-.743-.344-.93-.763a198.03 198.03 0 00-2.067-4.565 5.606 5.606 0 00-.762-1.227c-.306-.373-.827-.63-1.284-.494-.465.16-.225.7-.233 1.07a155.73 155.73 0 00.008 5.16c.011.621-.202.789-.827.818-3.516.14-3.516.16-3.516-3.302 0-4.12.03-8.23-.01-12.349-.009-.781.205-1.013.986-1.022 3.346-.056 3.346-.094 3.346 3.209 0 .921.03 1.832 0 2.762-.038.88.392.78.967.538.595-.282.838-.838 1.06-1.395.467-1.062.81-2.178 1.322-3.2.8-1.6 3.321-2.549 4.967-1.97.343.119.397.351.408.63 0 .483-.038.967.008 1.44.084.7-.16 1.032-.921.976-1.181-.122-1.73.632-2.065 1.619-.392 1.189-.762 2.362-1.784 3.18-.354.27-.186.393.092.598 2.778 2.065 3.762 5.251 5.362 8.267zm42.405-16.648c2.157 0 4.317.03 6.465-.008.725-.011.957.202.957.948.038 2.668.057 2.668-2.567 2.668-2.698 0-2.698 0-2.698 2.754 0 3.116-.008 6.222.02 9.327.01.708-.13 1.032-.912.976a16.468 16.468 0 00-2.53 0c-.762.065-.93-.244-.921-.957.049-3.646-.03-7.27.049-10.908.019-1.033-.298-1.292-1.276-1.216-1.07.08-2.168 0-3.235.027-.549.01-.743-.176-.781-.752-.16-2.865-.176-2.865 2.613-2.865 1.62.006 3.22.006 4.816.006z" fill="#B34317"/><path d="M180.99 71.273l.026.019c-.162-.2-.362-.31-.627-.257l.03.008c-3.608-3.362-.79-9.848 3.697-10.457-1.108-3.454 1.77-6.808 4.416-6.035.2.117.392.227.592.354 1.833 1.6 1.038 5.417-1.354 6.636-.762.391-.743.637-.446 1.373 1.544 3.859-1.762 8.759-5.275 8.521-.152-.008-.303.065-.457.108l.03.008c-.14-.305-.406-.237-.633-.278zm-20.171.259c-.103.038-.21.084-.303.122-4.324.935-7.802-4.554-6.16-8.532.266-.636.266-.854-.361-1.246-2.192-1.39-2.69-3.752-1.457-6.476.121-.057.246-.11.367-.181.125-.084.263-.181.392-.257l-.019.008c3.04-.2 5.233 2.181 4.706 5.216-.125.69.027.844.646 1.052 2.98 1.016 4.856 4.71 4.03 7.77-.252.935-.822 1.619-1.479 2.265h.027c-.122.09-.257.173-.39.26zm31.111-21.351c.251-.497-.02-1.01.038-1.516.324-2.73 2.202-4.37 4.956-4.262 4.762.2 7.746 5.28 5.579 9.475-.354.692-.82 1.273-1.552 1.59-.754.321-1.443.427-1.889-.517-.167-.354-.465-.656-.78-.897-1.785-1.386-3.868-2.208-5.896-3.19l.038.02c.222-.33-.083-.387-.28-.511l.037.027c-.038-.146.019-.373-.262-.265l.01.046zm-42.727 1.173c-2.37 1.284-5.17 1.91-6.77 4.397-.22.354-.574.373-.955.306-1.097-.17-1.8-.879-2.227-1.814-1.051-2.302-1.032-4.589.503-6.68 1.573-2.125 3.762-3.068 6.378-2.706 2.698.373 4.27 3.267 3.325 5.905h-.02c-.064.211-.35.335-.253.62l.019-.028z" fill="#71BE44"/><path d="M169.314 149.14c.008 3.752-3.282 6.617-6.725 6.133-2.227-.314-3.827-2.687-3.324-4.887.143-.6.573-.962 1.062-1.237.79-.446 1.619-.846 2.446-1.246 1.008-.498 1.962-1.076 2.678-1.96.808-.989 1.6-1.051 2.53-.135.997.987 1.249 2.27 1.333 3.333zm5.067 6.168c-2.551 0-4.422-2.181-4.067-4.703.108-.773.618-1.189 1.208-1.521.943-.525 1.924-.973 2.875-1.47.82-.428 1.581-.946 2.154-1.684.722-.954 1.568-1.06 2.435-.198 1.336 1.32 1.63 2.998 1.303 4.768-.5 2.8-3.035 4.8-5.908 4.808zM149.449 50.762h.019c1.035-.465 2.064-.678 2.97.265.954.992 1.37 2.135.854 3.505-.046.136-.008.303-.008.446l.008-.019c-.219-.037-.322.073-.392.257-.119.06-.246.116-.368.181-1.613.6-3.25-1.121-3.332-2.846-.019-.4 0-.789 0-1.189l-.019.02c.324-.117.316-.363.268-.62zm39.661 4.135c-.196-.116-.391-.227-.588-.354-.298-.819-.573-1.619-.268-2.535.61-1.827 1.865-2.484 3.673-1.827l-.019-.027c-.01.19.057.292.251.265l-.018-.027c-.038.235-.02.438.262.516l-.03-.024c-.008.813.084 1.64-.305 2.413-.595 1.22-1.487 1.711-2.957 1.6z" fill="#F9A61B"/><g fill="#FEFEFD"><path d="M169.649 116.392c-5.687-.21-10.687-3.316-13.884-9.287-1.06-1.97-1.906-4.035-2.706-6.124-.11-.303-.445-.716 0-.962.363-.2.698.124.89.408 3.054 4.697 7.786 6.449 12.967 7.23 5.914.902 11.703.292 17.292-1.935a17.554 17.554 0 004.649-2.698c.23-.192.521-.502.821-.219.246.238.13.611-.03.898-4.224 7.348-9.848 12.583-20 12.689zm15.854-36.462c4.673.019 9.338 4.532 9.319 9.06 0 4.578-4.103 8.632-8.7 8.596-4.554-.037-8.64-4.478-8.614-9.332.043-4.619 3.616-8.343 7.995-8.324zm.408 14.846c2.973-.008 5.497-2.268 6.335-5.562.213-.898-.03-1.125-.884-1.133-1.386-.01-2.678.438-4.03.535-.354.02-.791.235-1.018-.07-.25-.33.164-.638.31-.922.6-1.173 1.27-2.305 1.698-3.562.524-1.551.3-1.851-1.276-1.943a9.617 9.617 0 00-2.614.235c-3.108.708-5.11 3.419-4.732 6.39.451 3.461 3.108 6.042 6.21 6.032zm-28.692 1.51c-4.59.025-8.733-4.28-8.787-9.132-.046-4.643 3.454-8.451 7.806-8.462 4.819-.019 9.494 4.381 9.513 8.96.02 4.553-3.989 8.607-8.532 8.634zm-.162-8.994c.58-1.135 1.17-2.162 1.64-3.246 1.438-3.268.992-3.324-2.124-3.154-2.99.165-5.397 2.154-5.895 4.743-.592 3.073 1.46 6.627 4.363 7.579 2.867.943 5.978-.498 7.448-3.487.408-.838 1.13-1.892.59-2.646-.536-.735-1.725-.19-2.622-.097-1.087.116-2.14.554-3.4.308zm23.933-16.019c.226.027.507-.027.626.26-.238-.025-.502.037-.627-.26z"/><path d="M180.378 71.035c.265-.057.476.046.627.257-.227-.008-.532.116-.627-.257zm-19.559.497c.135-.089.27-.17.4-.259-.049.235-.238.219-.4.26zM293.49 186.205c.007 2.168-.58 3.05-2.298 3.681-1.424.511-2.792.184-3.684-.891-.392-.487-.622-1.006-.605-1.646.092-2.503 2.77-4.787 5.227-4.481.521.056.78.286.951.75.314.868.454 1.771.408 2.587zm-119.528-16.57c0 .616-.38.995-.897 1.154-3.254 1.043-6.533 2.046-9.797 3.079-.663.213-.652-.073-.582-.568.563-4.176 6.092-7.216 9.87-5.43.909.433 1.433 1.095 1.406 1.765zm6.424 57.33a7.459 7.459 0 01-.389 2.746c-.448 1.319-1.365 2.175-2.754 2.324-1.4.138-2.524-.521-3.154-1.749-1.103-2.175-1.2-4.445-.189-6.678.581-1.265 1.64-1.894 3.078-1.867 1.408.037 2.303.818 2.873 2 .492 1.018.603 2.135.535 3.224zm47.328-1.546c-.679 0-1.357-.046-2.028.022-.902.08-1.197-.152-.956-1.109.446-1.673 1.654-2.789 3.162-2.735 1.581.057 2.819 1.36 3.032 3.144.057.53-.056.708-.586.689-.884-.03-1.74-.011-2.624-.011zm-75.8 3.284c-.2 2.567-1.538 3.87-3.663 3.68-1.089-.11-1.762-.724-1.98-1.783-.209-1.062.283-1.805 1.283-2.13 1.29-.408 2.603-.884 3.935-.994 1.025-.103.152.892.425 1.227zm.981-173.495c.07-.181.173-.303.391-.257-.121.084-.267.173-.391.257zm39.527-4.308c-.281-.07-.317-.281-.281-.516.197.124.502.178.28.516z"/><path d="M192.162 50.419c-.194.019-.262-.084-.251-.265.27-.105.232.122.251.265zm-42.713.343c.048.265.065.511-.254.62-.109-.285.18-.409.254-.62z"/></g><path d="M185.91 94.776c-3.102.008-5.759-2.57-6.21-6.03-.378-2.97 1.614-5.681 4.732-6.39a9.665 9.665 0 012.614-.234c1.576.092 1.79.392 1.276 1.943-.427 1.257-1.098 2.38-1.698 3.562-.16.284-.573.592-.31.922.227.305.664.097 1.018.07 1.352-.09 2.646-.546 4.03-.535.854 0 1.097.227.884 1.132-.846 3.292-3.362 5.552-6.335 5.56zm-28.853-7.484c1.248.235 2.313-.2 3.402-.316.892-.095 2.084-.627 2.617.097.54.754-.181 1.808-.59 2.646-1.459 2.99-4.57 4.43-7.448 3.486-2.892-.954-4.943-4.505-4.362-7.578.497-2.59 2.905-4.584 5.894-4.743 3.116-.17 3.562-.116 2.125 3.154-.468 1.1-1.057 2.127-1.638 3.254z" fill="#B34317"/></g></svg>