<svg width="571" height="200" xmlns="http://www.w3.org/2000/svg"><g fill="none"><path d="M270.449 195.531c-9.17 0-18.33-1.022-26.81-3.058l-2.38-.682h17.648v-10.182h61.775v4.42l-10.185 3.73c-12.547 3.732-26.135 6.106-40.048 5.772zm-40.729-7.466l-10.52-5.092-3.736-2.719 4.75-1.699c1.356-.678 3.056-1.36 4.752-2.375l4.749-4.414v16.298h.005zm-38.015-34.281l-1.693-3.053-1.357-3.054h19.687v3.399c0 .675 0 1.01-.677 1.697 0 0-1.36 1.01-5.434 1.01h-10.526zm46.167-.342l.335-2.377v-24.44c0-9.507-3.734-17.994-10.865-24.436-7.464-6.794-17.649-9.842-28.849-9.842h-13.235v-.34c9.164-24.781 31.564-41.749 49.892-43.45 3.051-.34 17.308 6.789 20.023 7.466 22.072-42.762 67.203-39.705 99.793-15.947 15.608 11.2 24.43 29.87 26.138 50.91v1.7h-3.403c-9.155 0-17.987 2.032-24.777 7.461-5.43 4.418-10.525 10.526-10.18 18.673l.333 1.688v11.881h.343l-1.36 2.377V92.684h-96.382v44.115c0 5.771-.677 10.185-1.698 13.244-.676 1.361-1.36 2.377-1.698 3.05l-.677.338h-3.73v.01h-.003zm35.63 0c1.36-5.431 2.033-11.208 2.033-17.653v-14.94h36.662v32.582h-38.694l85.871-85.872h.34c.682-.339 1.016-1.02.682-1.36-.34-1.692-.682-3.048-1.36-4.748-2.721-5.773-7.133-10.524-12.22-14.597-4.08-3.397-8.488-5.772-13.246-7.807-2.37-1.015-5.09-2.036-7.804-2.719-3.054-.673-5.763-1.356-8.821-1.693-5.102-.34-10.87-.34-15.279 1.358-1.36.337-2.38.677-3.725 1.357-.688.336-1.022 1.022-1.71 1.357-.673.34-.673 1.017-.334 1.362.334.677 1.022 1.013 1.7.677 1.36-1.022 2.72-1.357 4.075-1.699 4.075-1.015 8.821-.671 12.902 0a45.016 45.016 0 019.16 2.035c3.388 1.02 6.789 2.379 10.18 3.737 1.356.68 2.712 1.357 4.075 2.035 0 0 1.011.338 1.356.338.344.34 1.021 1.013 1.704 1.013 1.694 1.365 3.048 2.376 4.748 3.398 2.033 1.698 3.73 3.052 5.43 5.085 1.36 1.365 2.376 2.72 3.397 3.74 1.694 2.034 2.715 4.076 3.731 6.452 0 .334.684.677 1.022.677l-85.874 85.885z" fill="red"/><path d="M273.165 199.264c-2.381 0-5.092 0-7.468-.345-3.73 0-7.462-.334-10.858-.677-15.278-1.7-29.532-6.44-41.413-14.585l-3.05-2.392 4.415-.666 4.75-1.7 1.693 1.017c2.715 1.349 5.435 2.715 8.148 4.07h.337v7.815h29.188v-.344l10.186.688c10.177.332 20.016-1.02 29.525-2.72 4.42-1.022 9.17-2.033 13.58-3.389l8.486-3.402v7.127c-14.6 5.432-30.549 8.82-47.52 9.503zm-85.873-45.48l-3.051-6.11h8.485l1.356 3.058 1.7 3.044h-8.491v.008zm181.93-5.438v-.335h.333l-.333.335zm9.837-55.66v-1.362c-.677-8.15-2.037-15.954-5.086-23.082-1.708-4.747-3.74-9.165-6.46-13.23-2.032-3.06-4.409-5.774-7.118-8.488-1.022-1.358-2.72-2.712-4.081-3.73-.34-.343-.683-.68-1.36-1.02-.334-.34-.334-.34-.684-.68-2.715-1.698-5.085-3.732-8.143-5.432-6.44-4.077-13.578-7.127-21.046-9.165-6.788-2.035-13.916-3.051-21.378-3.051-3.399.336-6.45.68-9.504 1.358-4.08 1.02-7.811 2.034-11.203 3.737-6.795 3.05-12.562 7.463-17.988 12.894-.686 1.018-1.697 2.379-2.719 3.392-2.032 2.72-3.732 5.434-5.435 8.488-.673.68-1.016 1.36-1.36 2.042l-.335.677c0-.343.677-1.02.677-1.36.344-.678.676-1.36 1.017-2.038 1.702-2.72 3.058-5.09 5.1-7.805 1.689-2.035 3.052-4.073 5.085-5.772 8.493-8.821 18.33-13.914 29.869-15.95 2.72-.68 5.096-1.02 7.815-1.02 3.387 0 6.442 0 9.504.34 9.504 1.022 18.321 3.732 26.47 7.468 4.419 2.034 8.488 4.408 12.23 7.127 1.698 1.014 3.058 2.03 4.413 3.052 4.076 3.055 7.804 6.79 10.86 10.517 1.698 2.381 3.397 4.753 4.752 7.129 5.085 9.17 8.487 19.351 9.837 30.554l.344 4.41h-4.073zm-197.197-.339l2.038-5.769c4.408-9.505 11.205-17.997 19.684-25.455 6.792-5.769 14.936-10.187 23.758-12.562 1.701-.335 3.058-.675 4.753-.675 1.019-.336 2.04-.336 3.055-.336h1.02c1.357.336 2.37.676 3.734 1.354L251.107 54c.678.677 1.7 1.022 2.375 1.355.673.338 1.017.338 1.694.677-1.694-.339-3.058-1.012-4.748-1.698-3.742-1.356-7.471-2.71-11.208-3.731-.682-.334-1.36-.334-2.036-.677l-2.037-.334h-.34l-.337.334h-1.021c-1.02.343-2.037.343-2.715.677-4.073 1.021-7.808 2.719-11.2 4.752-8.145 4.42-15.61 11.203-21.043 18.665-3.057 4.075-5.436 8.15-7.809 12.558-.677 2.037-1.356 3.74-2.033 5.772h-6.789l53.286-42.765-53.285 42.762z" fill="red"/><path d="M203.927 85.555c-1.022 0-2.038 0-3.393-.337h-1.7c-.337 0-.337-.338-.337-.338l.679-.334c23.416-14.255 18.666-24.781 29.188-31.91 1.02-.677 2.036-1.698 3.736-2.377.336 0 .336-.675 0-.675-8.15-5.095-17.651-4.753-25.795-1.366-.341.339-.341 0-.341 0l1.7-1.692c8.822-8.142 16.293-10.857 22.4-10.184l2.378.684h.34l2.379 3.733c1.363 2.037 2.712 4.073 3.734 6.11l1.697 5.426h1.02l-.342-1.017c-.339-2.037-1.36-4.41-2.377-6.451-1.021-1.362-1.698-2.715-2.717-4.073l-2.72-4.412-.34-.337-1.017-1.021-2.379-2.715a19.375 19.375 0 00-3.736-3.728c-1.354-1.363-2.714-2.379-4.414-3.055-.673-.682-1.356-1.018-2.375-1.36-.675-.344-1.696-.68-2.714-1.017v-.343h.337l1.36-1.693c1.358-2.376 1.699-6.11 1.017-9.843-.338-2.377-1.356-5.09-2.377-6.79l-1.357-1.697-.333-.346v-.34h.677c1.702.34 3.395 1.017 4.753 2.034 1.014.685 2.034 1.025 2.718 2.041 1.016.673 2.038 1.359 3.052 2.036 1.358 1.356 2.377 2.72 3.734 4.071.68.679 1.362 1.362 1.702 2.038 1.354 1.699 2.714 3.392 3.728 5.09 1.022 1.02 1.694 2.379 2.381 3.394 1.69 2.719 3.399 5.434 4.747 8.148a75.9 75.9 0 013.731 7.472l3.048 8.142-2.027 1.692.337.34c0 .337.34.337.34 0 4.747-5.096 19.008-8.825 28.851-2.039 7.46 5.096 13.92 15.277 18.33 23.422l1.355 2.72s0 .328-.343 0l-1.012-1.36-3.398-4.409c-7.471-7.471-16.966-11.208-28.168-11.546l-5.43.338-7.129 1.022c0 .339 0 0 0 0l-1.36-1.36-2.718-1.354c-2.715-1.02-6.446-.343-9.842 2.715-.336 0-.336.34 0 .34 0 .342.342.342.342.342 4.41-3.393 8.823-3.736 11.872-1.364l1.697 1.698.345 1.02.678 1.7.343.676.334 3.731c0 1.354-.334 2.72-.677 4.075-2.034 7.805-8.478 12.892-15.607 13.235h-1.363c-.34 0-.34-.345-.34-.345l1.018-.677 2.71-3.053c1.7-3.054 2.044-6.108 1.366-8.827-1.011-4.064-4.077-7.462-5.434-7.462 0-.343-.337-.343-.677 0-2.378 3.054-6.451 1.356-10.865 10.526-5.422 10.862-11.536 13.236-19 13.236zm46.84-40.046l-1.359-4.077-1.355-3.396c-.677-1.017-1.026-2.375-1.698-3.391l-1.693-3.392v-.34H245l2.376-3.733c2.032-4.408 3.054-9.503 2.715-14.937l-.345-1.693h.345l.337.34c6.79 6.11 9.504 15.272 8.149 26.809l.334.685h.677l.335-.685c-.335-15.614 19.351-30.207 45.49-25.12 4.414.68 5.763 1.357 7.8 2.72l.68.68s0 .337-.332.337l-1.356-1.021-3.74-1.02c-8.484-1.695-19.008-.337-25.126 3.734-9.498 6.114-12.892 19.014-18.316 23.423l-1.36.677h-3.387l-3.74 1.02-3.73 1.357-2.038 1.023-35.642-23.08c-2.379 0-5.094-4.074-5.77-9.507-1.02-5.77.676-10.52 3.055-10.861 2.378-.337 5.093 3.732 6.112 9.507.676 5.771-.682 10.52-3.055 10.862h-.342l35.642 23.08z" fill="#009846"/><path d="M203.927 86.268c-1.026 0-2.081 0-3.485-.338h-1.608c-.653 0-1.045-.53-1.045-1.042v-.442l1.045-.519c13.992-8.523 17.827-15.76 20.919-21.572 2.101-3.967 3.92-7.394 8.217-10.3.279-.186.561-.4.858-.628.668-.51 1.411-1.08 2.4-1.555-3.869-2.299-8.178-3.46-12.823-3.46-3.89 0-7.832.811-11.712 2.408a.977.977 0 01-.628.252.796.796 0 01-.76-.561 1.05 1.05 0 01-.05-.295v-.284l1.906-1.905c7.544-6.969 14.632-10.488 21.082-10.488.634 0 1.272.037 1.895.108l.115.02 2.128.61-.815-.824-2.408-2.753a13.513 13.513 0 00-.56-.701l-13.691-8.87c-2.834-.22-5.554-4.575-6.249-10.098-.71-4.017-.16-7.995 1.396-10.14.632-.882 1.419-1.409 2.26-1.529.695-.101 1.422.085 2.105.522V1.35l1.522.011c1.916.388 3.65 1.126 5.021 2.158.262.17.531.326.79.476.716.408 1.448.835 2.021 1.626l3.046 2.048c.699.695 1.308 1.395 1.895 2.072.58.658 1.178 1.343 1.835 2 .69.685 1.397 1.392 1.789 2.147 1.319 1.65 2.676 3.349 3.7 5.042.77.784 1.347 1.727 1.853 2.558.197.311.371.61.559.881 1.68 2.692 3.416 5.464 4.781 8.203a77.111 77.111 0 013.76 7.52l2.048 5.449.408.269-.717-2.143-1.32-3.309c-.359-.547-.62-1.155-.87-1.747-.245-.58-.48-1.126-.785-1.584l-.04-.077-1.768-3.539v-1.205h.658l2.14-3.372c2.032-4.421 2.946-9.434 2.63-14.501l-.5-2.499h1.497l.525.534c6.102 5.496 9.012 13.26 8.695 23.134.847-4.207 3.082-8.284 6.513-11.79 6.756-6.912 17.28-10.87 28.852-10.87 3.46 0 7.015.35 10.58 1.045 4.486.693 5.97 1.421 8.059 2.826l.108.087.884.887v.292c0 .517-.387 1.044-1.04 1.044h-.237l-1.443-1.077-3.575-.975c-2.317-.472-4.79-.704-7.363-.704-6.696 0-13.127 1.62-17.202 4.33-5.478 3.518-8.892 9.374-11.901 14.55-2.169 3.722-4.045 6.945-6.372 8.83l-.058.049-.23.118c4.56.15 8.742 1.458 12.13 3.79 6.029 4.108 12.264 12.07 18.548 23.665l1.437 2.886v.172c0 .476-.348.854-.81.854-.373 0-.648-.269-.736-.358l-.07-.078-1.01-1.356-3.368-4.369c-7.168-7.158-16.456-10.958-27.63-11.301l-5.365.335-6.593.942.01.01.383 1.158.658 1.648.392.772.35 3.932c0 1.444-.35 2.868-.702 4.248-2.053 7.869-8.591 13.405-16.26 13.77h-1.39c-.66 0-1.046-.53-1.046-1.051v-.379l1.258-.838 2.602-2.927c1.49-2.715 1.925-5.556 1.252-8.247-.985-3.927-3.87-6.931-4.745-6.931h-.348c-.87.996-1.915 1.492-3.013 2.022-2.116 1.027-4.748 2.298-7.544 8.1-5.983 12-12.976 13.654-19.63 13.654zm-3.358-1.761h.05l.085.02c1.272.322 2.222.322 3.223.322 7.173 0 13.04-2.19 18.373-12.846 3.007-6.235 5.89-7.634 8.205-8.748 1.13-.546 2.02-.978 2.73-1.89l.054-.068c.308-.304.638-.462.972-.462.285 0 .538.127.707.334 1.86.569 4.65 4.055 5.614 7.923.77 3.054.275 6.284-1.424 9.338l-.088.123-2.573 2.896h.01c7.02-.338 13.03-5.444 14.924-12.71.335-1.335.649-2.603.658-3.863l-.323-3.57-.305-.614-.697-1.733-.286-.864-1.551-1.546c-1.168-.899-2.542-1.352-4.069-1.352-2.185 0-4.574.942-6.907 2.74l-.193.145h-.24c-.35 0-.7-.175-.896-.49a.857.857 0 01-.407-.727c0-.392.262-.716.638-.834 2.358-2.072 5.063-3.201 7.636-3.201.983 0 1.915.162 2.779.48l.068.03 2.82 1.413 1.187 1.188 6.834-.972 5.46-.343h.028c11.571.343 21.213 4.3 28.651 11.747l.06.074.278.348c-5.503-9.51-10.931-16.137-16.17-19.706-3.383-2.33-7.614-3.558-12.249-3.558-7.119 0-13 2.743-15.547 5.351-.123.368-.437.62-.83.62-.384 0-.697-.247-.826-.61l-.736-.737 2.25-1.87-.658-1.804-15.004-9.723 1.136 1.137 2.74 4.458c.514.694.947 1.389 1.368 2.06.433.686.836 1.334 1.326 1.987l.069.11c1.324 2.662 2.13 4.814 2.434 6.591l.63 1.9h-2.525l-1.835-5.871c-.992-1.98-2.351-4.015-3.665-5.981l-2.173-3.42h-.053l-2.412-.687c-6.37-.684-13.556 2.549-21.312 9.566 3.25-1.07 6.531-1.607 9.784-1.607 5.062 0 9.757 1.317 13.954 3.903.418.122.704.515.704 1.01 0 .536-.327.948-.785 1.032-1.08.442-1.853 1.04-2.601 1.605-.32.235-.609.461-.92.668-4.002 2.715-5.743 5.995-7.757 9.79-3.09 5.826-6.914 13.042-20.422 21.498zm49.31-38.733l.109.279c.05-.037.104-.07.157-.106l-.265-.173zm-2.911-11.486c.358.554.628 1.178.883 1.777.252.577.485 1.128.787 1.582l.067.13 1.37 3.435 1.103 3.302 1.38-.688 3.79-1.375 3.82-1.046h3.324l1.144-.571c2.091-1.737 3.892-4.82 5.97-8.395 3.091-5.304 6.606-11.316 12.35-15.015 4.28-2.852 11.008-4.56 17.978-4.56.775 0 1.551.02 2.317.058a54.06 54.06 0 00-8.292-.664c-11.197 0-21.354 3.806-27.848 10.447-4.292 4.388-6.599 9.713-6.481 14.98v.176l-.61 1.22h-1.55l-.628-1.257.02-.21c1.292-10.948-1.09-19.49-7.074-25.41.328 5.334-.629 10.61-2.779 15.273l-.044.084-2.445 3.847 1.448 2.88zm-17.425-3.368l17.508 11.338-1.36-3.631c-.99-2.318-2.34-5.018-3.676-7.363l-.024-.032c-1.34-2.687-3.059-5.432-4.718-8.087-.178-.265-.368-.584-.569-.91-.504-.828-1.027-1.68-1.707-2.357l-.063-.071-.052-.07c-.994-1.659-2.356-3.363-3.68-5.011l-.079-.129c-.288-.577-.935-1.23-1.565-1.854-.699-.694-1.308-1.39-1.901-2.07a34.477 34.477 0 00-1.785-1.951l-3.108-2.083-.083-.115c-.397-.592-.965-.923-1.631-1.3-.29-.16-.581-.332-.884-.533l-.028-.025c-.983-.734-2.234-1.328-3.585-1.698l.88 1.113c1.147 1.91 2.136 4.74 2.468 7.049.723 3.96.311 7.817-1.104 10.296l-.066.083-1.008 1.265c.653.226 1.27.457 1.747.687.977.332 1.75.69 2.504 1.415 1.588.658 2.983 1.623 4.484 3.12a20.984 20.984 0 013.085 2.924zM212.691 2.747c-.063 0-.123 0-.183.014-.574.084-1.031.562-1.313.955-1.02 1.407-1.931 4.63-1.146 9.088l.004.031c.652 5.234 3.198 8.88 5.069 8.88h.278c1.707-.31 3.073-4.387 2.408-10.053-.967-5.498-3.41-8.915-5.117-8.915z" fill="#393185"/><path d="M204.264 86.578c-2.379 0-4.75 0-7.47-.34-.68-.343-1.016-1.022-.339-1.36 23.76-13.239 20.707-24.094 29.195-31.564l1.357-1.36-1.022-1.016c-3.05-2.381-9.843-2.72-15.278-2.381l-2.712.338-1.357.678c-1.02.343-2.377 1.02-3.058 1.365a.752.752 0 01-1.02-1.022c10.522-11.202 19.691-15.27 27.493-14.592l1.362.344-2.376-3.054a19.327 19.327 0 00-3.736-3.734c-1.022-1.016-2.379-2.034-3.737-3.05-2.035-1.362-4.41-2.042-6.443-2.379-3.057 0-5.772-4.75-6.792-10.183-.68-5.767.681-11.537 4.078-12.222.34 0 .676 0 1.018.34v-.345c3.737.68 7.808 2.72 10.865 4.75 1.693 1.016 3.05 2.378 4.408 3.736a27.3 27.3 0 014.415 4.408c2.378 2.379 4.415 5.095 6.11 7.808l5.091 8.148 2.376-3.734c2.042-5.088 2.72-10.86 2.042-16.972-.334-.336.339-1.016 1.016-.336 6.112 4.75 9.51 11.536 10.188 20.021v2.04l.343-.676c4.747-13.242 23.073-23.085 45.135-19.007 6.107 1.357 7.461 2.378 10.858 4.753 0 .335.335.675 0 1.013-.338.34-.686.34-1.02 0l-.335-.336-5.43-1.02c-13.917-2.034-26.475 2.036-32.582 18.328-1.704 4.753-4.07 7.13-7.133 8.149h-.333l4.074 1.356c1.36.345 2.719 1.02 4.074 2.042 10.526 7.126 17.99 23.081 22.738 31.564 0 .335 0 .677-.332.677h-.679l-.686-1.02-4.07-4.753c-5.77-5.426-12.22-9.161-19.682-10.177-6.45-1.36-12.224.338-17.31 3.392l-4.075 2.72v1.354c-2.715 9.505-11.542 15.277-20.362 13.913-.34 0-.68-1.01-.34-1.355 6.452-4.074 7.135-8.488 6.113-12.223-1.02-3.392-3.397-6.108-4.074-6.785h-.337l-1.02.677c-2.374 2.036-5.772 1.355-9.507 9.504-5.446 10.858-12.239 13.578-19.702 13.578zm-.337-1.36c7.464.337 13.578-2.037 19.007-12.896 4.408-9.16 8.485-7.806 10.865-10.52.339-.34.68-.34.68-.34 1.353.34 4.416 3.731 5.771 7.806.677 3.73.334 8.148-4.418 12.218l-.675.338 1.36.345c6.786-.345 13.575-5.44 15.611-13.24.34-1.36.679-2.72.679-4.08l-.34-3.726-.339-.682-.677-1.36-.677-1.016-1.365-1.693c-3.048-2.377-7.462-2.377-11.536 1.021-.334.338-.677.338-1.019 0 0-.338 0-.682.34-1.021 4.748-3.737 9.505-3.737 12.898-1.017l1.015 1.354 7.128-1.02c15.268-1.694 28.17 3.392 37.334 15.611l1.016 1.366-1.355-2.72c-4.76-8.15-10.868-18.331-18.33-23.422-9.843-6.447-24.104-2.712-28.514 2.381-.337.34-.677.34-1.016 0v-1.017l1.692-1.362-2.719-7.806c-1.355-2.715-2.377-5.43-3.73-7.802-1.694-2.715-3.054-5.43-4.754-7.806-.675-1.362-1.355-2.378-2.375-3.736-1.02-1.694-2.379-3.052-3.729-4.749-.68-1.018-1.362-1.693-2.043-2.378-1.02-1.357-2.378-2.379-3.392-3.731-1.016-1.02-2.038-1.7-3.051-2.376-.685-.685-1.701-1.364-2.72-1.699-1.363-1.016-3.05-1.697-4.753-2.038h-.34l.34.34c1.701 1.698 3.051 5.09 3.736 8.487.677 5.094-.341 10.182-2.718 11.88.685.337 1.697.337 2.718 1.016.677.337 1.363.679 2.379 1.018 1.363 1.018 2.719 2.038 4.07 3.396 1.36 1.013 2.715 2.376 4.073 3.732.68.68 1.701 1.696 2.378 2.715l1.022 1.02v.333l3.057 4.077c1.015 1.693 1.693 3.051 2.38 4.408 1.356 2.038 2.033 4.414 2.71 6.451 0 .338.338.677.338 1.017l-1.36.343c-.333-2.033-1.02-3.731-2.033-5.433-1.015-2.378-2.032-4.41-3.393-6.45l-2.379-3.733-2.72-.34c-6.108-.675-13.235 2.038-22.057 9.845l-1.696 1.692c8.144-3.392 17.988-4.069 26.131 1.366.342 0 .342.676-.336 1.02-1.357.677-2.715 1.354-3.737 2.033-9.843 6.785-6.106 18.33-28.848 31.91l-.681.672h1.7c1.36-.002 2.375-.002 3.397-.002zm46.84-39.709l2.028-1.021c2.043-1.02 4.75-2.037 7.81-2.379l3.048-.336 1.365-.681c4.741-4.073 9.16-17.31 18.321-23.081 6.795-4.75 19.697-6.107 28.857-2.715l1.697.68-.686-.345c-2.033-1.354-3.388-2.034-7.8-3.055-26.137-4.75-45.484 9.843-45.14 25.12 0 .684-.344.684-.682.684h-.677c-.34 0-.34-.344-.34-.684 1.023-11.542-1.353-20.365-8.137-26.81l-.345-.34v1.693c.683 7.129-1.363 13.915-5.095 18.67v.337l1.698 3.393c.334 1.02 1.022 2.379 1.699 3.393.335 1.357.673 2.379 1.35 3.394l1.03 4.083-35.642-23.08s.336 0 .336-.341c2.379-.337 3.737-4.749 2.72-10.52-.677-5.77-3.393-9.507-5.771-9.165-2.037.34-3.735 4.75-2.715 10.52.678 5.434 3.393 9.166 5.435 9.507l35.637 23.08z" fill="#009846"/><path d="M204.264 87.285c-2.36 0-4.796 0-7.556-.349l-.119-.009-.105-.054c-.681-.34-1.098-.914-1.098-1.492 0-.472.278-.895.756-1.131 15.407-8.581 19.438-16.268 22.681-22.435 1.723-3.279 3.354-6.372 6.346-9.012l.84-.84-.483-.491c-1.957-1.498-5.964-2.313-11.302-2.313-1.127 0-2.278.034-3.443.109l-2.573.318-1.343.664c-.97.323-2.31.99-2.96 1.316a1.478 1.478 0 01-1.916-.52 1.47 1.47 0 01-.05-1.443l.045-.099.071-.069c9.279-9.882 18.142-14.894 26.348-14.894.428 0 .86.014 1.286.043l-1.203-1.542a18.762 18.762 0 00-2.678-2.862l-8.551-5.54a18.681 18.681 0 00-2.187-.491c-3.73-.061-6.46-5.602-7.425-10.758l-.006-.045c-.688-5.86.685-12.201 4.637-12.997l.14-.01c.096 0 .202 0 .312.006v-.15l.834.15c4.765.866 9.37 3.69 11.124 4.862 1.737 1.04 3.138 2.438 4.495 3.796a27.863 27.863 0 014.47 4.47c2.203 2.207 4.283 4.865 6.179 7.901l4.497 7.195 1.738-2.73c1.96-4.92 2.627-10.436 1.99-16.393a1.025 1.025 0 01-.036-.86c.176-.437.638-.728 1.14-.728.264 0 .667.081 1.068.464 5.966 4.648 9.437 11.201 10.32 19.462 2.34-4.815 6.499-9.134 11.92-12.315 6.538-3.842 14.482-5.872 22.975-5.872 3.323 0 6.727.318 10.112.94 6.137 1.368 7.63 2.414 10.908 4.717l.526.36v.368c0 .004.024.068.043.11.078.26.285.87-.251 1.408-.62.614-1.408.614-2.016 0l-.178-.192-5.233-.976c-2.13-.31-4.231-.47-6.211-.47-12.406 0-21.016 6.177-25.577 18.353-1.399 3.92-3.32 6.476-5.954 7.876l2.09.704c1.434.362 2.877 1.08 4.29 2.136 9.152 6.208 15.85 18.662 20.747 27.755a266.743 266.743 0 002.2 4.045l.093.157v.186c0 1.15-.565 1.384-1.042 1.384h-1.065l-.863-1.296-4.018-4.688c-6.155-5.777-12.46-9.043-19.263-9.97l-.06-.01a20.875 20.875 0 00-4.339-.45c-4.158 0-8.226 1.232-12.458 3.77l-3.732 2.485v1.08l-.02.087c-2.464 8.615-10.064 14.63-18.474 14.63-.882 0-1.773-.06-2.647-.207-.403-.02-.745-.324-.95-.824-.21-.506-.288-1.268.186-1.74l.055-.053.067-.038c5.127-3.235 7.016-6.977 5.804-11.434-.8-2.67-2.593-5.07-3.63-6.195l-.698.467c-.704.594-1.458.956-2.253 1.36-2.07 1.013-4.412 2.16-7.032 7.87-4.848 9.672-11.111 13.983-20.335 13.983zm-7.245-1.738c.146.02.293.029.427.057l1.11-1.108c-.542.319-1.1.63-1.672.951a.6.6 0 00.135.1zm3.901-1.04h3.007c.466.02.89.038 1.301.038 7.667 0 12.618-3.633 17.07-12.542 3.103-6.437 6.055-7.86 8.428-9.004 1.046-.506 1.87-.908 2.538-1.67l.03-.033c.524-.522 1.074-.545 1.183-.545h.088l.085.025c1.774.442 4.899 4.154 6.274 8.267l.02.104c.894 4.885-.408 8.92-3.98 12.288 6.75-.565 12.67-5.715 14.486-12.676.328-1.34.647-2.606.647-3.868l-.319-3.564-.947-1.88-.627-.956-1.292-1.611a7.133 7.133 0 00-4.355-1.464c-2.09 0-4.231.864-6.215 2.504-.606.59-1.385.58-1.988-.02l-.204-.216v-.29c0-.387 0-.976.542-1.517l.063-.06c2.579-2.022 5.317-3.093 7.914-3.093 2.136 0 4.158.717 5.862 2.081l.073.06.819 1.09 6.72-.952a51.257 51.257 0 015.685-.325c11.37 0 20.934 3.942 28.504 11.738-4.06-6.765-9.494-14.978-15.828-19.293-3.29-2.158-7.412-3.301-11.913-3.301-5.063 0-9.632 1.412-12.71 3.22l.01.047-.055-.042c-1.232.734-2.233 1.529-2.922 2.31l-.029.044c-.619.614-1.405.614-2.024 0l-.206-.21v-1.645l1.576-1.257-.701-2.03-13.69-8.873.318.322v.397l2.953 3.948c1.021 1.702 1.713 3.085 2.386 4.423 1.222 1.86 1.915 3.96 2.523 5.815.08.264.162.52.246.76l.029.113v.108c.01.014.064.117.098.196.108.216.245.486.245.825v.549l-2.631.658-.127-.757c-.314-1.86-.912-3.455-1.944-5.182l-.048-.087c-1.124-2.619-2.118-4.513-3.331-6.332l-2.206-3.469-2.385-.297a16.106 16.106 0 00-1.727-.096c-5.68 0-11.919 2.993-19.047 9.13 3.238-1.01 6.515-1.537 9.647-1.537 5.138 0 9.804 1.35 13.865 4.032a.941.941 0 01.63.688c.115.511-.12 1.227-.926 1.63-1.313.657-2.674 1.34-3.66 1.993-3.664 2.529-5.409 5.822-7.434 9.631-3.187 6.038-7.141 13.5-20.394 21.66zm32.47-1.999c.737.104 1.487.16 2.23.16l-2.058-.509a3.6 3.6 0 01-.221.141c.009.065.028.145.048.208zm3.892-3.51a16.583 16.583 0 01-2.209 2.07l.363-.175A14.451 14.451 0 00237.282 79zm59-6.078l2.626 3.058c-.457-.83-.93-1.713-1.419-2.627-.146-.294-.313-.589-.477-.883l-.73.452zm-21.306-11.816c6.823.938 13.127 4.09 19.254 9.618-7.708-9.72-17.929-14.64-30.408-14.64a50.83 50.83 0 00-5.513.314l-7.158 1.022.207.255.722 1.099 1.08 2.155.348 3.931c0 .796-.103 1.581-.26 2.362l3.918-2.616c4.477-2.69 8.798-3.986 13.206-3.986 1.53 0 3.08.166 4.604.486zm-60.758-13.363c4.02 0 9.4.456 12.198 2.636l.07.058 1.52 1.518-.215.216c.054-.04.114-.084.174-.123 1.057-.707 2.444-1.399 3.792-2.072-3.792-2.444-8.135-3.68-12.912-3.68-3.34 0-6.856.628-10.295 1.826l2.116-.267a60.044 60.044 0 013.552-.112zm-11.03 2.548v.01c.004.01-.01.048.08 0 .668-.335 2.04-1.022 3.1-1.384l.177-.09-.745-1.114 1.46-1.457a87.012 87.012 0 00-4.072 4.035zm35.989-3.407c.084.145.168.292.251.432a18.556 18.556 0 00-.564-1.152c.098.231.206.472.313.72zm10.285-1.378l.388 1.13c.216-.156.431-.304.662-.452l-1.05-.678zm-33.836-5.585c-2.264 1.343-4.561 3.022-6.898 5.038 2.381-2.022 4.679-3.702 6.898-5.038zm30.096-8.793l1.633 3.294c.325.965.972 2.256 1.62 3.229l.07.105.028.115c.324 1.296.64 2.236 1.262 3.172l.074.105.834 3.338 1.248-.629c1.816-.91 4.693-2.071 8.041-2.446l2.926-.317 1.162-.585c1.744-1.53 3.472-4.384 5.475-7.693 3.171-5.242 7.119-11.768 12.862-15.386 4.232-2.958 10.88-4.723 17.79-4.723.227 0 .453 0 .68.013a51.833 51.833 0 00-5.912-.338c-11.34 0-21.581 3.83-28.11 10.517-4.26 4.352-6.55 9.607-6.43 14.794 0 .643-.239 1.395-1.386 1.395h-.68c-.478 0-1.043-.235-1.043-1.38v-.07c.987-11.24-1.257-19.343-7.074-25.386.649 6.964-1.196 13.819-5.07 18.876zm2.983 12.206l.937.61-.554-2.222c-.668-1.036-1.026-2.082-1.36-3.394-.677-1.046-1.34-2.37-1.689-3.415l-1.753-3.497v-.232l-5.659-9.06c-1.85-2.956-3.877-5.538-6.012-7.68l-.051-.06c-.27-.337-.537-.664-.814-.971.19.244.385.504.577.79.418.518.835 1.008 1.242 1.483.915 1.075 1.78 2.097 2.51 3.292.944 1.256 1.672 2.339 2.4 3.76 1.04 1.468 1.933 3.032 2.886 4.68a117.71 117.71 0 001.851 3.123c.84 1.464 1.518 2.98 2.234 4.588.485 1.073.981 2.182 1.531 3.28l.04.086 1.684 4.84zm15.877-.935c1.615 0 3.196.135 4.709.412l-.08-.025.221-1.38h.222c2.996-1.034 5.087-3.477 6.578-7.676 4.802-12.793 13.853-19.278 26.913-19.278 1.178 0 2.405.057 3.663.168a36.817 36.817 0 00-6.05-.494c-6.636 0-13 1.675-16.994 4.475l-.03.02c-5.47 3.443-9.161 9.546-12.426 14.931-2.086 3.451-3.893 6.434-5.827 8.088l-.06.054-1.422.713c.19-.008.392-.008.583-.008zm-34.56-11.171l16.755 10.85-1.074-3.088c-.556-1.11-1.052-2.216-1.537-3.288-.702-1.573-1.375-3.06-2.16-4.443a93.784 93.784 0 01-1.857-3.137c-.948-1.639-1.835-3.182-2.857-4.61l-.06-.09c-.68-1.366-1.363-2.369-2.308-3.625l-.042-.059c-.663-1.116-1.502-2.09-2.387-3.132a71.794 71.794 0 01-1.294-1.543l-.033-.052c-.638-.955-1.276-1.593-1.946-2.266l-.064-.075c-.478-.638-1.042-1.196-1.634-1.79-.588-.594-1.196-1.2-1.727-1.9-.96-.95-1.913-1.582-2.917-2.258l-.106-.09c-.658-.664-1.588-1.248-2.439-1.527l-.112-.029-.09-.07c-.784-.59-1.728-1.076-2.764-1.445 1.228 1.837 2.258 4.515 2.862 7.526l.005.045c.644 4.842-.195 9.366-2.066 11.658.518.135 1.115.321 1.718.724.662.333 1.292.643 2.25.96l.105.033.096.072c1.346 1.004 2.73 2.045 4.112 3.422 1.222.925 2.43 2.096 3.57 3.227zm29.263 6.446h.276c-.045-2.163.294-4.327.99-6.446l-1.089-.26c.084 2.12.03 4.353-.177 6.706zm-46.57-34.584a1.53 1.53 0 00-.201.013c-.337.056-.725.357-1.07.845-.968 1.362-1.816 4.504-1.05 8.857l.005.03c.601 4.802 2.792 7.968 4.36 8.73v-.09l.605-.085c.447-.064.858-.352 1.227-.86 1.2-1.654 1.554-5.127.898-8.84l-.004-.042c-.63-5.287-2.967-8.558-4.77-8.558zM314.023 15.77l.982.187c-.285-.196-.55-.383-.816-.561l-.166.374zm-.447-.744l.246.125a26.588 26.588 0 00-1.3-.8c.342.211.686.431 1.054.675z" fill="#393185"/><path d="M229.72 191.792v-20.019l-4.75 4.413c-6.11 4.07-13.573 5.77-21.38 5.77h-33.605c-18.328 0-31.565-7.138-36.994-20.374l-1.356-4.747-.678 3.403c-2.037 4.754-5.09 8.816-9.164 12.553-8.144 6.789-20.024 9.164-33.26 9.164h-42.77c-13.916 0-26.472-2.72-34.622-10.525C2.997 163.28.28 151.068.28 137.15v-28.165c0-13.578 2.715-26.136 10.86-34.285 8.485-8.145 20.706-10.86 34.621-10.86h42.77c12.557 0 24.098 2.376 32.242 8.828 8.826 6.783 12.895 16.97 12.895 28.504v9.846h-29.866v-9.846c0-4.079-1.022-5.09-1.694-5.431-1.356-1.022-5.093-2.715-13.578-2.715H46.104c-9.508 0-12.9 2.032-13.578 2.715-.679.677-2.715 3.736-2.715 13.233v28.176c0 9.164 2.036 12.219 2.715 12.562.678.679 4.071 2.711 13.578 2.711h42.427c8.485 0 12.222-1.355 13.578-2.377.337-.334 1.694-1.697 1.694-5.769v-9.842h26.478v-6.794c0-9.505 3.728-17.645 10.52-24.427 7.808-7.472 17.652-10.864 28.85-10.864h28.852c11.2 0 21.383 3.047 28.851 9.842 7.127 6.442 10.86 14.932 10.86 24.436v24.44l-.333 2.377h3.73l.678-.345c.338-.677 1.02-1.693 1.697-3.043 1.022-3.06 1.7-7.472 1.7-13.252V92.688h96.392v42.089l1.36-2.381h-.338v-11.874l-.34-1.699c-.333-8.147 4.752-14.247 10.186-18.669 6.79-5.424 15.607-7.466 24.773-7.466h30.549c10.18 0 20.018 2.38 26.813 9.508 4.754 4.749 7.462 10.86 8.483 17.645l.34 6.121V92.7h33.603l29.534 49.547L536.564 92.7h34.28l-.328 88.919h-30.21v-40.732l-24.438 40.732h-17.652l-24.439-40.732v40.732h-59.39v-.35l-2.72.346h-39.032c-6.447 0-12.558-1.011-17.988-3.388l-4.747-2.387v15.956h-29.196v-10.181h-61.796v10.18H229.72v-.002zm26.14-3.054v-10.515h68.222v10.515h22.734v-21.04l.684 1.355c1.015 1.365 2.376 2.72 4.069 3.736 5.44 4.07 12.901 5.434 21.05 5.434h39.034l6.112-.687v.687h23.082V126.97c0-8.83-2.38-16.966-8.148-22.396-5.77-6.12-14.596-8.493-24.434-8.493h-30.55c-8.82 0-16.633 2.035-22.738 6.785-4.41 3.399-8.14 7.807-8.827 13.235l.34 3.733v9.173h3.736c-5.096 4.41-7.468 10.177-7.468 16.628v8.488l.34 2.715h-4.409V96.08h-89.616v40.723c0 6.123-.673 10.87-2.043 14.262-.677 1.699-1.35 3.054-2.372 4.075l-2.036 1.698h-8.486l.338-.677c.337-1.697.337-3.397.337-5.096v-24.439c0-8.486-3.052-16.297-9.503-21.72-6.786-6.452-15.954-9.166-26.813-9.166h-28.852c-10.52 0-19.685 3.054-26.475 9.841-6.446 6.113-9.507 13.573-9.507 22.057v18.34c0 21.374 13.575 32.578 36.319 32.578h33.606c9.84 0 18.329-2.72 24.44-9.51 1.016-1.36 2.03-2.371 3.051-4.069l2.035-4.075v27.825h22.747v.01zM88.526 178.557c12.895 0 24.099-2.376 31.222-8.488 7.47-6.108 10.52-15.268 10.52-25.793v-6.45h-23.083v6.45c0 4.748-1.356 7.128-3.05 8.488-2.036 1.355-6.793 2.72-15.614 2.72H46.095c-9.507 0-14.257-1.71-15.954-3.407-1.698-1.355-3.398-5.43-3.398-14.934v-28.16c0-9.507 1.699-13.92 3.398-15.62 1.697-1.7 6.45-3.389 15.954-3.389h42.427c8.821 0 13.578 1.356 15.95 3.388 1.358 1.022 2.714 3.399 2.714 7.807v6.447h23.083v-6.447c0-23.08-15.954-34.277-41.747-34.277h-42.77c-13.572 0-24.779 2.72-32.243 10.181-7.128 7.123-9.843 18.666-9.843 31.91v28.168c0 13.58 2.715 24.781 9.843 31.904 7.129 6.79 18.67 9.511 32.244 9.511h42.774v-.01zm381.845-.334v-49.216l29.523 49.216h14.258l29.532-49.216v49.216h23.072V96.081h-28.502l-31.223 52.608-31.23-52.608H447.29v82.142h23.083zm-301.067-21.042c-5.09 0-7.805-1.366-9.163-2.719-2.037-1.362-3.395-4.41-3.395-9.848v-.336h54.987v6.796c0 1.698-.679 3.048-2.035 4.075-.68 1.01-3.052 2.032-7.47 2.032h-32.924zm99.788-.347l1.356-4.07c1.354-5.096 1.694-10.87 1.694-16.976V117.46h43.44v39.366h-46.49v.007zm105.558-.338c-5.43 0-7.46-1.012-8.137-1.357 0 0-.338 0-.338-2.042v-7.119l.338-.687h.677c1.012-.333 3.393-1.017 7.46-1.017h34.281c4.414 0 6.452 1.017 7.467 1.704.333.677 1.355 1.357 1.355 4.41 0 5.096-2.71 6.108-8.822 6.108h-34.28zm-172.423-2.712c4.075 0 5.434-1.02 5.434-1.02.677-.684.677-1.022.677-1.7v-3.391h-48.194c.682 2.715 1.358 3.731 2.035 4.407.68.684 2.715 1.704 7.128 1.704h32.92zm109.979-.342v-32.588h-36.661V135.8c0 6.44-.677 12.212-2.042 17.643h38.703v-.001zm96.725-.345c3.05 0 4.414-.333 5.092-.677v-.34c.344-.338.344-1.015.344-1.692 0-.679 0-1.365-.344-1.365v-.677c-.678-.335-2.032-.68-5.092-.68h-34.28c-2.382 0-3.73 0-5.091.335h-.34v4.752h.683c1.018.335 2.372.335 4.747.335h34.281v.01zm8.479-29.524l-5.764-.688H369.9v-2.711l.333-.342 1.02-.673c1.356-.682 4.42-1.694 9.166-1.694h26.814c4.748 0 7.129 1.355 8.479 2.367.686.687 1.02 1.364 1.365 2.387l.335 1.354-259.307-.688 1.693-2.71c1.696-1.698 4.417-3.055 8.149-3.055h31.566c4.75 0 7.464 1.366 9.164 3.054l1.698 2.711h-52.271l259.308.688z" fill="#393185"/><path d="M45.758 174.149c-13.238 0-23.081-2.713-29.188-8.484-5.77-5.765-8.485-15.273-8.485-28.514v-28.169c0-12.902 2.715-22.744 8.822-28.855 5.77-6.108 15.948-8.828 28.851-8.828h42.769c24.099 0 37.334 9.848 37.334 29.87v2.042h-14.257v-2.042c0-5.431-1.693-9.162-4.413-11.205-3.392-3.053-9.507-4.409-18.665-4.409H46.099c-9.844 0-15.952 1.7-19.008 4.75-3.057 2.72-4.75 8.82-4.75 18.667v28.175c0 9.504 1.693 15.273 4.75 18.335 3.05 2.71 9.16 4.75 19.008 4.75h42.428c8.822 0 14.934-1.705 17.988-4.082 3.051-2.381 5.09-6.108 5.09-11.881v-2.037h14.257v2.037c0 9.845-2.72 17.31-9.167 22.405-5.767 5.094-15.61 7.462-28.172 7.462H45.758v.013zm124.227 0c-21.043 0-31.907-9.504-31.907-28.17v-18.332c0-7.127 2.715-13.578 8.149-19.008 6.112-5.769 13.915-8.486 23.42-8.486H198.5c10.18 0 17.987 2.38 23.763 7.81 5.43 5.091 8.143 11.202 8.143 18.664v13.242h-78.07v4.747c0 6.45 1.695 10.525 4.75 13.234 2.715 2.393 6.446 3.743 12.216 3.743h32.923c5.092 0 8.487-1.355 10.526-3.054 2.378-2.032 3.393-4.415 3.393-7.46v-3.741h14.252v3.74c0 5.763-2.036 10.857-5.764 14.934-4.753 5.429-11.881 8.149-21.051 8.149h-33.594v-.012zm45.82-46.844v-1.7c-.678-3.386-2.036-6.108-4.078-8.487-2.715-2.715-6.784-4.41-12.213-4.41h-31.567c-4.748 0-8.485 1.695-11.205 4.41-2.035 2.38-3.734 5.1-4.078 8.487v1.7h63.14z" fill="#E31E24"/><path d="M237.527 184.324v-23.078h6.785l2.038-1.355c2.036-1.7 3.735-4.08 4.746-7.127 1.366-4.418 2.382-9.505 2.382-15.964v-36.31h80.781v60.753h8.15v23.077h-13.923v-10.519h-77.045v10.52h-13.914v.003zm82.485-23.078v-48.199h-52.278v22.74c0 6.108-.338 11.204-1.699 15.612-.671 3.397-1.692 6.11-3.049 8.139l-1.02 1.704h58.046v.004zm52.598 12.558c-7.805 0-14.257-1.355-18.665-4.753-4.42-3.043-6.786-8.482-6.786-14.933v-8.484c0-5.43 2.033-9.846 6.109-13.245 4.074-3.388 10.175-5.092 17.652-5.092h40.727c3.737 0 6.792.684 9.504 1.704l1.02.673v-4.41c0-3.725-1.36-6.445-3.397-8.476-2.377-2.387-6.11-3.742-11.536-3.742h-26.814c-7.133 0-11.204 1.704-13.58 4.074-.333 0-.678.345-.678 1.018l-.686 2.036v4.41h-14.588v-4.752l-.334-3.044c.677-3.737 3.049-7.468 7.127-10.524 5.087-4.076 11.876-5.765 20.02-5.765h30.55c9.154 0 16.637 2.032 21.379 7.123 4.751 4.419 6.793 10.863 6.793 19.356v46.829H422.17v-3.049l-2.03 1.356c-2.722 1.02-5.432 1.697-8.49 1.697h-39.043v-.007h.002zm36.322-12.89c9.161 0 13.241-3.733 13.241-10.526 0-3.737-1.36-6.112-3.049-7.816-2.038-1.688-5.433-2.71-10.186-2.71h-34.276c-6.108 0-9.508 1.022-10.86 2.033-1.364 1.021-2.036 2.72-2.036 6.116v5.086c0 2.72.676 4.42 2.037 5.434 1.689 1.36 5.43 2.383 10.86 2.383h34.27zm42.773 12.89v-73.308h21.376l33.608 56.685 33.942-56.685h21.719v73.308h-14.255v-60.757l-36.665 60.757h-9.16l-36.317-60.757v60.757z" fill="red"/></g></svg>