<svg width="136" height="40" viewBox="0 0 136 40" fill="none" xmlns="http://www.w3.org/2000/svg">
<path fill-rule="evenodd" clip-rule="evenodd" d="M130.961 40H5.03889C2.26175 40 0 37.7456 0 35V5C0 2.24439 2.26175 0 5.03889 0H130.961C133.736 0 136 2.24439 136 5V35C136 37.7456 133.736 40 130.961 40Z" fill="#221F1F"/>
<path d="M71.6455 13.232C70.7373 13.232 69.9717 12.9153 69.3662 12.2918C68.7658 11.6858 68.4305 10.8504 68.4455 9.99755C68.4455 9.08732 68.7558 8.31675 69.3662 7.70577C69.9692 7.08233 70.7348 6.76562 71.643 6.76562C72.5412 6.76562 73.3068 7.08233 73.9223 7.70577C74.5327 8.3367 74.843 9.10727 74.843 9.99755C74.833 10.9103 74.5227 11.6808 73.9223 12.2893C73.3193 12.9177 72.5537 13.232 71.6455 13.232ZM44.6221 13.232C43.734 13.232 42.9634 12.9202 42.3329 12.3043C41.7074 11.6908 41.3896 10.9153 41.3896 10C41.3896 9.08483 41.7074 8.30927 42.3329 7.6958C42.9509 7.07984 43.7214 6.76812 44.6221 6.76812C45.0625 6.76812 45.4903 6.8554 45.9006 7.03246C46.3034 7.20453 46.6312 7.43894 46.8739 7.72572L46.9339 7.79804L46.2559 8.46139L46.1859 8.37909C45.8031 7.92523 45.2902 7.70328 44.6121 7.70328C44.0067 7.70328 43.4788 7.91774 43.0434 8.34169C42.6056 8.76812 42.3829 9.32672 42.3829 10.0025C42.3829 10.6783 42.6056 11.2369 43.0434 11.6634C43.4788 12.0873 44.0067 12.3018 44.6121 12.3018C45.2576 12.3018 45.8006 12.0873 46.2234 11.6634C46.4736 11.414 46.6287 11.0649 46.6837 10.6235H44.5096V9.69081H47.617L47.6295 9.7756C47.652 9.93271 47.6745 10.0948 47.6745 10.2444C47.6745 11.1048 47.4143 11.8005 46.8989 12.3143C46.3134 12.9227 45.5479 13.232 44.6221 13.232ZM80.5524 13.0998H79.5941L76.6594 8.41899L76.6844 9.26188V13.0973H75.7262V6.90029H76.8195L76.8495 6.94767L79.6092 11.3566L79.5841 10.5162V6.90029H80.5524V13.0998ZM64.445 13.0998H63.4742V7.83296H61.7904V6.90029H66.1262V7.83296H64.4424V13.0998H64.445ZM60.9998 13.0998H60.0315V6.90029H60.9998V13.0998ZM55.5581 13.0998H54.5898V7.83296H52.906V6.90029H57.2419V7.83296H55.5581V13.0998ZM52.2931 13.0898H48.5802V6.90029H52.2931V7.83296H49.5509V9.5337H52.0254V10.4564H49.5509V12.1571H52.2931V13.0898ZM70.0768 11.6509C70.5096 12.0823 71.035 12.2993 71.6455 12.2993C72.2735 12.2993 72.7864 12.0873 73.2142 11.6509C73.6395 11.227 73.8547 10.6709 73.8547 10C73.8547 9.32922 73.6395 8.77061 73.2167 8.34917C72.7839 7.91774 72.256 7.70079 71.648 7.70079C71.02 7.70079 70.5071 7.91276 70.0818 8.34917C69.6565 8.77311 69.4413 9.32922 69.4413 10C69.4413 10.6709 69.654 11.2295 70.0768 11.6509Z" fill="white"/>
<path fill-rule="evenodd" clip-rule="evenodd" d="M68.3553 21.7557C65.9909 21.7557 64.0744 23.5437 64.0744 26.01C64.0744 28.4539 66.0034 30.2644 68.3553 30.2644C70.7196 30.2644 72.6361 28.4639 72.6361 26.01C72.6361 23.5437 70.7196 21.7557 68.3553 21.7557ZM68.3553 28.5786C67.0618 28.5786 65.9484 27.5113 65.9484 26.0001C65.9484 24.4664 67.0643 23.4215 68.3553 23.4215C69.6488 23.4215 70.7621 24.4664 70.7621 26.0001C70.7646 27.5212 69.6488 28.5786 68.3553 28.5786ZM59.0155 21.7557C56.6512 21.7557 54.7347 23.5437 54.7347 26.01C54.7347 28.4539 56.6637 30.2644 59.0155 30.2644C61.3799 30.2644 63.2963 28.4639 63.2963 26.01C63.2963 23.5437 61.3774 21.7557 59.0155 21.7557ZM59.0155 28.5786C57.722 28.5786 56.6087 27.5113 56.6087 26.0001C56.6087 24.4664 57.7245 23.4215 59.0155 23.4215C60.309 23.4215 61.4224 24.4664 61.4224 26.0001C61.4224 27.5212 60.309 28.5786 59.0155 28.5786ZM47.9019 23.0549V24.8554H52.2378C52.1052 25.8654 51.7699 26.611 51.257 27.1222C50.6215 27.7557 49.6408 28.4439 47.9119 28.4439C45.2474 28.4439 43.1632 26.2993 43.1632 23.6434C43.1632 20.9876 45.2474 18.8429 47.9119 18.8429C49.3505 18.8429 50.3988 19.409 51.177 20.1322L52.4579 18.8554C51.3771 17.823 49.9385 17.0325 47.9219 17.0325C44.2666 17.0325 41.1992 20.0001 41.1992 23.6335C41.1992 27.2769 44.2641 30.2345 47.9219 30.2345C49.896 30.2345 51.3771 29.5911 52.548 28.3791C53.7414 27.1896 54.1192 25.5113 54.1192 24.1572C54.1192 23.7357 54.0867 23.3567 54.0192 23.035H47.8994C47.9019 23.0325 47.9019 23.0549 47.9019 23.0549ZM93.3596 24.4564C93.0019 23.5013 91.921 21.7457 89.7043 21.7457C87.5076 21.7457 85.6812 23.4689 85.6812 26.0001C85.6812 28.3891 87.4876 30.2544 89.917 30.2544C91.8685 30.2544 93.0044 29.0649 93.4722 28.3666L92.0236 27.3991C91.5432 28.1098 90.8752 28.5761 89.927 28.5761C88.9687 28.5761 88.2982 28.1422 87.8529 27.2868L93.5598 24.9302C93.5598 24.9327 93.3596 24.4564 93.3596 24.4564ZM87.5401 25.8779C87.4951 24.2345 88.8211 23.3991 89.7694 23.3991C90.5174 23.3991 91.1404 23.7656 91.3531 24.2993L87.5401 25.8779ZM82.904 30.0001H84.778V17.5013H82.904V30.0001ZM79.8267 22.7008H79.7591C79.3363 22.1996 78.5331 21.7457 77.5074 21.7457C75.3782 21.7457 73.4167 23.6135 73.4167 26.0125C73.4167 28.4015 75.3682 30.2469 77.5074 30.2469C78.5206 30.2469 79.3363 29.7906 79.7591 29.2794H79.8267V29.8903C79.8267 31.5138 78.956 32.3891 77.5524 32.3891C76.404 32.3891 75.6909 31.5661 75.4007 30.8779L73.772 31.5562C74.2398 32.6784 75.4883 34.0674 77.5499 34.0674C79.7466 34.0674 81.608 32.7781 81.608 29.6335V22.0001H79.8367V22.7008C79.8392 22.7008 79.8267 22.7008 79.8267 22.7008ZM77.675 28.5786C76.3815 28.5786 75.3006 27.5013 75.3006 26.0125C75.3006 24.5113 76.3815 23.424 77.675 23.424C78.956 23.424 79.9492 24.5237 79.9492 26.0125C79.9618 27.5013 78.9585 28.5786 77.675 28.5786ZM102.134 17.5013H97.653V30.0001H99.5269V25.2669H102.136C104.211 25.2669 106.25 23.7681 106.25 21.3891C106.25 19.01 104.218 17.5013 102.134 17.5013ZM102.189 23.5212H99.5244V19.232H102.189C103.593 19.232 104.386 20.3866 104.386 21.3766C104.386 22.3567 103.583 23.5212 102.189 23.5212ZM113.76 21.7332C112.399 21.7332 110.996 22.3342 110.415 23.6434L112.077 24.3317C112.434 23.6434 113.09 23.409 113.783 23.409C114.754 23.409 115.734 23.9876 115.757 25.02V25.1522C115.422 24.9626 114.686 24.6734 113.805 24.6734C112.012 24.6734 110.193 25.6509 110.193 27.4838C110.193 29.1621 111.664 30.2395 113.303 30.2395C114.561 30.2395 115.254 29.6734 115.687 29.0175H115.755V29.9851H117.561V25.1971C117.561 22.9676 115.9 21.7332 113.76 21.7332ZM113.525 28.5786C112.912 28.5786 112.054 28.2794 112.054 27.5113C112.054 26.5437 113.125 26.1771 114.038 26.1771C114.864 26.1771 115.254 26.3542 115.744 26.5986C115.609 27.7207 114.659 28.5686 113.525 28.5786ZM124.151 22.0001L121.999 27.4215H121.932L119.703 22.0001H117.686L121.031 29.5786L119.125 33.7906H121.076L126.223 22.0001H124.151ZM107.283 30.0001H109.157V17.5013H107.283V30.0001Z" fill="white"/>
<path fill-rule="evenodd" clip-rule="evenodd" d="M10.4686 7.53364C10.1784 7.84536 10.0107 8.32167 10.0107 8.94511V31.0573C10.0107 31.6808 10.1784 32.1571 10.4786 32.4563L10.5562 32.5237L22.9858 20.1346V19.8578L10.5462 7.46631L10.4686 7.53364Z" fill="#00E3FF"/>
<path fill-rule="evenodd" clip-rule="evenodd" d="M27.1213 24.2768L22.9756 20.1446V19.8553L27.1213 15.7231L27.2114 15.778L32.1152 18.5561C33.5188 19.3441 33.5188 20.6458 32.1152 21.4438L27.2114 24.2219L27.1213 24.2768Z" fill="#FFE000"/>
<path fill-rule="evenodd" clip-rule="evenodd" d="M27.2107 24.2219L22.9749 20L10.4678 32.4663C10.9256 32.9551 11.6937 33.01 12.5519 32.5337L27.2107 24.2219Z" fill="#FF3A44"/>
<path fill-rule="evenodd" clip-rule="evenodd" d="M27.2107 15.7779L12.5519 7.47869C11.6937 6.98992 10.9231 7.05725 10.4678 7.54603L22.9749 19.9999L27.2107 15.7779Z" fill="#00F076"/>
<path opacity="0.2" fill-rule="evenodd" clip-rule="evenodd" d="M27.121 24.1323L12.5621 32.3767C11.749 32.843 11.0235 32.8106 10.5556 32.3867L10.478 32.464L10.5556 32.5313C11.0235 32.9527 11.749 32.9877 12.5621 32.5213L27.221 24.2221L27.121 24.1323Z" fill="white"/>
<path opacity="0.12" fill-rule="evenodd" clip-rule="evenodd" d="M32.1148 21.2993L27.1084 24.1322L27.1985 24.2219L32.1023 21.4439C32.8053 21.0449 33.1506 20.5212 33.1506 20C33.108 20.4788 32.7503 20.9327 32.1148 21.2993Z" fill="white"/>
<path opacity="0.25" fill-rule="evenodd" clip-rule="evenodd" d="M12.5527 7.62329L32.1153 18.7006C32.7508 19.0572 33.1086 19.5235 33.1636 19.9999C33.1636 19.4787 32.8184 18.955 32.1153 18.556L12.5527 7.47866C11.1491 6.67816 10.0107 7.34649 10.0107 8.94499V9.08963C10.0107 7.48863 11.1491 6.83277 12.5527 7.62329Z" fill="white"/>
</svg>
