<svg width="46" height="46" viewBox="0 0 46 46" fill="none" xmlns="http://www.w3.org/2000/svg">
<path d="M27.9344 27.9484L24.9715 29.8433L26.9092 32.8731L28.8856 31.6091L43.9362 21.9836L45.9406 20.7016L44.0029 17.6718L41.0551 19.5571C36.7507 15.6816 33.6136 10.7621 31.7106 4.90232L34.6387 3.02971L32.7009 0L30.6531 1.30965L15.6853 10.8821L13.6695 12.1713L15.6072 15.2011L18.5523 13.3176C20.381 14.9645 21.9816 16.7383 23.3506 18.6316L0.0390625 33.4705L1.97025 36.5045L25.2875 21.6622C26.3981 23.6468 27.2819 25.7443 27.9344 27.9484ZM21.6848 11.3143L28.5882 6.89937C30.5982 12.6554 33.728 17.5702 37.9234 21.56L35.1463 23.336L31.0752 25.9395C29.2581 20.4018 26.1102 15.4988 21.6848 11.3143Z" fill="url(#paint0_linear)"/>
<path d="M40.5661 36.1096H25.281C22.3064 36.1096 19.8862 38.5297 19.8862 41.5044V46H45.9608V41.5044C45.9609 38.5297 43.5408 36.1096 40.5661 36.1096ZM42.3644 42.4035H23.4829V41.5044C23.4829 40.5129 24.2896 39.7062 25.2811 39.7062H40.5662C41.5577 39.7062 42.3644 40.5129 42.3644 41.5044V42.4035Z" fill="url(#paint1_linear)"/>
<defs>
<linearGradient id="paint0_linear" x1="0.257643" y1="-0.20056" x2="42.2598" y2="40.2935" gradientUnits="userSpaceOnUse">
<stop stop-color="#FFC643"/>
<stop offset="1" stop-color="#FF9800"/>
</linearGradient>
<linearGradient id="paint1_linear" x1="20.0104" y1="36.0553" x2="29.0622" y2="54.3522" gradientUnits="userSpaceOnUse">
<stop stop-color="#FFC643"/>
<stop offset="1" stop-color="#FF9800"/>
</linearGradient>
</defs>
</svg>
