<svg width="56" height="53" viewBox="0 0 56 53" fill="none" xmlns="http://www.w3.org/2000/svg">
<path d="M38.7429 24.7631C39.5278 24.384 40.0153 23.6217 40.0153 22.7739V20.5499H41.453C43.9602 20.5499 46 18.5652 46 16.1257V4.42419C46 1.98471 43.9602 0 41.453 0H14.547C12.0398 0 10 1.98471 10 4.42419V16.1256C10 18.5652 12.0398 20.5499 14.547 20.5499H15.9847V22.7739C15.9847 23.6217 16.4722 24.384 17.2571 24.7631C17.5855 24.9218 17.9382 25 18.2888 25C18.7761 24.9999 19.2594 24.8489 19.6675 24.5531L25.1918 20.5499H30.8082L36.3325 24.5531C37.0344 25.0619 37.958 25.1423 38.7429 24.7631ZM17.3657 17.8811H14.547C13.5628 17.8811 12.7621 17.0936 12.7621 16.1257V4.42419C12.7621 3.4563 13.5628 2.66882 14.547 2.66882H41.453C42.4372 2.66882 43.2379 3.4563 43.2379 4.42419V16.1256C43.2379 17.0936 42.4372 17.881 41.453 17.881H38.6343C37.8715 17.881 37.2532 18.4785 37.2532 19.2154V21.8842L32.0972 18.1479C31.8582 17.9747 31.5674 17.881 31.2685 17.881H24.7315C24.4326 17.881 24.1418 17.9747 23.9028 18.1479L18.7468 21.8842V19.2154C18.7468 18.4785 18.1284 17.8811 17.3657 17.8811Z" fill="url(#paint0_linear)"/>
<path d="M23.3524 44.922C22.9487 41.4112 20.6526 38.5573 17.59 37.3847C18.2487 36.3334 18.6327 35.0838 18.6327 33.7428C18.6327 30.0248 15.6923 27 12.0781 27C8.46394 27 5.52356 30.0248 5.52356 33.7428C5.52356 35.0638 5.89622 36.2961 6.53678 37.3376C3.41097 38.4793 1.05681 41.3631 0.64757 44.9222L0.0123739 50.4452C-0.0475705 50.9669 0.112122 51.49 0.45141 51.8828C0.790698 52.2756 1.27693 52.5 1.78759 52.5H22.2124C22.7231 52.5 23.2094 52.2753 23.5486 51.8826C23.8878 51.4899 24.0476 50.9667 23.9876 50.4449L23.3524 44.922ZM12.0781 30.6778C13.7209 30.6778 15.0575 32.0527 15.0575 33.7427C15.0575 35.4327 13.7209 36.8076 12.0781 36.8076C10.4353 36.8076 9.09878 35.4327 9.09878 33.7427C9.09878 32.0527 10.4353 30.6778 12.0781 30.6778ZM3.79924 48.8221L4.19811 45.3542C4.51726 42.5786 6.80683 40.4855 9.52375 40.4855H14.4764C17.1933 40.4855 19.4829 42.5786 19.802 45.3542L20.2009 48.8221H3.79924Z" fill="url(#paint1_linear)"/>
<path d="M55.4876 50.4449L54.8524 44.922C54.4487 41.4112 52.1526 38.5573 49.09 37.3846C49.7487 36.3334 50.1327 35.0837 50.1327 33.7428C50.1327 30.0248 47.1923 27 43.5781 27C39.9639 27 37.0236 30.0248 37.0236 33.7428C37.0236 35.0638 37.3962 36.2961 38.0368 37.3376C34.911 38.4793 32.5568 41.363 32.1476 44.9221L31.5124 50.445C31.4524 50.9668 31.6121 51.4899 31.9514 51.8827C32.2907 52.2755 32.7768 52.5 33.2876 52.5H53.7124C54.2231 52.5 54.7094 52.2753 55.0486 51.8826C55.3878 51.4899 55.5476 50.9667 55.4876 50.4449ZM43.5781 30.6779C45.2209 30.6779 46.5575 32.0528 46.5575 33.7428C46.5575 35.4328 45.2209 36.8077 43.5781 36.8077C41.9353 36.8077 40.5988 35.4328 40.5988 33.7428C40.5988 32.0528 41.9352 30.6779 43.5781 30.6779ZM35.2991 48.8221L35.698 45.3542C36.0173 42.5787 38.3068 40.4856 41.0236 40.4856H45.9763C48.6932 40.4856 50.9827 42.5787 51.3019 45.3542L51.7008 48.8221H35.2991Z" fill="url(#paint2_linear)"/>
<path d="M18.3081 9H30.6919C31.4143 9 32 8.3284 32 7.5C32 6.6716 31.4143 6 30.6919 6H18.3081C17.5857 6 17 6.6716 17 7.5C17 8.3284 17.5857 9 18.3081 9Z" fill="url(#paint3_linear)"/>
<path d="M40 12.5C40 11.6716 39.3796 11 38.6145 11H18.3855C17.6204 11 17 11.6716 17 12.5C17 13.3284 17.6204 14 18.3855 14H38.6145C39.3796 14 40 13.3284 40 12.5Z" fill="url(#paint4_linear)"/>
<defs>
<linearGradient id="paint0_linear" x1="10.1714" y1="-0.137353" x2="38.8152" y2="31.4877" gradientUnits="userSpaceOnUse">
<stop stop-color="#FFC643"/>
<stop offset="1" stop-color="#FF9800"/>
</linearGradient>
<linearGradient id="paint1_linear" x1="0.114286" y1="26.8599" x2="27.9781" y2="46.9671" gradientUnits="userSpaceOnUse">
<stop stop-color="#FFC643"/>
<stop offset="1" stop-color="#FF9800"/>
</linearGradient>
<linearGradient id="paint2_linear" x1="31.6143" y1="26.8599" x2="59.4781" y2="46.9671" gradientUnits="userSpaceOnUse">
<stop stop-color="#FFC643"/>
<stop offset="1" stop-color="#FF9800"/>
</linearGradient>
<linearGradient id="paint3_linear" x1="17.0714" y1="5.98352" x2="18.7586" y2="12.4516" gradientUnits="userSpaceOnUse">
<stop stop-color="#FFC643"/>
<stop offset="1" stop-color="#FF9800"/>
</linearGradient>
<linearGradient id="paint4_linear" x1="17.1095" y1="10.9835" x2="18.2517" y2="17.6974" gradientUnits="userSpaceOnUse">
<stop stop-color="#FFC643"/>
<stop offset="1" stop-color="#FF9800"/>
</linearGradient>
</defs>
</svg>
