<svg width="54" height="52" viewBox="0 0 54 52" fill="none" xmlns="http://www.w3.org/2000/svg">
<path d="M52.2 48.4444H48.6V21.7778C48.6 20.796 47.794 20 46.8 20H39.6C38.6059 20 37.8 20.796 37.8 21.7778V48.4444H32.4V28.8889C32.4 27.9071 31.594 27.1111 30.6 27.1111H23.4C22.4059 27.1111 21.6 27.9071 21.6 28.8889V48.4444H16.2V36C16.2 35.0182 15.394 34.2222 14.4 34.2222H7.2C6.20595 34.2222 5.4 35.0182 5.4 36V48.4444H1.8C0.80595 48.4444 0 49.2404 0 50.2222C0 51.204 0.80595 52 1.8 52H52.2C53.194 52 54 51.204 54 50.2222C54 49.2404 53.194 48.4444 52.2 48.4444ZM12.6 48.4444H9V37.7778H12.6V48.4444ZM28.8 48.4444H25.2V30.6667H28.8V48.4444ZM45 48.4444H41.4V23.5556H45V48.4444Z" fill="url(#paint0_linear)"/>
<path d="M43.2031 10.76H40.2111V8.84H44.6751C44.6751 8.552 44.6111 8.344 44.4831 8.216C44.3658 8.07733 44.1631 8.008 43.8751 8.008C43.2991 8.008 42.7765 8.20533 42.3071 8.6L41.0911 6.792C41.7631 6.00267 42.7445 5.608 44.0351 5.608C44.9311 5.608 45.6618 5.848 46.2271 6.328C46.7925 6.808 47.0751 7.42667 47.0751 8.184C47.0751 8.51467 47.0431 8.73333 46.9791 8.84H47.7951V10.76H45.8271C45.3151 11.3573 45.0271 11.6773 44.9631 11.72H47.7951V13.64H43.2671C43.2245 13.7573 43.2031 13.8747 43.2031 13.992C43.2031 14.2267 43.2991 14.4187 43.4911 14.568C43.6938 14.7173 43.9765 14.792 44.3391 14.792C44.9791 14.792 45.5978 14.5467 46.1951 14.056L47.4431 15.688C46.6431 16.6907 45.4965 17.192 44.0031 17.192C43.1818 17.192 42.4405 16.9413 41.7791 16.44C41.1285 15.9493 40.8031 15.2773 40.8031 14.424C40.8031 14.1787 40.8458 13.9173 40.9311 13.64H40.2111V11.72H42.2911C42.3231 11.688 42.4511 11.5493 42.6751 11.304C42.8991 11.0587 43.0751 10.8773 43.2031 10.76Z" fill="url(#paint1_linear)"/>
<defs>
<linearGradient id="paint0_linear" x1="0.257144" y1="19.8242" x2="35.9113" y2="65.9552" gradientUnits="userSpaceOnUse">
<stop stop-color="#FFC643"/>
<stop offset="1" stop-color="#FF9800"/>
</linearGradient>
<linearGradient id="paint1_linear" x1="39.0476" y1="-0.131859" x2="55.0682" y2="4.98622" gradientUnits="userSpaceOnUse">
<stop stop-color="#FFC643"/>
<stop offset="1" stop-color="#FF9800"/>
</linearGradient>
</defs>
</svg>
