<svg width="451" height="189" viewBox="0 0 451 189" fill="none" xmlns="http://www.w3.org/2000/svg">
<g clip-path="url(#clip0)">
<path fill-rule="evenodd" clip-rule="evenodd" d="M307.32 157.91H240.682C238.749 157.91 237.236 159.507 237.236 161.357V183.469C237.236 185.403 238.833 186.916 240.682 186.916H307.32C309.253 186.916 310.766 185.319 310.766 183.469V161.357C310.766 159.507 309.253 157.91 307.32 157.91Z" fill="#6F3F1B"/>
<path d="M293.203 157.91H283.707V186.916H293.203V157.91Z" fill="#844F26"/>
<path d="M299.757 164.299H248.328V180.61H299.757V164.299Z" fill="#FFC800"/>
<path d="M287.32 164.299H280.346V180.61H287.32V164.299Z" fill="#FFE16B"/>
<path fill-rule="evenodd" clip-rule="evenodd" d="M307.991 71.1424C306.311 71.1424 304.966 69.7972 304.966 68.1157C304.966 66.4341 306.311 65.0889 307.991 65.0889C309.336 65.0889 311.017 65.0048 312.697 64.8367C316.899 64.5845 321.017 64.2481 324.126 65.5093C328.58 67.1908 330.597 70.8061 327.739 78.5411C325.05 85.6876 317.991 94.7679 310.344 101.83C303.033 108.556 294.966 113.517 288.916 113.601C287.235 113.601 285.891 112.256 285.891 110.658C285.891 108.977 287.235 107.632 288.832 107.632C293.286 107.548 299.924 103.26 306.227 97.4583C313.286 90.9844 319.672 82.745 322.025 76.5233C323.37 73.0762 323.033 71.6469 321.941 71.2265C320.008 70.4698 316.563 70.722 313.033 70.9743C311.353 71.0583 309.756 71.1424 307.991 71.1424Z" fill="#FFC800"/>
<path fill-rule="evenodd" clip-rule="evenodd" d="M240.093 65.1731C241.774 65.1731 243.118 66.5184 243.118 68.1999C243.118 69.8814 241.774 71.2266 240.093 71.2266C238.328 71.2266 236.732 71.1426 235.051 70.9744C231.522 70.7222 227.992 70.4699 226.143 71.2266C225.051 71.647 224.799 72.9922 226.059 76.5234C228.412 82.7451 234.799 90.9846 241.858 97.4585C248.16 103.26 254.799 107.548 259.253 107.632C260.933 107.632 262.278 108.977 262.194 110.658C262.194 112.34 260.849 113.685 259.169 113.601C253.118 113.517 245.051 108.472 237.74 101.83C230.093 94.768 223.034 85.6878 220.345 78.6254C217.404 70.8903 219.505 67.275 223.959 65.5935C227.068 64.4164 231.186 64.6687 235.387 64.9209C237.068 65.005 238.749 65.1731 240.093 65.1731Z" fill="#FFC800"/>
<path fill-rule="evenodd" clip-rule="evenodd" d="M270.093 112.34C269.505 125.961 268.413 141.01 258.581 148.325C253.959 151.604 247.488 150.679 247.488 157.994H300.513C300.513 150.679 294.043 151.688 289.421 148.325C279.589 141.01 278.497 125.961 277.908 112.34C275.303 112.34 272.698 112.34 270.093 112.34Z" fill="#FFA600"/>
<path fill-rule="evenodd" clip-rule="evenodd" d="M299.505 153.958C297.488 150.931 292.95 150.847 289.421 148.325C281.522 142.44 279.253 131.594 278.328 120.496C276.732 120.748 272.278 119.487 272.278 121.336C272.278 126.129 272.026 130.837 271.606 135.125C270.933 141.683 269.421 146.223 264.715 150.931C263.034 152.697 263.37 153.874 271.27 153.958C281.942 154.126 294.211 154.042 297.152 154.042C303.791 154.042 298.749 153.958 299.505 153.958Z" fill="#FFC800"/>
<path fill-rule="evenodd" clip-rule="evenodd" d="M277.489 124.279C277.321 124.279 276.48 123.018 276.312 123.943C275.892 125.877 276.228 131.258 276.312 134.789C276.48 140.086 276.312 147.821 280.094 149.67C283.875 151.52 292.027 151.688 289.001 149.418C285.22 146.559 282.279 143.112 279.842 137.816C277.489 132.519 277.909 124.363 277.489 124.279Z" fill="#FFE16B"/>
<path fill-rule="evenodd" clip-rule="evenodd" d="M240.681 57.2701C239.169 57.5223 237.992 58.5312 237.992 60.0446C239.085 96.786 261.101 126.129 273.959 126.129C286.816 126.129 308.917 96.786 309.925 60.0446C310.009 58.5312 308.748 57.5223 307.236 57.2701C284.379 54.2433 262.11 54.2433 240.681 57.2701Z" fill="#FFA600"/>
<path fill-rule="evenodd" clip-rule="evenodd" d="M279.924 124.447C292.697 117.721 309.084 91.5734 310.008 60.0448C310.092 58.5314 308.832 57.5225 307.319 57.2703C287.319 54.6639 267.824 54.3276 249 56.2613C251.857 84.2588 263.454 125.288 279.924 124.447Z" fill="#FFC800"/>
<path fill-rule="evenodd" clip-rule="evenodd" d="M306.983 57.1859C303.118 56.6814 299.252 56.261 295.471 56.0088C295.471 59.0355 295.387 63.2394 294.966 70.0496C293.79 91.489 286.395 106.959 290.093 107.968C293.79 108.977 300.261 92.6661 304.546 71.647C305.555 66.5183 306.395 61.726 306.983 57.1859Z" fill="#FFE16B"/>
<path fill-rule="evenodd" clip-rule="evenodd" d="M281.691 95.9452V99.5605C281.691 99.8127 281.439 100.065 281.187 100.065H268.077C267.825 100.065 267.573 99.8127 267.573 99.5605V95.9452C267.573 95.693 267.825 95.4407 268.077 95.4407H272.027V80.4751L268.834 81.7363C268.581 81.8204 268.329 81.7363 268.161 81.484L266.649 78.2051C266.565 77.9528 266.649 77.7006 266.901 77.5325L271.859 75.1783C271.943 75.1783 272.027 75.0942 272.027 75.0942H276.985C277.237 75.0942 277.489 75.3465 277.489 75.5987V95.4407H281.187C281.523 95.4407 281.691 95.693 281.691 95.9452Z" fill="#FFA600"/>
<path fill-rule="evenodd" clip-rule="evenodd" d="M281.691 95.1044V98.7197C281.691 98.9719 281.439 99.2241 281.187 99.2241H268.077C267.825 99.2241 267.573 98.9719 267.573 98.7197V95.1044C267.573 94.8521 267.825 94.5999 268.077 94.5999H272.027V79.6343L268.834 80.8955C268.581 80.9795 268.329 80.8955 268.161 80.6432L266.649 77.3642C266.565 77.112 266.649 76.8598 266.901 76.6916L271.859 74.3375C271.943 74.3375 272.027 74.2534 272.027 74.2534H276.985C277.237 74.2534 277.489 74.5056 277.489 74.7579V94.5999H281.187C281.523 94.5999 281.691 94.7681 281.691 95.1044Z" fill="#FFFDF2"/>
<path fill-rule="evenodd" clip-rule="evenodd" d="M271.86 150.427C274.213 146.98 273.961 142.356 271.271 139.245C274.717 141.599 279.339 141.347 282.448 138.656C280.095 142.103 280.347 146.728 283.036 149.838C279.675 147.4 275.053 147.652 271.86 150.427Z" fill="#FFFDF2"/>
<path fill-rule="evenodd" clip-rule="evenodd" d="M292.868 81.232C295.725 77.1122 295.473 71.4791 292.111 67.6957C296.229 70.5543 301.859 70.302 305.641 66.939C302.784 71.0587 303.036 76.6918 306.397 80.4753C302.279 77.5326 296.649 77.8689 292.868 81.232Z" fill="#FFFDF2"/>
</g>
<g clip-path="url(#clip1)">
<path d="M436.635 83.3207L431.895 85.7108L433.085 88.3723C433.801 87.6125 434.653 86.8893 435.506 86.1661C435.935 85.1099 436.415 84.1403 436.635 83.3207Z" fill="#6C0E10"/>
<path d="M440.035 89.2095C439.862 89.3095 439.652 89.5461 439.442 89.7827C439.283 90.1059 439.123 90.4291 439.1 90.7889L441.141 89.7255L440.678 88.7229C440.468 88.9595 440.208 89.1095 440.035 89.2095Z" fill="#6C0E10"/>
<path d="M376.359 23.3197L382.24 26.506L386.229 19.8152L380.348 16.6288L376.359 23.3197Z" fill="#841216"/>
<path d="M416.184 91.8957L418.735 91.1153L416.906 89.7467L416.184 91.8957Z" fill="#841216"/>
<path d="M433.295 73.9333L430.771 69.963L430.325 69.9897C430.525 70.3362 431.175 71.462 431.109 73.3476L433.295 73.9333Z" fill="#E46569"/>
<path d="M410.555 75.7466L412.4 75.143L412.633 74.5466C411.854 74.9966 411.248 75.3466 410.555 75.7466Z" fill="#6C0E10"/>
<path d="M388.25 36.3155L386.879 40.3404L390.843 39.2064L392.251 35.0449L388.25 36.3155Z" fill="#6C0E10"/>
<path d="M390.122 66.7582L385.403 62.7852L380.686 61.814L385.318 65.8369L390.122 66.7582Z" fill="#E14443"/>
<path d="M405.879 31.449L410.092 35.9452L408.194 30.4588L403.982 25.9627L405.879 31.449Z" fill="#E14443"/>
<path d="M369.84 58.0294C373.625 58.3846 383.435 55.3765 383.435 55.3765L396.71 50.3684L404.282 48.8834C403.978 47.5576 403.551 46.4184 403.401 46.1586C402.605 45.5791 401.462 45.1997 399.863 45.4301C395.239 46.0212 387.934 48.9686 387.934 48.9686L374.213 54.0036C374.213 54.0036 367.621 55.3849 365.112 54.6395C365.525 55.5555 365.825 56.0751 365.875 56.1617C366.685 56.9643 367.991 57.8268 369.84 58.0294Z" fill="#721249"/>
<path d="M398.606 80.4508C398.829 80.4374 403.27 80.5293 409.602 76.2963C409.862 76.1463 410.208 75.9463 410.468 75.7963L408.4 76.4133L409.771 72.3884L413.822 71.2044L412.683 74.6329C417.756 71.8195 423.726 69.7587 426.85 69.5712C426.447 68.0721 425.697 66.7731 425.497 66.4267C425.124 66.1803 424.664 65.9838 424.217 66.0106C422.209 66.1312 417.781 66.2626 413.538 68.7126C409.294 71.1626 404.467 73.6028 404.467 73.6028C404.467 73.6028 401.286 75.0929 400.024 75.7063C399.092 78.092 398.716 80.041 398.606 80.4508Z" fill="#721249"/>
<path d="M409.721 72.3019L408.399 76.4133L410.554 75.7463C411.247 75.3463 411.94 74.9463 412.633 74.5463L413.771 71.1179L409.721 72.3019Z" fill="#721249"/>
<path d="M405.038 48.7933L404.332 48.9701C404.635 50.2959 404.766 51.7218 404.386 52.8646C403.454 55.2502 400.369 64.3062 397.891 67.815C395.414 71.3239 394.696 77.2808 394.696 77.2808L398.618 80.6743C398.618 80.6743 398.714 77.0396 399.38 76.1932C399.466 76.1432 399.64 76.0432 399.949 75.9798C400.489 74.5138 401.151 72.8612 402.187 71.455C404.824 67.6229 407.886 58.9268 407.886 58.9268C407.886 58.9268 409.957 53.1127 408.083 50.2682C406.21 47.4237 403.588 46.2818 403.588 46.2818C403.588 46.2818 403.588 46.2818 403.638 46.3684C404.808 47.1943 405.038 48.7933 405.038 48.7933Z" fill="#E46569"/>
<path d="M405.039 48.7932C405.039 48.7932 404.809 47.1941 403.402 46.1585C403.552 46.4183 403.979 47.5575 404.283 48.8834L405.039 48.7932Z" fill="#E46569"/>
<path d="M398.605 80.451C398.629 80.0912 399.091 78.0922 399.85 75.8065C399.59 75.9565 399.417 76.0565 399.28 76.0199C398.701 76.8163 398.605 80.451 398.605 80.451Z" fill="#E46569"/>
<path d="M429.132 80.7244C431.147 79.2146 435.508 77.9672 437.007 77.5636C436.817 76.6342 436.503 75.8914 436.49 75.6682C435.817 74.9022 434.611 74.2129 432.912 74.2701C432.329 74.2603 431.709 74.3871 430.966 74.7005C430.7 76.2397 430.101 78.2022 429.132 80.7244Z" fill="#721249"/>
<path d="M417.284 88.6038L417.554 87.8708L418.433 87.594C420.668 85.2646 423.638 81.0093 424.314 79.5799C424.597 79.0701 424.83 78.4737 425.063 77.8772C422.738 79.4505 420.527 81.4201 418.971 83.1263C415.565 86.8253 415.535 88.5744 415.535 88.5744L416.332 89.1538C416.505 89.0538 416.851 88.8538 417.284 88.6038Z" fill="#721249"/>
<path d="M417.285 88.6039C417.582 88.3173 417.965 87.9807 418.434 87.5941L417.555 87.8709L417.285 88.6039Z" fill="#721249"/>
<path d="M426.799 69.4845C427.026 70.2773 427.079 71.1701 426.896 71.8531C426.557 73.6656 425.748 75.8646 424.962 77.7038C427.028 76.2806 429.106 75.0806 430.865 74.5271C430.851 74.3038 430.925 74.0306 430.911 73.8074C430.898 73.5842 430.934 73.4476 430.921 73.2244L430.375 73.078L429.417 69.8201L430.137 69.8665C430.087 69.7799 430.087 69.7799 430.087 69.7799L425.345 66.1668C425.345 66.1668 425.345 66.1668 425.395 66.2534C426.975 67.189 428.325 69.5273 428.325 69.5273C427.965 69.5041 427.382 69.4943 426.799 69.4845Z" fill="#E46569"/>
<path d="M418.734 91.1152L420.291 92.4107L418.734 91.1152Z" fill="#E46569"/>
<path d="M416.195 89.1172L416.905 89.7466L416.195 89.1172Z" fill="#E46569"/>
<path d="M420.29 92.4108C420.29 92.4108 424.551 90.9902 427.131 85.4591C427.967 83.7065 428.592 82.1905 429.095 80.861C428.922 80.961 428.799 81.1476 428.625 81.2476C426.724 83.1539 420.29 92.4108 420.29 92.4108Z" fill="#E46569"/>
<path d="M416.942 89.6102L416.905 89.7468L418.735 91.1154L416.942 89.6102Z" fill="#E46569"/>
<path d="M430.525 73.3379L431.071 73.4843C431.137 71.5986 430.437 70.3862 430.287 70.1264L429.568 70.08L430.525 73.3379Z" fill="#E46569"/>
<path d="M426.8 69.4845C427.469 69.4443 427.966 69.5041 428.375 69.614C428.375 69.614 427.025 67.2757 425.446 66.34C425.646 66.6865 426.446 68.0721 426.8 69.4845Z" fill="#E46569"/>
<path d="M425.013 77.7906C424.78 78.387 424.547 78.9834 424.264 79.4932C423.638 81.0093 420.705 85.1279 418.383 87.5073L421.505 86.5135L420.133 90.5384L418.684 91.0286L420.241 92.3241C420.241 92.3241 426.588 83.1171 428.662 81.1109C428.836 81.0109 428.959 80.8243 429.132 80.7243C430.187 78.1521 430.7 76.2396 430.916 74.6138C429.207 75.254 426.992 76.4174 425.013 77.7906Z" fill="#E46569"/>
<path d="M417.285 88.6038C416.902 88.9404 416.505 89.0538 416.195 89.1172L416.855 89.66L417.285 88.6038Z" fill="#E46569"/>
<path d="M416.941 89.6102L418.734 91.1154L420.183 90.6252L421.555 86.6004L418.433 87.5941C418.014 88.0673 417.631 88.404 417.284 88.604L416.941 89.6102Z" fill="#E46569"/>
<path d="M440.178 87.8568L440.591 88.7729C441.457 88.2729 442.286 87.9095 442.906 87.7827C443.045 85.6238 442.678 83.9882 442.678 83.9882C442.678 83.9882 442.678 83.9882 442.628 83.9016C442.169 83.7052 441.722 83.732 441.226 83.6722C441.156 84.7516 440.753 86.2542 440.178 87.8568Z" fill="#721249"/>
<path d="M429 95.6964C430.732 94.6964 432.384 92.3571 433.712 89.8581L433.086 88.3725C432.283 89.1823 431.567 89.9421 430.974 90.5153C428.356 93.1813 428.814 95.5732 428.814 95.5732L432.973 99.1765C433.023 99.2631 430.42 96.9552 429 95.6964Z" fill="#721249"/>
<path d="M439.492 89.8695C439.702 89.6329 439.911 89.3963 440.085 89.2963C440.258 89.1963 440.468 88.9597 440.641 88.8597L440.227 87.9437C439.994 88.5401 439.675 89.1865 439.492 89.8695Z" fill="#721249"/>
<path d="M435.507 86.1662C434.654 86.8894 433.802 87.6126 433.086 88.3724L433.712 89.8581C434.402 88.6518 435.041 87.359 435.507 86.1662Z" fill="#721249"/>
<path d="M437.54 77.487C437.54 77.487 437.317 77.5004 437.057 77.6504C437.361 78.9763 437.605 80.7985 437.189 82.0779C437.029 82.4011 436.969 82.8975 436.686 83.4073L437.948 82.7939L438.625 84.3662C439.455 84.0028 440.384 83.8126 441.327 83.8456C441.363 83.709 441.313 83.6224 441.4 83.5724C441.453 81.4636 440.536 78.8753 440.536 78.8753L436.54 75.755C437.213 76.521 437.54 77.487 437.54 77.487Z" fill="#E46569"/>
<path d="M433.023 99.263C433.023 99.263 436.091 97.3764 437.639 94.0577C438.118 93.0881 438.634 91.9819 439.014 90.8391L438.407 91.1891C436.3 94.1381 433.023 99.263 433.023 99.263Z" fill="#E46569"/>
<path d="M438.407 91.1887L439.013 90.8387C439.173 90.5155 439.332 90.1923 439.356 89.8325C439.109 90.2057 438.776 90.6289 438.407 91.1887Z" fill="#E46569"/>
<path d="M438.574 84.2793L437.898 82.7071L436.635 83.3205C436.279 84.1035 435.936 85.1097 435.507 86.166C436.446 85.3928 437.485 84.7927 438.574 84.2793Z" fill="#E46569"/>
<path d="M437.54 77.4869C437.54 77.4869 437.264 76.6075 436.54 75.7549C436.64 75.9281 436.867 76.7209 437.057 77.6503C437.317 77.5003 437.54 77.4869 437.54 77.4869Z" fill="#E46569"/>
<path d="M438.407 91.189L435.103 92.8658L433.713 89.8579C432.384 92.3569 430.732 94.6962 429 95.6962C430.42 96.955 433.023 99.2629 433.023 99.2629C433.023 99.2629 436.299 94.138 438.407 91.189Z" fill="#E46569"/>
<path d="M440.179 87.857C440.754 86.2544 441.157 84.7517 441.277 83.7589C440.334 83.7259 439.404 83.9161 438.575 84.2795L440.179 87.857Z" fill="#E46569"/>
<path d="M435.506 86.1661C435.04 87.359 434.401 88.6518 433.711 89.858L435.102 92.8659L438.406 91.1891C438.775 90.6293 439.108 90.2061 439.405 89.9195C439.725 89.2731 439.908 88.59 440.141 87.9936L438.537 84.4161C437.484 84.7929 436.445 85.3929 435.506 86.1661Z" fill="#E46569"/>
<path d="M443.577 87.7426C443.577 87.7426 443.354 87.756 442.957 87.8694C442.804 89.805 442.182 92.1273 440.267 93.8103C441.24 95.0959 443.473 97.9636 443.473 97.9636C443.473 97.9636 445.731 95.2744 446.683 91.7227C447.635 88.171 446.752 87.6416 446.752 87.6416L442.679 83.9883C444.376 86.1265 443.577 87.7426 443.577 87.7426Z" fill="#E46569"/>
<path d="M442.956 87.8695C443.352 87.7561 443.576 87.7427 443.576 87.7427C443.576 87.7427 444.375 86.1267 442.728 84.075C442.678 83.9884 443.095 85.7107 442.956 87.8695Z" fill="#E46569"/>
<path d="M356.617 24.3258C356.617 24.3258 356.898 51.414 365.875 56.1618C365.015 55.2725 364.652 54.4431 364.652 54.4431C364.838 54.5663 364.975 54.6029 365.248 54.6761C364.621 53.1905 363.618 50.6522 362.884 47.3809C361.199 39.4626 360.392 28.2657 359.948 23.0954L358.738 21.5999L356.617 24.3258Z" fill="#E46569"/>
</g>
<g clip-path="url(#clip2)">
<path d="M118.6 80L119 79L118.1 79.3L118.6 80Z" fill="#E46569"/>
<path d="M124.8 103.3L131 103.6L126.1 101L119.9 100.8L124.8 103.3Z" fill="#841216"/>
<path d="M29.4992 91.7998L31.0992 87.8998L28.7992 84.2998L27.1992 88.1998L29.4992 91.7998Z" fill="#6C0E10"/>
<path d="M59.3008 139.9L62.6008 138.4L66.1008 134L62.9008 135.5L59.3008 139.9Z" fill="#6C0E10"/>
<path d="M38.2008 110.3L35.9008 106.7L34.3008 110.6L36.6008 114.2L38.2008 110.3Z" fill="#841216"/>
<path d="M44.6992 105.3L50.7992 104.1L54.4992 101L48.4992 102.1L44.6992 105.3Z" fill="#E14443"/>
<path d="M124.9 120.8L124.4 129.1H131.6L132 120.8H124.9Z" fill="#E14443"/>
<path d="M160.4 135.9L159 142.5L166.5 144.5L167.9 137.9L160.4 135.9Z" fill="#E46569"/>
<path d="M161.3 96.7998L160 103.4L167.5 105.4L168.9 98.7998L161.3 96.7998Z" fill="#E46569"/>
<path d="M79.4004 124.2L80.8004 117.6L73.2004 115.6L71.9004 122.2L79.4004 124.2Z" fill="#E46569"/>
<path d="M143.499 80.5L142.199 87.1L149.699 89L151.099 82.4L143.499 80.5Z" fill="#6C0E10"/>
<path d="M46.0004 72.8L45.5004 65L38.9004 65.7L39.3004 73.5L46.0004 72.8Z" fill="#DE251D"/>
<path d="M14.0996 123.2L21.5996 125.1L22.9996 118.6L17.7996 119.2L14.0996 123.2Z" fill="#E14443"/>
<path d="M113.4 72.9002L116.1 80.2002L118.1 79.3002L116.3 76.5002L117.8 72.7002L120.1 76.2002L119 79.0002L122.3 77.5002L119.6 70.2002L113.4 72.9002Z" fill="#841216"/>
<path d="M117.801 72.7002L116.301 76.5002L118.101 79.3002L119.001 79.0002L120.101 76.2002L117.801 72.7002Z" fill="#841216"/>
<path d="M8.3 72.2L0 69.5L4.3 74.8L12.6 77.5L8.3 72.2Z" fill="#DE251D"/>
<path d="M44.3 92.7998L43.5 93.6998L46.7 95.0998L49 93.2998L44.3 92.7998Z" fill="#650E80"/>
<path d="M91.1996 123.1L89.5996 126.8L94.4996 124.4L96.0996 120.7L91.1996 123.1Z" fill="#E46569"/>
<path d="M194 123.9L188.6 121.9L182.4 122.2L187.8 124.3L194 123.9Z" fill="#6C0E10"/>
<path d="M83.3004 89.5999L86.1004 83.4999L79.2004 79.8999L76.4004 85.9999L83.3004 89.5999Z" fill="#E46569"/>
<path d="M90.9004 97.4998L97.7004 97.1998L100.3 92.7998L93.4004 93.0998L90.9004 97.4998Z" fill="#E14443"/>
<path d="M149.8 112.5L151.3 108.7L149.1 105.2L147.5 108.9L149.8 112.5Z" fill="#E46569"/>
<path d="M33.6008 136.7L35.2008 132.8L32.8008 129.2L31.3008 133.1L33.6008 136.7Z" fill="#841216"/>
<path d="M119.199 132.9L121.499 136.6L123.099 132.7L120.799 129.1L119.199 132.9Z" fill="#6C0E10"/>
</g>
<g clip-path="url(#clip3)">
<path d="M413.5 162L411.4 160L411.6 164.7L412.7 165.4L413.5 162Z" fill="#650E80"/>
<path d="M364.699 185.4L369.599 188.2L367.599 185.2L362.699 182.4L364.699 185.4Z" fill="#6C0E10"/>
<path d="M351.301 129.5L352.401 136.6L360.701 135.7L359.601 128.7L351.301 129.5Z" fill="#E14443"/>
<path d="M381.3 120L380.6 127.8L387.3 128.1L388 120.3L381.3 120Z" fill="#E46569"/>
<path d="M356.6 151.1L360.1 156.8L366.9 153L363.4 147.3L356.6 151.1Z" fill="#841216"/>
<path d="M405.001 140L403.801 145.7L405.101 151.7L406.301 146L405.001 140Z" fill="#6C0E10"/>
<path d="M379.299 144L377.899 137.4L373.199 135.5L374.599 142.2L379.299 144Z" fill="#E14443"/>
<path d="M398.1 171.1L394.4 173.6L394.5 180.6L398.2 178.1L398.1 171.1Z" fill="#DE251D"/>
<path d="M375.7 165.9L372 168.5L372.1 175.5L375.8 173L375.7 165.9Z" fill="#DE251D"/>
<path d="M354.599 182.2L353.599 181.6L352.699 184.9L354.799 186.9L354.599 182.2Z" fill="#E46569"/>
<path d="M343 157.4L346.1 154L347 148.3L343.9 151.7L343 157.4Z" fill="#DE251D"/>
</g>
<defs>
<clipPath id="clip0">
<rect x="219" y="55" width="110" height="132" fill="white"/>
</clipPath>
<clipPath id="clip1">
<rect x="348" y="27.7998" width="55.6" height="108.5" transform="rotate(-30 348 27.7998)" fill="white"/>
</clipPath>
<clipPath id="clip2">
<rect y="65" width="194" height="79.5" fill="white"/>
</clipPath>
<clipPath id="clip3">
<rect x="343" y="120" width="70.5" height="68.2" fill="white"/>
</clipPath>
</defs>
</svg>
