<svg width="96" height="96" viewBox="0 0 96 96" fill="none" xmlns="http://www.w3.org/2000/svg">
<rect x="0.5" y="0.5" width="95" height="95" rx="4.5" stroke="#A5BBBE" stroke-dasharray="8 8"/>
<path d="M18.17 34H16.98V25.32H11.66V34H10.47V24.2H18.17V34ZM21.7647 36.8H20.6447V27.7H21.7647V28.442C21.9887 28.1807 22.2967 27.9707 22.6887 27.812C23.0807 27.644 23.4867 27.56 23.9067 27.56C24.8027 27.56 25.5074 27.8587 26.0207 28.456C26.5527 29.044 26.8187 29.8093 26.8187 30.752C26.8187 31.7133 26.5154 32.5207 25.9087 33.174C25.3114 33.818 24.5227 34.14 23.5427 34.14C22.7867 34.14 22.1941 33.9953 21.7647 33.706V36.8ZM23.5847 28.61C22.8381 28.61 22.2314 28.8993 21.7647 29.478V32.6C22.2594 32.9267 22.8194 33.09 23.4447 33.09C24.1074 33.09 24.6347 32.88 25.0267 32.46C25.4281 32.0307 25.6287 31.4753 25.6287 30.794C25.6287 30.1313 25.4467 29.604 25.0827 29.212C24.7187 28.8107 24.2194 28.61 23.5847 28.61ZM33.184 29.31L29.544 34H28.424V27.7H29.544V32.39L33.184 27.7H34.304V34H33.184V29.31ZM40.386 27.7H41.856L39.098 30.71L42.122 34H40.568L37.726 30.78L40.386 27.7ZM37.46 34H36.34V27.7H37.46V34ZM44.4327 36.8H43.3127V27.7H44.4327V28.442C44.6567 28.1807 44.9647 27.9707 45.3567 27.812C45.7487 27.644 46.1547 27.56 46.5747 27.56C47.4707 27.56 48.1754 27.8587 48.6887 28.456C49.2207 29.044 49.4867 29.8093 49.4867 30.752C49.4867 31.7133 49.1834 32.5207 48.5767 33.174C47.9794 33.818 47.1907 34.14 46.2107 34.14C45.4547 34.14 44.862 33.9953 44.4327 33.706V36.8ZM46.2527 28.61C45.506 28.61 44.8994 28.8993 44.4327 29.478V32.6C44.9274 32.9267 45.4874 33.09 46.1127 33.09C46.7754 33.09 47.3027 32.88 47.6947 32.46C48.096 32.0307 48.2967 31.4753 48.2967 30.794C48.2967 30.1313 48.1147 29.604 47.7507 29.212C47.3867 28.8107 46.8874 28.61 46.2527 28.61ZM56.062 32.432L56.412 33.314C55.8053 33.8647 55.0167 34.14 54.046 34.14C53.0193 34.14 52.2027 33.8413 51.596 33.244C50.98 32.6467 50.672 31.8487 50.672 30.85C50.672 29.9073 50.9613 29.1233 51.54 28.498C52.1093 27.8727 52.9027 27.56 53.92 27.56C54.76 27.56 55.4553 27.8307 56.006 28.372C56.566 28.904 56.846 29.5947 56.846 30.444C56.846 30.7147 56.8227 30.9667 56.776 31.2H51.932C51.9787 31.788 52.198 32.25 52.59 32.586C52.9913 32.922 53.5047 33.09 54.13 33.09C54.9513 33.09 55.5953 32.8707 56.062 32.432ZM53.864 28.61C53.3133 28.61 52.856 28.764 52.492 29.072C52.1373 29.38 51.9273 29.786 51.862 30.29H55.684C55.656 29.7673 55.4787 29.3567 55.152 29.058C54.8347 28.7593 54.4053 28.61 53.864 28.61ZM64.0354 34H62.9154V28.75H59.4854V34H58.3654V27.7H64.0354V34ZM71.4947 34H70.3747V28.82H68.1627L68.0927 29.884C68.018 30.752 67.906 31.4753 67.7567 32.054C67.6167 32.6233 67.43 33.0527 67.1967 33.342C66.9727 33.622 66.7347 33.818 66.4827 33.93C66.2307 34.0327 65.9227 34.084 65.5587 34.084L65.4747 32.992C65.5774 33.0013 65.6847 32.9873 65.7967 32.95C65.9087 32.9033 66.03 32.81 66.1607 32.67C66.3007 32.53 66.422 32.3433 66.5247 32.11C66.6367 31.8767 66.7347 31.55 66.8187 31.13C66.912 30.7007 66.9727 30.2107 67.0007 29.66L67.1127 27.7H71.4947V34ZM78.4839 32.432L78.8339 33.314C78.2272 33.8647 77.4385 34.14 76.4679 34.14C75.4412 34.14 74.6245 33.8413 74.0179 33.244C73.4019 32.6467 73.0939 31.8487 73.0939 30.85C73.0939 29.9073 73.3832 29.1233 73.9619 28.498C74.5312 27.8727 75.3245 27.56 76.3419 27.56C77.1819 27.56 77.8772 27.8307 78.4279 28.372C78.9879 28.904 79.2679 29.5947 79.2679 30.444C79.2679 30.7147 79.2445 30.9667 79.1979 31.2H74.3539C74.4005 31.788 74.6199 32.25 75.0119 32.586C75.4132 32.922 75.9265 33.09 76.5519 33.09C77.3732 33.09 78.0172 32.8707 78.4839 32.432ZM76.2859 28.61C75.7352 28.61 75.2779 28.764 74.9139 29.072C74.5592 29.38 74.3492 29.786 74.2839 30.29H78.1059C78.0779 29.7673 77.9005 29.3567 77.5739 29.058C77.2565 28.7593 76.8272 28.61 76.2859 28.61ZM86.5273 34H85.4073V31.34H81.9073V34H80.7873V27.7H81.9073V30.29H85.4073V27.7H86.5273V34Z" fill="#A5BBBE"/>
<circle cx="48" cy="58" r="12" fill="#A5BBBE"/>
<path d="M43 57L47 61L53 55" stroke="white" stroke-width="1.5"/>
</svg>
