<svg width="30" height="32" viewBox="0 0 30 32" fill="none" xmlns="http://www.w3.org/2000/svg">
<path d="M15 0.333313C10.405 0.333313 6.66667 4.07165 6.66667 8.66665C6.66667 13.2616 10.405 17 15 17C19.595 17 23.3333 13.2616 23.3333 8.66665C23.3333 4.07165 19.595 0.333313 15 0.333313ZM15 13.6666C12.2433 13.6666 10 11.4233 10 8.66665C10 5.90998 12.2433 3.66665 15 3.66665C17.7567 3.66665 20 5.90998 20 8.66665C20 11.4233 17.7567 13.6666 15 13.6666ZM30 32V30.3333C30 23.9016 24.765 18.6666 18.3333 18.6666H11.6667C5.23333 18.6666 0 23.9016 0 30.3333V32H3.33333V30.3333C3.33333 25.7383 7.07167 22 11.6667 22H18.3333C22.9283 22 26.6667 25.7383 26.6667 30.3333V32H30Z" fill="url(#paint0_linear)"/>
<defs>
<linearGradient id="paint0_linear" x1="0.142858" y1="0.159332" x2="34.8159" y2="25.3448" gradientUnits="userSpaceOnUse">
<stop stop-color="#FFC643"/>
<stop offset="1" stop-color="#FF9800"/>
</linearGradient>
</defs>
</svg>
