<svg width="13" height="12" viewBox="0 0 13 12" fill="none" xmlns="http://www.w3.org/2000/svg">
<path d="M5.46575 10.263C6.60435 10.2628 7.71013 9.88161 8.60704 9.18024L11.4269 12L12.334 11.093L9.51408 8.27325C10.2158 7.37631 10.5972 6.27033 10.5975 5.13149C10.5975 2.30212 8.29528 0 5.46575 0C2.63622 0 0.333984 2.30212 0.333984 5.13149C0.333984 7.96087 2.63622 10.263 5.46575 10.263ZM5.46575 1.28287C7.58838 1.28287 9.31458 3.00898 9.31458 5.13149C9.31458 7.25401 7.58838 8.98012 5.46575 8.98012C3.34313 8.98012 1.61693 7.25401 1.61693 5.13149C1.61693 3.00898 3.34313 1.28287 5.46575 1.28287Z" fill="#899D9F"/>
</svg>
