<svg width="96" height="96" viewBox="0 0 96 96" fill="none" xmlns="http://www.w3.org/2000/svg">
<rect x="0.5" y="0.5" width="95" height="95" rx="4.5" stroke="#A5BBBE" stroke-dasharray="8 8"/>
<path d="M48.001 64.2667C50.3575 64.2667 52.2677 62.3565 52.2677 60.0001C52.2677 57.6437 50.3575 55.7334 48.001 55.7334C45.6446 55.7334 43.7344 57.6437 43.7344 60.0001C43.7344 62.3565 45.6446 64.2667 48.001 64.2667Z" fill="#A5BBBE"/>
<path d="M43.9993 46.6667L41.5594 49.3334H37.3327C35.866 49.3334 34.666 50.5334 34.666 52.0001V68.0001C34.666 69.4667 35.866 70.6667 37.3327 70.6667H58.666C60.1327 70.6667 61.3327 69.4667 61.3327 68.0001V52.0001C61.3327 50.5334 60.1327 49.3334 58.666 49.3334H54.4394L51.9994 46.6667H43.9993ZM47.9994 66.6667C44.3194 66.6667 41.3327 63.6801 41.3327 60.0001C41.3327 56.3201 44.3194 53.3334 47.9994 53.3334C51.6794 53.3334 54.666 56.3201 54.666 60.0001C54.666 63.6801 51.6794 66.6667 47.9994 66.6667Z" fill="#A5BBBE"/>
<path d="M37.412 34.112H36.222V32.824H36.208C34.7987 32.824 33.6693 32.4833 32.82 31.802C31.98 31.1207 31.56 30.1733 31.56 28.96C31.56 27.7467 31.98 26.804 32.82 26.132C33.6507 25.46 34.7847 25.1147 36.222 25.096V24.088H37.412V25.096C38.8587 25.1147 40.002 25.46 40.842 26.132C41.6913 26.8133 42.116 27.756 42.116 28.96C42.116 30.164 41.6867 31.1113 40.828 31.802C39.9787 32.4833 38.854 32.824 37.454 32.824H37.412V34.112ZM37.426 26.202H37.412V31.732H37.44C38.5227 31.732 39.3627 31.494 39.96 31.018C40.5573 30.542 40.856 29.856 40.856 28.96C40.856 28.092 40.5527 27.4153 39.946 26.93C39.3487 26.4447 38.5087 26.202 37.426 26.202ZM32.82 28.96C32.82 29.8467 33.1187 30.5327 33.716 31.018C34.3227 31.494 35.1533 31.732 36.208 31.732H36.222V26.202C35.158 26.202 34.3227 26.4493 33.716 26.944C33.1187 27.4293 32.82 28.1013 32.82 28.96ZM44.0647 33.216C43.4487 32.5813 43.1407 31.7927 43.1407 30.85C43.1407 29.898 43.4487 29.114 44.0647 28.498C44.6901 27.8727 45.5021 27.56 46.5007 27.56C47.4994 27.56 48.3067 27.8727 48.9227 28.498C49.5481 29.114 49.8607 29.898 49.8607 30.85C49.8607 31.802 49.5481 32.5907 48.9227 33.216C48.3067 33.832 47.4994 34.14 46.5007 34.14C45.5114 34.14 44.6994 33.832 44.0647 33.216ZM44.9467 29.24C44.5361 29.6507 44.3307 30.1873 44.3307 30.85C44.3307 31.5127 44.5314 32.0493 44.9327 32.46C45.3434 32.88 45.8661 33.09 46.5007 33.09C47.1354 33.09 47.6534 32.8847 48.0547 32.474C48.4654 32.054 48.6707 31.5127 48.6707 30.85C48.6707 30.206 48.4654 29.6693 48.0547 29.24C47.6534 28.82 47.1354 28.61 46.5007 28.61C45.8661 28.61 45.3481 28.82 44.9467 29.24ZM52.7427 28.82H50.4327V27.7H56.1727V28.82H53.8627V34H52.7427V28.82ZM57.6956 33.216C57.0796 32.5813 56.7716 31.7927 56.7716 30.85C56.7716 29.898 57.0796 29.114 57.6956 28.498C58.3209 27.8727 59.1329 27.56 60.1316 27.56C61.1303 27.56 61.9376 27.8727 62.5536 28.498C63.1789 29.114 63.4916 29.898 63.4916 30.85C63.4916 31.802 63.1789 32.5907 62.5536 33.216C61.9376 33.832 61.1303 34.14 60.1316 34.14C59.1423 34.14 58.3303 33.832 57.6956 33.216ZM58.5776 29.24C58.1669 29.6507 57.9616 30.1873 57.9616 30.85C57.9616 31.5127 58.1623 32.0493 58.5636 32.46C58.9743 32.88 59.4969 33.09 60.1316 33.09C60.7663 33.09 61.2843 32.8847 61.6856 32.474C62.0963 32.054 62.3016 31.5127 62.3016 30.85C62.3016 30.206 62.0963 29.6693 61.6856 29.24C61.2843 28.82 60.7663 28.61 60.1316 28.61C59.4969 28.61 58.9789 28.82 58.5776 29.24Z" fill="#A5BBBE"/>
</svg>
