<svg width="40" height="40" viewBox="0 0 40 40" fill="none" xmlns="http://www.w3.org/2000/svg">
<circle cx="20" cy="20" r="20" fill="#8F5DB7"/>
<g clip-path="url(#clip0)">
<path d="M20.1263 11.1225C20.2807 11 20.3755 11 20.8704 11C21.1196 11 21.4917 11.0315 21.7058 11.063C22.7273 11.1856 23.3802 11.3396 24.2788 11.7738C25.1774 12.2079 25.7355 12.6071 26.5112 13.3178C27.2238 13.9971 27.5959 14.5223 28.0311 15.3591C28.6208 16.504 28.9297 17.831 28.9929 19.3155C29.0245 19.8092 28.9929 19.9352 28.87 20.0893C28.6524 20.3659 28.1575 20.3379 27.9714 19.9983C27.9083 19.9072 27.9083 19.8127 27.8802 19.41C27.8486 18.7903 27.817 18.3912 27.7257 17.894C27.3853 16.0103 26.4551 14.4943 24.9668 13.4124C23.7207 12.516 22.636 12.1729 20.9652 12.0504C20.3755 12.0504 20.2842 12.0504 20.1579 11.9278C19.9086 11.7738 19.9086 11.3396 20.1263 11.1225Z" fill="white"/>
<path d="M23.1942 14.9878C22.6045 14.6482 21.7059 14.3681 20.9021 14.3086C20.6248 14.2771 20.4387 14.2176 20.344 14.0915C20.1579 13.9374 20.1579 13.6573 20.2808 13.4718C20.4352 13.2232 20.6844 13.1952 21.397 13.3177C23.1942 13.5663 24.5877 14.3996 25.5179 15.7301C26.0444 16.4724 26.3533 17.3687 26.4481 18.2965C26.4797 18.6361 26.4797 19.2559 26.4481 19.3784C26.4165 19.4694 26.2937 19.627 26.1708 19.655C26.0479 19.718 25.7987 19.718 25.6759 19.6235C25.4582 19.501 25.367 19.3469 25.367 18.8497C25.367 18.1075 25.1809 17.3057 24.8089 16.6859C24.4333 15.9752 23.8752 15.3905 23.1942 14.9878Z" fill="white"/>
<path d="M23.9704 19.067C23.7843 19.2211 23.4754 19.2211 23.2894 19.067C23.135 18.976 23.1034 18.8499 23.0718 18.5418C23.0402 18.1392 22.9489 17.8626 22.8541 17.614C22.6049 17.0573 22.1416 16.7807 21.3658 16.6862C20.9938 16.6546 20.9025 16.5951 20.7761 16.4691C20.5585 16.2205 20.6533 15.8213 20.9306 15.6638C21.0534 15.6008 21.085 15.6008 21.3343 15.6323C21.4887 15.6323 21.7063 15.6638 21.8292 15.6953C22.4189 15.8178 22.8506 16.0349 23.2543 16.3745C23.7492 16.8367 24.03 17.3619 24.1213 18.1672C24.188 18.6959 24.1564 18.913 23.9704 19.067Z" fill="white"/>
<path d="M28.9579 25.6493C28.9579 25.3727 28.8667 25.1556 28.6806 24.9385C28.4946 24.7214 27.2239 23.7026 26.6061 23.2999C26.1428 22.9918 25.4302 22.5576 25.1178 22.4036C24.6826 22.1865 24.2508 22.155 23.8472 22.281C23.7559 22.3126 23.6927 22.3441 23.6295 22.3721C23.4435 22.4631 23.289 22.6487 22.917 23.0828C22.6677 23.3909 22.4536 23.671 22.422 23.671C22.422 23.671 22.3904 23.671 22.3904 23.7026C22.3589 23.7341 22.2676 23.7656 22.2044 23.7936C21.8007 23.9792 21.2742 23.8566 20.4072 23.454C19.7262 23.1143 19.1365 22.7117 18.4556 22.0955C17.8659 21.5703 17.2797 20.9226 16.9673 20.3939C16.532 19.7146 16.2231 18.8498 16.2231 18.3526C16.2231 18.1356 16.3144 17.859 16.4092 17.7049L16.4408 17.6734C16.4408 17.6734 16.4408 17.6734 16.4723 17.6419C16.5039 17.6104 16.5355 17.5788 16.5636 17.5788C16.6865 17.4878 16.8409 17.3303 16.9989 17.2077C17.7114 16.651 17.8659 16.4654 17.9606 16.1573C18.0519 15.8492 17.9606 15.4466 17.6518 14.8899C17.0936 13.871 15.5457 11.9243 14.9876 11.5532C14.8963 11.4902 14.7383 11.4306 14.6471 11.3676C14.3943 11.3081 14.0539 11.2766 13.8678 11.3081C13.5905 11.3711 13.2465 11.5847 12.4743 12.1414C12.0074 12.4845 11.3897 13.0692 11.2352 13.3178C10.8947 13.906 10.9228 14.3682 11.3265 15.5131C11.6986 16.532 12.1935 17.5508 12.7516 18.5417L12.7832 18.5732C12.906 18.7588 13.0324 18.9759 13.1553 19.1614C13.1553 19.1929 13.1869 19.1929 13.1869 19.2244C13.3097 19.41 13.4361 19.6271 13.5589 19.8127C13.6221 19.8757 13.6502 19.9667 13.7134 20.0297C13.8046 20.1838 13.8994 20.3063 14.0223 20.4639C14.1767 20.681 14.3312 20.898 14.5172 21.1116C16.2863 23.3944 18.3292 25.2501 20.7477 26.7627C20.7793 26.7942 20.8109 26.7942 20.839 26.8257C21.211 27.0428 21.5831 27.2598 21.9552 27.4734C22.0184 27.5049 22.0464 27.5364 22.1096 27.5645C22.4817 27.7815 22.8854 27.9671 23.2855 28.1527C23.3171 28.1842 23.3768 28.1842 23.4084 28.2157C23.812 28.4013 24.2438 28.5868 24.6791 28.7724C25.2056 28.9895 25.3916 29.021 25.7953 28.9895C25.9813 28.9895 26.1674 28.958 26.3218 28.8984C26.571 28.8354 26.7851 28.7129 27.066 28.5273C27.1291 28.4958 27.1572 28.4643 27.2204 28.4363C27.2836 28.4048 27.3433 28.3452 27.4064 28.2822C27.7469 28.0056 28.119 27.5715 28.4279 27.1688C28.6455 26.8922 28.8 26.6121 28.8912 26.395C28.9263 26.0834 28.9579 25.8663 28.9579 25.6493Z" fill="white"/>
</g>
<defs>
<clipPath id="clip0">
<rect x="11" y="11" width="18" height="18" fill="white"/>
</clipPath>
</defs>
</svg>
