<svg width="208" height="208" viewBox="0 0 208 208" fill="none" xmlns="http://www.w3.org/2000/svg">
<g clip-path="url(#clip0)">
<path d="M170.016 13.5403V194.46C170.016 201.939 163.954 208 156.475 208H51.5247C44.0456 208 37.9844 201.939 37.9844 194.46V13.5403C37.9844 6.06125 44.0456 0 51.5247 0H156.475C163.954 0 170.016 6.06125 170.016 13.5403Z" fill="#57616C"/>
<path d="M170.015 13.5403V194.46C170.015 201.939 163.954 208 156.475 208H145.303C152.782 208 158.843 201.939 158.843 194.46V13.5403C158.843 6.06125 152.782 0 145.303 0H156.475C163.954 0 170.015 6.06125 170.015 13.5403Z" fill="#3A4B56"/>
<path d="M158.844 15.2344V192.766C158.844 195.008 157.024 196.828 154.781 196.828H53.2188C50.9763 196.828 49.1562 195.008 49.1562 192.766V15.2344C49.1562 12.9919 50.9763 11.1719 53.2188 11.1719H73.5312C75.1806 11.1719 76.6634 12.1672 77.2891 13.6947L79.3203 18.6509C79.9297 20.1297 81.3516 21.0844 82.9481 21.0844H125.052C126.648 21.0844 128.07 20.1297 128.68 18.6509L130.711 13.6947C131.337 12.1672 132.819 11.1719 134.469 11.1719H154.781C157.024 11.1719 158.844 12.9919 158.844 15.2344Z" fill="#FFE6C7"/>
<path d="M158.844 15.2344V192.766C158.844 195.008 157.024 196.828 154.781 196.828H143.812C146.055 196.828 147.875 195.008 147.875 192.766V15.2344C147.875 12.9919 146.055 11.1719 143.812 11.1719H154.781C157.024 11.1719 158.844 12.9919 158.844 15.2344Z" fill="#FFC796"/>
<path d="M122.281 180.733H85.7188C84.0357 180.733 82.6719 182.098 82.6719 183.78C82.6719 185.463 84.0357 186.827 85.7188 186.827H122.281C123.964 186.827 125.328 185.463 125.328 183.78C125.328 182.098 123.964 180.733 122.281 180.733Z" fill="#57616C"/>
<path d="M127.421 119.715C126.231 118.525 124.302 118.525 123.112 119.715L96.1332 146.694L83.7211 134.282C82.5311 133.092 80.6023 133.091 79.412 134.282C78.2221 135.472 78.2221 137.401 79.412 138.59L93.9785 153.157C94.5501 153.729 95.3248 154.05 96.1332 154.05C96.9416 154.05 97.716 153.729 98.288 153.157L127.422 124.023C128.611 122.834 128.611 120.905 127.421 119.715Z" fill="#7BE976"/>
<rect x="59.7188" y="41.4375" width="87.75" height="13.4062" rx="5" fill="white"/>
<rect x="59.7188" y="66.625" width="87.75" height="13.4062" rx="5" fill="white"/>
</g>
<defs>
<clipPath id="clip0">
<rect width="208" height="208" fill="white"/>
</clipPath>
</defs>
</svg>
