<svg width="208" height="208" viewBox="0 0 208 208" fill="none" xmlns="http://www.w3.org/2000/svg">
<g clip-path="url(#clip0)">
<path d="M170.016 13.5403V194.46C170.016 201.939 163.954 208 156.475 208H51.5247C44.0456 208 37.9844 201.939 37.9844 194.46V13.5403C37.9844 6.06125 44.0456 0 51.5247 0H156.475C163.954 0 170.016 6.06125 170.016 13.5403Z" fill="#57616C"/>
<path d="M170.015 13.5403V194.46C170.015 201.939 163.954 208 156.475 208H145.303C152.782 208 158.843 201.939 158.843 194.46V13.5403C158.843 6.06125 152.782 0 145.303 0H156.475C163.954 0 170.015 6.06125 170.015 13.5403Z" fill="#3A4B56"/>
<path d="M158.844 15.2344V192.766C158.844 195.008 157.024 196.828 154.781 196.828H53.2188C50.9763 196.828 49.1562 195.008 49.1562 192.766V15.2344C49.1562 12.9919 50.9763 11.1719 53.2188 11.1719H73.5312C75.1806 11.1719 76.6634 12.1672 77.2891 13.6947L79.3203 18.6509C79.9297 20.1297 81.3516 21.0844 82.9481 21.0844H125.052C126.648 21.0844 128.07 20.1297 128.68 18.6509L130.711 13.6947C131.337 12.1672 132.819 11.1719 134.469 11.1719H154.781C157.024 11.1719 158.844 12.9919 158.844 15.2344Z" fill="#FFE6C7"/>
<path d="M158.844 15.2344V192.766C158.844 195.008 157.024 196.828 154.781 196.828H143.812C146.055 196.828 147.875 195.008 147.875 192.766V15.2344C147.875 12.9919 146.055 11.1719 143.812 11.1719H154.781C157.024 11.1719 158.844 12.9919 158.844 15.2344Z" fill="#FFC796"/>
<path d="M122.281 180.733H85.7188C84.0357 180.733 82.6719 182.098 82.6719 183.78C82.6719 185.463 84.0357 186.827 85.7188 186.827H122.281C123.964 186.827 125.328 185.463 125.328 183.78C125.328 182.098 123.964 180.733 122.281 180.733Z" fill="#57616C"/>
<rect x="60" y="46" width="87" height="45" rx="5" fill="white"/>
<rect x="60" y="101" width="87" height="45" rx="5" fill="white"/>
<path d="M94 16C94 13.2386 96.2386 11 99 11H203C205.761 11 208 13.2386 208 16V64.9091C208 67.6705 205.761 69.9091 203 69.9091H114.556C113.543 69.9091 112.553 70.2169 111.719 70.7918L97.1347 80.8402C95.8079 81.7544 94 80.8045 94 79.1933V16Z" fill="#8C94CB"/>
<path d="M117 102C117 99.2386 114.761 97 112 97H8C5.23858 97 3 99.2386 3 102V150.909C3 153.671 5.23858 155.909 8 155.909H96.4443C97.4575 155.909 98.4468 156.217 99.2811 156.792L113.865 166.84C115.192 167.754 117 166.805 117 165.193V102Z" fill="#63BB66"/>
<path d="M62.568 122.621C62.0152 122.426 61.5065 122.239 61.0371 122.059V114.362C62.4649 114.598 63.3221 115.337 63.3849 115.393C63.8754 115.839 64.6341 115.806 65.0841 115.318C65.5362 114.828 65.5054 114.064 65.0152 113.612C64.9304 113.534 63.4519 112.202 61.0369 111.924V110.207C61.0369 109.54 60.4966 109 59.8298 109C59.1629 109 58.6226 109.54 58.6226 110.207V112.021C58.3315 112.077 58.0334 112.148 57.7269 112.24C55.6791 112.857 54.1485 114.613 53.7321 116.822C53.3543 118.827 53.9899 120.756 55.3912 121.855C56.1955 122.486 57.2084 123.063 58.6226 123.681V133.228C57.2255 133.17 56.3676 132.906 54.868 131.926C54.3101 131.561 53.5621 131.717 53.1971 132.275C52.8321 132.833 52.9885 133.581 53.5465 133.946C55.5171 135.235 56.8344 135.571 58.6226 135.641V137.557C58.6226 138.224 59.1629 138.764 59.8298 138.764C60.4966 138.764 61.0369 138.224 61.0369 137.557V135.556C64.4257 135.006 66.4032 132.263 66.8332 129.705C67.371 126.507 65.6965 123.727 62.568 122.621ZM56.8812 119.955C56.192 119.415 55.8946 118.385 56.1049 117.27C56.2998 116.235 57.0113 114.977 58.4235 114.552C58.4907 114.532 58.5568 114.514 58.6229 114.497V121.017C57.8999 120.657 57.333 120.309 56.8812 119.955ZM64.4526 129.304C64.1862 130.888 63.0234 132.579 61.0371 133.088V124.636C61.2719 124.722 61.5119 124.809 61.7632 124.898C64.7674 125.96 64.5812 128.539 64.4526 129.304Z" fill="white"/>
<path d="M137 41L146.308 52L170 24" stroke="#7BE976" stroke-width="4" stroke-linecap="round" stroke-linejoin="round"/>
</g>
<defs>
<clipPath id="clip0">
<rect width="208" height="208" fill="white"/>
</clipPath>
</defs>
</svg>
