<svg width="24" height="22" viewBox="0 0 24 22" fill="none" xmlns="http://www.w3.org/2000/svg">
<path d="M8.93233 4.25438C9.85057 4.25438 10.5699 3.69835 10.5699 2.98855C10.5699 2.27881 9.85057 1.72278 8.93233 1.72278C8.01409 1.72278 7.29492 2.27881 7.29492 2.98855C7.29492 3.69835 8.01409 4.25438 8.93233 4.25438ZM8.93233 2.77117C9.28825 2.77117 9.49451 2.92438 9.5203 2.98848C9.49451 3.05264 9.28825 3.20586 8.93233 3.20586C8.57655 3.20586 8.37022 3.05264 8.34443 2.98848C8.37029 2.92438 8.57655 2.77117 8.93233 2.77117Z" fill="white"/>
<path d="M15.0677 4.25438C15.986 4.25438 16.7051 3.69835 16.7051 2.98855C16.7051 2.27881 15.986 1.72278 15.0677 1.72278C14.1495 1.72278 13.4302 2.27881 13.4302 2.98855C13.4302 3.69835 14.1496 4.25438 15.0677 4.25438ZM15.0677 2.77117C15.4235 2.77117 15.6298 2.92431 15.6556 2.98848C15.6298 3.05264 15.4235 3.20586 15.0677 3.20586C14.7119 3.20586 14.5055 3.05264 14.4797 2.98848C14.5055 2.92438 14.7119 2.77117 15.0677 2.77117Z" fill="white"/>
<path d="M6.45638 14.1545C7.12439 14.6363 8.00355 14.9015 8.93213 14.9015C9.86072 14.9015 10.74 14.6362 11.408 14.1545C11.6398 13.9872 11.8375 13.8004 11.9998 13.5986C12.1621 13.8004 12.3598 13.9873 12.5917 14.1545C13.2597 14.6363 14.139 14.9015 15.0676 14.9015C15.9961 14.9015 16.8753 14.6362 17.5433 14.1545C18.263 13.6353 18.6594 12.9287 18.6594 12.1647V8.89134C18.6594 8.42101 18.5087 7.97262 18.2252 7.57623C18.5105 7.17747 18.6594 6.73041 18.6594 6.26189V2.98854C18.6594 2.22456 18.263 1.51797 17.5433 0.998845C16.8753 0.517045 15.9961 0.251785 15.0676 0.251785C14.139 0.251785 13.2597 0.517115 12.5917 0.998845C12.36 1.16604 12.1622 1.35287 11.9998 1.55467C11.8376 1.35287 11.6399 1.16604 11.408 0.998845C10.74 0.517045 9.86072 0.251785 8.93213 0.251785C8.00355 0.251785 7.12439 0.517115 6.45638 0.998845C5.73665 1.51797 5.34033 2.22456 5.34033 2.98854V6.26189C5.34033 6.73034 5.48914 7.17747 5.77446 7.57623C5.49103 7.97269 5.34033 8.42108 5.34033 8.89134V12.1647C5.34033 12.9287 5.73665 13.6353 6.45638 14.1545ZM8.93213 13.8531C7.55348 13.8531 6.38879 13.0799 6.38879 12.1647V10.8298C6.41129 10.8469 6.43317 10.8643 6.45638 10.881C7.12439 11.3628 8.00355 11.6282 8.93213 11.6282C9.86072 11.6282 10.74 11.3628 11.408 10.881C11.4312 10.8643 11.4531 10.8469 11.4756 10.8297V12.1647C11.4756 13.0799 10.3109 13.8531 8.93213 13.8531ZM6.38879 4.92699C6.41129 4.94412 6.43317 4.96152 6.45638 4.97823C7.12439 5.4601 8.00355 5.72536 8.93213 5.72536C9.86072 5.72536 10.74 5.46003 11.408 4.97823C11.4312 4.96152 11.4531 4.94405 11.4756 4.92692V6.26189C11.4756 6.48248 11.4093 6.67589 11.3172 6.83847C10.6674 6.39965 9.82744 6.15452 8.93213 6.15452C8.045 6.15452 7.2033 6.39728 6.54745 6.83903C6.45533 6.67631 6.38879 6.48276 6.38879 6.26189V4.92699ZM8.93213 7.20298C9.76677 7.20298 10.5523 7.48285 11.0334 7.95172C11.2352 8.1482 11.4755 8.47077 11.4755 8.89134C11.4755 9.80658 10.3108 10.5797 8.93206 10.5797C7.55341 10.5797 6.38872 9.80651 6.38872 8.89134C6.38879 7.97611 7.55348 7.20298 8.93213 7.20298ZM15.0675 7.20298C16.4461 7.20298 17.6108 7.97618 17.6108 8.89134C17.6108 9.80658 16.4461 10.5797 15.0675 10.5797C13.6888 10.5797 12.524 9.80651 12.524 8.89134C12.5241 7.97611 13.6888 7.20298 15.0675 7.20298ZM17.4522 6.83903C16.7964 6.39728 15.9547 6.15452 15.0676 6.15452C14.1804 6.15452 13.3388 6.39728 12.6829 6.83889C12.5908 6.67617 12.5241 6.48262 12.5241 6.26189V4.92699C12.5467 4.94412 12.5686 4.96152 12.5917 4.97823C13.2597 5.4601 14.139 5.72536 15.0676 5.72536C15.9962 5.72536 16.8754 5.46003 17.5434 4.97823C17.5666 4.96152 17.5885 4.94412 17.611 4.92699V6.26189C17.6108 6.48276 17.5444 6.67624 17.4522 6.83903ZM15.0675 13.8531C13.6888 13.8531 12.524 13.0799 12.524 12.1647V10.8298C12.5465 10.8469 12.5685 10.8643 12.5917 10.881C13.2596 11.3628 14.1389 11.6282 15.0675 11.6282C15.9961 11.6282 16.8752 11.3628 17.5432 10.881C17.5664 10.8643 17.5883 10.8469 17.6108 10.8298V12.1647C17.6108 13.0799 16.4461 13.8531 15.0675 13.8531ZM15.0675 1.30017C16.4461 1.30017 17.6108 2.07337 17.6108 2.98847C17.6108 3.9037 16.4461 4.6769 15.0675 4.6769C13.6888 4.6769 12.524 3.90363 12.524 2.98847C12.5241 2.07337 13.6888 1.30017 15.0675 1.30017ZM8.93213 1.30017C10.3109 1.30017 11.4756 2.07337 11.4756 2.98847C11.4756 3.9037 10.3109 4.6769 8.93213 4.6769C7.55348 4.6769 6.38879 3.90363 6.38879 2.98847C6.38879 2.07337 7.55348 1.30017 8.93213 1.30017Z" fill="white"/>
<path d="M8.93233 10.1572C9.85057 10.1572 10.5699 9.60113 10.5699 8.89132C10.5699 8.18152 9.85057 7.62549 8.93233 7.62549C8.01409 7.62549 7.29492 8.18152 7.29492 8.89132C7.29492 9.60113 8.01409 10.1572 8.93233 10.1572ZM8.93233 8.67394C9.28825 8.67394 9.49451 8.82716 9.5203 8.89132C9.49451 8.95549 9.28825 9.1087 8.93233 9.1087C8.57655 9.1087 8.37022 8.95549 8.34443 8.89132C8.37022 8.82716 8.57655 8.67394 8.93233 8.67394Z" fill="white"/>
<path d="M15.0677 10.1572C15.986 10.1572 16.7051 9.60113 16.7051 8.89132C16.7051 8.18152 15.986 7.62549 15.0677 7.62549C14.1495 7.62549 13.4302 8.18152 13.4302 8.89132C13.4302 9.60113 14.1496 10.1572 15.0677 10.1572ZM15.0677 8.67394C15.4235 8.67394 15.6298 8.82716 15.6556 8.89132C15.6298 8.95549 15.4235 9.1087 15.0677 9.1087C14.7119 9.1087 14.5055 8.95549 14.4797 8.89132C14.5055 8.82716 14.7119 8.67394 15.0677 8.67394Z" fill="white"/>
<path d="M23.4711 19.0048L16.867 18.792L23.4926 18.5787C23.633 18.5742 23.7656 18.5135 23.8608 18.4104C23.956 18.3073 24.006 18.1702 23.9994 18.0301L23.9196 16.3349C23.9131 16.1955 23.8512 16.0645 23.7477 15.9709C23.6444 15.8773 23.508 15.8296 23.3685 15.836L0.518406 17.0345C0.233715 17.0494 0.0131895 17.289 0.0218567 17.5739L0.0588323 18.7874L0.000607993 20.0005C-0.0131617 20.2888 0.208622 20.534 0.496878 20.5491L23.347 21.7476C23.3561 21.7481 23.3653 21.7484 23.3745 21.7484C23.5041 21.7484 23.6296 21.7002 23.7262 21.6128C23.8297 21.5192 23.8915 21.3882 23.8981 21.2488L23.9779 19.5536C23.9846 19.4134 23.9346 19.2764 23.8393 19.1733C23.744 19.07 23.6114 19.0094 23.4711 19.0048ZM22.8971 16.9106L22.9272 17.5479L1.09135 18.2509L1.08541 18.0546L22.8971 16.9106ZM22.8755 20.6729L1.0729 19.5294L1.08241 19.3324L22.9056 20.0357L22.8755 20.6729Z" fill="white"/>
</svg>
