<svg width="18" height="24" viewBox="0 0 18 24" fill="none" xmlns="http://www.w3.org/2000/svg">
<path d="M7.68421 10.7827H7.13196C6.67744 10.7827 6.30762 11.1525 6.30762 11.607V21.2268C6.30762 21.6813 6.67739 22.0512 7.13196 22.0512H7.68421C8.13873 22.0512 8.50855 21.6813 8.50855 21.2268V11.607C8.50855 11.1525 8.13878 10.7827 7.68421 10.7827ZM7.80511 21.2268C7.80511 21.2935 7.7509 21.3477 7.68421 21.3477H7.13196C7.06532 21.3477 7.01106 21.2935 7.01106 21.2268V11.607C7.01106 11.5403 7.06527 11.4861 7.13196 11.4861H7.68421C7.75085 11.4861 7.80511 11.5403 7.80511 11.607V21.2268Z" fill="white"/>
<path d="M4.71567 13.1573C4.52142 13.1573 4.36395 13.3147 4.36395 13.509V21.2269C4.36395 21.2935 4.30973 21.3477 4.24305 21.3477H3.6908C3.62416 21.3477 3.5699 21.2935 3.5699 21.2269V13.4218C3.5699 13.2275 3.41242 13.0701 3.21818 13.0701C3.02393 13.0701 2.86646 13.2275 2.86646 13.4218V21.2269C2.86646 21.6814 3.23623 22.0512 3.6908 22.0512H4.24305C4.69757 22.0512 5.06739 21.6814 5.06739 21.2269V13.509C5.06739 13.3147 4.90991 13.1573 4.71567 13.1573Z" fill="white"/>
<path d="M11.1727 10.7827H10.6204C10.1659 10.7827 9.79614 11.1525 9.79614 11.607V14.6153C9.79614 14.8096 9.95357 14.9671 10.1479 14.9671C10.3422 14.9671 10.4996 14.8096 10.4996 14.6153V11.607C10.4996 11.5404 10.5538 11.4862 10.6204 11.4862H11.1727C11.2394 11.4862 11.2936 11.5404 11.2936 11.607V21.2269C11.2936 21.2935 11.2394 21.3477 11.1727 21.3477H10.6204C10.5538 21.3477 10.4996 21.2935 10.4996 21.2269V16.1142C10.4996 15.9199 10.3422 15.7625 10.1479 15.7625C9.95357 15.7625 9.79614 15.9199 9.79614 16.1142V21.2269C9.79614 21.6814 10.1659 22.0512 10.6204 22.0512H11.1727C11.6272 22.0512 11.997 21.6814 11.997 21.2269V11.607C11.997 11.1525 11.6272 10.7827 11.1727 10.7827Z" fill="white"/>
<path d="M15.8395 7.98767H13.7857V7.21289C14.3315 6.91102 14.702 6.32946 14.702 5.66282C14.702 5.18997 14.5179 4.74539 14.1836 4.41106C13.8492 4.07669 13.4046 3.89253 12.9318 3.89258H12.4111V3.69153C12.4111 2.71543 11.617 1.92128 10.6409 1.92128H9.5748C9.45756 0.842479 8.54116 -1.52588e-05 7.43173 -1.52588e-05C6.3223 -1.52588e-05 5.4059 0.842479 5.28866 1.92128H4.22256C3.24646 1.92128 2.45231 2.71543 2.45231 3.69153V3.89258H1.93167C0.955568 3.89258 0.161377 4.68672 0.161377 5.66282C0.161377 6.31018 0.510849 6.87721 1.03088 7.18593V21.6837C1.03088 22.9609 2.06997 24 3.34715 24H11.4694C12.7466 24 13.7857 22.9609 13.7857 21.6837V19.4424H15.8396C16.9418 19.4424 17.8385 18.5457 17.8385 17.4434V9.98663C17.8385 8.88437 16.9418 7.98767 15.8395 7.98767ZM1.93167 4.59602H2.80404C2.99828 4.59602 3.15576 4.43859 3.15576 4.2443V3.69153C3.15576 3.10331 3.63434 2.62473 4.22256 2.62473H5.51043C5.76906 2.62473 5.97944 2.41435 5.97944 2.15572C5.97944 1.35492 6.63093 0.703431 7.43173 0.703431C8.23253 0.703431 8.88402 1.35492 8.88402 2.15572C8.88402 2.41435 9.09444 2.62473 9.35308 2.62473H10.6409C11.2292 2.62473 11.7077 3.10331 11.7077 3.69153V4.2443C11.7077 4.43859 11.8652 4.59602 12.0595 4.59602H12.9318C13.2168 4.59602 13.4847 4.70693 13.6862 4.90845C13.8877 5.10996 13.9986 5.37788 13.9986 5.66282C13.9986 6.25105 13.5201 6.72962 12.9318 6.72962H7.22501C6.555 6.72962 5.92514 6.99051 5.45139 7.46426C4.97764 7.93805 4.71671 8.56792 4.71671 9.23788V11.2131C4.71671 11.5546 4.43889 11.8324 4.09739 11.8324C3.75589 11.8324 3.47808 11.5546 3.47808 11.2131V7.50252C3.47808 7.07633 3.13133 6.72962 2.70513 6.72962H1.93162C1.3434 6.72962 0.864823 6.25105 0.864823 5.66282C0.864823 5.0746 1.3434 4.59602 1.93167 4.59602ZM1.93162 7.43307H2.70513C2.74345 7.43307 2.77463 7.46426 2.77463 7.50252V8.57852H1.73433V7.42181C1.79914 7.42904 1.86494 7.43307 1.93162 7.43307ZM11.4694 23.2965H3.34715C2.45785 23.2965 1.73433 22.573 1.73433 21.6837V9.28201H2.77463V11.2131C2.77463 11.9425 3.36801 12.5359 4.09739 12.5359C4.82678 12.5359 5.42016 11.9425 5.42016 11.2131V9.28201H10.1472C10.3415 9.28201 10.4989 9.12458 10.4989 8.93029C10.4989 8.73599 10.3415 8.57856 10.1472 8.57856H5.54438C5.63391 8.35013 5.77005 8.14041 5.94877 7.96173C6.28966 7.6208 6.74292 7.43312 7.22497 7.43312H12.9318C12.9825 7.43312 13.0326 7.43049 13.0822 7.42627V8.57861H11.6461C11.4518 8.57861 11.2944 8.73604 11.2944 8.93033C11.2944 9.12462 11.4518 9.28206 11.6461 9.28206H13.0822V21.6837C13.0822 22.573 12.3588 23.2965 11.4694 23.2965ZM17.135 17.4434C17.135 18.1578 16.5538 18.739 15.8395 18.739H13.7857V17.9417H15.8395C16.1142 17.9417 16.3378 17.7182 16.3378 17.4434V13.1422C16.3378 12.9479 16.1804 12.7905 15.9861 12.7905C15.7918 12.7905 15.6343 12.9479 15.6343 13.1422V17.2383H13.7857V10.1918H15.6343V11.6433C15.6343 11.8376 15.7918 11.9951 15.9861 11.9951C16.1804 11.9951 16.3378 11.8376 16.3378 11.6433V9.98663C16.3378 9.71191 16.1142 9.48835 15.8395 9.48835H13.7857V8.69111H15.8395C16.5538 8.69111 17.135 9.2723 17.135 9.98663V17.4434Z" fill="white"/>
</svg>
