<svg width="24" height="20" viewBox="0 0 24 20" fill="none" xmlns="http://www.w3.org/2000/svg">
<path d="M11.9998 4.93396C11.8565 4.93396 11.7154 4.87578 11.6143 4.77396C11.5125 4.67221 11.4543 4.53185 11.4543 4.3885C11.4543 4.24458 11.5125 4.10414 11.6143 4.00232C11.7154 3.90116 11.8558 3.84305 11.9998 3.84305C12.1438 3.84305 12.2842 3.90123 12.3853 4.00232C12.4871 4.10407 12.5453 4.2445 12.5453 4.3885C12.5453 4.53185 12.4871 4.67214 12.3853 4.77396C12.2842 4.87578 12.1431 4.93396 11.9998 4.93396Z" fill="white"/>
<path d="M16.5584 6.44094C16.4144 6.44094 16.274 6.38268 16.1722 6.28094C16.0711 6.17977 16.0129 6.03875 16.0129 5.89548C16.0129 5.75148 16.0711 5.61111 16.1722 5.50995C16.274 5.4082 16.4144 5.35002 16.5584 5.35002C16.7017 5.35002 16.842 5.4082 16.9438 5.50995C17.0457 5.61111 17.1038 5.75141 17.1038 5.89548C17.1038 6.03875 17.0457 6.17977 16.9438 6.28094C16.8421 6.38268 16.7017 6.44094 16.5584 6.44094Z" fill="white"/>
<path d="M7.44219 6.44094C7.29819 6.44094 7.15782 6.38268 7.056 6.28094C6.95491 6.17977 6.89673 6.03875 6.89673 5.89548C6.89673 5.75148 6.95491 5.61111 7.056 5.50995C7.15782 5.4082 7.29819 5.35002 7.44219 5.35002C7.58546 5.35002 7.72582 5.4082 7.82764 5.50995C7.92874 5.61111 7.98765 5.75141 7.98765 5.89548C7.98765 6.03875 7.92874 6.17977 7.82764 6.28094C7.72575 6.38268 7.58539 6.44094 7.44219 6.44094Z" fill="white"/>
<path d="M22.6695 14.9531C22.8687 14.6332 22.9847 14.2564 22.9847 13.8525C22.9847 13.3009 22.7694 12.7989 22.4188 12.4252C22.7071 12.1472 22.8873 11.7579 22.8873 11.3268C22.8873 11.0138 22.792 10.7232 22.6297 10.4809C23.4504 9.98341 24 9.08152 24 8.05367C24 6.01876 22.7145 4.12676 20.3802 2.72617C18.1332 1.37796 15.1571 0.635483 12 0.635483C8.84298 0.635483 5.86676 1.37796 3.61978 2.72617C1.28553 4.12676 0 6.01876 0 8.05367C0 9.08152 0.549527 9.98334 1.37018 10.4809C1.20793 10.7233 1.11265 11.0139 1.11265 11.3268C1.11265 11.758 1.29302 12.1473 1.58131 12.4253C1.23076 12.7991 1.01527 13.3009 1.01527 13.8526C1.01527 14.2564 1.13091 14.6334 1.33004 14.9533C0.678764 15.1217 0 15.5676 0 16.7495C0 18.1914 1.04385 19.3645 2.32691 19.3645H21.6732C22.9562 19.3645 24 18.1914 24 16.7495C24 15.5673 23.3209 15.1214 22.6695 14.9531ZM1.09091 8.05367C1.09091 6.41701 2.18836 4.85723 4.18109 3.66159C6.26102 2.41366 9.03782 1.72639 12 1.72639C14.9622 1.72639 17.7391 2.41366 19.819 3.66159C21.8116 4.85723 22.9091 6.41701 22.9091 8.05367C22.9091 9.01614 22.1261 9.79927 21.1636 9.79927H2.83636C1.87389 9.79927 1.09091 9.01621 1.09091 8.05367ZM2.64007 11.7633C2.39935 11.7633 2.20356 11.5676 2.20356 11.3268C2.20356 11.0862 2.39935 10.8903 2.64007 10.8903H21.36C21.6007 10.8903 21.7964 11.0861 21.7964 11.3268C21.7964 11.5676 21.6007 11.7633 21.36 11.7633H2.64007ZM3.10458 12.8542H6.09316C6.52771 12.9679 9.15534 13.6812 11.3742 14.851H3.10458C2.55404 14.851 2.10618 14.4031 2.10618 13.8525C2.10618 13.3021 2.55411 12.8542 3.10458 12.8542ZM9.60065 12.8542H17.8932C16.3066 13.8248 15.0527 15.0324 14.4327 15.6826C13.2276 14.4658 11.2863 13.5138 9.60065 12.8542ZM20.3799 12.8542H20.8954C21.446 12.8542 21.8939 13.3021 21.8939 13.8526C21.8939 14.4031 21.446 14.8511 20.8954 14.8511H16.9592C17.9053 14.0933 19.0964 13.3057 20.3799 12.8542ZM21.6732 18.2736H2.32691C1.64538 18.2736 1.09091 17.59 1.09091 16.7495C1.09091 16.2617 1.17695 15.942 2.32691 15.942H13.0895C13.4436 16.223 13.7529 16.5204 13.9966 16.8332C14.0974 16.9626 14.2511 17.0397 14.4151 17.0433C14.4191 17.0434 14.423 17.0434 14.427 17.0434C14.5866 17.0434 14.7385 16.9734 14.8423 16.8516C14.8513 16.841 15.173 16.467 15.7187 15.942H21.6732C22.8231 15.942 22.909 16.2617 22.909 16.7495C22.9091 17.5899 22.3547 18.2736 21.6732 18.2736Z" fill="white"/>
</svg>
