<svg width="208" height="208" viewBox="0 0 208 208" fill="none" xmlns="http://www.w3.org/2000/svg">
<path d="M68.25 94.25L65 104H29.25L22.8775 81.9226L22.75 81.0213V56.2942C22.75 54.0024 23.3559 51.7513 24.5062 49.7691C25.6565 47.7869 27.3104 46.1441 29.3002 45.007L45.5 35.75L58.5 39L70.5481 51.0481C70.8499 51.3499 71.0893 51.7082 71.2526 52.1025C71.4159 52.4968 71.5 52.9194 71.5 53.3462V78L68.25 94.25Z" fill="#9BA8E9"/>
<path d="M42.25 22.75H61.75V32.5C61.75 35.0859 60.7228 37.5658 58.8943 39.3943C57.0658 41.2228 54.5859 42.25 52 42.25C49.4141 42.25 46.9342 41.2228 45.1057 39.3943C43.2772 37.5658 42.25 35.0859 42.25 32.5V22.75Z" fill="#FFDDCE"/>
<path d="M45.5 9.75H58.5C59.362 9.75 60.1886 10.0924 60.7981 10.7019C61.4076 11.3114 61.75 12.138 61.75 13V22.75H42.25V13C42.25 12.138 42.5924 11.3114 43.2019 10.7019C43.8114 10.0924 44.638 9.75 45.5 9.75Z" fill="#C59191"/>
<path d="M87.75 91L65.5501 75.1429C65.1873 74.8837 64.8816 74.5527 64.6522 74.1704L58.1885 63.3975C56.2369 60.1448 53.8937 57.1437 51.2114 54.4614C49.4007 52.6507 47.251 51.2143 44.8852 50.2344C42.5193 49.2544 39.9836 48.75 37.4228 48.75H29.25C27.5261 48.75 25.8728 49.4348 24.6538 50.6538C23.4348 51.8728 22.75 53.5261 22.75 55.25V66.625C22.75 67.1295 22.8675 67.6272 23.0931 68.0784C23.3188 68.5297 23.6464 68.9223 24.05 69.225L48.3641 87.4605C48.62 87.6525 48.9028 87.8056 49.2034 87.9149L82.1714 99.9032L87.75 91Z" fill="#8795DE"/>
<path d="M191.75 188.5H115.185C113.138 188.502 111.143 187.858 109.483 186.662C107.822 185.465 106.581 183.776 105.936 181.833L105.812 181.457C105.102 179.356 105.135 177.074 105.907 174.994C106.678 172.914 108.14 171.162 110.049 170.031L121.827 162.963L125.173 168.537L113.394 175.605C112.764 175.988 112.281 176.573 112.024 177.265C111.768 177.957 111.753 178.715 111.982 179.417L112.106 179.794C112.323 180.438 112.737 180.997 113.29 181.393C113.842 181.789 114.505 182.001 115.185 182H191.75V188.5Z" fill="#C9BFC8"/>
<path d="M107.713 115.423L99.8582 102.329C99.5677 101.849 99.1585 101.451 98.6699 101.174C98.1813 100.898 97.6298 100.752 97.0684 100.75H94.25V94.25H97.0684C98.7512 94.2552 100.404 94.6932 101.869 95.5219C103.334 96.3507 104.56 97.5423 105.431 98.9822L113.287 112.077L107.713 115.423Z" fill="#C9BFC8"/>
<path d="M125.153 169H180.347C181.76 169 183.134 168.54 184.261 167.689C185.389 166.839 186.209 165.644 186.597 164.286L198 124.375C198.166 123.795 198.25 123.194 198.25 122.59V117C198.25 115.276 197.565 113.623 196.346 112.404C195.127 111.185 193.474 110.5 191.75 110.5H113.75C112.026 110.5 110.373 111.185 109.154 112.404C107.935 113.623 107.25 115.276 107.25 117V122.59C107.25 123.194 107.334 123.795 107.5 124.375L118.903 164.286C119.291 165.644 120.111 166.839 121.239 167.689C122.366 168.54 123.74 169 125.153 169Z" fill="#EFEDEF"/>
<path d="M126.75 198.25C130.34 198.25 133.25 195.34 133.25 191.75C133.25 188.16 130.34 185.25 126.75 185.25C123.16 185.25 120.25 188.16 120.25 191.75C120.25 195.34 123.16 198.25 126.75 198.25Z" fill="#EFEDEF"/>
<path d="M175.5 198.25C179.09 198.25 182 195.34 182 191.75C182 188.16 179.09 185.25 175.5 185.25C171.91 185.25 169 188.16 169 191.75C169 195.34 171.91 198.25 175.5 198.25Z" fill="#EFEDEF"/>
<path d="M152.75 110.5V87.75C152.75 86.888 153.092 86.0614 153.702 85.4519C154.311 84.8424 155.138 84.5 156 84.5H188.5C189.362 84.5 190.189 84.8424 190.798 85.4519C191.408 86.0614 191.75 86.888 191.75 87.75V110.5" fill="#CC4C4D"/>
<path d="M182 94.25H175.5V78C175.5 77.138 175.158 76.3114 174.548 75.7019C173.939 75.0924 173.112 74.75 172.25 74.75C171.388 74.75 170.561 75.0924 169.952 75.7019C169.342 76.3114 169 77.138 169 78V94.25H162.5V78C162.5 75.4141 163.527 72.9342 165.356 71.1057C167.184 69.2772 169.664 68.25 172.25 68.25C174.836 68.25 177.316 69.2772 179.144 71.1057C180.973 72.9342 182 75.4141 182 78V94.25Z" fill="#9B413A"/>
<path d="M113.75 110.5V78C113.75 77.138 114.092 76.3114 114.702 75.7019C115.311 75.0924 116.138 74.75 117 74.75H149.5C150.362 74.75 151.189 75.0924 151.798 75.7019C152.408 76.3114 152.75 77.138 152.75 78V110.5H113.75Z" fill="#EEBF3E"/>
<path d="M143 84.5H136.5V68.25C136.5 67.388 136.158 66.5614 135.548 65.9519C134.939 65.3424 134.112 65 133.25 65C132.388 65 131.561 65.3424 130.952 65.9519C130.342 66.5614 130 67.388 130 68.25V84.5H123.5V68.25C123.5 65.6641 124.527 63.1842 126.356 61.3557C128.184 59.5272 130.664 58.5 133.25 58.5C135.836 58.5 138.316 59.5272 140.144 61.3557C141.973 63.1842 143 65.6641 143 68.25V84.5Z" fill="#C69324"/>
<path d="M29.2505 155.63C29.2505 155.876 29.2226 156.121 29.1673 156.361L20.4192 194.269C20.3092 194.746 20.3082 195.241 20.4161 195.717C20.5241 196.194 20.7382 196.641 21.0426 197.023C21.3469 197.406 21.7337 197.715 22.1741 197.927C22.6144 198.14 23.097 198.25 23.5859 198.25H25.9479C26.9327 198.25 27.8967 197.966 28.7247 197.433C29.5526 196.9 30.2096 196.14 30.6171 195.243L45.3457 162.841C45.4486 162.614 45.5251 162.377 45.5739 162.133L48.7505 146.25V104H29.2505V155.63Z" fill="#B0A9A5"/>
<path d="M29.25 104V114.72C29.25 116.196 29.7523 117.628 30.6744 118.78L42.0917 133.052C42.1971 133.184 42.292 133.324 42.3757 133.47L54.9512 155.477C55.1487 155.823 55.281 156.202 55.3416 156.595L61.326 195.494C61.4441 196.261 61.8329 196.961 62.4221 197.467C63.0113 197.972 63.7619 198.25 64.5382 198.25H68.4739C69.2957 198.25 70.0871 197.939 70.6886 197.379C71.2901 196.818 71.657 196.051 71.7156 195.232L74.7075 153.345C74.7356 152.951 74.692 152.557 74.5787 152.179L65.1371 120.707C65.0462 120.404 65 120.089 65 119.773V104H29.25Z" fill="#EFE8E0"/>
<path d="M60.1758 91.9047L82.1718 99.9033L87.7504 90.9999L69.9193 78.2632L60.1758 91.9047Z" fill="#FFDDCE"/>
<path d="M87.75 91H91C91.862 91 92.6886 91.3424 93.2981 91.9519C93.9076 92.5614 94.25 93.388 94.25 94.25V100.75C94.25 101.612 93.9076 102.439 93.2981 103.048C92.6886 103.658 91.862 104 91 104H87.75C86.0261 104 84.3728 103.315 83.1538 102.096C81.9348 100.877 81.25 99.2239 81.25 97.5C81.25 95.7761 81.9348 94.1228 83.1538 92.9038C84.3728 91.6848 86.0261 91 87.75 91Z" fill="#FFBCA7"/>
</svg>
