<svg width="80" height="80" viewBox="0 0 80 80" fill="none" xmlns="http://www.w3.org/2000/svg">
<g clip-path="url(#clip0)">
<path d="M75.9771 12.8773V25.2717H4.02539V12.8773C4.02539 11.0246 5.06845 9.41494 6.60084 8.60689C7.27368 8.24955 8.03988 8.04834 8.85436 8.04834H71.1481C73.0008 8.04834 74.6105 9.0914 75.4185 10.6238C75.7759 11.2966 75.9771 12.0628 75.9771 12.8773Z" fill="#FD646F"/>
<path d="M23.3425 8.04834V17.0624C23.3425 17.951 22.6214 18.6721 21.7328 18.6721H14.3284C13.4399 18.6721 12.7188 17.951 12.7188 17.0624V8.04834H23.3425Z" fill="#FC4755"/>
<path d="M64.7097 8.04834V17.0624C64.7097 17.951 63.9886 18.6721 63.1 18.6721H55.6956C54.8071 18.6721 54.0859 17.951 54.0859 17.0624V8.04834H64.7097Z" fill="#FC4755"/>
<path d="M6.60084 8.60693V25.2717H4.02539V12.8774C4.02539 11.0246 5.06845 9.41498 6.60084 8.60693Z" fill="#FC4755"/>
<path d="M17.2248 34.9006H25.5064C25.9509 34.9006 26.3113 35.261 26.3113 35.7055V43.9872C26.3113 44.4316 25.9509 44.792 25.5064 44.792H17.2248C16.7803 44.792 16.4199 44.4316 16.4199 43.9872V35.7055C16.4199 35.261 16.7803 34.9006 17.2248 34.9006Z" fill="#E6E6E6"/>
<path d="M17.2248 47.2065H25.5064C25.9509 47.2065 26.3113 47.5669 26.3113 48.0114V56.2947C26.3113 56.7391 25.9509 57.0995 25.5064 57.0995H17.2248C16.7803 57.0995 16.4199 56.7391 16.4199 56.2947V48.0114C16.4199 47.5669 16.7803 47.2065 17.2248 47.2065Z" fill="#E6E6E6"/>
<path d="M17.2248 59.5139H25.5064C25.9509 59.5139 26.3113 59.8743 26.3113 60.3187V68.6004C26.3113 69.0449 25.9509 69.4053 25.5064 69.4053H17.2248C16.7803 69.4053 16.4199 69.0449 16.4199 68.6004V60.3187C16.4199 59.8743 16.7803 59.5139 17.2248 59.5139Z" fill="#E6E6E6"/>
<path d="M29.5294 34.9006H37.9882C38.4326 34.9006 38.793 35.261 38.793 35.7055V43.9872C38.793 44.4316 38.4326 44.792 37.9882 44.792H29.5294C29.085 44.792 28.7246 44.4316 28.7246 43.9872V35.7055C28.7246 35.261 29.085 34.9006 29.5294 34.9006Z" fill="#E6E6E6"/>
<path d="M29.5294 47.2065H37.9882C38.4326 47.2065 38.793 47.5669 38.793 48.0114V56.2947C38.793 56.7391 38.4326 57.0995 37.9882 57.0995H29.5294C29.085 57.0995 28.7246 56.7391 28.7246 56.2947V48.0114C28.7246 47.5669 29.085 47.2065 29.5294 47.2065Z" fill="#E6E6E6"/>
<path d="M29.5294 59.5139H37.9882C38.4326 59.5139 38.793 59.8743 38.793 60.3187V68.6004C38.793 69.0449 38.4326 69.4053 37.9882 69.4053H29.5294C29.085 69.4053 28.7246 69.0449 28.7246 68.6004V60.3187C28.7246 59.8743 29.085 59.5139 29.5294 59.5139Z" fill="#E6E6E6"/>
<path d="M42.0138 34.9006H50.4726C50.917 34.9006 51.2774 35.261 51.2774 35.7055V43.9872C51.2774 44.4316 50.917 44.792 50.4726 44.792H42.0138C41.5694 44.792 41.209 44.4316 41.209 43.9872V35.7055C41.209 35.261 41.5694 34.9006 42.0138 34.9006Z" fill="#E6E6E6"/>
<path d="M42.0138 47.2065H50.4726C50.917 47.2065 51.2774 47.5669 51.2774 48.0114V56.2947C51.2774 56.7391 50.917 57.0995 50.4726 57.0995H42.0138C41.5694 57.0995 41.209 56.7391 41.209 56.2947V48.0114C41.209 47.5669 41.5694 47.2065 42.0138 47.2065Z" fill="#E6E6E6"/>
<path d="M42.0138 59.5139H50.4726C50.917 59.5139 51.2774 59.8743 51.2774 60.3187V68.6004C51.2774 69.0449 50.917 69.4053 50.4726 69.4053H42.0138C41.5694 69.4053 41.209 69.0449 41.209 68.6004V60.3187C41.209 59.8743 41.5694 59.5139 42.0138 59.5139Z" fill="#E6E6E6"/>
<path d="M63.5828 35.7055V43.9872C63.5828 44.4316 63.2224 44.792 62.7779 44.792H54.4962C54.0518 44.792 53.6914 44.4316 53.6914 43.9872V35.7055C53.6914 35.261 54.0518 34.9006 54.4962 34.9006H62.7779C63.2224 34.9006 63.5828 35.261 63.5828 35.7055Z" fill="#E6E6E6"/>
<path d="M54.4962 47.2065H62.7779C63.2224 47.2065 63.5828 47.5669 63.5828 48.0114V56.2947C63.5828 56.7391 63.2224 57.0995 62.7779 57.0995H54.4962C54.0518 57.0995 53.6914 56.7391 53.6914 56.2947V48.0114C53.6914 47.5669 54.0518 47.2065 54.4962 47.2065Z" fill="#E6E6E6"/>
<path d="M54.4962 59.5139H62.7779C63.2224 59.5139 63.5828 59.8743 63.5828 60.3187V68.6004C63.5828 69.0449 63.2224 69.4053 62.7779 69.4053H54.4962C54.0518 69.4053 53.6914 69.0449 53.6914 68.6004V60.3187C53.6914 59.8743 54.0518 59.5139 54.4962 59.5139Z" fill="#E6E6E6"/>
<path d="M4.02539 24.145V75.1712C4.02539 77.8384 6.18716 80.0002 8.85436 80.0002H71.1481C73.8153 80.0002 75.9771 77.8384 75.9771 75.1712V24.145H4.02539Z" fill="#F5F5F5"/>
<path d="M23.3413 1.60966V14.4869C23.3413 15.3755 22.6201 16.0966 21.7316 16.0966H16.9026C16.0141 16.0966 15.293 15.3755 15.293 14.4869V1.60966C15.293 0.721127 16.0141 0 16.9026 0H21.7316C22.6201 0 23.3413 0.721127 23.3413 1.60966Z" fill="#50758D"/>
<path d="M16.4199 34.9006H26.3113V44.792H16.4199V34.9006Z" fill="#63BB66"/>
<path d="M53.6914 34.9006H63.5828V44.792H53.6914V34.9006Z" fill="#63BB66"/>
<path d="M28.7246 34.9006H38.793V44.792H28.7246V34.9006Z" fill="#63BB66"/>
<path d="M16.4199 47.2065H26.3113V57.0995H16.4199V47.2065Z" fill="#63BB66"/>
<path d="M53.6914 47.2065H63.5828V57.0995H53.6914V47.2065Z" fill="#E6E6E6"/>
<path d="M28.7246 47.2065H38.793V57.0995H28.7246V47.2065Z" fill="#63BB66"/>
<path d="M16.4199 59.5139H26.3113V69.4053H16.4199V59.5139Z" fill="#E6E6E6"/>
<path d="M53.6914 59.5139H63.5828V69.4053H53.6914V59.5139Z" fill="#E6E6E6"/>
<path d="M28.7246 59.5139H38.793V69.4053H28.7246V59.5139Z" fill="#E6E6E6"/>
<path d="M41.207 34.9006H51.2754V44.792H41.207V34.9006Z" fill="#63BB66"/>
<path d="M41.207 47.2065H51.2754V57.0995H41.207V47.2065Z" fill="#63BB66"/>
<path d="M41.207 59.5139H51.2754V69.4053H41.207V59.5139Z" fill="#E6E6E6"/>
<path d="M64.7104 1.60966V14.4869C64.7104 15.3755 63.9893 16.0966 63.1007 16.0966H58.2718C57.3832 16.0966 56.6621 15.3755 56.6621 14.4869V1.60966C56.6621 0.721127 57.3832 0 58.2718 0H63.1007C63.9893 0 64.7104 0.721127 64.7104 1.60966Z" fill="#50758D"/>
<path d="M4.02539 24.145V75.1712C4.02539 77.8384 6.18716 80.0002 8.85436 80.0002H10.6379C8.38595 79.5913 6.68133 77.6211 6.68133 75.2517V27.5607C6.86322 27.0698 7.33485 26.7205 7.88857 26.7205H75.9771V24.2255V24.145H4.02539Z" fill="#E6E6E6"/>
<path d="M19.4781 16.0966H16.9026C16.0141 16.0966 15.293 15.3755 15.293 14.4869V1.60966C15.293 0.721127 16.0141 0 16.9026 0H17.8684V14.4869C17.8684 15.3755 18.5895 16.0966 19.4781 16.0966Z" fill="#2B597F"/>
<path d="M60.8472 16.0966H58.2718C57.3832 16.0966 56.6621 15.3755 56.6621 14.4869V1.60966C56.6621 0.721127 57.3832 0 58.2718 0H59.2376V14.4869C59.2376 15.3755 59.9587 16.0966 60.8472 16.0966Z" fill="#2B597F"/>
</g>
<defs>
<clipPath id="clip0">
<rect width="80" height="80" fill="white"/>
</clipPath>
</defs>
</svg>
