<svg width="208" height="208" viewBox="0 0 208 208" fill="none" xmlns="http://www.w3.org/2000/svg">
<path d="M1.54688 32.7655C1.54688 14.509 16.4782 -0.26018 34.7952 0.00347596C52.5382 0.258601 66.9653 14.8097 67.0774 32.5539C67.1404 42.4911 62.7781 51.4095 55.8466 57.459C55.115 58.0972 55.2206 59.2624 56.0563 59.7568L62.2301 63.4098C63.2282 64.0005 62.8094 65.5304 61.6495 65.5304L33.6922 65.5235C15.8826 65.1924 1.54688 50.6539 1.54688 32.7655Z" fill="#7ACAA6"/>
<path d="M62.228 63.41L56.0538 59.7569C55.2226 59.2654 55.1072 58.1019 55.8348 57.4673C62.8455 51.3537 67.2306 42.3053 67.0717 32.2359C66.7967 14.8188 52.6998 0.521636 35.2875 0.0142295C32.8183 -0.0576768 30.4085 0.144229 28.0859 0.590698C43.1363 3.47589 54.6063 16.742 54.7063 32.5536C54.7546 40.211 52.1753 47.2635 47.8179 52.8645C45.1866 56.2465 46.0418 61.1508 49.7297 63.3332L49.8589 63.4095C50.8461 63.9937 50.4455 65.4944 49.3149 65.5269L61.6471 65.5298C62.8069 65.5306 63.2262 64.0002 62.228 63.41Z" fill="#57BE92"/>
<path d="M161.196 118.932H86.8666C68.3017 118.932 58.1423 97.2965 69.9995 83.0111L70.6588 82.2165C75.8824 75.9232 78.7416 68.0018 78.7416 59.8232V45.4894C78.742 20.3661 99.1081 0 124.231 0C149.355 0 169.721 20.3661 169.721 45.4894V60.307C169.721 68.5713 172.64 76.57 177.964 82.8917C189.969 97.1478 179.834 118.932 161.196 118.932Z" fill="#C59191"/>
<path d="M200.269 155.769V204.909H47.7949V156.138C47.7949 145.097 54.4127 135.131 64.5852 130.849L89.1999 120.149L97.4874 116.545C103.776 113.811 107.843 107.608 107.843 100.75V97.5693H140.217V100.588C140.217 107.474 144.324 113.702 150.657 116.415L183.95 130.687C193.87 135.082 200.269 144.914 200.269 155.769Z" fill="white"/>
<path d="M89.1993 131.865C97.6002 134.375 109.965 137.053 125.037 136.789C139.179 136.542 150.788 133.792 158.866 131.212L162.88 121.654L150.658 116.415C144.326 113.701 140.22 107.476 140.22 100.586V97.5703H107.846V100.75C107.846 107.607 103.779 113.81 97.4913 116.544L87.5918 120.848L89.1993 131.865Z" fill="#FFDDCE"/>
<path d="M183.948 130.685L158.87 119.936L158.865 119.936V204.908H200.269V155.769C200.269 144.915 193.871 135.082 183.948 130.685Z" fill="#8795DE"/>
<path d="M89.1999 120.148V204.908H47.7949V156.138C47.7949 145.096 54.4127 135.131 64.5852 130.849L89.1999 120.148Z" fill="#8795DE"/>
<path d="M135.253 115.339C138.978 115.339 142.527 114.591 145.762 113.242C142.292 110.039 140.218 105.48 140.218 100.586V97.5703H107.844V100.75C107.844 103.227 107.311 105.618 106.336 107.791C111.238 112.464 117.87 115.339 125.177 115.339H135.253V115.339Z" fill="#FFBCA7"/>
<path d="M156.387 48.8693V75.6513C156.387 90.7395 144.156 102.97 129.068 102.97H118.993C103.905 102.97 91.6738 90.739 91.6738 75.6513V48.8693C91.6738 39.0539 99.6306 31.0967 109.446 31.0967H138.615C148.431 31.0971 156.387 39.0539 156.387 48.8693Z" fill="#FFDDCE"/>
<path d="M156.389 62.8032C156.377 62.8402 156.362 62.8759 156.351 62.9137C155.364 66.3242 152.772 72.7665 146.508 77.5964C143.592 79.8458 140.265 81.4708 136.621 82.4271C134.969 82.8606 133.981 84.551 134.415 86.2028C134.779 87.5918 136.032 88.5111 137.404 88.5111C137.663 88.5111 137.927 88.4782 138.191 88.4091C142.64 87.2416 146.709 85.2514 150.285 82.4942C152.755 80.5897 154.753 78.4861 156.371 76.3712C156.378 76.1315 156.39 75.893 156.39 75.6517V62.8032H156.389Z" fill="#7A6D79"/>
<path d="M133.23 90.9753H125.984C122.686 90.9753 120.012 88.3014 120.012 85.003C120.012 81.7047 122.686 79.0308 125.984 79.0308H133.23C136.529 79.0308 139.203 81.7047 139.203 85.003C139.202 88.3018 136.529 90.9753 133.23 90.9753Z" fill="#685E68"/>
<path d="M130.488 24.0082C131.182 15.2576 139.559 9.45026 147.578 6.44238C160.841 14.3899 169.721 28.9015 169.721 45.4891V48.6164C168.988 48.7704 168.258 48.9053 167.537 49.0129C163.119 49.6727 159.358 49.3871 156.788 49.0129C140.228 46.807 129.65 34.5768 130.488 24.0082Z" fill="#B98080"/>
<path d="M124.231 0C134.504 0 143.981 3.40681 151.597 9.15078C147.798 15.7609 139.075 28.8299 122.718 38.5052C110.575 45.6881 99.1254 48.1016 92.0745 49.0128H78.7422V45.489C78.7418 20.3661 99.1079 0 124.231 0V0Z" fill="#C59191"/>
<path d="M175.083 204.908H76.0982L70.6386 153.405C70.2515 149.752 73.1151 146.569 76.7884 146.569H174.393C178.066 146.569 180.93 149.752 180.543 153.405L175.083 204.908Z" fill="#EFEDEF"/>
<path d="M174.392 146.569H162.023C165.697 146.569 168.56 149.752 168.173 153.405L162.714 204.908H175.082L180.542 153.405C180.929 149.752 178.066 146.569 174.392 146.569Z" fill="#E5E1E5"/>
<path d="M204.953 208H3.04688C1.36378 208 0 206.636 0 204.953C0 203.27 1.36378 201.906 3.04688 201.906H204.953C206.636 201.906 208 203.27 208 204.953C208 206.636 206.636 208 204.953 208Z" fill="#C9BFC8"/>
<path d="M125.59 184.397C130.371 184.397 134.248 180.52 134.248 175.739C134.248 170.957 130.371 167.081 125.59 167.081C120.808 167.081 116.932 170.957 116.932 175.739C116.932 180.52 120.808 184.397 125.59 184.397Z" fill="#C9BFC8"/>
<path d="M21.9435 35.8573C23.6512 35.8573 25.0355 34.473 25.0355 32.7653C25.0355 31.0577 23.6512 29.6733 21.9435 29.6733C20.2359 29.6733 18.8516 31.0577 18.8516 32.7653C18.8516 34.473 20.2359 35.8573 21.9435 35.8573Z" fill="white"/>
<path d="M34.3127 35.8573C36.0203 35.8573 37.4046 34.473 37.4046 32.7653C37.4046 31.0577 36.0203 29.6733 34.3127 29.6733C32.605 29.6733 31.2207 31.0577 31.2207 32.7653C31.2207 34.473 32.605 35.8573 34.3127 35.8573Z" fill="white"/>
<path d="M46.6799 35.8573C48.3875 35.8573 49.7718 34.473 49.7718 32.7653C49.7718 31.0577 48.3875 29.6733 46.6799 29.6733C44.9722 29.6733 43.5879 31.0577 43.5879 32.7653C43.5879 34.473 44.9722 35.8573 46.6799 35.8573Z" fill="white"/>
</svg>
