<svg width="208" height="208" viewBox="0 0 208 208" fill="none" xmlns="http://www.w3.org/2000/svg">
<path d="M187.322 164.267V205.684C187.322 206.964 186.286 208 185.002 208H175.361L104.064 203.937L32.7434 208H22.9974C21.7137 208 20.6777 206.964 20.6777 205.684V164.267C20.6777 159.737 24.3502 156.065 28.8799 156.065H47.998L54.0918 160.127L60.1855 156.065H147.814L153.907 160.127L160.001 156.065H179.119C183.649 156.065 187.322 159.737 187.322 164.267Z" fill="#7BE976"/>
<path d="M187.322 164.267V205.684C187.322 206.964 186.286 208 185.002 208H175.361L104.064 203.937L32.7434 208H22.9974C21.7137 208 20.6777 206.964 20.6777 205.684V199.928H172.598C176.242 199.928 179.197 196.974 179.197 193.329V164.267C179.197 159.737 175.524 156.065 170.994 156.065H179.119C183.649 156.065 187.322 159.737 187.322 164.267Z" fill="#63BB66"/>
<path d="M103.895 0C100.159 0 97.1309 3.02819 97.1309 6.76366V21.66H110.658V6.76366C110.658 3.02819 107.63 0 103.895 0Z" fill="#57616C"/>
<path d="M148.119 33.2758V68.1158L104.065 61.6158L59.8242 68.1158V33.2758C59.8242 21.8114 69.1111 12.5205 80.5673 12.5205H127.375C138.832 12.5205 148.119 21.8114 148.119 33.2758Z" fill="#7BE976"/>
<path d="M148.119 33.2758V68.1158L104.065 61.6158L59.8242 68.1158V56.7083C82.3914 51.1833 105.584 49.9686 128.424 53.0439C133.477 53.7264 137.962 49.7818 137.962 44.6874V33.2758C137.962 21.8114 128.675 12.5205 117.219 12.5205H127.375C138.832 12.5205 148.119 21.8114 148.119 33.2758Z" fill="#63BB66"/>
<path d="M175.362 187.07V208H32.7441V187.07C32.7441 177.596 39.037 169.37 47.9988 166.782L85.7882 157.54L91.821 156.065H115.956L121.989 157.527L160.075 166.77C169.053 169.349 175.362 177.584 175.362 187.07Z" fill="#8C94CB"/>
<path d="M160.075 166.77L121.989 157.527L115.956 156.065H91.821L97.4411 166.393C99.5012 167.177 100.844 169.207 100.844 171.411V194.634C100.844 197.593 98.4445 199.993 95.4846 199.993H32.7441V208H175.362V187.07C175.362 177.584 169.053 169.349 160.075 166.77ZM167.205 191.754C167.205 196.304 163.516 199.993 158.962 199.993H111.463C108.965 199.993 106.938 197.966 106.938 195.463V177.45C106.938 175.545 108.12 173.83 109.911 173.197C113.941 171.775 117.321 168.976 119.487 165.36C121.628 161.781 126.157 160.424 129.992 162.065L156.264 173.294C162.898 176.13 167.205 182.65 167.205 189.869V191.754Z" fill="#776FB3"/>
<path d="M115.013 150.658C115.09 152.628 115.379 154.566 115.956 156.065C115.956 162.732 110.553 168.135 103.89 168.135C97.2234 168.135 91.8203 162.732 91.8203 156.065C92.4053 154.55 92.6897 152.588 92.7628 150.593C92.8847 147.355 92.4459 144.024 91.8203 142.334H115.956C115.326 144.036 114.887 147.4 115.013 150.658Z" fill="#FFE6C7"/>
<path d="M115.013 150.658C111.515 151.921 107.798 152.584 104.04 152.584H103.894C100.083 152.584 96.3094 151.897 92.7628 150.593C92.8847 147.355 92.4459 144.024 91.8203 142.334H115.956C115.326 144.036 114.887 147.4 115.013 150.658Z" fill="#FFD5B0"/>
<path d="M64.195 100.845C57.4561 100.845 51.9701 95.4292 51.8877 88.6952C51.8036 81.8434 57.3383 76.2437 64.195 76.2437L68.2575 88.5445L64.195 100.845Z" fill="#FFC796"/>
<path d="M143.746 100.859C150.485 100.859 155.971 95.4429 156.053 88.7089C156.138 81.8571 150.603 76.2573 143.746 76.2573L139.684 88.5582L143.746 100.859Z" fill="#FFC796"/>
<path d="M144.149 105.808C144.149 115.387 136.004 126.831 119.929 139.831C118.645 140.871 117.272 141.777 115.83 142.541C112.202 144.462 108.135 145.482 103.975 145.474C98.1536 145.482 92.5108 143.487 88.0014 139.819C71.9383 126.827 63.793 115.383 63.793 105.808C63.793 104.792 63.8295 103.776 63.9148 102.797C64.2155 99.7424 64.378 89.0459 64.3577 78.6418C64.3536 74.624 64.317 70.6468 64.252 67.1774L103.89 63.123L143.739 67.1896C143.731 79.5112 143.613 98.5927 144.027 102.773C144.109 103.776 144.149 104.792 144.149 105.808Z" fill="#FFE6C7"/>
<path d="M144.149 105.808C144.149 115.387 136.004 126.831 119.929 139.831C118.645 140.871 117.272 141.777 115.829 142.541C115.854 142.472 115.899 142.403 115.955 142.334C133.111 122.362 134.805 115.387 134.805 105.808C134.805 104.792 134.765 103.776 134.684 102.773C134.489 100.795 134.411 92.7346 134.387 83.4884C134.375 79.438 131.389 76.0215 127.379 75.4365C106.409 72.3774 85.0804 73.4459 64.3576 78.6418C64.3535 74.624 64.317 70.6468 64.252 67.1774L103.89 63.123L143.739 67.1896C143.731 79.5112 143.613 98.5927 144.027 102.773C144.109 103.776 144.149 104.792 144.149 105.808Z" fill="#FFD5B0"/>
<path d="M112.634 111.453C110.952 111.453 109.587 112.817 109.587 114.5C109.587 117.636 107.037 120.188 103.901 120.188C100.766 120.188 98.2148 117.636 98.2148 114.5C98.2148 112.817 96.8507 111.453 95.168 111.453C93.4853 111.453 92.1211 112.817 92.1211 114.5C92.1211 120.996 97.4056 126.281 103.901 126.281C110.397 126.281 115.681 120.996 115.681 114.5C115.681 112.817 114.317 111.453 112.634 111.453Z" fill="#FFC796"/>
<path d="M98.2307 101.65C99.7228 102.429 101.563 101.849 102.341 100.357C102.677 99.7132 103.337 99.313 104.064 99.313C104.792 99.313 105.452 99.7132 105.788 100.357C106.331 101.399 107.393 101.996 108.492 101.996C108.966 101.996 109.448 101.885 109.898 101.65C111.39 100.872 111.969 99.0315 111.19 97.5393C109.801 94.8743 107.07 93.2192 104.064 93.2192C101.058 93.2192 98.327 94.8747 96.9376 97.5393C96.1596 99.0319 96.7385 100.872 98.2307 101.65Z" fill="#FFC796"/>
<path d="M47.998 156.065H60.1855V208H47.998V156.065Z" fill="#57616C"/>
<path d="M147.814 156.065H160.002V208H147.814V156.065Z" fill="#57616C"/>
<path d="M156.964 67.6447C122.358 56.8226 85.7691 56.8035 51.1513 67.5903C49.5446 68.0908 48.648 69.7995 49.1485 71.4058C49.649 73.0125 51.3568 73.9083 52.964 73.4086C86.3931 62.9919 121.727 63.0102 155.144 73.461C155.447 73.5557 155.753 73.6008 156.055 73.6008C157.352 73.6008 158.554 72.7659 158.962 71.4627C159.464 69.8563 158.569 68.1473 156.964 67.6447Z" fill="#57616C"/>
<path d="M114.783 38.5712L106.125 29.9071C105.553 29.3355 104.778 29.0142 103.969 29.0142C103.161 29.0142 102.386 29.3355 101.814 29.9071L93.1555 38.5712C91.966 39.7615 91.9664 41.6908 93.1567 42.8799C94.3466 44.0694 96.2759 44.069 97.4654 42.8787L103.969 36.3709L110.474 42.8787C111.069 43.4742 111.848 43.7716 112.629 43.7716C113.408 43.7716 114.187 43.4742 114.783 42.8799C115.973 41.6908 115.973 39.7615 114.783 38.5712Z" fill="#57616C"/>
<path d="M47.998 199.993H60.1855V208H47.998V199.993Z" fill="#3A4B56"/>
<path d="M160.002 156.065V175.455C158.864 174.598 157.613 173.871 156.264 173.294L147.814 169.682V156.065H160.002Z" fill="#3A4B56"/>
<path d="M158.962 199.993C159.315 199.993 159.661 199.972 160.002 199.928V208H147.814V199.993H158.962Z" fill="#3A4B56"/>
</svg>
