<svg width="24" height="14" viewBox="0 0 24 14" fill="none" xmlns="http://www.w3.org/2000/svg">
<path d="M23.5385 7.92365H22.0496C21.9756 6.08926 20.4819 4.61524 18.6399 4.57211C17.7597 2.72315 15.9093 1.54458 13.8408 1.54458C13.3018 1.54458 12.7716 1.62728 12.2657 1.78405C11.776 1.10589 11.0166 0.674705 10.167 0.609977C9.97611 0.59558 9.78426 0.599948 9.59734 0.623206C8.40998 0.769518 7.46578 1.62057 7.17973 2.75132C6.86859 2.75619 6.558 2.78676 6.25522 2.84497C3.80549 3.31547 2.01614 5.43879 1.94981 7.92365H0.461458C0.206549 7.92365 0 8.1302 0 8.38511C0 8.94335 1.21117 10.4855 1.79772 11.1448C2.71227 12.1729 4.05449 13.3983 5.2549 13.3983H18.7451C19.9456 13.3983 21.2877 12.1729 22.2022 11.1448C22.7888 10.4855 24 8.94341 24 8.38511C24 8.13026 23.7934 7.92365 23.5385 7.92365ZM21.1262 7.92365H20.226C20.1533 7.06632 19.4329 6.39087 18.5572 6.39087C17.6815 6.39087 16.961 7.06638 16.8884 7.92365H16.5102C16.5102 7.9191 16.5105 7.91466 16.5105 7.91005C16.5105 7.53086 16.4328 7.16956 16.2925 6.84101C16.6333 6.21324 17.6433 5.493 18.5572 5.493C19.9282 5.493 21.052 6.5709 21.1262 7.92365ZM19.2956 7.92365H17.8187C17.8856 7.57676 18.1911 7.31379 18.5572 7.31379C18.9233 7.31379 19.2288 7.57682 19.2956 7.92365ZM13.8408 2.46756C15.443 2.46756 16.8867 3.32322 17.6606 4.68858C17.3665 4.76734 17.0845 4.884 16.8219 5.03443C16.188 3.99843 15.0693 3.36531 13.8408 3.36531C12.8262 3.36531 11.8894 3.79256 11.2326 4.532C11.034 4.30816 10.8159 4.1018 10.5821 3.9142C10.6912 3.7936 10.8072 3.67855 10.9286 3.57112C11.7319 2.85943 12.7661 2.46756 13.8408 2.46756ZM13.7775 5.17705C13.5946 5.17705 13.4121 5.1952 13.2355 5.23095C12.795 5.31961 12.3965 5.51342 12.0637 5.78261C11.9841 5.61618 11.8953 5.45411 11.7989 5.29666C12.2843 4.66108 13.0284 4.28822 13.8408 4.28822C14.7772 4.28822 15.626 4.78888 16.0826 5.60018C15.9572 5.72557 15.8399 5.85989 15.734 6.00448C15.2372 5.4946 14.5439 5.17705 13.7775 5.17705ZM15.5877 7.91011C15.5877 7.91467 15.5874 7.9191 15.5873 7.92371H11.9678C11.9677 7.91916 11.9674 7.91473 11.9674 7.91011C11.9674 7.05112 12.5773 6.30492 13.4182 6.13559C13.535 6.11197 13.6559 6.09997 13.7775 6.09997C14.7756 6.09997 15.5877 6.91195 15.5877 7.91011ZM9.71068 1.53911C9.8373 1.52336 9.96737 1.52034 10.0971 1.53025C10.5957 1.56815 11.0488 1.79254 11.3768 2.15075C10.9981 2.34893 10.6415 2.5924 10.3166 2.88016C10.1361 3.04014 9.96559 3.21414 9.80814 3.39718C9.28195 3.10898 8.71424 2.91413 8.12222 2.81827C8.36002 2.13433 8.96434 1.63115 9.71068 1.53911ZM6.4294 3.75133C6.70216 3.69885 6.98278 3.67227 7.26353 3.67227C9.13348 3.67227 10.7693 4.82924 11.3966 6.5717C11.1718 6.97046 11.0445 7.42853 11.0445 7.91011C11.0445 7.91467 11.0448 7.9191 11.0448 7.92371H10.756C10.6808 6.06182 9.14351 4.57014 7.26353 4.57014C5.38355 4.57014 3.84622 6.06182 3.7711 7.92371H2.87279C2.93869 5.88068 4.41345 4.1384 6.4294 3.75133ZM7.26353 6.39087C6.38781 6.39087 5.66732 7.06638 5.59472 7.92365H4.69457C4.76877 6.5709 5.89257 5.493 7.26353 5.493C8.63449 5.493 9.7583 6.5709 9.8325 7.92365H8.93229C8.85969 7.06638 8.1392 6.39087 7.26353 6.39087ZM8.00193 7.92365H6.52508C6.5919 7.57676 6.89744 7.31379 7.26353 7.31379C7.62962 7.31379 7.93511 7.57682 8.00193 7.92365ZM21.4157 10.6394C20.3553 11.8062 19.3819 12.4754 18.7451 12.4754H5.2549C4.61809 12.4754 3.64472 11.8062 2.58435 10.6394C1.966 9.95886 1.4846 9.29455 1.20047 8.84656H22.7996C22.5153 9.29455 22.034 9.95886 21.4157 10.6394Z" fill="white"/>
</svg>
