<svg width="67" height="66" viewBox="0 0 67 66" fill="none" xmlns="http://www.w3.org/2000/svg">
<path d="M62.4062 21.75H61V16.125H36.25V21.75H34.8438C33.7249 21.75 32.6518 22.1945 31.8606 22.9856C31.0695 23.7768 30.625 24.8499 30.625 25.9688V60C30.625 61.4918 31.2176 62.9226 32.2725 63.9775C33.3274 65.0324 34.7582 65.625 36.25 65.625H61C62.4918 65.625 63.9226 65.0324 64.9775 63.9775C66.0324 62.9226 66.625 61.4918 66.625 60V25.9688C66.625 24.8499 66.1805 23.7768 65.3894 22.9856C64.5982 22.1945 63.5251 21.75 62.4062 21.75Z" fill="#E6E6E6"/>
<path d="M30.625 31.875H66.625V58.875H30.625V31.875Z" fill="#ED3F32"/>
<path d="M37 38H61V55H37V38Z" fill="#FFF9F8"/>
<path d="M35.6875 0.375H61.5625C62.3084 0.375 63.0238 0.671316 63.5512 1.19876C64.0787 1.72621 64.375 2.44158 64.375 3.1875V14.7188C64.375 15.0917 64.2268 15.4494 63.9631 15.7131C63.6994 15.9768 63.3417 16.125 62.9688 16.125H34.2812C33.9083 16.125 33.5506 15.9768 33.2869 15.7131C33.0232 15.4494 32.875 15.0917 32.875 14.7188V3.1875C32.875 2.44158 33.1713 1.72621 33.6988 1.19876C34.2262 0.671316 34.9416 0.375 35.6875 0.375Z" fill="#ED3F32"/>
<path d="M36.25 3.75H38.5V12.75H36.25V3.75Z" fill="#FF786D"/>
<path d="M40.75 3.75H43V12.75H40.75V3.75Z" fill="#FF786D"/>
<path d="M45.25 3.75H47.5V12.75H45.25V3.75Z" fill="#FF786D"/>
<path d="M49.75 3.75H52V12.75H49.75V3.75Z" fill="#FF786D"/>
<path d="M54.25 3.75H56.5V12.75H54.25V3.75Z" fill="#FF786D"/>
<path d="M58.75 3.75H61V12.75H58.75V3.75Z" fill="#FF786D"/>
<path d="M10.4062 30H9.84375C4.4072 30 0 34.4072 0 39.8438V56.1562C0 61.5928 4.4072 66 9.84375 66H10.4062C15.8428 66 20.25 61.5928 20.25 56.1562V39.8438C20.25 34.4072 15.8428 30 10.4062 30Z" fill="#79D8EB"/>
<path d="M12 47H0V51H9.81818L12 47Z" fill="#FFF9F8"/>
<path d="M24.375 65.75C31.2095 65.75 36.75 60.2095 36.75 53.375C36.75 46.5405 31.2095 41 24.375 41C17.5405 41 12 46.5405 12 53.375C12 60.2095 17.5405 65.75 24.375 65.75Z" fill="#FBD490"/>
<path d="M14.1787 46.3606L31.3895 63.5714C32.6347 62.7129 33.713 61.6346 34.5714 60.3894L17.3607 43.1786C16.1155 44.0371 15.0372 45.1154 14.1787 46.3606Z" fill="#E0B877"/>
</svg>
