<svg width="58" height="72" viewBox="0 0 58 72" fill="none" xmlns="http://www.w3.org/2000/svg">
<path d="M7.73257 26.154C7.29258 26.154 6.86178 25.932 6.61354 25.5288C5.80711 24.222 4.30062 22.7102 2.57086 22.7654C1.83535 22.726 1.23906 22.2164 1.21804 21.4927C1.19571 20.7664 1.76573 20.1609 2.49074 20.1386C5.2581 20.0558 7.6183 22.1533 8.84897 24.151C9.22986 24.7683 9.0381 25.5774 8.4208 25.9583C8.20671 26.091 7.96767 26.154 7.73257 26.154Z" fill="#436B1C"/>
<path d="M34.6142 8.66459C34.4382 6.10606 32.3117 4.0834 29.7086 4.0834C29.7007 4.0834 29.6941 4.08472 29.6862 4.08472C29.7322 3.69726 29.7059 3.28747 29.5812 2.86062C29.2292 1.66016 28.1732 0.738139 26.9307 0.589723C25.9115 0.468889 24.9763 0.834018 24.3209 1.48153C23.6971 0.918077 22.8801 0.566082 21.9739 0.566082C20.0313 0.566082 18.4579 2.14086 18.4579 4.08209C18.4579 4.08866 18.4592 4.09391 18.4592 4.10048C16.099 4.2791 14.2379 6.24791 14.2379 8.65408C14.2379 9.02184 14.2865 9.37777 14.3679 9.72057C11.5585 9.83747 9.3152 12.1464 9.3152 14.9847C9.3152 15.9462 9.57657 16.8445 10.0258 17.6208C9.16284 18.33 8.61121 19.4057 8.61121 20.6101C8.61121 21.7107 9.07747 22.6971 9.81561 23.3998C12.9836 20.811 16.3117 29.4691 20.231 36.3815C21.5326 38.6774 35.5953 36.2318 36.7156 37.6582C37.9923 36.5103 38.8171 16.5201 38.8525 14.7641C38.9077 11.9468 37.1188 9.54326 34.6142 8.66459Z" fill="#88C057"/>
<path d="M36.4124 34.8488L37.3488 34.288C39.0825 33.2477 41.247 33.2477 42.9794 34.288L43.9159 34.8488C45.6496 35.889 47.8141 35.889 49.5465 34.8488L52.193 33.672C52.5818 32.5871 52.8523 31.8017 52.96 31.4536C55.4293 23.5114 57.0198 15.1489 57.2365 6.80742C57.3232 3.45296 54.5493 -1.77836 49.9405 0.598916C45.4105 2.93416 42.1664 11.8903 39.8863 16.1432C36.6475 22.1862 34.0863 28.7585 32.262 35.4556C33.6516 35.8063 35.1462 35.6079 36.4124 34.8488Z" fill="#EEAF4B"/>
<path d="M2.26614 33.4999L4.03268 34.5598C6.0619 35.7774 8.59679 35.7774 10.626 34.5598L11.0805 34.2867C12.8142 33.2464 14.9787 33.2464 16.7111 34.2867L17.6475 34.8475C18.6654 35.4582 19.8317 35.6999 20.9718 35.5935C21.8124 32.8787 21.53 29.4848 20.2271 27.1877C15.8455 19.4582 12.2008 21.033 8.69398 24.3888C8.02151 25.0323 7.19932 25.5039 6.30357 25.76C2.45789 26.8593 -0.380392 28.6574 1.23379 33.5538C1.5188 33.3462 1.91545 33.2898 2.26614 33.4999Z" fill="#ED3F32"/>
<path d="M39.7471 31.9895C39.6078 31.9895 39.4647 31.9672 39.3255 31.9199C38.6385 31.6861 38.2708 30.9401 38.5046 30.2532C39.3806 27.6762 42.194 26.2972 44.7669 27.164C45.974 27.5751 47.2887 26.9263 47.6985 25.7193C47.9309 25.0323 48.6743 24.662 49.3652 24.8971C50.0521 25.1308 50.4199 25.8769 50.1861 26.5638C49.3113 29.142 46.5006 30.5264 43.9237 29.6529C42.718 29.2431 41.4033 29.8933 40.9922 31.0977C40.8044 31.6467 40.2934 31.9895 39.7471 31.9895Z" fill="#A46F3E"/>
<path d="M42.8533 22.8389C42.714 22.8389 42.5709 22.8166 42.4317 22.7693C41.7447 22.5355 41.377 21.7895 41.6108 21.1026C42.035 19.8536 42.9203 18.8435 44.1023 18.2604C45.2844 17.6772 46.6228 17.5892 47.8731 18.0135C49.0828 18.4259 50.3949 17.7757 50.8047 16.5674C51.0371 15.8792 51.7832 15.5101 52.4701 15.7452C53.157 15.979 53.5247 16.725 53.291 17.4119C52.4162 19.9915 49.6055 21.3732 47.0286 20.5024C46.4441 20.3027 45.8163 20.3435 45.2634 20.6166C44.7104 20.8898 44.2967 21.3614 44.0971 21.9471C43.9119 22.4948 43.401 22.8389 42.8533 22.8389Z" fill="#A46F3E"/>
<path d="M45.9608 13.6871C45.8216 13.6871 45.6784 13.6648 45.5379 13.6175C44.8509 13.3837 44.4832 12.6377 44.717 11.9507C45.484 9.68905 47.9519 8.47546 50.2136 9.23986C50.647 9.38696 51.1094 9.35807 51.5178 9.15712C51.9263 8.95616 52.2323 8.6068 52.3794 8.17468C52.6119 7.48777 53.3566 7.1187 54.0462 7.35249C54.7331 7.58628 55.1008 8.33229 54.867 9.01921C54.494 10.1159 53.7178 11.0025 52.6802 11.5134C51.6413 12.0256 50.4658 12.1005 49.3691 11.7288C48.4786 11.4254 47.5067 11.9048 47.2046 12.7966C47.0181 13.343 46.5072 13.6871 45.9608 13.6871Z" fill="#A46F3E"/>
<path d="M23.6945 18.5126C22.4533 20.1635 20.495 22.1179 21.2489 25.5695L23.2768 34.8488H23.2781L24.2146 34.288C25.9483 33.2477 28.1128 33.2477 29.8452 34.288L30.7817 34.8488C31.5434 35.3059 32.2619 35.4569 32.2619 35.4569C33.6305 30.4357 35.4128 25.4842 37.5838 20.7743C36.5673 18.2315 34.3962 17.3804 32.8201 16.5096C32.8109 16.5043 32.8017 16.4991 32.7938 16.4952C31.7969 15.9238 31.7352 14.5592 32.4852 13.6897C32.7807 13.3469 32.9173 12.8754 32.8148 12.4026L32.6559 11.6776C32.4812 10.879 31.6853 10.3694 30.8881 10.5441L22.9064 12.2857C22.1079 12.4603 21.5983 13.2563 21.773 14.0535L21.9319 14.7785C22.037 15.2619 22.3706 15.6362 22.7935 15.8187C23.7641 16.2377 24.3564 17.3213 23.86 18.2551C23.8127 18.3431 23.7575 18.4285 23.6945 18.5126Z" fill="#DAE7EF"/>
<path d="M32.0688 14.3149L23.0339 16.289C22.037 16.507 21.0414 15.8687 20.8234 14.8718L20.6934 14.2781C20.4753 13.2812 21.1136 12.2857 22.1105 12.0676L31.1455 10.0936C32.1424 9.87555 33.1379 10.5139 33.356 11.5108L33.486 12.1044C33.704 13.1026 33.0657 14.0969 32.0688 14.3149Z" fill="white"/>
<path d="M54.4888 33.2714L52.1969 66.1448C52.0288 69.427 49.3192 72.0013 46.033 72.0013H9.16422C5.87805 72.0013 3.16848 69.427 3.00037 66.1448L0.763623 34.3497C0.725534 33.6024 1.53591 33.1151 2.17817 33.4999L3.94471 34.5598C5.97393 35.7774 8.50882 35.7774 10.538 34.5598L10.9925 34.2867C12.7262 33.2464 14.8907 33.2464 16.6231 34.2867L17.5596 34.8488C19.2933 35.889 21.4578 35.889 23.1902 34.8488L24.1266 34.2867C25.8603 33.2464 28.0248 33.2464 29.7572 34.2867L30.6937 34.8488C32.4274 35.889 34.5919 35.889 36.3243 34.8488L37.2608 34.2867C38.9945 33.2464 41.159 33.2464 42.8914 34.2867L43.8278 34.8488C45.5615 35.889 47.726 35.889 49.4584 34.8488L53.907 32.8721C54.1893 32.746 54.5046 32.9627 54.4888 33.2714Z" fill="#FBD490"/>
<path d="M16.5233 55.1634H7.3294C6.6044 55.1634 6.01599 54.5763 6.01599 53.8499C6.01599 53.1236 6.6044 52.5365 7.3294 52.5365H16.5233C17.2483 52.5365 17.8367 53.1236 17.8367 53.8499C17.8367 54.5763 17.2483 55.1634 16.5233 55.1634Z" fill="#E0B877"/>
<path d="M19.1501 60.417H7.3294C6.6044 60.417 6.01599 59.8299 6.01599 59.1036C6.01599 58.3773 6.6044 57.7902 7.3294 57.7902H19.1501C19.8751 57.7902 20.4635 58.3773 20.4635 59.1036C20.4635 59.8299 19.8751 60.417 19.1501 60.417Z" fill="#E0B877"/>
<path d="M21.777 65.6707H7.3294C6.6044 65.6707 6.01599 65.0836 6.01599 64.3572C6.01599 63.6309 6.6044 63.0438 7.3294 63.0438H21.777C22.502 63.0438 23.0904 63.6309 23.0904 64.3572C23.0904 65.0836 22.502 65.6707 21.777 65.6707Z" fill="#E0B877"/>
<path d="M29.6574 65.6707H27.0306C26.3056 65.6707 25.7172 65.0836 25.7172 64.3572C25.7172 63.6309 26.3056 63.0438 27.0306 63.0438H29.6574C30.3824 63.0438 30.9708 63.6309 30.9708 64.3572C30.9708 65.0836 30.3824 65.6707 29.6574 65.6707Z" fill="#E0B877"/>
</svg>
