<svg width="72" height="72" viewBox="0 0 72 72" fill="none" xmlns="http://www.w3.org/2000/svg">
<path d="M12.8572 34.3111H56.5715V62.5968H12.8572V34.3111Z" fill="#F9E0A0"/>
<path d="M12.8572 38.1682H56.5715V43.3111H12.8572V38.1682Z" fill="#F4CA62"/>
<path d="M9 22.7396H60.4286V38.1682H9V22.7396Z" fill="#F9E0A0"/>
<path d="M37.818 24.0253H20.1677C16.1321 24.0212 12.8614 20.7505 12.8572 16.7148C12.8567 12.6773 16.1292 9.40371 20.1668 9.40323C22.1056 9.40291 23.9651 10.1729 25.3363 11.5436L37.818 24.0253ZM20.2127 11.9666C19.575 11.9673 18.9436 12.0921 18.3536 12.3343C16.5714 13.0537 15.4111 14.7904 15.4286 16.7122C15.4307 19.3291 17.5508 21.4504 20.1677 21.4539H31.6106L23.5183 13.3616C22.6513 12.4676 21.4583 11.9641 20.2127 11.9666Z" fill="#DC4D41"/>
<path d="M49.2609 24.0253H31.6106L44.0923 11.5436C46.9477 8.68918 51.5764 8.68982 54.431 11.5452C55.8011 12.9158 56.5711 14.7743 56.5714 16.7122C56.5679 20.7487 53.2974 24.0204 49.2609 24.0253ZM37.818 21.4539H49.2609C51.8773 21.4518 53.9979 19.3312 54 16.7148C54.0008 14.0974 51.8797 11.975 49.2625 11.974C48.0052 11.9735 46.7995 12.4727 45.9103 13.3616L37.818 21.4539Z" fill="#DC4D41"/>
<path d="M30.8572 34.3111H38.5715V62.5968H30.8572V34.3111Z" fill="#DC4D41"/>
<path d="M30.8572 38.1682H38.5715V43.3111H30.8572V38.1682Z" fill="#C7463B"/>
<path d="M29.5714 22.7396H39.8571V38.1682H29.5714V22.7396Z" fill="#DC4D41"/>
<path d="M65.5714 11.1682H68.1428V13.7396H65.5714V11.1682Z" fill="#F4CA62"/>
<path d="M65.5714 18.8825H68.1428V21.4539H65.5714V18.8825Z" fill="#F4CA62"/>
<path d="M69.4286 15.0253H72V17.5968H69.4286V15.0253Z" fill="#F4CA62"/>
<path d="M61.7142 15.0253H64.2857V17.5968H61.7142V15.0253Z" fill="#F4CA62"/>
<path d="M2.57141 12.4539H5.14284V15.0253H2.57141V12.4539Z" fill="#F4CA62"/>
<path d="M2.57141 17.5968H5.14284V20.1682H2.57141V17.5968Z" fill="#F4CA62"/>
<path d="M5.14282 15.0253H7.71425V17.5968H5.14282V15.0253Z" fill="#F4CA62"/>
<path d="M0 15.0253H2.57143V17.5968H0V15.0253Z" fill="#F4CA62"/>
</svg>
