<svg width="62" height="76" viewBox="0 0 62 76" fill="none" xmlns="http://www.w3.org/2000/svg">
<path d="M9.4961 62.0444H2.51953C1.65656 62.0444 0.957031 62.744 0.957031 63.6069V75.3029H11.0586V63.6069C11.0586 62.744 10.3591 62.0444 9.4961 62.0444Z" fill="#B3E59F"/>
<path d="M19.5977 54.7839H12.6211C11.7581 54.7839 11.0586 55.4835 11.0586 56.3464V75.3028H21.1602V56.3464C21.1602 55.4835 20.4606 54.7839 19.5977 54.7839Z" fill="#B3E59F"/>
<path d="M29.6992 46.8921H22.7227C21.8597 46.8921 21.1602 47.5916 21.1602 48.4546V75.3029H31.2617V48.4546C31.2617 47.5916 30.5622 46.8921 29.6992 46.8921Z" fill="#B3E59F"/>
<path d="M39.8027 39H32.8262C31.9632 39 31.2637 39.6995 31.2637 40.5625V75.3027H41.3652V40.5625C41.3652 39.6995 40.6657 39 39.8027 39Z" fill="#B3E59F"/>
<path d="M49.9023 31.1082H42.9258C42.0628 31.1082 41.3633 31.8077 41.3633 32.6707V75.3028H51.4648V32.6707C51.4648 31.8077 50.7653 31.1082 49.9023 31.1082Z" fill="#B3E59F"/>
<path d="M60.0039 23.2163H53.0273C52.1644 23.2163 51.4648 23.9158 51.4648 24.7788V75.3029H61.5664V24.7788C61.5664 23.9158 60.8667 23.2163 60.0039 23.2163Z" fill="#B3E59F"/>
<path d="M9.49594 62.0444H7.58594V75.3029H11.0584V63.6069C11.0584 62.744 10.3589 62.0444 9.49594 62.0444Z" fill="#95D6A4"/>
<path d="M19.5975 54.7837H17.6875V75.3026H21.16V56.3462C21.16 55.4832 20.4605 54.7837 19.5975 54.7837Z" fill="#95D6A4"/>
<path d="M29.6991 46.8918H27.7891V75.3026H31.2616V48.4543C31.2616 47.5914 30.562 46.8918 29.6991 46.8918Z" fill="#95D6A4"/>
<path d="M39.8006 39H37.8906V75.3027H41.3631V40.5625C41.3631 39.6995 40.6636 39 39.8006 39Z" fill="#95D6A4"/>
<path d="M49.9022 31.1082H47.9922V75.3028H51.4647V32.6707C51.4647 31.8077 50.7652 31.1082 49.9022 31.1082Z" fill="#95D6A4"/>
<path d="M60.0057 23.2163H58.0957V75.3029H61.5682V24.7788C61.5682 23.9158 60.8685 23.2163 60.0057 23.2163Z" fill="#95D6A4"/>
<path d="M48.94 0.171875H39.1541C37.7593 0.171875 36.6286 1.3025 36.6286 2.69734C36.6286 4.09219 37.7593 5.22281 39.1541 5.22281H42.8432L1.66754 46.3983C0.681133 47.3845 0.681133 48.9834 1.66754 49.9697C2.16066 50.4628 2.80691 50.7094 3.45316 50.7094C4.09941 50.7094 4.74582 50.4628 5.23879 49.9697L46.4146 8.79406V12.4833C46.4146 13.878 47.5452 15.0087 48.94 15.0087C50.3349 15.0087 51.4655 13.8781 51.4655 12.4833V2.69734C51.4654 1.3025 50.3347 0.171875 48.94 0.171875Z" fill="#E490D0"/>
</svg>
