<svg width="80" height="80" viewBox="0 0 80 80" fill="none" xmlns="http://www.w3.org/2000/svg">
<path d="M2.38666 76.657L16.9135 33H64.0865L78.6133 76.657H2.38666Z" fill="#F5F5F5" stroke="#C5C8DF" stroke-width="2"/>
<path d="M29.8238 33.4268L26.6211 76.2302" stroke="#C5C8DF" stroke-width="2"/>
<path d="M50 32L53 76" stroke="#C5C8DF" stroke-width="2"/>
<path d="M8.5 59.5H72.5" stroke="#C5C8DF" stroke-width="2"/>
<path d="M14 43L67 43" stroke="#C5C8DF" stroke-width="2"/>
<path fill-rule="evenodd" clip-rule="evenodd" d="M40.6355 36.8409C40.6355 36.8409 54.1205 27.8509 54.1205 17.3625C54.1205 13.786 52.6998 10.3561 50.1708 7.82712C47.6419 5.29818 44.2119 3.87744 40.6355 3.87744C37.059 3.87744 33.629 5.29818 31.1001 7.82712C28.5711 10.3561 27.1504 13.786 27.1504 17.3625C27.1504 27.8509 40.6355 36.8409 40.6355 36.8409ZM46.6288 17.3625C46.6288 20.6726 43.9455 23.3559 40.6355 23.3559C37.3254 23.3559 34.6421 20.6726 34.6421 17.3625C34.6421 14.0525 37.3254 11.3692 40.6355 11.3692C43.9455 11.3692 46.6288 14.0525 46.6288 17.3625Z" fill="#D9663B"/>
<path d="M40.6355 36.8409L40.0808 37.673C40.4167 37.8969 40.8543 37.8969 41.1902 37.673L40.6355 36.8409ZM50.1708 7.82712L50.8779 7.12002V7.12002L50.1708 7.82712ZM31.1001 7.82712L31.8072 8.53423H31.8072L31.1001 7.82712ZM27.1504 17.3625H26.1504H27.1504ZM53.1205 17.3625C53.1205 22.2048 49.9835 26.8306 46.652 30.3471C45.0067 32.0838 43.3581 33.5039 42.1196 34.4901C41.5011 34.9825 40.987 35.3652 40.6294 35.6235C40.4507 35.7526 40.3112 35.8505 40.2175 35.9153C40.1707 35.9478 40.1353 35.9719 40.1123 35.9876C40.1007 35.9954 40.0923 36.0011 40.087 36.0047C40.0843 36.0065 40.0825 36.0077 40.0814 36.0084C40.0809 36.0088 40.0806 36.009 40.0805 36.0091C40.0804 36.0091 40.0805 36.009 40.0805 36.0091C40.0806 36.009 40.0808 36.0089 40.6355 36.8409C41.1902 37.673 41.1904 37.6728 41.1907 37.6726C41.1909 37.6725 41.1913 37.6722 41.1916 37.672C41.1923 37.6715 41.1933 37.6709 41.1944 37.6702C41.1966 37.6687 41.1996 37.6666 41.2035 37.6641C41.2111 37.6589 41.222 37.6515 41.236 37.642C41.264 37.6231 41.3043 37.5955 41.3563 37.5595C41.4601 37.4875 41.6104 37.382 41.8004 37.2448C42.1803 36.9705 42.7196 36.5689 43.3654 36.0546C44.6554 35.0274 46.378 33.5445 48.1039 31.7226C51.515 28.122 55.1205 23.0086 55.1205 17.3625H53.1205ZM49.4637 8.53423C51.8051 10.8756 53.1205 14.0513 53.1205 17.3625H55.1205C55.1205 13.5208 53.5944 9.83649 50.8779 7.12002L49.4637 8.53423ZM40.6355 4.87744C43.9467 4.87744 47.1223 6.19283 49.4637 8.53423L50.8779 7.12002C48.1615 4.40354 44.4771 2.87744 40.6355 2.87744V4.87744ZM31.8072 8.53423C34.1486 6.19283 37.3242 4.87744 40.6355 4.87744V2.87744C36.7938 2.87744 33.1094 4.40354 30.393 7.12002L31.8072 8.53423ZM28.1504 17.3625C28.1504 14.0513 29.4658 10.8756 31.8072 8.53423L30.393 7.12002C27.6765 9.83649 26.1504 13.5208 26.1504 17.3625H28.1504ZM40.6355 36.8409C41.1902 36.0089 41.1903 36.009 41.1904 36.0091C41.1904 36.009 41.1905 36.0091 41.1904 36.0091C41.1903 36.009 41.19 36.0088 41.1895 36.0084C41.1884 36.0077 41.1866 36.0065 41.1839 36.0047C41.1786 36.0011 41.1702 35.9954 41.1586 35.9876C41.1356 35.9719 41.1002 35.9478 41.0534 35.9153C40.9597 35.8505 40.8202 35.7526 40.6415 35.6235C40.2839 35.3652 39.7698 34.9825 39.1513 34.4901C37.9129 33.5039 36.2642 32.0838 34.6189 30.3471C31.2874 26.8306 28.1504 22.2048 28.1504 17.3625H26.1504C26.1504 23.0086 29.7559 28.122 33.167 31.7226C34.8929 33.5445 36.6155 35.0274 37.9055 36.0546C38.5513 36.5689 39.0906 36.9705 39.4705 37.2448C39.6605 37.382 39.8108 37.4875 39.9146 37.5595C39.9666 37.5955 40.0069 37.6231 40.0349 37.642C40.0489 37.6515 40.0598 37.6589 40.0674 37.6641C40.0713 37.6666 40.0743 37.6687 40.0765 37.6702C40.0776 37.6709 40.0786 37.6715 40.0793 37.672C40.0796 37.6722 40.08 37.6725 40.0802 37.6726C40.0805 37.6728 40.0808 37.673 40.6355 36.8409ZM40.6355 24.3559C44.4978 24.3559 47.6288 21.2249 47.6288 17.3625H45.6288C45.6288 20.1203 43.3932 22.3559 40.6355 22.3559V24.3559ZM33.6421 17.3625C33.6421 21.2249 36.7732 24.3559 40.6355 24.3559V22.3559C37.8777 22.3559 35.6421 20.1203 35.6421 17.3625H33.6421ZM40.6355 10.3692C36.7732 10.3692 33.6421 13.5002 33.6421 17.3625H35.6421C35.6421 14.6048 37.8777 12.3692 40.6355 12.3692V10.3692ZM47.6288 17.3625C47.6288 13.5002 44.4978 10.3692 40.6355 10.3692V12.3692C43.3932 12.3692 45.6288 14.6048 45.6288 17.3625H47.6288Z" fill="#D9663B"/>
</svg>
