<svg width="24" height="24" viewBox="0 0 24 24" fill="none" xmlns="http://www.w3.org/2000/svg">
<path d="M23.8615 0.135205C23.7334 0.0088303 23.5441 -0.0333571 23.3747 0.027299L3.90509 6.96933C3.22869 6.55571 2.37074 6.45887 1.58385 6.78469C0.277677 7.32577 -0.344869 8.82863 0.196161 10.1349C1.47205 13.2149 3.31419 15.972 5.67157 18.3294C8.02896 20.6868 10.786 22.5289 13.8661 23.8048C14.1859 23.9373 14.5175 24 14.8439 24C15.8506 23.9999 16.8077 23.4034 17.2162 22.4171C17.4911 21.7534 17.4651 21.0391 17.2022 20.4258L23.9757 0.620501C24.0339 0.450251 23.9895 0.261627 23.8615 0.135205ZM6.85306 6.91351L8.91649 6.17785C9.15874 6.43594 9.27682 6.79126 9.22952 7.1506C9.1878 7.467 9.02542 7.7483 8.77225 7.9426C8.51908 8.13689 8.20558 8.22085 7.88894 8.17927C7.57258 8.1376 7.29134 7.97527 7.09704 7.72205C6.91802 7.48875 6.83285 7.20413 6.85306 6.91351ZM16.3501 22.0582C16.0068 22.8869 15.0533 23.2818 14.2248 22.9385C8.22297 20.4525 3.54847 15.7779 1.06236 9.77606C0.896097 9.37467 0.896097 8.9326 1.06236 8.53116C1.22863 8.12977 1.54124 7.81716 1.94263 7.65089C2.34402 7.48463 2.78614 7.48463 3.18753 7.65089C3.58892 7.81716 3.90153 8.12977 4.06779 8.53116C5.1319 11.1002 6.66846 13.3998 8.63477 15.3661C10.6011 17.3324 12.9007 18.869 15.4697 19.9331C16.2984 20.2763 16.6933 21.2297 16.3501 22.0582ZM20.5146 7.8435C20.4721 7.84247 20.4297 7.84003 20.3873 7.8345C20.0709 7.79283 19.7897 7.63046 19.5954 7.37729C19.4011 7.12411 19.3171 6.81038 19.3587 6.49402C19.4447 5.84087 20.0459 5.37952 20.6993 5.4654C20.9009 5.49193 21.0901 5.57012 21.2515 5.68904L20.5146 7.8435ZM21.5631 4.7776C21.3347 4.65324 21.0838 4.57042 20.8216 4.53592C19.6558 4.38203 18.5827 5.20595 18.4292 6.37168C18.3549 6.93633 18.5049 7.49616 18.8516 7.94803C19.1856 8.38327 19.6637 8.66761 20.2031 8.75433L19.2714 11.4787L18.1999 10.6565C17.9946 10.499 17.7002 10.5376 17.5427 10.743C17.3851 10.9484 17.4239 11.2426 17.6292 11.4002L18.9513 12.4147L16.5282 19.5001C16.3249 19.3234 16.0909 19.1755 15.8287 19.0669C10.8609 17.0091 6.99185 13.1401 4.93418 8.17238C4.86265 7.9996 4.77378 7.83919 4.67126 7.69144L5.92653 7.24388C5.97035 7.62207 6.11553 7.98282 6.35332 8.29271C6.70001 8.74458 7.20199 9.03436 7.76665 9.10866C7.86124 9.12113 7.95555 9.12731 8.0494 9.12731C8.51571 9.12731 8.96683 8.97497 9.343 8.68636C9.79492 8.33958 10.0847 7.83769 10.159 7.27294C10.2258 6.76599 10.1074 6.26387 9.8418 5.8479L15.6687 3.77031L15.8895 4.30346C15.9643 4.48398 16.1388 4.59296 16.3228 4.59296C16.3825 4.59296 16.4433 4.58143 16.502 4.55715C16.7411 4.4581 16.8547 4.18384 16.7557 3.94468L16.5529 3.45507L22.7741 1.23686L21.5631 4.7776Z" fill="white"/>
</svg>
