<svg width="140" height="134" viewBox="0 0 140 134" fill="none" xmlns="http://www.w3.org/2000/svg">
<path d="M112.607 133.956C121.011 133.956 127.824 127.143 127.824 118.739C127.824 110.334 121.011 103.521 112.607 103.521C104.203 103.521 97.3896 110.334 97.3896 118.739C97.3896 127.143 104.203 133.956 112.607 133.956Z" fill="#455A64"/>
<path d="M51.7381 133.956C60.1422 133.956 66.9551 127.143 66.9551 118.739C66.9551 110.334 60.1422 103.521 51.7381 103.521C43.3339 103.521 36.521 110.334 36.521 118.739C36.521 127.143 43.3339 133.956 51.7381 133.956Z" fill="#455A64"/>
<path d="M139.237 19.3339C138.659 18.6794 137.827 18.3047 136.954 18.3053H27.3908C25.7099 18.305 24.347 19.6671 24.3467 21.348C24.3467 21.5525 24.3672 21.7568 24.4083 21.9574L36.5821 82.826C36.8715 84.2432 38.1183 85.2609 39.5646 85.2606C39.6984 85.2695 39.8325 85.2695 39.9663 85.2606L131.269 73.0868C132.641 72.9036 133.716 71.8183 133.887 70.445L139.973 21.75C140.09 20.876 139.821 19.9947 139.237 19.3339Z" fill="#FFC107"/>
<path d="M124.781 97.4343H54.5321C44.3867 97.4109 35.6567 90.2556 33.642 80.3119L18.8084 6.13137H3.04353C1.3627 6.13137 0 4.76867 0 3.08784C0 1.40701 1.3627 0.0443116 3.04353 0.0443116H21.3041C22.7507 0.0440263 23.9973 1.06177 24.2866 2.47896L39.6132 79.1127C41.0498 86.2161 47.285 91.3293 54.5321 91.3473H124.781C126.461 91.3473 127.824 92.71 127.824 94.3908C127.824 96.0716 126.461 97.4343 124.781 97.4343Z" fill="#455A64"/>
<circle cx="85" cy="28" r="28" fill="#ED3F32"/>
<path d="M95.5 19.615L93.385 17.5L85 25.885L76.615 17.5L74.5 19.615L82.885 28L74.5 36.385L76.615 38.5L85 30.115L93.385 38.5L95.5 36.385L87.115 28L95.5 19.615Z" fill="white"/>
</svg>
