<svg width="80" height="80" viewBox="0 0 80 80" fill="none" xmlns="http://www.w3.org/2000/svg">
<g clip-path="url(#clip0)">
<path d="M35.9525 14.7196C35.5817 14.7196 35.216 14.5495 34.9792 14.2277C33.8814 12.7362 31.928 11.0251 28.8541 11.3534C25.2352 11.7388 22.5477 10.5871 20.9302 9.55321C20.3685 9.19414 20.2042 8.44774 20.5631 7.88602C20.922 7.32414 21.6688 7.16008 22.2303 7.51899C23.5224 8.34461 25.676 9.26446 28.5985 8.95258C33.0341 8.48164 35.7183 11.1585 36.9238 12.7968C37.3189 13.3337 37.2039 14.0895 36.6669 14.4846C36.4514 14.643 36.201 14.7196 35.9525 14.7196Z" fill="#FFD064"/>
<path d="M23.3136 21.1301C23.0982 21.1301 22.8804 21.0726 22.6832 20.9515C22.1149 20.6027 21.9372 19.8594 22.286 19.2912C23.8333 16.7704 26.669 15.0379 30.4865 14.281C33.2699 13.7293 35.6054 13.8804 35.7032 13.8873C36.3683 13.9329 36.8705 14.509 36.8249 15.1741C36.7793 15.8388 36.2018 16.3373 35.5394 16.296C35.4557 16.2904 27.2588 15.8044 24.3435 20.5541C24.1157 20.9255 23.7193 21.1301 23.3136 21.1301Z" fill="#FFD064"/>
<path d="M41.5101 67.387C61.3353 67.387 72.2975 38.3073 40.9904 15.8475C40.2117 15.2888 39.7492 14.3892 39.7596 13.4308C39.7682 12.6388 40.0192 11.8698 40.4734 11.2209C41.939 9.12797 44.0487 5.54766 45.3139 2.66391C45.6168 1.97328 45.1832 1.23047 44.3728 1.23047C42.4923 1.23063 42.4923 0 40.6118 0C38.7314 0 38.7314 1.23063 36.8507 1.23063C35.2482 1.23063 34.5907 -0.148125 33.8117 0.854687C31.5395 3.77906 39.322 14.063 39.322 14.063C4.95105 36.6583 16.0334 67.3872 36.3265 67.3872H41.5101V67.387Z" fill="#EABC6B"/>
<path d="M49.3036 14.0628C49.3036 14.0628 57.2016 3.81219 54.9305 0.871719C54.1564 -0.130469 53.4964 1.23062 51.8956 1.23062C50.0148 1.23047 50.0148 0 48.1341 0C46.2534 0 46.2534 1.23047 44.3728 1.23047C44.2802 1.23047 44.1956 1.22531 44.1117 1.21953C43.3561 4.45859 39.9509 9.50469 38.0023 12.2066C38.7697 13.3327 39.3222 14.0627 39.3222 14.0627C38.8637 14.3641 38.415 14.6672 37.9727 14.9714C70.8119 37.5431 59.8238 67.3869 39.7398 67.3869H52.4208C72.7753 67.387 83.7891 36.7333 49.3036 14.0628Z" fill="#E8AE4D"/>
<path d="M50.7721 17.7087C46.1829 18.8678 41.649 18.8678 37.059 17.7087C35.4615 17.3053 34.5559 15.5089 35.1307 13.8759C35.1371 13.8576 35.1435 13.8393 35.1499 13.8211C35.632 12.452 36.999 11.6837 38.3388 12.0201C42.0966 12.9636 45.7332 12.9639 49.4921 12.0201C50.8319 11.6837 52.199 12.452 52.681 13.8211C52.6874 13.8393 52.6938 13.8576 52.7002 13.8759C53.2752 15.5089 52.3696 17.3053 50.7721 17.7087Z" fill="#FFE07D"/>
<path d="M7.62109 72.6593L25.0986 79.1646C26.583 79.7171 28.1541 80 29.738 80H47.7498C50.2705 80 52.7392 79.2838 54.8684 77.9346L77.4211 63.6439C78.9091 62.3227 79.1848 60.1024 78.0655 58.4572C76.8406 56.6572 74.8145 56.3444 72.585 57.3986L50.6278 67.0664L50.6537 63.5041C50.363 60.58 48.1116 58.2333 45.2022 57.8217L31.8309 56.2822C28.7464 55.8458 27.2052 54.8121 24.5161 53.2391C20.845 51.0916 16.6684 49.9597 12.4153 49.9597H7.62109V72.6593Z" fill="#FFDDCE"/>
<path d="M24.0372 75.6983C25.5977 76.2791 27.2494 76.5766 28.9144 76.5766H47.8497C49.8656 76.5766 51.8494 76.1397 53.6689 75.3067L66.9094 66.9167C68.1395 66.1372 68.9205 64.7803 68.8805 63.3246C68.8592 62.5525 68.6233 61.7797 68.1609 61.1003C68.1609 61.1003 67.7578 60.4096 67.3436 59.7064L50.6278 67.0664L50.6537 63.5041C50.363 60.58 48.1116 58.2333 45.2022 57.8217L31.8309 56.2822C28.7464 55.8458 27.2052 54.8121 24.5161 53.2391C20.845 51.0916 16.6684 49.9597 12.4153 49.9597H7.62109V69.588L24.0372 75.6983Z" fill="#FFDDCE"/>
<path d="M78.0653 58.457C76.8405 56.657 74.8144 56.3442 72.5848 57.3984L66.5453 60.0576C66.8378 60.5206 67.0705 60.8901 67.0705 60.8901C68.1898 62.5353 67.9141 64.7556 66.4261 66.0769L53.285 74.4038C51.5542 75.1961 49.6672 75.6117 47.7495 75.6117H29.738C28.1541 75.6117 26.583 75.3288 25.0986 74.7763L7.62109 68.2708V72.6589L25.0986 79.1644C26.583 79.7169 28.1541 79.9998 29.738 79.9998H44.4539H47.75C50.2706 79.9998 52.7394 79.2836 54.8686 77.9344L77.4212 63.6437C78.9089 62.3225 79.1848 60.102 78.0653 58.457Z" fill="#FFCBBE"/>
<path d="M49.0143 59.834L49.0137 59.9199L49.0704 59.8949C49.052 59.8743 49.0329 59.8545 49.0143 59.834Z" fill="#F5DBCC"/>
<path d="M50.6277 67.0643H36.9748C36.308 67.0643 35.7676 66.524 35.7676 65.8571C35.7676 65.1902 36.3079 64.6499 36.9748 64.6499H50.6454L50.6277 67.0643Z" fill="#FFCBBE"/>
<path d="M11.3818 76.1406C11.3818 77.4087 10.3538 78.4367 9.0857 78.4367H3.54414C2.27602 78.4367 1.24805 77.4087 1.24805 76.1406V48.0256C1.24805 46.7575 2.27602 45.7295 3.54414 45.7295H9.0857C10.3538 45.7295 11.3818 46.7575 11.3818 48.0256V76.1406Z" fill="#407093"/>
<path d="M46.9704 37.4105C46.4176 37.215 45.9088 37.0281 45.4394 36.8477V29.1508C46.8673 29.3875 47.7244 30.1261 47.7873 30.1819C48.2777 30.6278 49.0365 30.595 49.4865 30.107C49.9385 29.6169 49.9077 28.8534 49.4176 28.4013C49.3327 28.3227 47.8543 26.9908 45.4393 26.7127V24.9962C45.4393 24.3295 44.899 23.7891 44.2321 23.7891C43.5652 23.7891 43.0249 24.3294 43.0249 24.9962V26.8105C42.7338 26.8663 42.4357 26.9372 42.1293 27.0294C40.0815 27.6461 38.5509 29.402 38.1345 31.6116C37.7566 33.6166 38.3923 35.5448 39.7935 36.6439C40.5979 37.2748 41.6107 37.8525 43.0249 38.47V48.0172C41.6279 47.9586 40.7699 47.6955 39.2704 46.7147C38.7124 46.3498 37.9645 46.5061 37.5995 47.0641C37.2345 47.6219 37.3909 48.37 37.9488 48.735C39.9195 50.0242 41.2368 50.3605 43.0249 50.43V52.3462C43.0249 53.013 43.5652 53.5534 44.2321 53.5534C44.899 53.5534 45.4393 53.0131 45.4393 52.3462V50.3452C48.828 49.7953 50.8055 47.0523 51.2355 44.4936C51.7733 41.2966 50.0988 38.5164 46.9704 37.4105ZM41.2835 34.7441C40.5943 34.2036 40.297 33.1745 40.5073 32.0586C40.7021 31.0237 41.4137 29.7664 42.8259 29.3411C42.893 29.3208 42.9591 29.3033 43.0252 29.2856V35.8064C42.3023 35.4456 41.7354 35.0984 41.2835 34.7441ZM48.8549 44.093C48.5885 45.6772 47.4257 47.3684 45.4394 47.8775V39.4253C45.6743 39.5112 45.9143 39.598 46.1655 39.6867C49.1698 40.7486 48.9835 43.3278 48.8549 44.093Z" fill="white"/>
</g>
<defs>
<clipPath id="clip0">
<rect width="80" height="80" fill="white"/>
</clipPath>
</defs>
</svg>
