<svg width="72" height="66" viewBox="0 0 72 66" fill="none" xmlns="http://www.w3.org/2000/svg">
<path d="M71.8813 21.0593C66.9116 -3.80099 29.487 -0.861449 12.8339 1.75821C10.0659 2.19418 7.97248 4.48106 7.76869 7.27613L5.77976 32.695C3.82823 33.8107 -1.42269 37.4738 0.36502 43.7901C0.940288 45.8203 1.75547 46.7568 2.6648 46.9851C3.68893 47.2417 4.43317 48.0969 4.26936 49.1404C3.75084 52.4295 2.93954 58.0661 2.87762 61.4906C2.78604 66.5532 8.76831 65.9083 8.76831 65.9083C8.76831 65.9083 17.071 65.3562 12.2857 58.5446C9.64282 54.7834 9.87241 52.0361 14.2682 50.3257L33.194 42.4564C32.936 44.3177 33.1501 48.3639 36.603 48.5974C38.9853 48.7586 43.0457 47.7383 41.4231 40.5668C41.3057 40.0496 41.3096 39.5234 41.4321 39.0306L68.2866 27.8658C70.9578 26.7553 72.4489 23.8983 71.8813 21.0593Z" fill="#FFF1C6"/>
<path d="M11.5569 55.8772C11.3273 55.9701 11.1583 56.1339 11.0216 56.3209C9.92655 53.6832 10.7895 51.6788 14.2656 50.327L33.1913 42.4577C33.0366 43.5696 33.0572 45.4566 33.8285 46.8483L11.5569 55.8772ZM70.5979 29.6251C69.1249 32.6846 66.1415 33.7513 66.0461 33.7874L41.7817 43.625C41.7907 42.7544 41.6901 41.7522 41.4218 40.5681C41.3044 40.0509 41.3083 39.5246 41.4308 39.0332L68.2852 27.8684C69.7053 27.2776 70.7772 26.1877 71.3989 24.876C71.5214 26.6482 71.2648 28.2424 70.5979 29.6251Z" fill="#E0AB36"/>
<path d="M71.8814 21.1238C66.9117 -3.73779 29.487 -0.798246 12.8339 1.82141C10.1201 2.24835 8.06671 4.45913 7.79456 7.1794C51.8206 -0.260384 63.2653 10.4478 69.067 23.1321C69.9002 24.9534 69.3946 26.5734 68.4621 27.8374C71.0185 26.674 72.4348 23.8957 71.8814 21.1238Z" fill="#F4C44E"/>
<path d="M15.478 1.5686V6.02112C16.3577 5.90504 17.2077 5.80572 18.0577 5.7064V1.5686C18.0577 1.40479 18.0203 1.2513 17.9648 1.10684C17.111 1.21003 16.2984 1.31967 15.5064 1.4293C15.5012 1.47703 15.478 1.5183 15.478 1.5686Z" fill="#E0AB36"/>
<path d="M25.7968 0.608966V4.98538C26.6777 4.92734 27.5316 4.88478 28.3764 4.84737V0.608966C28.3764 0.477402 28.3377 0.358737 28.3016 0.240072C27.471 0.276188 26.6532 0.322622 25.8432 0.374215C25.829 0.454185 25.7968 0.526416 25.7968 0.608966Z" fill="#E0AB36"/>
<path d="M34.8256 0.608966V4.74676C35.7091 4.76224 36.5668 4.79191 37.4052 4.83318V0.608966C37.4052 0.469663 37.3665 0.34068 37.3253 0.215565C36.5217 0.18203 35.7181 0.160102 34.9184 0.145914C34.863 0.290376 34.8256 0.445157 34.8256 0.608966Z" fill="#E0AB36"/>
<path d="M45.4074 0.966251C45.3984 0.989468 45.379 1.00495 45.3713 1.02816L43.8325 5.44328C44.7225 5.57226 45.5841 5.71672 46.4122 5.87924L47.8078 1.87688C47.8646 1.71307 47.8839 1.54539 47.8749 1.38287C47.0584 1.22809 46.2368 1.08879 45.4074 0.966251Z" fill="#E0AB36"/>
<path d="M54.6414 3.14478C54.5911 3.22347 54.5292 3.29183 54.4957 3.3834L52.9388 7.67856C53.7747 7.9907 54.5628 8.32735 55.3186 8.67948L56.9193 4.26307C56.949 4.18181 56.9438 4.09926 56.9567 4.018C56.2021 3.70328 55.4282 3.41436 54.6414 3.14478Z" fill="#E0AB36"/>
<path d="M63.0279 14.0375L65.9197 9.84033C65.9261 9.8313 65.9261 9.82098 65.9326 9.81195C65.338 9.21734 64.7021 8.66658 64.043 8.13774C63.9553 8.21127 63.8624 8.27834 63.7953 8.37765L61.1073 12.2794C61.7935 12.8418 62.4294 13.4299 63.0279 14.0375Z" fill="#E0AB36"/>
<path d="M69.8021 15.1183C69.6628 15.1699 69.5274 15.2357 69.4087 15.3376L66.2603 18.0308C66.7465 18.7608 67.198 19.5051 67.6185 20.2635L70.8392 17.5084C70.5309 16.6778 70.1917 15.8768 69.8021 15.1183Z" fill="#E0AB36"/>
<path d="M42.0951 19.4767C41.4476 19.4767 40.813 19.2987 40.2597 18.9556C39.4755 18.4693 38.9428 17.7122 38.7596 16.8235C38.6745 16.4095 38.2205 16.1528 37.7406 16.2482C36.8519 16.4366 35.9387 16.2753 35.1752 15.8007C34.3909 15.3144 33.8582 14.5573 33.6751 13.6686C33.6222 13.4145 33.4429 13.2687 33.341 13.2068C33.1424 13.083 32.8999 13.0391 32.6574 13.0946C31.9557 13.2326 31.2773 12.7902 31.1328 12.0937C30.9883 11.3959 31.4359 10.7136 32.1337 10.5678C33.0224 10.3808 33.9369 10.5407 34.7005 11.0154C35.4847 11.5004 36.0174 12.2588 36.2019 13.1475C36.2547 13.4016 36.4327 13.5473 36.5346 13.6092C36.732 13.7318 36.9745 13.7743 37.2183 13.7215C39.0885 13.3461 40.9111 14.4941 41.2851 16.3024C41.338 16.5565 41.516 16.7023 41.6179 16.7642C41.8152 16.8867 42.0577 16.9293 42.3015 16.8764C43.0019 16.7332 43.6803 17.1808 43.8261 17.8773C43.9706 18.5751 43.523 19.2574 42.8252 19.4032C42.5827 19.4535 42.3376 19.4767 42.0951 19.4767Z" fill="#88C057"/>
<path d="M32.2459 36.0614C31.5468 36.0614 30.9728 35.5016 30.9574 34.8C30.9406 34.0364 31.2269 33.2896 31.7455 32.7478C32.2459 32.2267 32.9128 31.9301 33.6247 31.9146C33.6841 31.9133 33.7705 31.8153 33.7666 31.6657C33.7511 30.9266 34.0091 30.2223 34.4941 29.6819C35.001 29.1169 35.6898 28.7971 36.4353 28.7829C36.4946 28.7816 36.5811 28.6836 36.5772 28.5339C36.5617 27.8219 37.1267 27.2312 37.8399 27.217C37.849 27.217 37.8593 27.217 37.8683 27.217C38.5674 27.217 39.1427 27.7768 39.1581 28.4798C39.1917 30.0366 37.9947 31.3303 36.4908 31.3638C36.394 31.3651 36.345 31.516 36.3476 31.6115C36.3811 33.1683 35.1842 34.462 33.6802 34.4956C33.586 34.5575 33.5332 34.6258 33.5357 34.7419C33.5525 35.4552 32.9876 36.0447 32.2756 36.0601C32.2653 36.0614 32.2562 36.0614 32.2459 36.0614Z" fill="#659C35"/>
<path d="M14.7596 29.7954C14.5868 29.7954 14.4101 29.7606 14.2411 29.6858C13.5884 29.3994 13.2931 28.6371 13.5794 27.987C13.947 27.1525 14.6035 26.5012 15.4316 26.1542C16.2803 25.7982 17.2064 25.8034 18.0397 26.1684C18.2796 26.2729 18.4989 26.2109 18.6098 26.1645C18.8252 26.0755 18.998 25.9001 19.0973 25.6731C19.8674 23.9266 21.8653 23.1076 23.5576 23.8544C23.9433 24.0234 24.4205 23.8028 24.6166 23.3578C24.9042 22.7065 25.6691 22.4137 26.3166 22.6974C26.9679 22.9851 27.2646 23.7461 26.977 24.3974C26.2095 26.1426 24.2103 26.9603 22.518 26.2135C22.1297 26.0407 21.6551 26.2651 21.459 26.7114C21.0927 27.5446 20.4349 28.196 19.6068 28.543C18.7581 28.8977 17.832 28.8925 17.0001 28.5275C16.7614 28.4243 16.5409 28.4849 16.43 28.5314C16.2146 28.6216 16.0417 28.7971 15.9424 29.0241C15.7283 29.5091 15.2562 29.7954 14.7596 29.7954Z" fill="#659C35"/>
<path d="M25.4226 35.1044C25.4226 38.7391 21.499 41.6864 16.8233 41.6864C11.2873 41.6864 9.51379 41.3188 9.51379 37.684C9.51379 34.0493 18.7929 31.4748 20.6928 31.4748C22.5927 31.4748 25.4226 31.4696 25.4226 35.1044Z" fill="#CD6E61"/>
<path d="M28.4139 14.1755C28.4139 17.8102 24.4902 20.7575 19.8145 20.7575C14.2785 20.7575 12.505 20.3899 12.505 16.7551C12.505 13.1204 21.7841 10.5459 23.684 10.5459C25.584 10.5459 28.4139 10.5407 28.4139 14.1755Z" fill="#CD6E61"/>
<path d="M57.1823 20.5718C57.1823 24.2065 53.2586 27.1538 48.5829 27.1538C43.047 27.1538 41.2734 26.7862 41.2734 23.1514C41.2734 19.5167 50.5525 16.9422 52.4525 16.9422C54.3524 16.9422 57.1823 16.9357 57.1823 20.5718Z" fill="#CD6E61"/>
<path d="M45.7904 24.7973C46.5028 24.7973 47.0803 24.2198 47.0803 23.5074C47.0803 22.7951 46.5028 22.2176 45.7904 22.2176C45.0781 22.2176 44.5006 22.7951 44.5006 23.5074C44.5006 24.2198 45.0781 24.7973 45.7904 24.7973Z" fill="#D79C8C"/>
<path d="M52.5221 21.3818C53.2345 21.3818 53.812 20.8043 53.812 20.092C53.812 19.3796 53.2345 18.8021 52.5221 18.8021C51.8098 18.8021 51.2323 19.3796 51.2323 20.092C51.2323 20.8043 51.8098 21.3818 52.5221 21.3818Z" fill="#D79C8C"/>
<path d="M50.8287 24.627C51.541 24.627 52.1185 24.0495 52.1185 23.3372C52.1185 22.6248 51.541 22.0473 50.8287 22.0473C50.1163 22.0473 49.5388 22.6248 49.5388 23.3372C49.5388 24.0495 50.1163 24.627 50.8287 24.627Z" fill="#D79C8C"/>
<path d="M17.0942 18.6499C17.8065 18.6499 18.384 18.0724 18.384 17.3601C18.384 16.6477 17.8065 16.0702 17.0942 16.0702C16.3818 16.0702 15.8043 16.6477 15.8043 17.3601C15.8043 18.0724 16.3818 18.6499 17.0942 18.6499Z" fill="#D79C8C"/>
<path d="M24.6165 16.9422C25.3289 16.9422 25.9063 16.3647 25.9063 15.6523C25.9063 14.94 25.3289 14.3625 24.6165 14.3625C23.9041 14.3625 23.3267 14.94 23.3267 15.6523C23.3267 16.3647 23.9041 16.9422 24.6165 16.9422Z" fill="#D79C8C"/>
<path d="M20.4594 15.6523C21.1717 15.6523 21.7492 15.0749 21.7492 14.3625C21.7492 13.6501 21.1717 13.0727 20.4594 13.0727C19.747 13.0727 19.1696 13.6501 19.1696 14.3625C19.1696 15.0749 19.747 15.6523 20.4594 15.6523Z" fill="#D79C8C"/>
<path d="M14.1921 39.3686C14.9044 39.3686 15.4819 38.7911 15.4819 38.0787C15.4819 37.3664 14.9044 36.7889 14.1921 36.7889C13.4797 36.7889 12.9022 37.3664 12.9022 38.0787C12.9022 38.7911 13.4797 39.3686 14.1921 39.3686Z" fill="#D79C8C"/>
<path d="M18.3841 36.3723C19.0964 36.3723 19.6739 35.7948 19.6739 35.0824C19.6739 34.3701 19.0964 33.7926 18.3841 33.7926C17.6717 33.7926 17.0942 34.3701 17.0942 35.0824C17.0942 35.7948 17.6717 36.3723 18.3841 36.3723Z" fill="#D79C8C"/>
<path d="M20.4594 38.952C21.1717 38.952 21.7492 38.3745 21.7492 37.6621C21.7492 36.9498 21.1717 36.3723 20.4594 36.3723C19.747 36.3723 19.1696 36.9498 19.1696 37.6621C19.1696 38.3745 19.747 38.952 20.4594 38.952Z" fill="#D79C8C"/>
</svg>
