<svg width="196" height="196" viewBox="0 0 196 196" fill="none" xmlns="http://www.w3.org/2000/svg">
<g clip-path="url(#clip0)">
<path d="M195.658 158.352L188.967 139.867H164.055L157.364 158.352C156.851 159.769 156.916 161.331 157.545 162.701L171.293 192.653C172.229 194.693 174.267 196 176.511 196C178.755 196 180.794 194.693 181.73 192.653L195.478 162.701C196.106 161.331 196.171 159.769 195.658 158.352Z" fill="#F4F1F1"/>
<path d="M195.658 158.352L188.967 139.867H176.512V196C178.756 196 180.794 194.693 181.73 192.653L195.477 162.701C196.106 161.331 196.171 159.769 195.658 158.352Z" fill="#E7DFDD"/>
<path d="M140.121 0H5.74219C2.57097 0 0 2.57097 0 5.74219V190.258C0 193.429 2.57097 196 5.74219 196H140.121C143.292 196 145.863 193.429 145.863 190.258V5.74219C145.863 2.57097 143.292 0 140.121 0Z" fill="#F4F1F1"/>
<path d="M140.121 0H72.9316V196H140.121C143.292 196 145.863 193.429 145.863 190.258V5.74219C145.863 2.57097 143.292 0 140.121 0Z" fill="#E7DFDD"/>
<path d="M127.63 55.0022H91.1641C87.9928 55.0022 85.4219 52.4312 85.4219 49.26C85.4219 46.0888 87.9928 43.5178 91.1641 43.5178H127.63C130.802 43.5178 133.373 46.0888 133.373 49.26C133.373 52.4312 130.802 55.0022 127.63 55.0022Z" fill="#6B61B1"/>
<path d="M127.63 89.8398H91.1641C87.9928 89.8398 85.4219 87.2689 85.4219 84.0977C85.4219 80.9264 87.9928 78.3555 91.1641 78.3555H127.63C130.802 78.3555 133.373 80.9264 133.373 84.0977C133.373 87.2689 130.802 89.8398 127.63 89.8398Z" fill="#6B61B1"/>
<path d="M127.63 124.677H91.1641C87.9928 124.677 85.4219 122.106 85.4219 118.935C85.4219 115.764 87.9928 113.193 91.1641 113.193H127.63C130.802 113.193 133.373 115.764 133.373 118.935C133.373 122.106 130.802 124.677 127.63 124.677Z" fill="#6B61B1"/>
<path d="M127.63 160.85H91.1641C87.9928 160.85 85.4219 158.279 85.4219 155.107C85.4219 151.936 87.9928 149.365 91.1641 149.365H127.63C130.802 149.365 133.373 151.936 133.373 155.107C133.373 158.279 130.802 160.85 127.63 160.85Z" fill="#6B61B1"/>
<path d="M32.2746 61.8585C30.7514 61.8585 29.291 61.2537 28.2145 60.1765L19.9944 51.9563C17.7519 49.7138 17.7519 46.0782 19.9944 43.8357C22.2369 41.5932 25.8729 41.5936 28.115 43.8357L32.2746 47.9954L45.6562 34.6138C47.8984 32.3713 51.5343 32.3713 53.7768 34.6138C56.0193 36.8563 56.0193 40.4919 53.7768 42.7344L36.3351 60.1765C35.2583 61.2537 33.7975 61.8585 32.2746 61.8585Z" fill="#90D960"/>
<path d="M32.2746 96.6962C30.7514 96.6962 29.291 96.0913 28.2145 95.0141L19.9944 86.794C17.7519 84.5514 17.7519 80.9159 19.9944 78.6734C22.2369 76.4308 25.8729 76.4312 28.115 78.6734L32.2746 82.833L45.6562 69.4514C47.8984 67.2089 51.5343 67.2089 53.7768 69.4514C56.0193 71.6939 56.0193 75.3295 53.7768 77.572L36.3351 95.0141C35.2583 96.0909 33.7975 96.6962 32.2746 96.6962Z" fill="#90D960"/>
<path d="M32.2746 131.534C30.7514 131.534 29.291 130.929 28.2145 129.852L19.9944 121.632C17.7519 119.389 17.7519 115.754 19.9944 113.511C22.2369 111.269 25.8729 111.269 28.115 113.511L32.2746 117.671L45.6562 104.289C47.8984 102.047 51.5343 102.047 53.7768 104.289C56.0193 106.532 56.0193 110.167 53.7768 112.41L36.3351 129.851C35.2583 130.929 33.7975 131.534 32.2746 131.534Z" fill="#90D960"/>
<path d="M195.999 19.489V139.152C195.999 142.326 193.427 144.895 190.257 144.895H162.764C159.59 144.895 157.021 142.326 157.021 139.152V19.489C157.021 8.74344 165.765 0 176.51 0C187.256 0 195.999 8.74344 195.999 19.489Z" fill="#FFDA2C"/>
<path d="M176.512 0V144.895H190.259C193.428 144.895 196.001 142.326 196.001 139.152V19.489C196.001 8.74344 187.257 0 176.512 0V0Z" fill="#FEBF00"/>
<path d="M157.021 36.3328H195.999V47.8171H157.021V36.3328Z" fill="#D20041"/>
<path d="M176.512 36.3328H196.001V47.8171H176.512V36.3328Z" fill="#BA003A"/>
</g>
<defs>
<clipPath id="clip0">
<rect width="196" height="196" fill="white"/>
</clipPath>
</defs>
</svg>
