<svg width="80" height="80" viewBox="0 0 80 80" fill="none" xmlns="http://www.w3.org/2000/svg">
<g clip-path="url(#clip0)">
<path fill-rule="evenodd" clip-rule="evenodd" d="M20.3104 35.6663H0.00132751V42.7214C0.00132751 44.4658 1.42492 45.8905 3.16789 45.8905H10.473L14.8305 48.0916L20.3105 45.8905V35.6663H20.3104Z" fill="#7BE976"/>
<path fill-rule="evenodd" clip-rule="evenodd" d="M17.142 25.4282H3.16609C1.42313 25.4282 -0.000465393 26.8529 -0.000465393 28.5973V33.8396H20.3086V28.5973C20.3086 26.8529 18.885 25.4282 17.142 25.4282Z" fill="#7BE976"/>
<path fill-rule="evenodd" clip-rule="evenodd" d="M20.3086 32.2595H-0.000465393V37.2416H20.3086V32.2595Z" fill="#6F6571"/>
<path fill-rule="evenodd" clip-rule="evenodd" d="M4.23758 32.2595H1.6368H-0.00132751V28.5972C-0.00132751 27.4053 0.664924 26.3642 1.6368 25.8253C2.09305 25.5742 2.6132 25.428 3.16539 25.428H7.4043C5.66133 25.428 4.23774 26.8527 4.23774 28.597V32.2595H4.23758Z" fill="#63BB66"/>
<path fill-rule="evenodd" clip-rule="evenodd" d="M4.23828 37.2416H1.63752H-0.000595093V35.6661V33.8395V32.2595H1.63752H4.23828V33.8395V35.6661V37.2416Z" fill="#5D5360"/>
<path fill-rule="evenodd" clip-rule="evenodd" d="M4.2397 37.2417V42.7216C4.2397 44.4659 5.66329 45.8906 7.40625 45.8906H3.16736C2.61533 45.8906 2.09518 45.7491 1.63877 45.498C0.6669 44.9545 0.000655651 43.9134 0.000655651 42.7216V37.2417H1.63877H4.2397Z" fill="#63BB66"/>
<path fill-rule="evenodd" clip-rule="evenodd" d="M20.3094 45.8905H10.4719V50.4158C10.4719 51.5027 11.3615 52.3885 12.443 52.3885H44.4727C44.4727 49.5437 44.4727 48.096 42.2962 48.096L37.9616 48.0915C35.233 48.0869 33.4444 47.3882 32.4452 45.8904H20.3094V45.8905Z" fill="#6F6571"/>
<path fill-rule="evenodd" clip-rule="evenodd" d="M40.6087 52.3887H12.4425C10.7908 55.2655 9.46297 58.7224 10.6083 65.3346C12.5247 58.8137 31.9897 61.4166 33.9881 68.9421H55.4653C56.2775 67.1018 57.0441 65.2843 57.7148 63.4487H51.66C39.4134 58.8273 43.3511 60.8868 40.6087 52.3887Z" fill="#7BE976"/>
<path fill-rule="evenodd" clip-rule="evenodd" d="M42.3477 34.7118C41.9278 36.922 41.3575 39.1003 40.7188 40.9542L34.5274 43.3801L27.6236 40.9542C27.8655 27.8895 32.7477 21.6243 36.8999 19.5968C38.3964 18.4573 39.9295 18.0281 39.9295 18.0281C39.9295 18.0281 41.9463 21.2545 42.0513 21.2545C42.8269 23.0993 43.1189 25.5059 43.0688 28.1042L42.3477 34.7118Z" fill="#ECEAEC"/>
<path fill-rule="evenodd" clip-rule="evenodd" d="M27.6244 40.9541H40.7197C43.7358 41.2829 47.4453 43.5799 47.4453 50.6944V58.1514L44.4734 59.9216L40.6103 58.1514V52.3885C40.6103 49.5436 40.6103 48.096 38.4339 48.096L34.0992 48.0914C31.3706 48.0869 29.582 47.3882 28.5828 45.8904C27.8116 44.7352 27.515 43.1049 27.6244 40.9541Z" fill="#8C94CB"/>
<path fill-rule="evenodd" clip-rule="evenodd" d="M27.6216 40.9543C27.8635 27.8896 32.7457 21.6244 36.8979 19.5969C37.5138 20.0307 38.1984 20.3869 38.9512 20.6518C35.2735 23.4327 31.5868 29.6477 31.377 40.9543H27.6216Z" fill="#DAD8DB"/>
<path fill-rule="evenodd" clip-rule="evenodd" d="M27.6243 40.9541H31.3795C31.2699 43.1049 31.5665 44.7352 32.3376 45.8905C32.9673 46.8358 33.9163 47.6349 35.2168 48.0916H34.0988C31.3702 48.0871 29.5816 47.3883 28.5824 45.8905C27.8115 44.7352 27.5149 43.1049 27.6243 40.9541Z" fill="#776FB3"/>
<path fill-rule="evenodd" clip-rule="evenodd" d="M33.9883 68.9422C33.9883 62.1885 28.6361 56.8091 22.0338 56.8091C16.6633 56.8091 12.1187 60.371 10.6084 65.3347C10.2981 66.353 10.1156 67.4353 10.0837 68.5586C10.07 68.997 10.3713 68.9422 10.7819 68.9422C18.5158 68.9422 26.2544 68.9377 33.9883 68.9422Z" fill="#82D57F"/>
<path fill-rule="evenodd" clip-rule="evenodd" d="M30.9824 68.9424H12.7859C13.0459 73.8468 17.0201 77.7466 21.8841 77.7466C26.7482 77.7466 30.7224 73.8468 30.9824 68.9424Z" fill="#6F6571"/>
<path fill-rule="evenodd" clip-rule="evenodd" d="M77.1901 67.0015L61.5351 70.6044C62.5298 74.929 66.8417 77.6323 71.1626 76.6368C75.4881 75.6413 78.1848 71.326 77.1901 67.0015Z" fill="#6F6571"/>
<path fill-rule="evenodd" clip-rule="evenodd" d="M78.3619 62.613C76.1489 59.3936 72.307 57.5259 68.2917 57.9278C61.2102 59.4256 58.9059 63.6587 58.4452 68.9376C58.4542 69.6545 58.5319 70.3761 58.687 71.0976C58.7327 71.2986 58.865 71.2164 59.0841 71.1661L61.5344 70.6044L77.1894 67.0014L78.362 66.732L80 66.353C79.6852 64.9739 79.1194 63.7136 78.3619 62.613Z" fill="#82D47F"/>
<path fill-rule="evenodd" clip-rule="evenodd" d="M68.3066 57.9095L61.9826 36.027L59.1354 34.7529L55.9505 36.027C60.1346 47.6259 58.9666 55.7222 56.1421 63.4487C55.4668 65.2845 54.7002 67.1019 53.8926 68.9422H58.4418L68.3066 57.9095Z" fill="#82D47F"/>
<path fill-rule="evenodd" clip-rule="evenodd" d="M48.7234 11.4914L41.3042 9.91138C40.5514 9.97981 38.3976 11.7883 38.3976 12.9208L39.9764 20.9486C40.6334 21.145 41.3316 21.2545 42.0525 21.2545C46.0039 21.2545 49.207 18.0443 49.207 14.0897C49.207 13.1718 49.0383 12.295 48.7234 11.4914Z" fill="#FFECE4"/>
<path fill-rule="evenodd" clip-rule="evenodd" d="M51.1172 11.4914C51.1172 6.38607 47.0745 2.25342 42.0828 2.25342C37.0911 2.25342 33.0484 6.38607 33.0484 11.4914C33.0484 14.8614 34.4173 17.857 36.8995 19.5969C37.7847 20.2225 38.8159 20.6837 39.9748 20.9486V12.9206C39.9748 11.7881 40.5497 11.5598 41.3027 11.4912H48.7217H51.1172V11.4914Z" fill="#7BE976"/>
<path fill-rule="evenodd" clip-rule="evenodd" d="M46.8105 3.61873C45.4371 2.75107 43.8173 2.25342 42.0835 2.25342C37.0918 2.25342 33.0491 6.38607 33.0491 11.4914C33.0491 14.8614 34.418 17.857 36.9002 19.5969C37.5299 20.0398 38.228 20.4006 38.9946 20.6654C37.1604 18.8069 36.1657 16.1401 36.1657 13.1992C36.1657 7.8656 40.3954 3.54107 45.6107 3.54107C46.0166 3.54107 46.4182 3.56389 46.8105 3.61873Z" fill="#63BB66"/>
<path fill-rule="evenodd" clip-rule="evenodd" d="M47.4455 58.1514H40.6103V62.4576C40.6103 63.3801 41.1122 63.4486 41.8514 63.4486H51.6614C51.8578 59.1286 49.2433 58.1514 47.4455 58.1514Z" fill="#6F6571"/>
<path fill-rule="evenodd" clip-rule="evenodd" d="M56.1409 63.4486C58.9653 55.7222 60.1334 47.6258 55.9494 36.0269H58.2947C58.3038 36.0269 58.313 36.0269 58.322 36.0269H59.1661C63.3502 47.6258 62.1867 55.722 59.3578 63.4486C58.687 65.2844 57.9205 67.1017 57.1083 68.942H55.4656H53.8914C54.6991 67.1017 55.4656 65.2842 56.1409 63.4486Z" fill="#63BB66"/>
<path fill-rule="evenodd" clip-rule="evenodd" d="M58.4447 68.9375L68.2913 57.9277C69.3088 57.8272 70.3172 57.8683 71.2891 58.0465L61.8258 68.6269C61.8349 69.2433 61.8942 69.8689 62.0128 70.4946L61.5338 70.6041L59.0834 71.1658C58.8644 71.216 58.732 71.2983 58.6864 71.0974C58.5314 70.376 58.4539 69.6544 58.4447 68.9375Z" fill="#63BB66"/>
<path fill-rule="evenodd" clip-rule="evenodd" d="M12.4431 52.3887H40.6094V54.8682H17.4667C15.5823 54.8682 14.688 55.681 13.9533 57.3296C13.3191 58.759 13.3053 59.2248 13.018 60.9509C11.9366 62.2066 11.1061 63.6954 10.6088 65.3346C9.4636 58.7223 10.7914 55.2655 12.4431 52.3887Z" fill="#63BB66"/>
<path fill-rule="evenodd" clip-rule="evenodd" d="M13.0166 60.9508C15.2067 58.4072 18.4327 56.8091 22.0327 56.8091C22.9361 56.8091 23.8122 56.9096 24.6562 57.0967C19.2675 58.316 15.4986 63.0742 15.3344 68.5586C15.3253 68.86 15.4622 68.9285 15.6811 68.9422H12.7838H10.7806C10.37 68.9422 10.0688 68.997 10.0825 68.5586C10.1144 67.4353 10.2969 66.353 10.6072 65.3347C10.6163 65.3027 10.6255 65.2753 10.6345 65.248C10.6345 65.248 10.6345 65.248 10.6345 65.2435C11.1366 63.6405 11.9533 62.1838 13.0166 60.9508Z" fill="#63BB66"/>
<path fill-rule="evenodd" clip-rule="evenodd" d="M62.0132 70.4947L77.1893 67.0015C77.3581 67.7183 77.4174 68.4399 77.3901 69.1432L65.3443 71.9151L64.8698 72.0246C65.317 73.9882 66.4531 75.6183 67.9634 76.719C64.8835 76.1755 62.2781 73.8466 61.5343 70.6044L62.0132 70.4947Z" fill="#5D5360"/>
<path fill-rule="evenodd" clip-rule="evenodd" d="M15.6832 68.9423H30.9824C30.9323 69.9012 30.736 70.8237 30.4212 71.6867H19.7624H16.8651C16.9791 73.8329 17.8004 75.7828 19.0963 77.3034C15.5784 76.1481 12.9913 72.8648 12.786 68.9421H15.6832V68.9423Z" fill="#5D5360"/>
<path fill-rule="evenodd" clip-rule="evenodd" d="M10.4713 50.4159V45.8906H16.6539V50.4159C16.6539 51.5028 17.5436 52.3886 18.625 52.3886H12.4423C11.3609 52.3888 10.4713 51.5028 10.4713 50.4159Z" fill="#5D5360"/>
<path fill-rule="evenodd" clip-rule="evenodd" d="M49.1699 13.3225H43.074C42.3212 13.3909 41.7462 13.6239 41.7462 14.7564V21.2453C41.1348 21.2179 40.5416 21.1175 39.9759 20.9484V12.9206C39.9759 11.7881 40.5507 11.5598 41.3037 11.4912H48.7227C48.9463 12.0667 49.1015 12.6831 49.1699 13.3225Z" fill="#FFDDCE"/>
<path fill-rule="evenodd" clip-rule="evenodd" d="M63.3005 29.1362L54.7635 31.9582C54.3437 32.3326 54.8182 36.1503 55.1012 36.027H61.982H65.0254V29.7435C65.0254 28.506 64.382 28.7799 63.3005 29.1362Z" fill="#7BE976"/>
<path fill-rule="evenodd" clip-rule="evenodd" d="M50.7826 36.0271H51.499H55.099C57.417 36.0271 57.4854 32.1821 54.7613 31.9584L50.7826 31.6387L49.7149 33.8991L50.7826 36.0271Z" fill="#FFECE4"/>
<path fill-rule="evenodd" clip-rule="evenodd" d="M43.0674 28.1041L41.6393 26.8756C38.0621 23.7933 33.5402 28.9946 38.3221 32.0997L42.3465 34.7117L44.3724 36.0269H50.7832V31.6385L46.7999 31.3142L43.0674 28.1041Z" fill="#8C94CB"/>
<path fill-rule="evenodd" clip-rule="evenodd" d="M50.7853 36.0268V33.8989H51.6386H52.0994H52.8203H56.4203C56.5572 33.8989 56.685 33.8898 56.8081 33.8623C56.9405 34.9217 56.3426 36.0268 55.1016 36.0268H51.5015H50.7853Z" fill="#FFDDCE"/>
<path fill-rule="evenodd" clip-rule="evenodd" d="M38.3221 32.0997C35.4293 30.2183 35.9404 27.5744 37.5874 26.4602C37.4551 27.6018 37.998 28.9124 39.6407 29.9765L42.7754 32.0085L43.6605 32.5885L45.6865 33.8991H50.7832V36.0271H44.3724L42.3465 34.7119L38.3221 32.0997Z" fill="#776FB3"/>
<path fill-rule="evenodd" clip-rule="evenodd" d="M54.7621 31.9582L58.1979 30.8257C59.3477 32.0587 59.9044 34.4605 59.1652 36.0269H55.9485H55.0997C56.3408 36.0269 56.9385 34.9218 56.8063 33.8624C56.6877 32.9446 56.026 32.0632 54.7621 31.9582Z" fill="#63BB66"/>
</g>
<defs>
<clipPath id="clip0">
<rect width="80" height="80" fill="white"/>
</clipPath>
</defs>
</svg>
