<svg width="208" height="208" viewBox="0 0 208 208" fill="none" xmlns="http://www.w3.org/2000/svg">
<path d="M37.0488 68.3784L108.886 37.3899L113.712 48.5776L41.8749 79.5662L37.0488 68.3784Z" fill="#6B61B1"/>
<path d="M37.0449 90.8823L41.871 79.6946L112.862 110.318L108.035 121.506L37.0449 90.8823Z" fill="#6B61B1"/>
<path d="M26.4062 106.031C11.8458 106.031 0 94.1854 0 79.625C0 65.0646 11.8458 53.2188 26.4062 53.2188C40.9667 53.2188 52.8125 65.0646 52.8125 79.625C52.8125 94.1854 40.9667 106.031 26.4062 106.031Z" fill="#8BB9FF"/>
<path d="M26.4062 53.2188V106.031C40.9667 106.031 52.8125 94.1854 52.8125 79.625C52.8125 65.0646 40.9667 53.2188 26.4062 53.2188Z" fill="#7D81E7"/>
<path d="M120.656 61.3438C108.336 61.3438 98.3125 51.3203 98.3125 39C98.3125 26.6797 108.336 16.6562 120.656 16.6562C132.977 16.6562 143 26.6797 143 39C143 51.3203 132.977 61.3438 120.656 61.3438Z" fill="#8BB9FF"/>
<path d="M120.656 16.6562V61.3438C132.977 61.3438 143 51.3203 143 39C143 26.6797 132.977 16.6562 120.656 16.6562Z" fill="#7D81E7"/>
<path d="M151.125 185.25C179.171 185.25 201.906 162.514 201.906 134.469C201.906 106.423 179.171 83.6875 151.125 83.6875C123.079 83.6875 100.344 106.423 100.344 134.469C100.344 162.514 123.079 185.25 151.125 185.25Z" fill="#8BB9FF"/>
<path d="M201.906 134.469C201.906 106.423 179.171 83.6875 151.125 83.6875V185.25C179.171 185.25 201.906 162.515 201.906 134.469Z" fill="#7D81E7"/>
<path d="M150.785 138.533C132.366 138.712 117.543 153.526 116.639 171.739C125.695 180.123 137.811 185.25 151.126 185.25C164.449 185.25 176.571 180.117 185.629 171.724C184.919 153.189 169.532 138.351 150.785 138.533Z" fill="#FFE278"/>
<path d="M151.125 138.538V185.25C164.448 185.25 176.57 180.117 185.628 171.724C184.922 153.302 169.717 138.539 151.125 138.538Z" fill="#FFB454"/>
<path d="M151.125 150.719C138.805 150.719 128.781 140.695 128.781 128.375C128.781 116.055 138.805 106.031 151.125 106.031C163.445 106.031 173.469 116.055 173.469 128.375C173.469 140.695 163.445 150.719 151.125 150.719Z" fill="#FFDDCE"/>
<path d="M173.469 128.375C173.469 116.055 163.445 106.031 151.125 106.031V150.719C163.445 150.719 173.469 140.695 173.469 128.375Z" fill="#FFBCA7"/>
<path d="M151.125 191.344C119.764 191.344 94.25 165.83 94.25 134.469C94.25 103.108 119.764 77.5938 151.125 77.5938C182.486 77.5938 208 103.108 208 134.469C208 165.83 182.486 191.344 151.125 191.344ZM151.125 89.7812C126.484 89.7812 106.438 109.828 106.438 134.469C106.438 159.109 126.484 179.156 151.125 179.156C175.766 179.156 195.812 159.109 195.812 134.469C195.812 109.828 175.766 89.7812 151.125 89.7812Z" fill="#F4F4F6"/>
<path d="M195.812 134.469C195.812 159.109 175.766 179.156 151.125 179.156V191.344C182.486 191.344 208 165.83 208 134.469C208 103.108 182.486 77.5938 151.125 77.5938V89.7812C175.766 89.7812 195.812 109.828 195.812 134.469Z" fill="#E2DFF4"/>
</svg>
