<svg width="65" height="60" viewBox="0 0 65 60" fill="none" xmlns="http://www.w3.org/2000/svg">
<path d="M48.862 49.2516C48.1767 49.2516 47.6206 48.6967 47.6206 48.0102C47.6206 47.3237 48.1767 46.7688 48.862 46.7688C56.3115 46.7688 61.8381 42.141 62.4588 35.5964H51.3447C50.6595 35.5964 50.1034 35.0415 50.1034 34.355C50.1034 33.6686 50.6595 33.1137 51.3447 33.1137H63.7585C64.4438 33.1137 64.9999 33.6686 64.9999 34.355C64.9999 42.8473 58.0618 49.2516 48.862 49.2516Z" fill="#A46F3E"/>
<path d="M12.7913 24.0764C12.4735 24.0764 12.1557 23.9548 11.9137 23.7127C10.8337 22.6327 10.2378 21.1977 10.2378 19.672C10.2378 18.1463 10.8324 16.7101 11.9137 15.6301C12.5257 15.0206 12.8621 14.2074 12.8621 13.3447C12.8621 12.4819 12.5257 11.6688 11.9137 11.0581C11.4283 10.5727 11.4283 9.78814 11.9137 9.30276C12.3978 8.81738 13.1836 8.81738 13.669 9.30276C14.749 10.3828 15.3448 11.8178 15.3448 13.3447C15.3448 14.8716 14.7502 16.3066 13.669 17.3866C13.0582 17.9974 12.7206 18.8092 12.7206 19.6732C12.7206 20.5348 13.057 21.3479 13.669 21.9586C14.1543 22.444 14.1543 23.2286 13.669 23.7139C13.4281 23.956 13.1091 24.0764 12.7913 24.0764Z" fill="#E6E6E6"/>
<path d="M40.1016 24.0764C39.7838 24.0764 39.466 23.9548 39.224 23.7127C38.144 22.6327 37.5481 21.1977 37.5481 19.672C37.5481 18.1463 38.1427 16.7101 39.224 15.6301C39.836 15.0206 40.1724 14.2074 40.1724 13.3447C40.1724 12.4819 39.836 11.6688 39.224 11.0581C38.7386 10.5727 38.7386 9.78814 39.224 9.30276C39.7081 8.81738 40.4939 8.81738 40.9793 9.30276C42.0593 10.3828 42.6551 11.8178 42.6551 13.3447C42.6551 14.8716 42.0605 16.3066 40.9793 17.3866C40.3685 17.9974 40.0309 18.8092 40.0309 19.6732C40.0309 20.5348 40.3673 21.3479 40.9793 21.9586C41.4646 22.444 41.4646 23.2286 40.9793 23.7139C40.7384 23.956 40.4194 24.0764 40.1016 24.0764Z" fill="#E6E6E6"/>
<path d="M26.3695 20.3523C26.0517 20.3523 25.7339 20.2306 25.4919 19.9886C24.1189 18.6168 23.3629 16.7932 23.3629 14.853C23.3629 12.9127 24.1189 11.0903 25.4919 9.71614C26.3956 8.81117 26.8934 7.612 26.8934 6.33586C26.8934 5.05972 26.3956 3.85931 25.4919 2.95434C25.0065 2.46896 25.0065 1.68441 25.4919 1.19903C25.9773 0.713654 26.7618 0.713654 27.2472 1.19903C28.6202 2.572 29.3762 4.39559 29.3762 6.33586C29.3762 8.27614 28.6202 10.0985 27.2472 11.4714C26.3435 12.3764 25.8457 13.5756 25.8457 14.853C25.8457 16.1279 26.3435 17.3283 27.2472 18.2332C27.7326 18.7186 27.7326 19.5032 27.2472 19.9886C27.0064 20.2319 26.6873 20.3523 26.3695 20.3523Z" fill="#E6E6E6"/>
<path d="M13.4058 59.1826H39.6274C48.4226 53.8943 52.5862 43.2905 52.5862 30.6309H0.448242C0.448242 43.2905 4.61183 53.8943 13.4058 59.1826Z" fill="#A46F3E"/>
</svg>
