<svg width="190" height="92" viewBox="0 0 190 92" fill="none" xmlns="http://www.w3.org/2000/svg">
<path opacity="0.1" d="M166.764 29.7331L166.789 29.7305L166.788 29.7028L168.273 29.5512L171.102 30.006L171.786 30.4002L172.351 30.8248L172.988 31.128L173.954 31.0977L174.709 30.7035L175.793 29.5512L176.666 29.2176L179.447 29.915L181.404 31.2493L182.724 33.0687L183.596 35.2216L189.094 42.4551L183.282 46.0176L171.844 48.8301L158.344 46.3926L136.594 45.8926L135.719 50.2051L130.719 49.9551L115.282 59.0176L103.094 64.8301L101.844 67.7051L97.3442 70.3926L96.1567 73.3926L90.0317 75.2676H82.1567L60.2192 77.7676L37.5942 79.3301L31.4692 81.0801L24.4692 86.7051L17.4692 91.0176L8.29245 91.5578L7.39662 91.6791L7.44378 90.83L7.51451 90.4965L7.98597 88.9197L8.12741 88.7074L12.1586 83.9163L12.5122 83.3705L12.5594 83.0976V82.8247L12.5358 82.5517L12.4886 82.2789L12.3944 82.0363L11.9228 81.1569L11.7814 80.6717L11.7579 80.3988L11.9465 78.9433L11.8993 78.6704L11.8521 78.3975L11.7343 78.1852L11.5692 77.9729L10.6027 77.0329L10.4377 76.8206L10.3198 76.6084L9.87193 75.4258L9.8012 74.88L9.84837 73.7883L9.70692 72.4541L9.75405 72.1812V72.0296L10.0369 71.4231L10.0542 71.3962L10.0841 71.3321L10.36 70.9011L0 61.2692L0.060828 61.191L0.047134 61.1782L0.465368 60.6403L0.848663 59.4802L0.966534 59.2072L0.979814 59.1947L1.0137 59.1163L1.36729 58.7827L1.93309 58.4188L3.22969 57.9033L3.98403 57.7214L5.37492 57.5394L5.70495 57.4485L5.98786 57.3272L10.0897 54.6587L10.9149 54.3252L11.5749 54.1433H11.9993L12.4001 54.0826L12.6337 53.946L12.7065 53.6884L12.6358 53.4155L12.4236 52.9606L12.3293 52.7181L12.3057 52.4451L12.2822 52.1722L12.3765 51.5961L12.4708 51.2929L12.5178 51.202L12.5179 51.2019L12.6122 51.02L12.6594 50.929L12.8244 50.6561L13.178 50.3831L13.7202 50.0799L14.8282 49.5947L15.9126 49.2915L16.7377 49.1399L17.3742 48.867L25.0359 43.3786L30.9294 40.8618L33.6876 40.1947L36.6815 39.7398L39.982 39.6488L41.4436 39.7701L42.2687 39.9521L43.7067 40.3766L44.3668 40.6798L45.0032 40.8921L45.404 40.983H45.8048L46.2055 40.8921L46.5828 40.7101L46.9835 40.3159L47.2799 39.8258L47.9501 38.072L49.0345 31.8557V31.0977L47.4786 27.6408L46.9599 25.6091L46.8656 24.7601L46.9364 24.4568L47.1014 24.093L47.5493 23.5775L47.9029 23.2439L48.6337 22.7588L49.5531 22.2736L52.4056 21L52.4943 21.0539L53.2543 21.5155L54.8338 21.9097L57.9456 22.2433L58.4642 22.6678L58.9121 24.3356L59.6665 24.7601L60.4916 24.6085L60.8216 24.1233L61.0809 23.4865L61.6231 22.9104L63.6741 22.122L64.7114 22.7891L65.4422 23.9717L66.6445 24.6085L68.0118 25.9427L68.2475 26.3672L68.1061 27.004L68.1297 27.186L71.5243 28.2169L72.6795 28.3686L73.8582 28.3079L75.0841 27.8228L76.2156 26.4582L77.1114 25.973L78.8324 26.6098H79.516L79.9168 26.2459L80.3411 25.124L80.6947 24.7298L81.8499 24.4568L82.4864 24.8814L82.6514 25.8517L82.4157 27.186L82.4183 27.1589L82.3921 27.3073L82.4393 26.8221L81.565 29.0416L81.5434 29.7634L82.2742 30.7641L83.3351 31.5525L84.6552 32.068L85.9754 32.0377L86.8912 31.2523L85.9282 30.1576L85.4332 29.3995L85.2446 28.5808L85.3389 27.5802L85.3527 27.5624L85.3625 27.4589L85.5982 27.1556L87.602 27.3679L88.4271 28.3079L88.1442 30.2789L88.3092 32.2803L90.4781 33.2809L94.6979 32.9474L95.9709 33.0687L96.8432 33.3113L98.5876 34.13L100.874 34.7971L102.902 34.9791L104.787 34.5545L106.603 33.4326L107.899 33.7661L111.412 33.3416L112.708 33.9177L114.5 35.1003L114.901 35.7068L115.985 37.7081L116.81 38.6482L117.73 39.2849L118.908 39.6488L120.511 39.8004L121.707 39.3865L120.842 36.9804L121.572 35.9797L121.574 35.9796L121.596 35.9494L122.445 35.8887L122.94 36.2526L123.246 36.7378L123.529 37.041L124.283 37.1623H126.712L128.236 36.8949L128.032 36.2223L126.9 35.4036L125.674 34.7668L123.01 34.1906L121.69 33.6751L121.62 32.9171L121.645 32.9046L121.643 32.8868L123.175 32.1287L124.731 32.4319L127.254 33.8571L128.291 34.1603L129.399 34.2816L130.306 33.9227L130.79 32.7958L130.507 32.3712L129.258 31.3402L128.998 30.7944L129.446 30.1576L129.448 30.1577L129.47 30.1273L130.318 30.1576L131.12 30.6125L131.426 31.3706L131.591 32.5532L132.228 33.3416L133.194 33.3719L134.352 32.2104L134.538 31.5222L134.185 30.4305L134.562 29.8544L134.568 29.8511L134.585 29.8241L135.34 29.3995L136.094 29.3389L136.849 29.5512L137.579 29.9454L136.966 31.3402L137.249 32.7351L138.122 33.8268L139.371 34.2816L141.233 34.13L142.294 33.6145L143.119 32.8564L144.274 32.068L145.783 31.6738L147.339 31.7648L149.956 32.2499L150.875 33.008L151.3 33.2809L151.606 33.1597L151.936 32.9171L152.384 32.7958L153.233 32.8868L154.647 33.2809L157.759 33.6145L158.443 33.5538L158.938 33.2506L159.881 32.3106L160.305 32.1287L162.78 32.1893L163.535 32.3712L165.067 33.099L165.939 33.2506L166.741 33.2203L167.472 33.1293L168.061 32.8564L168.438 32.3712L168.603 31.4009L168.155 31.0674L167.448 30.9764L166.811 30.6428L166.764 29.7331Z" fill="#333333"/>
<path d="M183.415 24.1168V36.7363L188.872 33.8637V21.2441L183.415 24.1168ZM136.887 23.8702V36.4953L158.697 37.0642V24.4447L136.887 23.8702ZM172.022 26.9949V39.6144L183.418 36.7391V24.1168L172.022 26.9949ZM158.697 24.4419V37.0614L172.019 39.6144V26.9949L158.697 24.4419ZM135.88 28.1776V40.7971L136.887 36.4925V23.8674L135.88 28.1776ZM131.043 28.0234V40.643L135.88 40.7971V28.1776L131.043 28.0234ZM115.315 37.1931V49.8127L131.043 40.643V28.0234L115.315 37.1931ZM103.387 42.9522V55.5717L115.315 49.8155V37.1959L103.387 42.9522ZM102.018 45.8275V58.4499L103.387 55.5689V42.9494L102.018 45.8275ZM97.5093 48.4226V61.0422L102.018 58.4527V45.8304L97.5093 48.4226ZM96.4437 51.4129V64.038L97.5093 61.0422V48.4226L96.4437 51.4129ZM90.1234 53.3214V65.9409L96.4437 64.0352V51.4101L90.1234 53.3214ZM82.4094 53.3802V65.9997L90.1234 65.9409V53.3214L82.4094 53.3802ZM60.5096 55.7623V68.3818L82.4094 65.9997V53.3802L60.5096 55.7623ZM37.9004 57.3261V69.9456L60.5096 68.3818V55.7623L37.9004 57.3261ZM31.7286 59.0215V71.6411L37.9004 69.9456V57.3261L31.7286 59.0215ZM24.5783 64.5705V77.19L31.7286 71.6411V59.0215L24.5783 64.5705ZM17.6606 69.0685V81.688L24.5755 77.19V64.5705L17.6606 69.0685ZM7.42578 70.0381V82.6576L17.6606 81.6851V69.0656L7.42578 70.0381Z" fill="#0B2856"/>
<path d="M0.12207 51.6133L0.18457 40.4883L7.93457 45.1758C10.0804 46.1758 14.5221 48.3008 15.1221 48.8008C15.8721 49.4258 19.4971 56.0508 19.5596 56.7383C19.6221 57.4258 17.9346 69.8008 17.7471 70.6133C17.5971 71.2633 10.3929 70.1758 7.55957 71.1758L7.43457 61.9258L0.12207 51.6133Z" fill="#0B2856"/>
<path d="M47.0596 3.80078L47.4346 3.36328L51.1846 4.73828C52.2054 6.63411 54.2971 10.6632 54.4971 11.6132C54.6971 12.5632 49.4554 18.7591 46.8096 21.7382L47.0596 3.80078Z" fill="#0B2856"/>
<path d="M85.3721 6.92578L85.7471 6.36328C86.3721 7.09244 87.6221 8.85078 87.6221 10.0507C87.6221 11.2507 87.2054 11.7174 86.9971 11.8007L84.9971 12.6132L85.3721 6.92578Z" fill="#0B2856"/>
<path d="M82.4346 11.8632C82.9846 12.1132 82.8721 7.21744 82.7471 4.73828C82.2471 5.09244 81.0721 5.87578 80.3721 6.17578C79.4971 6.55078 78.1846 8.48828 77.7471 8.98828C77.3096 9.48828 81.7471 11.5507 82.4346 11.8632Z" fill="#0B2856"/>
<path d="M88.4346 12.3007V7.61328L87.6846 7.80078L88.4346 12.3007Z" fill="url(#paint0_linear)"/>
<path d="M121.06 19.9883L120.997 16.1133L122.185 15.9258C122.351 16.1758 122.785 17.1633 123.185 19.1133C123.135 19.7633 121.747 19.9675 121.06 19.9883Z" fill="#0B2856"/>
<path d="M121.81 15.4258L121.935 12.1133C122.455 12.1967 123.572 12.3633 123.872 12.3633C124.172 12.3633 127.414 13.5717 128.997 14.1758C129.101 14.53 129.385 15.4758 129.685 16.4258C129.985 17.3758 129.06 18.1967 128.56 18.4883C128.08 18.655 126.897 19.0383 125.997 19.2383C125.097 19.4383 123.789 17.78 123.247 16.9258L121.81 15.4258Z" fill="#0B2856"/>
<path d="M129.31 14.1757L129.247 9.92578L130.935 10.9257C131.351 11.4466 132.297 12.6507 132.747 13.3007C133.197 13.9507 132.851 14.7799 132.622 15.1132L129.31 14.1757Z" fill="#0B2856"/>
<path d="M134.06 13.1757L134.185 9.55078L134.747 9.73828L135.06 10.3007L135.122 11.0507L134.06 13.1757Z" fill="#0B2856"/>
<path d="M138.06 13.6757L137.622 9.17578L136.622 9.92578L135.81 10.9882L138.06 13.6757Z" fill="#0B2856"/>
<path d="M166.622 12.8632L166.935 9.05078C167.893 9.25911 169.86 9.87578 170.06 10.6757C170.31 11.6757 169.81 12.0507 169.81 12.9882C169.81 13.7382 167.685 13.2174 166.622 12.8632Z" fill="#0B2856"/>
<path d="M166.899 8.78974L166.924 8.78719L166.923 8.7594L168.408 8.60782L171.237 9.06266L171.921 9.45688L172.486 9.88141L173.123 10.1846L174.089 10.1543L174.844 9.7601L175.928 8.60782L176.801 8.27426L179.582 8.97168L181.539 10.3059L182.859 12.1253L183.731 14.2782L189.229 21.5117L183.417 25.0742L171.979 27.8867L158.479 25.4492L136.729 24.9492L135.854 29.2617L130.854 29.0117L115.417 38.0742L103.229 43.8867L101.979 46.7617L97.479 49.4492L96.2915 52.4492L90.1665 54.3242H82.2915L60.354 56.8242L37.729 58.3867L31.604 60.1367L24.604 65.7617L17.604 70.0742L8.42722 70.6144L7.53139 70.7357L7.57855 69.8866L7.64928 69.5531L8.12074 67.9763L8.26218 67.764L12.2934 62.9729L12.647 62.4271L12.6942 62.1542V61.8813L12.6706 61.6083L12.6234 61.3355L12.5292 61.0929L12.0576 60.2135L11.9162 59.7283L11.8927 59.4554L12.0813 57.9999L12.0341 57.727L11.9869 57.4541L11.8691 57.2418L11.704 57.0295L10.7375 56.0895L10.5725 55.8772L10.4546 55.665L10.0067 54.4824L9.93597 53.9366L9.98314 52.8449L9.84169 51.5107L9.88882 51.2378V51.0862L10.1717 50.4797L10.189 50.4528L10.2189 50.3887L10.4948 49.9577L0.134766 40.3258L0.195594 40.2476L0.1819 40.2348L0.600134 39.6969L0.983429 38.5368L1.1013 38.2638L1.11458 38.2513L1.14847 38.1729L1.50206 37.8393L2.06786 37.4754L3.36446 36.9599L4.1188 36.778L5.50969 36.596L5.83972 36.5051L6.12263 36.3838L10.2245 33.7153L11.0497 33.3818L11.7097 33.1999H12.1341L12.5349 33.1392L12.7685 33.0026L12.8413 32.745L12.7706 32.4721L12.5584 32.0172L12.4641 31.7747L12.4405 31.5017L12.417 31.2288L12.5113 30.6527L12.6056 30.3495L12.6526 30.2586L12.6527 30.2585L12.747 30.0766L12.7942 29.9856L12.9592 29.7127L13.3128 29.4397L13.855 29.1365L14.963 28.6513L16.0474 28.3481L16.8725 28.1965L17.509 27.9236L25.1707 22.4352L31.0642 19.9184L33.8224 19.2513L36.8163 18.7964L40.1168 18.7054L41.5784 18.8267L42.4035 19.0087L43.8415 19.4332L44.5016 19.7364L45.138 19.9487L45.5388 20.0396H45.9396L46.3403 19.9487L46.7176 19.7667L47.1183 19.3725L47.4147 18.8824L48.0849 17.1286L49.1693 10.9123V10.1543L47.6134 6.69742L47.0947 4.66577L47.0004 3.81674L47.0712 3.51349L47.2362 3.14962L47.6841 2.63413L48.0377 2.30057L48.7685 1.81542L49.6879 1.33023L52.5404 0.0566406L52.6291 0.11052L53.3891 0.572143L54.9686 0.966339L58.0804 1.2999L58.599 1.72443L59.0469 3.39221L59.8013 3.81674L60.6264 3.6651L60.9564 3.17995L61.2157 2.54317L61.7579 1.96701L63.8089 1.17861L64.8462 1.84571L65.577 3.02832L66.7793 3.6651L68.1466 4.99933L68.3823 5.42386L68.2409 6.06067L68.2645 6.24262L71.6591 7.27359L72.8143 7.4252L73.993 7.36457L75.2189 6.8794L76.3504 5.51483L77.2462 5.02967L78.9672 5.66645H79.6508L80.0516 5.30255L80.4759 4.18064L80.8295 3.78641L81.9847 3.51349L82.6212 3.93802L82.7862 4.90839L82.5505 6.24262L82.5531 6.21551L82.5269 6.36393L82.5741 5.87873L81.6998 8.09822L81.6782 8.82007L82.409 9.82077L83.4699 10.6091L84.79 11.1246L86.1102 11.0943L87.026 10.3089L86.063 9.21427L85.568 8.45618L85.3794 7.63748L85.4737 6.63681L85.4875 6.61902L85.4973 6.51551L85.733 6.21228L87.7368 6.42453L88.5619 7.36457L88.279 9.33557L88.444 11.3369L90.6129 12.3375L94.8327 12.004L96.1057 12.1253L96.978 12.3679L98.7224 13.1866L101.009 13.8537L103.037 14.0357L104.922 13.6111L106.738 12.4892L108.034 12.8227L111.547 12.3982L112.843 12.9743L114.635 14.1569L115.036 14.7634L116.12 16.7647L116.945 17.7048L117.865 18.3415L119.043 18.7054L120.646 18.857L121.842 18.4431L120.977 16.037L121.707 15.0363L121.709 15.0362L121.731 15.006L122.58 14.9453L123.075 15.3092L123.381 15.7944L123.664 16.0976L124.418 16.2189H126.847L128.371 15.9515L128.167 15.2789L127.035 14.4602L125.809 13.8234L123.145 13.2472L121.825 12.7317L121.755 11.9737L121.78 11.9612L121.778 11.9434L123.31 11.1853L124.866 11.4885L127.389 12.9137L128.426 13.2169L129.534 13.3382L130.441 12.9793L130.925 11.8524L130.642 11.4278L129.393 10.3968L129.133 9.85108L129.581 9.21427L129.583 9.21435L129.605 9.18396L130.453 9.21427L131.255 9.66913L131.561 10.4272L131.726 11.6098L132.363 12.3982L133.329 12.4285L134.487 11.267L134.673 10.5788L134.32 9.48719L134.697 8.91104L134.703 8.90775L134.72 8.88071L135.475 8.45618L136.229 8.39557L136.984 8.60782L137.714 9.00202L137.101 10.3968L137.384 11.7917L138.257 12.8834L139.506 13.3382L141.368 13.1866L142.429 12.6711L143.254 11.913L144.409 11.1246L145.918 10.7304L147.474 10.8214L150.091 11.3065L151.01 12.0646L151.435 12.3375L151.741 12.2163L152.071 11.9737L152.519 11.8524L153.368 11.9434L154.782 12.3375L157.894 12.6711L158.578 12.6104L159.073 12.3072L160.016 11.3672L160.44 11.1853L162.915 11.2459L163.67 11.4278L165.202 12.1556L166.074 12.3072L166.876 12.2769L167.607 12.1859L168.196 11.913L168.573 11.4278L168.738 10.4575L168.29 10.124L167.583 10.033L166.946 9.69947L166.899 8.78974Z" fill="#1C4587"/>
<defs>
<linearGradient id="paint0_linear" x1="-132.067" y1="-1.16924" x2="159.756" y2="69.8612" gradientUnits="userSpaceOnUse">
<stop stop-color="#3A90B6"/>
<stop offset="1" stop-color="#075F92"/>
</linearGradient>
</defs>
</svg>
