<svg width="297" height="144" viewBox="0 0 297 144" fill="none" xmlns="http://www.w3.org/2000/svg">
<path opacity="0.1" d="M143.57 24.849L146.045 25.0613L146.964 24.8793L147.271 24.758L147.648 24.7277L148.12 24.8187L148.803 25.1522L149.322 25.3039L150.053 25.3342L151.656 25.0613H152.08L153.895 25.2129H155.263L155.64 25.2735L156.889 25.6071L159.034 26.4865L159.624 26.82L160.001 27.0929L160.237 27.5478L160.355 27.76L160.614 27.9723L165.447 30.2162L165.942 30.6104L166.201 30.944L166.508 31.1866L168.511 31.975L168.889 32.1872L170.232 33.2485L171.246 33.855L175.584 35.2499L176.762 35.8261L178.295 36.7964L178.743 36.9177L179.308 36.9783L180.251 36.9177L181.689 36.6751L182.043 36.6448L185.721 36.8873L186.098 36.8267L186.404 36.7054L186.663 36.5538L187.088 36.5235L187.583 36.5841L188.856 37.1906L189.21 37.4028L189.563 37.5545L190.035 37.6151L192.156 37.4635L192.651 37.5241L193.194 37.6758L193.877 38.0093L194.396 38.1609L195.08 38.1306L195.457 37.979L196.07 37.6758H196.635L199.677 38.1306L201.162 38.5248L201.963 38.828L202.718 38.7977L203.166 38.7371L203.496 38.5855L203.755 38.4339L204.391 38.2216L204.769 38.1609L205.452 38.0093L205.759 37.888L206.82 37.3119L207.998 36.7964L211.322 35.8867L212.171 35.4925L212.807 35.6138L213.774 35.9776L215.825 37.0693L216.509 37.6151L216.862 38.1003L216.839 38.3732V38.6461L216.956 38.8887L217.475 39.3435L218.842 40.2229L219.055 40.4048L219.172 40.6171L219.078 40.8294L219.031 41.0416L218.277 41.9513L218.064 42.1636L217.829 42.3152L216.061 43.043L215.566 43.3765L215.33 43.5585L215.188 43.7404L215.283 43.9224L215.66 44.0133L218.041 43.8314L218.395 43.892L218.913 44.0437L220.21 44.6804L220.799 44.8927L222.732 45.1656L223.345 45.3779L223.628 45.7417V46.045L223.958 46.3785L224.642 46.6818L226.245 47.1973L226.952 47.5005L227.4 47.7734L227.871 48.3799L228.296 48.6224L230.323 49.4412L230.747 49.7747L230.865 50.078L230.7 50.2902L230.559 50.4419L230.229 50.7148L228.838 51.3819L228.602 51.5941L228.461 51.8367L228.319 52.1096L228.296 52.3825L228.39 52.5948L228.767 52.8071L231.596 53.8987L233.435 55.0207L238.857 57.5375L239.824 58.2046L240.012 58.3865L240.13 58.5988L240.083 58.8717L239.965 59.1143L239.093 60.2969L238.975 60.5395L238.904 60.7821L238.975 61.0247L239.164 61.1763L240.389 61.7524L241.757 62.5105L241.969 62.6621L242.063 62.8137L241.945 62.9957L241.78 63.2079L240.012 64.7241L239.847 64.9364L239.776 65.1487L239.894 65.3306L240.672 65.8158L241.002 65.8764L241.379 65.8461L241.945 65.5125L242.558 64.997L242.794 64.8454L243.124 64.7545L243.548 64.8454L243.925 64.9667L244.515 65.2699L244.821 65.3912L245.34 65.3609L245.953 65.1487L247.108 64.5422L247.297 64.239L247.202 63.9964L246.566 63.7538L246.307 63.6021L246.212 63.3899L246.283 63.1776L247.32 61.7828L252.106 57.5072L253.19 56.931L253.638 56.8401L254.227 56.8097L255.406 57.0523L258.706 58.053L259.885 58.5988L260.286 58.8717L260.805 59.2962L261.064 59.4479L261.606 59.5692L262.431 59.5995L269.024 58.3569L269.708 58.1446L270.227 57.6898L267.476 58.0227L271.625 57.4769L271.932 58.1137L276.002 57.3259L276.097 57.5988L276.262 57.8111L276.45 57.993L276.757 58.084H277.11L279.609 57.6595H279.939L280.246 57.7504L280.458 57.9324L280.529 58.1446L280.505 58.3569L280.199 58.7208L279.609 59.024L279.374 59.206L278.737 60.2066L278.407 60.4189L278.101 60.5705L277.841 60.8434L277.723 61.2376L277.841 62.6021L277.912 62.966L278.03 63.1783L278.242 63.2996H278.548L280.788 63.0267L281.094 62.9054L281.354 62.7538L281.519 62.5112L281.637 62.2079L281.967 60.6615L282.108 60.2976L282.368 59.8124L282.721 59.6002L283.075 59.4789L286.187 59.1453L286.988 59.1756L287.295 59.2969L287.507 59.4485L287.672 59.6608L287.79 59.873L288.025 60.6008L288.308 62.117L288.285 62.3899L288.143 62.6628L287.695 62.966L286.964 63.2693L285.998 63.5725L285.786 63.7241L285.691 63.9667L285.927 64.6035L286.045 64.8158L286.139 64.9674L286.234 65.1493L286.281 65.3313L286.163 65.5739L285.833 65.7861L285.173 66.059L284.961 66.2713L284.796 66.5442L285.008 68.6971L285.244 68.97L285.88 69.2733L285.974 69.4855L285.668 69.7888L285.385 70.001L283.782 70.5772L283.499 70.8501L283.358 71.123L283.428 71.6688L283.523 72.0327L283.971 72.9727L284.513 74.974L284.489 75.3076L284.23 76.854V77.1875L284.324 77.4605L284.466 77.6727L284.654 77.8546L284.914 77.9759H285.244L285.55 77.9153L286.163 77.703L286.894 77.5817L287.295 77.5514L287.672 77.5817L287.955 77.6727L288.167 77.8243L288.285 78.0366L288.403 78.2488L288.568 78.4308L288.851 78.4914L290.524 78.5521L290.901 78.6734L291.137 78.825L291.279 79.0676L291.467 79.8257L291.656 80.3109L291.892 80.7354L292.127 81.2205L293.07 83.889L293.117 84.0709L293.188 84.2832L293.259 84.5258L293.565 85.2535L293.612 85.4961L293.471 85.86L293.141 86.2845L292.174 87.0123L287.585 88.3155L287.09 88.4975L286.383 88.6491L286.1 88.8007L285.888 89.0433L285.77 89.4981L285.793 89.8317L285.864 90.1046L286.571 91.9846L286.807 92.4395L287.703 93.6827L287.892 94.1376L288.174 95.1084L288.198 95.3804V95.6534L288.174 95.9264L287.774 96.3514L287.09 96.9274L285.393 98.0194L284.544 98.4434L283.86 98.6554L283.46 98.5954L280.772 97.8974L277.967 97.5034L277.59 97.3824L277.283 97.2604L277.047 97.0794L276.67 96.4424L276.458 96.2604L276.199 96.1084L275.869 95.9874L271.531 95.3204H271.13L270.753 95.3504L268.325 95.8964L267.075 95.9264L266.722 95.9874L266.392 96.0784L266.109 96.1994L265.802 96.3814L265.52 96.6244L265.307 97.0794L265.237 97.6854L265.425 101.779L265.496 102.082L265.944 103.022L266.038 103.81L266.415 104.174L266.816 104.356L268.136 104.417L268.513 104.477L268.82 104.629L269.056 104.811L269.221 105.023L269.339 105.236L264.51 109.317L265.052 109.894L265.17 110.106V110.288L264.816 110.439L264.038 110.591L261.61 110.712L261.162 110.803L260.738 110.925L260.219 111.228L259.748 111.349L258.545 111.44L258.263 111.592L258.05 111.834L257.932 112.228L257.909 112.562L257.932 112.835L257.98 113.108L258.145 113.35L258.451 113.593L259.135 113.805L260.196 113.957L260.667 114.169L260.95 114.381L261.634 115.989L253.756 114.666L253.426 114.605L253.167 114.454L252.742 114.09L252.459 113.938L252.129 113.817L251.752 113.756H251.375L250.903 113.878L250.385 114.06L249.63 114.514L249.3 114.878L248.9 115.454L248.428 115.667L247.674 115.788L246.071 115.879L245.269 115.849L244.703 115.758L243.878 115.303L243.548 115.182L243.148 115.121L241.497 115.091L241.12 115.03L240.79 114.909L240.625 114.696L240.554 114.454L240.484 114.211L240.201 113.241L240.106 113.029L239.965 112.816L239.706 112.665H239.376H238.975L238.551 112.786L238.103 112.938L237.56 113.362L237.278 113.696L236.924 114.242L236.712 114.454L236.146 114.605L232.846 114.969L232.209 114.939L231.973 114.787L231.785 114.605L231.455 114.484L230.724 114.333L230.559 114.181L230.465 113.969L230.394 113.726L230.182 113.544L229.498 113.301L229.309 113.12L229.192 112.877L229.168 112.634L229.239 112.422L229.427 112.301L229.97 112.331L230.3 112.452L230.865 112.756L231.195 112.786L231.573 112.695L231.926 112.331L232.115 111.998L232.586 110.815L233.034 110.027L233.105 109.754V109.511L232.987 109.299L232.822 109.087L232.704 108.874V108.632L232.751 108.389L232.916 107.904L232.893 107.722L232.846 107.661L232.681 107.631L230.677 107.813L230.347 107.722L230.135 107.601L230.017 107.479L229.828 107.328L229.569 107.207L229.239 107.146L228.862 107.085L228.555 107.025L228.437 106.812L228.484 106.024L228.437 105.751L228.154 104.75L227.966 104.295L227.824 104.083L227.612 103.901L227.306 103.78L226.905 103.719L225.891 103.628L225.632 103.568L225.396 103.416L225.372 103.174L225.467 102.931L225.655 102.688L225.844 102.476L226.763 101.748L226.952 101.506L227.093 101.263L227.141 100.99L227.046 100.778L226.881 100.566L226.504 100.535L225.985 100.657L223.746 101.809L223.439 101.87L223.015 101.961H222.214L221.883 101.809L221.695 101.566L221.671 101.021L221.624 100.778L221.176 100.141L221.082 99.8994L221.035 99.6264L221.058 99.3224L221.247 98.4134V98.1404L221.153 97.8974L220.964 97.7154L220.681 97.5334L220.304 97.4424L219.903 97.4124H219.078L214.835 98.2614L210.992 99.4744L210.12 99.5954L209.554 99.5354L208.375 98.4134L208.093 98.2614L207.763 98.1104L207.385 98.0194L203.802 97.6854L203.425 97.5944L203.142 97.4424L202.152 96.7754L201.515 96.2604L201.256 96.1084L200.997 95.9264L200.667 95.8054L200.242 95.7144L199.37 95.6844L197.366 95.9574L194.372 96.6244L193.736 96.8664L192.628 97.5034L191.072 98.6554L190.388 98.9894L189.257 99.2924L188.62 99.4134H188.125L187.889 99.3834L186.805 99.0504L175.301 98.1404L170.421 96.7754L168.936 96.5634H168.229L164.362 97.1394L163.113 97.3824L162.453 97.5334H161.84L159.812 96.9884L159.034 96.9574L157.809 97.0184L156.323 97.2914L155.852 97.5034L155.215 97.7464L153.966 97.8974H153.259L152.575 97.8374L151.774 98.0494L150.689 98.5044L153.403 101.899L151.587 102.748L147.438 102.869L147.037 102.808L146.731 102.657L146.566 102.444L146.448 102.232L146.236 101.777L141.118 99.2624L141.071 98.7774L141.047 98.4134L141 98.2014L140.788 98.0494L140.434 97.9884H140.034L139.609 98.0194L139.209 98.1704L138.878 98.4134L138.572 99.0504L138.548 99.4134L143.643 101.717L144.02 102.384L144.444 102.96L144.491 103.112V103.202L144.397 103.475L144.303 103.688L144.256 104.021L156.232 103.719L156.114 103.962L155.878 104.205L154.912 104.659L154.558 104.872L154.417 105.296V105.599L154.535 105.842L154.771 105.963L155.124 106.024H155.926L156.303 106.054L156.562 106.176L156.704 106.357L156.774 106.539L156.821 106.934L156.869 107.176L156.963 107.419L157.104 107.631L157.269 107.843L157.505 107.995L157.788 108.147L158.519 108.359L161.23 108.753L161.607 108.844L161.866 108.996L162.055 109.208L162.291 109.663L162.314 109.905L162.291 110.209L162.22 110.512L162.031 110.815L161.701 111.118L160.947 111.361L157.788 111.937L157.364 112.119L155.501 113.241L155.124 113.605L154.888 114.09L154.794 114.454L154.747 114.818L154.771 115.06L154.818 115.333L154.935 115.545L155.101 115.758L155.596 116.091L161.418 118.153L161.89 118.426L162.031 118.547L162.078 118.669V118.881L162.008 119.154L161.843 119.457L161.253 120.276L161.018 120.7L160.971 121.034L161.018 121.307L161.112 121.549L161.23 121.762L161.324 122.004L161.348 122.277L156.136 121.187V121.46L156.324 121.642L156.701 121.763L158.021 121.975L159.789 122.066L160.167 122.188L160.45 122.339L160.544 122.582L160.567 122.855L159.978 126.16L159.507 127.252L159.082 129.344L158.705 130.557L157.762 132.407L157.668 132.649V132.892L157.786 133.104L158.045 133.256L159.53 133.923L160.002 134.226L160.214 134.408L160.332 134.62L160.379 134.893V135.166L160.049 136.682L159.955 136.894L159.577 137.471L159.177 137.804L158.941 137.956L158.304 138.077L153.472 138.047L145.857 137.349L127.469 135.833L123.767 135.59L122.966 135.712L113.065 139.078L103.847 140.563L95.4546 142.656L92.0835 143.05L84.752 142.747L73.1062 140.654L71.5032 140.745L62.2149 142.534L55.0012 142.959L54.1525 142.868L53.9639 142.656L53.516 141.958L53.3745 141.746L53.1624 141.534L52.7145 141.261L52.1722 141.231L50.522 141.382L50.0505 141.291L49.7677 141.14L49.6497 140.927L49.3433 140.26L49.0369 139.775L49.0133 139.533L49.1076 139.29L49.2491 139.017L49.7912 138.38L49.9326 138.168V137.956L49.7912 137.713L49.4847 137.44L48.8954 137.107L48.424 136.985L47.9524 136.925L43.6147 137.592L43.1904 137.713L42.9547 137.804L42.7896 137.986L42.7425 138.198L42.7896 138.441L42.931 138.926L42.9783 139.169L42.9547 139.441L42.8368 139.684L42.6247 139.896L42.3653 140.048L41.7524 140.26L33.9728 141.443L33.6428 141.503L33.3835 141.655L33.1949 141.837L33.077 142.049L33.0299 142.262L33.0063 142.504L32.9356 142.565L32.747 142.686L32.2755 142.868L31.804 142.898L31.3561 142.868L30.5311 142.565L29.8237 142.171L29.3287 141.837L29.1166 141.625L28.9515 141.413L28.8101 141.2L28.5272 140.503L28.2444 140.078L27.5135 139.836L26.2877 139.563L15.842 137.926L15.1819 137.653L14.0975 139.047L13.7439 138.925L8.10962 138.016L1.90955 137.5L1.34381 137.379L1.08453 137.258L0.919495 137.045L0.872314 136.712L1.08453 136.166L1.29669 135.893L1.48523 135.711L2.35748 135.105L2.78186 134.71L2.89972 134.407L2.92328 133.983L2.71112 133.285L2.5697 132.891L2.40466 132.588L1.81531 131.739L0.589417 130.344L0.117981 129.737L0.0236816 129.525V129.313L0.306519 129.07L0.895935 128.797L1.32025 128.646L4.07843 128.1L7.26099 127.857L7.52026 127.645L7.5675 127.251L7.11951 126.372L6.69513 125.977L6.31805 125.704L6.01154 125.583L5.72864 125.431L5.51648 125.128L5.42218 124.643L5.30426 120.792L5.39856 120.307L5.51648 119.913L5.68146 119.67L5.82288 119.427L5.91724 119.124L5.96436 117.517L6.10577 117.123L6.31805 116.88L6.53015 116.698L6.74237 116.516L6.76581 116.213L6.50659 115.819L5.70508 115.182L5.21002 115L4.73853 114.94L4.36133 115H3.96057H3.53619L3.18262 114.909L2.97046 114.636L2.92328 114.212L3.44196 112.908L3.84271 112.241L3.88983 111.816L3.08832 111.392L3.79559 109.027L4.54993 107.207L4.83282 106.995L5.35144 106.722L5.89362 106.631L6.71869 106.237L7.23743 105.752L7.85034 104.933L8.36896 104.448L8.98187 104.054L14.9956 104.538L15.6085 104.295L16.1036 104.174L18.8381 104.295L20.5826 103.962L21.0778 103.75L21.3606 103.507L21.5728 102.961L21.6671 102.688L21.7142 102.082L21.6671 101.566L21.5493 101.081L21.5021 100.535L21.62 99.9594L21.95 99.1104L22.2801 97.8974L22.5393 97.6554L22.8458 97.5644L23.1052 97.5944L23.2701 97.7764L23.4116 97.9584L24.0717 99.8384V100.02L23.9539 100.232L23.7653 100.414L23.6002 100.626L23.5295 100.869V101.142L23.5767 101.384L23.7888 102.112L23.9539 102.355L24.1896 102.537L24.661 102.628L24.944 102.506L25.1561 102.294L25.6512 101.172L26.2405 100.172L26.4291 99.9294L29.2816 97.7764L29.6588 97.3214L29.8945 96.8974L30.1774 96.7154L30.5311 96.6844L30.8375 96.8064L31.0732 96.9884L31.2854 97.1704L31.4976 97.3514L31.7569 97.4734L32.0398 97.5944L32.3933 97.6244H32.8413L33.7136 97.5334L34.1614 97.3824L34.5151 97.2004L35.1045 96.6844L37.9333 94.8354L38.1219 94.6228L38.8763 93.5918L39.2535 93.4098L39.6779 93.3492L40.22 93.3189L40.7623 93.2582L41.5874 93.0763L41.9174 92.8034L42.1061 92.5001L42.6954 89.1646L42.7189 88.8917L42.6482 88.6188L42.4596 88.4368L42.1532 88.3155L41.3044 88.1336L40.998 88.0123L40.833 87.8607L40.7623 87.7394L40.7386 87.6787L40.6208 87.1026L40.22 83.4334L39.725 81.9779L39.7014 81.7354L39.6779 81.4624L39.6072 81.1895L39.4893 80.9773L39.1828 80.856L38.8528 80.7953L38.5699 80.674L38.452 80.4618L38.3342 79.916L38.3813 79.4914L38.6641 79.2185L39.0885 78.9153L39.23 78.6727L39.2064 78.4301L37.5798 76.1256L37.344 75.6708L37.3204 75.3979L37.3912 74.8521L37.3676 74.6398L37.0847 74.6095L36.4481 74.5792L36.2832 74.5489H36.2125L36.1181 74.4276L36.0238 74.276L35.9295 74.003L35.8588 73.6695L35.9295 73.0934L36.1181 72.7901L36.3539 72.5475L38.3813 71.6379L44.5106 69.9094L44.6757 69.97L44.8642 70.3339H45.1707L45.6893 70.1823L47.5753 68.8178L47.9053 68.6358L47.9996 68.6055L48.2118 68.5145L55.7084 65.9977L56.2506 65.7248L58.7495 63.8751L59.2445 63.6628L59.6217 63.6021L60.0225 63.5718L60.5411 63.4809L61.1541 63.2989L62.0735 62.8137L62.4742 62.4802L62.6392 62.177L62.4506 61.995L62.1206 61.8737L59.2916 61.4795L58.8909 61.3886L58.6788 61.2066L58.5609 60.9944L58.4901 60.7215L58.3723 60.5092L58.2073 60.3272L57.9008 60.206L53.6574 60.1453L53.2095 60.115L52.8323 59.9937L51.2292 59.3569L50.8521 59.2356L46.7973 58.8717L46.4437 58.7504L46.1608 58.5988L45.9251 58.4472L45.5715 57.7801L45.4299 57.5678L45.2414 57.3556L44.9821 57.2039L44.2985 56.9614L44.0156 56.8097L43.8034 56.6278L43.6147 56.4459L43.379 55.9607L43.2847 55.7181L43.3318 55.2936L44.3456 54.2019L44.7699 53.8684L45.1943 53.6561L45.5715 53.6258L45.9251 53.6865L46.1843 53.838L46.3494 54.02L46.5615 54.2019L46.868 54.3536L47.2924 54.3839L47.7402 54.3232L50.4512 52.7464L50.8992 52.6252H51.3235L51.795 52.6858L52.1959 52.7464L52.4787 52.898L52.6673 53.1103L52.7852 53.3226L52.9738 53.7774L53.1152 53.9897L53.351 54.1413L53.7281 54.2626L54.1525 54.2929L54.6003 54.2019L55.0247 53.9897L56.3684 52.7768L56.6277 52.6252L56.9342 52.5038L57.335 52.4432L57.783 52.4735L58.2308 52.5342L58.5845 52.6554L58.773 52.8374L58.7966 53.1103L58.6316 53.9897L58.7259 54.2323L58.938 54.3839L59.4331 54.2929L59.7631 53.9897L60.2111 53.4135L60.5175 53.1709L60.824 53.1406L60.989 53.3226L61.0361 53.5652V53.838L61.0833 54.1413L61.1541 54.3536L61.5784 54.8387L61.6255 55.5058L61.8848 55.6271L62.262 55.7181L62.7336 55.6575L62.9928 55.4755L63.205 55.2633L63.37 54.9904L63.8651 53.8684L64.3602 53.2316L64.9495 52.9587L65.3503 52.6252L65.8453 52.049L66.4818 51.7154L66.7647 51.3819L66.9061 51.109L66.9297 50.8361L67.3069 49.9263L69.0278 48.107L69.6644 48.5012L77.9154 51.958L78.4576 52.049L79.4712 51.8974L79.9898 51.9277L80.4142 52.0793L81.2864 52.5645L81.7579 52.7768L82.9839 53.0497L86.7793 53.3832L89.0189 54.0807L91.3998 55.8394L92.3664 55.9L94.3466 54.9297L95.8554 53.9594L96.0676 53.7774L96.2562 53.5652L96.374 53.3529L96.3504 53.1406L96.1383 52.9587L95.8554 52.8071L95.5253 52.6858L95.2424 52.5342L94.9832 52.3825L94.8652 52.1703L94.8417 51.8974V51.6245L94.8889 51.3516L95.0538 51.1393L96.4447 50.0173L97.1991 49.7141L97.5056 49.4412L97.6234 49.1986L97.4113 48.1979L97.3877 47.925L97.2933 47.6824L97.1519 47.4702L96.987 47.2579L96.7748 47.1063L94.606 45.863L94.4174 45.6508L94.3231 45.4385L94.2759 45.1959L94.2523 44.923L94.3466 44.0437L94.4409 43.7404L94.5588 43.4675L95.1953 42.4668L96.044 40.5261L96.2326 40.3139L96.5155 40.041L96.9163 39.7681L97.6942 39.3435L98.9907 39.01L99.9102 38.919L100.405 38.7674L100.688 38.5551L100.735 38.3125L100.617 38.1306L100.287 38.0093L99.5801 38.0396L99.1558 37.979H99.0615L99.0143 37.9183L98.8965 37.8274L98.8493 37.6454L98.92 37.4332L99.0851 37.2209L99.3208 37.0086L101.042 36.008L102.055 35.2802L102.904 34.4008L103.046 34.1583L103.116 33.8853V33.6124L102.928 33.1273V32.8544L103.14 32.5208L103.517 32.4298H103.941L104.743 32.6118L117.261 28.6091L119.76 28.3362L125.465 27.0323L126.125 26.7897L126.573 26.5774L127.209 25.9406L127.94 25.4252L128.435 25.1826L129.001 24.9703L129.402 24.8793L131.193 24.9096L131.712 24.758L132.254 24.4548L132.678 24.3335H133.103L135.13 24.7884L135.437 24.94L135.625 25.0916V25.3039L135.46 25.4858L134.965 25.789L134.777 26.0013L134.706 26.2439L134.753 26.4561L135.059 26.6684L135.507 26.7897H136.356L136.828 26.6684L137.181 26.4865L137.37 26.2742L137.511 26.0316L137.723 25.4252L137.888 25.0916L138.101 24.7277L138.643 24.3032L139.091 24.1212L139.539 24H139.963L140.812 24.1516L141.566 24.3638L143.57 24.849Z" fill="#333333"/>
<path d="M295 76.5V83L290.5 85.5L284 84L283 82.5L278 82L276.433 82.9795L276 92.5L272 97L269 97.5L268.5 97.2V102.5L261 102H260L258.5 101L255.5 102L255 103H251.5L250.5 101L248 102L247 100H246L243.5 100.5V101L239 102L236 100V91.5455L235.5 91.5L232.5 91V87L231.5 86L229 88.5H228V85.5H226.5L223.5 85L216.687 87.5H215.5L213.75 85.5H212.5L211 86L206.5 83L201 85L197.5 86H194.5L193.5 85.5L189.812 86L183 85.5L176 84.5L169 85L167 84H165.5L161 85H159.5L153.5 88L152.409 88.0436L152 95C152 98 152.4 101.1 152 101.5C151.6 101.9 149.167 102.167 147.5 102.5L148.5 98L152 95L142 93.5L143 89L145.599 88.316L141 88.5L142 75.5C143.333 73.8333 146.1 70.5 146.5 70.5C146.9 70.5 151 72.5 153 73.5L153.5 76L159.5 73L161 73.5L165.5 72.5L167 72.3125V72.5L169 73.5L176 72.5C176.5 72 182.5 74 183 74L189.812 75H193.5L194.5 75.5C195.167 75.1667 196.6 74.5 197 74.5L201 72.5L206.5 71.5L211 73.5L212.5 74H213.75H215.5L216.687 75.5C218.792 74.8333 223.1 73.5 223.5 73.5L226.5 73L229 74L228 75.5L229 77.5L231.5 77L233.5 75L235 77L233.5 79L236 80.5L235.5 83L237.5 83.5L240 84L240.837 90.6939L243.5 90.25L246 88.5L247 89L248 91H250.5L251.5 91.5L255.5 91L258.5 89L260 89.5L261 90.25L266.5 91.5333V90.2143L264 89.5L264.5 88L266.5 87L269 86.5H272L270.5 85.5L272.857 83.9286L271 83L270.5 77.5L271 72.5L274 71.5L278 71L283 72L284 72.5L290.5 73.5L292.7 72.7666L292 69.5L291 64L296.5 62.5V76.5H295Z" fill="#0B2856"/>
<path d="M155 113L155.5 101L149.5 109L150.5 113H155Z" fill="#0B2856"/>
<path d="M155.5 113.5V124.5L153.5 127H146L141 126L135 125H131L120 129L110.5 129.5L102 132L99 132.688L91.5 132L80 130H78.5L68.5 132H68H62L61 131.5L60 130H57L56 127.5V126.5L55 126L50 129V129.5L43 130.5C42.2292 131 40.65 132 40.5 132L38.5 132.5L35.5 130.5H34L28 128L26 127L13 126V118H12V107L18 107.5L20.5 113L18.5338 114.639L26 115.5L28 116.5L34 117L35.5 117.5L38.5 119.5L40 119L42.5 118.5L48.5 118V115.5L55 114.5L59 116L56 118L57 119.5L60 119L61 121H62L68.5 120.5C71.6667 119.667 78.1 118 78.5 118H80L91.5 120.5L99 121L102 120.5L110.5 118L120 117L131 113L135 113.5L140.5 115H141H146L153.5 115.5L155.5 113.5Z" fill="#0B2856"/>
<path d="M17.5 106.5V102.5H15V91.5V88.5L18 87.5L16.5 91L22.5 92.5L23 98L17.5 102.5L21.5 103C21.3333 103.833 21 105.6 21 106C21 106.4 18.6667 106.5 17.5 106.5Z" fill="#0B2856"/>
<path d="M28.5 76.5L29.5 74C29.6667 75.6667 30 79.3 30 80.5C30 81.7 28.6667 82 28 82L28.5 76.5Z" fill="url(#paint0_linear)"/>
<path d="M43 57V50L49.5 51C50.5 52.3333 52.9 55.6 54.5 58C55.3191 59.2286 54.2949 60.0729 52.6081 60.5596L55.5 62.5L53 67C53.3333 68 54.1 68.7 54.5 69.5C54.9 70.3 49.6667 70.8333 47 71L47.6154 67H45.5V61H43V57Z" fill="#0B2856"/>
<path d="M50.5 43V32L52.5 33.5L54.5 34.5L61 35L71 35.5V41.5L68 47L60.5 45L54.5 44.5H52.5L50.5 43Z" fill="#0B2856"/>
<path d="M101.5 33V20.5C103 21.5 106 23.6 106 24V29C106 29.4 103 31.8333 101.5 33Z" fill="#0B2856"/>
<path d="M106 16.5V14H108.5L108 15L106 16.5Z" fill="#0B2856"/>
<path d="M110 11.5V9.5L111 10.5L110 11.5Z" fill="url(#paint1_linear)"/>
<path d="M226 23.5V17C224.5 17.6667 221.4 19 221 19C220.6 19 220.167 21.6667 220 23L226 23.5Z" fill="#0B2856"/>
<path d="M238 26.5V32C237.333 31.6667 235.9 30.9 235.5 30.5C235 30 231.5 29 232.5 28.5L237.5 26L238 26.5Z" fill="#0B2856"/>
<path d="M247 39.5V35L243.5 37.5L247 39.5Z" fill="#0B2856"/>
<path d="M249 43V39L245.5 41.5V43H249Z" fill="#0B2856"/>
<path d="M253.5 42.5V39.5L254.5 40V41.5L253.5 42.5Z" fill="#0B2856"/>
<path d="M283.5 42.5V35.5L278.5 38L280 42L283.5 42.5Z" fill="#0B2856"/>
<path d="M291.5 39.5V51H288.75L288.5 55.5H285L283 51L284.338 50.027L283.5 45L291 38L291.5 39.5Z" fill="#0B2856"/>
<path d="M150.57 1.18303L153.045 1.3953L153.964 1.21337L154.271 1.09207L154.648 1.06174L155.12 1.15271L155.803 1.48627L156.322 1.63788L157.053 1.66822L158.656 1.3953H159.08L160.895 1.54691H162.263L162.64 1.60756L163.889 1.94112L166.034 2.8205L166.624 3.15406L167.001 3.42694L167.237 3.88181L167.355 4.09407L167.614 4.30632L172.447 6.55023L172.942 6.94446L173.201 7.27802L173.508 7.52059L175.511 8.30901L175.889 8.52127L177.232 9.58257L178.246 10.189L182.584 11.5839L183.762 12.1601L185.295 13.1304L185.743 13.2517L186.308 13.3123L187.251 13.2517L188.689 13.0091L189.043 12.9788L192.721 13.2213L193.098 13.1607L193.404 13.0394L193.663 12.8878L194.088 12.8575L194.583 12.9181L195.856 13.5246L196.21 13.7368L196.563 13.8885L197.035 13.9491L199.156 13.7975L199.651 13.8581L200.194 14.0098L200.877 14.3433L201.396 14.4949L202.08 14.4646L202.457 14.313L203.07 14.0098H203.635L206.677 14.4646L208.162 14.8588L208.963 15.162L209.718 15.1317L210.166 15.0711L210.496 14.9195L210.755 14.7679L211.391 14.5556L211.769 14.4949L212.452 14.3433L212.759 14.222L213.82 13.6459L214.998 13.1304L218.322 12.2207L219.171 11.8265L219.807 11.9478L220.774 12.3116L222.825 13.4033L223.509 13.9491L223.862 14.4343L223.839 14.7072V14.9801L223.956 15.2227L224.475 15.6775L225.842 16.5569L226.055 16.7388L226.172 16.9511L226.078 17.1634L226.031 17.3756L225.277 18.2853L225.064 18.4976L224.829 18.6492L223.061 19.377L222.566 19.7105L222.33 19.8925L222.188 20.0744L222.283 20.2564L222.66 20.3473L225.041 20.1654L225.395 20.226L225.913 20.3777L227.21 21.0144L227.799 21.2267L229.732 21.4996L230.345 21.7119L230.628 22.0757V22.379L230.958 22.7125L231.642 23.0158L233.245 23.5313L233.952 23.8345L234.4 24.1074L234.871 24.7139L235.296 24.9564L237.323 25.7752L237.747 26.1087L237.865 26.412L237.7 26.6242L237.559 26.7759L237.229 27.0488L235.838 27.7159L235.602 27.9281L235.461 28.1707L235.319 28.4436L235.296 28.7165L235.39 28.9288L235.767 29.1411L238.596 30.2327L240.435 31.3547L245.857 33.8715L246.824 34.5386L247.012 34.7205L247.13 34.9328L247.083 35.2057L246.965 35.4483L246.093 36.6309L245.975 36.8735L245.904 37.1161L245.975 37.3587L246.164 37.5103L247.389 38.0864L248.757 38.8445L248.969 38.9961L249.063 39.1477L248.945 39.3297L248.78 39.5419L247.012 41.0581L246.847 41.2704L246.776 41.4827L246.894 41.6646L247.672 42.1498L248.002 42.2104L248.379 42.1801L248.945 41.8465L249.558 41.331L249.794 41.1794L250.124 41.0885L250.548 41.1794L250.925 41.3007L251.515 41.6039L251.821 41.7252L252.34 41.6949L252.953 41.4827L254.108 40.8762L254.297 40.573L254.202 40.3304L253.566 40.0878L253.307 39.9361L253.212 39.7239L253.283 39.5116L254.32 38.1168L259.106 33.8412L260.19 33.265L260.638 33.1741L261.227 33.1437L262.406 33.3863L265.706 34.387L266.885 34.9328L267.286 35.2057L267.805 35.6302L268.064 35.7819L268.606 35.9032L269.431 35.9335L272.024 35.6909L272.708 35.4786L273.227 35.0238L274.476 34.3567L278.625 33.8109L278.932 34.4477L279.002 34.6599L279.097 34.9328L279.262 35.1451L279.45 35.327L279.757 35.418H280.11L282.609 34.9935H282.939L283.246 35.0844L283.458 35.2664L283.529 35.4786L283.505 35.6909L283.199 36.0548L282.609 36.358L282.374 36.54L281.737 37.5406L281.407 37.7529L281.101 37.9045L280.841 38.1774L280.723 38.5716L280.841 39.9361L280.912 40.3L281.03 40.5123L281.242 40.6336H281.548L283.788 40.3607L284.094 40.2394L284.354 40.0878L284.519 39.8452L284.637 39.5419L284.967 37.9955L285.108 37.6316L285.368 37.1464L285.721 36.9342L286.075 36.8129L289.187 36.4793L289.988 36.5096L290.295 36.6309L290.507 36.7825L290.672 36.9948L290.79 37.207L291.025 37.9348L291.308 39.451L291.285 39.7239L291.143 39.9968L290.695 40.3L289.964 40.6033L288.998 40.9065L288.786 41.0581L288.691 41.3007L288.927 41.9375L289.045 42.1498L289.139 42.3014L289.234 42.4833L289.281 42.6653L289.163 42.9079L288.833 43.1201L288.173 43.393L287.961 43.6053L287.796 43.8782L288.008 46.0311L288.244 46.304L288.88 46.6073L288.974 46.8195L288.668 47.1228L288.385 47.335L286.782 47.9112L286.499 48.1841L286.358 48.457L286.428 49.0028L286.523 49.3667L286.971 50.3067L287.513 52.308L287.489 52.6416L287.23 54.188V54.5215L287.324 54.7945L287.466 55.0067L287.654 55.1886L287.914 55.3099H288.244L288.55 55.2493L289.163 55.037L289.894 54.9157L290.295 54.8854L290.672 54.9157L290.955 55.0067L291.167 55.1583L291.285 55.3706L291.403 55.5828L291.568 55.7648L291.851 55.8254L293.524 55.8861L293.901 56.0074L294.137 56.159L294.279 56.4016L294.467 57.1597L294.656 57.6449L294.892 58.0694L295.127 58.5545L296.07 61.223L296.117 61.4049L296.188 61.6172L296.259 61.8598L296.565 62.5875L296.612 62.8301L296.471 63.194L296.141 63.6185L295.174 64.3463L294.585 64.6495L294.09 64.8315L293.383 64.9831L293.1 65.1347L292.888 65.3773L292.77 65.8321L292.793 66.1657L292.864 66.4386L293.571 68.3186L293.807 68.7735L294.703 70.0167L294.892 70.4716L295.174 71.4419L295.198 71.7148V71.9878L295.174 72.2607L294.774 72.6852L294.09 73.2613L292.393 74.353L291.544 74.7775L290.86 74.9897L290.46 74.9291L287.772 74.2317L284.967 73.8375L284.59 73.7162L284.283 73.5949L284.047 73.4129L283.67 72.7762L283.458 72.5942L283.199 72.4426L282.869 72.3213L278.531 71.6542H278.13L277.753 71.6845L275.325 72.2303L274.075 72.2607L273.722 72.3213L273.392 72.4123L273.109 72.5336L272.802 72.7155L272.52 72.9581L272.307 73.4129L272.237 74.0194L272.425 78.1131L272.496 78.4163L272.944 79.3563L273.038 80.1447L273.415 80.5086L273.816 80.6906L275.136 80.7512L275.513 80.8119L275.82 80.9634L276.056 81.1454L276.221 81.3577L276.339 81.5699L271.51 85.6518L272.052 86.228L272.17 86.4402V86.6222L271.816 86.7738L271.038 86.9254L268.61 87.0467L268.162 87.1376L267.738 87.2589L267.219 87.5622L266.748 87.6835L265.545 87.7744L265.263 87.9261L265.05 88.1686L264.932 88.5628L264.909 88.8964L264.932 89.1693L264.98 89.4422L265.145 89.6848L265.451 89.9274L266.135 90.1397L267.196 90.2913L267.667 90.5035L267.95 90.7158L268.634 92.3229L260.756 91.0005L260.426 90.9398L260.167 90.7882L259.742 90.4243L259.459 90.2727L259.129 90.1514L258.752 90.0908H258.375L257.903 90.2121L257.385 90.394L256.63 90.8488L256.3 91.2127L255.9 91.7889L255.428 92.0011L254.674 92.1224L253.071 92.2134L252.269 92.1831L251.703 92.0921L250.878 91.6373L250.548 91.516L250.148 91.4553L248.497 91.425L248.12 91.3644L247.79 91.243L247.625 91.0308L247.554 90.7882L247.484 90.5456L247.201 89.5753L247.106 89.363L246.965 89.1507L246.706 88.9991H246.376H245.975L245.551 89.1204L245.103 89.272L244.56 89.6966L244.278 90.0301L243.924 90.5759L243.712 90.7882L243.146 90.9398L239.846 91.3037L239.209 91.2733L238.973 91.1218L238.785 90.9398L238.455 90.8185L237.724 90.6669L237.559 90.5153L237.465 90.303L237.394 90.0604L237.182 89.8785L236.498 89.6359L236.309 89.454L236.192 89.2114L236.168 88.9688L236.239 88.7565L236.427 88.6352L236.97 88.6656L237.3 88.7869L237.865 89.0901L238.195 89.1204L238.573 89.0295L238.926 88.6656L239.115 88.332L239.586 87.1494L240.034 86.361L240.105 86.0881V85.8455L239.987 85.6332L239.822 85.421L239.704 85.2087V84.9661L239.751 84.7235L239.916 84.2383L239.893 84.0564L239.846 83.9958L239.681 83.9655L237.677 84.1474L237.347 84.0564L237.135 83.9352L237.017 83.8138L236.828 83.6622L236.569 83.5409L236.239 83.4803L235.862 83.4197L235.555 83.359L235.437 83.1467L235.484 82.3583L235.437 82.0854L235.154 81.0848L234.966 80.6299L234.824 80.4176L234.612 80.2357L234.306 80.1144L233.905 80.0537L232.891 79.9628L232.632 79.9021L232.396 79.7505L232.372 79.5079L232.467 79.2654L232.655 79.0227L232.844 78.8105L233.763 78.0827L233.952 77.8402L234.093 77.5976L234.141 77.3246L234.046 77.1124L233.881 76.9001L233.504 76.8698L232.985 76.9911L230.746 78.1434L230.439 78.204L230.015 78.295H229.214L228.883 78.1434L228.695 77.9008L228.671 77.355L228.624 77.1124L228.176 76.4756L228.082 76.233L228.035 75.9601L228.058 75.6569L228.247 74.7472V74.4743L228.153 74.2317L227.964 74.0497L227.681 73.8678L227.304 73.7769L226.903 73.7465H226.078L221.835 74.5956L217.992 75.8085L217.12 75.9298L216.554 75.8691L215.375 74.7472L215.093 74.5956L214.763 74.4439L214.385 74.353L210.802 74.0194L210.425 73.9284L210.142 73.7769L209.152 73.1097L208.515 72.5942L208.256 72.4426L207.997 72.2607L207.667 72.1394L207.242 72.0484L206.37 72.0181L204.366 72.291L201.372 72.9581L200.736 73.2007L199.628 73.8375L198.072 74.9897L197.388 75.3233L196.257 75.6266L195.62 75.7478H195.125L194.889 75.7175L193.805 75.3839L182.301 74.4743L177.421 73.1097L175.936 72.8974H175.229L171.362 73.4736L170.113 73.7162L169.453 73.8678H168.84L166.812 73.322L166.034 73.2916L164.809 73.3523L163.323 73.6252L162.852 73.8375L162.215 74.0801L160.966 74.2317H160.259L159.575 74.171L158.774 74.3833L157.689 74.8381L155.403 76.233L153.587 77.0821L149.438 77.2033L149.037 77.1427L148.731 76.9911L148.566 76.7788L148.448 76.5666L148.236 76.1117L148.118 75.5962L148.071 75.111L148.047 74.7472L148 74.5349L147.788 74.3833L147.434 74.3227H147.034L146.609 74.353L146.209 74.5046L145.878 74.7472L145.572 75.3839L145.548 75.7478L145.643 76.0511L146.02 76.7182L146.444 77.2943L146.491 77.446V77.5369L146.397 77.8098L146.303 78.0221L146.256 78.3556L146.232 80.0537L146.114 80.2963L145.878 80.5389L144.912 80.9938L144.558 81.206L144.417 81.6306V81.9338L144.535 82.1764L144.771 82.2977L145.124 82.3583H145.926L146.303 82.3886L146.562 82.51L146.704 82.6919L146.774 82.8738L146.821 83.268L146.869 83.5106L146.963 83.7532L147.104 83.9655L147.269 84.1777L147.505 84.3293L147.788 84.481L148.519 84.6932L151.23 85.0874L151.607 85.1784L151.866 85.33L152.055 85.5423L152.291 85.9971L152.314 86.2397L152.291 86.5429L152.22 86.8462L152.031 87.1494L151.701 87.4526L150.947 87.6952L147.788 88.2714L147.364 88.4533L145.501 89.5753L145.124 89.9392L144.888 90.4243L144.794 90.7882L144.747 91.152L144.771 91.3947L144.818 91.6675L144.935 91.8798L145.101 92.0921L145.596 92.4256L151.418 94.4876L151.89 94.7605L152.031 94.8818L152.078 95.0031V95.2154L152.008 95.4883L151.843 95.7915L151.253 96.6103L151.018 97.0348L150.971 97.3683L151.018 97.6413L151.112 97.8838L151.23 98.0961L151.324 98.3387L151.348 98.6116L151.136 99.5213V99.7942L151.324 99.9761L151.701 100.097L153.021 100.309L154.789 100.4L155.167 100.522L155.45 100.673L155.544 100.916L155.567 101.189L154.978 104.494L154.507 105.586L154.082 107.678L153.705 108.891L152.762 110.741L152.668 110.983V111.226L152.786 111.438L153.045 111.59L154.53 112.257L155.002 112.56L155.214 112.742L155.332 112.954L155.379 113.227V113.5L155.049 115.016L154.955 115.228L154.577 115.805L154.177 116.138L153.941 116.29L153.304 116.411L148.472 116.381L140.857 115.683L134.469 114.167L130.767 113.924L129.966 114.046L120.065 117.412L110.847 118.897L102.455 120.99L99.0835 121.384L91.752 121.081L80.1062 118.988L78.5032 119.079L69.2149 120.868L62.0012 121.293L61.1525 121.202L60.9639 120.99L60.516 120.292L60.3745 120.08L60.1624 119.868L59.7145 119.595L59.1722 119.565L57.522 119.716L57.0505 119.625L56.7677 119.474L56.6497 119.261L56.3433 118.594L56.0369 118.109L56.0133 117.867L56.1076 117.624L56.2491 117.351L56.7912 116.714L56.9326 116.502V116.29L56.7912 116.047L56.4847 115.774L55.8954 115.441L55.424 115.319L54.9524 115.259L50.6147 115.926L50.1904 116.047L49.9547 116.138L49.7896 116.32L49.7425 116.532L49.7896 116.775L49.931 117.26L49.9783 117.503L49.9547 117.775L49.8368 118.018L49.6247 118.23L49.3653 118.382L48.7524 118.594L40.9728 119.777L40.6428 119.837L40.3835 119.989L40.1949 120.171L40.077 120.383L40.0299 120.596L40.0063 120.838L39.9356 120.899L39.747 121.02L39.2755 121.202L38.804 121.232L38.3561 121.202L37.5311 120.899L36.8237 120.505L36.3287 120.171L36.1166 119.959L35.9515 119.747L35.8101 119.534L35.5272 118.837L35.2444 118.412L34.5135 118.17L33.2877 117.897L27.842 117.26L27.1819 116.987L26.0975 116.381L25.7439 116.259L20.1096 115.35L13.9095 114.834L13.3438 114.713L13.0845 114.592L12.9195 114.379L12.8723 114.046L13.0845 113.5L13.2967 113.227L13.4852 113.045L14.3575 112.439L14.7819 112.044L14.8997 111.741L14.9233 111.317L14.7111 110.619L14.5697 110.225L14.4047 109.922L13.8153 109.073L12.5894 107.678L12.118 107.071L12.0237 106.859V106.647L12.3065 106.404L12.8959 106.131L13.3203 105.98L16.0784 105.434L19.261 105.191L19.5203 104.979L19.5675 104.585L19.1195 103.706L18.6951 103.311L18.3181 103.038L18.0115 102.917L17.7286 102.765L17.5165 102.462L17.4222 101.977L17.3043 98.1264L17.3986 97.6413L17.5165 97.2471L17.6815 97.0045L17.8229 96.7618L17.9172 96.4587L17.9644 94.8515L18.1058 94.4573L18.3181 94.2147L18.5302 94.0328L18.7424 93.8508L18.7658 93.5476L18.5066 93.1534L17.7051 92.5166L17.21 92.3347L16.7385 92.274L16.3613 92.3347H15.9606H15.5362L15.1826 92.2437L14.9705 91.9708L14.9233 91.5463L15.442 90.2424L15.8427 89.5753L15.8898 89.1507L15.0883 88.7262L15.7956 86.361L16.5499 84.5416L16.8328 84.3293L17.3514 84.0564L17.8936 83.9655L18.7187 83.5712L19.2374 83.0861L19.8503 82.2673L20.369 81.7822L20.9819 81.388L21.9956 80.8725L22.6085 80.6299L23.1036 80.5086L25.8381 80.6299L27.5826 80.2963L28.0778 80.0841L28.3606 79.8415L28.5728 79.2957L28.6671 79.0227L28.7142 78.4163L28.6671 77.9008L28.5493 77.4156L28.5021 76.8698L28.62 76.2937L28.95 75.4446L29.2801 74.2317L29.5393 73.9891L29.8458 73.8981L30.1052 73.9284L30.2701 74.1104L30.4116 74.2923L31.0717 76.1724V76.3543L30.9539 76.5666L30.7653 76.7485L30.6002 76.9608L30.5295 77.2033V77.4763L30.5767 77.7188L30.7888 78.4466L30.9539 78.6892L31.1896 78.8712L31.661 78.9621L31.944 78.8408L32.1561 78.6285L32.6512 77.5066L33.2405 76.5059L33.4291 76.2633L36.2816 74.1104L36.6588 73.6556L36.8945 73.231L37.1774 73.0491L37.5311 73.0187L37.8375 73.14L38.0732 73.322L38.2854 73.5039L38.4976 73.6859L38.7569 73.8071L39.0398 73.9284L39.3933 73.9588H39.8413L40.7136 73.8678L41.1614 73.7162L41.5151 73.5342L42.1045 73.0187L44.9333 71.169L45.1219 70.9568L45.8763 69.9258L46.2535 69.7438L46.6779 69.6832L47.22 69.6529L47.7623 69.5922L48.5874 69.4103L48.9174 69.1374L49.1061 68.8341L49.6954 65.4986L49.7189 65.2257L49.6482 64.9528L49.4596 64.7708L49.1532 64.6495L48.3044 64.4676L47.998 64.3463L47.833 64.1947L47.7623 64.0734L47.7386 64.0127L47.6208 63.4366L47.22 59.7674L46.725 58.3119L46.7014 58.0694L46.6779 57.7964L46.6072 57.5235L46.4893 57.3113L46.1828 57.19L45.8528 57.1293L45.5699 57.008L45.452 56.7958L45.3342 56.25L45.3813 55.8254L45.6641 55.5525L46.0885 55.2493L46.23 55.0067L46.2064 54.7641L44.5798 52.4596L44.344 52.0048L44.3204 51.7319L44.3912 51.1861L44.3676 50.9738L44.0847 50.9435L43.4481 50.9132L43.2832 50.8829H43.2125L43.1181 50.7616L43.0238 50.61L42.9295 50.337L42.8588 50.0035L42.9295 49.4274L43.1181 49.1241L43.3539 48.8815L45.3813 47.9719L51.5106 46.2434L51.6757 46.304L51.8642 46.6679H52.1707L52.6893 46.5163L54.5753 45.1518L54.9053 44.9698L54.9996 44.9395L55.2118 44.8485L62.7084 42.3317L63.2506 42.0588L65.7495 40.2091L66.2445 39.9968L66.6217 39.9361L67.0225 39.9058L67.5411 39.8149L68.1541 39.6329L69.0735 39.1477L69.4742 38.8142L69.6392 38.511L69.4506 38.329L69.1206 38.2077L66.2916 37.8135L65.8909 37.7226L65.6788 37.5406L65.5609 37.3284L65.4901 37.0555L65.3723 36.8432L65.2073 36.6612L64.9008 36.54L60.6574 36.4793L60.2095 36.449L59.8323 36.3277L58.2292 35.6909L57.8521 35.5696L53.7973 35.2057L53.4437 35.0844L53.1608 34.9328L52.9251 34.7812L52.5715 34.1141L52.4299 33.9018L52.2414 33.6896L51.9821 33.5379L51.2985 33.2954L51.0156 33.1437L50.8034 32.9618L50.6147 32.7799L50.379 32.2947L50.2847 32.0521L50.3318 31.6276L51.3456 30.5359L51.7699 30.2024L52.1943 29.9901L52.5715 29.9598L52.9251 30.0205L53.1843 30.172L53.3494 30.354L53.5615 30.5359L53.868 30.6876L54.2924 30.7179L54.7402 30.6572L57.4512 29.0804L57.8992 28.9592H58.3235L58.795 29.0198L59.1959 29.0804L59.4787 29.232L59.6673 29.4443L59.7852 29.6566L59.9738 30.1114L60.1152 30.3237L60.351 30.4753L60.7281 30.5966L61.1525 30.6269L61.6003 30.5359L62.0247 30.3237L63.3684 29.1108L63.6277 28.9592L63.9342 28.8378L64.335 28.7772L64.783 28.8075L65.2308 28.8682L65.5845 28.9894L65.773 29.1714L65.7966 29.4443L65.6316 30.3237L65.7259 30.5663L65.938 30.7179L66.4331 30.6269L66.7631 30.3237L67.2111 29.7475L67.5175 29.5049L67.824 29.4746L67.989 29.6566L68.0361 29.8992V30.172L68.0833 30.4753L68.1541 30.6876L68.5784 31.1727L68.6255 31.8398L68.8848 31.9611L69.262 32.0521L69.7336 31.9915L69.9928 31.8095L70.205 31.5973L70.37 31.3244L70.8651 30.2024L71.3602 29.5656L71.9495 29.2927L72.3503 28.9592L72.8453 28.383L73.4818 28.0494L73.7647 27.7159L73.9061 27.443L73.9297 27.1701L74.3069 26.2603L76.0278 24.441L76.6644 24.8352L84.9154 28.292L85.4576 28.383L86.4712 28.2314L86.9898 28.2617L87.4142 28.4133L88.2864 28.8985L88.7579 29.1108L89.9839 29.3837L93.7793 29.7172L96.0189 30.4147L98.3998 32.1734L99.3664 32.234L101.347 31.2637L102.855 30.2934L103.068 30.1114L103.256 29.8992L103.374 29.6869L103.35 29.4746L103.138 29.2927L102.855 29.1411L102.525 29.0198L102.242 28.8682L101.983 28.7165L101.865 28.5043L101.842 28.2314V27.9585L101.889 27.6856L102.054 27.4733L103.445 26.3513L104.199 26.0481L104.506 25.7752L104.623 25.5326L104.411 24.5319L104.388 24.259L104.293 24.0164L104.152 23.8042L103.987 23.5919L103.775 23.4403L101.606 22.197L101.417 21.9848L101.323 21.7725L101.276 21.5299L101.252 21.257L101.347 20.3777L101.441 20.0744L101.559 19.8015L102.195 18.8008L103.044 16.8601L103.233 16.6479L103.516 16.375L103.916 16.1021L104.694 15.6775L105.991 15.344L106.91 15.253L107.405 15.1014L107.688 14.8891L107.735 14.6465L107.617 14.4646L107.287 14.3433L106.58 14.3736L106.156 14.313H106.061L106.014 14.2523L105.896 14.1614L105.849 13.9794L105.92 13.7672L106.085 13.5549L106.321 13.3426L108.042 12.342L109.055 11.6142L109.904 10.7348L110.046 10.4923L110.116 10.2193V9.94646L109.928 9.46131V9.18839L110.14 8.85483L110.517 8.76386H110.941L111.743 8.94579L124.261 4.94312L126.76 4.67021L132.465 3.36631L133.125 3.12372L133.573 2.91146L134.209 2.27468L134.94 1.75919L135.435 1.5166L136.001 1.30432L136.402 1.21337L138.193 1.24367L138.712 1.09207L139.254 0.788833L139.678 0.667557H140.103L142.13 1.12239L142.437 1.27399L142.625 1.42563V1.63788L142.46 1.81983L141.965 2.12303L141.777 2.33531L141.706 2.5779L141.753 2.79016L142.059 3.00241L142.507 3.12372H143.356L143.828 3.00241L144.181 2.8205L144.37 2.60823L144.511 2.36565L144.723 1.75919L144.888 1.42563L145.101 1.06174L145.643 0.637222L146.091 0.455276L146.539 0.333984H146.963L147.812 0.48558L148.566 0.697845L150.57 1.18303Z" fill="#1C4587"/>
<defs>
<linearGradient id="paint0_linear" x1="-122" y1="28" x2="186.472" y2="131.433" gradientUnits="userSpaceOnUse">
<stop stop-color="#3A90B6"/>
<stop offset="1" stop-color="#075F92"/>
</linearGradient>
<linearGradient id="paint1_linear" x1="-122" y1="28" x2="186.472" y2="131.433" gradientUnits="userSpaceOnUse">
<stop stop-color="#3A90B6"/>
<stop offset="1" stop-color="#075F92"/>
</linearGradient>
</defs>
</svg>
