<svg width="225" height="153" viewBox="0 0 225 153" fill="none" xmlns="http://www.w3.org/2000/svg">
<path opacity="0.1" d="M52.7901 33.5482L53.0251 33.4108L53.1908 33.245L53.3558 32.9721L53.4736 32.6689L53.5444 32.4263L53.6151 31.9714L53.6794 31.9523L53.9216 31.8805L55.1158 32.1563L59.6783 29.2813L78.0221 25.5938L84.5221 26.9375L89.9596 31.9063L92.9283 33.4063L94.0846 36.6875L104.491 36.2188L131.397 35.0938L162.272 29.5L171.553 26.9375L176.366 25L175.241 30.3125L186.741 38.9063L187.835 43.875L195.71 51.5625L215.678 61.7813L222.903 61.1996L223.091 61.3512L223.256 61.5634L223.677 62.0824L224.481 63.0736L224.505 63.1639L224.528 63.1949L224.67 65.1659L224.835 66.0149L224.953 66.3182L225 66.5608L224.996 66.6026L225 66.6214L224.976 66.8943L224.882 67.2279L224.576 67.6524L223.821 68.3498L223.609 68.7137L223.161 69.9873L222.878 70.3815L222.572 70.6544L222.006 70.897L221.794 71.0183L221.723 71.1396L221.684 71.3133L221.817 71.6551L222.407 72.6254L222.572 72.8074L223.09 73.1712L223.279 73.3229L223.35 73.5351L223.338 73.5611L223.35 73.5958L223.255 73.808L222.902 74.0203L222.673 74.1673L222.713 74.4752L223.609 75.8094L223.727 76.052L223.774 76.3249L223.769 76.3552L223.774 76.3855L223.727 76.6584L223.397 77.0526L223.114 77.2952L221.747 78.023L221.511 78.2352L221.346 78.5081L221.134 79.5695L221.039 80.7521L220.686 81.4495L220.356 81.8134L219.979 81.965L218.918 82.147L218.611 82.2682L218.328 82.4199L217.598 83.3296L217.48 83.6025L217.461 83.8213L217.715 84.1786L218.022 84.4212L218.823 84.9367L219.012 85.1489L219.318 85.5735L219.554 85.998L219.719 86.4832L219.813 90.0613L219.979 90.9104L220.238 91.4259L220.615 91.5168L221.888 91.5472L222.312 91.6078L222.69 91.6988L222.996 91.8504L223.255 92.002L223.444 92.184L223.585 92.3962L223.609 92.7601L223.606 92.7717L223.609 92.8207L223.468 93.3362L222.548 94.4885L221.723 95.2466L219.955 96.217L218.902 96.884L218.376 97.2176L218.234 97.915L218.21 98.1576L218.163 98.4912L218.096 98.6022L218.069 98.7944L217.904 99.0673L217.574 99.2796L216.395 99.4918L213.165 99.7344L203.854 98.5822L197.064 99.0067L196.664 99.1886L196.286 99.4615L194.515 101.823L194.565 101.887L194.848 102.009L195.226 102.1L196.074 102.191L198.785 102.251L200.318 102.1L200.695 102.13L200.978 102.251L201.213 102.403L202.298 103.313L202.463 103.525L202.327 103.774L202.369 103.828L202.203 104.131L201.661 104.556L186.338 111.864L186.055 112.106L185.725 112.44L185.301 113.168L185.189 113.456L185.159 113.683V113.956L185.089 114.07V114.229L184.9 114.532L184.57 114.805L182.92 115.321L182.59 115.563L182.212 115.897L181.223 117.229L181.222 117.231L181.34 117.443L181.576 117.625L182.212 117.898L182.425 118.08L182.448 118.323L182.354 118.899V119.172L182.472 119.384L182.66 119.596L183.085 119.96L183.25 120.172L183.344 120.415V120.657L183.273 120.76V120.93L183.085 121.203L182.684 121.416L181.882 121.628L179.926 121.749L179.454 121.931L176.885 123.326L176.649 123.568L176.319 124.236L176.107 124.872L175.918 125.085L175.635 125.266L175.093 125.388L174.716 125.6L174.386 126.025L174.362 126.108V126.388L174.739 127.601V127.844L174.669 127.91V128.117L174.409 128.359L173.961 128.572L172.358 128.905L171.816 128.936H171.392L171.015 128.875L170.661 128.754L170.378 128.602L170.119 128.45L169.459 127.905L169.152 127.753L168.775 127.692L168.374 127.662L167.974 127.692L167.596 127.753L167.266 127.935L166.984 128.208L166.797 128.616L166.771 128.814L166.724 129.148L166.654 129.421L166.583 129.694L166.347 129.936L165.97 130.088L165.286 130.118L164.791 130.058L163.966 129.845L163.589 129.785L163.164 129.906L162.787 130.179L162.033 131.028L161.962 131.18V131.27L162.009 131.483L162.127 131.634L162.269 131.725L162.528 131.847L164.107 132.21L164.437 132.332L164.65 132.514L164.673 132.756L164.626 133.029L164.597 133.063L164.555 133.302L164.32 133.575L163.99 133.727L163.282 133.696L162.882 133.605L162.552 133.484L162.339 133.332L162.151 133.272L155.008 131.331L154.112 131.27H153.688L152.98 131.392L152.32 131.604L151.99 131.756L151.047 132.362L150.364 132.938L149.633 133.454L149.279 133.514H145.861L144.965 133.393L142.726 132.756L141.83 132.665L141.028 132.696L140.651 132.787L140.321 132.969L140.038 133.272L139.972 133.414L140.038 133.818L140.321 134.576L141.806 137.578L141.971 138.154L142.113 139.397L142.207 141.338L142.466 142.126L143.627 143.648L143.692 143.733L139.543 144.279L138.294 144.946L137.775 145.401L137.091 145.613L134.498 145.856L133.673 145.826L133.131 145.704L132.872 145.553L132.353 145.128L131.952 144.855L130.773 144.309L127.473 143.309L126.294 143.066L125.705 143.097L125.257 143.188L124.173 143.764L119.387 148.039L118.35 149.434L118.286 149.625L118.35 149.768L118.609 149.919L119.246 150.162L119.34 150.404L119.333 150.416L119.363 150.495L119.175 150.799L118.02 151.405L117.407 151.617L116.888 151.648L116.582 151.526L115.992 151.223L115.615 151.102L115.191 151.011L114.861 151.102L114.625 151.253L114.012 151.769L113.446 152.103L113.069 152.133L112.739 152.072L111.961 151.587L111.843 151.405L111.855 151.369L111.82 151.314L111.89 151.102L112.055 150.89L113.823 149.373L113.989 149.161L114.09 149.005L114.036 148.919L113.823 148.767L112.456 148.009L111.23 147.433L111.042 147.281L110.971 147.039L110.973 147.034L110.947 146.948L111.018 146.705L111.136 146.462L112.008 145.28L112.126 145.037L112.167 144.801L112.079 144.643L111.89 144.461L110.924 143.794L105.502 141.277L103.663 140.155L100.834 139.064L100.457 138.851L100.363 138.639L100.365 138.607L100.339 138.548L100.363 138.275L100.504 138.002L100.645 137.76L100.881 137.547L102.272 136.88L102.602 136.607L102.744 136.456L102.909 136.243L102.791 135.94L102.366 135.607L100.339 134.788L99.9147 134.545L99.4431 133.939L98.9952 133.666L98.288 133.363L96.685 132.847L96.0013 132.544L95.6713 132.21V131.907L95.3884 131.543L94.7755 131.331L92.8423 131.058L92.253 130.846L90.9565 130.209L90.4379 130.058L90.0914 129.998L87.7267 130.179L87.721 130.177L87.7032 130.179L87.326 130.088L87.2317 129.906L87.3732 129.724L87.6089 129.542L88.1039 129.208L89.8719 128.481L90.1077 128.329L90.3199 128.117L91.0743 127.207L91.1214 126.995L91.2158 126.783L91.0979 126.57L90.8857 126.388L89.5184 125.509L88.9998 125.054L88.8819 124.812V124.539L88.9055 124.266L88.5518 123.781L87.8683 123.235L85.8172 122.143L84.8507 121.779L84.281 121.671L83.4598 122.052L80.1358 122.962L78.957 123.478L77.8963 124.054L77.5898 124.175L76.9062 124.327L76.5289 124.387L75.8925 124.6L75.6332 124.751L75.3031 124.903L74.8552 124.963L74.1008 124.994L74.0917 124.99L74.0065 124.994L73.205 124.69L71.7198 124.296L68.6787 123.841H68.2072L67.5944 124.145L67.2172 124.296L66.5334 124.327L66.521 124.323L66.4391 124.327L65.9205 124.175L65.2369 123.841L64.6947 123.69L64.2344 123.633L62.1722 123.781L62.1386 123.776L62.078 123.781L61.6064 123.72L61.2529 123.568L60.8993 123.356L59.6262 122.75L59.1659 122.693L58.8011 122.719L58.5418 122.871L58.2353 122.992L57.8581 123.053L57.7912 123.049L57.7638 123.053L54.1396 122.814L53.827 122.841L52.3889 123.083L51.4459 123.144L51.4106 123.14L51.3516 123.144L50.7859 123.083L50.338 122.962L48.8056 121.992L47.6269 121.416L43.2892 120.021L42.2755 119.414L40.9318 118.353L40.5546 118.141L38.5508 117.352L38.2443 117.11L37.985 116.776L37.4899 116.382L32.6572 114.138L32.3979 113.926L32.28 113.713L32.0443 113.259L31.6671 112.986L31.0777 112.652L28.9326 111.773L27.683 111.439L27.3059 111.379H26.0328H25.9385L24.1233 111.227H23.7933L22.1902 111.5L22.1144 111.497L22.0959 111.5L21.3651 111.47L20.8465 111.318L20.1629 110.984L19.7191 110.899L19.4084 110.924L19.1021 111.045L18.1826 111.227L18.1168 111.221L15.7073 111.015L16.0138 110.56L16.0609 110.044L15.8252 109.226L15.4716 108.468L15.0472 107.709L14.7407 107.315L13.2085 105.769L13.0906 105.556L13.0434 105.223L13.067 104.829L13.2792 104.192L13.68 103.494L14.2693 102.858L17.7347 100.189L17.994 100.038L18.3241 99.9467L18.6898 99.9173L18.7012 99.9164L19.1021 99.9467L19.4556 100.068L19.715 100.189L20.1157 100.553L20.3751 100.735L21.2473 101.16L22.0251 101.372L22.4731 101.432L29.4747 101.554L30.9599 101.372L34.661 100.007L35.7454 99.4009L37.7257 97.7634L39.3995 95.7318L41.0561 94.1411L41.0733 93.9427L40.9318 93.6092L40.1302 92.9117V92.6085L40.1538 92.5681V92.5175L40.3425 92.1939V92.0323L40.1774 91.7898L39.5645 91.5472L38.6451 91.2743L38.3151 91.0014L38.0558 90.5162L37.5135 89.8794L37.2778 89.4549L37.2307 88.9697L37.3014 88.6361L37.3108 88.6119L37.325 88.5451L37.4428 88.2419L37.5842 87.969L37.7729 87.7568L38.0321 87.6051L39.1166 87.3929L39.7767 87.2109L40.1538 87.1503H40.5781L44.6329 87.6961H45.0101L45.293 87.5142L45.6467 87.0593L45.9059 86.9077L46.2596 86.8471L47.4383 86.7561L47.7448 86.6348L47.9569 86.4832L48.0148 86.3839L48.0276 86.3012L47.674 85.8464L46.8961 85.4218L45.3402 84.876L44.0672 84.0876L42.6292 83.6631L42.3227 83.4508L42.1812 82.996L42.2196 82.9528L42.2048 82.905L42.3934 82.6928L42.7234 82.6018L46.0474 82.4805L47.509 82.2379L47.8391 82.1166L48.0412 81.9984L47.8391 81.4495L47.1554 80.5398L43.69 76.7797L43.4071 76.3552L43.1714 75.9003L43.1243 75.6578L43.1478 75.4455L43.1917 75.4141L43.1949 75.3848L43.4071 75.2332L43.9729 75.021L44.1615 74.8861V74.7481L44.1143 74.5358L43.8786 73.808L43.7136 73.5958L43.4071 73.4442L42.8649 73.3835L40.6961 73.4138L40.366 73.5048L40.1067 73.6867L39.9417 73.9293L39.7059 74.5055L39.541 74.7481L39.3052 74.8997L38.928 74.93L38.0085 74.8693L34.4017 74.3235L34.0245 74.2022L33.8123 73.99L33.7181 73.6261L33.5766 73.3532L33.3173 73.1409L31.3371 72.9893L30.9128 72.868L30.5827 72.6558L30.3941 72.2009L30.2291 71.2609L30.0641 70.988L29.7812 70.7454L28.296 70.1692L28.0131 69.9873L27.7302 69.6841L27.4001 69.2292L26.9051 68.1072L26.7873 67.804L26.6459 66.773L26.6929 64.802L26.6222 64.2562L26.4336 63.8014L26.1743 63.5285L25.8207 63.1949L24.5948 62.4974L24.1233 62.3155L23.7226 62.2549H23.3218L22.9446 62.2852L22.6146 62.3762L21.7659 62.7704L21.4359 62.8613L21.0587 62.922L21.0422 62.9208L21.0351 62.922L20.1629 62.8613L15.7073 61.5877L15.3537 61.3755L14.34 60.5568L13.8214 60.3445L13.3292 60.1938L10.4738 60.3142L10.4647 60.3136L10.4502 60.3142L9.55444 60.2535L9.13007 60.1626L8.77649 60.0413L8.18713 59.7683L7.4563 59.2529L7.1734 59.1012L6.84332 58.9799L5.49963 58.798L5.09888 58.6464L4.76892 58.4645L3.96729 57.6154L3.68439 57.4638L3.30719 57.1909L2.92999 56.7967L2.36426 54.9166L2.24646 54.674L1.02051 52.7637L1.11481 52.6424L1.77484 51.8236L2.36426 51.2172L5.33466 49.1249L5.75897 48.7307L5.87677 48.1242L5.94757 47.2145L5.61755 43.3635L4.91034 42.4538L7.43274 41.4531L7.78638 41.2105L8.21069 40.877L8.44641 40.2098L8.98865 39.2698L9.31866 39.0879H9.62518L9.83734 39.2092L10.0495 39.3911L10.5681 39.6943L11.4875 40.1189L12.2654 40.3918L12.902 40.4828L13.2792 40.3615L13.5149 40.1492L13.6328 39.9066L13.68 39.664L13.6093 39.4214L13.4677 39.2092V38.8756L13.6564 38.4511L14.5522 37.6324L14.5635 37.6261L14.6229 37.5717L15.165 37.2685L15.6837 37.1775L16.7446 37.5717L17.2396 37.693L17.5048 37.5793L17.6639 37.4201L17.7819 37.1472L17.8997 36.844L18.1119 36.4498L18.442 35.9949L19.1492 35.3581L19.1565 35.3545L19.2198 35.2975L19.715 35.0549L20.2336 34.9033L21.1293 34.9336L22.0251 35.0245L23.5104 35.4491L23.8405 35.5704L24.4062 35.6613L25.2078 35.6917L27.6595 35.2975L27.9207 35.2098L28.333 34.3011L28.3195 34.2665L28.0367 33.8419L27.9424 33.6297V33.3568L28.1309 33.0535L28.5789 32.5987L28.5989 32.5895L28.6495 32.538L28.9796 32.3864L29.2861 32.2955L28.4037 34.2403L28.4846 34.4484L28.5081 34.691L28.4139 34.9336L28.3432 34.9942L28.2017 35.1155L28.1309 35.1762L27.9518 35.2363L27.4305 36.3852L28.1549 35.8528L28.7207 35.6709L29.2158 35.6102L29.593 35.6709L31.361 36.2773L31.8089 36.3683L32.3511 36.3986L32.6653 36.2832L32.8227 36.1257L32.9169 35.8528V35.6102L32.799 34.5186V34.2153L32.9169 33.7908L32.9866 33.7338L32.9876 33.7302L33.247 33.5179L33.6241 33.4269H34.0485L34.4965 33.4573L35.2743 33.6695L40.1542 35.4283L40.7672 35.5496L40.9901 35.4779L41.0265 35.3373L40.8615 35.1554L40.3192 34.7612L40.1542 34.5792L40.0835 34.3063L40.1561 34.2529L40.1542 34.2457L40.3192 34.1244L40.4843 34.0637L42.7238 34.276L44.7748 34.0941L45.8356 33.6998L46.5428 33.5482L47.0615 33.4876L49.3011 33.8211L50.6448 33.8818L51.7763 33.7908L52.3657 33.6998L52.7901 33.5482Z" fill="#333333"/>
<path d="M0.875 40.1875L1.0625 28.0625L4.75 30L9.0625 32.0625L12.75 33.25C13.7292 33.8125 15.725 34.9875 15.875 35.1875L20.25 36.9375L21.9375 36.875L23.8125 36.5625L27.375 38.0625L29 43L29.25 43.3125L31.1875 44.5625L34.5 47.5625C36 47.8542 39.075 48.425 39.375 48.375C39.625 47.9167 40.1625 46.95 40.3125 46.75C40.5 46.5 44.0625 47.0625 45.125 47.4375C46.1875 47.8125 46.625 50.1875 46.9375 50.5625C47.25 50.9375 49.9375 52.75 50.9375 54.3125C51.9375 55.875 51.625 58.6875 52.4375 60.375C53.0875 61.725 49.375 63.9792 47.4375 64.9375L37.375 64.125L41.1875 65.5625L44.1875 67.5L37.3125 75L37.375 64.125L47.4375 64.9375L39.5 62.9375L39.3125 62.6875L33.9375 61.5L32.0625 60.25L30.625 59.875L28.3125 57L26.6875 53.125L23.625 49.375L22.1875 49.6875L20.1875 50.1875L15.875 49.0625L13.1875 47.5625L9 47.4375L6.4375 44.1875L5.1875 43.9375L4.625 43.0625L0.875 40.1875Z" fill="#0B2856"/>
<path d="M13.375 92.625L13.25 80.4375L18.3125 80C18.5625 80.7917 19.1125 82.525 19.3125 83.125L20.125 84.5L22.0625 85.8125L24.625 85.25L27.6875 85.8125L32.4375 87.125L38.75 89.875L43.25 91.9375L50.9375 96.1875L54 96.5625L57.9375 96.6875L59.3125 96.125L61.8125 97.125L64.1875 97.3125L66.6875 98.0625L66.375 97.9375L68.25 97.5625L74.0625 99.375L76.0625 98.5L84.375 95.9375L92.125 94.625C92.9375 95.5417 94.9625 97.9875 96.5625 100.438C97.6511 102.104 96.7954 103.268 95.6647 103.96C96.9092 104.179 98.0193 104.386 98.5 104.5C99.55 104.75 97.3958 106.229 96.1875 106.938L104.312 107.75C104.417 108.167 104.688 109.088 104.938 109.438C105.25 109.875 105.312 110.812 105.312 112.375C105.312 113.625 102.229 113.688 100.688 113.562C103.604 114.062 109.9 114.925 111.75 114.375C114.062 113.688 113.562 115 114.875 115.875C116.188 116.75 114.125 119.875 114.062 120.688C114 121.5 111.438 122.438 111.125 122.5C112.667 122.729 115.8 123.25 116 123.5C116.2 123.75 115.792 124.938 115.562 125.5L117.688 126L119.438 125.812C118.833 125.646 117.537 125.213 117.188 124.812C116.838 124.412 118.208 122.521 118.938 121.625L125.875 117.375L133.25 119.375L137.438 119.5L139.812 118.438L142 118.25C140.938 116.688 138.675 113.387 138.125 112.688C137.575 111.988 135.146 110.854 134 110.375C134.312 109.042 134.938 106.3 134.938 106C134.938 105.625 141.938 104.75 142.5 104.75C142.95 104.75 144.646 106.5 145.438 107.375L149.812 108.5L149.5 107.938L153.688 105.375L157.625 106.062L162.688 108.125L164.139 108.246L164.215 108.155L159.438 106.438L161.375 104.562L163.312 103.438L166.312 104.938L166.25 101.5L167.875 100.25L168.625 102.5L171.25 102.875L174.625 102.812L172.938 101.75L173.312 100.375L175.375 99.375L174.75 97.125L177 98.0625L177.25 96.5625L180.25 95.875L183.125 95.5C181.375 95.0208 177.587 93.875 176.438 93.125C176.024 92.8555 175.776 92.6963 175.638 92.6097L175.625 92.625C175.492 92.5316 175.391 92.4552 175.638 92.6097L178.938 88.625L184.062 89.25L185.188 88.125L183.312 85.5C185.333 84.3125 189.5 81.8875 190 81.6875C190.5 81.4875 198.25 79.7292 202.062 78.875C200.854 78.7083 198.35 78.35 198 78.25C197.65 78.15 194.854 77.9167 193.5 77.8125C192.375 77.5417 190.05 76.975 189.75 76.875C189.45 76.775 191.375 75.1667 192.375 74.375C194.042 73.5208 197.538 71.725 198.188 71.375C198.837 71.025 202.458 71.6042 204.188 71.9375L212.938 71.75L217.688 72.25L218.688 70.875L221.188 68.8125L221.753 67.9076L216.5 67.5L213.312 62C213.333 60.0625 213.45 56.0375 213.75 55.4375C213.918 55.1015 214.136 54.6651 214.478 54.2352L211.188 50.5625C212.771 49.0625 216.038 46.0125 216.438 45.8125C216.837 45.6125 220.896 42.7708 222.875 41.375L225 41.875V53.75L224.113 57.3567L224.25 63.6875L223.75 68.0625L224.062 79.6875L221.75 82.25L219.125 84.3125L218.188 86.5C216.562 86.7083 213.25 87.125 213 87.125L204.25 85.75L203.25 85.625L202.062 91.5L185.188 101.375L184 102.125L183.188 108.188L180.125 108.875L176.688 110.5L175.5 112.562L174.5 115.688L171.125 116.375L168.375 115L166.438 116.75L164.875 119.875L163.938 120.688H162.438L153.688 118.5L149.812 120.625L145.438 120.75L143.812 131.25L139.875 131.188C139.188 131.688 137.75 132.75 137.5 133L133.25 133.188L125.688 130.562L119.562 137.562L117.438 139L115.125 138.25L113.125 138.562H112.062L111.312 134.438L100.562 126.188L99.4375 122.438L95.5625 119.312C95.5625 119.662 92.1458 118.042 90.4375 117.188H87.25L84.375 108.938L76.375 111.375L74 112.25L68.5625 111.188L66.9375 111.625L64.625 110.75L61.8125 111.188L59.3125 109.375L58.25 110.438L54.25 110.312L50.75 110.438L42.9375 107.375L38.6875 104.5L32.25 101.312L27.6875 98.6875L24.3125 98.375L22 98.75L19.9375 98.4375L18 98.6875L16.125 98.3125L13.375 92.625Z" fill="#0B2856"/>
<path d="M176.562 8.25L176.375 0.4375C174.771 1.3125 171.462 3.1375 171.062 3.4375C170.562 3.8125 172.312 5.9375 172.625 6.4375C172.875 6.8375 175.354 7.8125 176.562 8.25Z" fill="#0B2856"/>
<path d="M40.25 12.375L40.0625 9.625C40.7083 9.97917 41.9375 10.8125 41.6875 11.3125C41.4375 11.8125 40.625 12.2292 40.25 12.375Z" fill="#0B2856"/>
<path d="M29.25 7.625L29.1875 12.2188L26.6875 13.125C26.1042 13 25.05 12.675 25.5 12.375C25.95 12.075 26.6458 11.5 26.9375 11.25L27.8372 10.3503L27.9062 8.625C27.9907 8.65516 28.1022 8.69459 28.2211 8.73598C28.2313 8.62528 28.2592 8.53999 28.3125 8.5C28.5125 8.35 28.9583 7.79167 29.25 7.625Z" fill="#0B2856"/>
<path d="M13.4688 16.125V14.1562C13.6666 14.2292 14.125 14.3563 14.375 14.2812C14.6875 14.1876 14.4062 15.0312 14.4062 15.375C14.4062 15.65 13.7812 15.9896 13.4688 16.125Z" fill="#0B2856"/>
<path d="M4.90625 25.2812L4.96875 17.7188L5.8125 18.2812C6.23958 18.6771 7.23125 19.6313 7.78125 20.2812C8.46875 21.0938 8.09375 22.0312 8.0625 23.5625C8.0375 24.7875 5.94792 25.2188 4.90625 25.2812Z" fill="#0B2856"/>
<path d="M32.7188 12.0312L32.9062 9.25C33.2083 9.5 33.8375 10.0188 33.9375 10.0938C34.0625 10.1875 33.9375 10.5625 34.0625 10.875C34.1625 11.125 33.2082 11.75 32.7188 12.0312Z" fill="url(#paint0_linear)"/>
<path d="M52.7901 8.7455L53.0251 8.60804L53.1908 8.44226L53.3558 8.16936L53.4736 7.86612L53.5444 7.62354L53.6151 7.16867L53.6794 7.1496L53.9216 7.07772L55.1158 7.35352L59.6783 4.47852L78.0221 0.791016L84.5221 2.13477L89.9596 7.10352L92.9283 8.60352L94.0846 11.8848L104.491 11.4161L131.397 10.2911L162.272 4.69727L171.553 2.13477L176.366 0.197266L175.241 5.50977L186.741 14.1036L187.835 19.0723L195.71 26.7598L215.678 36.9786L222.903 36.3969L223.091 36.5485L223.256 36.7607L223.677 37.2797L224.481 38.2709L224.505 38.3612L224.528 38.3922L224.67 40.3632L224.835 41.2122L224.953 41.5155L225 41.7581L224.996 41.7999L225 41.8187L224.976 42.0916L224.882 42.4252L224.576 42.8497L223.821 43.5471L223.609 43.911L223.161 45.1846L222.878 45.5788L222.572 45.8517L222.006 46.0943L221.794 46.2156L221.723 46.3369L221.684 46.5106L221.817 46.8524L222.407 47.8227L222.572 48.0047L223.09 48.3685L223.279 48.5202L223.35 48.7324L223.338 48.7584L223.35 48.7931L223.255 49.0053L222.902 49.2176L222.673 49.3646L222.713 49.6725L223.609 51.0067L223.727 51.2493L223.774 51.5222L223.769 51.5525L223.774 51.5828L223.727 51.8557L223.397 52.2499L223.114 52.4925L221.747 53.2203L221.511 53.4325L221.346 53.7054L221.134 54.7668L221.039 55.9494L220.686 56.6468L220.356 57.0107L219.979 57.1623L218.918 57.3443L218.611 57.4655L218.328 57.6172L217.598 58.5269L217.48 58.7998L217.461 59.0186L217.715 59.3759L218.022 59.6185L218.823 60.134L219.012 60.3462L219.318 60.7708L219.554 61.1953L219.719 61.6805L219.813 65.2586L219.979 66.1077L220.238 66.6232L220.615 66.7141L221.888 66.7445L222.312 66.8051L222.69 66.8961L222.996 67.0477L223.255 67.1993L223.444 67.3813L223.585 67.5935L223.609 67.9574L223.606 67.969L223.609 68.018L223.468 68.5335L222.548 69.6858L221.723 70.4439L219.955 71.4143L218.902 72.0813L218.376 72.4149L218.234 73.1123L218.21 73.3549L218.163 73.6885L218.096 73.7995L218.069 73.9917L217.904 74.2646L217.574 74.4769L216.395 74.6891L213.165 74.9317L203.854 73.7795L197.064 74.204L196.664 74.3859L196.286 74.6588L194.515 77.0202L194.565 77.0847L194.848 77.206L195.226 77.2969L196.074 77.3879L198.785 77.4486L200.318 77.2969L200.695 77.3273L200.978 77.4486L201.213 77.6002L202.298 78.5099L202.463 78.7221L202.327 78.9718L202.369 79.0254L202.203 79.3286L201.661 79.7532L186.338 87.0611L186.055 87.3036L185.725 87.6372L185.301 88.365L185.189 88.6532L185.159 88.8804V89.1534L185.089 89.267V89.4263L184.9 89.7295L184.57 90.0024L182.92 90.5179L182.59 90.7605L182.212 91.0941L181.223 92.4266L181.222 92.4283L181.34 92.6405L181.576 92.8225L182.212 93.0954L182.425 93.2773L182.448 93.5199L182.354 94.0961V94.369L182.472 94.5812L182.66 94.7935L183.085 95.1574L183.25 95.3696L183.344 95.6122V95.8548L183.273 95.9572V96.1277L183.085 96.4006L182.684 96.6129L181.882 96.8252L179.926 96.9464L179.454 97.1284L176.885 98.5233L176.649 98.7658L176.319 99.433L176.107 100.069L175.918 100.282L175.635 100.463L175.093 100.585L174.716 100.797L174.386 101.222L174.362 101.305V101.585L174.739 102.798V103.041L174.669 103.107V103.314L174.409 103.556L173.961 103.769L172.358 104.102L171.816 104.133H171.392L171.015 104.072L170.661 103.951L170.378 103.799L170.119 103.647L169.459 103.102L169.152 102.95L168.775 102.889L168.374 102.859L167.974 102.889L167.596 102.95L167.266 103.132L166.984 103.405L166.797 103.813L166.771 104.011L166.724 104.345L166.654 104.618L166.583 104.891L166.347 105.133L165.97 105.285L165.286 105.315L164.791 105.255L163.966 105.042L163.589 104.982L163.164 105.103L162.787 105.376L162.033 106.225L161.962 106.377V106.467L162.009 106.68L162.127 106.831L162.269 106.922L162.528 107.044L164.107 107.407L164.437 107.529L164.65 107.711L164.673 107.953L164.626 108.226L164.597 108.26L164.555 108.499L164.32 108.772L163.99 108.924L163.282 108.893L162.882 108.802L162.552 108.681L162.339 108.529L162.151 108.469L155.008 106.528L154.112 106.467H153.688L152.98 106.589L152.32 106.801L151.99 106.953L151.047 107.559L150.364 108.135L149.633 108.651L149.279 108.711H145.861L144.965 108.59L142.726 107.953L141.83 107.862L141.028 107.893L140.651 107.984L140.321 108.166L140.038 108.469L139.972 108.611L140.038 109.015L140.321 109.773L141.806 112.775L141.971 113.351L142.113 114.594L142.207 116.535L142.466 117.323L143.627 118.845L143.692 118.93L139.543 119.476L138.294 120.143L137.775 120.598L137.091 120.81L134.498 121.053L133.673 121.023L133.131 120.901L132.872 120.75L132.353 120.325L131.952 120.052L130.773 119.506L127.473 118.506L126.294 118.263L125.705 118.294L125.257 118.385L124.173 118.961L119.387 123.236L118.35 124.631L118.286 124.822L118.35 124.965L118.609 125.116L119.246 125.359L119.34 125.601L119.333 125.613L119.363 125.692L119.175 125.996L118.02 126.602L117.407 126.814L116.888 126.845L116.582 126.723L115.992 126.42L115.615 126.299L115.191 126.208L114.861 126.299L114.625 126.45L114.012 126.966L113.446 127.3L113.069 127.33L112.739 127.269L111.961 126.784L111.843 126.602L111.855 126.566L111.82 126.511L111.89 126.299L112.055 126.087L113.823 124.57L113.989 124.358L114.09 124.202L114.036 124.116L113.823 123.964L112.456 123.206L111.23 122.63L111.042 122.478L110.971 122.236L110.973 122.231L110.947 122.145L111.018 121.902L111.136 121.659L112.008 120.477L112.126 120.234L112.167 119.998L112.079 119.84L111.89 119.658L110.924 118.991L105.502 116.474L103.663 115.352L100.834 114.261L100.457 114.048L100.363 113.836L100.365 113.804L100.339 113.745L100.363 113.472L100.504 113.199L100.645 112.957L100.881 112.744L102.272 112.077L102.602 111.804L102.744 111.653L102.909 111.44L102.791 111.137L102.366 110.804L100.339 109.985L99.9147 109.742L99.4431 109.136L98.9952 108.863L98.288 108.56L96.685 108.044L96.0013 107.741L95.6713 107.407V107.104L95.3884 106.74L94.7755 106.528L92.8423 106.255L92.253 106.043L90.9565 105.406L90.4379 105.255L90.0914 105.195L87.7267 105.376L87.721 105.374L87.7032 105.376L87.326 105.285L87.2317 105.103L87.3732 104.921L87.6089 104.739L88.1039 104.405L89.8719 103.678L90.1077 103.526L90.3199 103.314L91.0743 102.404L91.1214 102.192L91.2158 101.98L91.0979 101.767L90.8857 101.585L89.5184 100.706L88.9998 100.251L88.8819 100.009V99.7362L88.9055 99.4633L88.5518 98.9781L87.8683 98.4323L85.8172 97.3406L84.8507 96.9768L84.281 96.8682L83.4598 97.2497L80.1358 98.1594L78.957 98.6749L77.8963 99.251L77.5898 99.3723L76.9062 99.5239L76.5289 99.5846L75.8925 99.7969L75.6332 99.9485L75.3031 100.1L74.8552 100.16L74.1008 100.191L74.0917 100.187L74.0065 100.191L73.205 99.8878L71.7198 99.4936L68.6787 99.0388H68.2072L67.5944 99.342L67.2172 99.4936L66.5334 99.5239L66.521 99.5203L66.4391 99.5239L65.9205 99.3723L65.2369 99.0388L64.6947 98.8871L64.2344 98.8308L62.1722 98.9781L62.1386 98.9738L62.078 98.9781L61.6064 98.9175L61.2529 98.7658L60.8993 98.5536L59.6262 97.9471L59.1659 97.8907L58.8011 97.9168L58.5418 98.0684L58.2353 98.1897L57.8581 98.2503L57.7912 98.2459L57.7638 98.2503L54.1396 98.0113L53.827 98.0381L52.3889 98.2807L51.4459 98.3413L51.4106 98.3375L51.3516 98.3413L50.7859 98.2807L50.338 98.1594L48.8056 97.1891L47.6269 96.6129L43.2892 95.218L42.2755 94.6115L40.9318 93.5502L40.5546 93.338L38.5508 92.5496L38.2443 92.307L37.985 91.9734L37.4899 91.5792L32.6572 89.3353L32.3979 89.123L32.28 88.9108L32.0443 88.4559L31.6671 88.183L31.0777 87.8495L28.9326 86.9701L27.683 86.6365L27.3059 86.5759H26.0328H25.9385L24.1233 86.4243H23.7933L22.1902 86.6972L22.1144 86.694L22.0959 86.6972L21.3651 86.6669L20.8465 86.5152L20.1629 86.1817L19.7191 86.0961L19.4084 86.121L19.1021 86.2423L18.1826 86.4243L18.1168 86.4186L15.7073 86.212L16.0138 85.7572L16.0609 85.2417L15.8252 84.4229L15.4716 83.6649L15.0472 82.9068L14.7407 82.5126L13.2085 80.9661L13.0906 80.7538L13.0434 80.4202L13.067 80.0261L13.2792 79.3893L13.68 78.6918L14.2693 78.055L17.7347 75.3866L17.994 75.235L18.3241 75.144L18.6898 75.1146L18.7012 75.1137L19.1021 75.144L19.4556 75.2653L19.715 75.3866L20.1157 75.7505L20.3751 75.9324L21.2473 76.3569L22.0251 76.5692L22.4731 76.6298L29.4747 76.7511L30.9599 76.5692L34.661 75.2047L35.7454 74.5982L37.7257 72.9607L39.3995 70.9291L41.0561 69.3384L41.0733 69.14L40.9318 68.8065L40.1302 68.109V67.8058L40.1538 67.7654V67.7148L40.3425 67.3912V67.2296L40.1774 66.9871L39.5645 66.7445L38.6451 66.4716L38.3151 66.1987L38.0558 65.7135L37.5135 65.0767L37.2778 64.6522L37.2307 64.167L37.3014 63.8334L37.3108 63.8092L37.325 63.7424L37.4428 63.4392L37.5842 63.1663L37.7729 62.9541L38.0321 62.8024L39.1166 62.5902L39.7767 62.4082L40.1538 62.3476H40.5781L44.6329 62.8934H45.0101L45.293 62.7115L45.6467 62.2566L45.9059 62.105L46.2596 62.0444L47.4383 61.9534L47.7448 61.8321L47.9569 61.6805L48.0148 61.5812L48.0276 61.4985L47.674 61.0437L46.8961 60.6191L45.3402 60.0733L44.0672 59.2849L42.6292 58.8604L42.3227 58.6481L42.1812 58.1933L42.2196 58.1501L42.2048 58.1023L42.3934 57.8901L42.7234 57.7991L46.0474 57.6778L47.509 57.4352L47.8391 57.3139L48.0412 57.1957L47.8391 56.6468L47.1554 55.7371L43.69 51.977L43.4071 51.5525L43.1714 51.0976L43.1243 50.8551L43.1478 50.6428L43.1917 50.6114L43.1949 50.5821L43.4071 50.4305L43.9729 50.2183L44.1615 50.0834V49.9454L44.1143 49.7331L43.8786 49.0053L43.7136 48.7931L43.4071 48.6415L42.8649 48.5808L40.6961 48.6111L40.366 48.7021L40.1067 48.884L39.9417 49.1266L39.7059 49.7028L39.541 49.9454L39.3052 50.097L38.928 50.1273L38.0085 50.0666L34.4017 49.5208L34.0245 49.3995L33.8123 49.1873L33.7181 48.8234L33.5766 48.5505L33.3173 48.3382L31.3371 48.1866L30.9128 48.0653L30.5827 47.8531L30.3941 47.3982L30.2291 46.4582L30.0641 46.1853L29.7812 45.9427L28.296 45.3665L28.0131 45.1846L27.7302 44.8814L27.4001 44.4265L26.9051 43.3045L26.7873 43.0013L26.6459 41.9703L26.6929 39.9993L26.6222 39.4535L26.4336 38.9987L26.1743 38.7258L25.8207 38.3922L24.5948 37.6947L24.1233 37.5128L23.7226 37.4522H23.3218L22.9446 37.4825L22.6146 37.5735L21.7659 37.9677L21.4359 38.0586L21.0587 38.1193L21.0422 38.1181L21.0351 38.1193L20.1629 38.0586L15.7073 36.785L15.3537 36.5728L14.34 35.7541L13.8214 35.5418L13.3292 35.3911L10.4738 35.5115L10.4647 35.5109L10.4502 35.5115L9.55444 35.4508L9.13007 35.3599L8.77649 35.2386L8.18713 34.9656L7.4563 34.4502L7.1734 34.2985L6.84332 34.1772L5.49963 33.9953L5.09888 33.8437L4.76892 33.6618L3.96729 32.8127L3.68439 32.6611L3.30719 32.3882L2.92999 31.994L2.36426 30.1139L2.24646 29.8713L1.02051 27.961L1.11481 27.8397L1.77484 27.0209L2.36426 26.4145L5.33466 24.3222L5.75897 23.928L5.87677 23.3215L5.94757 22.4118L5.61755 18.5608L4.91034 17.6511L7.43274 16.6504L7.78638 16.4078L8.21069 16.0743L8.44641 15.4071L8.98865 14.4671L9.31866 14.2852H9.62518L9.83734 14.4065L10.0495 14.5884L10.5681 14.8916L11.4875 15.3162L12.2654 15.5891L12.902 15.6801L13.2792 15.5588L13.5149 15.3465L13.6328 15.1039L13.68 14.8613L13.6093 14.6187L13.4677 14.4065V14.0729L13.6564 13.6484L14.5522 12.8297L14.5635 12.8234L14.6229 12.769L15.165 12.4658L15.6837 12.3748L16.7446 12.769L17.2396 12.8903L17.5048 12.7766L17.6639 12.6174L17.7819 12.3445L17.8997 12.0413L18.1119 11.6471L18.442 11.1922L19.1492 10.5554L19.1565 10.5518L19.2198 10.4948L19.715 10.2522L20.2336 10.1006L21.1293 10.1309L22.0251 10.2218L23.5104 10.6464L23.8405 10.7677L24.4062 10.8586L25.2078 10.889L27.6595 10.4948L27.9207 10.4071L28.333 9.49834L28.3195 9.46373L28.0367 9.0392L27.9424 8.82694V8.55403L28.1309 8.25081L28.5789 7.79596L28.5989 7.78677L28.6495 7.73531L28.9796 7.58368L29.2861 7.49272L28.4037 9.43755L28.4846 9.64566L28.5081 9.88828L28.4139 10.1309L28.3432 10.1915L28.2017 10.3128L28.1309 10.3735L27.9518 10.4336L27.4305 11.5825L28.1549 11.0501L28.7207 10.8682L29.2158 10.8075L29.593 10.8682L31.361 11.4746L31.8089 11.5656L32.3511 11.5959L32.6653 11.4805L32.8227 11.323L32.9169 11.0501V10.8075L32.799 9.71584V9.4126L32.9169 8.98809L32.9866 8.93105L32.9876 8.92743L33.247 8.71518L33.6241 8.62419H34.0485L34.4965 8.65453L35.2743 8.86678L40.1542 10.6256L40.7672 10.7469L40.9901 10.6752L41.0265 10.5346L40.8615 10.3527L40.3192 9.95844L40.1542 9.77648L40.0835 9.50357L40.1561 9.4502L40.1542 9.44292L40.3192 9.32164L40.4843 9.26099L42.7238 9.47325L44.7748 9.29132L45.8356 8.89711L46.5428 8.7455L47.0615 8.68485L49.3011 9.0184L50.6448 9.07906L51.7763 8.98809L52.3657 8.89711L52.7901 8.7455Z" fill="#1C4587"/>
<defs>
<linearGradient id="paint0_linear" x1="-173.393" y1="-8.82388" x2="55.6979" y2="70.2328" gradientUnits="userSpaceOnUse">
<stop stop-color="#3A90B6"/>
<stop offset="1" stop-color="#075F92"/>
</linearGradient>
</defs>
</svg>
