<svg width="238" height="120" viewBox="0 0 238 120" fill="none" xmlns="http://www.w3.org/2000/svg">
<path opacity="0.1" d="M143.145 21.6684L143.029 21.8914L143.31 22.3355L143.616 23.0027L143.734 23.2149L144.017 23.3665L144.489 23.4575L146.139 23.3059L146.681 23.3362L147.129 23.6091L147.341 23.8214L147.483 24.0336L147.93 24.7311L148.119 24.9434L148.968 25.0343L156.181 24.6098L165.47 22.8207L167.073 22.7298L178.718 24.8221L186.05 25.1253L189.421 24.7311L191.59 27.9756L195.763 35.7687L196.564 36.921L196.729 37.2242L196.811 37.4614L196.847 37.5275L196.941 37.8004L197.055 38.8209L197.059 38.8314L197.271 39.0436L197.766 39.1952L198.167 39.2256L198.544 39.1649L199.181 38.983L200.006 38.5282L200.336 38.4372L201.303 38.3159L201.751 38.4069L202.811 38.7404L203.189 38.8011L203.589 38.8314L203.967 38.8011L204.273 38.6798L204.509 38.4978L204.792 37.9823L205.004 37.7397L205.405 37.3455L205.523 37.1029L205.57 36.83L205.664 36.5571L205.805 36.3145L206.065 36.1629L206.701 35.9507L211.675 35.4655L211.958 35.4958L212.218 35.5565L212.43 35.7081L212.571 35.89L212.536 36.0031L212.548 36.0113L212.689 36.1932L212.595 36.4965L212.406 36.6784L212.147 36.7997L211.086 37.1333L210.827 37.2849L210.615 37.4971L210.497 37.77L210.402 38.0733L210.355 38.6494L210.379 38.9223V38.9225L210.567 39.1649L211.086 39.4682L212.218 39.9533L212.406 40.1353L212.548 40.4385L212.55 40.4939L212.665 40.7417L212.689 41.3179L212.571 41.5908L212.406 41.803L212.029 42.0153L211.888 42.2276L211.793 42.4702L211.817 42.7431L211.864 42.9857L212.595 44.8961L212.642 45.1386V45.3812L212.5 46.8367V47.1096L212.571 47.6555L212.683 48.1169L212.948 48.7774L212.954 48.8014L213.066 49.0807L213.149 49.4232L213.208 49.5355L213.467 49.7781L214.127 50.0207L215.141 50.2329L215.541 50.3845L215.824 50.6878L217.262 53.9627L217.267 54.0089L217.38 54.2659L217.64 56.6311L217.713 56.8468L217.875 57.0557L218.182 57.2376L218.818 57.4196L219.856 57.5409L219.926 57.5712L220.162 57.6925L220.398 57.9351L220.61 58.2686L220.893 58.9357L220.908 58.9978L221.011 59.239L221.228 60.1037L221.27 60.179L221.529 60.3912L222.024 60.5428L223.887 60.7248L224.264 60.8461L224.594 60.9673L225.49 61.4222L226.15 61.6345L229.804 62.3016L230.134 62.4229L230.417 62.6655L230.7 63.0597L231.69 65.2733L231.902 65.5159L232.209 65.7585L232.774 66.001L233.246 66.0617L234.094 66.092L234.495 66.1526L234.825 66.274L235.108 66.4256L235.415 66.7591L235.721 67.2443L236.145 68.3056L236.147 68.3181L236.263 68.6088L236.334 69.1547L236.193 69.4882L235.91 69.6095L234 70.1856L233.293 70.3373L232.986 70.4586L232.774 70.6102L232.68 70.8528L232.609 71.1257L232.68 72.7328L232.586 72.9754L232.444 73.1877L231.973 73.6425L231.808 73.8548L231.643 74.1277L231.289 74.9767L231.124 75.2193L230.912 75.4012L230.629 75.5529L229.993 75.7651L229.45 76.0684L229.026 76.4929L228.861 76.7355L228.672 76.9477L228.413 77.0993L228.059 77.1903L227.682 77.251L225.655 77.3419L225.278 77.4026L224.971 77.4936L224.688 77.6755L224.476 77.8271L224.311 78.0394L224.288 78.282V78.5245L224.443 79.0809L224.547 79.2523L224.877 79.4646L225.631 79.6162H226.103L226.504 79.5252L226.81 79.4343L226.221 79.9194L226.622 79.8285L226.928 79.7375L226.533 80.0628L227.541 80.5259L227.332 80.6789L227.659 80.8291L223.917 83.5656L224.032 83.5926L225.8 83.6835L226.248 83.8352L226.625 84.1384L227.073 84.7145L227.474 85.3817L227.639 85.8668L227.663 86.1094L227.639 86.3823L227.545 86.6249L227.356 86.8371L226.673 87.383L226.296 87.8075L226.178 88.0804L226.13 88.323L226.161 88.5017L226.178 88.5352L226.319 88.7475L226.649 89.1417L228.582 90.9308L228.747 91.1734L228.889 91.4463L229.054 91.6585L229.289 91.8708L229.667 92.0224L230.374 92.0831L232.943 91.9315L236.48 92.0224L236.88 92.1437L237.163 92.356L237.189 92.5903L237.281 92.6592L237.328 93.0837L237.187 93.387L236.951 93.5992L236.715 93.7508L236.48 93.9328L236.385 94.145V94.3877L236.409 94.9638L234.25 96.2666L232.343 99.0478L218.031 103.017L213.718 105.392L212.187 108.173L199.375 107.423L200.531 112.454L198.125 116.204L188.687 119.235L184.812 117.235L190.062 112.767L196.843 107.985L182.125 105.798L176.312 108.673L173.937 106.735L172.375 103.673L167.062 109.235L167.5 106.923L153.375 105.173L141.875 102.798L133.375 105.173L149.062 115.735L160.687 113.548L167.312 118.298L163.71 118.995L151.829 118.692L145.393 115.478L132.569 116.054L129.625 116.892L129.031 115.642L130.843 113.11L128.781 109.704L125.125 113.704L109.5 111.392L101.719 104.485L91.8437 109.735L75.875 111.173L70.0312 110.704L63.6875 112.142H58.5L54.5 113.392L51 113.673L30.6562 109.61L27.2187 105.392L14.4375 101.954L2 100.985L11.2188 96.8291L18.4687 90.1103L9.53125 89.2353L3.1875 87.5791L15.4687 86.8603L34.7187 87.6728L40.4375 88.6416L44.4062 88.1416L23.5625 78.8916L21.4844 79.035L22.7574 78.6711L23.276 78.3679L23.7474 78.004L23.9596 77.8221L24.6668 76.882L25.3741 75.5782L25.5627 75.2446L25.8456 74.9414L26.4349 74.5472L26.8828 74.3653L27.3543 74.244L28.3445 74.1227H29.1696L33.5307 75.093L35.4638 75.184L36.0532 75.093L36.4304 74.9111L36.619 74.6685L37.4441 72.94L37.727 72.6065L38.2928 72.182L38.835 71.9697L41.3103 71.5149L42.9133 71.3936L43.3141 71.4239L43.6441 71.5149L43.8799 71.6968L44.2099 72.1213L44.3514 72.3336L44.8229 72.4852L45.5772 72.5761L48.1939 72.4245L48.7833 72.3033L49.1605 72.091L49.3492 71.9394L49.5377 71.7574L49.6556 71.4845L49.7251 71.2388L49.7499 71.1509L49.7735 70.8174L49.7499 69.7864L49.845 69.5173L49.8442 69.4832L49.962 69.1496L50.2685 69.0587H50.6457L50.9758 69.18L51.1879 69.3316L51.4472 69.4832L51.8244 69.6045L52.461 69.6348L52.7439 69.7864L53.3096 69.9077L54.064 70.029L56.9872 69.9077L57.6236 69.9987L57.8594 70.1503L58.1422 70.3019L58.5195 70.4232L60.2168 70.7568L60.5469 70.9084L60.8063 71.06L61.0183 71.2419L61.537 71.8484L61.7492 72.0304L62.2442 72.3336L62.5271 72.4549L62.7393 72.4852H63.5408L67.5249 72.091L71.1789 72.1516L71.6504 72.091L71.9569 71.9697L72.2162 71.8181L77.9682 70.3929L79.2649 69.938L79.6714 69.7217L79.4063 69.6954L78.652 69.7258L78.2748 69.6954L77.5911 69.4528L77.096 69.3316L73.0885 69.6348L71.3204 69.5742L70.7546 69.4528L70.4481 69.3619L70.1652 69.2406L69.9294 69.089L69.8352 68.8464L69.8587 68.5735L69.9329 68.5036L69.9531 68.2702L70.3066 67.9367L70.6367 67.7851L77.874 66.9057L78.6283 66.6934L80.2315 65.4805L81.1509 65.0863L84.1683 64.5102L84.9463 64.2373L85.1508 64.0795L85.1349 64.025L84.9463 63.843L84.7341 63.6915L84.4748 63.6005L84.1448 63.5398L81.5044 63.5702L81.1272 63.5398L80.8443 63.4185L80.6322 63.2366L80.4907 63.0244L80.3964 62.7817L80.2786 62.2663L80.2315 61.4475L80.3288 61.1971L80.3257 61.1443L80.4436 60.841L80.7029 60.4772L81.4809 59.992L81.9052 59.8404L82.1645 59.7798L82.2588 59.8404L82.5888 60.0526L82.9896 60.4469L83.4612 60.7804L83.9562 61.0533L85.9601 61.872V61.6295L86.0544 61.4172V61.3262L86.1486 61.114L86.2429 60.9623L86.4315 60.7804L87.7281 59.7494L88.341 59.1126L88.5001 58.9079L88.4825 58.7487L88.3174 58.5365L84.8284 56.5352L80.4907 54.8977L80.1136 54.837H79.7129L78.5812 54.9583L78.204 54.928L77.9448 54.8067L77.7797 54.5944L77.6854 53.988L77.5676 53.6241L77.4496 53.4119L77.3789 53.1996L77.3554 52.957L77.4496 52.6841L77.4522 52.6802L77.4496 52.6538L77.5439 52.3809L77.6854 52.1686L78.9585 50.986L80.7736 48.3479L81.4102 47.1653L81.7638 46.7711L82.1173 46.6801L82.4002 46.7407L83.2254 47.4078L83.4376 47.4685H85.1585L86.2429 47.3169L86.7615 47.1653L87.1622 46.953L89.2604 45.2549L89.7083 45.0729L90.109 44.982L90.4862 45.0426L91.4293 45.3762L91.8536 45.4368L92.8653 46.8237L93.1953 46.6721L93.3603 46.4295L93.4546 46.1262L93.5725 45.823L93.895 45.3838L93.7611 45.1256L91.6885 41.9496L91.2642 41.3432L91.1463 41.1006L91.0521 40.858L91.0049 40.5851V40.3122L91.0992 39.7361L91.1764 39.5376L91.1935 39.4328L91.5235 38.5837L92.6295 38.6364L92.726 38.3416L92.7474 38.1209L92.771 37.939L92.7002 37.5448L92.5352 37.0596L92.4174 36.8473L92.6677 36.8687L92.6295 36.7564L92.5117 36.5441L93.3977 36.6198L93.3131 36.5744L93.1009 36.3622L92.9359 36.1499L92.7945 35.9376L92.6766 35.7254L92.6295 35.5435L92.7422 35.3114L92.7237 35.2402L92.8417 34.9976L93.0774 34.6337L94.209 33.6028L94.4054 33.3248L94.4918 32.9356L94.5493 32.7984L94.5862 32.6324L94.7512 32.2382L95.0341 32.1472L95.2462 32.1775L95.4584 32.3595L96.2364 33.4208L96.6842 34.3002L96.8257 34.5124L97.0614 34.6641L97.4386 34.7247L97.8629 34.755L99.2774 34.6641L99.914 34.5124L100.22 34.3002L100.244 34.2455V34.0879L100.15 33.8453L99.8667 33.4208L99.6782 33.2085L99.5367 32.9659L99.4424 32.7234L99.4189 32.4808V32.1775L99.5132 32.1383V31.8743L109.867 27.5672L109.929 27.2479L109.952 26.975L109.905 26.7324L109.834 26.5202L109.74 26.3686L109.504 26.0653L109.339 25.8833L108.939 25.3072L108.844 25.1556V25.095L108.797 24.9737L108.774 24.7614L108.868 24.4885L108.871 24.484L108.868 24.4582L108.962 24.1852L109.269 23.7001L109.304 23.628L109.386 23.4575L109.41 23.1846L109.316 22.9723L109.151 22.7601L108.703 22.4569L107.595 21.8807L107.336 21.7291L107.171 21.5471L107.053 21.3046L107.005 21.062L106.935 20.5161L106.958 19.6974L107.076 19.0909L112.71 20.0006L113.064 20.122L114.148 20.7284L114.809 21.0013L120.254 21.6381L121.48 21.911L122.211 22.1536L122.494 22.5782L122.777 23.2756L122.918 23.4878L123.083 23.7001L123.295 23.9124L123.79 24.2459L124.498 24.6401L125.323 24.9434L125.771 24.9737L126.242 24.9434L126.714 24.7614L126.902 24.6401L126.973 24.5794L126.997 24.3369L127.044 24.1246L127.162 23.9124L127.35 23.7304L127.609 23.5788L127.939 23.5181L135.719 22.3355L136.332 22.1233L136.591 21.9717L136.803 21.7594L136.845 21.6728L136.827 21.5775L136.685 21.0923L136.638 20.8497L136.685 20.6375L136.766 20.549L136.756 20.5161L136.709 20.2735L136.756 20.0613L136.921 19.8794L137.157 19.7884L137.581 19.6671L141.919 19L142.391 19.0606L142.862 19.1819L143.451 19.5155L143.758 19.7884L143.899 20.031V20.2432L143.758 20.4555L143.747 20.4679L143.828 20.6071V20.8194L143.687 21.0316L143.145 21.6684Z" fill="#333333"/>
<path d="M19.8751 60.7504L19.5626 72.4379L21.7773 72.2855V59.666L19.8751 60.7504ZM21.7773 59.666V72.2855L42.7546 81.4916V68.8721L21.7773 59.666ZM1.31262 69.3754L1.4375 80.9379L7.8299 82.6378V70.0183L1.31262 69.3754ZM7.8299 70.0183V82.6378L16.674 83.4926V70.873L7.8299 70.0183ZM232.335 77.1281V89.7505L235.406 86.9692V74.3496L232.335 77.1281ZM230.554 79.7568V92.382L232.335 89.7533V77.1309L230.554 79.7568ZM0.125 82.6254L0.25 94.3129L12.7567 95.3526V82.7275L0.125 82.6254ZM216.284 83.7392V96.3615L230.554 92.3792V79.7541L216.284 83.7392ZM12.7567 82.7303V95.3554L20.8857 97.4881V84.8686L12.7567 82.7303ZM211.893 86.0484V98.6707L216.284 96.3643V83.7419L211.893 86.0484ZM131.658 86.0484V98.6707L139.966 96.171V83.5514L131.658 86.0484ZM139.963 83.5486V96.1682L152.338 98.7268V86.1017L139.963 83.5486ZM20.8857 84.8658V97.4853L25.3947 98.7632V86.1437L20.8857 84.8658ZM170.438 84.2352V96.8575L172.07 99.9038V87.2843L170.438 84.2352ZM152.338 86.1045V98.7296L165.78 100.158V87.5393L152.338 86.1045ZM180.347 86.4099V99.0295L195.035 101.204V88.5846L180.347 86.4099ZM197.615 88.0718V100.691L204.04 101.071L210.466 101.45V88.8313L197.615 88.0718ZM210.466 88.8313V101.45L211.893 98.6707V86.0484L210.466 88.8313ZM172.07 87.2843V99.9038L174.473 101.924V89.3049L172.07 87.2843ZM174.473 89.3077V101.927L180.35 99.0323V86.4127L174.473 89.3077ZM165.186 90.1849V102.804L170.438 96.8575V84.2352L165.186 90.1849ZM25.3918 86.1437V98.7632L28.7791 103.07V90.4511L25.3918 86.1437ZM89.8741 90.4903V103.109L99.9351 97.8832V85.2637L89.8741 90.4903ZM28.7791 90.4511V103.07L32.9039 103.889V91.2694L28.7791 90.4511ZM74.2359 91.8243V98.1341V104.443L89.8741 103.112V90.4931L74.2359 91.8243ZM68.1258 91.3843V97.6941V104.003L74.2359 104.441V98.1313V91.8215L68.1258 91.3843ZM185.305 91.8243V104.443L186.522 103.889V91.2694L185.305 91.8243ZM99.9351 85.2637V97.8832L107.677 104.707V92.0877L99.9351 85.2637ZM184.887 92.7379V105.36L185.302 104.443V91.8243L184.887 92.7379ZM32.9039 91.2694V103.889L40.5001 105.416V92.7939L32.9039 91.2694ZM61.7156 92.9117V105.531L68.1258 104.006V91.3871L61.7156 92.9117ZM56.6123 92.9313V105.55L61.7156 105.531V92.9117L56.6123 92.9313ZM182.515 93.5618V106.181L184.887 105.36V92.7379L182.515 93.5618ZM181.447 93.0462V105.665L181.685 106.293V93.674L181.447 93.0462ZM127.056 90.566V103.188L128.954 106.523V93.9037L127.056 90.566ZM181.685 93.674V106.293L181.8 106.599V93.9794L181.685 93.674ZM52.5492 94.1868V106.806L56.6123 105.548V92.9285L52.5492 94.1868ZM123.374 94.397V107.019L127.053 103.191V90.5688L123.374 94.397ZM107.68 92.0905V104.71L123.377 107.016V94.397L107.68 92.0905ZM49.1367 94.5287V107.153L52.5492 106.809V94.1896L49.1367 94.5287ZM40.5001 92.7939V105.416L49.1367 107.151V94.5259L40.5001 92.7939ZM181.8 93.9794V106.599L182.277 107.989V95.3694L181.8 93.9794ZM182.277 95.3694V107.989H182.779V95.3694H182.277ZM196.342 96.894V109.513L198.717 105.699V93.0798L196.342 96.894ZM182.961 98.0009V110.62L186.76 112.641V100.021L182.961 98.0009ZM186.758 100.021V112.641L196.339 109.513V96.894L186.758 100.021ZM127.118 96.4176V109.037L129.75 112.344L131.537 105.206L127.118 96.4176Z" fill="#0B2856"/>
<path d="M127.875 109.75V98.5002L131.875 96.0002L135.25 96.7814C135.969 96.646 137.475 96.3627 137.75 96.3127C138.094 96.2502 139.656 95.8127 140.125 95.8752C140.5 95.9252 142.427 96.5002 143.344 96.7814C143.896 97.0002 145.056 97.4565 145.281 97.5314C145.563 97.6252 147 98.6252 147.813 98.7502C148.463 98.8502 149.584 99.5627 150.063 99.9064C151.219 99.6877 153.619 99.2502 153.969 99.2502C154.406 99.2502 156 99.5002 156.781 99.5314C157.406 99.5565 160.375 100.125 161.781 100.406L165.281 100.062L165.344 112L161.875 112.812L149.938 112.406L143.406 109.312L135.375 109.625L132.25 111.5L129.625 112.375L127.875 109.75Z" fill="#0B2856"/>
<path d="M234.344 51L234.25 63.125L231.438 64.3438L230.625 66.7812L229.094 69.0312L226.875 70.7812L226.938 74.75C225.25 74.2188 221.869 73.0188 221.844 72.4688C221.813 71.7812 220.969 70.4375 221.563 69.9375C222.156 69.4375 222.594 68.8438 223.219 68.9375L220.688 67.1875L219.062 65.75L219.125 63.8125L217.688 62.3125L217.438 59.6875L222 56.5625L226.219 58.9062L225.75 57.5C225.99 57.4062 226.525 57.225 226.75 57.25C226.975 57.275 227.698 57.2708 228.125 57.375L227.75 55.2188L230.094 54.0938C229.563 53.6875 228.55 52.7938 228.75 52.4688C228.95 52.1437 229.521 51.5417 229.781 51.2812L231.375 51.1875L234.344 51Z" fill="#0B2856"/>
<path d="M210.781 17.8438L210.844 22.9688L211.031 27.4062L210.688 30.125C209.386 29.8021 206.813 29.05 206.938 28.625C207.094 28.0938 207.625 25.5624 208.188 24.9688C208.638 24.4936 210.146 23.4374 210.844 22.9688L206.406 22.7812L206.25 20.5938L208.625 18.4688L210.781 17.8438Z" fill="#0B2856"/>
<path d="M142.125 5.49956C142.073 4.41623 141.969 2.18081 141.969 1.90581C141.469 1.79123 140.375 1.57456 140 1.62456C139.531 1.68706 139.281 1.84331 137.156 3.37456C135.031 4.90581 137.281 4.15581 137.813 5.09331C138.238 5.84331 140.865 5.67664 142.125 5.49956Z" fill="#0B2856"/>
<path d="M134.813 4.53125L134.719 2.5L134.938 1.75L135.781 2.0625C135.709 2.26042 135.513 2.825 135.313 3.5C135.113 4.175 134.896 4.46875 134.813 4.53125Z" fill="url(#paint0_linear)"/>
<path d="M105.156 9.53125V2.125C106.334 2.5625 108.856 3.59375 109.531 4.21875C110.375 5 109.656 6 109.844 7.5C110.031 9 109.75 10.5938 109.75 11.125C109.75 11.55 106.771 11.5729 105.281 11.5312L105.156 9.53125Z" fill="#0B2856"/>
<path d="M97.5002 14.0312L97.719 13.7188C97.8127 14.1249 98.2002 15.0437 99.0002 15.4688C99.8002 15.8938 99.3544 16.4791 99.0315 16.7188L97.5002 16.9375V14.0312Z" fill="#0B2856"/>
<path d="M90.7978 18.8914C90.7741 18.2486 90.7391 17.4131 90.719 17.3125C91.1252 17.4896 92.0502 17.9062 92.5002 18.1562C93.0627 18.4688 92.2502 18.875 92.1252 19.125C92.0506 19.2743 91.5763 19.3168 91.176 19.3201L91.5002 19.6875C91.594 19.8646 91.794 20.2563 91.844 20.4062C91.894 20.5562 91.1148 20.9896 90.719 21.1875L90.5627 18.625L90.7978 18.8914Z" fill="#0B2856"/>
<path d="M89.2815 28.0625L89.094 22.125C89.8232 22.5 91.5127 23.5875 92.4377 24.9375C93.594 26.625 93.219 27.1562 93.594 28.5C93.894 29.575 93.4065 29.6562 93.1252 29.5625C92.1252 29.4792 90.0502 29.2875 89.7502 29.1875C89.4502 29.0875 89.3127 28.3958 89.2815 28.0625Z" fill="#0B2856"/>
<path d="M76.0627 44.3754L76.0002 36.3129C77.344 36.2192 80.594 36.1004 82.844 36.3754C85.6565 36.7192 84.969 36.8754 87.4377 37.5942C89.9065 38.3129 88.6252 39.0004 88.969 40.5004C89.3127 42.0004 87.7815 43.0004 86.719 44.4066C85.6565 45.8129 82.5315 44.0629 82.0002 43.9066C81.7701 43.839 81.1752 43.8721 80.554 43.9365C81.8443 44.2421 83.1226 44.5613 83.2815 44.6566C83.594 44.8442 83.594 45.3754 83.9065 46.4692C84.1565 47.3442 83.219 47.7712 82.719 47.8754L78.5627 48.3129L78.5473 45.9201L77.9065 45.4692L76.0627 44.3754Z" fill="#0B2856"/>
<path d="M68.094 54.6865L67.969 50.3428C69.7815 50.3323 73.5815 50.2552 74.2815 50.0302C75.1565 49.749 77.1252 49.4365 78.3127 49.5615C79.5002 49.6865 78.5002 49.8115 79.6252 51.5928C80.7502 53.374 78.844 52.6552 78.7815 53.2178C78.719 53.7802 74.5627 54.3115 73.344 55.1865C72.369 55.8865 69.4377 55.1448 68.094 54.6865Z" fill="#0B2856"/>
<path d="M141.263 3.37155L141.147 3.59451L141.428 4.03867L141.734 4.70578L141.852 4.91803L142.135 5.06967L142.607 5.16065L144.257 5.009L144.799 5.03934L145.247 5.31226L145.459 5.52451L145.601 5.73676L146.048 6.43421L146.237 6.64649L147.086 6.73743L154.299 6.31293L163.588 4.52384L165.191 4.43289L176.836 6.52518L184.168 6.8284L187.539 6.43421L189.708 9.67877L193.881 17.4719L194.682 18.6242L194.847 18.9274L194.929 19.1646L194.965 19.2307L195.059 19.5036L195.173 20.5241L195.177 20.5346L195.389 20.7468L195.884 20.8984L196.285 20.9288L196.662 20.8681L197.299 20.6862L198.124 20.2314L198.454 20.1404L199.421 20.0191L199.869 20.1101L200.929 20.4436L201.307 20.5043L201.707 20.5346L202.085 20.5043L202.391 20.383L202.627 20.201L202.91 19.6855L203.122 19.4429L203.523 19.0487L203.641 18.8061L203.688 18.5332L203.782 18.2603L203.923 18.0177L204.183 17.8661L204.819 17.6539L209.793 17.1687L210.076 17.199L210.336 17.2597L210.548 17.4113L210.689 17.5932L210.654 17.7063L210.666 17.7145L210.807 17.8964L210.713 18.1997L210.524 18.3816L210.265 18.5029L209.204 18.8365L208.945 18.9881L208.733 19.2003L208.615 19.4732L208.52 19.7765L208.473 20.3526L208.497 20.6255V20.6257L208.685 20.8681L209.204 21.1714L210.336 21.6565L210.524 21.8385L210.666 22.1417L210.668 22.1971L210.783 22.4449L210.807 23.0211L210.689 23.294L210.524 23.5062L210.147 23.7185L210.006 23.9308L209.911 24.1734L209.935 24.4463L209.982 24.6889L210.713 26.5993L210.76 26.8418V27.0844L210.618 28.5399V28.8128L210.689 29.3587L210.801 29.8201L211.066 30.4806L211.072 30.5046L211.184 30.7839L211.267 31.1264L211.326 31.2387L211.585 31.4813L212.245 31.7239L213.259 31.9361L213.659 32.0877L213.942 32.391L215.38 35.6659L215.385 35.7121L215.498 35.9691L215.758 38.3343L215.831 38.55L215.993 38.7589L216.3 38.9408L216.936 39.1228L217.974 39.2441L218.044 39.2744L218.28 39.3957L218.516 39.6383L218.728 39.9718L219.011 40.6389L219.026 40.701L219.129 40.9422L219.346 41.8069L219.388 41.8822L219.647 42.0944L220.142 42.246L222.005 42.428L222.382 42.5493L222.712 42.6705L223.608 43.1254L224.268 43.3377L227.922 44.0048L228.252 44.1261L228.535 44.3687L228.818 44.7629L229.808 46.9765L230.02 47.2191L230.327 47.4617L230.892 47.7042L231.364 47.7649L232.212 47.7952L232.613 47.8558L232.943 47.9772L233.226 48.1288L233.533 48.4623L233.839 48.9475L234.263 50.0088L234.265 50.0213L234.381 50.312L234.452 50.8579L234.311 51.1914L234.028 51.3127L232.118 51.8888L231.411 52.0405L231.104 52.1618L230.892 52.3134L230.798 52.556L230.727 52.8289L230.798 54.436L230.704 54.6786L230.562 54.8909L230.091 55.3457L229.926 55.558L229.761 55.8309L229.407 56.6799L229.242 56.9225L229.03 57.1044L228.747 57.2561L228.111 57.4683L227.568 57.7716L227.144 58.1961L226.979 58.4387L226.79 58.6509L226.531 58.8025L226.177 58.8935L225.8 58.9542L223.773 59.0451L223.396 59.1058L223.089 59.1968L222.806 59.3787L222.594 59.5303L222.429 59.7426L222.406 59.9852V60.2277L222.561 60.7841L222.665 60.9555L222.995 61.1678L223.749 61.3194H224.221L224.622 61.2284L224.928 61.1375L224.339 61.6226L224.74 61.5317L225.046 61.4407L224.651 61.766L225.659 62.2291L225.45 62.3821L225.777 62.5323L222.035 65.2688L222.15 65.2958L223.918 65.3867L224.366 65.5384L224.743 65.8416L225.191 66.4177L225.592 67.0849L225.757 67.57L225.781 67.8126L225.757 68.0855L225.663 68.3281L225.474 68.5403L224.791 69.0862L224.414 69.5107L224.296 69.7836L224.248 70.0262L224.279 70.2049L224.296 70.2384L224.437 70.4507L224.767 70.8449L226.7 72.634L226.865 72.8766L227.007 73.1495L227.172 73.3617L227.407 73.574L227.785 73.7256L228.492 73.7863L231.061 73.6347L234.598 73.7256L234.998 73.8469L235.281 74.0592L235.307 74.2935L235.399 74.3624L235.446 74.7869L235.305 75.0902L235.069 75.3024L234.833 75.454L234.598 75.636L234.503 75.8482V76.0909L234.527 76.667L232.368 77.9698L230.461 80.751L216.149 84.7198L211.836 87.0948L210.305 89.876L197.493 89.126L198.649 94.1573L196.243 97.9073L186.805 100.938L182.93 98.9385L188.18 94.4698L194.961 89.6885L180.243 87.501L174.43 90.376L172.055 88.4385L170.493 85.376L165.18 90.9385L165.618 88.626L151.493 86.876L139.993 84.501L131.493 86.876L147.18 97.4385L158.805 95.251L165.43 100.001L161.828 100.698L149.947 100.395L143.511 97.1808L130.687 97.757L127.743 98.5948L127.149 97.3448L128.961 94.8135L126.899 91.4073L123.243 95.4073L107.618 93.0948L99.8364 86.1885L89.9614 91.4385L73.9927 92.876L68.1489 92.4073L61.8052 93.8448H56.6177L52.6177 95.0948L49.1177 95.376L28.7739 91.3135L25.3364 87.0948L12.5552 83.6573L0.117676 82.6885L9.33643 78.5323L16.5864 71.8135L7.64893 70.9385L1.30518 69.2823L13.5864 68.5635L32.8364 69.376L38.5552 70.3448L42.5239 69.8448L21.6802 60.5948L19.6021 60.7382L20.8751 60.3743L21.3937 60.0711L21.8651 59.7072L22.0773 59.5253L22.7845 58.5852L23.4918 57.2814L23.6804 56.9478L23.9633 56.6446L24.5526 56.2504L25.0005 56.0685L25.472 55.9472L26.4622 55.8259H27.2873L31.6484 56.7962L33.5815 56.8872L34.1709 56.7962L34.5481 56.6143L34.7367 56.3717L35.5618 54.6432L35.8447 54.3097L36.4105 53.8852L36.9527 53.6729L39.428 53.2181L41.031 53.0968L41.4318 53.1271L41.7618 53.2181L41.9976 53.4L42.3276 53.8245L42.4691 54.0368L42.9406 54.1884L43.6949 54.2793L46.3116 54.1277L46.901 54.0065L47.2782 53.7942L47.4669 53.6426L47.6554 53.4606L47.7733 53.1877L47.8428 52.942L47.8676 52.8541L47.8912 52.5206L47.8676 51.4896L47.9627 51.2205L47.9619 51.1864L48.0797 50.8528L48.3862 50.7619H48.7634L49.0935 50.8832L49.3056 51.0348L49.5649 51.1864L49.9421 51.3077L50.5787 51.338L50.8616 51.4896L51.4273 51.6109L52.1817 51.7322L55.1049 51.6109L55.7413 51.7019L55.9771 51.8535L56.2599 52.0051L56.6372 52.1264L58.3345 52.46L58.6646 52.6116L58.924 52.7632L59.136 52.9451L59.6547 53.5516L59.8669 53.7336L60.3619 54.0368L60.6448 54.1581L60.857 54.1884H61.6585L65.6426 53.7942L69.2966 53.8548L69.7681 53.7942L70.0746 53.6729L70.3339 53.5213L76.0859 52.0961L77.3826 51.6412L77.7891 51.4249L77.524 51.3986L76.7697 51.429L76.3925 51.3986L75.7088 51.156L75.2137 51.0348L71.2062 51.338L69.4381 51.2774L68.8723 51.156L68.5658 51.0651L68.2829 50.9438L68.0471 50.7922L67.9529 50.5496L67.9764 50.2767L68.0506 50.2068L68.0708 49.9734L68.4243 49.6399L68.7544 49.4883L75.9917 48.6089L76.746 48.3966L78.3492 47.1837L79.2686 46.7895L82.286 46.2134L83.064 45.9405L83.2685 45.7827L83.2526 45.7282L83.064 45.5462L82.8518 45.3947L82.5925 45.3037L82.2625 45.243L79.6221 45.2734L79.2449 45.243L78.962 45.1217L78.7499 44.9398L78.6084 44.7276L78.5141 44.4849L78.3963 43.9695L78.3492 43.1507L78.4465 42.9003L78.4434 42.8475L78.5613 42.5442L78.8206 42.1804L79.5986 41.6952L80.0229 41.5436L80.2822 41.483L80.3765 41.5436L80.7065 41.7558L81.1073 42.1501L81.5789 42.4836L82.0739 42.7565L84.0778 43.5752V43.3327L84.1721 43.1204V43.0294L84.2663 42.8172L84.3606 42.6655L84.5492 42.4836L85.8458 41.4526L86.4587 40.8158L86.6178 40.6111L86.6002 40.4519L86.4351 40.2397L82.9461 38.2384L78.6084 36.6009L78.2313 36.5402H77.8306L76.6989 36.6615L76.3217 36.6312L76.0625 36.5099L75.8974 36.2976L75.8031 35.6912L75.6853 35.3273L75.5673 35.1151L75.4966 34.9028L75.4731 34.6602L75.5673 34.3873L75.5699 34.3834L75.5673 34.357L75.6616 34.0841L75.8031 33.8718L77.0762 32.6892L78.8913 30.0511L79.5279 28.8685L79.8815 28.4743L80.235 28.3833L80.5179 28.4439L81.3431 29.111L81.5553 29.1717H83.2762L84.3606 29.0201L84.8792 28.8685L85.2799 28.6562L87.3781 26.9581L87.826 26.7761L88.2267 26.6852L88.6039 26.7458L89.547 27.0794L89.9713 27.14L90.983 28.5269L91.313 28.3753L91.478 28.1327L91.5723 27.8294L91.6902 27.5262L92.0127 27.087L91.8788 26.8288L89.8062 23.6528L89.3819 23.0464L89.264 22.8038L89.1698 22.5612L89.1226 22.2883V22.0154L89.2169 21.4393L89.2941 21.2408L89.3112 21.136L89.6412 20.2869L90.7472 20.3396L90.8437 20.0448L90.8651 19.8241L90.8887 19.6422L90.8179 19.248L90.6529 18.7628L90.5351 18.5505L90.7854 18.5719L90.7472 18.4596L90.6294 18.2473L91.5154 18.323L91.4308 18.2776L91.2186 18.0654L91.0536 17.8531L90.9122 17.6408L90.7943 17.4286L90.7472 17.2467L90.8599 17.0146L90.8414 16.9434L90.9594 16.7008L91.1951 16.3369L92.3267 15.306L92.5231 15.028L92.6095 14.6388L92.667 14.5016L92.7039 14.3356L92.8689 13.9414L93.1518 13.8504L93.3639 13.8807L93.5761 14.0627L94.3541 15.124L94.8019 16.0034L94.9434 16.2156L95.1791 16.3673L95.5563 16.4279L95.9806 16.4582L97.3951 16.3673L98.0317 16.2156L98.3381 16.0034L98.3617 15.9487V15.7911L98.2673 15.5485L97.9844 15.124L97.7959 14.9117L97.6544 14.6691L97.5601 14.4266L97.5366 14.184V13.8807L97.6309 13.8415V13.5775L107.985 9.27028L108.047 8.95105L108.07 8.67813L108.023 8.43555L107.952 8.2233L107.858 8.07169L107.622 7.76843L107.457 7.58646L107.057 7.01035L106.962 6.85874V6.7981L106.915 6.67679L106.892 6.46454L106.986 6.19162L106.989 6.18708L106.986 6.16129L107.08 5.88837L107.387 5.40323L107.422 5.33109L107.504 5.16065L107.528 4.88773L107.434 4.67545L107.269 4.4632L106.821 4.15998L105.713 3.5838L105.454 3.43222L105.289 3.25025L105.171 3.00769L105.123 2.76508L105.053 2.21927L105.076 1.40055L105.194 0.794068L110.828 1.70377L111.182 1.82508L112.266 2.43152L112.927 2.70444L118.372 3.34125L119.598 3.61414L120.329 3.85672L120.612 4.28128L120.895 4.9787L121.036 5.19095L121.201 5.40323L121.413 5.61548L121.908 5.94904L122.616 6.34323L123.441 6.64649L123.889 6.67679L124.36 6.64649L124.832 6.46454L125.02 6.34323L125.091 6.28256L125.115 6.04004L125.162 5.82773L125.28 5.61548L125.468 5.43353L125.727 5.28192L126.057 5.22125L133.837 4.03867L134.45 3.82642L134.709 3.67481L134.921 3.4625L134.963 3.37592L134.945 3.28058L134.803 2.79544L134.756 2.55283L134.803 2.34058L134.884 2.25208L134.874 2.21927L134.827 1.97666L134.874 1.76441L135.039 1.58249L135.275 1.49152L135.699 1.37024L140.037 0.703125L140.509 0.763764L140.98 0.885041L141.569 1.2186L141.876 1.49152L142.017 1.7341V1.94635L141.876 2.15863L141.865 2.17098L141.946 2.31024V2.52252L141.805 2.73477L141.263 3.37155Z" fill="#1C4587"/>
<defs>
<linearGradient id="paint0_linear" x1="-61.3979" y1="-5.81453" x2="122.81" y2="58.0697" gradientUnits="userSpaceOnUse">
<stop stop-color="#3A90B6"/>
<stop offset="1" stop-color="#075F92"/>
</linearGradient>
</defs>
</svg>
