<svg width="203" height="189" viewBox="0 0 203 189" fill="none" xmlns="http://www.w3.org/2000/svg">
<path opacity="0.1" d="M192.178 104.207L192.083 104.328L192.366 104.571L192.791 104.874L197.01 106.512L196.929 106.665L195.36 109.605L194.299 110.636L194.04 110.848L193.946 111.06L194.063 111.333L194.276 111.545L194.441 111.758L194.488 111.97L194.276 112.364L194.111 112.607L192.319 114.335L192.281 114.326L192.124 114.289L191.423 114.123L190.787 113.85L190.103 113.607L189.679 113.516L188.783 113.456L188.382 113.486L187.746 113.638L187.392 113.82L187.062 114.062L186.308 114.669L185.978 115.063L185.817 115.338L185.765 115.487L185.742 115.76V116.003L185.789 116.215L185.883 116.336L186.001 116.488L186.378 116.852L186.614 117.004L187.038 117.367L187.203 117.58L187.298 117.822L187.321 118.095L187.274 118.368L187.192 118.509L187.18 118.58L187.038 118.823L186.661 119.247L186.237 119.642L184.752 120.673L184.375 120.824L183.903 120.946L183.054 121.037L182.559 120.976L181.852 120.794L181.569 120.855L181.263 121.249L180.933 121.886L180.603 122.371L180.108 122.674L177.939 123.766L177.349 124.16L177.204 124.363L177.279 124.554L177.797 125.433L177.892 125.646L177.939 125.919L177.986 126.464L178.104 126.98L178.269 127.465L178.764 128.344L178.952 128.799L178.929 129.072L178.835 129.345L178.809 129.359L178.74 129.557L178.339 129.77L177.75 129.982L175.039 130.558L174.709 130.679L174.403 130.861L174.235 131.1L174.214 131.165L174.285 131.407L174.379 131.65L174.497 132.135L174.52 132.681L174.497 133.227L174.332 133.833L174.268 133.934L174.238 134.045L173.931 134.53L173.294 135.501L171.526 137.017L171.376 137.211L171.362 137.26L171.432 138.018L171.409 138.29L171.345 138.422L171.338 138.503L171.22 138.745L171.008 138.958L169.782 139.807L169.028 140.595L168.344 141.565L168.014 141.929L167.802 141.99L167.378 142.081L160.729 141.293L160.423 141.141L160.234 140.959L160.164 140.686L160.234 139.291L160.211 139.018L160.093 138.776L159.881 138.624L159.551 138.503L159.174 138.533L158.844 138.654L158.631 138.988L158.537 139.473L158.372 140.049L158.343 140.118L158.301 140.262L158.184 140.534L158.018 140.777L157.806 140.959L157.429 141.111L156.934 141.232L156.015 141.262L155.496 141.202L155.119 141.05L154.859 140.898L154.577 140.777L154.199 140.747L153.846 140.868L153.492 141.262L153.314 141.577L153.186 141.99L153.173 142.017L153.115 142.202L152.997 142.445L152.832 142.566L152.62 142.596L152.243 142.475L152.031 142.293L151.653 141.96L151.135 141.565L150.97 141.383L150.875 141.141L150.805 140.625L150.71 140.383L150.569 140.171L150.31 140.019L150.027 139.867L149.767 139.716L149.579 139.503L149.414 139.321L149.296 139.109L149.202 138.867L149.178 138.533L149.084 138.29L148.872 138.109L148.612 137.987L148.212 137.927H147.881L147.339 137.987L146.113 138.29L145.335 138.351H142.766L141.988 138.412L141.304 138.563L135.882 141.05L133.407 141.232L132.983 141.353L132.582 141.596L132.063 142.051L131.403 142.93L131.167 143.112L130.46 143.658L130.295 143.87L130.258 143.98L130.366 144.173L130.602 144.325L131.215 144.598L131.474 144.749L131.662 144.962L131.639 145.083L131.615 145.204L131.592 145.326L131.474 145.568L130.672 146.629L130.602 146.751L130.507 146.993L130.484 147.115L130.507 147.357L130.672 147.539L130.908 147.721L131.191 147.873L131.403 148.055L131.521 148.297V148.57L131.497 148.665V148.691L130.884 151.178L130.719 151.451L129.729 152.512L129.588 152.785L129.545 152.931L129.588 153.149L129.871 153.573L129.989 153.816L130.012 154.059L129.965 154.332L129.961 154.338L129.941 154.453L129.8 154.695L129.069 155.605L128.197 157.152L127.985 157.394L127.113 157.91L126.83 158.183L126.659 158.429L126.617 159.153L126.665 159.426L126.783 159.668L126.995 159.82L127.325 159.941L128.15 160.093L128.456 160.214L128.668 160.396L128.763 160.639L128.81 160.912L128.833 161.185L128.739 162.034L128.716 162.154V162.155L128.692 162.276L128.668 162.398L128.574 162.549L128.173 162.822L125.981 163.823L125.344 164.217L124.92 164.581L123.765 166.43L123.482 166.794L123.294 166.976L123.081 167.037L120.135 168.492L119.71 168.765L119.309 169.129L117.541 170.191L116.834 170.736L116.174 171.313L115.82 171.525L114.547 172.162L114.147 172.465L113.84 172.738L112.143 174.709L112.001 174.982L111.907 175.255L111.884 175.527L111.931 176.346L111.907 176.649L111.624 176.953L111.106 177.256L110.139 177.135L109.715 176.953L109.432 176.71L109.361 176.619L109.267 176.498L109.266 176.497L109.078 176.286L108.748 176.164L108.3 176.195L107.593 176.437L106.886 176.953L106.461 177.104L105.731 177.135L104.623 176.801L104.198 176.74L103.538 177.013L103.161 177.226L102.383 177.832L102.124 177.953L99.79 178.378L98.4934 178.863L98.1634 178.924L97.7862 178.893L97.409 178.711L97.1498 178.499L95.7589 176.892L95.5231 176.71L95.2402 176.558L94.7687 176.528L94.1322 176.589L93.0949 176.801L92.2227 176.71L91.7276 176.589L91.1618 176.255L90.9026 176.164L90.6197 176.195L90.3132 176.437L89.3702 177.65L88.9458 178.075L88.6866 178.196H88.3565L86.3763 177.438L86.0463 177.377H85.6691L84.8675 177.862L84.4903 177.984L82.133 178.53H81.6615L81.3314 178.317L81.1192 178.105L81.076 178.041L81.0485 178.014L80.9306 177.953L80.5534 177.559L80.3412 177.408L79.7991 177.074L79.4925 176.953L79.1155 176.862L78.7146 176.801H78.2195L77.7009 176.892L77.0173 177.226L76.6637 177.499L76.4515 177.771L76.255 178.305L76.1686 178.833V179.379L76.145 179.651L76.1254 179.697L76.1214 179.742L76.0036 180.015L75.5793 180.804L74.1883 184.594L73.9762 184.837L73.599 184.988L72.9861 184.958L72.2788 184.715L72.0195 184.443L71.9252 184.139L71.9488 183.866L71.9724 183.593L71.9016 183.412L71.6659 183.29L71.3359 183.199L58.8887 181.41L58.535 181.289L58.2993 181.107L58.205 180.895V180.652L58.2286 180.598V180.561L58.3464 180.288L58.6764 179.833L59.478 179.015L59.5454 178.863L59.5251 178.681L59.2658 178.56L57.7335 178.135L57.3327 178.075L56.932 178.166L56.1776 178.802L55.7061 179.166L54.716 179.47L54.2445 179.742L53.938 180.015L53.9171 180.204L53.9616 180.319L54.0794 180.47L54.5746 181.077L54.716 181.289L54.7867 181.501L54.7809 181.514L54.7867 181.531L54.716 181.744L54.4095 181.865L53.773 181.774L53.443 181.683L52.7593 181.41L52.3586 181.35L50.2369 181.228L49.7183 181.137L49.2467 181.107L48.7988 181.228L48.2095 181.592L47.408 182.35L46.9364 182.502L46.2057 182.562H43.8482L43.1175 182.684L41.5851 183.412L40.7129 183.715L40.4772 183.897L40.2885 184.139L39.9113 184.867L39.6992 185.201L39.0863 185.807L38.6148 186.141L37.5539 186.747L37.3417 186.929L37.1296 187.141L37.0353 187.384L37.0117 187.657L37.1532 188.415L36.9174 188.627L36.4459 188.779L34.6307 188.718L30.4345 188.93L29.2794 188.627L27.8413 187.93L27.3463 187.536L27.3076 187.482L27.2991 187.475L27.0162 187.081L26.9455 186.595L27.1105 186.353L27.3934 186.201L27.7235 186.11L28.0299 185.989L28.1612 185.792L27.912 185.595L27.6056 185.383L24.8387 184.81L24.8238 184.806L24.7865 184.748L24.2423 183.892L23.5036 183.684L22.4192 183.775L21.4527 183.745L21.0283 183.593L20.7926 183.442L20.7714 183.383L20.7219 183.351L20.5805 182.957L20.1674 182.399L18.9066 181.168L18.8661 181.106L18.8359 181.077L17.9564 179.742L17.6808 179.47L17.3979 179.288L17.0443 179.197L15.0405 178.954L14.3569 178.802L13.296 178.408L12.8717 178.105L12.8263 178.032L12.801 178.014L12.6123 177.711L12.5888 177.135L12.4473 176.771L12.1644 176.286L11.1743 175.012L11.1036 174.921L11.08 174.769L11.1036 174.284L11.1508 174.042L11.1743 173.92L11.245 173.769L11.3393 173.647L11.5043 173.496L11.7165 173.314L11.9522 173.162L15.512 171.707L15.7949 171.555L15.9835 171.343L16.1013 171.07L16.172 170.464L16.1956 169.523L15.9835 169.008L14.404 166.825L14.2154 166.4V166.127L14.3332 165.885L14.6397 165.824L14.899 165.703L15.3233 165.581L15.6299 165.46L15.842 165.339L16.0542 165.187L16.1485 165.066L16.2664 164.217V163.671L16.1485 163.368L15.9127 163.156L13.1074 162.185L12.7066 161.973L12.3294 161.7L11.7872 161.154L11.5279 160.79L11.3629 160.487L11.2686 159.699L11.3157 159.123L11.4101 158.85L11.5043 158.577L11.6222 158.334L11.6436 158.308L11.6458 158.304L12.408 157.383L12.4238 157.364L12.6123 157.091L12.7538 156.788L12.8481 156.303L12.7538 156.03L12.5652 155.787L12.0701 155.514L11.5751 155.363L8.13318 154.999L8.34537 153.968L8.5266 153.828L8.58105 153.786L8.95825 153.573L10.0236 153.253L10.2314 153.088L10.4435 152.755L10.5378 152.36L10.6321 151.784V151.42L10.5378 151.148L10.3256 150.996L9.97201 150.966H9.59476L7.99176 151.148H7.11948L6.2001 151.026L6.12936 150.875L6.22366 150.723L6.74231 150.329L7.14307 149.935L7.70886 149.298L7.92099 148.904L8.13318 148.418L8.43964 147.509L8.46326 147.024L8.41608 146.66L8.0625 146.175L7.85031 145.841L7.66168 145.235L7.80319 144.931L8.01532 144.689L8.12237 144.637L8.15674 144.598L8.72256 144.325L9.05258 144.264L9.42975 144.234L10.3021 144.295L10.7264 144.173L10.9894 144.025L11.4572 143.567L11.5478 143.526L11.5986 143.476L11.9994 143.294L12.2823 143.233L12.8952 143.294L13.2724 143.264L13.626 143.203L16.2192 142.02L18.5295 141.353L19.0243 141.141H19.0246L19.7318 140.686L19.8732 140.595L20.1797 140.474L21.2169 140.231L21.547 140.14L21.8063 139.989L22.0438 139.846L23.1736 138.897L23.6451 138.23L24.0459 137.896L24.158 137.83L24.1873 137.805L24.4938 137.623L26.4269 137.017L26.8938 136.788L28.3835 135.774L28.7843 135.319L29.02 134.925L28.9728 134.682L28.855 134.439L24.9652 130.134L24.8002 129.861L24.6824 129.588L24.7059 129.133L24.9181 128.83L25.366 128.526L25.5546 128.314L25.6018 128.163L24.7295 125.555L24.6353 124.918L24.6588 124.433L24.8002 124.16L25.0124 123.948L25.11 123.901L25.1539 123.857L25.3424 123.766L25.531 123.705L27.8885 123.371L28.3128 123.159L28.6605 122.958L29.2794 122.28L29.2557 121.977L29.0907 121.613L28.8078 121.218L28.8314 120.278L28.7371 119.793L28.5721 119.46L28.2892 119.308L27.3227 118.914L27.0634 118.732L26.8041 118.58L26.6155 118.398L26.4976 118.186L26.4033 117.944V117.701L26.474 116.791L26.5211 116.488V116.215L26.474 115.427L26.922 112.667L26.8512 112.031L26.6155 111.667L25.8139 111.454L25.4839 111.333L25.2481 111.181L25.0596 111L24.4702 110.272L23.6687 108.968L23.5036 108.756L23.2915 108.574L22.985 108.422L22.5842 108.361L22.1364 108.301L21.3113 108.331L20.9576 108.149L20.6512 107.755L20.4862 106.633L19.6139 105.177L19.2367 103.206L19.001 102.903L18.8359 102.721L18.6709 102.509L18.4823 102.327L18.3173 102.145L17.4923 101.417L16.95 101.084L16.6199 100.963L16.2192 100.902L13.2724 100.932L12.8952 100.963L10.1842 101.66L9.80694 101.69L9.40619 101.66L8.98187 101.478L8.55749 100.932L8.53393 100.629L8.72256 100.417L10.3021 100.326L10.6792 100.295L10.9857 100.144L11.1979 99.9315L11.4336 99.6283L11.3865 99.416L11.1508 99.2644L10.0899 98.8398L9.80694 98.5669L9.78339 98.3243L9.92483 98.1121L10.2077 97.9908H10.5614L11.7872 98.2031L12.188 98.1727L12.4945 98.0817L12.7538 97.9301L12.966 97.7179L13.131 97.4753L13.791 96.1107L13.8854 95.7772L13.8964 95.6773L13.8854 95.6559L13.8146 95.5346L13.6968 95.383L13.4846 95.201L12.7538 94.8978L12.4002 94.6552L12.1173 94.1397L12.1318 94.0273L12.0937 93.9578L12.1408 93.5939L12.3766 93.4423L13.2017 93.3816L13.5317 93.2907L13.7675 93.1087L13.9089 92.9268L14.6397 91.6229L14.9899 90.8423L14.9698 90.7132L14.7576 90.5009L13.5789 89.9248L13.2724 89.7125L13.0131 89.4699L12.7302 89.0757V88.9266L12.7066 88.8938V88.5906L12.801 88.348L13.5082 87.408L14.1682 86.6499L16.172 84.7698L16.8793 83.8298L17.0914 83.6176L17.3272 83.4659L19.5196 82.7079L19.8496 82.4956L20.2033 82.162L20.6276 81.5252L20.7455 81.131V80.9147L19.8968 78.5839L19.6846 77.6135L19.496 77.1284L19.3782 76.8858L19.1896 76.6735L18.6945 76.34L17.9401 76.1277L17.0443 76.0064L14.4746 76.2187L14.1918 76.158L13.8618 75.9761L13.7675 75.7335L13.7753 75.6324L13.7439 75.5516L13.7675 75.2483L15.2527 70.336L15.2358 69.9894L15.1348 69.7295L14.9462 69.5476L13.3431 68.3043L9.66553 64.3926L9.42975 64.2107L9.12332 64.0894L8.74612 64.059L8.34537 63.9074L7.9682 63.5435L7.6853 62.6035L7.69639 62.5369L7.66168 62.4216L7.73242 61.997L8.03888 61.7848H10.2077L10.6321 61.8454L10.9857 61.9364L11.5279 62.2396L11.7872 62.3913L12.0937 62.4822H12.4002L12.7066 62.0577L12.7538 61.5119L12.5888 59.9048V59.4196L12.6595 58.9951L12.7302 58.6615L12.8717 58.3583L13.2488 57.9337L14.1918 57.0544L14.4983 56.5995L14.5455 56.2659L14.5337 56.1143L14.4511 55.9021L14.3097 55.6898L14.1447 55.4776L13.6732 55.144L13.4138 54.9621L12.7302 54.6892L11.1036 54.3253L10.7736 54.204L10.5143 54.0524L10.3964 53.8401L10.2314 53.3549L10.1135 53.1123L9.99557 52.9001L9.99086 52.894L9.92483 52.8698L9.75976 52.6575L9.35901 52.2633L7.26092 50.9897L6.09991 50.4727L5.37503 50.2923L5.02133 50.2316L4.7149 50.2923L4.47916 50.4439L3.0647 51.9297L2.85251 52.0813L2.64038 52.142L2.59618 52.1041L2.49896 52.0207L2.35745 51.8388L2.12176 51.3839L1.81525 50.4136L1.22595 46.7748L0.0708008 43.7424L0.165039 43.4695L0.471558 43.3482L1.29663 43.3179L2.02743 43.1966L3.34766 42.8024L5.51648 41.8018L6.41223 41.2863L7.28448 40.5282L8.01532 39.6185L8.20395 39.0727L8.36893 38.2539L6.03509 32.5L8.36893 27.5L22.3746 28.5L44.8746 26L63.8746 31L67.3746 38.2236L72.8746 39.5882V41.8862H79.8546L79.8309 41.9469L80.0196 42.523L79.9724 42.7656L79.7838 42.9475L79.4774 43.0385L79.1002 43.0992L79.0635 43.0975L79.0531 43.0992L77.77 43.0402L77.4264 43.0992L77.167 43.2508L77.0728 43.554L77.167 43.9482L77.945 45.3431L81.2611 46.4861L85.8577 48.0483L85.8609 48.0716L85.8813 48.0787L85.952 48.5942L85.9049 49.1703L84.6318 53.0214L84.5644 53.3858L84.5375 53.6278L84.2546 57.9034L84.514 60.0261L84.6083 60.2383L84.8204 60.4506L85.1504 60.6022H85.8813L86.282 60.4809L86.6356 60.299L86.8713 60.117L87.1778 59.9957L87.5079 59.9654L87.885 60.0564L88.333 60.2383L89.1345 60.6932L89.9831 60.8448L90.5725 60.8751L90.9969 60.8448L91.539 60.9357L92.2227 61.1783L93.8965 62.2093L94.2265 62.5125L94.3915 62.7248L94.5566 62.9371L94.6509 63.1797L94.8159 63.6648L94.8394 63.9377L94.863 64.2107L94.7923 64.7868L94.4858 66.03L94.0614 67.2127L93.9908 67.5159L93.9436 67.8191V68.092L93.9908 68.3649L94.0851 68.6075L94.2087 68.793L94.6509 69.0624L95.3346 69.305L99.0356 70.2147L99.6722 70.4572L101.912 71.6095L102.501 72.0037L102.784 72.2766L102.76 72.5192L102.383 73.9748L102.171 74.5509L101.723 75.3393L101.063 76.3097L100.096 77.371L99.9314 77.6135L99.8136 77.8864L99.79 78.129L100.002 78.3413L100.403 78.4626L101.157 78.4929L103.161 78.129L103.656 78.1897L104.246 78.3716L105.047 78.7961L105.424 79.0994L105.872 79.5542L106.179 79.7058L106.603 79.7968L107.216 79.7362L107.57 79.5542L107.829 79.342L108.394 78.6749L108.677 78.5232L109.031 78.4626L112.308 79.0387L113.109 79.0691L113.652 79.0084L114.713 78.3716L115.373 78.1897L116.221 78.1594L119.946 78.4019L120.771 78.3716L121.502 78.2503L121.808 78.129L122.633 77.7045L122.94 77.5832L123.27 77.4922H123.671L124.071 77.6135L124.449 77.7955L124.661 78.1897L124.92 78.4929L125.203 78.7961L125.745 79.1297L125.84 79.4026L125.769 79.6452L125.627 79.9181L125.533 80.1607L125.509 80.4336L125.722 80.6762L126.146 80.8581L127.065 80.9794L128.197 81.0098L128.574 81.0704L128.857 81.222L128.951 81.5859L128.904 82.162L129.022 82.344L129.116 82.4653L130.696 83.3143L131.662 83.9814L132.063 84.3453L132.346 84.7698L132.605 85.2247L132.983 86.1344L133.171 86.8925V87.1654L133.124 87.4383L133.006 87.7112L132.7 88.1964L132.511 88.439L132.299 88.6209L132.273 88.633L132.252 88.6512L131.992 88.7725L131.662 88.8332L130.955 88.8028L130.721 88.8575L130.554 89.0454L130.342 89.6216L130.295 89.9248L130.342 90.1674L130.531 90.3493L130.743 90.5313L132.747 91.8352L133.1 91.9868L133.548 92.1081L134.916 92.0778L135.411 92.1384L135.788 92.2597L136.047 92.6539L136.094 92.9571L136.024 93.6242L136 93.8971L136.094 94.1094L136.259 94.2913L136.471 94.4733L136.707 94.6552L136.967 94.8068L137.344 94.9281L137.792 94.9888L138.546 95.0191L139.112 95.1404L139.795 95.4436L140.173 95.5649L140.644 95.6862L141.399 95.5649L141.846 95.4436L142.2 95.292L143.12 95.2617L144.534 95.3527L149.98 96.2017L150.71 95.8075L151.394 95.2617L151.677 95.1101L151.983 94.9888L152.313 94.9585H152.596L156.816 95.5649H157.24L157.57 95.474L157.853 95.3527L158.396 95.0494L158.726 94.9281L159.103 94.8978L160.022 94.9281L160.423 94.8978L160.753 94.8068L161.012 94.6249L161.672 94.0488L161.908 93.8971L162.191 93.7455L162.545 93.6849L163.346 93.5939L163.676 93.5029L163.936 93.3513L164.407 92.9571L164.879 92.6236L165.138 92.4719L165.468 92.381L165.845 92.3203H166.269L169.051 92.4719L169.452 92.4416L169.782 92.3507L170.041 92.199L170.253 92.0171L170.574 91.7195L170.701 91.5319L170.821 91.4118L170.843 91.3803L171.055 91.1681L171.362 91.0468L171.974 90.8345L172.08 90.7739L172.116 90.6829L172.092 90.4403L172.045 90.228L172.069 89.9855L172.187 89.7732L172.302 89.6683L172.328 89.6216L172.587 89.4093L172.729 89.197L172.776 88.9545V88.6816L172.823 88.439L172.965 88.2267L173.2 88.0751L173.507 87.9538L174.898 87.6506L176.454 87.4989L177.066 87.6809L177.821 88.0144L179.825 89.2577L180.72 89.6519L183.196 91.8048L183.879 92.29L184.445 92.5932L184.846 92.6842L185.695 92.7449L188.618 92.7145L189.042 92.9268L189.349 93.321L189.561 94.2913L189.56 94.3135L189.608 94.5339L189.561 95.5043L189.49 95.7772L189.349 96.0198L189.16 96.1714L188.877 96.2927L188.83 96.323H188.712L187.274 96.1411L187.062 96.1714L186.85 96.232L186.732 96.2927L186.638 96.3533L185.883 97.0205L185.482 97.445L185.365 97.7179L185.379 97.918L185.6 98.2031L187.251 99.1128L187.486 99.2644L187.722 99.507L187.887 99.9618L187.891 99.9902L187.958 100.174L188.005 100.508L187.981 100.841L188.005 101.084L188.019 101.132L188.146 101.296L188.288 101.478L188.618 101.69L189.113 101.933L190.197 102.236L190.81 102.327H191.329L192.107 102.266L192.956 102.327L193.262 102.448L193.474 102.63V102.782L193.545 102.843V103.146L193.38 103.358L193.144 103.54L192.885 103.692L192.39 104.025L192.178 104.207Z" fill="#333333"/>
<path d="M202 80.5V92L200 97L197 99L194 98L192 97.5L191.5 100.5L188 103H187L186 109H185.5L182.5 114L180.812 113H180L177 122L175 124H173.5L173 127L165 126L164 125L162.5 126H161L160 125H159L158 127H157L156 126L153 123L151 123.5H147L141 126H138L137.5 128V129.25L137 130L136.5 133L135 136L134 146L131.5 148C130.667 149.5 129 152.4 129 152L119 160L116.5 162H114.5L113 161L111 162H110L109 160.5L108 161L107 163L103 164H102L100 161L98 162H97H96.5L96 161L94 163H93L91 162L87 163H86L83.5 161H82L80.5 165L79 170H78L77 168L63 166H62L61.5 163H60.5L60 167L55 166L52 167L48.5 166L45.5 167L42 173H35L32 172L30 169L28 168H26L22 164L19 163H17L16 160V148.5H18.5L19 152L22 152.5L26 156L28 156.5L30 157.5H34.5L35 160L42 158.5L52 153.5L57 152C58.8333 151.833 62.6 151.5 63 151.5H66L64 153.5L77 156L78 156.5H79L80.5 154L82 149.188H83.5L86 151L87 152L91 151L93 151.5L94 151L96 149.5L97 150L98 150.5L100 149.5L102 151.5H103L107 150.5L109 150H110L111 149.5H113L114.5 146.5L116.5 144L127.5 139L129.5 136L133.523 135.5L133.5 135L128.5 133.5L129 126.5L132.5 117.5L138 115L141 114.5L147 111.5L151 111L153 110.5L156 113.5H157L158 113L159 112.5H160L162.5 113.5L164.5 110.5L165.5 113H173.5H175.667L175 108.5L178 106V103L181.319 103.5L180.812 99L182 97.5L186 93.5L187 92.5H187.5L190.5 89.5L192 87H194H197L198 84L202 80.5Z" fill="#0B2856"/>
<path d="M19 147V144H16L13 139.5L11 136.5V125L18.5 124L22 127.25L24.4372 134.493L24.5 134.5L24.5297 134.768L25 139L26.5 144H23.8375C23.6 144.833 23.25 145.833 23 146.5L19 147Z" fill="#0B2856"/>
<path d="M13 123V119.25H13.5L14.5 121.5L13 123Z" fill="url(#paint0_linear)"/>
<path d="M34.5 110.5L28.5 113V105H25.5V95L26.5 92.5L24 92L21.5 91L20.3 87.75L17.5 86H13.5V75L16.5 74.5L15 74.3125V72.5L17.5 73L16.5 74.5C17.1667 74 18.7 73 19.5 73H23.5C24 73 28.5 77 29.5 77.5C30.3 77.9 34.1667 79.3333 36 80L39 92.5L36.573 95.0787L37 97L34.3032 97.4903L32.8824 99H35V104.5L36 106.5L34.5 110.5Z" fill="#0B2856"/>
<path d="M5 28V18H5.5L8.5 19L8 25L10 23L13.386 24.5391L15.5 25.5L15.9685 26.1441L22 28L23.5 36.5L18 39L25 43L22.4492 48.6117L30 49.5V55L28 61.5H18.5V52.8L17.5 52L12.5 47V36.5L12.6148 34.9508L10 34L8 35L5 28Z" fill="#0B2856"/>
<path d="M17.5 68V63L22.5 63.5L21.5 68H17.5Z" fill="#0B2856"/>
<path d="M17 72.5V68L19.5 69L20 70L19.5 71L17 72.5Z" fill="#0B2856"/>
<path d="M11 18V7C11.8333 7.5 13.8 8.6 15 9C16.5 9.5 15.5 12.5 15.5 15C15.5 17 12.5 17.8333 11 18Z" fill="#0B2856"/>
<path d="M85 20.5V16.5L80.5 17.5L79 20L79.5 22.5L85 20.5Z" fill="#0B2856"/>
<path d="M91 22.5H90L83 28C83.3333 29.6667 84.2 33.3 85 34.5C86 36 88 39 88.5 39C88.9 39 90.6667 36 91.5 34.5V24L91 22.5Z" fill="#0B2856"/>
<path d="M108 55.5V46L101 53.5L102.5 56.5L108 55.5Z" fill="#0B2856"/>
<path d="M100 45L99.5 38L98 39.5L97 44L100 45Z" fill="#0B2856"/>
<path d="M138 67.5V61L133 62L133.5 65.5L138 67.5Z" fill="#0B2856"/>
<path d="M194.5 77.5V68.5L187 72.5V76L194.5 77.5Z" fill="#0B2856"/>
<path d="M198.5 80.5V77H196C195.2 77 196.333 78.3333 197 79L198.5 80.5Z" fill="#0B2856"/>
<path d="M197.178 78.2071L197.083 78.3284L197.366 78.571L197.791 78.8742L202.01 80.5117L201.929 80.6648L200.36 83.6047L199.299 84.6357L199.04 84.8479L198.946 85.0602L199.063 85.3331L199.276 85.5454L199.441 85.7576L199.488 85.9699L199.276 86.3641L199.111 86.6067L197.319 88.3351L197.281 88.3261L197.124 88.2889L196.423 88.1228L195.787 87.8499L195.103 87.6074L194.679 87.5164L193.783 87.4557L193.382 87.4861L192.746 87.6377L192.392 87.8196L192.062 88.0622L191.308 88.6687L190.978 89.0629L190.817 89.3385L190.765 89.4874L190.742 89.7603V90.0029L190.789 90.2152L190.883 90.3364L191.001 90.4881L191.378 90.8519L191.614 91.0036L192.038 91.3674L192.203 91.5797L192.298 91.8223L192.321 92.0952L192.274 92.3681L192.192 92.5086L192.18 92.5804L192.038 92.8229L191.661 93.2475L191.237 93.6417L189.752 94.6727L189.375 94.8243L188.903 94.9456L188.054 95.0365L187.559 94.9759L186.852 94.794L186.569 94.8546L186.263 95.2488L185.933 95.8856L185.603 96.3708L185.108 96.674L182.939 97.7656L182.349 98.1598L182.204 98.3632L182.279 98.554L182.797 99.4334L182.892 99.6457L182.939 99.9186L182.986 100.464L183.104 100.98L183.269 101.465L183.764 102.344L183.952 102.799L183.929 103.072L183.835 103.345L183.809 103.359L183.74 103.557L183.339 103.77L182.75 103.982L180.039 104.558L179.709 104.679L179.403 104.861L179.235 105.1L179.214 105.165L179.285 105.407L179.379 105.65L179.497 106.135L179.52 106.681L179.497 107.227L179.332 107.833L179.268 107.934L179.238 108.045L178.931 108.53L178.294 109.501L176.526 111.017L176.376 111.211L176.362 111.26L176.432 112.018L176.409 112.29L176.345 112.422L176.338 112.503L176.22 112.745L176.008 112.958L174.782 113.807L174.028 114.595L173.344 115.565L173.014 115.929L172.802 115.99L172.378 116.081L165.729 115.293L165.423 115.141L165.234 114.959L165.164 114.686L165.234 113.291L165.211 113.018L165.093 112.776L164.881 112.624L164.551 112.503L164.174 112.533L163.844 112.654L163.631 112.988L163.537 113.473L163.372 114.049L163.343 114.118L163.301 114.262L163.184 114.534L163.018 114.777L162.806 114.959L162.429 115.111L161.934 115.232L161.015 115.262L160.496 115.202L160.119 115.05L159.859 114.898L159.577 114.777L159.199 114.747L158.846 114.868L158.492 115.262L158.314 115.577L158.186 115.99L158.173 116.017L158.115 116.202L157.997 116.445L157.832 116.566L157.62 116.596L157.243 116.475L157.031 116.293L156.653 115.96L156.135 115.565L155.97 115.383L155.875 115.141L155.805 114.625L155.71 114.383L155.569 114.171L155.31 114.019L155.027 113.867L154.767 113.716L154.579 113.503L154.414 113.321L154.296 113.109L154.202 112.867L154.178 112.533L154.084 112.29L153.872 112.109L153.612 111.987L153.212 111.927H152.881L152.339 111.987L151.113 112.29L150.335 112.351H147.766L146.988 112.412L146.304 112.563L140.882 115.05L138.407 115.232L137.983 115.353L137.582 115.596L137.063 116.051L136.403 116.93L136.167 117.112L135.46 117.658L135.295 117.87L135.258 117.98L135.366 118.173L135.602 118.325L136.215 118.598L136.474 118.749L136.662 118.962L136.639 119.083L136.615 119.204L136.592 119.326L136.474 119.568L135.672 120.629L135.602 120.751L135.507 120.993L135.484 121.115L135.507 121.357L135.672 121.539L135.908 121.721L136.191 121.873L136.403 122.055L136.521 122.297V122.57L136.497 122.665V122.691L135.884 125.178L135.719 125.451L134.729 126.512L134.588 126.785L134.545 126.931L134.588 127.149L134.871 127.573L134.989 127.816L135.012 128.059L134.965 128.332L134.961 128.338L134.941 128.453L134.8 128.695L134.069 129.605L133.197 131.152L132.985 131.394L132.113 131.91L131.83 132.183L131.659 132.429L131.617 133.153L131.665 133.426L131.783 133.668L131.995 133.82L132.325 133.941L133.15 134.093L133.456 134.214L133.668 134.396L133.763 134.639L133.81 134.912L133.833 135.185L133.739 136.034L133.716 136.154V136.155L133.692 136.276L133.668 136.398L133.574 136.549L133.173 136.822L130.981 137.823L130.344 138.217L129.92 138.581L128.765 140.43L128.482 140.794L128.294 140.976L128.081 141.037L125.135 142.492L124.71 142.765L124.309 143.129L122.541 144.191L121.834 144.736L121.174 145.313L120.82 145.525L119.547 146.162L119.147 146.465L118.84 146.738L117.143 148.709L117.001 148.982L116.907 149.255L116.884 149.527L116.931 150.346L116.907 150.649L116.624 150.953L116.106 151.256L115.139 151.135L114.715 150.953L114.432 150.71L114.361 150.619L114.267 150.498L114.266 150.497L114.078 150.286L113.748 150.164L113.3 150.195L112.593 150.437L111.886 150.953L111.461 151.104L110.731 151.135L109.623 150.801L109.198 150.74L108.538 151.013L108.161 151.226L107.383 151.832L107.124 151.953L104.79 152.378L103.493 152.863L103.163 152.924L102.786 152.893L102.409 152.711L102.15 152.499L100.759 150.892L100.523 150.71L100.24 150.558L99.7687 150.528L99.1322 150.589L98.0949 150.801L97.2227 150.71L96.7276 150.589L96.1618 150.255L95.9026 150.164L95.6197 150.195L95.3132 150.437L94.3702 151.65L93.9458 152.075L93.6866 152.196H93.3565L91.3763 151.438L91.0463 151.377H90.6691L89.8675 151.862L89.4903 151.984L87.133 152.53H86.6615L86.3314 152.317L86.1192 152.105L86.076 152.041L86.0485 152.014L85.9306 151.953L85.5534 151.559L85.3412 151.408L84.7991 151.074L84.4925 150.953L84.1155 150.862L83.7146 150.801H83.2195L82.7009 150.892L82.0173 151.226L81.6637 151.499L81.4515 151.771L81.255 152.305L81.1686 152.833V153.379L81.145 153.651L81.1254 153.697L81.1214 153.742L81.0036 154.015L80.5793 154.804L79.1883 158.594L78.9762 158.837L78.599 158.988L77.9861 158.958L77.2788 158.715L77.0195 158.443L76.9252 158.139L76.9488 157.866L76.9724 157.593L76.9016 157.412L76.6659 157.29L76.3359 157.199L63.8887 155.41L63.535 155.289L63.2993 155.107L63.205 154.895V154.652L63.2286 154.598V154.561L63.3464 154.288L63.6764 153.833L64.478 153.015L64.5454 152.863L64.5251 152.681L64.2658 152.56L62.7335 152.135L62.3327 152.075L61.932 152.166L61.1776 152.802L60.7061 153.166L59.716 153.47L59.2445 153.742L58.938 154.015L58.9171 154.204L58.9616 154.319L59.0794 154.47L59.5746 155.077L59.716 155.289L59.7867 155.501L59.7809 155.514L59.7867 155.531L59.716 155.744L59.4095 155.865L58.773 155.774L58.443 155.683L57.7593 155.41L57.3586 155.35L55.2369 155.228L54.7183 155.137L54.2467 155.107L53.7988 155.228L53.2095 155.592L52.408 156.35L51.9364 156.502L51.2057 156.562H48.8482L48.1175 156.684L46.5851 157.412L45.7129 157.715L45.4772 157.897L45.2885 158.139L44.9113 158.867L44.6992 159.201L44.0863 159.807L43.6148 160.141L42.5539 160.747L42.3417 160.929L42.1296 161.141L42.0353 161.384L42.0117 161.657L42.1532 162.415L41.9174 162.627L41.4459 162.779L39.6307 162.718L35.4345 162.93L34.2794 162.627L32.8413 161.93L32.3463 161.536L32.3076 161.482L32.2991 161.475L32.0162 161.081L31.9455 160.595L32.1105 160.353L32.3934 160.201L32.7235 160.11L33.0299 159.989L33.1612 159.792L32.912 159.595L32.6056 159.383L29.8387 158.81L29.8238 158.806L29.7865 158.748L29.2423 157.892L28.5036 157.684L27.4192 157.775L26.4527 157.745L26.0283 157.593L25.7926 157.442L25.7714 157.383L25.7219 157.351L25.5805 156.957L25.1674 156.399L23.9066 155.168L23.8661 155.106L23.8359 155.077L22.9564 153.742L22.6808 153.47L22.3979 153.288L22.0443 153.197L20.0405 152.954L19.3569 152.802L18.296 152.408L17.8717 152.105L17.8263 152.032L17.801 152.014L17.6123 151.711L17.5888 151.135L17.4473 150.771L17.1644 150.286L16.1743 149.012L16.1036 148.921L16.08 148.769L16.1036 148.284L16.1508 148.042L16.1743 147.92L16.245 147.769L16.3393 147.647L16.5043 147.496L16.7165 147.314L16.9522 147.162L20.512 145.707L20.7949 145.555L20.9835 145.343L21.1013 145.07L21.172 144.464L21.1956 143.523L20.9835 143.008L19.404 140.825L19.2154 140.4V140.127L19.3332 139.885L19.6397 139.824L19.899 139.703L20.3233 139.581L20.6299 139.46L20.842 139.339L21.0542 139.187L21.1485 139.066L21.2664 138.217V137.671L21.1485 137.368L20.9127 137.156L18.1074 136.185L17.7066 135.973L17.3294 135.7L16.7872 135.154L16.5279 134.79L16.3629 134.487L16.2686 133.699L16.3157 133.123L16.4101 132.85L16.5043 132.577L16.6222 132.334L16.6436 132.308L16.6458 132.304L17.408 131.383L17.4238 131.364L17.6123 131.091L17.7538 130.788L17.8481 130.303L17.7538 130.03L17.5652 129.787L17.0701 129.514L16.5751 129.363L13.1332 128.999L13.3454 127.968L13.5266 127.828L13.5811 127.786L13.9583 127.573L15.0236 127.253L15.2314 127.088L15.4435 126.755L15.5378 126.36L15.6321 125.784V125.42L15.5378 125.148L15.3256 124.996L14.9721 124.966H14.5948L12.9918 125.148H12.1195L11.2001 125.026L11.1294 124.875L11.2237 124.723L11.7423 124.329L12.1431 123.935L12.7089 123.298L12.921 122.904L13.1332 122.418L13.4397 121.509L13.4633 121.024L13.4161 120.66L13.0625 120.175L12.8504 119.841L12.6617 119.235L12.8032 118.931L13.0154 118.689L13.1224 118.637L13.1568 118.598L13.7226 118.325L14.0526 118.264L14.4298 118.234L15.3021 118.295L15.7264 118.173L15.9894 118.025L16.4572 117.567L16.5478 117.526L16.5986 117.476L16.9994 117.294L17.2823 117.233L17.8952 117.294L18.2724 117.264L18.626 117.203L21.2192 116.02L23.5295 115.353L24.0243 115.141H24.0246L24.7318 114.686L24.8732 114.595L25.1797 114.474L26.2169 114.231L26.547 114.14L26.8063 113.989L27.0438 113.846L28.1736 112.897L28.6451 112.23L29.0459 111.896L29.158 111.83L29.1873 111.805L29.4938 111.623L31.4269 111.017L31.8938 110.788L33.3835 109.774L33.7843 109.319L34.02 108.925L33.9728 108.682L33.855 108.439L29.9652 104.134L29.8002 103.861L29.6824 103.588L29.7059 103.133L29.9181 102.83L30.366 102.526L30.5546 102.314L30.6018 102.163L29.7295 99.5547L29.6353 98.9179L29.6588 98.4328L29.8002 98.1598L30.0124 97.9476L30.11 97.9005L30.1539 97.8566L30.3424 97.7656L30.531 97.705L32.8885 97.3714L33.3128 97.1592L33.6605 96.9579L34.2794 96.2798L34.2557 95.9766L34.0907 95.6127L33.8078 95.2185L33.8314 94.2785L33.7371 93.7933L33.5721 93.4597L33.2892 93.3081L32.3227 92.9139L32.0634 92.732L31.8041 92.5804L31.6155 92.3984L31.4976 92.1862L31.4033 91.9436V91.701L31.474 90.7913L31.5211 90.4881V90.2152L31.474 89.4267L31.922 86.6673L31.8512 86.0305L31.6155 85.6666L30.8139 85.4544L30.4839 85.3331L30.2481 85.1815L30.0596 84.9995L29.4702 84.2718L28.6687 82.9679L28.5036 82.7556L28.2915 82.5737L27.985 82.4221L27.5842 82.3614L27.1364 82.3008L26.3113 82.3311L25.9576 82.1491L25.6512 81.7549L25.4862 80.633L24.6139 79.1775L24.2367 77.2065L24.001 76.9032L23.8359 76.7213L23.6709 76.509L23.4823 76.3271L23.3173 76.1451L22.4923 75.4174L21.95 75.0838L21.6199 74.9625L21.2192 74.9019L18.2724 74.9322L17.8952 74.9625L15.1842 75.66L14.807 75.6903L14.4062 75.66L13.9819 75.478L13.5575 74.9322L13.534 74.629L13.7226 74.4167L15.3021 74.3257L15.6792 74.2954L15.9857 74.1438L16.1979 73.9315L16.4336 73.6283L16.3865 73.416L16.1508 73.2644L15.0899 72.8398L14.807 72.5669L14.7834 72.3243L14.9249 72.1121L15.2077 71.9908H15.5614L16.7872 72.2031L17.188 72.1727L17.4945 72.0817L17.7538 71.9301L17.966 71.7179L18.131 71.4753L18.791 70.1107L18.8854 69.7772L18.8964 69.6773L18.8854 69.6559L18.8146 69.5346L18.6968 69.383L18.4846 69.201L17.7538 68.8978L17.4002 68.6552L17.1173 68.1397L17.1318 68.0273L17.0937 67.9578L17.1408 67.5939L17.3766 67.4423L18.2017 67.3816L18.5317 67.2907L18.7675 67.1087L18.9089 66.9268L19.6397 65.6229L19.9899 64.8423L19.9698 64.7132L19.7576 64.5009L18.5789 63.9248L18.2724 63.7125L18.0131 63.4699L17.7302 63.0757V62.9266L17.7066 62.8938V62.5906L17.801 62.348L18.5082 61.408L19.1682 60.6499L21.172 58.7698L21.8793 57.8298L22.0914 57.6176L22.3272 57.4659L24.5196 56.7079L24.8496 56.4956L25.2033 56.162L25.6276 55.5252L25.7455 55.131V54.9147L24.8968 52.5839L24.6846 51.6135L24.496 51.1284L24.3782 50.8858L24.1896 50.6735L23.6945 50.34L22.9401 50.1277L22.0443 50.0064L19.4746 50.2187L19.1918 50.158L18.8618 49.9761L18.7675 49.7335L18.7753 49.6324L18.7439 49.5516L18.7675 49.2483L20.2527 44.336L20.2358 43.9894L20.1348 43.7295L19.9462 43.5476L18.3431 42.3043L14.6656 38.3926L14.4298 38.2107L14.1234 38.0894L13.7462 38.059L13.3454 37.9074L12.9682 37.5435L12.6853 36.6035L12.6964 36.5369L12.6617 36.4216L12.7325 35.997L13.0389 35.7848H15.2077L15.6321 35.8454L15.9857 35.9364L16.5279 36.2396L16.7872 36.3913L17.0937 36.4822H17.4002L17.7066 36.0577L17.7538 35.5119L17.5888 33.9048V33.4196L17.6595 32.9951L17.7302 32.6615L17.8717 32.3583L18.2488 31.9337L19.1918 31.0544L19.4983 30.5995L19.5455 30.2659L19.5337 30.1143L19.4511 29.9021L19.3097 29.6898L19.1447 29.4776L18.6732 29.144L18.4138 28.9621L17.7302 28.6892L16.1036 28.3253L15.7736 28.204L15.5143 28.0524L15.3964 27.8401L15.2314 27.3549L15.1135 27.1123L14.9956 26.9001L14.9909 26.894L14.9249 26.8698L14.7598 26.6575L14.359 26.2633L12.261 24.9897L11.0999 24.4727L10.3751 24.2923L10.0214 24.2316L9.7149 24.2923L9.47916 24.4439L8.0647 25.9297L7.85251 26.0813L7.64038 26.142L7.59618 26.1041L7.49896 26.0207L7.35745 25.8388L7.12176 25.3839L6.81525 24.4136L6.22595 20.7748L5.0708 17.7424L5.16504 17.4695L5.47156 17.3482L6.29663 17.3179L7.02743 17.1966L8.34766 16.8024L10.5165 15.8018L11.4123 15.2863L12.2845 14.5282L13.0154 13.6185L13.204 13.0727L13.369 12.2539L11.0351 6.5L13.369 1.5L27.3746 2.5L49.8746 0L68.8746 5L72.3746 12.2236L77.8746 13.5882V15.8862H84.8546L84.8309 15.9469L85.0196 16.523L84.9724 16.7656L84.7838 16.9475L84.4774 17.0385L84.1002 17.0992L84.0635 17.0975L84.0531 17.0992L82.77 17.0402L82.4264 17.0992L82.167 17.2508L82.0728 17.554L82.167 17.9482L82.945 19.3431L86.2611 20.4861L90.8577 22.0483L90.8609 22.0716L90.8813 22.0787L90.952 22.5942L90.9049 23.1703L89.6318 27.0214L89.5644 27.3858L89.5375 27.6278L89.2546 31.9034L89.514 34.0261L89.6083 34.2383L89.8204 34.4506L90.1504 34.6022H90.8813L91.282 34.4809L91.6356 34.299L91.8713 34.117L92.1778 33.9957L92.5079 33.9654L92.885 34.0564L93.333 34.2383L94.1345 34.6932L94.9831 34.8448L95.5725 34.8751L95.9969 34.8448L96.539 34.9357L97.2227 35.1783L98.8965 36.2093L99.2265 36.5125L99.3915 36.7248L99.5566 36.9371L99.6509 37.1797L99.8159 37.6648L99.8394 37.9377L99.863 38.2107L99.7923 38.7868L99.4858 40.03L99.0614 41.2127L98.9908 41.5159L98.9436 41.8191V42.092L98.9908 42.3649L99.0851 42.6075L99.2087 42.793L99.6509 43.0624L100.334 43.305L104.036 44.2147L104.672 44.4572L106.912 45.6095L107.501 46.0037L107.784 46.2766L107.76 46.5192L107.383 47.9748L107.171 48.5509L106.723 49.3393L106.063 50.3097L105.096 51.371L104.931 51.6135L104.814 51.8864L104.79 52.129L105.002 52.3413L105.403 52.4626L106.157 52.4929L108.161 52.129L108.656 52.1897L109.246 52.3716L110.047 52.7961L110.424 53.0994L110.872 53.5542L111.179 53.7058L111.603 53.7968L112.216 53.7362L112.57 53.5542L112.829 53.342L113.394 52.6749L113.677 52.5232L114.031 52.4626L117.308 53.0387L118.109 53.0691L118.652 53.0084L119.713 52.3716L120.373 52.1897L121.221 52.1594L124.946 52.4019L125.771 52.3716L126.502 52.2503L126.808 52.129L127.633 51.7045L127.94 51.5832L128.27 51.4922H128.671L129.071 51.6135L129.449 51.7955L129.661 52.1897L129.92 52.4929L130.203 52.7961L130.745 53.1297L130.84 53.4026L130.769 53.6452L130.627 53.9181L130.533 54.1607L130.509 54.4336L130.722 54.6762L131.146 54.8581L132.065 54.9794L133.197 55.0098L133.574 55.0704L133.857 55.222L133.951 55.5859L133.904 56.162L134.022 56.344L134.116 56.4653L135.696 57.3143L136.662 57.9814L137.063 58.3453L137.346 58.7698L137.605 59.2247L137.983 60.1344L138.171 60.8925V61.1654L138.124 61.4383L138.006 61.7112L137.7 62.1964L137.511 62.439L137.299 62.6209L137.273 62.633L137.252 62.6512L136.992 62.7725L136.662 62.8332L135.955 62.8028L135.721 62.8575L135.554 63.0454L135.342 63.6216L135.295 63.9248L135.342 64.1674L135.531 64.3493L135.743 64.5313L137.747 65.8352L138.1 65.9868L138.548 66.1081L139.916 66.0778L140.411 66.1384L140.788 66.2597L141.047 66.6539L141.094 66.9571L141.024 67.6242L141 67.8971L141.094 68.1094L141.259 68.2913L141.471 68.4733L141.707 68.6552L141.967 68.8068L142.344 68.9281L142.792 68.9888L143.546 69.0191L144.112 69.1404L144.795 69.4436L145.173 69.5649L145.644 69.6862L146.399 69.5649L146.846 69.4436L147.2 69.292L148.12 69.2617L149.534 69.3527L154.98 70.2017L155.71 69.8075L156.394 69.2617L156.677 69.1101L156.983 68.9888L157.313 68.9585H157.596L161.816 69.5649H162.24L162.57 69.474L162.853 69.3527L163.396 69.0494L163.726 68.9281L164.103 68.8978L165.022 68.9281L165.423 68.8978L165.753 68.8068L166.012 68.6249L166.672 68.0488L166.908 67.8971L167.191 67.7455L167.545 67.6849L168.346 67.5939L168.676 67.5029L168.936 67.3513L169.407 66.9571L169.879 66.6236L170.138 66.4719L170.468 66.381L170.845 66.3203H171.269L174.051 66.4719L174.452 66.4416L174.782 66.3507L175.041 66.199L175.253 66.0171L175.574 65.7195L175.701 65.5319L175.821 65.4118L175.843 65.3803L176.055 65.1681L176.362 65.0468L176.974 64.8345L177.08 64.7739L177.116 64.6829L177.092 64.4403L177.045 64.228L177.069 63.9855L177.187 63.7732L177.302 63.6683L177.328 63.6216L177.587 63.4093L177.729 63.197L177.776 62.9545V62.6816L177.823 62.439L177.965 62.2267L178.2 62.0751L178.507 61.9538L179.898 61.6506L181.454 61.4989L182.066 61.6809L182.821 62.0144L184.825 63.2577L185.72 63.6519L188.196 65.8048L188.879 66.29L189.445 66.5932L189.846 66.6842L190.695 66.7449L193.618 66.7145L194.042 66.9268L194.349 67.321L194.561 68.2913L194.56 68.3135L194.608 68.5339L194.561 69.5043L194.49 69.7772L194.349 70.0198L194.16 70.1714L193.877 70.2927L193.83 70.323H193.712L192.274 70.1411L192.062 70.1714L191.85 70.232L191.732 70.2927L191.638 70.3533L190.883 71.0205L190.482 71.445L190.365 71.7179L190.379 71.918L190.6 72.2031L192.251 73.1128L192.486 73.2644L192.722 73.507L192.887 73.9618L192.891 73.9902L192.958 74.1741L193.005 74.5077L192.981 74.8412L193.005 75.0838L193.019 75.1323L193.146 75.2961L193.288 75.478L193.618 75.6903L194.113 75.9329L195.197 76.2361L195.81 76.3271H196.329L197.107 76.2664L197.956 76.3271L198.262 76.4484L198.474 76.6303V76.7819L198.545 76.8426V77.1458L198.38 77.3581L198.144 77.54L197.885 77.6916L197.39 78.0252L197.178 78.2071Z" fill="#1C4587"/>
<defs>
<linearGradient id="paint0_linear" x1="166" y1="-42" x2="85.2969" y2="185.183" gradientUnits="userSpaceOnUse">
<stop stop-color="#3A90B6"/>
<stop offset="1" stop-color="#075F92"/>
</linearGradient>
</defs>
</svg>
