<svg width="180" height="100" viewBox="0 0 180 100" fill="none" xmlns="http://www.w3.org/2000/svg">
<path opacity="0.1" d="M75.8977 30.6728L75.8505 30.8548L75.8034 31.0367L75.827 31.3096L75.8977 31.5219L76.0156 31.7644L76.2277 31.9464L76.7464 32.189L77.5479 32.4316L79.5281 32.8258L80.9426 33.0077L84.7616 32.9471L85.4688 33.0683L87.119 33.6445L89.9715 34.3723L92.6119 35.4032L98.3474 34.5335L99.5732 35.2916L100.163 35.4432L100.681 35.4736L101.813 35.3219L102.614 35.2613L103.51 35.3219L104.43 35.4432L105.184 35.6555L105.514 35.8678L105.726 36.171L105.815 36.7445L105.82 36.7775L105.773 37.1717L105.538 37.7781L105.47 38.0381L105.467 38.0814L105.49 38.3543L105.703 38.6575L106.08 39.0517L109.734 41.4776L110.37 41.7505L110.96 41.9021L111.855 42.0537L112.209 42.175L112.516 42.2963L113.105 42.5995L113.293 42.7815L113.553 43.0544L113.812 43.4486L114.189 44.2067L114.284 44.6615V45.0557L114.213 45.2286V45.3589L113.977 45.9351L113.812 46.1474L113.6 46.4203L113.364 46.9358L113.313 47.0846L113.293 47.2087L113.341 47.4513L113.529 47.7242L113.883 47.9668L114.661 48.2397L115.203 48.3306H115.674L116.405 48.2093L117.018 47.9971L117.301 47.8454L118.598 47.0571L120.224 46.5113L123.478 46.3596L124.868 46.0564L128.593 44.7525L128.97 44.6918L129.348 44.6615L129.725 44.7525L130.008 44.9041L130.22 45.177L130.196 45.6925L130.127 45.9589L130.126 45.9957L130.031 46.3596L129.828 46.9397L129.795 47.0874L129.772 47.5726V47.8151L129.913 48.3306L129.984 48.8461L129.937 49.1493L129.894 49.2734L129.866 49.4526L129.772 49.7255L129.654 50.0287L129.489 50.2713L128.823 51.9542L128.758 52.2726L128.735 53.0914L128.947 55.2443L128.994 55.5173L129.23 55.8811L129.63 56.336L130.432 56.9424L130.927 57.185L131.399 57.3973L133.567 57.7915L135.406 57.9128L137.056 57.8218L137.787 57.7005L138.117 57.6095L138.707 57.367L139.202 57.0334L139.65 56.6392L139.862 56.4269L140.404 55.7295L140.64 55.5779L140.923 55.5173L141.205 55.5779L141.465 55.7295L141.889 56.0631L163.691 56.5482L163.95 56.8515L164.162 57.276L164.304 58.1554V58.6709L164.351 59.0651L164.516 59.2773L164.846 59.338L166.637 59.4896L167.132 59.6412L167.557 59.9141L168.123 60.46L167.557 60.278L168.901 61.0664L173.167 64.1593L173.45 64.4322L173.639 64.6748L174.747 66.4638L176.02 68.1316L176.114 68.4045V68.6774L176.065 68.762L176.067 68.7684V69.0413L177.285 75.3504L176.79 75.8659L176.366 76.2298L175.965 76.6543L174.478 83.8245L174.336 84.0671L174.265 84.2945V84.431L174.946 89.7266L175.252 90.3938L175.465 90.7576L175.842 91.2428L179.562 95.7178L170.25 99.4053L138.25 98.8428L121.469 97.0303L117.438 94.6553L106.406 94.2491L102.875 92.6866L94.5938 95.3116L73.3438 86.6241L62.375 92.9991L52.9062 96.0928L13.8125 74.4053L9 69.0303L0.53125 66.2178L0 63.9366L1.1875 56.8741L11.5 47.9366L17.5625 39.1866L20.4062 31.3116L22.875 27.9366L28.9062 21.6241L36.0625 22.5303L42.6875 22.7803L47.25 23.9991L49.801 21.6062L50.3196 21.7578L51.4512 21.8791H52.0641L52.5827 21.8184L53.2664 21.6668L56.2367 21.2423L58.2641 21.1816L58.7592 21.3029L59.2307 21.5455L59.8672 22.061L60.3622 22.6675L61.5409 25.4875L62.6489 27.1856L63.0497 27.5495L63.5212 27.8831L64.0634 28.2166L64.7706 28.3986L68.0239 28.8231L69.014 28.8534L69.6977 28.7928L70.4756 28.3986L70.7585 28.3683L70.9942 28.4289L71.1357 28.8231L71.1828 29.0354L71.065 29.8238V30.0967L71.1121 30.3089L71.1828 30.4605L71.2535 30.5515L71.3478 30.6728L71.3714 30.7031H71.7722L72.3615 30.5818L72.7387 30.4302L74.0117 29.5509L74.2711 29.3689H74.6483L75.0726 29.4902L75.6384 29.9754L75.8505 30.3393L75.8977 30.6728Z" fill="#333333"/>
<path d="M8 42.9355V55.555L8.47389 57.8054V45.1831L8 42.9355ZM8.47389 45.1831V57.8054L16.931 60.6864V48.0668L8.47389 45.1831ZM16.931 48.0668V60.6864L21.9138 66.042V53.4223L16.931 48.0668ZM21.9166 53.4195V66.0392L45.0642 78.639V66.0196L21.9166 53.4195ZM70.4298 71.9299V84.5494L81.4386 78.2803V65.6607L70.4298 71.9299ZM110.907 71.644V84.2663L114.527 85.8666V73.2472L110.907 71.644ZM114.524 73.2472V85.8666L125.412 86.2701V73.6506L114.524 73.2472ZM81.4386 65.6607V78.2803L102.567 86.9679V74.3484L81.4386 65.6607ZM102.567 74.3484V86.9679L110.907 84.2635V71.6412L102.567 74.3484ZM45.0614 66.0224V78.6418L60.8763 87.7948V75.1723L45.0614 66.0224ZM60.8763 75.1695V87.792L70.4298 84.5494V71.9299L60.8763 75.1695ZM165.115 75.2677V87.8872L166.756 87.3983V74.7787L165.115 75.2677ZM125.415 73.6478V86.2673L129.54 88.6494V76.0299L125.415 73.6478ZM129.537 76.0299V88.6494L146.333 90.4431V77.8207L129.537 76.0299ZM157.283 78.4092V91.0287L165.118 87.8843V75.2649L157.283 78.4092ZM146.336 77.8179V90.4403L157.283 91.0287V78.4092L146.336 77.8179Z" fill="#0B2856"/>
<path d="M164.321 66.1543L164.196 54.3418C162.676 54.821 159.459 56.1793 158.759 57.7793C157.884 59.7793 156.884 65.3418 156.821 69.1543C156.771 72.2043 160.467 73.7585 162.321 74.1543L166.571 74.9043L163.509 68.3418L164.321 66.1543Z" fill="#0B2856"/>
<path d="M138.509 37.9668L138.071 24.0918C136.363 25.2585 132.784 27.7543 132.134 28.4043C131.321 29.2168 130.946 33.0918 130.946 33.7168C130.946 34.2168 135.988 36.7585 138.509 37.9668Z" fill="#0B2856"/>
<path d="M122.821 30.1543L122.259 24.1543C121.613 24.3001 120.096 24.6793 119.196 25.0293C118.071 25.4668 118.884 26.8418 119.196 27.9668C119.446 28.8668 121.717 29.8001 122.821 30.1543Z" fill="#0B2856"/>
<path d="M113.759 19.2168C113.697 18.0918 113.609 15.7668 113.759 15.4668L112.946 16.2168C112.717 16.5293 112.271 17.3543 112.321 18.1543C112.371 18.9543 113.301 19.196 113.759 19.2168Z" fill="url(#paint0_linear)"/>
<path d="M83.8977 9.67282L83.8505 9.85478L83.8034 10.0367L83.827 10.3096L83.8977 10.5219L84.0156 10.7644L84.2277 10.9464L84.7464 11.189L85.5479 11.4316L87.5281 11.8258L88.9426 12.0077L92.7616 11.9471L93.4688 12.0683L95.119 12.6445L97.9715 13.3723L100.612 14.4032L106.347 13.5335L107.573 14.2916L108.163 14.4432L108.681 14.4736L109.813 14.3219L110.614 14.2613L111.51 14.3219L112.43 14.4432L113.184 14.6555L113.514 14.8678L113.726 15.171L113.815 15.7445L113.82 15.7775L113.773 16.1717L113.538 16.7781L113.47 17.0381L113.467 17.0814L113.49 17.3543L113.703 17.6575L114.08 18.0517L117.734 20.4776L118.37 20.7505L118.96 20.9021L119.855 21.0537L120.209 21.175L120.516 21.2963L121.105 21.5995L121.293 21.7815L121.553 22.0544L121.812 22.4486L122.189 23.2067L122.284 23.6615V24.0557L122.213 24.2286V24.3589L121.977 24.9351L121.812 25.1474L121.6 25.4203L121.364 25.9358L121.313 26.0846L121.293 26.2087L121.341 26.4513L121.529 26.7242L121.883 26.9668L122.661 27.2397L123.203 27.3306H123.674L124.405 27.2093L125.018 26.9971L125.301 26.8454L126.598 26.0571L128.224 25.5113L131.478 25.3596L132.868 25.0564L136.593 23.7525L136.97 23.6918L137.348 23.6615L137.725 23.7525L138.008 23.9041L138.22 24.177L138.196 24.6925L138.127 24.9589L138.126 24.9957L138.031 25.3596L137.828 25.9397L137.795 26.0874L137.772 26.5726V26.8151L137.913 27.3306L137.984 27.8461L137.937 28.1493L137.894 28.2734L137.866 28.4526L137.772 28.7255L137.654 29.0287L137.489 29.2713L136.823 30.9542L136.758 31.2726L136.735 32.0914L136.947 34.2443L136.994 34.5173L137.23 34.8811L137.63 35.336L138.432 35.9424L138.927 36.185L139.399 36.3973L141.567 36.7915L143.406 36.9128L145.056 36.8218L145.787 36.7005L146.117 36.6095L146.707 36.367L147.202 36.0334L147.65 35.6392L147.862 35.4269L148.404 34.7295L148.64 34.5779L148.923 34.5173L149.205 34.5779L149.465 34.7295L149.889 35.0631L150.691 35.5482L150.95 35.8515L151.162 36.276L151.304 37.1554V37.6709L151.351 38.0651L151.516 38.2773L151.846 38.338L153.637 38.4896L154.132 38.6412L154.557 38.9141L155.123 39.46L154.557 39.278L155.901 40.0664L160.167 43.1593L160.45 43.4322L160.639 43.6748L161.747 45.4638L163.02 47.1316L163.114 47.4045V47.6774L163.065 47.762L163.067 47.7684V48.0413L164.285 54.3504L163.79 54.8659L163.366 55.2298L162.965 55.6543L161.478 62.8245L161.336 63.0671L161.265 63.2945V63.431L161.946 68.7266L162.252 69.3938L162.465 69.7576L162.842 70.2428L166.562 74.7178L157.25 78.4053L146.25 77.8428L129.469 76.0303L125.438 73.6553L114.406 73.2491L110.875 71.6866L102.594 74.3116L81.3438 65.6241L70.375 71.9991L60.9062 75.0928L21.8125 53.4053L17 48.0303L8.53125 45.2178L8 42.9366L9.1875 35.8741L19.5 26.9366L25.5625 18.1866L28.4062 10.3116L30.875 6.93658L36.9062 0.624084L44.0625 1.53033L50.6875 1.78033L55.25 2.99908L57.801 0.606171L58.3196 0.757782L59.4512 0.879089H60.0641L60.5827 0.81842L61.2664 0.666824L64.2367 0.242279L66.2641 0.181641L66.7592 0.302933L67.2307 0.545532L67.8672 1.06102L68.3622 1.66747L69.5409 4.48755L70.6489 6.18565L71.0497 6.54953L71.5212 6.88309L72.0634 7.21663L72.7706 7.39857L76.0239 7.82309L77.014 7.85342L77.6977 7.7928L78.4756 7.39857L78.7585 7.36827L78.9942 7.42891L79.1357 7.82309L79.1828 8.03539L79.065 8.82378V9.09669L79.1121 9.30894L79.1828 9.46056L79.2535 9.55156L79.3478 9.67282L79.3714 9.70316H79.7722L80.3615 9.58185L80.7387 9.43025L82.0117 8.55087L82.2711 8.36893H82.6483L83.0726 8.49022L83.6384 8.9754L83.8505 9.33926L83.8977 9.67282Z" fill="#1C4587"/>
<defs>
<linearGradient id="paint0_linear" x1="70.1322" y1="11.4941" x2="168.009" y2="20.1681" gradientUnits="userSpaceOnUse">
<stop stop-color="#3A90B6"/>
<stop offset="1" stop-color="#075F92"/>
</linearGradient>
</defs>
</svg>
