<svg width="216" height="126" viewBox="0 0 216 126" fill="none" xmlns="http://www.w3.org/2000/svg">
<path opacity="0.1" d="M195.818 36.8888L195.865 36.8281L195.936 36.6765V36.5552L195.629 35.8578L195.511 35.3423L195.535 35.0694L195.582 34.7965L195.723 34.5539L195.771 34.5134L196.006 34.3113L196.431 34.099L197.35 33.9171H198.152L199.99 34.1293L200.462 34.0687L201.971 33.3713H202.371L202.631 33.4926L202.796 33.7048L202.914 33.9474L203.031 34.4326L203.173 34.6449L203.338 34.8571L203.691 35.2513L205.082 36.252L205.247 36.4036L205.342 36.5249L205.436 36.7068L205.46 36.9494L205.412 37.8288L205.483 38.0714L205.742 38.2836L206.945 38.7992L207.746 39.2237L207.719 39.4696L207.77 39.4966L207.723 39.9211L207.322 40.5882L206.809 41.8788L206.827 42.0438L207.039 42.3167L207.393 42.4076H207.817H208.218L208.595 42.3469L209.066 42.4076L209.561 42.5896L210.363 43.2263L210.622 43.6206L210.606 43.8326L210.646 43.8935L210.622 44.1967L210.41 44.3786L210.198 44.5606L209.986 44.8031L209.844 45.1973L209.797 46.8045L209.703 47.1077L209.561 47.3503L209.396 47.5929L209.279 47.9871L209.184 48.4723L209.297 52.1436L209.373 52.5356L209.585 52.8388L209.868 52.9904L210.174 53.1117L210.552 53.3846L210.976 53.7788L211.424 54.6582L211.402 54.8416L211.448 54.9311L211.4 55.3253L211.141 55.5376L207.958 55.7802L205.2 56.326L204.776 56.4776L204.187 56.7505L203.906 56.9911L203.974 57.1447L204.446 57.7512L205.672 59.1461L206.261 59.9951L206.426 60.2984L206.568 60.6925L206.78 61.39L206.771 61.5552L206.803 61.6629L206.78 62.0874L206.662 62.3907L206.237 62.7848L205.365 63.3913L205.177 63.5733L204.965 63.8462L204.763 64.3636L204.776 64.4526L204.941 64.6649L205.2 64.7862L205.766 64.9075L211.966 65.423L211.914 65.6896L211.949 65.6925L211.943 65.7262L211.919 66.5449L211.99 67.0907L212.037 67.3334L212.155 67.5759L212.32 67.7579L212.579 67.9095L213.687 68.4856L214.135 68.7889L214.3 69.0011L214.394 69.2134L214.371 69.4863L214.288 69.6568L214.276 69.7895L214.159 70.0321L213.855 70.5127L213.876 70.6993L213.923 70.8205V70.8812L214.017 71.0328L214.418 71.6089L214.583 71.7909L214.819 72.0941L214.913 72.2457L214.984 72.458L215.031 72.7005L215.007 72.9735L214.889 73.5799L214.851 73.596L214.795 73.8832L204.497 78.1671V78.2064L204.521 78.449L204.615 78.6915L204.756 78.9342L204.945 79.1464L205.228 79.5709L205.322 79.8135V80.0561L205.228 80.2743V80.3593L205.11 80.6323L204.803 80.8445L204.167 80.9961L202.753 81.0871L202.328 81.0568L201.951 80.9961L201.715 80.8445L201.574 80.6323L201.126 79.7529L200.348 78.6915L200.136 78.5096L199.924 78.4793L199.641 78.5703L199.533 78.8272L199.429 79.298L199.389 79.3537L199.334 79.6012L199.099 79.9348L197.967 80.9658L197.731 81.3297L197.726 81.3403L197.755 81.451L197.873 81.6632L198.014 81.8755L198.179 82.0878L198.391 82.3L198.674 82.4516L198.981 82.5729L199.358 82.6942L199.782 82.7549H202.281L202.635 82.7852L202.941 82.9065L203.177 83.0581L198.382 82.6486L198.58 82.7549L198.886 82.8762L199.264 82.9975L199.688 83.0581H202.187L202.54 83.0884L202.847 83.2097L203.083 83.3613L197.652 82.8975L197.778 83.2704L197.849 83.6646L197.826 83.8465L197.802 84.0891L197.71 84.3704L197.708 84.3923L197.519 84.9685L196.413 84.9159L196.16 85.5664L196.083 86.0378V86.3107L196.13 86.5836L196.224 86.8262L196.342 87.0688L196.767 87.6753L198.839 90.8512L198.981 91.1241L198.957 91.306L198.879 91.4126L198.886 91.4273L198.863 91.6093L198.462 92.1551L198.344 92.4583L198.25 92.7616L198.085 93.0041L197.755 93.1558L196.743 91.7689L196.319 91.7082L195.376 91.3747L194.999 91.314L194.598 91.405L194.15 91.5869L192.052 93.2851L191.651 93.4973L191.132 93.6489L190.048 93.8006H188.327L188.115 93.7399L187.29 93.0728L187.007 93.0122L186.653 93.1031L186.3 93.4973L185.663 94.6799L183.848 97.318L182.575 98.5007L182.436 98.709L182.457 98.9252L182.528 99.1374L182.646 99.3497L182.764 99.7136L182.858 100.32L183.023 100.532L183.282 100.654L183.659 100.684L184.791 100.563H185.192L185.569 100.623L189.907 102.261L193.396 104.262L193.561 104.474L193.584 104.687L193.49 104.929L193.484 104.937L193.49 104.99L193.396 105.232L193.231 105.445L192.618 106.081L191.321 107.112L191.132 107.294L191.038 107.446V107.78L190.944 107.901V108.083L190.85 108.204L188.846 107.385L188.351 107.112L187.879 106.779L187.478 106.385L187.148 106.172L187.054 106.112L186.795 106.172L186.37 106.324L185.592 106.809L185.333 107.173L185.313 107.226L185.357 107.992L185.475 108.507L185.569 108.75L185.71 108.962L185.923 109.144L186.205 109.265L186.583 109.296L189.223 109.265L189.553 109.326L189.812 109.417L190.024 109.569L190.213 109.751L190.284 109.993L190.135 110.108L190.189 110.296L189.836 110.569L189.058 110.842L186.04 111.418L185.121 111.813L183.518 113.025L182.764 113.238L175.526 114.117L175.196 114.269L174.917 114.532L174.913 114.572L175.008 114.815L175.243 114.966L175.526 115.087L175.833 115.178L176.398 115.3L178.167 115.36L182.174 115.057L182.669 115.178L183.353 115.421L183.73 115.451L184.484 115.421L184.791 115.451L184.932 115.603L184.655 115.75L184.697 115.755L184.838 115.906L184.154 116.27L182.858 116.725L177.106 118.15L176.846 118.302L176.54 118.423L176.068 118.484L172.414 118.423L168.43 118.817H167.629L167.417 118.787L167.134 118.666L166.639 118.362L166.427 118.18L165.908 117.574L165.696 117.392L165.436 117.24L165.106 117.089L163.409 116.755L163.032 116.634L162.749 116.482L162.513 116.331L161.877 116.24L158.954 116.361L158.199 116.24L157.633 116.118L157.351 115.967L156.714 115.937L156.337 115.815L156.077 115.664L155.865 115.512L155.535 115.391H155.158L154.852 115.482L154.828 116.877L154.734 117.21L154.616 117.483L154.427 117.665L154.239 117.817L153.861 118.029L153.178 118.453L150.561 118.605L149.807 118.514L149.335 118.362L149.194 118.15L148.864 117.726L148.628 117.544L148.298 117.453L147.897 117.422L146.294 117.544L143.819 117.998L143.277 118.211L142.711 118.635L141.603 120.697L141.414 120.94L141.037 121.122L140.448 121.213L138.515 121.122L134.153 120.151H133.328L132.338 120.273L131.867 120.394L131.419 120.576L130.829 120.97L130.547 121.273L130.358 121.607L129.651 122.911L128.943 123.851L128.731 124.033L128.26 124.397L127.741 124.7L126.468 125.064L125.027 124.837L121.402 122.837L110.527 124.556L110.438 123.972L110.06 121.061L111.428 118.878L113.385 116.846L114.893 114.39L115.27 112.995L115.2 111.934L114.398 111.236L110.673 110.812L112.347 111.54L112.724 113.056L112.041 115.118L110.721 116.967L109.117 117.786L107.302 118.18L105.746 119.211L104.803 120.728L104.874 122.607L104.62 124.431L98.4016 122.837L94.4954 122.806L89.9954 125.837L81.0266 123.994L71.9641 125.025L68.0579 125.119L65.3812 124.28L65.3576 123.916L65.0276 123.249L64.509 117.64L64.226 116.973L62.953 116.305L61.9393 115.942L61.68 115.79L61.4443 115.547L60.6191 114.304L59.9827 113.698L59.4876 113.334L56.4465 112L55.8807 111.454L55.2442 110.544L54.6313 109.028L54.5134 108.391L54.6785 108.057L54.9378 107.997L58.7096 107.845L59.0633 107.724L59.3226 107.603L60.077 106.723L60.2891 106.541L60.6191 106.45L60.9963 106.42L61.3735 106.45L61.68 106.541L62.1986 106.814L62.5286 106.875L62.8587 106.814L63.5659 106.663L68.0922 106.481L68.4694 106.42L68.7994 106.268L69.2002 105.632L69.4124 105.419L69.6717 105.268L71.2512 104.813L71.4869 104.661L71.6048 104.54L72.0527 103.691L72.4535 102.63L72.7834 102.175L73.1843 101.811L73.5615 101.629L74.0329 101.144L74.1508 100.719L74.1979 100.234L74.1508 99.5064L74.9288 98.3238L74.8817 97.8386L74.7402 97.5051L74.4337 97.3231L74.0801 97.2625L72.8307 97.2018L72.4063 97.1412L72.2177 96.9895L72.0056 96.656L71.6755 96.0192L71.4398 95.6856L71.2276 95.4431L71.039 95.2611L70.2374 94.776L69.931 94.5333L69.6245 94.1998L69.2945 93.5327L69.0588 93.1991L68.8466 93.0475H68.0922L67.385 93.1991L66.3477 93.4417L65.994 93.5024L65.6641 93.563L65.334 93.5024L65.0747 93.3811L64.2732 92.9262L63.5895 92.6836L61.7979 92.3804L61.3972 92.2591L61.0671 92.0772L60.7842 91.8346L60.7134 91.5314L60.6899 91.2281L60.7842 90.652L60.9492 90.1062L61.1614 89.8939L61.4208 89.7726L61.7743 89.712L62.5051 89.5907L63.1652 89.3784L63.4244 89.2571L64.4618 88.5597L64.6739 88.2261L64.9333 87.741L64.7682 87.1345L64.6032 86.7403L64.0375 85.9216L63.896 85.8003L63.7545 85.679L63.5659 85.5577L63.3773 85.588L57.4838 86.4067L55.2207 87.0738L54.8199 87.0435L54.3484 86.8312L53.5233 85.9519L53.2875 85.8003L52.9575 85.7093L49.9871 85.5273L46.4745 78.7349L46.121 77.5523L47.0168 76.0361L47.5119 74.9142L47.7004 74.3077L47.7947 73.5496L47.7711 73.0341L47.8419 72.6399L47.889 72.6096L48.4312 72.4277L48.6669 72.2761L48.8084 72.0334L48.9027 71.7605L48.9498 71.0631L48.6669 69.5773L48.3134 69.1831L47.2525 68.3643L46.451 67.394L46.0224 67.0081L45.5787 66.8178L43.0563 66.7572L42.7263 66.6056V66.5883L42.632 66.5449V66.3327L42.797 66.1204L42.962 65.7262L43.0563 65.1501L42.8441 63.9371L42.6111 63.4577L42.3491 63.3003L38.2235 63.9068L37.9171 64.0281L37.7285 64.2404L37.6106 64.5133L37.2334 65.6959L36.8798 66.1811L36.6205 66.3327L36.3848 66.4843H36.0783L35.7247 66.3327L35.6462 66.2788L35.6304 66.272L35.2767 66.0294L34.876 65.4836L34.5931 64.2404L34.3199 63.9701L33.9802 63.8158L31.3398 63.7855L30.8684 63.7249L30.3969 63.6036L29.454 63.1184L29.006 62.9972L28.6052 62.9668L28.2752 63.0578L27.568 63.5733L26.4365 64.1191L25.8 64.3313L25.4464 64.3617L25.0692 64.3313L24.7391 64.2101L24.6825 64.1633L24.6448 64.1494L24.3148 63.8765L24.1262 63.7552L23.7961 63.6642H23.4189L20.0478 64.0281L19.7177 63.9675L19.634 63.9088L19.6235 63.9068L19.3641 63.7249L18.7166 63.2529L18.4448 63.1184L16.7238 62.5423L16.0166 62.1784L15.9984 62.1569L15.9223 62.1178L15.6393 61.7842L15.4272 61.5113L15.1915 60.8442L14.72 59.9648L14.6021 59.6615L14.5786 59.3886L14.6257 59.1157L14.7672 58.8428L15.2858 58.1757L15.4744 57.9028L15.5451 57.5692L15.4979 57.0841L15.3094 56.8112L15.0933 56.5888L14.2721 56.1441L14.1779 56.0835L14.1778 56.0834L13.282 55.5073L13.1877 55.4466L12.9991 55.1131L12.9519 54.8098L13.0933 54.5672L13.3055 54.355L14.0835 53.8698L14.2957 53.6879L14.4371 53.5059L14.5079 53.3543V53.0511L14.1778 51.9594L13.85 51.6783L13.5413 51.5046L11.6082 50.9891L10.8303 50.6858L10.7451 50.6288L10.736 50.6252L9.60437 49.8671L9.29791 49.5336L9.13293 49.291L9.01508 48.9574L8.92065 48.7452L7.27057 41.1947L7.10553 40.8611L6.89337 40.6185L5.50244 39.5572L4.77167 38.7992L4.52201 38.6118L4.32373 38.4959L4.01727 38.3443L2.22565 38.0107L1.75409 37.8288L1.71464 37.7893L1.65979 37.7681L1.44769 37.5559L1.35333 37.3436L1.32977 36.7068L1.37695 36.4339L1.44769 36.1913L2.03699 35.5849L2.10773 35.3423L2.15485 35.0997L2.10773 34.8571L2.17841 33.9171L2.15485 33.5229L1.93424 33.3165L1.09406 32.9467L1.08935 32.9255L0.999756 32.8861L0.952637 32.6738L1.0705 32.4616L1.58911 32.1887L1.89557 32.0674L4.39447 31.37L5.50244 31.4609L5.78534 31.4003L6.25684 31.0364L6.53973 30.9151L6.91693 30.8544L7.31769 30.8848L7.71844 30.9757L7.95416 31.006L8.3078 30.9454L8.56714 30.7635L8.66138 30.4602L8.63782 30.066L8.33398 29.8706L7.60052 29.6112L7.36487 29.3989L7.29413 29.0957L7.22333 27.8524H9.25073L9.84015 27.7311L10.1701 27.3369L10.6652 26.0937L11.1132 25.8208L22.3109 25.8814L22.924 25.9724L23.584 26.0027L24.1733 26.0634L27.3558 26.8214L30.1847 27.2156H30.8919L31.3634 27.1247L31.552 26.9427L31.6935 26.7607L31.9764 26.1846L32.1414 25.9724L32.7543 25.6995L33.7209 25.3962L37.092 24.6988L37.9171 24.6382L40.0153 24.911L42.2312 24.8807L43.1977 24.9717L43.8107 25.1233L43.8542 25.2017L43.905 25.2143L44.0228 25.4266L44.07 25.6691L44.216 25.9107L44.4471 26.0937L45.2015 26.3059L45.673 26.2756L45.9796 26.124L46.451 25.2446L46.6631 25.0324L46.9932 24.7898L47.6769 24.4865L48.1719 24.4259L48.6198 24.4562L48.9498 24.5775L49.2092 24.7291L49.4213 24.911L49.437 24.9346L49.5157 25.002L49.6572 25.2143L49.7043 25.4872L49.7513 25.7298L49.891 25.9864L50.1993 26.1846L51.1423 26.4272L51.7317 26.4576L52.2031 26.4272L52.5096 26.3059L52.7689 26.1846L53.0046 25.9724L53.4055 25.6995L54.0184 25.4266L56.2814 24.9414L56.8237 24.7595L57.0594 24.5775L57.2245 24.3349L57.413 24.062L57.6016 23.4556L58.1439 23.0613L59.1104 22.6671L61.6328 22.1213L63.1417 22L68.3986 22.3033L69.5538 22.5762L70.8268 22.6671L71.4633 22.7884L71.8876 22.9097L71.9583 23.0007L72.0527 23.122L72.1234 23.213L72.1941 23.4556L72.3826 25.3053L72.4228 25.5114L72.642 25.6995L73.1135 25.8814L74.7637 26.1846L75.1409 26.3362L75.2116 26.4272L75.2352 26.4576L75.2823 26.6395L75.2812 26.6656L75.2823 26.6698L75.2352 27.7918V28.0344L75.3531 28.2466L75.5181 28.4286L75.683 28.5802L75.8481 28.7015L76.0839 28.8228L76.7911 29.035L83.6041 29.6718L84.1464 29.6112L85.3957 29.0654L86.5273 28.7318L86.8574 28.8228L87.0695 28.9744L87.1874 29.217L87.376 29.4595L87.6824 29.6718L88.2718 29.8841L88.7197 29.9144L89.0733 29.8538L89.3326 29.7021L89.9456 29.5202L90.8885 29.3383L94.8962 29.126L95.2026 29.1563L95.4619 29.2776L95.6505 29.4595L95.7684 29.7021L95.8627 30.2176L95.6505 31.7035L95.5563 32.0067L95.4384 32.2493L95.4191 32.2708L95.4148 32.2796L95.0615 32.6734L95.0611 32.6738L94.9669 32.7952L94.9433 33.0074L95.0376 33.25L95.4148 33.5229L95.8391 33.6138H96.2399L96.5699 33.5532L96.8057 33.3713L96.9235 33.0983L96.9706 32.8254L97.0178 31.9764L97.1592 31.6428L97.3951 31.37L98.0079 31.097L98.0279 31.0986L98.0315 31.097L98.4087 31.1273L98.6916 31.2789L98.951 31.5519L99.3045 31.6125H99.6581L100.79 31.4609L101.096 31.37L101.332 31.2183L101.403 31.006L101.355 30.248L101.403 29.975L101.544 29.7325L101.78 29.5505L102.157 29.3989L103.383 29.0654L103.402 29.0666L103.406 29.0654L103.854 29.0957L104.184 29.217L105.127 29.9447L105.575 30.0963L106.275 30.2765L107.084 30.1873L107.096 30.1886L107.108 30.1873L107.721 30.248L108.216 30.3996L108.899 30.7331L109.371 30.8241L109.804 30.8534L112.648 30.5209L112.664 30.5217L112.671 30.5209L113.284 30.5512L113.685 30.6725L113.85 30.8848L114.345 32.0371L114.628 32.4616L114.746 32.7042L114.793 32.9467L114.816 33.2197L114.769 33.5532L114.675 33.8261L114.534 34.0687L114.345 34.281L114.086 34.4326L113.213 34.8268L110.337 35.6758L110.102 35.7971V36.0094L110.196 36.2216L111.162 37.3739L111.21 37.4043L113.567 39.9211L114.486 40.6792L115.359 41.225L115.721 41.2541L117.527 41.0127L117.539 41.0143L117.551 41.0127L118.023 41.0734L118.353 41.1947L118.73 41.5586L119.036 41.9831L119.107 42.2257L119.154 42.4986L119.248 42.7412L119.366 42.9534L119.531 43.1657L119.743 43.3476L121.323 44.5606L121.488 44.7728L121.629 44.9851L121.7 45.2277L121.724 45.4703L121.677 45.7432L121.559 45.9858L121.394 46.2284L120.144 47.4412L119.956 47.6536L119.814 47.8961L119.743 48.169L119.814 48.4116L119.932 48.6542L120.521 49.2304L120.686 49.4426L120.757 49.6852L120.781 49.9581L120.734 50.2613L120.663 50.5343V50.8678L120.757 51.2014L121.087 51.5652L121.488 51.6865L121.91 51.7469L128.277 51.6562L128.631 51.5956L128.89 51.4743L129.008 51.2316L129.102 50.9588L129.197 50.6858L129.692 50.5343L130.493 50.4433L130.507 50.4444L130.517 50.4433L133.157 50.6555L133.747 50.8071L134.548 51.2923L136.269 51.8685L136.599 52.0201L136.858 52.1717L137.047 52.3537L137.707 53.1724L137.99 53.5969L138.367 53.8698L138.956 54.2034L140.395 54.6885L141.172 54.8402L141.799 54.8998L142.587 54.8402L143.247 54.6582L143.53 54.5066L144.025 54.1731L144.826 53.3543L145.746 52.1111L147.302 50.4433L147.538 50.231L147.773 50.0794L148.08 49.9278L148.716 49.7459L151.38 49.4729L151.392 49.4741L151.404 49.4729L152.63 49.5942L153.455 49.7459L155.435 50.5343L156.732 51.3833L157.092 51.4123L157.415 51.353L158.264 51.1104L158.995 50.9588L159.013 50.9599L159.018 50.9588L159.49 50.9891L159.914 51.0498L160.244 51.171L165.077 52.2323L165.817 52.2919L178.443 50.8375L178.773 50.7768L178.962 50.5949L179.033 50.3523L179.104 49.2607L179.08 48.9878L179.127 48.4419L179.245 48.169L179.504 48.0174L181.013 47.8052L181.296 47.7142L181.437 47.5323L181.414 47.32L181.202 47.1684L180.989 47.0471L180.754 46.8954L180.736 46.8689L180.73 46.8651L180.589 46.6529V46.38L180.659 45.8038L180.636 45.5309L180.544 45.2955L180.047 44.7425L180.036 44.7268L180.023 44.7122L179.881 44.4999L179.787 44.2573L179.811 44.0148L179.929 43.7721L179.982 43.7202L180.023 43.6508L180.211 43.4689L180.494 43.3173L181.202 43.196L183.182 43.0444L183.512 42.9534L183.71 42.8374L183.771 42.6805L183.795 42.4076L183.771 41.8921L183.677 41.6799L183.394 41.5586L182.145 41.4373L181.791 41.3463L181.532 41.1947L181.343 41.0127L181.249 40.7702L181.178 40.4972L181.202 40.2244L181.272 39.9211L181.39 39.6482L181.532 39.4056L181.588 39.3492L181.626 39.2843L181.838 39.0721L182.05 38.8598L182.286 38.7081L182.852 38.4353L183.771 38.1017L186.765 37.7075L188.18 37.3436H188.58L188.863 37.4649L189.075 37.6772L189.618 38.2533L189.924 38.4656L190.348 38.6778L191.174 38.9204H191.645L191.999 38.8598L192.174 38.6844L192.282 38.5263L192.541 37.9804L192.706 37.7378L192.725 37.7264L192.8 37.6165L193.06 37.4649L195.323 37.1314L195.582 37.0404L195.818 36.8888Z" fill="#333333"/>
<path d="M94.3695 100.756V113.376L98.284 113.415V100.795L94.3695 100.756ZM121.342 100.756V113.376L125.113 115.416V102.796L121.342 100.756ZM125.113 102.796V115.416L128.554 115.567V102.948L125.113 102.796ZM71.8192 102.967V115.587L80.9857 114.519V101.9L71.8192 102.967ZM67.9299 103.06V115.679L71.8192 115.587V102.967L67.9299 103.06ZM64.0435 101.972V114.592L67.9299 115.679V103.06L64.0435 101.972ZM109.875 99.8125L109.781 115.375L121.342 113.376V100.756L109.875 99.8125ZM98.284 100.795V113.415L104.406 114.906L104.5 103.25L98.284 100.795ZM90.0372 103.769V116.388L94.3723 113.376V100.756L90.0372 103.769ZM80.9857 101.9V114.519L90.0372 116.388V103.769L80.9857 101.9Z" fill="#0B2856"/>
<path d="M2.78125 29.125L1.40625 27.8438L1.03125 20.3438L1 11.5312C1.84375 11.7812 3.55 12.3125 3.625 12.4375C3.7 12.5625 3.71875 13.9271 3.71875 14.5938L3.48547 15.9304L4.375 16.0938L10.0312 19.2812L10.6875 21.1875L10.5625 26.6875C11.3021 26.9583 12.9875 27.55 13.8125 27.75C14.8438 28 16.0625 30.5001 16.2188 31.0312C16.3438 31.4563 15.2917 32.4584 14.75 32.9062C15.6562 33.8751 17.4813 35.9125 17.5312 36.3125C17.5938 36.8125 16.875 39.9688 16.9375 40.5625L20.2812 40.4375L24.1875 40.7812L24.183 40.9326L25.4688 41.3125L28.7812 40.1875H31.0312L34.0312 40.8125L37.9375 40.3438L42.4375 40.8438C43 41.3542 44.2 42.4875 44.5 42.9375C44.8 43.3875 44.3333 44.7292 44.0625 45.3438L45.2188 44.4062L50.5938 47.7812C50.6771 49 50.8438 51.4688 50.8438 51.5938C50.8438 51.7188 49.0104 55.1875 48.0938 56.9062L52.5938 59.4688L53.1875 62.25L53.9062 62.75L55.375 63.9375L64.7188 62.875C65.5 63.3229 67.1 64.2812 67.25 64.5312C67.4375 64.8438 67.1875 66.5312 66.0625 68.2812C66.0833 69.1979 66.1125 71.1125 66.0625 71.4375L69.4062 70.9375L76.0938 73.4062C76.2188 73.625 76.5 74.1625 76.625 74.5625C76.7812 75.0625 76.375 77.0626 76.0312 79.8439C75.6875 82.6251 74.0625 83.5313 73.2188 84.7189C72.5437 85.6688 69.2292 86.948 67.6562 87.4689L69.0312 83.125L65.3125 84.4062L60.5 82.2189L59.1875 77.0312L58.8438 77.125L55.0312 77.9062L53.3125 76.3125L50.1875 76.375L46.0625 68.5939L44.125 57.375L42.7812 57.4062L42.1875 53.9375L39.0938 54.875C38.8333 55.375 38.3 56.4062 38.25 56.5312L37.1562 57.2188L36.4062 57.2812L35.6562 56.875L34.25 54.5938H30.7188L28.5625 53.8125L25.5625 55.1875L25.0312 55.0625L23.7812 54.4375L20.0312 55L18.6562 54.5312L17.25 53.3438L15.75 52.6875L14.3438 49.1875L12.9375 45.875L11.5312 45.7188L9.8125 44.9375L9.53125 44.2188L9.96875 42.375L10.0938 41.1875L9.75 40.625L8 40.5938L6.46875 40.375L5.5 39.9688L4.28125 38.9688L2.78125 29.125Z" fill="#0B2856"/>
<path d="M54.4375 99.4062C54.4792 95.5 54.5438 87.6 54.4688 87.25C57.9792 88.2188 65.475 90.2 67.375 90.375C69.275 90.55 68.9375 95.0312 68.5312 97.25L66.5312 100.312L64.0312 114.719L59.25 109.188L59.4375 107.031L57.6562 104.844L57.3438 103.438L56.25 102.844L55.9062 101.938L54.4375 99.4062Z" fill="#0B2856"/>
<path d="M106.469 108.812C105.896 110.677 104.675 114.5 104.375 114.875C104.323 110.604 104.175 101.963 104 101.562C103.781 101.062 103.188 100.156 103.188 98.7812C103.188 97.4062 104.625 97.8125 105.375 97.375C105.975 97.025 106.708 96.8333 107 96.7812L108.406 95.4375L109.75 95.4062C109.823 93.5833 109.969 89.8562 109.969 89.5312C110.396 89.3021 111.369 88.7812 111.844 88.5312C112.319 88.2812 114.146 88.7396 115 89L115.938 90.75C116.292 91.5833 117.006 93.4 117.031 94C117.062 94.75 113.375 97.4375 112.906 98.0312C112.531 98.5062 110.75 100.958 109.906 102.125L107.969 106.188L106.469 108.812Z" fill="#0B2856"/>
<path d="M128.5 115.594L128.344 101.344L128.375 101.625L129.062 99.1562L132.281 98.2812L133.312 98L138.938 98.5L139.125 98.5625L141.312 98.9062V99.0157L143.031 96.375L148.375 95.1562L149.531 96.2188L153.188 95.875L154.75 95.1562C154.573 94.8229 154.231 94.0875 154.281 93.8125C154.344 93.4688 155.469 93.4375 155.75 93.4375C155.975 93.4375 156.177 93.9583 156.25 94.2188L159.094 94.1875L162.156 94.7188L162.375 94.75L163.125 94.8125L163.281 94.7812L165.969 95.4688L166.125 95.5625L167.438 96.5L172.656 96.4688L176.344 96.9375L176.914 96.6204L176.094 96C174.823 95.3333 172.25 93.95 172.125 93.75C171.969 93.5 172.188 91.625 172.406 91.5312C172.581 91.4563 177.917 90.4167 180.562 89.9062C181.479 89.6562 183.363 89.15 183.562 89.125C183.612 89.1188 183.919 89.1007 184.385 89.0755C183.577 88.3994 182.84 87.6136 182.781 87C182.681 85.95 183.177 84.375 183.438 83.7188C183.662 83.7389 183.921 83.7618 184.2 83.786C181.763 82.2149 178.691 80.0954 178.531 79.4375C178.281 78.4062 178.562 75.3125 178.719 75.25C178.844 75.2 184.604 71.1458 187.469 69.125C188.615 68.7534 191.16 68.0195 192.252 68.0308L190.844 64.5L192.781 62.3125C193.25 61.9062 194.281 61.1125 194.656 61.1875C194.908 61.2379 195.367 61.3242 195.825 61.408L194.719 59.875L196 58.0312L197.406 55.5938L199.531 55.2812L202.25 55.9062L202.477 56.1101C202.613 55.299 202.753 54.6092 202.844 54.5312C203.019 54.3812 205.875 53.3229 207.281 52.8125L215.125 51.5L215.188 63.3125L214.812 64.7812L211.094 66.8438L208.594 67.7188C208.198 68.125 207.4 68.9688 207.375 69.0938C207.35 69.2188 206.01 69.9583 205.344 70.3125L204.781 70.6562L204.344 71.2188L203.719 72.3438C203.719 73.125 203.031 73.9375 203 74.25L200.719 73.6875L200.875 75.1875L200.281 76.5L199.156 81.6875L197.781 83.9062L197.312 84.25L195.688 83.4375L194.875 83.5938L194.312 86.375L193.625 95.3125L191.875 97.4375L191.625 98.5312L190.969 99.875L190.219 101.219L188 102.438L186.938 103.5L185.094 106.25L184.781 106.844L177.125 108.812L176.438 109.281L172.812 109.188L167.281 109.625L166.062 108.406L165.969 108.281L163.156 107.5L162.281 107.094L158.938 107.188L156.25 106.625L154.969 107.656L153.406 109.219L149.594 109.281C149.688 109.562 148.438 108.375 148.344 108.219L142.906 109.25L141.219 111.938L138.406 112.062L133.375 111.062L132.375 110.969L128.5 115.594Z" fill="#0B2856"/>
<path d="M214.406 51.2188C214.556 51.4188 214.427 49.302 214.344 48.2188L213.156 48.7188L212.75 50.0625C213.24 50.3646 214.256 51.0186 214.406 51.2188Z" fill="url(#paint0_linear)"/>
<path d="M212.125 47.0625C212.083 46.1979 212 44.4313 212 44.2812C211.719 44.3333 211.131 44.4562 211.031 44.5312C210.906 44.6251 211.125 45.2812 211.25 45.6875C211.35 46.0125 211.875 46.7396 212.125 47.0625Z" fill="url(#paint1_linear)"/>
<path d="M211.562 43.3741C211.49 40.5199 211.344 34.5741 211.344 33.6241L208.906 33.3741C207.917 33.2908 205.7 33.1428 204.75 33.2179C203.562 33.3116 203.188 33.4991 201.406 34.6553C199.625 35.8116 201.125 36.2179 199.781 38.2179C198.438 40.2179 198.062 41.9991 197.938 43.5616C197.812 45.1241 203.188 46.3116 204.344 46.5616C205.269 46.7616 208.25 46.0616 209.625 45.6866L211.562 43.3741Z" fill="#0B2856"/>
<path d="M210.438 32.625C210.458 29.3021 210.5 22.6125 210.5 22.4375C209.573 22.5 207.6 22.5938 207.125 22.4688C206.65 22.3438 206.385 22.8125 206.312 23.0625L207.031 31L210.438 32.625Z" fill="#0B2856"/>
<path d="M207.844 21.7188L207.75 18.1875L207.625 18.2812C207.052 18.5729 205.694 19.2937 204.844 19.8438C203.994 20.3938 204.719 20.8854 205.188 21.0625L207.844 21.7188Z" fill="#0B2856"/>
<path d="M195.469 16.5312L195.5 13.8438L196.656 14.4688C196.698 14.5728 196.831 14.95 197.031 15.625C197.231 16.3 196.073 16.5104 195.469 16.5312Z" fill="#0B2856"/>
<path d="M181.281 23.3128V19.2815C182.042 19.2607 183.6 19.2315 183.75 19.2815C183.938 19.3441 184.562 19.7815 185.594 20.7815C186.625 21.7815 185.5 21.5628 185.656 23.1878C185.781 24.4878 182.792 23.8128 181.281 23.3128Z" fill="#0B2856"/>
<path d="M179.75 28L179.812 23.1562L181.625 24.75C181.708 24.9583 181.906 25.4563 182.031 25.7812C182.188 26.1876 181.812 27.0312 181.688 27.4375C181.587 27.7625 180.354 27.9479 179.75 28Z" fill="#0B2856"/>
<path d="M121.562 31.875C121.583 29.3125 121.631 24.1562 121.656 24.0312H121.469C120.958 24.3751 119.906 25.0938 119.781 25.2188C119.625 25.375 118.719 26.125 117.719 27.4375C116.719 28.75 118.156 29.5626 118.281 30.1562C118.381 30.6314 120.51 31.5 121.562 31.875Z" fill="#0B2856"/>
<path d="M114.844 21.125L114.75 11.7188C113.552 11.8958 110.969 12.3063 110.219 12.5312C109.281 12.8125 107.906 13.625 106.688 14.5C105.469 15.375 108.125 16.9375 108.375 17.2812C108.575 17.5562 112.771 19.9583 114.844 21.125Z" fill="#0B2856"/>
<path d="M95.9688 13.5312C95.8958 12.0625 95.775 9.04375 95.875 8.71875L95.3438 8.5625C95.0625 8.70833 94.2125 9.3375 93.0625 10.6875C91.625 12.375 93.625 11.875 94.4375 13.0938C95.0875 14.0687 95.7292 13.7917 95.9688 13.5312Z" fill="#0B2856"/>
<path d="M7.03125 10.8125L7.1875 6.8125L9.625 7.875C9.70833 8.34375 9.90625 9.45 10.0312 10.125C10.1562 10.8 8.08333 10.8646 7.03125 10.8125Z" fill="#0B2856"/>
<path d="M195.818 15.6915L195.865 15.6308L195.936 15.4792V15.3579L195.629 14.6605L195.511 14.145L195.535 13.8721L195.582 13.5992L195.723 13.3566L195.771 13.3161L196.006 13.114L196.431 12.9017L197.35 12.7198H198.152L199.99 12.932L200.462 12.8714L201.971 12.174H202.371L202.631 12.2953L202.796 12.5075L202.914 12.7501L203.031 13.2353L203.173 13.4476L203.338 13.6598L203.691 14.054L205.082 15.0547L205.247 15.2063L205.342 15.3276L205.436 15.5095L205.46 15.7521L205.412 16.6315L205.483 16.8741L205.742 17.0863L206.945 17.6019L207.746 18.0264L207.719 18.2723L207.77 18.2993L207.723 18.7238L207.322 19.3909L206.809 20.6815L206.827 20.8465L207.039 21.1194L207.393 21.2103H207.817H208.218L208.595 21.1496L209.066 21.2103L209.561 21.3923L210.363 22.029L210.622 22.4233L210.606 22.6353L210.646 22.6962L210.622 22.9994L210.41 23.1813L210.198 23.3633L209.986 23.6058L209.844 24L209.797 25.6072L209.703 25.9104L209.561 26.153L209.396 26.3956L209.279 26.7898L209.184 27.275L209.297 30.9463L209.373 31.3383L209.585 31.6415L209.868 31.7931L210.174 31.9144L210.552 32.1873L210.976 32.5815L211.424 33.4609L211.402 33.6443L211.448 33.7338L211.4 34.128L211.141 34.3403L207.958 34.5829L205.2 35.1287L204.776 35.2803L204.187 35.5532L203.906 35.7938L203.974 35.9474L204.446 36.5539L205.672 37.9488L206.261 38.7978L206.426 39.1011L206.568 39.4952L206.78 40.1927L206.771 40.3579L206.803 40.4656L206.78 40.8901L206.662 41.1934L206.237 41.5875L205.365 42.194L205.177 42.376L204.965 42.6489L204.763 43.1663L204.776 43.2553L204.941 43.4676L205.2 43.5889L205.766 43.7102L211.966 44.2257L211.914 44.4923L211.949 44.4952L211.943 44.5289L211.919 45.3476L211.99 45.8934L212.037 46.1361L212.155 46.3786L212.32 46.5606L212.579 46.7122L213.687 47.2883L214.135 47.5916L214.3 47.8038L214.394 48.0161L214.371 48.289L214.288 48.4595L214.276 48.5922L214.159 48.8348L213.855 49.3154L213.876 49.502L213.923 49.6232V49.6839L214.017 49.8355L214.418 50.4116L214.583 50.5936L214.819 50.8968L214.913 51.0484L214.984 51.2607L215.031 51.5032L215.007 51.7762L214.889 52.3826L214.851 52.3987L214.795 52.6859L204.497 56.9698V57.0091L204.521 57.2517L204.615 57.4942L204.756 57.7369L204.945 57.9491L205.228 58.3736L205.322 58.6162V58.8588L205.228 59.077V59.162L205.11 59.435L204.803 59.6472L204.167 59.7988L202.753 59.8898L202.328 59.8595L201.951 59.7988L201.715 59.6472L201.574 59.435L201.126 58.5556L200.348 57.4942L200.136 57.3123L199.924 57.282L199.641 57.373L199.533 57.6299L199.429 58.1007L199.389 58.1564L199.334 58.4039L199.099 58.7375L197.967 59.7685L197.731 60.1324L197.726 60.143L197.755 60.2537L197.873 60.4659L198.014 60.6782L198.179 60.8905L198.391 61.1027L198.674 61.2543L198.981 61.3756L199.358 61.4969L199.782 61.5576H202.281L202.635 61.5879L202.941 61.7092L203.177 61.8608L198.382 61.4513L198.58 61.5576L198.886 61.6789L199.264 61.8002L199.688 61.8608H202.187L202.54 61.8911L202.847 62.0124L203.083 62.164L197.652 61.7002L197.778 62.0731L197.849 62.4673L197.826 62.6492L197.802 62.8918L197.71 63.1731L197.708 63.195L197.519 63.7712L196.413 63.7186L196.16 64.3691L196.083 64.8405V65.1134L196.13 65.3863L196.224 65.6289L196.342 65.8715L196.767 66.478L198.839 69.6539L198.981 69.9268L198.957 70.1087L198.879 70.2153L198.886 70.23L198.863 70.412L198.462 70.9578L198.344 71.261L198.25 71.5643L198.085 71.8068L197.755 71.9585L196.743 70.5716L196.319 70.5109L195.376 70.1774L194.999 70.1167L194.598 70.2077L194.15 70.3896L192.052 72.0878L191.651 72.3L191.132 72.4516L190.048 72.6033H188.327L188.115 72.5426L187.29 71.8755L187.007 71.8149L186.653 71.9058L186.3 72.3L185.663 73.4826L183.848 76.1207L182.575 77.3034L182.436 77.5117L182.457 77.7279L182.528 77.9401L182.646 78.1524L182.764 78.5163L182.858 79.1228L183.023 79.335L183.282 79.4563L183.659 79.4866L184.791 79.3653H185.192L185.569 79.426L189.907 81.0634L193.396 83.0648L193.561 83.2771L193.584 83.4893L193.49 83.7319L193.484 83.7394L193.49 83.7926L193.396 84.0351L193.231 84.2474L192.618 84.8842L191.321 85.9152L191.132 86.0971L191.038 86.2487V86.5823L190.944 86.7036V86.8855L190.85 87.0068L188.846 86.1881L188.351 85.9152L187.879 85.5816L187.478 85.1874L187.148 84.9751L187.054 84.9145L186.795 84.9751L186.37 85.1268L185.592 85.6119L185.333 85.9758L185.313 86.0286L185.357 86.7945L185.475 87.31L185.569 87.5526L185.71 87.7649L185.923 87.9468L186.205 88.0681L186.583 88.0984L189.223 88.0681L189.553 88.1288L189.812 88.2197L190.024 88.3714L190.213 88.5533L190.284 88.7959L190.135 88.911L190.189 89.0991L189.836 89.372L189.058 89.6449L186.04 90.2211L185.121 90.6153L183.518 91.8282L182.764 92.0405L175.526 92.9198L175.196 93.0715L174.917 93.3351L174.913 93.3747L175.008 93.6173L175.243 93.7689L175.526 93.8902L175.833 93.9812L176.398 94.1024L178.167 94.1631L182.174 93.8599L182.669 93.9812L183.353 94.2237L183.73 94.2541L184.484 94.2237L184.791 94.2541L184.932 94.4057L184.655 94.5532L184.697 94.5573L184.838 94.7089L184.154 95.0728L182.858 95.5276L177.106 96.9528L176.846 97.1045L176.54 97.2257L176.068 97.2864L172.414 97.2257L168.43 97.6199H167.629L167.417 97.5896L167.134 97.4683L166.639 97.1651L166.427 96.9832L165.908 96.3767L165.696 96.1947L165.436 96.0431L165.106 95.8915L163.409 95.558L163.032 95.4367L162.749 95.2851L162.513 95.1334L161.877 95.0425L158.954 95.1638L158.199 95.0425L157.633 94.9212L157.351 94.7696L156.714 94.7393L156.337 94.6179L156.077 94.4663L155.865 94.3147L155.535 94.1934H155.158L154.852 94.2844L154.828 95.6793L154.734 96.0129L154.616 96.2858L154.427 96.4677L154.239 96.6193L153.861 96.8316L153.178 97.2561L150.561 97.4077L149.807 97.3167L149.335 97.1651L149.194 96.9528L148.864 96.5283L148.628 96.3464L148.298 96.2554L147.897 96.2251L146.294 96.3464L143.819 96.8012L143.277 97.0135L142.711 97.438L141.603 99.5L141.414 99.7426L141.037 99.9245L140.448 100.016L138.515 99.9245L134.153 98.9542H133.328L132.338 99.0755L131.867 99.1968L131.419 99.3787L130.829 99.7729L130.547 100.076L130.358 100.41L129.651 101.714L128.943 102.654L128.731 102.836L128.26 103.2L127.741 103.503L126.468 103.867L125.027 103.64L121.402 101.64L110.527 103.359L110.438 102.775L110.06 99.8638L111.428 97.6806L113.385 95.6489L114.893 93.1928L115.27 91.7979L115.2 90.7366L114.398 90.0391L110.673 89.6146L112.347 90.3424L112.724 91.8585L112.041 93.9205L110.721 95.7702L109.117 96.589L107.302 96.9832L105.746 98.0141L104.803 99.5303L104.874 101.41L104.62 103.234L98.4016 101.64L94.4954 101.609L89.9954 104.64L81.0266 102.797L71.9641 103.828L68.0579 103.922L65.3812 103.083L65.3576 102.719L65.0276 102.052L64.509 96.4424L64.226 95.7753L62.953 95.1082L61.9393 94.7443L61.68 94.5927L61.4443 94.3501L60.6191 93.1069L59.9827 92.5004L59.4876 92.1365L56.4465 90.8023L55.8807 90.2564L55.2442 89.3468L54.6313 87.8306L54.5134 87.1938L54.6785 86.8602L54.9378 86.7996L58.7096 86.648L59.0633 86.5267L59.3226 86.4054L60.077 85.526L60.2891 85.3441L60.6191 85.2531L60.9963 85.2228L61.3735 85.2531L61.68 85.3441L62.1986 85.617L62.5286 85.6777L62.8587 85.617L63.5659 85.4654L68.0922 85.2834L68.4694 85.2228L68.7994 85.0712L69.2002 84.4344L69.4124 84.2221L69.6717 84.0705L71.2512 83.6156L71.4869 83.464L71.6048 83.3428L72.0527 82.4937L72.4535 81.4324L72.7834 80.9775L73.1843 80.6137L73.5615 80.4317L74.0329 79.9465L74.1508 79.522L74.1979 79.0368L74.1508 78.3091L74.9288 77.1265L74.8817 76.6413L74.7402 76.3078L74.4337 76.1258L74.0801 76.0652L72.8307 76.0045L72.4063 75.9439L72.2177 75.7922L72.0056 75.4587L71.6755 74.8219L71.4398 74.4883L71.2276 74.2458L71.039 74.0638L70.2374 73.5787L69.931 73.336L69.6245 73.0025L69.2945 72.3354L69.0588 72.0018L68.8466 71.8502H68.0922L67.385 72.0018L66.3477 72.2444L65.994 72.3051L65.6641 72.3657L65.334 72.3051L65.0747 72.1838L64.2732 71.7289L63.5895 71.4863L61.7979 71.1831L61.3972 71.0618L61.0671 70.8799L60.7842 70.6373L60.7134 70.3341L60.6899 70.0308L60.7842 69.4547L60.9492 68.9089L61.1614 68.6966L61.4208 68.5753L61.7743 68.5147L62.5051 68.3934L63.1652 68.1811L63.4244 68.0598L64.4618 67.3624L64.6739 67.0288L64.9333 66.5437L64.7682 65.9372L64.6032 65.543L64.0375 64.7243L63.896 64.603L63.7545 64.4817L63.5659 64.3604L63.3773 64.3907L57.4838 65.2094L55.2207 65.8765L54.8199 65.8462L54.3484 65.6339L53.5233 64.7546L53.2875 64.603L52.9575 64.512L49.9871 64.33L46.4745 57.5376L46.121 56.355L47.0168 54.8388L47.5119 53.7169L47.7004 53.1104L47.7947 52.3523L47.7711 51.8368L47.8419 51.4426L47.889 51.4123L48.4312 51.2304L48.6669 51.0788L48.8084 50.8361L48.9027 50.5632L48.9498 49.8658L48.6669 48.38L48.3134 47.9858L47.2525 47.167L46.451 46.1967L46.0224 45.8108L45.5787 45.6205L43.0563 45.5599L42.7263 45.4083V45.391L42.632 45.3476V45.1354L42.797 44.9231L42.962 44.5289L43.0563 43.9528L42.8441 42.7398L42.6111 42.2604L42.3491 42.103L38.2235 42.7095L37.9171 42.8308L37.7285 43.0431L37.6106 43.316L37.2334 44.4986L36.8798 44.9838L36.6205 45.1354L36.3848 45.287H36.0783L35.7247 45.1354L35.6462 45.0815L35.6304 45.0747L35.2767 44.8321L34.876 44.2863L34.5931 43.0431L34.3199 42.7728L33.9802 42.6185L31.3398 42.5882L30.8684 42.5276L30.3969 42.4063L29.454 41.9211L29.006 41.7999L28.6052 41.7695L28.2752 41.8605L27.568 42.376L26.4365 42.9218L25.8 43.134L25.4464 43.1644L25.0692 43.134L24.7391 43.0128L24.6825 42.966L24.6448 42.9521L24.3148 42.6792L24.1262 42.5579L23.7961 42.4669H23.4189L20.0478 42.8308L19.7177 42.7702L19.634 42.7115L19.6235 42.7095L19.3641 42.5276L18.7166 42.0556L18.4448 41.9211L16.7238 41.345L16.0166 40.9811L15.9984 40.9596L15.9223 40.9205L15.6393 40.5869L15.4272 40.314L15.1915 39.6469L14.72 38.7675L14.6021 38.4642L14.5786 38.1913L14.6257 37.9184L14.7672 37.6455L15.2858 36.9784L15.4744 36.7055L15.5451 36.3719L15.4979 35.8868L15.3094 35.6139L15.0933 35.3915L14.2721 34.9468L14.1779 34.8862L14.1778 34.8861L13.282 34.31L13.1877 34.2493L12.9991 33.9158L12.9519 33.6125L13.0933 33.3699L13.3055 33.1577L14.0835 32.6725L14.2957 32.4906L14.4371 32.3086L14.5079 32.157V31.8538L14.1778 30.7621L13.85 30.481L13.5413 30.3073L11.6082 29.7918L10.8303 29.4885L10.7451 29.4315L10.736 29.4279L9.60437 28.6698L9.29791 28.3363L9.13293 28.0937L9.01508 27.7601L8.92065 27.5479L7.27057 19.9974L7.10553 19.6638L6.89337 19.4212L5.50244 18.3599L4.77167 17.6019L4.52201 17.4145L4.32373 17.2986L4.01727 17.147L2.22565 16.8134L1.75409 16.6315L1.71464 16.592L1.65979 16.5708L1.44769 16.3586L1.35333 16.1463L1.32977 15.5095L1.37695 15.2366L1.44769 14.994L2.03699 14.3876L2.10773 14.145L2.15485 13.9024L2.10773 13.6598L2.17841 12.7198L2.15485 12.3256L1.93424 12.1192L1.09406 11.7494L1.08935 11.7282L0.999756 11.6888L0.952637 11.4765L1.0705 11.2643L1.58911 10.9914L1.89557 10.8701L4.39447 10.1727L5.50244 10.2636L5.78534 10.203L6.25684 9.83912L6.53973 9.71781L6.91693 9.65717L7.31769 9.6875L7.71844 9.77845L7.95416 9.80875L8.3078 9.74811L8.56714 9.5662L8.66138 9.26294L8.63782 8.86875L8.33398 8.67334L7.60052 8.41391L7.36487 8.20166L7.29413 7.89841L7.22333 6.65516H9.25073L9.84015 6.53385L10.1701 6.13965L10.6652 4.8964L11.1132 4.62351L22.3109 4.68412L22.924 4.77512L23.584 4.80542L24.1733 4.86609L27.3558 5.62415L30.1847 6.01835H30.8919L31.3634 5.9274L31.552 5.74546L31.6935 5.56348L31.9764 4.98737L32.1414 4.77512L32.7543 4.5022L33.7209 4.19895L37.092 3.50153L37.9171 3.44089L40.0153 3.71378L42.2312 3.68348L43.1977 3.77445L43.8107 3.92603L43.8542 4.00448L43.905 4.01703L44.0228 4.22931L44.07 4.47187L44.216 4.71341L44.4471 4.8964L45.2015 5.10868L45.673 5.07834L45.9796 4.92673L46.451 4.04734L46.6631 3.83509L46.9932 3.5925L47.6769 3.28928L48.1719 3.22861L48.6198 3.25895L48.9498 3.38022L49.2092 3.53183L49.4213 3.71378L49.437 3.7373L49.5157 3.80478L49.6572 4.01703L49.7043 4.28995L49.7513 4.53251L49.891 4.7891L50.1993 4.98737L51.1423 5.22995L51.7317 5.26029L52.2031 5.22995L52.5096 5.10868L52.7689 4.98737L53.0046 4.77512L53.4055 4.5022L54.0184 4.22931L56.2814 3.74411L56.8237 3.5622L57.0594 3.38022L57.2245 3.13767L57.413 2.86475L57.6016 2.25831L58.1439 1.86408L59.1104 1.46988L61.6328 0.924041L63.1417 0.802734L68.3986 1.10599L69.5538 1.37891L70.8268 1.46988L71.4633 1.59116L71.8876 1.71247L71.9583 1.80344L72.0527 1.92475L72.1234 2.01569L72.1941 2.25831L72.3826 4.10801L72.4228 4.31417L72.642 4.5022L73.1135 4.68412L74.7637 4.98737L75.1409 5.13898L75.2116 5.22995L75.2352 5.26029L75.2823 5.44223L75.2812 5.46831L75.2823 5.47254L75.2352 6.59452V6.8371L75.3531 7.04938L75.5181 7.2313L75.683 7.38291L75.8481 7.50419L76.0839 7.62549L76.7911 7.83774L83.6041 8.47455L84.1464 8.41391L85.3957 7.86811L86.5273 7.53455L86.8574 7.62549L87.0695 7.7771L87.1874 8.01972L87.376 8.26227L87.6824 8.47455L88.2718 8.6868L88.7197 8.71714L89.0733 8.6565L89.3326 8.50486L89.9456 8.32294L90.8885 8.14103L94.8962 7.92875L95.2026 7.95905L95.4619 8.08036L95.6505 8.26227L95.7684 8.50486L95.8627 9.02036L95.6505 10.5062L95.5563 10.8094L95.4384 11.052L95.4191 11.0735L95.4148 11.0823L95.0615 11.4761L95.0611 11.4765L94.9669 11.5979L94.9433 11.8101L95.0376 12.0527L95.4148 12.3256L95.8391 12.4165H96.2399L96.5699 12.3559L96.8057 12.174L96.9235 11.901L96.9706 11.6281L97.0178 10.7791L97.1592 10.4455L97.3951 10.1727L98.0079 9.89975L98.0279 9.90136L98.0315 9.89975L98.4087 9.93006L98.6916 10.0816L98.951 10.3546L99.3045 10.4152H99.6581L100.79 10.2636L101.096 10.1727L101.332 10.021L101.403 9.80875L101.355 9.05069L101.403 8.77778L101.544 8.53519L101.78 8.35328L102.157 8.20166L103.383 7.86811L103.402 7.86938L103.406 7.86811L103.854 7.89841L104.184 8.01972L105.127 8.74747L105.575 8.89908L106.275 9.07921L107.084 8.99006L107.096 8.99129L107.108 8.99006L107.721 9.05069L108.216 9.20231L108.899 9.53586L109.371 9.62687L109.804 9.65616L112.648 9.32361L112.664 9.32443L112.671 9.32361L113.284 9.35395L113.685 9.47519L113.85 9.6875L114.345 10.8398L114.628 11.2643L114.746 11.5069L114.793 11.7494L114.816 12.0224L114.769 12.3559L114.675 12.6288L114.534 12.8714L114.345 13.0837L114.086 13.2353L113.213 13.6295L110.337 14.4785L110.102 14.5998V14.8121L110.196 15.0243L111.162 16.1766L111.21 16.207L113.567 18.7238L114.486 19.4819L115.359 20.0277L115.721 20.0568L117.527 19.8154L117.539 19.817L117.551 19.8154L118.023 19.8761L118.353 19.9974L118.73 20.3613L119.036 20.7858L119.107 21.0284L119.154 21.3013L119.248 21.5439L119.366 21.7561L119.531 21.9684L119.743 22.1503L121.323 23.3633L121.488 23.5755L121.629 23.7878L121.7 24.0304L121.724 24.273L121.677 24.5459L121.559 24.7885L121.394 25.0311L120.144 26.2439L119.956 26.4563L119.814 26.6988L119.743 26.9717L119.814 27.2143L119.932 27.4569L120.521 28.0331L120.686 28.2453L120.757 28.4879L120.781 28.7608L120.734 29.064L120.663 29.337V29.6705L120.757 30.0041L121.087 30.3679L121.488 30.4892L121.91 30.5496L128.277 30.4589L128.631 30.3983L128.89 30.277L129.008 30.0343L129.102 29.7615L129.197 29.4885L129.692 29.337L130.493 29.246L130.507 29.2471L130.517 29.246L133.157 29.4582L133.747 29.6098L134.548 30.095L136.269 30.6712L136.599 30.8228L136.858 30.9744L137.047 31.1564L137.707 31.9751L137.99 32.3996L138.367 32.6725L138.956 33.0061L140.395 33.4912L141.172 33.6429L141.799 33.7025L142.587 33.6429L143.247 33.4609L143.53 33.3093L144.025 32.9758L144.826 32.157L145.746 30.9138L147.302 29.246L147.538 29.0337L147.773 28.8821L148.08 28.7305L148.716 28.5486L151.38 28.2756L151.392 28.2768L151.404 28.2756L152.63 28.3969L153.455 28.5486L155.435 29.337L156.732 30.186L157.092 30.215L157.415 30.1557L158.264 29.9131L158.995 29.7615L159.013 29.7626L159.018 29.7615L159.49 29.7918L159.914 29.8525L160.244 29.9737L165.077 31.035L165.817 31.0946L178.443 29.6402L178.773 29.5795L178.962 29.3976L179.033 29.155L179.104 28.0634L179.08 27.7905L179.127 27.2446L179.245 26.9717L179.504 26.8201L181.013 26.6079L181.296 26.5169L181.437 26.335L181.414 26.1227L181.202 25.9711L180.989 25.8498L180.754 25.6981L180.736 25.6716L180.73 25.6678L180.589 25.4556V25.1827L180.659 24.6065L180.636 24.3336L180.544 24.0982L180.047 23.5452L180.036 23.5295L180.023 23.5149L179.881 23.3026L179.787 23.06L179.811 22.8175L179.929 22.5748L179.982 22.5229L180.023 22.4535L180.211 22.2716L180.494 22.12L181.202 21.9987L183.182 21.8471L183.512 21.7561L183.71 21.6401L183.771 21.4832L183.795 21.2103L183.771 20.6948L183.677 20.4826L183.394 20.3613L182.145 20.24L181.791 20.149L181.532 19.9974L181.343 19.8154L181.249 19.5729L181.178 19.2999L181.202 19.0271L181.272 18.7238L181.39 18.4509L181.532 18.2083L181.588 18.1519L181.626 18.087L181.838 17.8748L182.05 17.6625L182.286 17.5108L182.852 17.238L183.771 16.9044L186.765 16.5102L188.18 16.1463H188.58L188.863 16.2676L189.075 16.4799L189.618 17.056L189.924 17.2683L190.348 17.4805L191.174 17.7231H191.645L191.999 17.6625L192.174 17.4871L192.282 17.329L192.541 16.7831L192.706 16.5405L192.725 16.5291L192.8 16.4192L193.06 16.2676L195.323 15.9341L195.582 15.8431L195.818 15.6915Z" fill="#1C4587"/>
<defs>
<linearGradient id="paint0_linear" x1="63.9997" y1="-228" x2="62.4003" y2="126.957" gradientUnits="userSpaceOnUse">
<stop stop-color="#3A90B6"/>
<stop offset="1" stop-color="#075F92"/>
</linearGradient>
<linearGradient id="paint1_linear" x1="64.0006" y1="-228" x2="62.4011" y2="126.957" gradientUnits="userSpaceOnUse">
<stop stop-color="#3A90B6"/>
<stop offset="1" stop-color="#075F92"/>
</linearGradient>
</defs>
</svg>
