<svg width="219" height="213" viewBox="0 0 219 213" fill="none" xmlns="http://www.w3.org/2000/svg">
<path opacity="0.1" d="M108.449 23.0073L112.81 21.5821L114.484 21.3395L115.662 21.0666L116.393 21.0969L116.794 21.2485L118.02 21.8853L118.35 22.0976L118.538 22.3098L119.39 22.9904L119.694 23.1589L120.023 23.2499H120.424L120.849 23.0983L121.155 22.9163L122.9 20.9453L123.3 20.5511L123.56 20.3995L123.913 20.3691L124.361 20.4601L125.304 21.0363L125.681 21.2182L126.106 21.2789L126.719 21.1576L127.685 20.7634L127.874 20.7027L128.958 20.4904L130.113 22.0066L131.127 23.735L132.424 25.1299L134.993 25.9789L150.222 26.6461L150.293 27.8894L150.364 28.1926L150.599 28.4049L151.778 28.8294L151.872 28.9507L151.896 29.3448L151.802 29.6481L151.542 29.83L151.189 29.8907L150.953 29.8603L150.552 29.7694L150.151 29.7391L149.869 29.8603L149.586 29.9817L149.114 30.3455L148.831 30.4062L147.723 30.3152L145.13 30.952L144.824 31.0733L144.399 31.4069L144.281 31.6191L144.329 31.8314L145.13 32.1649L145.389 32.4076L145.413 32.8017L145.342 33.7417L145.389 33.9843L145.342 34.2269L145.272 34.4695L144.682 35.076L144.612 35.3186L144.586 35.6115L144.588 36.2283L144.682 36.4405L144.989 36.7134L145.366 36.8347L147.252 37.2289L147.558 37.3805L147.818 37.5322L148.006 37.6838L148.737 38.4419L150.128 39.5032L150.34 39.7457L150.505 40.0793L152.155 47.6298L152.25 47.8421L152.367 48.1756L152.532 48.4182L152.933 48.8124L153.971 49.5099L154.748 49.8131L156.776 50.3893L157.153 50.6015L157.507 50.9047L157.837 51.9964V52.2996L157.672 52.3906L157.492 52.5919L157.318 52.7545L156.54 53.2396L156.328 53.4519L156.186 53.6944L156.234 53.9977L156.517 54.3919L157.412 54.9681L158.308 55.4532L158.544 55.6958L158.732 55.9687L158.874 56.5145L158.803 56.8481L158.615 57.121L158.096 57.7881L157.955 58.061L157.907 58.3339L157.931 58.6069L158.049 58.9101L158.52 59.7895L158.756 60.4566L158.968 60.7295L159.251 61.063L159.864 61.3663L161.679 62.003L161.986 62.1547L162.693 62.6702L162.952 62.8521L163.282 62.9128L166.654 62.5489H167.031L167.361 62.6399L167.549 62.7612L167.879 63.034L168.209 63.1553L168.587 63.1857L169.035 63.216L169.671 63.0037L170.803 62.4579L171.51 61.9424L171.84 61.8514L172.241 61.8818L172.689 62.003L173.537 62.4276L174.009 62.5489L174.48 62.6095L177.12 62.6399L177.521 62.8218L177.828 63.125L178.111 64.3683L178.606 64.9747L178.959 65.2173L179.219 65.3083H179.525L179.761 65.1567L180.02 65.0051L180.374 64.5199L180.751 63.3373L180.869 63.0644L181.057 62.8521L181.364 62.7308L185.489 62.1243L185.843 62.3366L186.173 62.8824L186.385 64.0954L186.291 64.6715L186.126 65.0657L185.961 65.278V65.4902L186.197 65.5812L188.719 65.6418L189.308 65.9148L189.78 66.3393L190.581 67.3097L191.642 68.1283L191.644 68.1308L191.66 68.1427L191.996 68.5226L192.279 70.0084L192.232 70.7058L192.137 70.9787L191.996 71.2213L191.76 71.3729L191.218 71.5549L191.171 71.5852L191.1 71.9794L191.124 72.4949L191.029 73.253L190.841 73.8595L190.837 73.8674L190.832 73.8849L190.346 74.9814L189.45 76.4976L189.803 77.6802L193.222 84.5029L196.192 84.5939L196.428 84.6243L196.522 84.6849L196.758 84.8365V84.8367L196.852 84.8972L197.643 85.74L197.96 85.8675L198.361 85.8978L200.624 85.2307L206.518 84.412L206.8 84.4423L206.895 84.5029L206.989 84.5636L207.083 84.6243L207.225 84.7456L207.366 84.8668L207.932 85.6856L208.097 86.0798L208.262 86.6862L208.003 87.1714L207.791 87.505L206.753 88.2024L206.494 88.3237L205.834 88.536L205.103 88.6572L204.75 88.7179L204.49 88.8392L204.278 89.0515L204.113 89.5973L204.019 90.1734L204.042 90.4766L204.113 90.7799L204.368 90.9982L204.632 91.1438L205.032 91.265L206.824 91.5683L207.508 91.8109L208.309 92.2657L208.569 92.387L208.899 92.4477L209.229 92.387L209.582 92.3264L210.525 92.0232L211.232 91.8715H211.987L212.074 91.9322H212.081L212.388 92.1444L212.623 92.478L212.953 93.1451L213.26 93.4787L213.547 93.7063L214.274 94.1458L214.283 94.1552L214.368 94.2064L214.556 94.3884L214.769 94.6309L215.004 94.9645L215.24 95.5406L215.452 95.8742L215.658 96.0282L216.065 96.0864L217.315 96.1471L217.668 96.2077L217.975 96.3897L217.977 96.396L218.069 96.4503L218.211 96.7839L218.258 97.2691L217.48 98.4517L217.527 99.1794L217.48 99.6646L217.362 100.089L216.89 100.574L216.513 100.756L216.112 101.12L215.782 101.575L215.382 102.636L214.934 103.485L214.816 103.607L214.58 103.758L213 104.213L212.741 104.365L212.529 104.577L212.128 105.214L211.798 105.365L211.421 105.426L206.895 105.608L206.188 105.76L205.857 105.82L205.528 105.76L205.009 105.487L204.702 105.396L204.325 105.365L203.948 105.396L203.618 105.487L203.406 105.669L202.651 106.548L202.392 106.669L202.038 106.791L198.267 106.942L198.007 107.003L197.842 107.336L197.96 107.973L198.573 109.489L199.21 110.399L199.649 110.851L202.722 112.218L202.787 112.266L202.816 112.279L203.312 112.643L203.854 113.189L204.679 114.432L204.902 114.662L205.08 114.766L206.093 115.129L207.461 115.857L207.464 115.87L207.555 115.918L207.744 116.524L208.262 122.135L208.592 122.802L208.71 123.226L208.618 123.203L207.344 122.881L197.765 124.35L184 127.569L176 130.475L179.062 134.85L177.437 139.319L172.625 142.569L168.094 148.475L163.969 153.256L158.781 158.163L151.406 163.1L140.187 172.35L131.25 176.975L114.469 185.506L105.187 190.381L99.656 194.444L108.375 206.1L106.781 210.35L107.125 212.631L101.375 211.288L97.156 202.663L88.781 200.319L85.3123 198.944L79.8748 199.319L72.031 199.663L56.781 205.194L38.1873 209.131L35.7185 212.756L30.9685 211.788L24.781 211.194L11.8435 207.288L0.687256 197.6L2.87476 195.069L5.74976 193.413L12.6873 193.85L21.5935 195.475L20.6248 192.756L23.9685 190.381L21.9373 184.788L21.7185 181.756L27.0623 180.85L33.8748 177.788L34.5935 175.319L40.5623 174.131L38.656 168.256L48.4998 164.163L54.0623 163.35L55.8748 160.506L59.9685 150.975L52.156 146.756L55.2185 142.194L50.781 133.975L57.3123 133.694L63.656 130.35L71.781 127.538L72.4685 136.6L69.8123 138.631L83.2498 136.163L85.3435 132.725L89.6248 133.194L94.6248 136.506L95.7498 140.1L102.562 140.163L101.719 135.319L117.281 140.881L120.906 137.6L124.344 138.819L121.719 127.475L121.594 121.788L123.594 118.881L123.469 114.85L120.781 111.225L118.719 110.256L108.062 107.631L105.875 103.037L100.219 101.537L95.4998 102.412L96.8435 98.5685L97.6873 95.9748L98.3123 92.0998L93.8123 92.256L91.656 91.2248L96.1248 89.5998L94.0935 82.0685L97.4373 81.5373L95.6248 74.1623L85.5935 79.4123L82.3748 75.7873L79.156 74.131L77.8435 69.006L74.531 69.9435L72.4998 68.131L70.031 69.9123L68.7498 64.5373L63.6248 61.9748L69.9685 50.9748L74.7185 45.5373L70.8435 39.9748L67.9373 32.9435L53.3748 33.756L50.2185 35.0685L47.3123 32.506L44.3435 30.6623L49.0333 29.4182L50.6127 28.7511L51.485 27.993L52.4751 27.3259L53.0173 27.053L53.1348 27.0953L53.1587 27.0833L55.954 28.0908L56.7786 27.6783L56.9908 27.4963L57.1087 27.2537V27.0111L57.0851 26.7382L59.2961 26.5551L59.2255 26.0396L59.3198 25.7971L59.5083 25.6151L59.8384 25.4635L61.9601 24.948L62.5494 24.857H63.0681L63.8224 25.039L64.3646 25.2512L64.5296 25.4331L64.7418 25.6151L66.2035 26.4338L67.005 26.7977L67.4057 26.9796L67.9008 27.4951L68.6316 27.7983L72.2856 28.799L73.6919 29.3242L74.148 29.3752L80.7016 29.3448L87.7739 27.5558H88.8584L88.9243 27.5861H88.9998L89.3298 27.7377L89.6127 27.9196L92.3945 29.072L93.196 29.2235L98.6653 29.5268L102.767 29.2842L103.474 29.1326L103.828 29.1023L104.182 29.1326L104.842 29.3448H105.195L105.549 29.2235L106.822 26.919L106.963 26.4944L106.94 26.1609L106.775 25.9487L106.61 25.7364L105.125 24.4931L104.795 24.0686L104.7 23.8563L104.771 23.5531L105.101 23.2802L105.95 22.9467L106.657 23.0073L107.105 23.1286L107.859 23.0983L108.449 23.0073Z" fill="#333333"/>
<path d="M44.375 10.7188L44.3438 21.9688L47.2219 24.073V11.4535L44.375 10.7188ZM53.2759 12.7847V25.4042L67.9076 24.5494V11.9299L53.2759 12.7847ZM50.2812 14.1383V26.7577L53.2759 25.4069V12.7874L50.2812 14.1383ZM47.2219 11.4535V24.073L50.2812 26.7577V14.1383L47.2219 11.4535ZM67.9076 11.9299V24.5494L70.7874 31.6033V18.9781L67.9076 11.9299ZM70.7845 18.981V31.6061L74.7326 37.1549V24.5354L70.7845 18.981ZM63.6342 40.9607V53.5802L68.8273 56.3042V43.6847L63.6342 40.9607ZM69.9825 48.9085V61.528L72.5034 59.8521V47.2327L69.9825 48.9085ZM68.8273 43.6875V56.307L69.9825 61.5308V48.9113L68.8273 43.6875ZM74.6429 48.9478V61.5672L77.7582 60.6733V48.0537L74.6429 48.9478ZM72.5034 47.2327V59.8521L74.6401 61.5672V48.9478L72.5034 47.2327ZM77.7582 48.0537V60.6733L79.1519 65.7457V53.1263L77.7582 48.0537ZM79.1519 53.1234V65.7429L82.3822 67.416V54.7965L79.1519 53.1234ZM82.3822 54.7993V67.4188L85.59 71.0621V58.4425L82.3822 54.7993ZM85.59 58.4397V71.0593L95.5865 65.7429V53.1234L85.59 58.4397ZM95.5865 53.1234V65.7429L97.3979 73.1752V60.5555L95.5865 53.1234ZM94.1088 61.1105V73.73L95.3229 78.1326V65.5131L94.1088 61.1105ZM95.3229 65.5131V78.1326L96.1558 81.1846V68.5651L95.3229 65.5131ZM91.6132 70.1624V82.7876L93.7498 83.9449V71.3255L91.6132 70.1624ZM93.7498 71.3255V83.9449L98.3177 83.7012V71.0817L93.7498 71.3255ZM95.5865 81.392V94.0114L100.163 93.1736V80.554L95.5865 81.392ZM100.16 80.554V93.1736L105.855 94.7177V82.0981L100.16 80.554ZM105.858 82.0981V94.7177L108.053 99.2941V86.6747L105.858 82.0981ZM108.053 86.6747V99.2941L118.675 101.903V89.2838L108.053 86.6747ZM118.675 89.2838V101.903L120.812 102.856V90.2366L118.675 89.2838ZM120.812 90.2366V102.856L123.453 106.348V93.7256L120.812 90.2366ZM123.453 93.7256V106.348L123.481 110.426V97.806L123.453 93.7256ZM197.901 103.428V116.05L208.531 115.099V102.479L197.901 103.428ZM121.673 100.628V113.248L121.734 118.928V106.309L121.673 100.628ZM183.957 106.707V119.329L197.901 116.05V103.428L183.957 106.707ZM176.035 109.546V122.165L183.96 119.326V106.704L176.035 109.546ZM70.0414 117.552V130.172L72.5651 128.21L72.5 116.438L70.0414 117.552ZM121.734 106.306V118.926L124.227 130.385V117.765L121.734 106.306ZM177.544 118.202V130.822L179.089 126.456V113.836L177.544 118.202ZM101.688 115.375L101.702 127.03L102.563 131.758V119.139L101.688 115.375ZM50.875 114.062L50.6962 125.559L55.2051 133.72V121.1L50.875 114.062ZM172.712 121.518V134.137L177.544 130.822V118.202L172.712 121.518ZM170.099 125.007V137.626L172.71 134.137V121.518L170.099 125.007ZM168.08 127.697V140.317L170.099 137.626V125.007L168.08 127.697ZM52.1767 125.733V138.352L56.2426 140.521V127.902L52.1767 125.733ZM56.2454 127.902V140.521L59.9832 142.525V129.906L56.2454 127.902ZM163.863 132.366V144.986L168.08 140.317V127.697L163.863 132.366ZM158.675 137.363V149.982L163.863 144.986V132.366L158.675 137.363ZM155.532 139.456V152.076L158.678 149.982V137.363L155.532 139.456ZM151.435 142.222V154.842L155.532 152.079V139.459L151.435 142.222ZM146.982 145.86V158.48L151.435 154.839V142.22L146.982 145.86ZM143.424 148.761V161.38L146.982 158.482V145.863L143.424 148.761ZM38.5625 148.25L38.6499 159.875L39.3593 162.126V149.5L38.5625 148.25ZM140.365 151.238V163.858L143.424 161.38V148.761L140.365 151.238ZM39.3565 149.5V162.126L40.5482 165.766V153.146L39.3565 149.5ZM135.945 153.522V166.144L140.367 163.858V151.238L135.945 153.522ZM118.883 162.35V174.969L135.943 166.147V153.525L118.883 162.35ZM21.5625 161.75L21.7357 173.274L21.9405 176.499V163.88L21.5625 161.75ZM108.735 167.61V180.23L118.883 174.969V162.35L108.735 167.61ZM21.9405 163.877V176.497L23.9313 181.948V169.328L21.9405 163.877ZM105.025 169.516V182.135L108.735 180.23V167.61L105.025 169.516ZM99.6552 173.504V186.123L105.025 182.135V169.516L99.6552 173.504ZM20.5625 172.625L20.6674 184.408L21.5871 187.02V174.398L20.5625 172.625ZM79.9847 178.422V191.042L85.2058 190.658V178.038L79.9847 178.422ZM72.1501 178.685V191.305L79.9847 191.042V178.422L72.1501 178.685ZM85.2058 178.041V190.66L88.739 191.958V179.338L85.2058 178.041ZM0.75 177.5L0.637939 189.228L5.74133 193.824V181.205L0.75 177.5ZM88.739 179.336V191.955L97.1035 194.337V181.718L88.739 179.336ZM61.3488 182.48V195.099L72.1501 191.305V178.685L61.3488 182.48ZM56.7165 184.254V196.873L61.346 195.099V182.48L56.7165 184.254ZM5.73853 181.202V193.822L11.7925 198.93V186.311L5.73853 181.202ZM38.1115 188.275V200.895L56.7193 196.873V184.254L38.1115 188.275ZM106.836 189.307V201.926L108.53 197.734L108.375 186.188L106.836 189.307ZM97.1035 181.718V194.337L101.346 202.876V190.257L97.1035 181.718ZM11.7925 186.314V198.933L24.9688 203.014V190.394L11.7925 186.314ZM24.9688 190.394V203.014L30.8462 203.47V190.851L24.9688 190.394ZM101.346 190.257V202.876L107.223 204.306V191.686L101.346 190.257ZM30.8434 190.851V203.47L35.7982 204.538V191.919L30.8434 190.851ZM35.7982 191.919V204.538L38.1087 200.895V188.275L35.7982 191.919Z" fill="#0B2856"/>
<path d="M218.219 77L218.188 89.0313L217.219 92.125L214.938 95.3438L212.031 97.2813L207 97.5313L199.75 96.6875C197.271 95.0625 192.25 91.5625 192 90.5625C191.688 89.3125 191.25 84.75 192.938 83.6875C194.625 82.625 197.5 82.625 198.187 82.8125C198.737 82.9625 203.771 83.9375 206.219 84.4063L211.625 84.6563L214.094 82.9063L214.125 82.5625L216.688 80.2813L218.219 77Z" fill="#0B2856"/>
<path d="M208.125 73.375L208.25 66.75C205.854 66.7708 200.9 66.8625 200.25 67.0625C199.437 67.3125 197.75 71.6875 197.625 72C197.525 72.25 204.583 73.0208 208.125 73.375Z" fill="#0B2856"/>
<path d="M192.437 61.9375L192.344 50.0938C191.302 50.8853 189.156 52.575 188.906 53C188.594 53.5313 187.063 55.1562 186.75 56.7812C186.438 58.4062 184.125 63.5938 184.031 64.1875C183.956 64.6625 190.125 64.7604 193.219 64.75L192.437 61.9375Z" fill="#0B2856"/>
<path d="M186.438 46.7813L186.375 44.125C186.083 44.3021 185.438 44.6875 185.188 44.8125C184.875 44.9688 184.75 45.7813 184.781 45.9688C184.806 46.1188 185.896 46.5729 186.438 46.7813Z" fill="#0B2856"/>
<path d="M157.875 36.2179L157.781 32.2804C157.625 32.1554 157.106 31.9491 156.281 32.1241C155.25 32.3429 154.688 33.4366 154.156 33.7804C153.731 34.0554 153.229 35.0408 153.031 35.4991L157.875 36.2179Z" fill="#0B2856"/>
<path d="M151.906 16.0628V9.53157C149.948 9.01074 145.869 7.91907 145.219 7.71907C144.406 7.46907 144.344 8.40657 143.656 9.09407C142.969 9.78157 142.375 11.5941 141.563 12.7191C140.75 13.8441 141 17.0316 141.125 17.6566C141.225 18.1566 145.542 19.8649 147.688 20.6566C148.24 19.8128 149.369 18.1066 149.469 18.0316C149.569 17.9566 149.74 17.3336 149.813 17.0316L151.063 16.6253L151.906 16.0628Z" fill="#0B2856"/>
<path d="M104.844 9.90625L104.875 3.84375C105.177 3.90625 105.881 4.08125 106.281 4.28125C106.781 4.53125 107.719 5.15625 108.812 6.03125C109.906 6.90625 108.656 8.5 108.5 9.09375C108.375 9.56875 106.01 9.83333 104.844 9.90625Z" fill="#0B2856"/>
<path d="M57.0469 7.82812L57.0938 6.79688C57.3229 6.98957 57.7969 7.39687 57.8594 7.48438C57.9219 7.57187 57.3438 7.75 57.0469 7.82812Z" fill="url(#paint0_linear)"/>
<path d="M108.449 3.00732L112.81 1.58209L114.484 1.33951L115.662 1.06662L116.393 1.09692L116.794 1.24854L118.02 1.88535L118.35 2.0976L118.538 2.30985L119.39 2.99036L119.694 3.15891L120.023 3.24988H120.424L120.849 3.09827L121.155 2.91632L122.9 0.945313L123.3 0.551087L123.56 0.399506L123.913 0.369141L124.361 0.460144L125.304 1.03629L125.681 1.21823L126.106 1.27887L126.719 1.15756L127.685 0.763367L127.874 0.702728L128.958 0.490448L130.113 2.00665L131.127 3.73505L132.424 5.12991L134.993 5.97894L150.222 6.64609L150.293 7.88937L150.364 8.19257L150.599 8.40485L151.778 8.82938L151.872 8.95065L151.896 9.34485L151.802 9.6481L151.542 9.83002L151.189 9.89066L150.953 9.86035L150.552 9.76941L150.151 9.73907L149.869 9.86035L149.586 9.98166L149.114 10.3455L148.831 10.4062L147.723 10.3152L145.13 10.952L144.824 11.0733L144.399 11.4069L144.281 11.6191L144.329 11.8314L145.13 12.1649L145.389 12.4076L145.413 12.8017L145.342 13.7417L145.389 13.9843L145.342 14.2269L145.272 14.4695L144.682 15.076L144.612 15.3186L144.586 15.6115L144.588 16.2283L144.682 16.4405L144.989 16.7134L145.366 16.8347L147.252 17.2289L147.558 17.3805L147.818 17.5322L148.006 17.6838L148.737 18.4419L150.128 19.5032L150.34 19.7457L150.505 20.0793L152.155 27.6298L152.25 27.8421L152.367 28.1756L152.532 28.4182L152.933 28.8124L153.971 29.5099L154.748 29.8131L156.776 30.3893L157.153 30.6015L157.507 30.9047L157.837 31.9964V32.2996L157.672 32.3906L157.492 32.5919L157.318 32.7545L156.54 33.2396L156.328 33.4519L156.186 33.6944L156.234 33.9977L156.517 34.3919L157.412 34.9681L158.308 35.4532L158.544 35.6958L158.732 35.9687L158.874 36.5145L158.803 36.8481L158.615 37.121L158.096 37.7881L157.955 38.061L157.907 38.3339L157.931 38.6069L158.049 38.9101L158.52 39.7895L158.756 40.4566L158.968 40.7295L159.251 41.063L159.864 41.3663L161.679 42.003L161.986 42.1547L162.693 42.6702L162.952 42.8521L163.282 42.9128L166.654 42.5489H167.031L167.361 42.6399L167.549 42.7612L167.879 43.034L168.209 43.1553L168.587 43.1857L169.035 43.216L169.671 43.0037L170.803 42.4579L171.51 41.9424L171.84 41.8514L172.241 41.8818L172.689 42.003L173.537 42.4276L174.009 42.5489L174.48 42.6095L177.12 42.6399L177.521 42.8218L177.828 43.125L178.111 44.3683L178.606 44.9747L178.959 45.2173L179.219 45.3083H179.525L179.761 45.1567L180.02 45.0051L180.374 44.5199L180.751 43.3373L180.869 43.0644L181.057 42.8521L181.364 42.7308L185.489 42.1243L185.843 42.3366L186.173 42.8824L186.385 44.0954L186.291 44.6715L186.126 45.0657L185.961 45.278V45.4902L186.197 45.5812L188.719 45.6418L189.308 45.9148L189.78 46.3393L190.581 47.3097L191.642 48.1283L191.644 48.1308L191.66 48.1427L191.996 48.5226L192.279 50.0084L192.232 50.7058L192.137 50.9787L191.996 51.2213L191.76 51.3729L191.218 51.5549L191.171 51.5852L191.1 51.9794L191.124 52.4949L191.029 53.253L190.841 53.8595L190.837 53.8674L190.832 53.8849L190.346 54.9814L189.45 56.4976L189.803 57.6802L193.222 64.5029L196.192 64.5939L196.428 64.6243L196.522 64.6849L196.758 64.8365V64.8367L196.852 64.8972L197.643 65.74L197.96 65.8675L198.361 65.8978L200.624 65.2307L206.518 64.412L206.8 64.4423L206.895 64.5029L206.989 64.5636L207.083 64.6243L207.225 64.7456L207.366 64.8668L207.932 65.6856L208.097 66.0798L208.262 66.6862L208.003 67.1714L207.791 67.505L206.753 68.2024L206.494 68.3237L205.834 68.536L205.103 68.6572L204.75 68.7179L204.49 68.8392L204.278 69.0515L204.113 69.5973L204.019 70.1734L204.042 70.4766L204.113 70.7799L204.368 70.9982L204.632 71.1438L205.032 71.265L206.824 71.5683L207.508 71.8109L208.309 72.2657L208.569 72.387L208.899 72.4477L209.229 72.387L209.582 72.3264L210.525 72.0232L211.232 71.8715H211.987L212.074 71.9322H212.081L212.388 72.1444L212.623 72.478L212.953 73.1451L213.26 73.4787L213.547 73.7063L214.274 74.1458L214.283 74.1552L214.368 74.2064L214.556 74.3884L214.769 74.6309L215.004 74.9645L215.24 75.5406L215.452 75.8742L215.658 76.0282L216.065 76.0864L217.315 76.1471L217.668 76.2077L217.975 76.3897L217.977 76.396L218.069 76.4503L218.211 76.7839L218.258 77.2691L217.48 78.4517L217.527 79.1794L217.48 79.6646L217.362 80.0891L216.89 80.5743L216.513 80.7562L216.112 81.1201L215.782 81.575L215.382 82.6363L214.934 83.4853L214.816 83.6066L214.58 83.7582L213 84.2131L212.741 84.3647L212.529 84.577L212.128 85.2138L211.798 85.3654L211.421 85.426L206.895 85.6079L206.188 85.7596L205.857 85.8202L205.528 85.7596L205.009 85.4867L204.702 85.3957L204.325 85.3654L203.948 85.3957L203.618 85.4867L203.406 85.6686L202.651 86.548L202.392 86.6693L202.038 86.7906L198.267 86.9422L198.007 87.0029L197.842 87.3364L197.96 87.9732L198.573 89.4894L199.21 90.399L199.649 90.8513L202.722 92.2184L202.787 92.2658L202.816 92.2791L203.312 92.643L203.854 93.1888L204.679 94.4321L204.902 94.6618L205.08 94.7656L206.093 95.1294L207.461 95.8572L207.464 95.8698L207.555 95.9179L207.744 96.5244L208.262 102.135L208.592 102.802L208.71 103.226L208.618 103.203L207.344 102.881L197.765 104.35L184 107.569L176 110.475L179.062 114.85L177.437 119.319L172.625 122.569L168.094 128.475L163.969 133.256L158.781 138.163L151.406 143.1L140.187 152.35L131.25 156.975L114.469 165.506L105.187 170.381L99.656 174.444L108.375 186.1L106.781 190.35L107.125 192.631L101.375 191.288L97.156 182.663L88.781 180.319L85.3123 178.944L79.8748 179.319L72.031 179.663L56.781 185.194L38.1873 189.131L35.7185 192.756L30.9685 191.788L24.781 191.194L11.8435 187.288L0.687256 177.6L2.87476 175.069L5.74976 173.413L12.6873 173.85L21.5935 175.475L20.6248 172.756L23.9685 170.381L21.9373 164.788L21.7185 161.756L27.0623 160.85L33.8748 157.788L34.5935 155.319L40.5623 154.131L38.656 148.256L48.4998 144.163L54.0623 143.35L55.8748 140.506L59.9685 130.975L52.156 126.756L55.2185 122.194L50.781 113.975L57.3123 113.694L63.656 110.35L71.781 107.538L72.4685 116.6L69.8123 118.631L83.2498 116.163L85.3435 112.725L89.6248 113.194L94.6248 116.506L95.7498 120.1L102.562 120.163L101.719 115.319L117.281 120.881L120.906 117.6L124.344 118.819L121.719 107.475L121.594 101.788L123.594 98.881L123.469 94.8498L120.781 91.2248L118.719 90.256L108.062 87.631L105.875 83.0373L100.219 81.5373L95.4998 82.4123L96.8435 78.5685L97.6873 75.9748L98.3123 72.0998L93.8123 72.256L91.656 71.2248L96.1248 69.5998L94.0935 62.0685L97.4373 61.5373L95.6248 54.1623L85.5935 59.4123L82.3748 55.7873L79.156 54.131L77.8435 49.006L74.531 49.9435L72.4998 48.131L70.031 49.9123L68.7498 44.5373L63.6248 41.9748L69.9685 30.9748L74.7185 25.5373L70.8435 19.9748L67.9373 12.9435L53.3748 13.756L50.2185 15.0685L47.3123 12.506L44.3435 10.6623L49.0333 9.41818L50.6127 8.75107L51.485 7.99298L52.4751 7.32587L53.0173 7.05298L53.1348 7.09533L53.1587 7.08328L55.954 8.09079L56.7786 7.67828L56.9908 7.49634L57.1087 7.25372V7.01114L57.0851 6.73822L59.2961 6.55511L59.2255 6.03961L59.3198 5.79706L59.5083 5.61511L59.8384 5.4635L61.9601 4.948L62.5494 4.85703H63.0681L63.8224 5.03897L64.3646 5.25122L64.5296 5.43314L64.7418 5.61511L66.2035 6.43381L67.005 6.79773L67.4057 6.97964L67.9008 7.49515L68.6316 7.79834L72.2856 8.79904L73.6919 9.32417L74.148 9.37518L80.7016 9.34485L87.7739 7.55582H88.8584L88.9243 7.58609H88.9998L89.3298 7.7377L89.6127 7.91965L92.3945 9.07196L93.196 9.22354L98.6653 9.52679L102.767 9.28421L103.474 9.1326L103.828 9.10226L104.182 9.1326L104.842 9.34485H105.195L105.549 9.22354L106.822 6.91901L106.963 6.49445L106.94 6.16092L106.775 5.94867L106.61 5.73639L105.125 4.49313L104.795 4.0686L104.7 3.85635L104.771 3.55313L105.101 3.28021L105.95 2.94666L106.657 3.00732L107.105 3.1286L107.859 3.09827L108.449 3.00732Z" fill="#1C4587"/>
<defs>
<linearGradient id="paint0_linear" x1="-68.2722" y1="-2.41824" x2="216.822" y2="45.1988" gradientUnits="userSpaceOnUse">
<stop stop-color="#3A90B6"/>
<stop offset="1" stop-color="#075F92"/>
</linearGradient>
</defs>
</svg>
