<svg width="179" height="148" viewBox="0 0 179 148" fill="none" xmlns="http://www.w3.org/2000/svg">
<path opacity="0.1" d="M31.6943 22.3802L32.1893 22.0466L37.7345 22.3418L40.547 21.873L52.8907 22.5918L53.672 22.7793L67.5157 25.248L82.5157 26.3105L95.3907 30.9668L105.641 29.0918L116.891 33.373L141.328 32.748L141.797 40.5918L144.453 43.623L148.359 44.8105L170.531 44.7793L172.578 47.248L178 53.2949L177.704 53.6387L177.492 53.4568L177.28 53.2748L176.973 53.1536L176.596 53.1232L176.29 53.1839L176.054 53.3052L175.794 53.8207L174.852 56.9136L174.757 57.793L174.852 58.3692L175.889 59.0363L176.03 58.9453L176.172 59.1576L176.158 59.374L176.195 59.4305L176.172 59.7944L176.007 60.1886L175.535 60.8253L175.299 61.0983L175.04 61.3409L174.309 61.7957L174.026 61.917L173.673 62.008L169.83 62.4325L169.571 62.5841L169.478 62.7517L169.5 62.857L171.48 65.859L171.551 66.041L171.598 66.1926L171.645 66.6778L171.644 66.6948L171.669 66.9507L171.645 67.2539L171.528 67.6481L171.245 68.1333L170.632 68.8914L170.207 69.2249L169.83 69.4675L168.251 70.0133L167.991 70.1649L167.756 70.3469L167.543 70.5591L166.53 72.2876L166.2 72.7121L165.87 72.985L165.61 73.1366L165.375 73.3185L164.762 73.8037L164.573 74.016L164.385 74.4102L164.219 74.9257L163.937 76.4418L163.724 76.9573L163.253 77.4728L162.923 77.7761L162.64 77.9883L161.839 78.4432L161.65 78.4128L161.367 78.7464L160.495 79.9897L160.094 80.3535L159.717 80.5961L158.09 81.0813L155.379 81.3845L155.049 81.4755L154.766 81.5968L154.507 81.7787L154.248 82.0516L153.446 83.4465L153.399 83.5072L152.951 83.7498L152.88 83.871L152.833 84.0833L153.21 84.7504L153.87 85.6298L153.988 85.933L154.059 86.3272L154.083 86.9944L154.248 87.2976L154.415 87.5129L154.861 87.8131L154.895 87.8637L154.955 87.904L155.12 88.1466V88.4195L154.813 88.8137L154.483 88.9957L153.776 89.1776L153.635 89.3899L153.823 89.7841L154.031 90.0214L154.766 90.7241L154.768 90.7265L154.861 90.8151L155.143 91.2396L155.12 91.7248L154.931 92.3919L153.658 95.7274L153.564 96.1216L153.54 96.5765L153.635 97.3346L153.729 97.7591L153.847 98.123L153.988 98.3352L154.578 99.1843L155.851 100.549L156.016 100.761L156.251 101.216L156.416 101.701L156.464 101.944L156.322 102.459L156.016 103.157L154.224 105.795L153.611 106.401L152.126 107.432L151.843 107.766L151.089 109.07L150.57 109.767L150.452 109.888L150.358 110.131L150.334 110.465L150.594 111.071L150.876 111.374L151.198 111.581L152.432 112.072L152.444 112.079L152.503 112.102L152.762 112.254L152.975 112.436L153.092 112.678L152.456 113.74L149.863 115.529L149.691 115.497L146.586 114.922L146.162 114.71L145.761 114.407L145.784 114.134L145.798 114.038L145.808 113.921L145.832 113.755V113.436L145.784 113.042L145.525 112.496L145.148 112.254L144.7 112.102H143.568L143.144 112.163L142.838 112.314L142.602 112.496L142.248 112.981L141.848 113.8L141.612 113.982L141.329 114.103L140.999 114.225L139.49 114.467L138.123 114.801L137.51 115.043L136.331 115.65L135.836 116.014L135.435 116.256L134.728 116.56L134.186 116.651H133.691L132.842 116.499L131.498 115.953L130.155 115.529H129.636L129.212 115.559L127.844 116.287L122.917 117.439L122.799 117.53L122.517 117.773L122.352 117.985L122.21 118.227L122.19 118.357L122.21 118.591L122.281 119.107V119.41L122.257 119.501V119.622L122.187 119.895L121.951 120.198L121.597 120.32L121.196 120.38L120.796 120.32L119.24 119.804L118.438 119.713L118.038 119.834L117.778 120.077L117.684 120.35L117.566 120.956L117.354 121.29L117.024 121.624L116.246 122.048L115.821 122.352L115.586 122.655L115.515 122.928L115.138 123.322L114.501 123.656L111.342 125.111L111.177 125.354L111.107 125.627L111.13 126.112L111.107 126.263L111.012 126.476L110.871 126.688L110.682 126.9L110.258 127.143L106.91 128.538L106.439 128.871L105.826 129.478L105.284 130.145L104.859 130.418L104.199 130.751L101.512 131.813L101.276 131.964L100.404 132.692L99.956 133.056L98.6358 133.814L98.0701 134.026L97.5514 134.148L95.8776 134.178L95.4061 134.148L94.5103 133.966L93.9209 133.905L92.978 133.935L92.3179 134.087L91.87 134.238L90.7384 134.845L90.2434 135.178L87.108 137.938L85.835 138.817L84.2791 139.363L80.7665 140.242V140.212V138.12L80.5779 137.817L80.1772 137.453L79.7057 137.271L79.1399 136.877L78.9985 136.513L78.9749 136.179L78.9767 136.175L78.9749 136.149L79.0927 135.876L79.2106 135.603L79.5642 135.118L79.965 134.693L80.2007 134.511L80.7665 134.117L81.0258 133.875L81.2832 133.453L81.2616 133.147L81.0966 132.844L80.7665 132.51L80.4365 132.419L80.1772 132.51L79.4228 132.995L78.8334 133.268L76.7353 133.723L76.3582 133.753L75.9338 133.723L75.4387 133.632L71.1482 132.086L70.3466 131.873L69.9223 131.843L69.4744 131.813L69.0972 131.873L68.7436 131.934L66.8105 132.54L66.1269 132.48L65.1839 132.328L63.2508 131.722L62.355 131.57L61.6949 131.54L59.9268 132.298L52.9724 136.543L52.4066 136.816L51.4165 137.089L43.2834 137.119L42.0811 137.24L41.421 137.453L40.2659 138.09L39.8415 138.302L39.1107 138.514H38.6628L38.3564 138.393L37.932 137.938L37.5313 137.726H37.2012L36.8712 137.817L35.2446 138.696L34.8438 138.848L34.2309 138.999L33.7829 138.969L33.5236 138.848L33.1936 138.635L32.7457 138.393L31.0247 138.029L29.5632 137.483L27.8894 137.089L27.0879 136.998L26.5456 137.059L26.3703 137.234L26.2628 137.392L25.7205 138.484L25.5319 139.03L25.5791 139.302L25.6498 139.545L25.8384 139.727L26.0506 139.909L26.8285 140.394L27.0171 140.576L27.1114 140.788L27.0879 141.031L26.9962 141.125L26.9935 141.152L26.4631 141.698L26.357 141.88L26.3013 141.935L26.2628 142.001L25.9563 142.304L25.4848 142.608L23.3631 143.305L23.1913 143.428L23.1038 143.578L23.0095 143.851V144.124L23.0566 144.67L23.0095 144.943L22.868 145.579L22.7266 145.883L22.538 146.186H22.5191L22.4437 146.307H22.208L21.7365 145.974L21.3357 145.761L20.4399 145.61L19.992 145.67L19.7711 145.836L19.7091 145.883L19.5912 146.156L19.2932 147.188L19.2848 147.217L14.5228 144.973L8.51132 140.91L7.94553 140.333L7.61549 138.544V138.271L7.63905 137.695L7.85124 136.513L8.60559 134.815V134.451L8.34628 134.117L7.14398 133.026L6.9554 132.601V132.267L7.16759 132.086L9.31282 130.903L9.80789 130.539L9.99649 130.327L10.1851 130.115L10.303 129.72L10.3265 129.174L10.1615 128.204L9.94936 127.719L9.69002 127.416L9.40714 127.264L9.0771 127.143L8.34628 126.931L7.92197 126.87H7.52118L6.76683 126.961L4.85728 127.567L4.1265 127.689L3.27783 127.719L3.27201 127.718L3.25424 127.719L1.86334 127.567L0.94397 127.234L0.63032 126.588L0.590332 126.506L4.99875 124.171L6.60179 123.11L7.49762 122.412L8.08696 122.139L8.72348 122.018L9.38358 121.957L10.3265 121.745L10.798 121.351L11.0102 120.987L11.0332 120.661L10.9866 120.502L10.798 120.32L10.468 120.198L9.2421 119.956L8.91206 119.834L8.67632 119.683L7.16759 117.621L6.57823 117.045L5.61166 116.378L4.52725 115.771L4.26793 115.589L4.05577 115.377L3.9379 115.074L3.94496 115.062L3.91431 114.983L4.05577 114.74L4.33865 114.649H4.73944L5.98886 114.831H6.41321L6.79039 114.771L7.09686 114.649L7.37975 114.498L7.63905 114.346L8.20485 113.891L9.4543 112.648L9.56144 112.51L9.50142 112.375L9.33641 112.223L8.8885 111.859L6.97899 110.738L6.71968 110.525L6.50748 110.161L6.51422 110.122L6.48392 110.07L6.53105 109.798L6.74324 109.555L7.04971 109.282L7.49762 108.948L7.87482 108.767L8.252 108.736H8.60559L11.7646 109.464L16.9745 110.07L17.5167 110.01L18.1061 109.888L18.9076 109.494L19.2848 109.161L19.5205 108.827L19.5912 108.494L19.6384 108.221L19.6619 107.948L19.6191 107.7L19.5677 107.523L19.3791 107.038L18.6483 105.946L18.637 105.874L18.6247 105.855L18.5775 105.552L18.6954 105.128L18.9547 104.915L19.3319 104.794L24.2118 105.492H24.6833L25.2726 105.34L25.4377 105.128L25.4231 104.997L25.2019 104.855L23.6932 104.157L23.4574 103.945L23.4516 103.87L23.4338 103.854L23.4103 103.551L23.6224 103.066L24.1882 102.611L24.424 102.247L24.49 101.992L24.2354 101.337V101.307L24.2118 101.246V100.973L24.3297 100.64L24.589 100.579L24.8247 100.67L25.7441 101.368L26.5692 101.792L28.0072 102.217L29.681 102.581H30.2704L30.9776 102.49L33.1229 101.762L35.551 101.307L38.3092 100.488L39.8651 99.8514L41.3267 99.4269L44.9571 99.5785L45.8294 99.7301L46.1594 99.8514L47.126 100.549L48.3283 101.641L48.4697 101.853L48.4761 101.918L48.4933 101.944L48.4877 102.038L48.4933 102.095L48.4823 102.129L48.4697 102.338L48.4065 102.528L48.5405 102.672L48.8469 102.823L51.5344 103.248L51.9116 103.339L52.2416 103.46L52.7838 103.793L54.0804 104.855L54.6226 105.158L55.0234 105.279L55.4949 105.37H56.2021L56.6029 105.249L56.8622 105.037L57.758 102.732L57.923 102.49L58.1588 102.247L58.4652 101.974L58.9367 101.641L59.4789 101.125L59.6204 100.882L59.7338 100.649L59.7618 100.306L59.7383 100.033V99.7604L59.6204 98.4262L60.0918 95.6971L60.1154 95.4849L60.1372 95.4103L60.139 95.3939L60.2097 95.1513L60.3748 94.8481L60.7991 94.3629L61.1527 94.09L61.2682 94.0436L52.9375 94.5416L53.1686 94.4382L52.9611 94.4506L56.2144 92.9951L56.7802 92.8131L57.1573 92.7525H57.5581H57.9353L59.2554 93.0254H59.892L60.2691 92.9041L60.5285 92.7525L60.9764 92.328L60.9882 92.3052L60.9528 92.2673L60.5756 92.0551L58.9726 91.4789L58.6897 91.3273L58.6425 91.0241L58.7074 90.9198L58.6189 90.8724L58.5718 90.5692L58.8547 90.1144L59.8212 89.2956L61.6129 88.3253L61.9901 88.0827L62.1315 87.8098L62.2258 87.5369L62.273 87.264L62.2943 87.1266L62.2022 86.9608L61.8722 86.7182L61.6364 86.4452L61.33 86.233L60.2927 85.6569L60.0334 85.4749L59.892 85.2323V84.9291L59.9012 84.9146L59.8212 84.7775V84.4742L60.1513 83.9587L60.4577 83.7162L60.8585 83.5645L65.7855 83.3219L66.3513 83.231L66.9407 83.0794L67.9072 82.6548L68.2608 82.3213L68.4023 82.018L68.3316 81.5026L68.3135 80.8286L68.2137 80.6232L68.0487 80.4413L67.8601 80.2593L67.6951 80.047L67.6243 79.8045L67.5793 79.4378L67.5536 79.3496L67.5279 79.1401L67.4829 78.9857L67.3885 78.7431L66.4692 77.4999L65.3848 76.5902L64.8661 76.2869L64.5833 76.1353L64.2532 76.0444H63.4752L62.768 76.105L62.5559 76.1657L61.8251 76.4992L61.5186 76.5599H61.1414L59.4676 75.9837L59.1612 75.8321L58.9726 75.6502L58.9961 75.3166L59.0026 75.2925L58.9019 75.1953L58.9254 74.8618L59.444 72.9211L59.5855 72.4965L59.9391 72.3449L64.819 71.9204L65.3612 71.6778L66.2335 71.223L66.9171 70.5255L67.2471 70.0404L67.3885 69.6158L67.5301 68.8578L67.5414 68.7114L67.4357 68.4939L67.2471 68.2816L64.0175 65.8861L58.9961 63.9757L58.7368 63.8241L58.5247 63.6421L58.2418 63.2176L57.5493 62.5714L47.0647 59.3442L46.5948 59.0611L45.2731 58.6771L45.0609 58.4952L44.8487 58.3132L44.7309 58.101L44.6837 57.828L44.6772 57.6768L44.6601 57.6461L44.613 57.3732L44.5976 57.0158L44.4951 56.8577L44.3537 56.7364L44.1415 56.6151L42.8214 56.1603L42.2084 55.857L41.9963 55.7054L41.8077 55.4931L41.5483 55.0383L41.4776 54.7957L41.5154 54.6498L41.4776 54.5835L41.4069 54.3409L41.5483 53.7951L41.8548 53.037L42.6799 51.5208L42.749 51.165L42.4913 51.2479L41.3597 51.7937L41.0533 51.915L40.6997 51.9757L40.2989 52.006L39.4031 51.9453L38.9787 51.8544L38.6251 51.7331L38.3422 51.5815L38.1301 51.3995L37.9886 51.1872L37.8943 50.9447L37.7764 50.7324L37.5407 50.5808L37.2343 50.5505L36.9042 50.6111L36.6213 50.7627L36.362 50.975L35.8905 51.6118L35.6548 51.7937L35.1361 52.1273L34.8297 52.2182L34.476 52.2789H34.0989L33.7217 52.2486L32.3308 51.7937L31.4821 51.7027L30.6099 51.6724L29.8083 51.7331L29.1247 51.8847L28.1817 52.1879L27.9224 52.3699L27.7102 52.5821L27.5216 52.7944L27.0501 53.5525L26.838 53.7647L26.5787 53.9163L26.2722 53.977H25.9422L25.6593 53.886L25.4 53.7647L25.1878 53.5828L24.9756 53.4008L24.6691 52.9763L24.5513 52.7641L24.5041 52.4911V52.1879L25.3056 49.6104L25.3528 49.3072L25.3056 48.4885L25.3528 47.9123L25.5414 47.0026L25.9657 45.82L26.1543 45.2136L26.1754 44.9422L26.1543 44.6981L26.1072 44.4555L25.5885 42.5148L25.5178 41.9083V41.8477V41.5748V41.5141L25.7064 40.4225L25.895 40.0283L26.1072 39.7554L26.5551 39.3612L27.0737 39.0579L28.3231 38.4515L28.7475 38.1179L29.384 37.4205L29.5962 36.9959L29.6371 36.7069L29.549 36.4805L29.384 36.2682L29.1482 36.1166L28.8654 35.965L27.6867 35.6617L27.3802 35.5101L27.2152 35.2978L27.1444 35.0553L27.1209 34.7823L27.0501 34.5398L26.8851 34.3881H26.6022L25.8714 34.4488H25.4471L24.5984 34.2972L24.2684 34.1759L24.009 34.0243L23.8205 33.812L23.7026 33.5997L23.6319 33.3572L23.6083 33.0842L23.679 32.2655V30.901L23.9383 29.6881L24.3627 28.2932L24.3809 28.2503L24.6456 27.6261L24.8813 27.1712L25.5178 26.5041L29.1718 23.6234L31.6943 22.3802Z" fill="#333333"/>
<path d="M178.062 32.5L178.437 45.625L176.812 47.4375L175.062 48.125L171.562 58.25L170.625 59.1875C170.27 59.8542 169.575 61.2625 169.625 61.5625C169.675 61.8625 165.895 66.3958 164 68.625L162.125 69.4375L161.125 70.75L160.062 72.4375L157.562 75.1875L156.312 81.3125L156.437 92.625L155.687 97.5625L152.687 104.187C151.708 105.271 149.712 107.337 149.562 106.937C149.362 106.737 147.021 106.271 145.75 105.937L143.875 102.937L141.562 105.062L140.625 105.187C140.225 105.437 136.208 107 134.25 107.75H133.125L129.562 106.687L128.25 107.25L122.687 108.25L121.5 111.187L120.625 111.25L118.187 110.812L116.875 112.437L115.5 114.062L111.062 116.437L106.5 119.687L104.812 121.375L101.25 123.187C100.95 123.237 98.8748 124.5 97.8748 125.125H95.6248L93.2498 124.75L91.8748 124.687L85.7498 129.875L80.7498 131.437L78.7498 127.437L75.7498 124.75L69.625 122.812L66.375 123.625L64.5625 123.375L61.5 122.75L52 128L51.125 128.437L42.9375 128.375C41.5875 128.825 39.8333 129.354 39.125 129.562L37.375 128.5C36.725 128.9 34.7292 129.833 33.8125 130.25L27.0183 128.3L27 131.75L22.4375 137.437L21.1875 136.937L19.125 138.25C15.975 136.9 9.9375 133.354 7.3125 131.75L5.6875 118.687L4.1875 118.812H2.5L0.8125 117.812L0.75 105.687C5.72917 105.604 15.8375 105.562 16.4375 106.062C17.1875 106.687 15.625 113.937 15.5625 114.875C15.5426 115.174 14.6639 117.066 13.4411 119.572C15.5998 119.97 17.4409 120.408 17.625 120.75C17.975 121.4 18.2292 123.187 18.3125 124L21.75 122.187L24.125 119.562L26.75 115.5L34.125 117.312L37.875 115.687L39.125 116.875L42.8125 115.312L51 115.5L51.9375 115.062L61.5625 110.125L64.3125 110.625L66.3125 111L69.5 110.125L75.8123 111.562C74.9998 111 74.0373 109.787 76.6873 109.437C79.3373 109.087 83.0833 108.458 84.625 108.187L84.5625 109.875L83.1248 114.062C83.3332 114.042 83.7123 114.05 83.5623 114.25C83.4123 114.45 83.0415 116.083 82.8748 116.875L80.6873 119.312L85.4373 116.75L91.7498 112.625L93.4373 112.687L95.8123 112.937L97.8748 112.562L101.25 110L104.687 108.25C104.837 108 105.875 107.312 106.375 107L110.687 103.312L115.187 100.625L116.687 99.1875L118.5 98.1875L120.5 98.6875L121.187 98.75L122.625 95.75L128 94.25L129.562 93.875L133 94.9375L134.437 95.0625L141.125 92.125L143.25 89.625C143.812 89.7083 145.037 89.8125 145.437 89.5625C145.453 89.553 145.468 89.5432 145.484 89.5333C145.185 89.0126 144.931 88.5141 144.75 88.0625C143.75 85.5625 142.437 82.6875 143.562 82.1875C144.462 81.7875 149.437 81.3125 151.812 81.125C150.75 80.125 145.25 75.375 144.75 73C144.25 70.625 144.875 68.875 145.437 64.625C146 60.375 145.187 57.75 148.562 56.1875C151.262 54.9375 158.771 54.1667 162.187 53.9375L163.812 48.9375L167.625 48L169 49C168.437 47.875 163.875 42.0625 164.187 41.0625C164.437 40.2625 168.333 38.8125 170.25 38.1875L172.062 34.5625L174.687 31.875L175.562 30.75L178.062 32.5Z" fill="#0B2856"/>
<path d="M4.3125 104.437L4.0625 94.125C5.875 94.5 9.675 95.3 10.375 95.5C11.25 95.75 11.0625 96.5 14.3125 101.25C17.5625 106 13.625 103.5 13.5625 104.312C13.5125 104.962 7.375 104.667 4.3125 104.437Z" fill="#0B2856"/>
<path d="M7 94.1875L6.75 88.8125C7.54167 89.0833 9.3375 89.7 10.1875 90C11.25 90.375 10.4375 90.875 11 92.375C11.5625 93.875 9.5 93.5 9.1875 93.75C8.9375 93.95 7.625 94.125 7 94.1875Z" fill="#0B2856"/>
<path d="M18.625 89.375L18.6875 84.5625C19.375 84.9583 20.9375 86.2625 21.6875 88.3125C22.0875 89.4625 19.8125 89.5 18.625 89.375Z" fill="#0B2856"/>
<path d="M23.6875 85.9375L23.625 82.5625C24.125 82.7708 25.4125 83.325 26.5625 83.875C27.7125 84.425 27 84.7292 26.5 84.8125L23.6875 85.9375Z" fill="#0B2856"/>
<path d="M53.0625 84.4375L52.9375 73.625L60.2199 72.6065L58.75 72.3125V69.625C60.1042 69.7708 62.9875 70.0625 63.6875 70.0625C64.5625 70.0625 64.75 71.25 64.9375 71.625C65.0479 71.8458 63.5854 72.2155 62.2489 72.495C63.5864 72.9295 65.7956 73.699 66.25 74.0625C66.75 74.4625 67.1667 76.2292 67.3125 77.0625L62.0625 85.375L53.0625 84.4375Z" fill="#0B2856"/>
<path d="M58.875 65.2509L58.9681 56.9679L44.8125 49.4384L44.25 47.3134L41.1875 45.9384L40.625 43.0009L38.9375 42.7509L37.125 41.5634L35 43.3134L32.375 42.8759L29.9375 42.7509L26.5625 44.6884L24.375 43.2509V31.5634L24.501 31.5844L23.5625 24.1259V12.5634L23.8125 12.3759C26.5417 11.3551 32.2625 9.32591 33.3125 9.37591C34.625 9.43841 35.75 12.0634 36.0625 12.8134C36.375 13.5634 34.75 22.9384 34.5625 24.2509C34.4981 24.7017 33.2253 27.1814 31.5298 30.3313L32.125 30.3759L35.0625 30.3134L37.3125 28.3134L38.6875 29.2509L40.6875 29.6884L46.5625 27.5009L41.875 33.0009L46.9375 31.0634L45.8125 33.3759L45.118 36.6747C46.1372 35.4556 47.9857 33.4618 49.4375 32.6259C51.5 31.4384 54.5625 32.8134 58.3125 33.5009C62.0625 34.1884 68.375 38.1884 71.875 40.6884C75.375 43.1884 72.125 41.3759 74.5625 48.0634C76.26 52.7207 72.2707 53.8321 69.2164 53.8219C69.3907 54.0676 69.5419 54.3607 70 54.6259C71.1875 55.3134 71.0625 57.3759 71.6875 59.6259C72.3125 61.8759 71.125 62.4384 70.875 63.6259C70.7264 64.3316 67.3955 64.8281 64.4795 65.1051C64.7513 65.6495 65.0701 66.2992 65.4375 67.0634C66.6875 69.6634 65.375 69.4801 64.5625 69.0634L59.8125 69.0009V65.2713L58.875 65.2509Z" fill="#0B2856"/>
<path d="M142.5 21.5L141.375 12.0625C139.833 13.1042 136.5 15.4375 135.5 16.4375C134.5 17.4375 135.542 20.5625 136.188 22L142.5 21.5Z" fill="url(#paint0_linear)"/>
<path d="M31.6943 1.38016L32.1893 1.0466L37.7345 1.34179L40.547 0.873047L52.8907 1.59179L53.672 1.77929L67.5157 4.24804L82.5157 5.31054L95.3907 9.96679L105.641 8.09179L116.891 12.373L141.328 11.748L141.797 19.5918L144.453 22.623L148.359 23.8105L170.531 23.7793L172.578 26.248L178 32.2949L177.704 32.6387L177.492 32.4568L177.28 32.2748L176.973 32.1536L176.596 32.1232L176.29 32.1839L176.054 32.3052L175.794 32.8207L174.852 35.9136L174.757 36.793L174.852 37.3692L175.889 38.0363L176.03 37.9453L176.172 38.1576L176.158 38.374L176.195 38.4305L176.172 38.7944L176.007 39.1886L175.535 39.8253L175.299 40.0983L175.04 40.3409L174.309 40.7957L174.026 40.917L173.673 41.008L169.83 41.4325L169.571 41.5841L169.478 41.7517L169.5 41.857L171.48 44.859L171.551 45.041L171.598 45.1926L171.645 45.6778L171.644 45.6948L171.669 45.9507L171.645 46.2539L171.528 46.6481L171.245 47.1333L170.632 47.8914L170.207 48.2249L169.83 48.4675L168.251 49.0133L167.991 49.1649L167.756 49.3469L167.543 49.5591L166.53 51.2876L166.2 51.7121L165.87 51.985L165.61 52.1366L165.375 52.3185L164.762 52.8037L164.573 53.016L164.385 53.4102L164.219 53.9257L163.937 55.4418L163.724 55.9573L163.253 56.4728L162.923 56.7761L162.64 56.9883L161.839 57.4432L161.65 57.4128L161.367 57.7464L160.495 58.9897L160.094 59.3535L159.717 59.5961L158.09 60.0813L155.379 60.3845L155.049 60.4755L154.766 60.5968L154.507 60.7787L154.248 61.0516L153.446 62.4465L153.399 62.5072L152.951 62.7498L152.88 62.871L152.833 63.0833L153.21 63.7504L153.87 64.6298L153.988 64.933L154.059 65.3272L154.083 65.9944L154.248 66.2976L154.415 66.5129L154.861 66.8131L154.895 66.8637L154.955 66.904L155.12 67.1466V67.4195L154.813 67.8137L154.483 67.9957L153.776 68.1776L153.635 68.3899L153.823 68.7841L154.031 69.0214L154.766 69.7241L154.768 69.7265L154.861 69.8151L155.143 70.2396L155.12 70.7248L154.931 71.3919L153.658 74.7274L153.564 75.1216L153.54 75.5765L153.635 76.3346L153.729 76.7591L153.847 77.123L153.988 77.3352L154.578 78.1843L155.851 79.5488L156.016 79.7611L156.251 80.216L156.416 80.7011L156.464 80.9437L156.322 81.4592L156.016 82.1566L154.224 84.7948L153.611 85.4012L152.126 86.4322L151.843 86.7658L151.089 88.0697L150.57 88.7671L150.452 88.8884L150.358 89.131L150.334 89.4646L150.594 90.071L150.876 90.3742L151.198 90.5808L152.432 91.0717L152.444 91.0786L152.503 91.102L152.762 91.2536L152.975 91.4356L153.092 91.6782L152.456 92.7395L149.863 94.5285L149.691 94.4968L146.586 93.9221L146.162 93.7098L145.761 93.4066L145.784 93.1337L145.798 93.0384L145.808 92.9214L145.832 92.7546V92.4362L145.784 92.042L145.525 91.4962L145.148 91.2536L144.7 91.102H143.568L143.144 91.1627L142.838 91.3143L142.602 91.4962L142.248 91.9814L141.848 92.8001L141.612 92.9821L141.329 93.1034L140.999 93.2247L139.49 93.4672L138.123 93.8008L137.51 94.0434L136.331 94.6498L135.836 95.0137L135.435 95.2563L134.728 95.5595L134.186 95.6505H133.691L132.842 95.4989L131.498 94.9531L130.155 94.5285H129.636L129.212 94.5589L127.844 95.2866L122.917 96.4389L122.799 96.5299L122.517 96.7725L122.352 96.9847L122.21 97.2273L122.19 97.3574L122.21 97.5912L122.281 98.1067V98.4099L122.257 98.5009V98.6222L122.187 98.8951L121.951 99.1983L121.597 99.3196L121.196 99.3803L120.796 99.3196L119.24 98.8041L118.438 98.7131L118.038 98.8344L117.778 99.077L117.684 99.3499L117.566 99.9564L117.354 100.29L117.024 100.624L116.246 101.048L115.821 101.352L115.586 101.655L115.515 101.928L115.138 102.322L114.501 102.656L111.342 104.111L111.177 104.354L111.107 104.627L111.13 105.112L111.107 105.263L111.012 105.476L110.871 105.688L110.682 105.9L110.258 106.143L106.91 107.538L106.439 107.871L105.826 108.478L105.284 109.145L104.859 109.418L104.199 109.751L101.512 110.813L101.276 110.964L100.404 111.692L99.956 112.056L98.6358 112.814L98.0701 113.026L97.5514 113.148L95.8776 113.178L95.4061 113.148L94.5103 112.966L93.9209 112.905L92.978 112.935L92.3179 113.087L91.87 113.238L90.7384 113.845L90.2434 114.178L87.108 116.938L85.835 117.817L84.2791 118.363L80.7665 119.242V119.212V117.12L80.5779 116.817L80.1772 116.453L79.7057 116.271L79.1399 115.877L78.9985 115.513L78.9749 115.179L78.9767 115.175L78.9749 115.149L79.0927 114.876L79.2106 114.603L79.5642 114.118L79.965 113.693L80.2007 113.511L80.7665 113.117L81.0258 112.875L81.2832 112.453L81.2616 112.147L81.0966 111.844L80.7665 111.51L80.4365 111.419L80.1772 111.51L79.4228 111.995L78.8334 112.268L76.7353 112.723L76.3582 112.753L75.9338 112.723L75.4387 112.632L71.1482 111.086L70.3466 110.873L69.9223 110.843L69.4744 110.813L69.0972 110.873L68.7436 110.934L66.8105 111.54L66.1269 111.48L65.1839 111.328L63.2508 110.722L62.355 110.57L61.6949 110.54L59.9268 111.298L52.9724 115.543L52.4066 115.816L51.4165 116.089L43.2834 116.119L42.0811 116.24L41.421 116.453L40.2659 117.09L39.8415 117.302L39.1107 117.514H38.6628L38.3564 117.393L37.932 116.938L37.5313 116.726H37.2012L36.8712 116.817L35.2446 117.696L34.8438 117.848L34.2309 117.999L33.7829 117.969L33.5236 117.848L33.1936 117.635L32.7457 117.393L31.0247 117.029L29.5632 116.483L27.8894 116.089L27.0879 115.998L26.5456 116.059L26.3703 116.234L26.2628 116.392L25.7205 117.484L25.5319 118.03L25.5791 118.302L25.6498 118.545L25.8384 118.727L26.0506 118.909L26.8285 119.394L27.0171 119.576L27.1114 119.788L27.0879 120.031L26.9962 120.125L26.9935 120.152L26.4631 120.698L26.357 120.88L26.3013 120.935L26.2628 121.001L25.9563 121.304L25.4848 121.608L23.3631 122.305L23.1913 122.428L23.1038 122.578L23.0095 122.851V123.124L23.0566 123.67L23.0095 123.943L22.868 124.579L22.7266 124.883L22.538 125.186H22.5191L22.4437 125.307H22.208L21.7365 124.974L21.3357 124.761L20.4399 124.61L19.992 124.67L19.7711 124.836L19.7091 124.883L19.5912 125.156L19.2932 126.188L19.2848 126.217L14.5228 123.973L8.51132 119.91L7.94553 119.333L7.61549 117.544V117.271L7.63905 116.695L7.85124 115.513L8.60559 113.815V113.451L8.34628 113.117L7.14398 112.026L6.9554 111.601V111.267L7.16759 111.086L9.31282 109.903L9.80789 109.539L9.99649 109.327L10.1851 109.115L10.303 108.72L10.3265 108.174L10.1615 107.204L9.94936 106.719L9.69002 106.416L9.40714 106.264L9.0771 106.143L8.34628 105.931L7.92197 105.87H7.52118L6.76683 105.961L4.85728 106.567L4.1265 106.689L3.27783 106.719L3.27201 106.718L3.25424 106.719L1.86334 106.567L0.94397 106.234L0.63032 105.588L0.590332 105.506L4.99875 103.171L6.60179 102.11L7.49762 101.412L8.08696 101.139L8.72348 101.018L9.38358 100.957L10.3265 100.745L10.798 100.351L11.0102 99.9867L11.0332 99.6613L10.9866 99.5016L10.798 99.3196L10.468 99.1983L9.2421 98.9557L8.91206 98.8344L8.67632 98.6828L7.16759 96.6208L6.57823 96.0447L5.61166 95.3776L4.52725 94.7711L4.26793 94.5892L4.05577 94.3769L3.9379 94.0737L3.94496 94.0616L3.91431 93.9827L4.05577 93.7401L4.33865 93.6492H4.73944L5.98886 93.8311H6.41321L6.79039 93.7705L7.09686 93.6492L7.37975 93.4976L7.63905 93.3459L8.20485 92.8911L9.4543 91.6478L9.56144 91.51L9.50142 91.3749L9.33641 91.2233L8.8885 90.8594L6.97899 89.7375L6.71968 89.5252L6.50748 89.1613L6.51422 89.1223L6.48392 89.0704L6.53105 88.7975L6.74324 88.5549L7.04971 88.2819L7.49762 87.9484L7.87482 87.7665L8.252 87.7361H8.60559L11.7646 88.4639L16.9745 89.0704L17.5167 89.0097L18.1061 88.8884L18.9076 88.4942L19.2848 88.1607L19.5205 87.8271L19.5912 87.4936L19.6384 87.2206L19.6619 86.9477L19.6191 86.6995L19.5677 86.5232L19.3791 86.038L18.6483 84.9464L18.637 84.8737L18.6247 84.8554L18.5775 84.5522L18.6954 84.1277L18.9547 83.9154L19.3319 83.7941L24.2118 84.4915H24.6833L25.2726 84.3399L25.4377 84.1277L25.4231 83.997L25.2019 83.8548L23.6932 83.1573L23.4574 82.9451L23.4516 82.87L23.4338 82.8541L23.4103 82.5509L23.6224 82.0657L24.1882 81.6108L24.424 81.2469L24.49 80.9922L24.2354 80.3372V80.307L24.2118 80.2463V79.9734L24.3297 79.6398L24.589 79.5792L24.8247 79.6701L25.7441 80.3676L26.5692 80.7921L28.0072 81.2166L29.681 81.5805H30.2704L30.9776 81.4895L33.1229 80.7618L35.551 80.3069L38.3092 79.4882L39.8651 78.8514L41.3267 78.4269L44.9571 78.5785L45.8294 78.7301L46.1594 78.8514L47.126 79.5488L48.3283 80.6405L48.4697 80.8527L48.4761 80.9179L48.4933 80.9437L48.4877 81.0376L48.4933 81.0953L48.4823 81.1285L48.4697 81.3379L48.4065 81.5278L48.5405 81.6715L48.8469 81.8231L51.5344 82.2476L51.9116 82.3386L52.2416 82.4599L52.7838 82.7934L54.0804 83.8548L54.6226 84.158L55.0234 84.2793L55.4949 84.3702H56.2021L56.6029 84.249L56.8622 84.0367L57.758 81.7321L57.923 81.4895L58.1588 81.2469L58.4652 80.974L58.9367 80.6405L59.4789 80.125L59.6204 79.8824L59.7338 79.649L59.7618 79.3063L59.7383 79.0334V78.7604L59.6204 77.4262L60.0918 74.6971L60.1154 74.4849L60.1372 74.4103L60.139 74.3939L60.2097 74.1513L60.3748 73.8481L60.7991 73.3629L61.1527 73.09L61.2682 73.0436L52.9375 73.5416L53.1686 73.4382L52.9611 73.4506L56.2144 71.9951L56.7802 71.8131L57.1573 71.7525H57.5581H57.9353L59.2554 72.0254H59.892L60.2691 71.9041L60.5285 71.7525L60.9764 71.328L60.9882 71.3052L60.9528 71.2673L60.5756 71.0551L58.9726 70.4789L58.6897 70.3273L58.6425 70.0241L58.7074 69.9198L58.6189 69.8724L58.5718 69.5692L58.8547 69.1144L59.8212 68.2956L61.6129 67.3253L61.9901 67.0827L62.1315 66.8098L62.2258 66.5369L62.273 66.264L62.2943 66.1266L62.2022 65.9608L61.8722 65.7182L61.6364 65.4452L61.33 65.233L60.2927 64.6569L60.0334 64.4749L59.892 64.2323V63.9291L59.9012 63.9146L59.8212 63.7775V63.4742L60.1513 62.9587L60.4577 62.7162L60.8585 62.5645L65.7855 62.3219L66.3513 62.231L66.9407 62.0794L67.9072 61.6548L68.2608 61.3213L68.4023 61.018L68.3316 60.5026L68.3135 59.8286L68.2137 59.6232L68.0487 59.4413L67.8601 59.2593L67.6951 59.047L67.6243 58.8045L67.5793 58.4378L67.5536 58.3496L67.5279 58.1401L67.4829 57.9857L67.3885 57.7431L66.4692 56.4999L65.3848 55.5902L64.8661 55.2869L64.5833 55.1353L64.2532 55.0444H63.4752L62.768 55.105L62.5559 55.1657L61.8251 55.4992L61.5186 55.5599H61.1414L59.4676 54.9837L59.1612 54.8321L58.9726 54.6502L58.9961 54.3166L59.0026 54.2925L58.9019 54.1953L58.9254 53.8618L59.444 51.9211L59.5855 51.4965L59.9391 51.3449L64.819 50.9204L65.3612 50.6778L66.2335 50.223L66.9171 49.5255L67.2471 49.0404L67.3885 48.6158L67.5301 47.8578L67.5414 47.7114L67.4357 47.4939L67.2471 47.2816L64.0175 44.8861L58.9961 42.9757L58.7368 42.8241L58.5247 42.6421L58.2418 42.2176L57.5493 41.5714L47.0647 38.3442L46.5948 38.0611L45.2731 37.6771L45.0609 37.4952L44.8487 37.3132L44.7309 37.101L44.6837 36.828L44.6772 36.6768L44.6601 36.6461L44.613 36.3732L44.5976 36.0158L44.4951 35.8577L44.3537 35.7364L44.1415 35.6151L42.8214 35.1603L42.2084 34.857L41.9963 34.7054L41.8077 34.4931L41.5483 34.0383L41.4776 33.7957L41.5154 33.6498L41.4776 33.5835L41.4069 33.3409L41.5483 32.7951L41.8548 32.037L42.6799 30.5208L42.749 30.165L42.4913 30.2479L41.3597 30.7937L41.0533 30.915L40.6997 30.9757L40.2989 31.006L39.4031 30.9453L38.9787 30.8544L38.6251 30.7331L38.3422 30.5815L38.1301 30.3995L37.9886 30.1872L37.8943 29.9447L37.7764 29.7324L37.5407 29.5808L37.2343 29.5505L36.9042 29.6111L36.6213 29.7627L36.362 29.975L35.8905 30.6118L35.6548 30.7937L35.1361 31.1273L34.8297 31.2182L34.476 31.2789H34.0989L33.7217 31.2486L32.3308 30.7937L31.4821 30.7027L30.6099 30.6724L29.8083 30.7331L29.1247 30.8847L28.1817 31.1879L27.9224 31.3699L27.7102 31.5821L27.5216 31.7944L27.0501 32.5525L26.838 32.7647L26.5787 32.9163L26.2722 32.977H25.9422L25.6593 32.886L25.4 32.7647L25.1878 32.5828L24.9756 32.4008L24.6691 31.9763L24.5513 31.7641L24.5041 31.4911V31.1879L25.3056 28.6104L25.3528 28.3072L25.3056 27.4885L25.3528 26.9123L25.5414 26.0026L25.9657 24.82L26.1543 24.2136L26.1754 23.9422L26.1543 23.6981L26.1072 23.4555L25.5885 21.5148L25.5178 20.9083V20.8477V20.5748V20.5141L25.7064 19.4225L25.895 19.0283L26.1072 18.7554L26.5551 18.3612L27.0737 18.0579L28.3231 17.4515L28.7475 17.1179L29.384 16.4205L29.5962 15.9959L29.6371 15.7069L29.549 15.4805L29.384 15.2682L29.1482 15.1166L28.8654 14.965L27.6867 14.6617L27.3802 14.5101L27.2152 14.2978L27.1444 14.0553L27.1209 13.7823L27.0501 13.5398L26.8851 13.3881H26.6022L25.8714 13.4488H25.4471L24.5984 13.2972L24.2684 13.1759L24.009 13.0243L23.8205 12.812L23.7026 12.5997L23.6319 12.3572L23.6083 12.0842L23.679 11.2655V9.901L23.9383 8.68806L24.3627 7.29319L24.3809 7.2503L24.6456 6.62608L24.8813 6.17123L25.5178 5.50412L29.1718 2.62341L31.6943 1.38016Z" fill="#1C4587"/>
<defs>
<linearGradient id="paint0_linear" x1="-137.411" y1="0.760143" x2="61.4975" y2="57.8439" gradientUnits="userSpaceOnUse">
<stop stop-color="#3A90B6"/>
<stop offset="1" stop-color="#075F92"/>
</linearGradient>
</defs>
</svg>
