<svg width="190" height="180" viewBox="0 0 190 180" fill="none" xmlns="http://www.w3.org/2000/svg">
<path opacity="0.1" d="M24.265 38.5866L24.2485 38.5281L24.2414 38.526L24.0528 37.8589L23.5106 34.5536L27.2747 30.924L28.9485 29.711L29.6086 29.0136L29.7264 28.4678L29.8207 27.1639L29.9386 26.618L30.2686 26.1935L31.0938 25.3748L31.2588 24.9199L31.3766 23.798L39.2577 27.0176L46.5233 24.127L55.4452 22.1738L58.7264 22.7207L65.8983 30.9395L69.6796 36.7051L74.3202 43.6894L80.6952 49.2051L88.3983 55.7051L98.4452 64.1894L95.4921 69.5644L91.6171 69.0644L86.6014 70.6738L75.6639 72.9551L82.7264 78.0176L84.6952 83.7207L91.6796 103.939L96.9921 101.408L100.617 102.533L116.195 103.189L116.742 106.861L120.117 108.471L148.383 104.33L148.805 107.127L152.836 117.111L163.93 116.299L164.211 122.486L172.555 138.752L168.32 145.252L169.398 148.783L166.992 150.533L172.898 156.892L178.773 159.299L180.492 164.041L189.757 165.832L189.686 166.287L189.615 166.53L189.498 166.833L189.333 167.106L189.167 167.272L189.12 167.318L188.861 167.47L188.437 167.621L187.847 167.712L186.716 167.803L185.372 167.743L183.132 167.409L182.614 167.47L181.907 167.621L180.846 168.016L178.795 168.198L176.555 167.985L176.39 168.046L176.298 168.114L176.367 168.38L176.532 168.561L177.074 168.956L177.239 169.138L177.192 169.32L177.132 169.339L177.121 169.38L176.838 169.471L176.225 169.35L171.345 167.591L170.567 167.379L170.12 167.349H169.695L169.318 167.44L169.128 167.595L169.012 168.016V168.319L169.129 169.411V169.653L169.035 169.926L168.823 170.138L168.807 170.144L168.752 170.199L168.422 170.32L167.88 170.29L167.432 170.199L165.664 169.592L165.287 169.532L164.792 169.592L163.731 169.219L161.279 169.613L160.477 169.583L159.911 169.492L159.581 169.371L158.096 168.946L157.2 168.855L156.305 168.825L155.786 168.977L155.298 169.215L154.654 169.795L154.324 170.25L154.112 170.644L153.994 170.947L153.876 171.22L153.664 171.433L153.647 171.44L153.594 171.493L153.311 171.615L152.816 171.493L151.755 171.099L151.236 171.19L150.705 171.487L149.869 172.251L149.68 172.676V173.009L149.822 173.222L149.892 173.464L149.845 173.707L149.727 173.95L149.421 174.222L149.044 174.344L148.407 174.253L147.629 173.98L146.71 173.555L146.191 173.252L145.979 173.07L145.767 172.949H145.46L145.13 173.131L144.588 174.071L144.352 174.738L143.928 175.071L143.574 175.314L141.052 176.315L140.136 176.18L134.428 175.526L132.542 175.769L130.939 176.739L129.713 177.194H129.312L128.817 177.073L127.662 176.557L127.237 176.406L126.837 176.375L126.294 176.588L126.035 176.83L125.929 177.103L125.823 177.558L125.813 177.582L125.776 177.74L125.658 178.013L125.54 178.286L125.352 178.528L125.116 178.71L124.856 178.862L124.526 178.953L122.051 179.074L115.215 178.589L114.107 178.741L112.834 179.044L112.433 179.226L111.49 179.802L111.231 179.893L110.948 179.832L110.735 179.499V179.195L110.759 178.892L110.641 178.589L110.382 178.286L109.769 177.831L109.58 177.467L109.51 177.164L109.675 176.254L109.694 176.226L109.722 176.072L109.887 175.83L110.146 175.678L111.702 175.526L112.008 175.435L112.268 175.314L112.456 175.162L112.574 175.041L112.739 174.859L112.857 174.617L112.909 174.467L112.928 174.222L112.904 173.98L112.834 173.707L112.716 173.495L112.456 173.1L112.315 172.949L112.197 172.858L111.961 172.706L109.321 171.615L108.873 171.251L108.661 170.917L108.59 170.675L108.378 170.462L107.647 170.068L107.459 169.826L107.364 169.553L107.27 169.037L107.176 168.825L107.011 168.613L106.799 168.431L106.445 168.309L105.974 168.279L105.195 168.4L104.818 168.613L104.559 168.886L104.394 169.128L104.087 169.249L103.663 169.189L103.097 168.825L102.791 168.582L102.579 168.309L102.437 167.824L102.107 166.035V165.762L102.178 165.459L102.187 165.439L102.225 165.277L102.484 164.731L103.003 164.034L103.055 163.882L103.074 163.67L103.003 163.427L102.885 163.185L102.579 162.76L102.178 162.396L101.683 162.063L98.5476 160.456L96.0958 158.757L94.3514 157.332L94.0684 156.908L93.8328 156.453L93.7148 155.937L93.4084 152.42L93.5498 150.995L93.5262 150.722L93.3376 150.51L93.0312 150.388L90.6973 149.903H90.2729L90.0609 150.206L89.9194 150.479L89.5422 150.752L88.9293 150.995L87.4913 151.207L86.8783 151.45L86.4304 151.692L86.006 151.813L84.5209 152.086L84.238 152.299L84.2054 152.372L84.3558 152.814V152.875L84.3087 153.117L84.2948 153.128L84.2615 153.299L84.0259 153.481L83.6487 153.572L82.2106 153.33L81.6212 153.299L81.0318 153.481L80.6547 153.693L80.3954 153.906L80.3733 153.982L80.3954 154.209L80.4897 154.452L80.5368 154.694L80.4779 154.815L80.4897 154.876L80.3718 155.119L80.0417 155.21H79.5231L74.1246 153.784L71.7908 152.663L70.8242 152.026L69.9755 151.298L69.5511 151.177L68.9382 151.146L66.628 151.601L63.1155 152.753L62.8561 152.905L62.6439 153.087L62.5832 153.212L62.5968 153.299L62.691 153.39L62.7382 153.421L64.9306 154.239L65.1664 154.421L65.2371 154.664L65.1476 154.701L65.1899 154.846L64.6005 155.088L63.5162 155.361L60.6872 155.513L58.7542 155.846L58.1176 156.392L57.599 156.453L56.9154 156.392L51.564 154.906L30.3236 152.541L29.8285 152.359L27.9426 151.874L27.3532 151.632L26.976 151.419L26.7403 151.268L26.4338 151.116L25.7502 151.086L24.7836 151.177L22.9213 151.601L22.1669 151.904L21.7426 152.238L21.6247 152.511L21.4832 152.784L21.2946 152.996L21.0825 153.178L20.2338 153.269L13.5623 152.875L10.9927 151.965L11.0742 151.795L13.1615 147.447L13.7273 145.809L13.8216 144.93L13.798 144.627L13.7037 144.384L13.468 143.808L13.3737 143.353L13.468 143.08L13.7037 142.868L14.4344 142.535L14.8824 142.201L15.0474 141.928L15.1182 141.625V140.564L15.2125 139.805L15.4954 139.351L15.8726 139.017L16.3676 138.774L16.8862 138.441L17.4756 137.925L17.6406 137.44L17.617 136.985L17.4339 136.724L17.1691 136.591L16.6505 136.44L15.7547 136.015L15.6408 135.929L15.5661 135.894L14.8824 135.378L14.6231 135.075L14.4581 134.56L14.3638 133.832L14.3402 132.528L14.4344 131.8L15.849 127.737L16.0611 127.403L16.2969 127.161L16.5326 127.009L16.9569 126.888L17.3812 126.675L17.9471 126.069L18.1357 125.553L18.23 125.159L18.1828 124.613L18.1121 124.341L18.0886 122.794L18.2772 122.036L18.1592 121.642L17.9827 121.44L16.6977 120.763L16.6227 120.701L16.509 120.641L16.2498 120.429L16.0376 120.126L15.9904 119.853L16.0376 119.58L16.1555 119.368L17.1927 118.549L17.452 118.398L17.9 118.064L18.8665 116.821L19.3851 115.972L19.2908 115.699L19.1965 115.638L19.1964 115.638L18.4421 115.426L17.5934 115.274L17.2398 115.305L17.0041 115.487L15.7076 117.427L15.4954 117.639L15.2125 117.761L14.8353 117.821L11.2285 117.367L9.76678 116.912L9.08319 116.639L8.77667 116.457L8.71043 116.408L8.58813 116.336L8.25806 116.093L8.18732 115.85L8.30524 115.668L9.27173 115.183L9.62537 114.85L9.69611 114.577L9.62537 114.334L9.50335 114.217L9.36603 114.152L9.03607 114.122L7.64508 114.395L7.22076 114.365L6.79645 114.304L4.15613 113.546L1.51581 113.061L1.16217 112.879L1.16472 112.856L0.973633 112.757L0.997192 112.545L1.09143 112.333L2.6474 110.513L2.81238 110.21L3.00098 109.755L2.93024 109.452L2.7417 109.028L2.38806 108.452L2.34088 107.511L2.43518 107.087L2.69458 106.814L6.18347 106.056L6.48999 105.844L6.77283 105.631L6.96149 105.086V104.782L6.82001 103.964L6.89081 103.539L7.05573 103.266L8.94171 102.599L9.24817 102.417L9.50751 102.144L9.53107 101.902L9.43677 101.629L9.03607 100.78L9.05957 100.416L9.22461 100.143L9.43677 99.9306L9.62537 99.6577L9.57819 99.4151L9.41321 99.2332L8.54089 98.748L8.23444 98.5054L7.92804 98.1112L7.95154 97.717L8.06946 97.3228L8.30524 96.7163V96.3828L8.23444 96.0796L8.06946 95.8976L7.81012 95.746L7.50346 95.6615L6.89081 95.6854L6.8292 95.6804L6.70215 95.6854L6.32489 95.655L5.99487 95.5337L5.78278 95.2305L5.49988 94.7453L4.86334 93.9873L4.53333 93.5324L4.41547 93.2898L4.39191 93.1382L4.48615 92.9563L4.93408 92.2588L5.14618 92.0466L5.38196 91.8949L5.75916 91.8343L5.85632 91.849L5.94775 91.8343L6.34851 91.8949L6.72571 91.9556L6.96149 92.1072L7.07935 92.1982L7.22076 92.3498L7.71588 93.2292L7.88086 93.4111L8.11658 93.5627L8.39948 93.7143L8.77667 93.8356L9.20099 93.8963H9.86108L11.2991 93.684L11.9592 93.4718L12.2421 93.2898L12.5015 93.0472L12.7136 92.5924L12.69 92.2285L12.6193 91.804L12.4307 91.2582L12.4778 90.8943L12.6429 90.6214L12.8786 90.4091L13.0908 90.1665L13.1379 90.0149L13.0672 89.833L12.5721 89.5601L12.2185 89.1962L12.1213 88.8626L12.0771 88.802L11.7234 87.7103V87.6194V87.1948V87.1039L11.9121 86.7703L12.2185 86.649L12.5486 86.4974L12.8786 86.2851L13.185 85.8909L13.2032 85.6576L13.1379 85.4058L12.4778 84.0109L12.4949 83.956L12.4778 83.9199L12.525 83.7683H12.7607L14.7881 84.4051L15.2596 84.4961L15.519 84.5264L15.7076 84.4657L15.7547 84.4354L16.6977 83.5864L16.8363 83.357L16.7448 83.1922L16.5798 82.9799L16.344 82.798L14.9767 82.0399L14.6938 81.7367L14.4817 81.2818L14.3402 80.3721L14.3501 80.3446L14.3402 80.2811L14.4817 79.8869L14.741 79.6443L15.8726 79.4018L16.2969 79.2501L16.3831 79.0561L16.3676 78.9166L16.1791 78.7043L15.8961 78.5527L15.5897 78.4011L15.2596 78.1888L15.0003 77.8856L14.5995 75.0958L14.4817 74.7926L14.2695 74.5804L13.9158 74.5197L13.5386 74.3681L13.185 74.1255L12.9729 73.4887L12.9811 73.4225L12.9729 73.3977L13.0672 72.6397L14.1045 71.6693V70.9719L10.3326 68.6673L9.83759 68.2125L9.36603 67.697L8.51746 66.0595L8.1402 65.544L7.66864 64.0885L7.6843 64.0459L7.66864 63.9975L8.28162 62.3297L9.34241 60.9652L10.2148 60.3891L11.4877 59.8432L12.0771 58.7819L12.8079 57.7509L14.4776 57.4182L14.4581 56.9928L13.963 56.1438L14.0103 56.1339L13.963 56.0528L15.2596 55.7799L18.2772 55.8709L19.0315 55.5373L21.3418 54.1728L22.3083 53.8696L23.8878 53.7179L27.6125 52.8082L28.2783 51.9813L28.1076 51.3224L27.0468 50.1701L26.5753 50.0185L26.597 49.9345L26.5753 49.9275L26.6224 49.7456L26.811 49.594L27.0939 49.412L27.4003 49.1695L27.7304 48.7449L27.8483 48.4114L27.8914 48.1341L27.754 45.9249L27.7586 45.9072L27.754 45.8339L27.8718 45.379L28.1076 45.1061L28.4141 45.0152H28.7205L28.9327 45.1365L29.0977 45.3184L29.2391 45.5307L29.3806 45.7429L29.6636 45.8945L30.0406 45.9552L30.913 45.9855L32.4689 45.8339L33.9069 45.652L34.2841 45.4397L34.6376 45.1061L35.0385 44.3784L35.2034 43.9235L35.2742 43.5293L35.2325 43.3147L35.1328 43.1351L34.8263 43.0441L32.7518 43.0138L32.3746 42.9229L32.1152 42.7712L31.9503 42.559L31.8323 42.3467L31.6673 42.1344L31.4788 41.9525L30.7008 41.4673L29.4278 40.3454L27.8483 39.4054L27.5183 39.2841L24.5715 38.6776L24.265 38.5866Z" fill="#333333"/>
<path d="M95.5403 47.6268V60.2464L98.5379 54.7367V42.1172L95.5403 47.6268ZM91.6231 47.0747V59.6943L95.5403 60.2464V47.6268L91.6231 47.0747ZM86.6964 48.7142V61.3337L91.6231 59.6915V47.0719L86.6964 48.7142ZM75.8699 50.9057V63.5253L86.6964 61.3337V48.7142L75.8699 50.9057ZM168.328 123.173V135.793L172.602 129.311V116.691L168.328 123.173ZM167.137 128.453V141.073L169.366 139.43V126.811L167.137 128.453Z" fill="#0B2856"/>
<path d="M189.75 144.061L189.812 157.874L188.312 158.562L187.062 158.499L183 157.438L180.812 157.874L178.75 157.938L177.594 157.906L176.938 159.438C174.646 158.812 170.062 157.488 170.062 157.188L168.938 160.124L165 159.124L164.562 159.562L163.5 159.062L161.125 159.499L159.875 159.438L156.688 158.499L153.688 161.374L151.562 160.812L150 163.438L148.937 163.812L145.75 162.749L143.937 165.062L140.937 166.188L134.25 165.374L132.125 165.562L129.625 167.249L126.937 166.374L125.25 168.624H114.312L112.125 169.249L111 169.812L110.25 168.124L109.5 167.312L108.437 161.124L107.812 160.499L106.125 160.749L105.625 161.124L104.187 161.188L102.5 159.062L100.25 151.438L93.875 147.124L93.0625 140.188L90.5 139.249L89.25 141.061L86.5625 141.311L83.875 142.999L81.875 143.249L80.375 144.624C79.725 144.824 79.0208 144.707 78.75 144.624L73.625 143.688L70.5625 141.811L69.25 140.999L65.8125 141.749L64.9375 144.624L58.75 145.749L57.25 146.312H56.3125L51.625 144.874L30.0625 142.438L27.8125 141.938L26.1875 141.188L25.1875 140.999L20.6875 143.311C19.8375 143.261 15.5 143.166 13.4375 143.124L10.6875 142.374L10.75 129.874L13.4375 130.249L20.8125 130.062L25.125 128.499H26.125L27.8125 129.249L30.0625 129.188L51.8125 131.938L56.75 133.249L58.375 132.812L64.75 132.499L61.25 131.188C60.8958 131 60.325 130.549 60.875 130.249C61.5625 129.874 61 129.5 62.5625 129.188C64.125 128.875 65.625 128.562 66 128.624C66.3 128.674 68.2916 128.478 69.25 128.374L70.625 128.624L73.875 130.188C74.1666 130.229 74.85 130.312 75.25 130.312C75.65 130.312 77.8333 130.77 78.875 130.999L79.75 130.874L81.6875 130.124L84.0625 129.749L86.625 127.688L88.9375 126.874L90.4375 125.999L91.75 125.812L93.0625 126.312L93.1875 127.812L95.25 125.938C95.8958 126.582 97.15 127.938 97 128.188C96.85 128.438 94.8958 132.832 93.9375 134.999L105.062 133.124L107.812 141.688L106.721 145.257C109.015 144.661 111.678 144.042 112.187 144.188C113.062 144.438 114.125 146.999 115.25 148.874C116.15 150.374 115.542 152.582 115.125 153.499L113.125 155.312L112.925 155.975L114.625 155.562L125.062 154.562L127.125 152.124L129.5 153.812L131.937 152.999L134.312 152.438L140.75 152.874L143.25 151.188L145.562 150.062L147.437 148.499L148.312 150.938L149.062 150.499C148.413 149.849 150.5 148.645 151.625 148.124L153.688 147.999L156.75 145.999L160 145.874L161.125 146.249L163.5 145.499L164.562 145.562L165.062 145.624L167.125 145.188L170.188 143.999L174.188 144.624L174.5 144.562L176.5 144.999L178.75 145.249L180.625 144.938L183.062 144.499L187 145.062L187.812 144.688L189.75 144.061Z" fill="#0B2856"/>
<path d="M13.5 125.125L13.5625 121.375L14.25 122.688C14.3958 122.958 14.7125 123.6 14.8125 124C14.9125 124.4 13.9792 124.917 13.5 125.125Z" fill="url(#paint0_linear)"/>
<path d="M14.6875 121.688L14.6793 120.445L14.625 120.438L11.9375 115.625L11.6875 111.5L12.625 106.875L11.1875 107.438L5.125 105.438L5.5625 104.688L5.6875 104.125L1 102.625V90.6253C2.1875 89.7503 4.7125 87.9378 5.3125 87.6878C6.0625 87.3753 8.5 86.3753 15.125 85.5628C21.75 84.7503 19.6875 86.7503 22.625 88.1878C25.5625 89.6253 24.3125 90.1253 24.9375 92.1253C25.5625 94.1253 24.6875 96.8128 25.8125 100.312C26.9375 103.812 28.0625 107.875 30.125 111.5C31.775 114.4 27.4375 119.583 25.0625 121.812L16.5697 120.694L14.6875 121.688Z" fill="#0B2856"/>
<path d="M4.4375 83.375V71.375L7.95924 72.2554L6.4375 70.625L9.375 61.25L9.125 58.5625L9.875 56.4375L7.6875 54.375V42.0625C9.77083 42.6042 14.1 43.775 14.75 44.125C15.5625 44.5625 16.9375 46.5 18.875 48.5625C20.8125 50.625 21.25 53.6875 24.3125 60.125C27.375 66.5625 21.9375 66.25 21.125 67.6875C20.475 68.8375 17.6875 71.2917 16.375 72.375L11.2048 73.9813C11.7094 74.398 12.2345 74.8595 12.6875 75.3125C13.7875 76.4125 14.1875 79.3959 14.25 80.75L5.4375 86.5L4.4375 83.375Z" fill="#0B2856"/>
<path d="M25.1875 34.125L24.25 28.25L23.0625 24.375L23.5 12.875L29.6875 13.8125L28.9321 16.6371C31.3906 16.8127 34.1455 17.1779 36.0625 17.875C40.1875 19.375 37.875 18.9375 40.1875 19.8125C42.5 20.6875 40.5625 21.5625 41.6875 26.3125C42.5875 30.1125 39.2708 31.7708 37.5 32.125L25.1875 34.125Z" fill="#0B2856"/>
<path d="M24.265 16.5866L24.2485 16.5281L24.2414 16.526L24.0528 15.8589L23.5106 12.5536L27.2747 8.92395L28.9485 7.71103L29.6086 7.01359L29.7264 6.46777L29.8207 5.16387L29.9386 4.61805L30.2686 4.19353L31.0938 3.3748L31.2588 2.91995L31.3766 1.79799L39.2577 5.01758L46.5233 2.12696L55.4452 0.173828L58.7264 0.720703L65.8983 8.93946L69.6796 14.7051L74.3202 21.6894L80.6952 27.2051L88.3983 33.7051L98.4452 42.1894L95.4921 47.5644L91.6171 47.0644L86.6014 48.6738L75.6639 50.9551L82.7264 56.0176L84.6952 61.7207L91.6796 81.9394L96.9921 79.4082L100.617 80.5332L116.195 81.1894L116.742 84.8613L120.117 86.4707L148.383 82.3301L148.805 85.1269L152.836 95.1113L163.93 94.2988L164.211 100.486L172.555 116.752L168.32 123.252L169.398 126.783L166.992 128.533L172.898 134.892L178.773 137.299L180.492 142.041L189.757 143.832L189.686 144.287L189.615 144.53L189.498 144.833L189.333 145.106L189.167 145.272L189.12 145.318L188.861 145.47L188.437 145.621L187.847 145.712L186.716 145.803L185.372 145.743L183.132 145.409L182.614 145.47L181.907 145.621L180.846 146.016L178.795 146.198L176.555 145.985L176.39 146.046L176.298 146.114L176.367 146.38L176.532 146.561L177.074 146.956L177.239 147.138L177.192 147.32L177.132 147.339L177.121 147.38L176.838 147.471L176.225 147.35L171.345 145.591L170.567 145.379L170.12 145.349H169.695L169.318 145.44L169.128 145.595L169.012 146.016V146.319L169.129 147.411V147.653L169.035 147.926L168.823 148.138L168.807 148.144L168.752 148.199L168.422 148.32L167.88 148.29L167.432 148.199L165.664 147.592L165.287 147.532L164.792 147.592L163.731 147.219L161.279 147.613L160.477 147.583L159.911 147.492L159.581 147.371L158.096 146.946L157.2 146.855L156.305 146.825L155.786 146.977L155.298 147.215L154.654 147.795L154.324 148.25L154.112 148.644L153.994 148.947L153.876 149.22L153.664 149.433L153.647 149.44L153.594 149.493L153.311 149.615L152.816 149.493L151.755 149.099L151.236 149.19L150.705 149.487L149.869 150.251L149.68 150.676V151.009L149.822 151.222L149.892 151.464L149.845 151.707L149.727 151.95L149.421 152.222L149.044 152.344L148.407 152.253L147.629 151.98L146.71 151.555L146.191 151.252L145.979 151.07L145.767 150.949H145.46L145.13 151.131L144.588 152.071L144.352 152.738L143.928 153.071L143.574 153.314L141.052 154.315L140.136 154.18L134.428 153.526L132.542 153.769L130.939 154.739L129.713 155.194H129.312L128.817 155.073L127.662 154.557L127.237 154.406L126.837 154.375L126.294 154.588L126.035 154.83L125.929 155.103L125.823 155.558L125.813 155.582L125.776 155.74L125.658 156.013L125.54 156.286L125.352 156.528L125.116 156.71L124.856 156.862L124.526 156.953L122.051 157.074L115.215 156.589L114.107 156.741L112.834 157.044L112.433 157.226L111.49 157.802L111.231 157.893L110.948 157.832L110.735 157.499V157.195L110.759 156.892L110.641 156.589L110.382 156.286L109.769 155.831L109.58 155.467L109.51 155.164L109.675 154.254L109.694 154.226L109.722 154.072L109.887 153.83L110.146 153.678L111.702 153.526L112.008 153.435L112.268 153.314L112.456 153.162L112.574 153.041L112.739 152.859L112.857 152.617L112.909 152.467L112.928 152.222L112.904 151.98L112.834 151.707L112.716 151.495L112.456 151.1L112.315 150.949L112.197 150.858L111.961 150.706L109.321 149.615L108.873 149.251L108.661 148.917L108.59 148.675L108.378 148.462L107.647 148.068L107.459 147.826L107.364 147.553L107.27 147.037L107.176 146.825L107.011 146.613L106.799 146.431L106.445 146.309L105.974 146.279L105.195 146.4L104.818 146.613L104.559 146.886L104.394 147.128L104.087 147.249L103.663 147.189L103.097 146.825L102.791 146.582L102.579 146.309L102.437 145.824L102.107 144.035V143.762L102.178 143.459L102.187 143.439L102.225 143.277L102.484 142.731L103.003 142.034L103.055 141.882L103.074 141.67L103.003 141.427L102.885 141.185L102.579 140.76L102.178 140.396L101.683 140.063L98.5476 138.456L96.0958 136.757L94.3514 135.332L94.0684 134.908L93.8328 134.453L93.7148 133.937L93.4084 130.42L93.5498 128.995L93.5262 128.722L93.3376 128.51L93.0312 128.388L90.6973 127.903H90.2729L90.0609 128.206L89.9194 128.479L89.5422 128.752L88.9293 128.995L87.4913 129.207L86.8783 129.45L86.4304 129.692L86.006 129.813L84.5209 130.086L84.238 130.299L84.2054 130.372L84.3558 130.814V130.875L84.3087 131.117L84.2948 131.128L84.2615 131.299L84.0259 131.481L83.6487 131.572L82.2106 131.33L81.6212 131.299L81.0318 131.481L80.6547 131.693L80.3954 131.906L80.3733 131.982L80.3954 132.209L80.4897 132.452L80.5368 132.694L80.4779 132.815L80.4897 132.876L80.3718 133.119L80.0417 133.21H79.5231L74.1246 131.784L71.7908 130.663L70.8242 130.026L69.9755 129.298L69.5511 129.177L68.9382 129.146L66.628 129.601L63.1155 130.753L62.8561 130.905L62.6439 131.087L62.5832 131.212L62.5968 131.299L62.691 131.39L62.7382 131.421L64.9306 132.239L65.1664 132.421L65.2371 132.664L65.1476 132.701L65.1899 132.846L64.6005 133.088L63.5162 133.361L60.6872 133.513L58.7542 133.846L58.1176 134.392L57.599 134.453L56.9154 134.392L51.564 132.906L30.3236 130.541L29.8285 130.359L27.9426 129.874L27.3532 129.632L26.976 129.419L26.7403 129.268L26.4338 129.116L25.7502 129.086L24.7836 129.177L22.9213 129.601L22.1669 129.904L21.7426 130.238L21.6247 130.511L21.4832 130.784L21.2946 130.996L21.0825 131.178L20.2338 131.269L13.5623 130.875L10.9927 129.965L11.0742 129.795L13.1615 125.447L13.7273 123.809L13.8216 122.93L13.798 122.627L13.7037 122.384L13.468 121.808L13.3737 121.353L13.468 121.08L13.7037 120.868L14.4344 120.535L14.8824 120.201L15.0474 119.928L15.1182 119.625V118.564L15.2125 117.805L15.4954 117.351L15.8726 117.017L16.3676 116.774L16.8862 116.441L17.4756 115.925L17.6406 115.44L17.617 114.985L17.4339 114.724L17.1691 114.591L16.6505 114.44L15.7547 114.015L15.6408 113.929L15.5661 113.894L14.8824 113.378L14.6231 113.075L14.4581 112.56L14.3638 111.832L14.3402 110.528L14.4344 109.8L15.849 105.737L16.0611 105.403L16.2969 105.161L16.5326 105.009L16.9569 104.888L17.3812 104.675L17.9471 104.069L18.1357 103.553L18.23 103.159L18.1828 102.613L18.1121 102.341L18.0886 100.794L18.2772 100.036L18.1592 99.6421L17.9827 99.4401L16.6977 98.7627L16.6227 98.7013L16.509 98.6414L16.2498 98.4292L16.0376 98.1259L15.9904 97.853L16.0376 97.5801L16.1555 97.3678L17.1927 96.5491L17.452 96.3975L17.9 96.0639L18.8665 94.8207L19.3851 93.9716L19.2908 93.6987L19.1965 93.6381L19.1964 93.638L18.4421 93.4258L17.5934 93.2742L17.2398 93.3045L17.0041 93.4865L15.7076 95.4272L15.4954 95.6394L15.2125 95.7607L14.8353 95.8213L11.2285 95.3665L9.76678 94.9117L9.08319 94.6387L8.77667 94.4568L8.71043 94.4081L8.58813 94.3355L8.25806 94.0929L8.18732 93.8503L8.30524 93.6684L9.27173 93.1832L9.62537 92.8497L9.69611 92.5768L9.62537 92.3342L9.50335 92.2165L9.36603 92.1522L9.03607 92.1219L7.64508 92.3948L7.22076 92.3645L6.79645 92.3039L4.15613 91.5458L1.51581 91.0606L1.16217 90.8787L1.16472 90.8557L0.973633 90.7574L0.997192 90.5451L1.09143 90.3329L2.6474 88.5134L2.81238 88.2102L3.00098 87.7554L2.93024 87.4521L2.7417 87.0276L2.38806 86.4515L2.34088 85.5114L2.43518 85.0869L2.69458 84.814L6.18347 84.0559L6.48999 83.8437L6.77283 83.6314L6.96149 83.0856V82.7823L6.82001 81.9636L6.89081 81.5391L7.05573 81.2662L8.94171 80.5991L9.24817 80.4171L9.50751 80.1442L9.53107 79.9016L9.43677 79.6287L9.03607 78.7797L9.05957 78.4158L9.22461 78.1429L9.43677 77.9306L9.62537 77.6577L9.57819 77.4151L9.41321 77.2332L8.54089 76.748L8.23444 76.5054L7.92804 76.1112L7.95154 75.717L8.06946 75.3228L8.30524 74.7163V74.3828L8.23444 74.0796L8.06946 73.8976L7.81012 73.746L7.50346 73.6615L6.89081 73.6854L6.8292 73.6804L6.70215 73.6854L6.32489 73.655L5.99487 73.5337L5.78278 73.2305L5.49988 72.7453L4.86334 71.9873L4.53333 71.5324L4.41547 71.2898L4.39191 71.1382L4.48615 70.9563L4.93408 70.2588L5.14618 70.0466L5.38196 69.8949L5.75916 69.8343L5.85632 69.849L5.94775 69.8343L6.34851 69.8949L6.72571 69.9556L6.96149 70.1072L7.07935 70.1982L7.22076 70.3498L7.71588 71.2292L7.88086 71.4111L8.11658 71.5627L8.39948 71.7143L8.77667 71.8356L9.20099 71.8963H9.86108L11.2991 71.684L11.9592 71.4718L12.2421 71.2898L12.5015 71.0472L12.7136 70.5924L12.69 70.2285L12.6193 69.804L12.4307 69.2582L12.4778 68.8943L12.6429 68.6214L12.8786 68.4091L13.0908 68.1665L13.1379 68.0149L13.0672 67.833L12.5721 67.5601L12.2185 67.1962L12.1213 66.8626L12.0771 66.802L11.7234 65.7103V65.6194V65.1948V65.1039L11.9121 64.7703L12.2185 64.649L12.5486 64.4974L12.8786 64.2851L13.185 63.8909L13.2032 63.6576L13.1379 63.4058L12.4778 62.0109L12.4949 61.956L12.4778 61.9199L12.525 61.7683H12.7607L14.7881 62.4051L15.2596 62.4961L15.519 62.5264L15.7076 62.4657L15.7547 62.4354L16.6977 61.5864L16.8363 61.357L16.7448 61.1922L16.5798 60.9799L16.344 60.798L14.9767 60.0399L14.6938 59.7367L14.4817 59.2818L14.3402 58.3721L14.3501 58.3446L14.3402 58.2811L14.4817 57.8869L14.741 57.6443L15.8726 57.4018L16.2969 57.2501L16.3831 57.0561L16.3676 56.9166L16.1791 56.7043L15.8961 56.5527L15.5897 56.4011L15.2596 56.1888L15.0003 55.8856L14.5995 53.0958L14.4817 52.7926L14.2695 52.5804L13.9158 52.5197L13.5386 52.3681L13.185 52.1255L12.9729 51.4887L12.9811 51.4225L12.9729 51.3977L13.0672 50.6397L14.1045 49.6693V48.9719L10.3326 46.6673L9.83759 46.2125L9.36603 45.697L8.51746 44.0595L8.1402 43.544L7.66864 42.0885L7.6843 42.0459L7.66864 41.9975L8.28162 40.3297L9.34241 38.9652L10.2148 38.3891L11.4877 37.8432L12.0771 36.7819L12.8079 35.7509L14.4776 35.4182L14.4581 34.9928L13.963 34.1438L14.0103 34.1339L13.963 34.0528L15.2596 33.7799L18.2772 33.8709L19.0315 33.5373L21.3418 32.1728L22.3083 31.8696L23.8878 31.7179L27.6125 30.8082L28.2783 29.9813L28.1076 29.3224L27.0468 28.1701L26.5753 28.0185L26.597 27.9345L26.5753 27.9275L26.6224 27.7456L26.811 27.594L27.0939 27.412L27.4003 27.1695L27.7304 26.7449L27.8483 26.4114L27.8914 26.1341L27.754 23.9249L27.7586 23.9072L27.754 23.8339L27.8718 23.379L28.1076 23.1061L28.4141 23.0152H28.7205L28.9327 23.1365L29.0977 23.3184L29.2391 23.5307L29.3806 23.7429L29.6636 23.8945L30.0406 23.9552L30.913 23.9855L32.4689 23.8339L33.9069 23.652L34.2841 23.4397L34.6376 23.1061L35.0385 22.3784L35.2034 21.9235L35.2742 21.5293L35.2325 21.3147L35.1328 21.1351L34.8263 21.0441L32.7518 21.0138L32.3746 20.9229L32.1152 20.7712L31.9503 20.559L31.8323 20.3467L31.6673 20.1344L31.4788 19.9525L30.7008 19.4673L29.4278 18.3454L27.8483 17.4054L27.5183 17.2841L24.5715 16.6776L24.265 16.5866Z" fill="#1C4587"/>
<defs>
<linearGradient id="paint0_linear" x1="20" y1="-188" x2="84.377" y2="147.11" gradientUnits="userSpaceOnUse">
<stop stop-color="#3A90B6"/>
<stop offset="1" stop-color="#075F92"/>
</linearGradient>
</defs>
</svg>
