<svg width="132" height="145" viewBox="0 0 132 145" fill="none" xmlns="http://www.w3.org/2000/svg">
<path opacity="0.1" d="M129.289 29.409L127.733 29.8335L127.474 29.9548L127.356 30.1064L127.544 30.258L127.851 30.3793L130.255 30.9555L130.868 31.2284L131.363 31.5619L131.576 31.7439L131.741 31.9561L131.811 32.2594L131.764 32.5929L131.434 33.1387L131.08 33.4116L130.703 33.5633L129.949 33.6542L127.356 33.6846L127.049 33.8059L126.861 33.9878L126.813 34.2607L127.002 34.5639L127.214 34.7762L127.45 34.9885L128.299 35.4433L128.487 35.6859L128.534 35.9588L128.181 36.7776L127.969 37.0808L127.756 37.2627L127.474 37.4143L126.177 37.8085L125.894 37.9602L125.729 38.1421L125.776 38.415L126.153 38.7789L126.531 38.9608L126.979 39.0821L127.898 39.2034L128.228 39.355L128.417 39.6279L128.228 40.2344L127.992 40.568L127.686 40.7802L123.631 41.508L123.018 41.7202L122.759 41.8718L122.499 42.0235L122.311 42.2054L122.169 42.4177L122.122 42.6299L122.146 42.9332L122.688 44.0855L122.924 44.8132L122.947 45.0861L122.9 45.4197L122.688 45.8745L122.099 46.6932L122.052 46.9965L122.099 47.33L122.452 47.8455L122.782 48.1184L123.702 48.6036L123.937 48.7552L124.15 48.9675L124.315 49.1798L124.409 49.392L124.432 49.7559L124.385 50.2107L124.15 50.9992L123.961 51.454L123.772 51.7876L123.678 52.0908V52.4547L123.914 53.0308L124.126 53.3341L124.362 53.5766L125.965 54.5167L126.153 54.6986L126.318 54.9109L126.578 55.3657L126.648 55.6083L126.672 56.0935L126.625 56.7606L126.389 58.1251L126.153 58.7619L125.894 59.1864L125.069 59.5806L124.81 59.7626L124.598 59.9445L124.22 60.3691L124.079 60.642L124.055 60.9755L124.126 61.3394L124.432 61.8549L124.692 62.1581L124.951 62.431L126.79 63.5227L127.026 63.7046L127.191 63.8866L127.238 64.2201L127.167 64.584L126.861 65.1905L126.578 65.524L126.271 65.7363L125.423 66.1608L125.187 66.3124L124.951 66.4943L124.763 66.7369L124.621 66.9795L124.385 67.5253L123.914 69.3144L123.584 70.1635L123.419 70.4061L123.183 70.5577L122.924 70.7093L120.967 71.2854L120.684 71.4067L120.448 71.5583L120.283 71.71L120.166 71.8616L119.01 73.3777L118.916 73.59L118.845 73.7416L118.822 74.0752L118.893 74.53L119.199 75.3184L120.283 77.1378L120.755 78.4114L121.226 80.2915L121.439 80.6856L121.674 80.9586L123.348 81.8379L123.56 82.0502L123.678 82.3231L123.702 82.687L123.631 83.445V84.0819L123.985 85.4161L124.008 85.8103L123.961 86.1439L123.537 86.9929L123.442 87.3871L123.466 87.7207L123.702 88.2361L123.914 88.5697L124.102 88.8426L124.833 89.631L124.928 89.8736V90.2072L124.645 90.6923L124.15 91.2382L124.032 91.5717L123.961 92.0265L123.914 92.724L123.702 93.0576L123.442 93.2698L122.358 93.4518L121.721 93.664L121.415 93.7853L121.156 93.9369L120.92 94.1189L120.755 94.3918L113.637 94.7557L113.613 95.2711L113.472 95.9989L119.953 97.0602L119.906 97.3938L119.953 97.7577L113.236 98.3035L113.472 98.6067L114.203 99.2132L114.344 99.4254L114.368 99.6983L114.203 100.032L113.684 100.79L113.566 101.063L113.401 101.669L113.425 102.033L113.519 102.397L114.439 104.004L114.533 104.247L114.58 104.52L114.533 104.853L114.25 105.399L113.991 105.702L113.708 105.884L119.906 106.309L119.435 106.642L119.223 106.855L119.058 107.067L119.01 107.431L119.105 107.886L119.529 108.644L113.142 109.553L113.331 109.978L113.283 110.069L119.765 110.493L118.916 110.615L118.657 110.766L118.562 111.039L118.869 111.646L118.94 111.979L118.822 112.343L118.515 112.495L115.832 112.707L115.643 112.919V113.192L116.185 113.799L116.374 114.132L116.468 114.466L116.374 115.102L116.232 115.466L116.044 115.77L115.855 115.982L115.69 116.224L115.572 116.467V116.74L115.737 116.922L116.185 116.952L116.963 116.831L117.293 116.801L117.576 116.922L117.694 117.164L117.623 117.559L117.246 118.468L116.728 120.652L116.751 120.985L116.845 121.349L117.765 122.38L117.977 122.562L118.236 122.714L119.627 123.199L119.91 123.35L119.981 123.532L119.792 123.775L119.439 123.866L118.613 123.927L118.307 124.018L118.189 124.23L118.048 124.715L117.859 124.927L117.435 125.291L117.27 125.503L117.246 125.807L117.458 126.11L118.307 126.807L118.59 127.11L118.731 127.444L118.59 127.808L118.213 128.323L118.071 128.566L118.024 128.839L117.93 130.203L117.859 130.476L117.741 130.78L117.293 131.538L117.175 131.841L117.105 132.114L117.199 132.447L117.505 132.842L118.307 133.387L118.896 133.63L119.439 133.751L119.886 133.782L120.264 133.903L120.429 134.115L120.358 134.449L120.217 134.752V135.055L120.358 135.358L120.947 135.662L121.372 135.722L121.725 135.631L122.197 135.267L122.409 135.237L122.621 135.328V135.783L122.598 136.086L122.527 136.298L122.385 136.511L121.772 137.117L121.584 137.329L121.56 137.602L121.678 137.906L122.244 138.3L122.645 138.512L124.036 139.088L124.366 139.24L125.002 139.695L125.921 140.15L126.11 140.331L125.898 140.604L125.591 140.726L125.214 140.756L124.908 140.847L124.766 141.12L124.955 141.666L125.426 142.666L117.369 144.304L115.483 144.728L108.456 144.546L120.169 143.879L118.425 143.061L117.553 142.818L116.28 142.697L98.0599 143.03L95.8911 142.03L95.7261 140.028L96.009 138.057L95.1838 137.117L93.1801 136.905L92.9443 137.208L92.85 138.209L93.0386 139.028L93.5337 139.786L94.5473 140.938L93.5572 141.787L92.2371 141.817L90.9169 141.302L89.8561 140.513L89.1253 139.513L89.1488 138.724L90.0447 136.45L89.9975 136.935L90.2332 135.601L90.0682 134.631L89.4317 134.206L88.2766 134.479L87.923 134.873L87.4986 135.995L87.1214 136.238H86.4378L84.7169 135.601L83.821 136.086L82.6895 137.451L81.4636 137.936L80.2849 137.997L79.1297 137.845L75.7351 136.814L75.7115 136.632L75.8529 135.995L75.6172 135.571L74.2499 134.236L73.0476 133.6L72.3168 132.417L71.2795 131.75L69.2286 132.508L68.6863 133.084L68.427 133.721L68.097 134.206L67.2719 134.358L66.5175 133.933L66.1168 132.265L65.5981 131.841L62.4863 131.507L60.9068 131.113L60.0582 130.598L60.176 130.203L60.6475 129.84L60.9304 129.294L60.5532 128.475L59.9403 127.869L59.7281 127.747L59.7989 127.596L59.9638 126.929L60.2468 126.504L60.6947 126.322L60.8125 125.898L60.176 124.806L59.7517 124.533L57.8657 123.684L55.8855 122.259L54.7068 121.834L52.8916 121.592L51.6893 121.288L50.1098 120.561L48.6953 119.712L47.9645 118.923L48.5539 118.559L49.0018 118.104L49.709 117.164L49.0961 117.043L48.0353 116.619L47.5874 116.497L46.9273 116.649L46.833 117.104L46.9037 117.589L46.6915 117.892L45.5128 118.014L44.5934 117.771L43.7448 117.407L42.8489 117.195L41.4109 117.255L41.0337 117.589L41.128 118.195L41.1516 119.105L40.9158 120.106L40.7037 120.166L40.185 119.894L39.0534 119.954L35.1637 122.107L33.2306 122.441L32.5941 120.591L33.5371 119.439L37.6626 118.923L39.3128 118.044L35.5645 116.649L33.8907 116.558L31.9576 117.68L31.8869 116.437L32.4291 114.557L33.2778 112.828L34.1029 112.01L34.1736 111.494L33.1363 111.373L32.2641 111.524L30.5903 112.282L29.9302 112.737L29.4352 113.192L29.1287 113.768L28.9165 114.557L28.4922 115.406L27.8557 115.8L26.9834 115.254L25.4982 113.404L25.1918 112.737L25.2153 112.04L25.8755 110.888L25.9226 110.19L25.3097 109.675L21.7263 108.007L20.6419 107.825L17.648 108.067L16.4221 107.946L15.4556 107.37L14.5833 106.218L14.324 105.581V105.126L14.2533 104.702L13.8761 104.216L13.3339 103.883L11.0708 103.155L10.3635 102.761L10.2928 102.7L10.1514 102.458L10.0807 102.215L10.1042 101.972L10.1514 101.7L10.2928 101.457L10.5286 101.305L10.9058 101.214L11.2829 101.184L11.7308 101.214L12.5559 101.396L14.5126 102.185L15.2434 102.367L15.6442 102.397L16.0214 102.367L16.375 102.306L16.6579 102.154L16.8936 102.003L17.1058 101.821L17.2472 101.578V101.336L17.1765 101.093L17.0351 100.881L16.9172 100.669L16.8465 100.396V100.123L16.8936 99.5467L16.87 99.2132L16.7522 98.8493L16.4457 98.3338L16.1393 98.0306L15.8092 97.8183L13.664 97.4544L12.3673 96.9389L11.9902 96.9086L11.613 96.9389L11.2829 97.0299L10.67 97.3028L10.3635 97.4544L10.0335 97.5757L9.63279 97.6363L8.97267 97.5757L8.64264 97.4241L8.43045 97.2118L8.26546 96.9996L8.28902 96.8176L8.24185 96.5447L8.28902 96.2718L8.35973 95.9686L8.54836 95.3924L8.61908 95.0892L8.6662 94.8163V94.5434L8.26546 93.6034L8.2183 93.3911L8.26546 93.1485L8.38333 92.9059L8.59549 92.6937L8.83124 92.5117L9.98638 91.9963L10.2221 91.8446L10.4343 91.6324L10.5757 91.3898L10.6936 91.1169L10.7643 90.8439L10.8115 90.5407L10.8351 90.2678L10.8115 89.9949L10.6936 89.4794L10.505 88.8123L10.2928 88.2665L10.0571 87.9632L10.0099 87.9329L8.57192 87.5084L8.26546 87.2658L8.10042 87.0232L8.0533 86.7503V85.9013L7.88826 84.567L7.74683 84.0515L7.62896 83.8393L7.55823 83.5967L7.51107 83.3238L7.55823 83.0509L7.6761 82.778L7.8411 82.5354L8.24185 82.1108L8.38333 81.8683L8.40689 81.5347L8.07686 80.8069L7.77039 80.3521L6.82741 77.9869L5.90802 76.5313L0.933838 70.4364L1.99471 69.1931L2.37188 68.3441L3.05553 66.1001L3.40917 65.7363L3.83347 65.5847L4.7293 65.6756L5.13008 65.7666H5.71942L6.40309 65.706L19.1568 61.9155L19.6047 61.7033L21.8678 59.3987L22.3865 58.7013L22.5279 58.4587L22.8815 57.9735L24.6731 56.1238L25.0975 55.8509L25.4747 55.6993L25.8047 55.7599L25.9933 55.9115L26.1583 56.1238L26.3705 56.3057L26.7477 56.3967L27.5963 56.4877L28.2329 56.4573L28.6572 56.3664L30.2603 55.8509L30.7553 55.578L31.1089 55.3051L31.2504 55.0625L31.3447 54.7896L31.3682 54.5167L31.3211 54.2741L31.2504 54.0618L31.0853 53.8192L30.0481 52.6063L29.6709 51.9392L29.6002 51.6663L29.6237 51.3934L29.718 51.1204L30.331 49.9075L30.6374 49.4223L30.9911 49.2101L31.4154 49.1191L34.7394 48.9978L35.5173 48.9069L36.201 48.7552L41.4581 48.361L41.8352 48.3004L44.4284 47.5423L45.9843 47.33L46.4086 47.2391L47.8467 46.7539L48.2474 46.6932L49.3083 46.6629L50.0391 46.572L51.3121 46.2384L51.925 45.9958L52.3493 45.7532L52.5615 45.541L52.7501 45.3287L52.868 45.0861L52.9152 44.8132L52.8916 44.5706L52.7973 44.2977L52.703 44.0551L52.4672 43.6003L52.4437 43.3274L52.5615 42.9635L52.9623 42.4177L53.3159 42.1751L53.7402 42.0538H54.7304L55.414 41.9628L55.7441 41.7809L55.9091 41.5383V41.2654L55.8619 41.0228L55.7676 40.7802L55.6262 40.568L54.8718 39.8099L54.7304 39.5976L54.5182 39.1428L54.3532 38.9305L54.141 38.7789L52.7266 38.0208L52.4908 37.8388L52.1136 37.475L51.9722 37.2324L51.9486 37.1111L51.8543 36.7776L51.9015 36.2924L52.2079 35.231L52.3258 34.9581L52.6087 34.7459L53.0566 34.6852L53.9524 34.8368L54.3532 35.0491L54.8246 35.3827H55.0604L55.249 35.0794L55.3904 34.7762L55.5319 34.1394L55.579 33.8665L55.5319 33.3207V33.0478L55.6262 32.7749L55.7676 32.5323L55.9798 32.3807L58.1015 31.6832L58.573 31.38L58.8794 31.0768L59.0209 30.8342L59.6103 30.2277L59.6338 29.9851L59.5395 29.7729L59.3509 29.5909L58.573 29.1058L58.3608 28.9238L58.1722 28.7419L58.1015 28.4993L58.0543 28.2264L58.2429 27.6806L58.7851 26.5889L58.9502 26.3463L59.1623 26.1341L59.7045 26.0734L60.5061 26.1644L62.1798 26.5586L63.6414 27.1044L65.3624 27.4683L65.8103 27.7109L66.1403 27.9231L66.3997 28.0444L66.8475 28.0748L67.4605 27.9231L67.8612 27.7715L69.4879 26.8921L69.8179 26.8012H70.1479L70.5487 27.0134L70.973 27.4683L71.2795 27.5896H71.7274L72.4582 27.3773L72.8826 27.165L74.0377 26.5283L74.6978 26.316L75.9001 26.1947L84.0332 26.1644L85.0233 25.8915L85.5891 25.6186L92.5435 21.3733L94.3116 20.6152L94.9717 20.6455L95.8675 20.7972L97.8006 21.4036L98.7436 21.5552L99.4272 21.6159L117.36 21.0094L117.714 20.9488L117.997 21.0094L118.445 21.0397L118.869 21.0701L119.67 21.2823L123.961 22.8288L124.456 22.9198L124.88 22.9501L125.258 22.9198L127.356 22.4649L127.945 22.192L128.699 21.7069L128.959 21.6159L129.289 21.7069L129.619 22.0404L129.784 22.3437L129.807 22.6772L129.548 23.1017L129.289 23.3443L128.723 23.7385L128.487 23.9205L128.087 24.345L127.733 24.8301L127.615 25.1031L127.497 25.376L127.521 25.7095L127.662 26.0734L128.228 26.4676L128.699 26.6496L129.1 27.0134L129.289 27.3167V29.409Z" fill="#333333"/>
<path d="M7.84766 62.625L7.91016 50.6875L17.9727 53.6875C18.4935 54.6667 19.7477 57.2875 20.5977 59.9375C21.4477 62.5875 20.1602 65.125 19.4102 66.0625L23.0977 74.3125C23.9518 74.9167 25.7602 76.175 26.1602 76.375C26.6602 76.625 28.4727 77.9375 30.2227 79.375C31.6227 80.525 28.8477 83.4792 27.2852 84.8125L17.5352 82.1875L19.0352 83.1875L21.6602 84.5L23.2852 85.625L27.7852 87.25C29.2227 86.9792 32.5977 86.45 34.5977 86.5C37.0977 86.5625 35.3477 87.6875 36.1602 89C36.8102 90.05 33.9727 91.7708 32.4727 92.5L35.2227 94.5625L35.7852 94.5L36.4727 92.75C37.4935 91.375 40.0852 88.675 42.2852 88.875C45.0352 89.125 44.0977 89.9375 44.5977 90.8125C45.0977 91.6875 42.5352 93.6875 41.7852 94.5625C41.1852 95.2625 39.8685 96.1875 39.2852 96.5625C40.9727 96.0625 44.5227 95.05 45.2227 95C46.0977 94.9375 46.4727 96.0625 47.5352 97.25L48.0352 96.375L49.0977 96L49.4102 95.9375L52.5352 97.3125L53.7227 96.875L53.2227 94.0625C53.4518 94.0417 54.7102 94.25 57.9102 95.25C61.9102 96.5 58.1602 95.8125 59.2852 98.375C60.4102 100.938 55.9727 99.625 55.5977 99.6875C57.0143 100.021 59.9352 100.688 60.2852 100.688C60.6352 100.688 61.5143 100.896 61.9102 101L64.7852 102.438C65.7852 102.479 67.9977 102.625 68.8477 102.875C69.6977 103.125 70.1602 104.938 70.2852 105.812C69.9518 106.875 69.2602 109.088 69.1602 109.438C69.0941 109.669 68.6973 109.967 68.3154 110.203L72.4727 107.875L74.8477 111.938L76.3477 111.438L78.5977 110.438L80.2227 112.125C81.2435 112.875 83.2977 114.438 83.3477 114.688L86.5977 116.438L86.9102 116.375L87.5352 116.562L89.4727 116.438L92.0977 114.688C92.6602 114.604 93.8602 114.425 94.1602 114.375L96.2852 113.25C96.8477 113.167 98.1852 113.162 99.0352 113.812C100.098 114.625 99.1602 115.125 99.0977 115.812C100.014 115.417 102.123 114.8 103.223 115.5C104.598 116.375 104.16 117.188 104.785 118.688C105.41 120.188 104.723 120.938 104.723 121.938C106.077 121.604 108.86 120.938 109.16 120.938C109.163 120.938 109.166 120.938 109.169 120.94L113.723 122.312C114.378 122.211 115.565 122.031 116.425 121.915L115.348 120.75L119.098 120.688L119.15 124.186L119.348 124.438L119.66 136.188L117.348 137L113.973 136.125L109.41 134.562L105.098 135.375L102.723 133.875L102.66 129.188L102.16 129.25L101.66 133.188L100.473 133.938L98.2227 133.25L96.2852 126.312C96.1852 126.713 95.2852 127.938 94.8477 128.5H93.8477L92.0977 127.75L89.7852 129.312L87.4102 130.062L86.2852 130L82.8477 128.75L80.2852 125.875L78.6602 123.5L76.4727 124L75.2227 126.438H74.4102L72.7227 123.938L67.1602 122.438L64.6602 115.625L61.9102 113.938L55.4102 111.25L53.7227 110.062C53.4518 110.042 52.8102 110.012 52.4102 110.062L49.5352 109.062L48.7852 108.938L48.1602 112.5L46.3477 112.25L42.4102 114.25L40.2852 114.625L39.0352 109.5L38.0977 104.875L37.6602 104.625L36.5352 105.375L35.5977 107.375L34.9727 107.438L32.2852 104.312L28.0352 100.062L23.4102 100.125L21.7227 99.125C21.2643 98.9375 20.2727 98.55 19.9727 98.5C19.6727 98.45 19.1393 97.9375 18.9102 97.6875L16.7852 94.4375L15.2852 89.625L15.1602 76.8125L15.4727 76.375L15.2852 73.4375L13.9102 72.8125L13.5977 71.1875L11.0977 69.25L7.84766 62.625Z" fill="#0B2856"/>
<path d="M115.535 119.438V115.688L113.098 117.374L114.285 118.624L115.535 119.438Z" fill="#0B2856"/>
<path d="M112.91 103.688V113.062L111.848 114.75L104.973 112.125C104.577 111.479 104.06 109.963 105.16 109.062C106.258 108.164 107.946 104.824 108.656 103.258C107.002 102.876 105.019 102.165 105.098 101.188C105.223 99.625 103.16 96.625 104.098 95.0625C104.848 93.8125 106.993 91.875 107.973 91.0625L108.169 91.0033L105.91 85.75L108.761 85.2342L107.41 83.375C106.014 80.2917 103.36 74.0625 103.91 73.8125C104.598 73.5 106.223 72.625 108.098 72.25C108.735 72.1225 109.741 72.2087 110.808 72.3867L112.329 71.7498C111.248 68.9583 110.178 66.5181 109.535 65.875C107.848 64.1875 98.5977 58.25 98.8477 55.625C99.0977 53 99.7852 49.6875 100.41 49.375C101.035 49.0625 108.348 46.1875 109.348 45.8125C110.148 45.5125 115.598 44.6875 118.223 44.3125L118.16 56.1875L116.348 59.25L114.629 62.4375L114.348 65.6562L114.098 68.4375L115.91 70.25L116.066 80.7188L115.91 81.9375L114.785 85.125L112.501 89.4707L112.535 95.4375L111.473 98.6875L109.948 103.383L112.91 103.688Z" fill="#0B2856"/>
<path d="M119.598 32.1562L118.004 33.4062L117.191 36.6137C117.372 36.4815 117.541 36.3588 117.691 36.25L117.754 44.0312C116.473 43.7501 113.879 43.1064 113.754 42.7812C113.598 42.3751 112.785 40.75 112.91 40.5625C113.035 40.375 113.223 39.7812 113.535 39.4062C113.675 39.2382 114.561 38.5583 115.539 37.8299C114.246 37.7378 112.752 37.3993 112.41 36.5C111.816 34.9375 108.566 29.8125 108.16 27.5625C107.754 25.3125 106.723 23.4688 107.41 22.625C108.098 21.7812 109.816 19.8125 110.691 19.8438C111.07 19.8573 112.817 19.8409 114.754 19.8165L113.66 17.0312C113.212 16.0208 112.429 13.9187 112.879 13.5938C113.441 13.1875 116.723 13.5312 117.316 13.4375C117.791 13.3625 121.118 12.7188 122.723 12.4062L122.754 25.3438L119.598 32.1562Z" fill="#0B2856"/>
<path d="M120.285 11.5695V11.7188C120.183 11.6984 120.058 11.6725 119.921 11.6433C117.83 12.0637 115.025 12.5623 114.941 12.3125C114.816 11.9375 114.098 10.875 114.66 8.65625C115.223 6.4375 115.004 5.9375 115.691 4.78125C116.241 3.85625 118.066 3.64583 118.91 3.65625L120.91 2.625L121.066 11.4062C120.831 11.4566 120.567 11.5117 120.285 11.5695Z" fill="#0B2856"/>
<path d="M58.8477 28.3125C58.8477 24.5 58.8852 16.825 59.0352 16.625C60.056 17.375 62.6227 19.1 64.7227 20C67.3477 21.125 65.3477 20.9375 65.3477 21.25C65.3477 21.5625 63.6602 23.875 61.8477 26.5625C60.3977 28.7125 59.2435 28.625 58.8477 28.3125Z" fill="#0B2856"/>
<path d="M65.2227 13.3125V8.25L66.0977 7.5C66.2435 7.64583 66.8477 8.275 68.0977 9.625C69.6602 11.3125 68.7852 11.3125 69.4102 13C69.9102 14.35 66.8268 13.7708 65.2227 13.3125Z" fill="#0B2856"/>
<path d="M36.9727 38.5L36.7227 31.8125C37.3268 31.9583 38.6727 32.4375 39.2227 33.1875C39.9102 34.125 39.3477 34.625 39.4102 35.9375C39.4602 36.9875 37.806 38.0833 36.9727 38.5Z" fill="#0B2856"/>
<path d="M120.289 9.52034L118.733 9.94486L118.474 10.0661L118.356 10.2177L118.544 10.3693L118.851 10.4906L121.255 11.0668L121.868 11.3397L122.363 11.6732L122.576 11.8552L122.741 12.0675L122.811 12.3707L122.764 12.7042L122.434 13.2501L122.08 13.523L121.703 13.6746L120.949 13.7655L118.356 13.7959L118.049 13.9172L117.861 14.0991L117.813 14.372L118.002 14.6753L118.214 14.8875L118.45 15.0998L119.299 15.5546L119.487 15.7972L119.534 16.0701L119.181 16.8889L118.969 17.1921L118.756 17.374L118.474 17.5256L117.177 17.9198L116.894 18.0715L116.729 18.2534L116.776 18.5263L117.153 18.8902L117.531 19.0721L117.979 19.1934L118.898 19.3147L119.228 19.4663L119.417 19.7392L119.228 20.3457L118.992 20.6793L118.686 20.8915L114.631 21.6193L114.018 21.8316L113.759 21.9832L113.499 22.1348L113.311 22.3167L113.169 22.529L113.122 22.7413L113.146 23.0445L113.688 24.1968L113.924 24.9245L113.947 25.1974L113.9 25.531L113.688 25.9858L113.099 26.8046L113.052 27.1078L113.099 27.4414L113.452 27.9568L113.782 28.2297L114.702 28.7149L114.937 28.8666L115.15 29.0788L115.315 29.2911L115.409 29.5033L115.432 29.8672L115.385 30.3221L115.15 31.1105L114.961 31.5653L114.772 31.8989L114.678 32.2021V32.566L114.914 33.1421L115.126 33.4454L115.362 33.688L116.965 34.628L117.153 34.8099L117.318 35.0222L117.578 35.477L117.648 35.7196L117.672 36.2048L117.625 36.8719L117.389 38.2364L117.153 38.8732L116.894 39.2978L116.069 39.692L115.81 39.8739L115.598 40.0558L115.22 40.4804L115.079 40.7533L115.055 41.0868L115.126 41.4507L115.432 41.9662L115.692 42.2694L115.951 42.5424L117.79 43.634L118.026 43.8159L118.191 43.9979L118.238 44.3314L118.167 44.6953L117.861 45.3018L117.578 45.6353L117.271 45.8476L116.423 46.2721L116.187 46.4237L115.951 46.6057L115.763 46.8483L115.621 47.0908L115.385 47.6367L114.914 49.4257L114.584 50.2748L114.419 50.5174L114.183 50.669L113.924 50.8206L111.967 51.3968L111.684 51.518L111.448 51.6697L111.283 51.8213L111.166 51.9729L110.01 53.4891L109.916 53.7013L109.845 53.8529L109.822 54.1865L109.893 54.6414L110.199 55.4298L111.283 57.2492L111.755 58.5227L112.226 60.4028L112.439 60.797L112.674 61.0699L114.348 61.9492L114.56 62.1615L114.678 62.4344L114.702 62.7983L114.631 63.5564V64.1932L114.985 65.5274L115.008 65.9216L114.961 66.2552L114.537 67.1042L114.442 67.4984L114.466 67.832L114.702 68.3475L114.914 68.681L115.102 68.9539L115.833 69.7423L115.928 69.9849V70.3185L115.645 70.8037L115.15 71.3495L115.032 71.683L114.961 72.1379L114.914 72.8353L114.702 73.1689L114.442 73.3811L113.358 73.5631L112.721 73.7753L112.415 73.8966L112.156 74.0482L111.92 74.2302L111.755 74.5031L111.637 74.867L111.613 75.3825L111.472 76.1102L110.953 77.1715L110.906 77.5051L110.953 77.869L111.236 78.4148L111.472 78.718L112.203 79.3245L112.344 79.5368L112.368 79.8097L112.203 80.1432L111.684 80.9013L111.566 81.1742L111.401 81.7807L111.425 82.1446L111.519 82.5084L112.439 84.1156L112.533 84.3581L112.58 84.6311L112.533 84.9646L112.25 85.5104L111.991 85.8137L111.708 85.9956L110.906 86.4201L110.435 86.7537L110.223 86.966L110.058 87.1782L110.01 87.5421L110.105 87.997L110.529 88.755L111.142 89.6647L111.331 90.0892L111.283 90.1802L110.765 90.6048L109.916 90.7261L109.657 90.8777L109.562 91.1506L109.869 91.757L109.94 92.0906L109.822 92.4545L109.515 92.6061L108.832 92.8183L108.643 93.0306V93.3035L109.185 93.91L109.374 94.2435L109.468 94.5771L109.374 95.2139L109.232 95.5778L109.044 95.881L108.855 96.0933L108.69 96.3359L108.572 96.5785V96.8514L108.737 97.0333L109.185 97.0636L109.963 96.9423L110.293 96.912L110.576 97.0333L110.694 97.2759L110.623 97.6701L110.246 98.5798L109.728 100.763L109.751 101.096L109.845 101.46L110.765 102.491L110.977 102.673L111.236 102.825L112.627 103.31L112.91 103.462L112.981 103.643L112.792 103.886L112.439 103.977L111.613 104.038L111.307 104.129L111.189 104.341L111.048 104.826L110.859 105.038L110.435 105.402L110.27 105.614L110.246 105.918L110.458 106.221L111.307 106.918L111.59 107.222L111.731 107.555L111.59 107.919L111.213 108.435L111.071 108.677L111.024 108.95L110.93 110.315L110.859 110.587L110.741 110.891L110.293 111.649L110.175 111.952L110.105 112.225L110.199 112.559L110.505 112.953L111.307 113.499L111.896 113.741L112.439 113.862L112.886 113.893L113.264 114.014L113.429 114.226L113.358 114.56L113.217 114.863V115.166L113.358 115.47L113.947 115.773L114.372 115.833L114.725 115.742L115.197 115.379L115.409 115.348L115.621 115.439V115.894L115.598 116.197L115.527 116.41L115.385 116.622L114.772 117.228L114.584 117.441L114.56 117.713L114.678 118.017L115.244 118.411L115.645 118.623L117.036 119.199L117.366 119.351L118.002 119.806L118.921 120.261L119.11 120.443L118.898 120.715L118.591 120.837L118.214 120.867L117.908 120.958L117.766 121.231L117.955 121.777L118.426 122.777L119.369 124.415L117.483 124.839L115.456 124.658L113.169 123.99L111.425 123.172L110.553 122.929L109.28 122.808L105.06 123.141L102.891 122.141L102.726 120.139L103.009 118.168L102.184 117.228L100.18 117.016L99.9443 117.319L99.85 118.32L100.038 119.139L100.534 119.897L101.547 121.049L100.557 121.898L99.2371 121.928L97.9169 121.413L96.8561 120.625L96.1253 119.624L96.1488 118.835L97.0447 116.561L96.9975 117.046L97.2332 115.712L97.0682 114.742L96.4317 114.317L95.2766 114.59L94.923 114.984L94.4986 116.106L94.1214 116.349H93.4378L91.7169 115.712L90.821 116.197L89.6895 117.562L88.4636 118.047L87.2849 118.108L86.1297 117.956L82.7351 116.925L82.7115 116.743L82.8529 116.106L82.6172 115.682L81.2499 114.348L80.0476 113.711L79.3168 112.528L78.2795 111.861L76.2286 112.619L75.6863 113.195L75.427 113.832L75.097 114.317L74.2719 114.469L73.5175 114.044L73.1168 112.377L72.5981 111.952L69.4863 111.618L67.9068 111.224L67.0582 110.709L67.176 110.315L67.6475 109.951L67.9304 109.405L67.5532 108.586L66.9403 107.98L66.7281 107.858L66.7989 107.707L66.9638 107.04L67.2468 106.615L67.6947 106.433L67.8125 106.009L67.176 104.917L66.7517 104.644L64.8657 103.795L62.8855 102.37L61.7068 101.945L59.8916 101.703L58.6893 101.4L57.1098 100.672L55.6953 99.8231L54.9645 99.0346L55.5539 98.6707L56.0018 98.2159L56.709 97.2759L56.0961 97.1546L55.0353 96.7301L54.5874 96.6087L53.9273 96.7604L53.833 97.2152L53.9037 97.7004L53.6915 98.0036L52.5128 98.1249L51.5934 97.8823L50.7448 97.5185L49.8489 97.3062L48.4109 97.3668L48.0337 97.7004L48.128 98.3069L48.1516 99.2166L47.9158 100.217L47.7037 100.278L47.185 100.005L46.0534 100.065L42.1637 102.218L40.2306 102.552L39.5941 100.702L40.5371 99.5501L44.6626 99.0346L46.3128 98.1553L42.5645 96.7604L40.8907 96.6694L38.9576 97.7914L38.8869 96.5481L39.4291 94.6681L40.2778 92.9396L41.1029 92.1209L41.1736 91.6054L40.1363 91.4841L39.2641 91.6357L37.5903 92.3938L36.9302 92.8487L36.4352 93.3035L36.1287 93.8797L35.9165 94.6681L35.4922 95.5171L34.8557 95.9113L33.9834 95.3655L32.4982 93.5158L32.1918 92.8487L32.2153 92.1512L32.8755 90.9989L32.9226 90.3015L32.3097 89.786L28.7263 88.1183L27.6419 87.9363L24.648 88.1789L23.4221 88.0576L22.4556 87.4815L21.5833 86.3292L21.324 85.6924V85.2375L21.2533 84.813L20.8761 84.3278L20.3339 83.9943L18.0708 83.2665L17.3635 82.8723L17.2928 82.8117L17.1514 82.5691L17.0807 82.3265L17.1042 82.0839L17.1514 81.811L17.2928 81.5684L17.5286 81.4168L17.9058 81.3258L18.2829 81.2955L18.7308 81.3258L19.5559 81.5078L21.5126 82.2962L22.2434 82.4781L22.6442 82.5084L23.0214 82.4781L23.375 82.4174L23.6579 82.2658L23.8936 82.1142L24.1058 81.9323L24.2472 81.6897V81.4471L24.1765 81.2046L24.0351 80.9923L23.9172 80.78L23.8465 80.5071V80.2342L23.8936 79.6581L23.87 79.3245L23.7522 78.9606L23.4457 78.4451L23.1393 78.1419L22.8092 77.9296L20.664 77.5657L19.3673 77.0503L18.9902 77.0199L18.613 77.0503L18.2829 77.1412L17.67 77.4141L17.3635 77.5657L17.0335 77.687L16.6328 77.7477L15.9727 77.687L15.6426 77.5354L15.4304 77.3231L15.2655 77.1109L15.289 76.9289L15.2418 76.656L15.289 76.3831L15.3597 76.0799L15.5483 75.5037L15.6191 75.2005L15.6662 74.9276V74.6547L15.2655 73.7147L15.2183 73.5024L15.2655 73.2598L15.3833 73.0172L15.5955 72.805L15.8312 72.6231L16.9864 72.1076L17.2221 71.9559L17.4343 71.7437L17.5757 71.5011L17.6936 71.2282L17.7643 70.9553L17.8115 70.652L17.8351 70.3791L17.8115 70.1062L17.6936 69.5907L17.505 68.9236L17.2928 68.3778L17.0571 68.0745L17.0099 68.0442L15.5719 67.6197L15.2655 67.3771L15.1004 67.1345L15.0533 66.8616V66.0126L14.8883 64.6784L14.7468 64.1629L14.6289 63.9506L14.5582 63.708L14.5111 63.4351L14.5582 63.1622L14.6761 62.8893L14.8411 62.6467L15.2418 62.2222L15.3833 61.9796L15.4069 61.646L15.0769 60.9183L14.7704 60.4634L13.8274 58.0982L12.908 56.6427L7.93384 50.5477L8.99471 49.3044L9.37188 48.4554L10.0555 46.2115L10.4092 45.8476L10.8335 45.696L11.7293 45.7869L12.1301 45.8779H12.7194L13.4031 45.8173L26.1568 42.0269L26.6047 41.8146L28.8678 39.51L29.3865 38.8126L29.5279 38.57L29.8815 38.0848L31.6731 36.2351L32.0975 35.9622L32.4747 35.8106L32.8047 35.8712L32.9933 36.0228L33.1583 36.2351L33.3705 36.417L33.7477 36.508L34.5963 36.599L35.2329 36.5687L35.6572 36.4777L37.2603 35.9622L37.7553 35.6893L38.1089 35.4164L38.2504 35.1738L38.3447 34.9009L38.3682 34.628L38.3211 34.3854L38.2504 34.1731L38.0853 33.9305L37.0481 32.7176L36.6709 32.0505L36.6002 31.7776L36.6237 31.5047L36.718 31.2318L37.331 30.0188L37.6374 29.5337L37.9911 29.3214L38.4154 29.2304L41.7394 29.1091L42.5173 29.0182L43.201 28.8666L48.4581 28.4723L48.8352 28.4117L51.4284 27.6536L52.9843 27.4414L53.4086 27.3504L54.8467 26.8652L55.2474 26.8046L56.3083 26.7742L57.0391 26.6833L58.3121 26.3497L58.925 26.1071L59.3493 25.8645L59.5615 25.6523L59.7501 25.44L59.868 25.1974L59.9152 24.9245L59.8916 24.6819L59.7973 24.409L59.703 24.1664L59.4672 23.7116L59.4437 23.4387L59.5615 23.0748L59.9623 22.529L60.3159 22.2864L60.7402 22.1651H61.7304L62.414 22.0741L62.7441 21.8922L62.9091 21.6496V21.3767L62.8619 21.1341L62.7676 20.8915L62.6262 20.6793L61.8718 19.9212L61.7304 19.7089L61.5182 19.2541L61.3532 19.0418L61.141 18.8902L59.7266 18.1321L59.4908 17.9502L59.1136 17.5863L58.9722 17.3437L58.9486 17.2224L58.8543 16.8889L58.9015 16.4037L59.2079 15.3424L59.3258 15.0695L59.6087 14.8572L60.0566 14.7965L60.9524 14.9482L61.3532 15.1604L61.8246 15.494H62.0604L62.249 15.1907L62.3904 14.8875L62.5319 14.2507L62.579 13.9778L62.5319 13.432V13.1591L62.6262 12.8862L62.7676 12.6436L62.9798 12.492L65.1015 11.7945L65.573 11.4913L65.8794 11.1881L66.0209 10.9455L66.6103 10.339L66.6338 10.0964L66.5395 9.88421L66.3509 9.70227L65.573 9.21711L65.3608 9.03516L65.1722 8.85321L65.1015 8.61065L65.0543 8.33773L65.2429 7.79192L65.7851 6.70026L65.9502 6.45768L66.1623 6.24541L66.7045 6.18477L67.5061 6.27575L69.1798 6.66994L70.6414 7.21575L72.3624 7.57964L72.8103 7.82222L73.1403 8.03449L73.3997 8.15578L73.8475 8.18612L74.4605 8.03449L74.8612 7.88288L76.4879 7.0035L76.8179 6.91254H77.1479L77.5487 7.12479L77.973 7.57964L78.2795 7.70093H78.7274L79.4582 7.48868L79.8826 7.2764L81.0377 6.63961L81.6978 6.42736L82.9001 6.30607L91.0332 6.27575L92.0233 6.00284L92.5891 5.72992L99.5435 1.48465L101.311 0.726562L101.972 0.756896L102.867 0.908523L104.8 1.51499L105.743 1.6666L106.427 1.72725L108.36 1.12078L108.714 1.06012L108.997 1.12078L109.445 1.1511L109.869 1.18143L110.67 1.3937L114.961 2.94017L115.456 3.03116L115.88 3.06148L116.258 3.03116L118.356 2.5763L118.945 2.30339L119.699 1.81823L119.959 1.72725L120.289 1.81823L120.619 2.15178L120.784 2.45501L120.807 2.78855L120.548 3.21308L120.289 3.45568L119.723 3.84989L119.487 4.03182L119.087 4.45635L118.733 4.9415L118.615 5.21442L118.497 5.48732L118.521 5.82088L118.662 6.18477L119.228 6.57898L119.699 6.76091L120.1 7.12479L120.289 7.42803V9.52034Z" fill="#1C4587"/>
</svg>
