<svg width="321" height="224" viewBox="0 0 321 224" fill="none" xmlns="http://www.w3.org/2000/svg">
<path opacity="0.1" d="M223.572 58.5634L223.651 58.5413L223.748 58.4728L224.876 58.1556L227.518 58.2462L267.027 58.7899L267.767 59.0165L268.507 59.4242L268.788 59.7867L268.929 60.1945L268.788 60.9194L268.577 61.3725L268.307 61.7635L268.295 61.7803L267.165 63.1463L266.992 63.5021L266.851 63.9099L266.71 64.3176L266.64 65.1785L266.781 66.3566L267.027 66.8097L267.415 67.3533L268.225 68.1689L268.788 68.5767L269.387 68.8939L273.579 70.3438L273.931 70.661L274.107 71.114V71.9296L273.931 73.1983L273.896 73.2436L273.755 73.4248L273.72 73.4701L273.403 73.6967L273.086 73.8779L272.628 74.0592L271.994 74.2404L271.642 74.3763L271.289 74.6029L271.113 74.9653V75.3731L271.395 76.0075L273.755 79.2697L274.072 80.04L274.037 81.4445L273.931 82.3508L273.755 82.7585L273.473 83.0757L273.051 83.3022L267.732 85.4771L267.379 85.7037L267.062 85.9755L266.816 86.2021L266.675 86.3833L266.569 86.6098L266.534 86.791L232.097 87.1535L232.062 87.8785L232.076 87.9739L267.943 90.008L268.021 90.1424L268.049 90.144L268.471 90.8689L268.683 91.4126L268.718 92.2735L268.932 92.6177L269.528 93.0438L271.113 93.6328L272.135 93.8593L275.129 94.2218L275.657 94.3577L276.08 94.6297L276.538 95.0827L276.597 95.173L276.644 95.2186L277.957 97.211L279.814 99.0246L279.901 99.1425L279.92 99.1606L280.624 100.112L280.804 100.612L281.082 100.791L281.716 101.018L283.16 101.063L284.781 100.927L285.908 101.244L285.99 101.374L286.013 101.38L286.965 102.875L284.534 104.688V105.326L284.781 105.458L286.366 106.002L286.929 106.274L287.458 106.681L288.127 107.361L288.146 107.428L288.303 107.588L288.444 108.086L288.338 108.539L287.599 109.219L287.246 109.808L287.211 110.261L287.387 110.805L287.634 111.394L287.986 112.481L287.81 112.979L287.458 113.342L285.45 113.976L284.921 114.248L284.287 114.747L284.111 115.154V115.789L284.252 116.831L284.041 117.329L283.688 117.646L281.646 118.19L277.982 119.549L277.595 119.731L277.102 120.002L275.833 121.135L275.446 121.769L275.235 122.404V123.174L275.411 123.672L275.622 124.08L275.857 124.307L276.15 124.533L277.137 124.941L277.736 125.077L281.011 125.168L281.681 125.258L282.209 125.394L282.632 125.621L282.984 125.893L283.002 125.915L283.09 125.983L283.477 126.482L283.512 126.572L283.618 126.753L279.382 127.977L279.135 128.385L278.678 128.611L278.079 128.656L277.515 128.883L277.022 129.291L276.212 130.786L275.789 131.194L275.402 131.511L275.049 131.873L275.085 132.191L275.296 132.372L277.269 133.142L277.656 133.369L278.396 133.867L278.748 134.094L279.276 134.184H280.967L281.566 134.275L282.059 134.456L282.482 134.683L282.587 134.773L283.116 135.226L283.221 135.317L283.539 135.725L283.856 136.223L284.173 137.039V137.582L283.856 137.809L283.849 137.812L283.82 137.854L282.517 138.489L282.094 138.715L281.742 139.127V139.667L282.059 140.482L282.341 140.981L282.623 141.388L282.94 141.66L283.362 141.887L285.934 142.385L286.462 142.566L286.92 143.473L288.646 149.952L289.139 150.858L289.703 150.994L293.507 151.356L294.881 151.313L296.36 151.22L297.03 151.402L297.734 151.719L298.615 152.58L299.319 152.988L299.953 153.305L300.517 153.486L301.01 153.713L301.468 154.075L301.466 154.091L301.503 154.12L301.468 154.483L301.186 154.709L300.763 154.936L298.861 155.57L298.415 155.879L298.122 156.34L297.946 157.383L298.051 157.972L298.227 158.379L298.861 158.968L299.601 159.421L303.088 161.053L307.738 162.367L308.443 162.684L308.76 163.046L308.83 163.409L308.76 166.444L308.971 167.26L309.218 167.804L310.098 169.118L311.155 170.296L313.092 171.927L314.607 174.011L315.241 175.461L315.276 175.869L315.206 176.322L315.065 176.73L314.889 177.047L314.853 177.092L314.677 177.319L314.642 177.364L314.149 177.772L313.48 178.225L313.128 178.361H312.881H312.458L312.317 178.451L312.141 178.678L311.895 179.312L311.542 179.901L311.525 179.917L311.507 179.947L310.908 180.49L310.556 180.762L308.583 181.804L308.325 182.053L308.125 182.438L308.055 183.118L308.231 183.526L308.583 183.752H309.006L309.816 183.662L315.065 182.257L316.192 182.076L316.756 182.031L316.774 182.032L316.791 182.031L317.39 182.076L317.918 182.212L318.446 182.393L319.362 182.937L320.953 184.049L320.983 184.069L318.306 186.29L316.896 186.879L313.198 187.196L312.493 187.422L312.036 187.74L310.486 189.507L308.09 191.455L306.893 192.089L306.083 192.271L305.801 191.999L305.554 191.727L305.378 191.41L304.709 189.643L304.533 189.325L303.969 188.736L303.722 188.419L303.652 188.057L303.656 188.032L303.652 188.011L303.722 187.558L303.856 187.172L303.722 186.743L303.229 186.38L301.609 186.154L300.728 186.199L300.059 186.29L298.051 187.332L297.347 187.83L296.043 189.008L295.48 189.643L293.049 191.5L289.597 193.584L289.034 194.038L288.611 194.445L288.435 194.763L288.364 195.034V195.306L288.435 195.623V195.669V196.031V196.076L288.364 196.937L288.188 197.798L288.047 198.251L287.132 199.792L286.462 200.562L284.349 202.42L284.032 202.782L283.863 203.086L283.926 203.371L284.173 203.643L284.631 203.87L285.124 204.051L287.766 204.504L288.329 204.685L288.787 204.867L289.034 205.093L289.069 205.184L289.104 205.229L289.086 205.252L289.104 205.274L289.069 205.32L288.787 205.909L288.723 206.155L288.822 206.452L289.034 206.77L289.139 207.087L289.133 207.112L289.139 207.132L289.034 207.54L288.717 207.948L288.118 208.537L287.766 208.944L287.525 209.342L287.519 209.352L287.66 210.168L281.355 212.342L280.474 212.478L279.347 212.524L279.174 212.477L279.135 212.478L278.613 212.337L277.621 212.252L276.353 212.75L275.86 213.158L275.754 213.611L246.011 213.928L246.504 214.563L248.723 216.42L248.97 216.737L249.216 217.055L249.251 217.553L249.04 218.187L247.138 221.631L246.609 221.812H246.081L245.94 221.767H245.87L244.999 221.487L244.566 221.45L244.038 221.495L242.981 221.722L236.852 222.084L228.68 221.631L227.271 221.359L227.25 221.351L227.06 221.314L222.903 219.592L222.48 219.32L222.086 219.139H220.578L210.011 221.812H200.007L199.408 221.767L199.315 221.73L199.197 221.722L197.224 220.951L191.553 219.411L190.672 219.003L189.721 218.187L189.334 217.961L187.925 217.372L185.952 216.194L185.635 215.922L185.177 215.605L184.578 215.333L183.639 215.106H182.888L182.007 215.242L178.837 216.013L178.344 216.239L178.062 216.511L177.921 216.873L178.027 217.644L174.723 217.917L174.758 218.325V218.688L174.582 219.05L174.265 219.322L172.997 219.956L172.821 219.893L172.785 219.911L168.609 218.406L167.834 218.795L166.355 219.792L165.052 220.925L162.692 221.922L155.724 223.735L140.129 213.835L123.272 211.174L113.7 216.17L92.0805 205.337L87.8781 201.508L78.1657 197.212L65.605 193.85L57.2468 190.488L55.0989 186.706L49.3555 184.745L45.7601 181.617L35.3006 182.27L20.2652 179.189L18.1873 177.741L10.9901 168.755L9.6868 165.538L7.71426 162.82L4.79064 160.826L0.634094 159.784L3.52251 154.211L4.36797 151.628L4.79064 149.227V148.683L4.61449 148.139L4.43838 147.097L4.47358 146.101L4.72541 145.813L4.79064 145.738L5.2485 145.557L6.44613 145.647L7.04504 145.602L7.5498 145.297L7.67905 144.922L7.53815 144.605L7.29159 144.288L7.04504 144.016L6.58708 143.382L5.95306 142.023L5.56556 140.573L5.63601 134.954L5.60076 134.139L5.1781 132.689L4.54399 130.877L3.66341 129.563L3.4169 129.155L3.17025 128.475V127.977L3.4169 127.569L3.50006 127.516L3.52251 127.478L3.87477 127.252L4.89625 126.889L5.45986 126.618L6.09387 126.119L6.25901 125.765L6.23478 125.485L6.05867 125.168L5.49506 124.579L5.14289 124.171L4.86104 123.627L4.57928 122.676L4.64969 122.132L4.65719 122.12L4.68494 121.905L4.93145 121.498L5.49506 121.09L6.05867 119.731L6.41102 119.277L6.83368 118.96L7.22119 118.824L7.60865 118.643L8.73573 118.009L9.6164 117.601L10.0038 117.374L10.3561 117.103L10.6732 116.74L10.9549 116.287L11.4833 115.2L11.7299 114.792L12.0469 114.52L12.4344 114.293L14.1956 113.84L14.8649 113.342L15.0573 112.847L15.1115 112.254L15.1299 112.212L15.1467 112.028L15.3228 111.62L15.7103 111.031L16.2387 110.397L17.1897 109.083L17.8237 108.494L18.4579 108.177L21.0645 108.222L25.6437 108.811L26.2073 108.766L26.7004 108.584L27.0879 108.358L29.4128 105.73L30.223 105.186L30.9626 104.96L33.4988 105.458L35.084 105.956L36.7748 106.817L37.7611 107.225L38.3246 107.406L40.2621 107.678L41.3892 107.995L43.3971 109.128L44.3834 109.536L45.5106 109.808L46.7434 109.989H47.3423L47.8706 109.898L48.4694 109.581L50.6181 107.905L51.5692 107.452L54.1054 106.817L57.4518 106.772L58.2972 106.681L59.4596 106.319L59.9175 105.911L59.8471 105.503L59.4948 104.824L59.2483 104.099L59.2131 103.691V103.283L59.354 102.422L59.2835 101.607L59.2483 101.244L59.1425 100.882L58.9312 100.565L58.6846 100.248L57.5222 99.1152L57.2404 98.798L57.0643 98.4809L56.9587 98.0278V97.484L57.17 96.6685L57.2052 96.6232L57.628 96.0795L57.6632 96.0341H57.6633L58.0858 95.4905L59.0721 94.7655L59.4244 94.2671L59.4948 93.8593L59.3187 93.4968L58.8608 92.9078L57.5928 91.8204L57.3109 91.5032L56.9939 90.8236V90.4158L57.0643 89.9627L57.2052 89.3737L57.3109 88.8753V88.4675L57.1348 88.105L56.8177 87.8785L56.395 87.6519L54.5986 87.3348L54.1054 87.1535L53.7883 86.927L53.577 86.6098L53.4714 86.2021L53.4009 85.024L53.26 84.6162L52.7669 83.9819L52.5204 83.5741L52.3794 82.8944L52.5204 82.4867L52.7317 82.2601L53.0486 82.1242L53.1243 82.1069L53.1896 82.0789L56.3207 81.3629L56.8529 81.1727L57.0643 80.8555V80.4931L56.5007 79.0432L56.1485 78.4088L55.9018 78.0917L55.6201 77.8198L55.1974 77.6386L48.6808 77.412L48.0115 77.3214L47.4127 77.1855L46.8843 77.0043L46.4968 76.7324L46.1798 76.3246L46.0742 75.5997L46.215 75.1466L46.4968 74.7841L46.8491 74.5576L48.2581 73.9686L48.7513 73.6514L48.8569 73.3342L48.6455 73.0623L48.2934 72.7905L45.4049 71.25L45.0879 70.7516L44.9822 70.0266L45.2287 68.4861L45.5458 67.7612L46.0037 67.2628L46.1402 67.2222L46.1446 67.2175L46.6025 67.0815L47.166 67.0362H47.765L48.3286 67.1269L49.2443 67.5346H49.902L50.5478 67.3081L51.6045 66.4019L51.9215 65.8129L51.8862 65.4051L51.6045 65.0879L50.5125 64.2723L50.1954 63.9552L49.9489 63.5021L50.0193 63.1396L50.3011 62.8224L51.3579 62.0069L54.81 57.8837L55.2678 57.1588L55.5497 56.5698L55.5849 56.162L55.4792 55.8448L55.303 55.4824L54.8452 54.8933L54.1759 54.3949L53.4361 53.8965L52.5556 53.4887L49.9489 52.5825L49.491 52.3107L49.1739 51.9482L49.033 51.3592L49.1739 50.9514L49.4205 50.5436L50.5478 49.2297L50.8647 48.9578L51.2874 48.7766H51.3227L51.4283 48.7313H51.9919L54.5281 49.1844H55.1622L55.6812 49.1009L56.0428 48.9578L56.8529 48.5047L57.8393 47.8251L58.4733 47.1907L58.5085 46.783L58.2972 46.4658L56.395 45.6049L56.0076 45.2878L56.1837 45.1065L56.3037 45.0828L56.3246 45.0612L56.7825 44.9706H58.7551L60.0979 44.7599L62.0116 43.3349L62.0978 43.3303L62.2072 43.2488L71.577 42.7504L78.7277 43.6566L82.1797 43.4754L91.1972 42.1161L101.307 42.1614L102.399 41.9349L104.336 41.3911H105.182L106.273 41.5724L111.17 43.1582L112.086 43.2941H113.283L115.502 43.1582L116.995 42.8447L117.158 42.7051L117.757 42.2973L119.835 40.1225L120.223 39.896L120.37 39.8841L120.504 39.8053L121.632 39.7147L130.86 39.9866L131.847 40.1225L134.489 41.1646L135.123 41.5724L135.405 41.8442L135.757 42.0708L136.25 42.252L138.504 41.9802L140.067 41.587L141.71 41.0287L141.743 41.0226L141.992 40.938L142.485 40.8475H143.048L150.974 41.7989H151.901L151.995 41.7536L152.242 41.5724L152.559 41.3458L152.806 41.0287L153.792 39.5335L155.13 37.9023L155.447 37.6305L155.835 37.4039L157.209 36.8602L157.334 36.8315L157.491 36.7696L159.923 36.2124L160.661 35.9087L161.471 35.4556L161.788 35.1385L162.07 34.776L162.528 34.051L162.915 33.2808L163.373 33.0089L163.717 32.9688L163.725 32.9636L164.5 32.873L171.158 33.598L171.756 33.7339L172.214 33.9604L172.355 34.4135L172.214 34.776L172.038 35.1385L172.179 35.6369L172.672 36.2259L174.398 37.3587L174.892 37.9476L175.138 38.4007L174.821 38.9898L174.715 39.3522V39.7147L174.821 40.0772L174.962 40.4397L175.068 40.8475L175.103 41.2552L174.821 42.0708L174.856 42.4333L174.927 42.7504L174.997 42.977L176.653 45.4237L177.463 46.3299L177.78 46.6017L178.097 46.8283L181.021 48.3235L181.267 48.7313L181.197 49.0484L175.948 53.1263L175.349 53.7606L175.103 54.1231L174.962 54.4855V54.8027L175.068 54.9839L175.526 55.3011L177.498 56.2979L177.921 56.7963L178.132 57.2494L178.203 57.6572L178.308 58.0197L178.449 58.3368L179.823 59.7867L179.964 60.1039L179.929 60.421L179.717 60.7382L179.4 61.0554L178.344 61.8709L178.027 62.1428L177.886 62.46L177.991 62.7771L178.273 63.049L178.696 63.3209L179.33 63.5927L180.281 63.9099L182.465 64.2723L186.445 64.1364L193.984 65.0426L205.255 64.7254L207.334 64.9973H207.897L208.191 64.8812L208.426 64.363L208.567 63.4115L208.707 63.0037L208.884 62.5959L209.053 62.5199L209.06 62.5053L209.87 62.1428L211.173 61.8257L215.717 61.5538L217.478 61.6444L218.43 61.4632L219.466 61.0759L222.868 59.1071L223.185 58.8352L223.572 58.5634Z" fill="#333333"/>
<path d="M30.4119 144.86L31.3458 145.709V164.005L30.2252 163.91L22.8475 152.238L20.9798 150.37L19.2988 146.168L16.8707 144.58L12.4814 143.646L12.6682 127.023L16.7773 126.463L19.5789 128.05L21.4467 131.786L23.0343 134.774L30.4119 144.86Z" fill="#0B2856"/>
<path d="M16.0302 120.953L16.5905 113.482L19.2988 117.311L16.0302 120.953Z" fill="url(#paint0_linear)"/>
<path d="M21.3533 113.202C21.3533 113.65 18.863 113.824 17.6178 113.855L15.2831 111.614L15.3765 95.5508L21.1665 101.248L19.1859 108.284L21.4467 109.653C21.4156 110.649 21.3533 112.753 21.3533 113.202Z" fill="#0B2856"/>
<path d="M16.4037 94.8032L16.9641 89.3867L18.8318 90.2272C19.112 91.0054 19.7657 92.786 20.1393 93.6826C20.5128 94.5791 17.8046 94.8032 16.4037 94.8032Z" fill="#0B2856"/>
<path d="M57.0275 52.8722L57.4011 36.5293L64.3118 39.9847L74.7712 39.8913L77.2927 48.3896L69.6349 50.6309L74.2109 58.6623L74.3043 67.4407C75.7674 68.9349 78.7496 72.2035 78.9737 73.3242C79.2539 74.725 78.4134 78.5539 78.32 79.1142C78.2453 79.5625 68.8878 81.5423 64.2184 82.4762L60.9498 76.9663L64.4052 66.3201L60.1093 57.4482L59.0821 53.1524L57.0275 52.8722Z" fill="#0B2856"/>
<path d="M60.2027 35.2224L61.23 18.5059C63.8137 18.755 69.0932 19.2904 69.5415 19.4398C70.1018 19.6266 71.3159 22.4282 71.9696 24.2026C72.4926 25.6221 70.7556 28.2183 69.8217 29.3389L68.4209 35.8761L60.2027 35.2224Z" fill="#0B2856"/>
<path d="M67.6737 17.1049L68.2341 12.4355L71.3159 13.6496L71.596 15.1438L67.6737 17.1049Z" fill="#0B2856"/>
<path d="M193.094 32.1401V15.8906L181.327 21.1203L178.525 25.2294C181.296 27.315 186.912 31.5424 187.21 31.7665C187.509 31.9907 191.257 32.1089 193.094 32.1401Z" fill="#0B2856"/>
<path d="M246.512 37.557V27.5645L241.936 29.4322L240.815 34.7553L246.512 37.557Z" fill="#0B2856"/>
<path d="M251.368 46.8029L251.555 38.7715L245.484 41.7599L244.831 45.1219L251.368 46.8029Z" fill="#0B2856"/>
<path d="M251.648 63.0524L251.555 48.8574L245.111 50.8186L239.601 53.807C240.908 56.3596 243.523 61.5582 243.523 61.9317C243.523 62.3053 248.94 62.8345 251.648 63.0524Z" fill="#0B2856"/>
<path d="M264.722 74.5396L264.442 70.1504L260.24 70.8041L260.52 73.3256L264.722 74.5396Z" fill="#0B2856"/>
<path d="M265.656 79.2085L265.843 75.5664L263.882 77.5275L264.162 79.0218L265.656 79.2085Z" fill="#0B2856"/>
<path d="M264.442 96.4842L265.283 80.3281L251.648 84.0636L248.286 88.4528L248.566 97.0445L255.757 102.181L262.388 101.434L264.442 96.4842Z" fill="#0B2856"/>
<path d="M266.217 111.241L266.03 104.704L263.789 103.77L261.827 105.638L263.415 108.533L266.217 111.241Z" fill="#0B2856"/>
<path d="M283.12 129.638L283.307 121.42L280.131 121.98L273.781 122.914L275.369 125.716L283.12 129.638Z" fill="#0B2856"/>
<path d="M297.035 151.49L297.128 142.898L291.805 142.991L285.641 146.353L289.283 151.676L292.272 152.33L297.035 151.49Z" fill="#0B2856"/>
<path d="M302.731 151.398L302.545 167.928L299.369 170.263L297.408 170.169L294.98 168.488L291.805 170.823L287.976 176.053L286.295 175.866L284.147 169.516L281.065 169.422L277.703 172.784L273.594 177.36L272.193 177.267L271.446 188.1L269.581 189.89L269.579 190.248L262.014 195.758L260.707 195.851L258.559 204.816L256.784 204.629L255.01 205.283L247.913 204.536L239.414 204.91L233.437 202.668H232.13L222.418 205.377L210.931 205.283L203.367 201.921L199.538 200.52L196.176 198.372L194.028 198.466L190.012 200.894L187.024 200.987L185.156 203.322L180.113 202.015L177.218 203.696L174.977 206.124L167.599 209.112L167.692 189.407L175.35 185.765L177.498 185.298L180.3 183.15L184.969 182.87H186.743L189.172 182.403L194.308 180.722L196.176 181.002L199.631 183.244L203.367 184.177L210.838 185.765L222.324 186.419L232.597 183.71L233.718 182.963H241.189L239.508 187.072L246.699 185.018L255.01 188.1L256.598 187.82L258.652 187.913L260.815 185.209L260.816 185.094L256.411 184.084L255.01 179.134L260.894 177.547L262.668 177.64H265.854L260.894 165.313L262.668 157.655L277.517 152.799L281.626 150.838H284.334L287.696 154.387L286.949 156.721L288.256 156.815L295.354 152.986L297.595 152.426L299.463 152.239L302.731 151.398Z" fill="#0B2856"/>
<path d="M31.1855 145.166V164.023L37.0388 164.877V146.016L31.1855 145.166ZM46.3947 148.156V167.012L57.259 166.388V147.532L46.3947 148.156ZM37.043 146.016V164.877L46.3947 167.012V148.156L37.043 146.016ZM57.259 147.532V166.388L61.0257 169.152V150.296L57.259 147.532ZM61.0257 150.296V169.152L66.6611 171.317V152.461L61.0257 150.296ZM66.6569 152.461V171.317L68.7392 175.019V156.163L66.6569 152.461ZM68.7392 156.163V175.019L76.9849 178.293V159.437L68.7392 156.163ZM76.9891 159.437V178.293L89.5377 181.681V162.825L76.9891 159.437ZM89.5335 162.825V181.681L99.2456 186.095V167.238L89.5335 162.825ZM99.2456 167.243V186.099L103.766 189.859V171.003L99.2456 167.243ZM134.671 176.953V195.81L151.652 198.515V179.659L134.671 176.953ZM103.771 171.003V189.859L125.407 200.797V181.941L103.771 171.003ZM125.403 181.941V200.797L134.667 195.81V176.953L125.403 181.941ZM151.652 179.663V198.519L167.692 209.196V190.34L151.652 179.663Z" fill="#0B2856"/>
<path d="M235.543 25.6904L235.621 25.6683L235.719 25.5997L236.846 25.2826L239.488 25.3732L244.631 25.9169L245.371 26.1434L246.111 26.5512L246.392 26.9137L246.533 27.3215L246.392 28.0464L246.181 28.4995L245.911 28.8904L245.899 28.9073L244.769 30.2733L244.596 30.629L244.455 31.0368L244.314 31.4446L244.244 32.3055L244.384 33.4836L244.631 33.9367L245.019 34.4803L245.829 35.2959L246.392 35.7037L246.991 36.0209L251.183 37.4708L251.535 37.7879L251.711 38.241V39.0566L251.535 40.3252L251.5 40.3706L251.359 40.5518L251.324 40.5971L251.007 40.8236L250.69 41.0049L250.232 41.1861L249.598 41.3674L249.246 41.5033L248.893 41.7299L248.717 42.0923V42.5001L248.999 43.1344L251.359 46.3967L251.676 47.167L251.641 48.5715L251.535 49.4777L251.359 49.8855L251.077 50.2027L250.654 50.4292L245.336 52.604L244.983 52.8306L244.666 53.1025L244.42 53.329L244.279 53.5102L244.173 53.7368L244.138 53.918L244.068 54.2805L244.032 55.0055L244.068 55.232L245.547 57.135L245.653 57.2709L246.075 57.9959L246.287 58.5396L246.322 59.4005L246.536 59.7447L247.132 60.1707L248.717 60.7597L249.739 60.9863L252.733 61.3488L253.261 61.4847L253.684 61.7566L254.142 62.2096L254.201 62.3L254.247 62.3456L255.561 64.3378L257.418 66.1516L257.505 66.2695L257.523 66.2875L258.228 67.239L258.407 67.7396L258.686 67.9186L259.32 68.1451L260.764 68.1905L262.384 68.0545L263.512 68.3717L263.594 68.501L263.617 68.5076L264.568 70.0028L262.138 71.8152V72.4533L262.384 72.5855L263.969 73.1292L264.533 73.401L265.061 73.8088L265.731 74.4885L265.75 74.5553L265.907 74.715L266.048 75.2134L265.942 75.6665L265.202 76.3462L264.85 76.9352L264.815 77.3883L264.991 77.932L265.238 78.521L265.59 79.6084L265.414 80.1068L265.061 80.4693L263.054 81.1036L262.525 81.3755L261.891 81.8739L261.715 82.2817V82.916L261.856 83.9581L261.645 84.4565L261.292 84.7737L259.249 85.3174L255.586 86.6767L255.199 86.8579L254.705 87.1297L253.437 88.2625L253.05 88.8968L252.838 89.5312V90.3014L253.015 90.7998L253.226 91.2076L253.461 91.4344L253.754 91.6607L254.741 92.0685L255.339 92.2044L258.615 92.295L259.285 92.3856L259.813 92.5216L260.236 92.7481L260.588 93.02L260.606 93.0427L260.694 93.1106L261.081 93.609L261.116 93.6996L261.222 93.8808L261.469 95.1042L261.222 95.512L260.764 95.7385L260.165 95.7838L259.602 96.0104L259.109 96.4182L258.298 97.9134L257.876 98.3212L257.488 98.6383L257.136 99.0008L257.171 99.3179L257.382 99.4992L259.355 100.269L259.742 100.496L260.482 100.994L260.835 101.221L261.363 101.312H263.054L263.653 101.402L264.146 101.583L264.568 101.81L264.674 101.901L265.202 102.354L265.308 102.444L265.625 102.852L265.942 103.35L266.259 104.166V104.71L265.942 104.936L265.935 104.94L265.907 104.982L264.604 105.616L264.181 105.842L263.829 106.254V106.794L264.146 107.61L264.427 108.108L264.709 108.516L265.026 108.788L265.449 109.014L268.02 109.513L268.549 109.694L269.007 110.6L270.733 117.079L271.226 117.985L271.789 118.121L275.594 118.484L276.967 118.441L278.447 118.348L279.116 118.529L279.821 118.846L280.701 119.707L281.406 120.115L282.04 120.432L282.603 120.613L283.097 120.84L283.555 121.202L283.553 121.219L283.59 121.248L283.555 121.61L283.273 121.837L282.85 122.063L280.948 122.698L280.501 123.007L280.208 123.468L280.032 124.51L280.138 125.099L280.314 125.507L280.948 126.096L281.688 126.549L285.175 128.18L289.825 129.494L290.529 129.811L290.846 130.174L290.917 130.536L290.846 133.572L291.057 134.387L291.304 134.931L292.185 136.245L293.241 137.423L295.179 139.054L296.693 141.138L297.327 142.588L297.363 142.996L297.292 143.449L297.151 143.857L296.975 144.174L296.94 144.219L296.764 144.446L296.729 144.491L296.236 144.899L295.566 145.352L295.214 145.488H294.967H294.545L294.404 145.579L294.228 145.805L293.981 146.44L293.629 147.029L293.611 147.045L293.594 147.074L292.995 147.618L292.643 147.889L290.67 148.931L290.412 149.181L290.212 149.566L290.142 150.245L290.318 150.653L290.67 150.88H291.093L291.903 150.789L297.151 149.385L298.279 149.203L298.842 149.158L298.86 149.159L298.877 149.158L299.476 149.203L300.005 149.339L300.533 149.521L301.449 150.064L303.04 151.176L303.069 151.197L300.392 153.417L298.983 154.006L295.284 154.323L294.58 154.55L294.122 154.867L292.572 156.634L290.177 158.582L288.979 159.217L288.169 159.398L287.887 159.126L287.641 158.854L287.465 158.537L286.795 156.77L286.619 156.453L286.055 155.864L285.809 155.547L285.739 155.184L285.742 155.159L285.739 155.139L285.809 154.686L285.942 154.299L285.809 153.87L285.316 153.508L283.695 153.281L282.815 153.326L282.146 153.417L280.138 154.459L279.433 154.958L278.13 156.136L277.566 156.77L275.136 158.628L271.684 160.712L271.12 161.165L270.697 161.573L270.521 161.89L270.451 162.162V162.434L270.521 162.751V162.796V163.159V163.204L270.451 164.065L270.275 164.926L270.134 165.379L269.218 166.919L268.549 167.689L266.435 169.547L266.118 169.91L265.949 170.214L266.013 170.499L266.259 170.771L266.717 170.997L267.21 171.178L269.852 171.631L270.416 171.813L270.874 171.994L271.12 172.22L271.155 172.311L271.191 172.356L271.173 172.379L271.191 172.402L271.155 172.447L270.874 173.036L270.81 173.282L270.909 173.58L271.12 173.897L271.226 174.214L271.219 174.24L271.226 174.259L271.12 174.667L270.803 175.075L270.204 175.664L269.852 176.072L269.612 176.469L269.605 176.48L269.746 177.295L263.441 179.47L262.561 179.606L261.433 179.651L261.26 179.604L261.222 179.606L260.699 179.464L259.707 179.379L258.439 179.878L257.946 180.285L257.84 180.739L257.981 181.056L258.474 181.69L260.694 183.548L260.94 183.865L261.187 184.182L261.222 184.68L261.011 185.315L259.109 188.758L258.58 188.94H258.052L257.911 188.894H257.84L256.969 188.614L256.537 188.577L256.009 188.622L254.952 188.849L248.823 189.211L240.651 188.758L239.242 188.486L239.221 188.478L239.03 188.441L234.874 186.719L234.451 186.448L234.056 186.266H232.549L221.981 188.94H211.978L211.379 188.894L211.286 188.858L211.167 188.849L209.195 188.079L203.524 186.538L202.643 186.13L201.692 185.315L201.304 185.088L199.896 184.499L197.923 183.321L197.606 183.049L197.148 182.732L196.549 182.46L195.61 182.234H194.858L193.978 182.37L190.807 183.14L190.314 183.366L190.033 183.638L189.892 184.001L189.997 184.771L186.693 185.045L186.729 185.452V185.815L186.553 186.177L186.236 186.449L184.967 187.084L184.792 187.02L184.756 187.038L180.58 185.533L179.805 185.923L178.326 186.92L177.022 188.052L174.662 189.049L167.695 190.862L152.099 180.963L135.243 178.301L125.671 183.298L104.051 172.465L99.8488 168.636L90.1364 164.34L77.5757 160.978L69.2175 157.616L67.0696 153.834L61.3262 151.872L57.7308 148.744L47.2713 149.398L32.2359 146.316L30.158 144.868L22.9608 135.883L21.6575 132.666L19.6849 129.947L16.7613 127.953L12.6048 126.911L15.4932 121.338L16.3386 118.756L16.7613 116.354V115.811L16.5852 115.267L16.4091 114.225L16.4443 113.228L16.6961 112.94L16.7613 112.865L17.2192 112.684L18.4168 112.775L19.0157 112.729L19.5205 112.424L19.6497 112.05L19.5088 111.733L19.2623 111.416L19.0157 111.144L18.5578 110.509L17.9237 109.15L17.5362 107.7L17.6067 102.082L17.5714 101.266L17.1488 99.8164L16.5147 98.004L15.6341 96.69L15.3876 96.2822L15.1409 95.6026V95.1042L15.3876 94.6964L15.4707 94.6429L15.4932 94.6058L15.8454 94.3792L16.8669 94.0167L17.4305 93.7449L18.0645 93.2465L18.2297 92.8925L18.2054 92.6122L18.0293 92.295L17.4657 91.706L17.1136 91.2982L16.8317 90.7545L16.55 89.803L16.6204 89.2593L16.6279 89.2469L16.6556 89.0328L16.9021 88.625L17.4657 88.2172L18.0293 86.8579L18.3817 86.4048L18.8044 86.0876L19.1919 85.9517L19.5793 85.7705L20.7064 85.1361L21.5871 84.7284L21.9745 84.5018L22.3268 84.23L22.6439 83.8675L22.9256 83.4144L23.454 82.327L23.7006 81.9192L24.0176 81.6473L24.4051 81.4208L26.1663 80.9677L26.8356 80.4693L27.028 79.9743L27.0822 79.3819L27.1006 79.3393L27.1174 79.1553L27.2935 78.7475L27.681 78.1585L28.2094 77.5242L29.1604 76.2102L29.7945 75.6212L30.4286 75.304L33.0352 75.3494L37.6144 75.9383L38.178 75.893L38.6711 75.7118L39.0587 75.4852L41.3835 72.8573L42.1937 72.3136L42.9333 72.0871L45.4695 72.5855L47.0547 73.0839L48.7455 73.9448L49.7318 74.3525L50.2953 74.5338L52.2328 74.8056L53.3599 75.1228L55.3678 76.2555L56.3541 76.6633L57.4813 76.9352L58.7141 77.1164H59.313L59.8413 77.0258L60.4401 76.7086L62.5888 75.0322L63.5399 74.5791L66.0761 73.9448L69.4225 73.8995L70.2679 73.8088L71.4303 73.4464L71.8882 73.0386L71.8178 72.6308L71.4655 71.9511L71.219 71.2262L71.1838 70.8184V70.4106L71.3247 69.5498L71.2542 68.7342L71.219 68.3717L71.1132 68.0092L70.9019 67.6921L70.6553 67.3749L69.4929 66.2422L69.2111 65.925L69.035 65.6078L68.9294 65.1547V64.611L69.1407 63.7955L69.1759 63.7502L69.5987 63.2064L69.6339 63.1611L69.634 63.161L70.0565 62.6174L71.0428 61.8925L71.3951 61.3941L71.4655 60.9863L71.2894 60.6238L70.8315 60.0348L69.5635 58.9474L69.2816 58.6302L68.9646 57.9506V57.5428L69.035 57.0897L69.1759 56.5006L69.2816 56.0023V55.5945L69.1055 55.232L68.7884 55.0055L68.3657 54.7789L66.5693 54.4618L66.0761 54.2805L65.759 54.054L65.5477 53.7368L65.4421 53.329L65.3716 52.151L65.2307 51.7432L64.7376 51.1089L64.4911 50.7011L64.3501 50.0214L64.4911 49.6137L64.7024 49.3871L65.0193 49.2512L65.095 49.2339L65.1603 49.2059L68.2914 48.4899L68.8236 48.2997L69.035 47.9825V47.6201L68.4714 46.1701L68.1192 45.5358L67.8725 45.2187L67.5908 44.9468L67.1681 44.7656L60.6515 44.539L59.9822 44.4484L59.3834 44.3125L58.855 44.1313L58.4675 43.8594L58.1505 43.4516L58.0449 42.7266L58.1857 42.2735L58.4675 41.9111L58.8198 41.6845L60.2288 41.0956L60.722 40.7783L60.8276 40.4612L60.6162 40.1893L60.2641 39.9175L57.3756 38.3769L57.0586 37.8785L56.9529 37.1536L57.1994 35.6131L57.5165 34.8881L57.9744 34.3897L58.1109 34.3492L58.1153 34.3444L58.5732 34.2085L59.1367 34.1632H59.7357L60.2993 34.2538L61.215 34.6616H61.8727L62.5185 34.4351L63.5752 33.5289L63.8922 32.9399L63.8569 32.532L63.5752 32.2149L62.4832 31.3993L62.1661 31.0821L61.9196 30.629L61.99 30.2666L62.2718 29.9494L63.3286 29.1339L66.7807 25.0107L67.2385 24.2858L67.5204 23.6967L67.5556 23.289L67.4499 22.9718L67.2737 22.6093L66.8159 22.0203L66.1466 21.5219L65.4068 21.0235L64.5263 20.6157L61.9196 19.7095L61.4617 19.4377L61.1446 19.0752L61.0037 18.4862L61.1446 18.0784L61.3912 17.6706L62.5185 16.3566L62.8354 16.0848L63.2581 15.9035H63.2934L63.399 15.8582H63.9626L66.4988 16.3113H67.1329L67.6519 16.2279L68.0135 16.0848L68.8236 15.6317L69.81 14.9521L70.444 14.3177L70.4792 13.9099L70.2679 13.5928L68.3657 12.7319L67.9783 12.4147L68.1544 12.2335L68.2744 12.2098L68.2953 12.1882L68.7532 12.0976H70.7258L72.0686 11.8869L73.9823 10.4618L74.0685 10.4573L74.1779 10.3758L83.5477 9.8774L90.6984 10.7836L94.1504 10.6024L103.168 9.24309L113.277 9.28839L114.369 9.06185L116.307 8.51812H117.152L118.244 8.69936L123.14 10.2852L124.056 10.4211H125.254L127.473 10.2852L128.966 9.9717L129.129 9.8321L129.728 9.4243L131.806 7.24947L132.193 7.02293L132.34 7.01112L132.475 6.9323L133.602 6.84167L142.831 7.11356L143.817 7.24947L146.459 8.29158L147.093 8.69936L147.375 8.97122L147.727 9.19778L148.221 9.37899L150.475 9.10715L152.037 8.71395L153.68 8.15565L153.713 8.1496L153.962 8.06502L154.455 7.97444H155.019L162.945 8.92592H163.872L163.966 8.88061L164.213 8.69936L164.53 8.47282L164.776 8.15565L165.763 6.66046L167.101 5.02932L167.418 4.75745L167.806 4.53091L169.179 3.98723L169.305 3.95848L169.461 3.8966L171.894 3.33939L172.631 3.0357L173.442 2.58262L173.759 2.26546L174.04 1.90296L174.498 1.17802L174.886 0.407774L175.344 0.13591L175.687 0.0957386L175.696 0.0906292L176.471 0L183.128 0.724943L183.727 0.860875L184.185 1.08741L184.326 1.54049L184.185 1.90296L184.009 2.26546L184.15 2.76384L184.643 3.35287L186.369 4.48563L186.862 5.07462L187.109 5.52772L186.792 6.11673L186.686 6.47923V6.84167L186.792 7.20417L186.933 7.56664L187.038 7.97444L187.074 8.38221L186.792 9.19778L186.827 9.56025L186.897 9.8774L186.968 10.104L188.623 12.5507L189.434 13.4569L189.751 13.7287L190.068 13.9552L192.991 15.4505L193.238 15.8582L193.167 16.1754L187.919 20.2532L187.32 20.8876L187.074 21.25L186.933 21.6125V21.9297L187.038 22.1109L187.496 22.4281L189.469 23.4249L189.892 23.9233L190.103 24.3764L190.173 24.7841L190.279 25.1467L190.42 25.4638L191.794 26.9137L191.935 27.2309L191.899 27.548L191.688 27.8652L191.371 28.1824L190.314 28.9979L189.997 29.2698L189.856 29.587L189.962 29.9041L190.244 30.176L190.667 30.4478L191.301 30.7197L192.252 31.0368L194.436 31.3993L198.416 31.2634L205.954 32.1696L217.226 31.8524L219.304 32.1243H219.868L220.161 32.0082L220.396 31.4899L220.537 30.5384L220.678 30.1306L220.854 29.7229L221.024 29.6469L221.03 29.6322L221.841 29.2698L223.144 28.9526L227.688 28.6808L229.449 28.7714L230.4 28.5902L231.437 28.2029L234.839 26.234L235.156 25.9622L235.543 25.6904Z" fill="#1C4587"/>
<defs>
<linearGradient id="paint0_linear" x1="-213.202" y1="-0.709236" x2="303.921" y2="73.3848" gradientUnits="userSpaceOnUse">
<stop stop-color="#3A90B6"/>
<stop offset="1" stop-color="#075F92"/>
</linearGradient>
</defs>
</svg>
