<svg width="192" height="150" viewBox="0 0 192 150" fill="none" xmlns="http://www.w3.org/2000/svg">
<path opacity="0.1" d="M154.393 43.1657L154.479 43.0716L154.582 42.9231L154.912 42.5592L155.666 42.1044L156.185 41.9225L156.656 41.8011H157.033L157.411 41.8618L157.741 41.9831L158.024 42.1347L158.448 42.4986L158.707 42.6502L159.037 42.7109L166.632 44.2153L166.638 44.261L166.986 47.096L167.575 47.8844L168.353 48.0663L169.225 48.127H170.05L168.854 50.3202H169.302L169.585 50.4415L169.75 50.6234L169.915 51.1086L170.174 52.1093L166.729 53.4937L166.89 59.0031L168.002 60.5727L168.473 60.9669L168.968 61.2094L170.854 61.4218L171.349 61.543L171.514 61.7249L171.496 61.8433L171.609 61.9676L171.585 62.1191L171.349 62.2708L170.736 62.483L170.076 62.6347L169.77 62.7863L168.668 63.2536L164.533 65.3995L164.558 65.4901L164.721 65.7459L165.027 65.9885L165.381 66.0795L166.677 66.2008L166.89 66.3524L166.97 66.5851L166.984 66.595L167.078 66.8679L167.031 67.1408L166.866 67.7776L166.842 68.1414L166.909 68.4165L167.149 68.5963L167.526 68.6873L168.21 68.566L170.426 67.8686L171.274 68.1414L172.594 68.7479L175.706 70.6886L177.026 71.3557L177.922 71.659L178.205 71.5074L178.653 71.1435L180.492 70.0822L180.94 70.0518L181.482 70.0822L181.367 70.313L181.576 70.3248L180.803 71.8725L181.246 72.1138L183.321 73.6603L184.069 75.5426L184.305 75.6942L185.271 76.5476L185.436 76.149L185.672 75.9975L186.025 75.9368L189.161 76.1187L190.41 76.0277L191 76.0884L191.141 76.3007V76.4018L191.235 76.5433V76.7858L191.07 77.0284L190.057 78.4233L189.962 78.6659L189.939 78.9388L190.033 79.5453L189.986 79.8485L189.373 80.8188L189.137 81.3647L189.043 81.6679L189.019 81.9408V82.2137L189.144 82.626L189.255 82.8505L189.283 82.9596L189.349 83.093L189.42 83.366V83.6085L189.232 83.7905L189.019 83.9725L188.454 84.215L188.194 84.306L187.935 84.3666L187.723 84.2454L187.558 84.0937L187.393 83.8815L187.016 83.4873L186.78 83.3054L186.261 82.9718L186.02 82.8423L185.978 82.8505L185.698 82.9914L186.073 83.093L185.53 83.366L185.318 83.5479L185.106 83.7602L184.847 84.306L184.635 84.9124L184.517 85.1854L184.375 85.3976L180.509 87.2084L180.391 87.451L180.273 87.7239L180.25 87.9968L180.368 88.7549V88.9974L180.25 89.2704L180.112 89.425L181.24 89.5129L179.794 89.6256L179.778 89.6342L181.334 89.7555L179.778 89.8768L178.387 89.8162L177.515 89.6949L177.185 89.5433L176.926 89.3917L176.643 89.2704L176.313 89.2097H175.582L175.205 89.1793L174.898 89.0581L174.639 88.9065L174.38 88.8155L174.05 88.8458L173.743 88.8762L173.154 89.149L172.895 89.3613L172.73 89.6949L172.855 90.2239L173.201 90.6956L174.498 92.1511L174.733 92.5453L174.828 92.7876V92.7879L174.922 93.0304L175.016 93.273L175.441 95.0015L175.417 95.2744L175.323 95.5169L175.111 95.6685L174.828 95.8202L174.191 96.0021L170.325 96.3963L169.924 96.457L169.618 96.6085L169.406 96.8815L169.419 96.9421L169.453 97.0937L169.594 97.306L170.066 97.6396L172.022 98.7009L172.682 98.9435L175.959 99.6712L177.374 100.156L177.656 100.308L176.484 102.566L177.781 103.779L178.441 104.537L179.573 106.569L179.903 106.993L180.28 107.297L182.452 108.284L182.509 108.262L183.015 108.54L182.452 108.284L173.415 111.762L169.509 113.387L166.509 116.793L163.665 121.762L162.603 118.731L160.103 117.106L156.384 115.824L149.04 115.887L135.228 119.106L127.384 124.231L124.103 127.887L119.071 122.793L102.353 123.325L97.1339 124.512L87.4776 128.106L77.9776 134.668L68.0089 137.825L55.3526 149.95L55.6339 148.7L54.1964 140.168L51.2901 136.512L49.2589 136.981L51.0401 140.668L47.936 142.691L47.6392 142.609L47.6059 142.6L47.5823 142.539L47.5352 142.448L47.4645 141.721V141.478L47.5588 141.266L47.7945 141.084L48.0303 140.932L48.266 140.72L48.4074 140.417L48.3863 140.227L48.1953 140.083L47.7945 139.962L44.2583 139.871L41.6888 140.023L40.9816 139.962L40.6044 139.81L40.3686 139.598L40.2036 139.386L40.0621 139.113L39.8971 138.87L37.964 137.081L37.634 136.687L37.4925 136.475L37.3747 136.232L37.3584 136.138L37.2568 135.929L37.2097 135.656L37.2568 135.413L37.3747 135.141L37.7518 134.716L38.4355 134.17L38.6241 133.958L38.7184 133.715L38.742 133.442L38.7184 133.2L38.6712 133.018L38.3882 132.654L37.9403 132.078L37.5632 131.775L37.1153 131.623L35.3472 131.532L34.8286 131.411L35.1142 131.202L34.7107 131.108L38.5287 128.315L37.5356 127.859L37.7297 127.699L37.4177 127.556H36.9461L36.1919 127.404L35.8618 127.192L35.6967 126.919L35.6402 126.717L35.5789 126.616L35.3667 125.858V125.615L35.3903 125.372L35.5553 125.16L35.7675 125.009L36.0504 124.827L36.3568 124.736L36.734 124.675L38.7615 124.584L39.1386 124.523L39.4923 124.432L39.7515 124.281L39.9402 124.069L40.1051 123.826L40.5295 123.401L41.0716 123.098L41.7082 122.886L41.9911 122.734L42.2033 122.552L42.3683 122.309L42.7219 121.46L42.8869 121.188L43.0519 120.975L43.5234 120.52L43.6648 120.308L43.7592 120.066L43.6884 118.458L43.7592 118.186L43.8535 117.943L44.0657 117.791L44.3721 117.67L45.0793 117.518L46.9888 116.942L47.2717 116.821L47.4131 116.487L47.3441 115.954L47.0359 115.184L46.7296 114.698L46.4231 114.365L46.1402 114.213L45.8102 114.092L45.4093 114.031L44.5607 114.001L44.0892 113.94L43.5234 113.698L43.2169 113.455L43.0048 113.213L42.0147 110.999L41.7317 110.605L41.4488 110.362L41.1188 110.241L37.4648 109.574L36.8047 109.361L35.9089 108.907L35.5789 108.785L35.2017 108.664L33.3393 108.482L32.8443 108.33L32.585 108.118L32.4671 107.906L32.4253 107.74L32.3492 107.603L32.1055 106.634L31.9249 106.208L31.7127 105.874L31.477 105.632L31.2412 105.51L31.1705 105.48L30.1332 105.359L29.4967 105.177L29.1903 104.995L29.0017 104.752L28.91 104.483L28.8838 104.449L28.7188 103.964L28.4645 101.645L27.1393 98.627L26.8564 98.3238L26.4557 98.1721L25.4419 97.9599L24.7818 97.7173L24.5226 97.4747L24.3811 97.2018L24.3465 97.0592L24.2632 96.8986L24.1512 96.4374L23.8861 95.7766L23.8803 95.7529L23.7682 95.4734L23.6503 94.9882L23.5796 94.4424V94.1695L23.721 92.714V92.4714L23.6739 92.2288L22.943 90.3184L22.8959 90.0758L22.8723 89.8029L22.9666 89.5603L23.1081 89.3481L23.4852 89.1358L23.6503 88.9235L23.7682 88.6506L23.7469 88.1299L23.721 88.0745L23.5324 87.8926L22.4009 87.4074L21.8822 87.1042L21.6701 86.8312L21.5758 86.5585V86.5583L21.5522 86.528L21.4579 86.2551L21.4344 85.9822L21.4815 85.406L21.5758 85.1028L21.6936 84.8299L21.9059 84.6176L22.1651 84.466L23.226 84.1324L23.4852 84.0112L23.6739 83.8292L23.733 83.639L23.5324 83.4957L23.2731 83.435L22.9902 83.4047L18.016 83.8899L17.3796 84.1021L17.1202 84.2538L16.9787 84.4964L16.8845 84.7693L16.8373 85.0422L16.7195 85.2848L16.3187 85.679L16.1065 85.9215L15.8236 86.437L15.5879 86.619L15.2814 86.7403L14.9043 86.7706L14.5035 86.7403L14.1263 86.6796L13.0655 86.3461L12.6176 86.2551L11.651 86.3764L11.321 86.4674L10.4958 86.9222L9.85925 87.1042L9.48205 87.1648L9.08136 87.1345L8.58624 86.9829L8.37414 86.7706L8.25622 86.4977L8.25169 86.4569L8.13837 86.1945L8.02051 85.1331L8.00817 85.0974L7.87909 84.8602L7.07757 83.7079L2.90485 75.9149L0.865503 72.8639L0.736084 72.6703L0.808696 72.6522L9.12848 70.578L18.346 69.0921L28.2472 65.7262L29.0489 65.6049L32.7499 65.8475L39.1386 67.3637L46.7531 68.0612L51.5859 68.0915L52.2223 67.9702L52.458 67.8185L52.8371 67.503L53.0475 67.1818L53.1418 66.9695L53.4718 65.4533V65.1804L53.4247 64.9075L53.3067 64.6952L53.0946 64.5133L52.6231 64.2101L51.1379 63.543L50.8785 63.3914L50.7607 63.1791V62.9365L50.8551 62.6939L51.798 60.8442L52.1752 59.6313L52.5995 57.5389L53.071 56.4473L53.6603 53.1421L53.6368 52.8692L53.5425 52.6266L53.2596 52.475L52.8824 52.3537L51.1144 52.2627L49.7942 52.0504L49.417 51.9291L49.2284 51.7472V51.4743L49.4406 50.5646L49.417 50.2917L49.3227 50.0491L49.2049 49.8368L49.1105 49.5943L49.0634 49.3213L49.1105 48.9878L49.3463 48.5633L49.5082 48.3383L49.5348 48.2903L49.9599 47.6998L50.1007 47.4413L50.1714 47.1684V46.9561L50.1242 46.8348L49.9827 46.7135L49.5113 46.4406L43.6884 44.3786L43.1934 44.0451L43.0284 43.8328L42.9105 43.6205L42.8634 43.3477L42.8397 43.105L42.8869 42.7412L42.9812 42.3773L43.2169 41.8921L43.3224 41.7904L43.4056 41.6192L43.7828 41.2553L45.6451 40.1334L46.0695 39.9514L49.2284 39.3753L49.9827 39.1327L50.2688 38.8699L50.3128 38.7992L50.3835 38.4959L50.4071 38.1927L50.3835 37.9501L50.1478 37.4953L49.9592 37.283L49.6999 37.1314L49.3227 37.0404L46.6116 36.6462L45.8808 36.434L45.5979 36.2823L45.3622 36.1307L45.1972 35.9185L45.0558 35.7062L44.9615 35.4636L44.9143 35.221L44.8672 34.8268L44.7964 34.6449L44.655 34.4629L44.3957 34.3416L44.0184 34.3113H43.2169L42.8634 34.2507L42.6276 34.1294L42.5097 33.8868V33.5836L42.6512 33.159L42.7732 33.0858L42.8397 32.8861L43.1934 32.6739L44.1599 32.219L44.2837 32.0916L44.3249 32.0068L44.3485 30.3087L44.3957 29.9751L44.49 29.7629L44.5843 29.4899V29.399L44.5371 29.2474L44.1128 28.6712L43.7356 28.0041L43.6412 27.7009L43.6648 27.337L43.9714 26.7002L44.0599 26.6352L44.1599 26.4273L44.5371 26.1847L44.9378 26.0331L45.3622 26.0028H45.763L46.1166 26.0634L46.3288 26.215L46.3759 26.4273L46.3995 26.7912L46.4466 27.2763L46.5645 27.7918L46.7296 28.277L46.8474 28.4893L47.0124 28.7015L47.3189 28.8532L47.7196 28.9138L51.8688 28.7925L53.6839 27.9435L55.9707 26.5486L57.055 26.0938L57.8566 25.8815L58.5403 25.9421H59.2475L60.4969 25.7905L61.1334 25.5479L61.6049 25.3357L63.09 25.0628L64.316 25.0021L65.0939 25.0324L67.1213 25.5782H67.7342L68.3943 25.4266L69.6438 25.184L73.5099 24.6079H74.2171L75.7022 24.8202L80.5822 26.1847L92.0865 27.0944L93.1709 27.428L93.4066 27.4583H93.9017L94.5382 27.337L95.6697 27.0338L96.3534 26.7002L97.9093 25.5479L99.0173 24.9111L99.6538 24.6686L102.648 24.0014L104.651 23.7285L105.524 23.7589L105.948 23.8498L106.278 23.9711L106.537 24.153L106.797 24.3047L107.433 24.8202L108.423 25.4873L108.706 25.6389L109.083 25.7299L112.667 26.0634L113.044 26.1544L113.374 26.306L113.657 26.4576L114.836 27.5796L115.401 27.6402L116.274 27.5189L120.116 26.306L124.36 25.4569H125.185L125.585 25.4873L125.963 25.5782L126.245 25.7602L126.434 25.9421L126.528 26.1847V26.4576L126.34 27.3673L126.316 27.6706L126.363 27.9435L126.458 28.1861L126.906 28.8228L126.953 29.0654L126.976 29.6112L127.165 29.8539L127.495 30.0054H128.296L128.721 29.9145L129.027 29.8539L131.267 28.7015L131.785 28.5803L132.163 28.6106L132.328 28.8228L132.422 29.0351L132.375 29.308L132.233 29.5506L132.045 29.7932L131.856 30.0358L130.937 30.7635L130.748 30.9758L130.654 31.2184L130.677 31.461L130.913 31.6126L131.172 31.6732L132.186 31.7642L132.587 31.8248L132.893 31.9461L133.106 32.1281L133.247 32.3403L133.436 32.7952L133.719 33.7958L133.766 34.0688L133.719 34.8571L133.836 35.0694L134.143 35.1301L134.52 35.1907L134.85 35.2513L135.109 35.3726L135.298 35.5242L135.416 35.6455L135.628 35.7668L135.958 35.8578L137.962 35.6759L138.127 35.7062L138.174 35.7668L138.198 35.9488L138.033 36.434L137.985 36.6765V36.9191L138.103 37.1314L138.268 37.3436L138.386 37.5559V37.7985L138.315 38.0714L137.868 38.8598L137.396 40.0424L137.208 40.3759L137.085 40.5024L137.019 40.6186L136.665 40.9825L136.288 41.0734L135.958 41.0431L135.392 40.7399L135.062 40.6186L134.52 40.5882L134.469 40.6213L134.449 40.6792L134.473 40.9218L134.591 41.1644L134.779 41.3463L135.463 41.5889L135.675 41.7709L135.746 42.0134L135.84 42.2257L136.005 42.3773L136.736 42.5289L137.066 42.6502L137.255 42.8322L137.49 42.9838L138.127 43.0141L141.427 42.6502L141.993 42.4986L142.116 42.3757L142.37 41.9831L142.503 41.8261L142.559 41.7405L142.842 41.4069L143.384 40.9825L143.832 40.8308L144.256 40.7095H144.657H144.987L145.246 40.8611L145.388 41.0734L145.482 41.2857L145.765 42.256L145.836 42.4986L145.906 42.7412L146.071 42.9535L146.402 43.0748L146.779 43.1354L148.429 43.1657L148.83 43.2263L149.16 43.3477L149.985 43.8025L150.551 43.8935L151.352 43.9238L152.955 43.8328L153.709 43.7115L154.152 43.5123L154.393 43.1657Z" fill="#333333"/>
<path d="M177.578 81.9522V94.5717L181.669 92.5708V79.9512L177.578 81.9522ZM177.727 82.011V94.6306L180.635 97.604V84.9845L177.727 82.011ZM169.508 89.3507V101.97L180.517 97.5648V84.9453L169.508 89.3507ZM149.033 91.8281V104.448L156.36 104.353V91.7328L149.033 91.8281ZM166.6 92.8202V105.44L169.508 101.97V89.3507L166.6 92.8202ZM156.363 91.7328V104.353L160.072 105.706V93.0864L156.363 91.7328ZM141.229 93.8879V106.508L149.033 104.448V91.8281L141.229 93.8879ZM160.07 93.0864V105.706L162.742 107.402V94.7819L160.07 93.0864ZM135.175 95.1995V107.819L141.229 106.505V93.8851L135.175 95.1995ZM162.742 94.7819V107.402L163.572 110.355V97.7357L162.742 94.7819ZM163.575 97.9459V110.568L166.6 105.44V92.8202L163.575 97.9459ZM109.417 99.1061V111.731L119.178 111.367V98.7474L109.417 99.1061ZM102.353 99.3584V111.978L109.417 111.731V99.1061L102.353 99.3584ZM161.02 100.157V112.777L163.575 110.568V97.9459L161.02 100.157ZM127.576 100.213V112.833L135.175 107.819V95.1995L127.576 100.213ZM97.4912 100.446V113.065L102.353 111.978V99.3584L97.4912 100.446ZM119.181 98.7474V111.367L124.169 116.283V103.663L119.181 98.7474ZM87.3432 104.257V116.877L97.4912 113.068V100.449L87.3432 104.257ZM121.556 106.889V119.508L127.576 112.836V100.216L121.556 106.889ZM121.2 106.922V119.545L121.558 119.506V106.886L121.2 106.922ZM77.9945 110.737V123.356L87.3432 116.874V104.254L77.9945 110.737ZM71.6769 112.701V125.321L77.9945 123.359V110.739L71.6769 112.701ZM49.2725 112.99V125.609L51.2886 125.074V112.454L49.2725 112.99ZM67.9952 113.845V126.464L71.6741 125.318V112.698L67.9952 113.845ZM51.2886 112.454V125.074L54.2244 128.866V116.246L51.2886 112.454ZM62.9787 118.116V130.735L67.9952 126.464V113.845L62.9787 118.116ZM58.8259 122.232V134.852L62.9787 130.735V118.116L58.8259 122.232ZM54.2244 116.246V128.866L55.7078 137.329V124.71L54.2244 116.246Z" fill="#0B2856"/>
<path d="M0.5625 60.8125L0.8125 49.75L3.4375 52.3125L5.4375 55.75L11.3438 59.5625L12.9062 60.5L17.0312 58.9687C17.7292 59.1042 19.1562 59.4187 19.2812 59.5937L23.6562 59.1562L25.5938 59.9687L26.0312 61.4062L25.8125 63.2187C25.9479 64.2604 26.2 66.5937 26.125 67.5937C26.05 68.5937 25.4479 71.3854 25.1562 72.6562L25.1498 72.7817L29.3125 75.1562C29.6771 75.4167 30.65 76.0562 31.625 76.5312C32.6 77.0062 32.9479 80.4167 33 82.0625L35.3438 82.4062L38.1875 84.9062C39.9271 85.0104 43.6875 85.2062 44.8125 85.1562C45.9375 85.1062 48.8021 89.4687 50.0938 91.6562C50.0312 92.3542 49.8438 93.95 49.5938 94.75C49.3438 95.55 49.9062 97.2917 50.2188 98.0625L46.0938 102.844L35.5 102.469L36.4688 97.3125L34.2188 96.4062L32.1875 96.2187L30.1562 93.4687L30.0625 92.0937L29.1562 91.3437L28.1562 91.5312L27.125 91.125L26.0938 90.6562L25.4375 89.6875L25.5312 88.375L24.5 85.3437L22.2812 84.5625L21.2188 83.7187L20.3125 82.7187L19.6875 80.625L19.0938 76.9687L19.1875 73.5625L18.6875 72.8125L18.7812 71.125L18.1875 72.5L17.7188 72.8125L17.4062 74.0312L16.2812 74.7812L15.25 74.8125L13.9062 74.375L13.1875 73.8437L12.25 73.3125H11.9375L11.4062 73.8437L10.4375 74.5312L8.78125 74.875H7.46875L6.875 73.8437L6.5625 72.5937L5.125 70.375L0.5625 60.8125Z" fill="#0B2856"/>
<path d="M35.25 108.031L35.3125 102.594L39.875 103.625C39.7083 104.312 39.3688 105.787 39.3438 106.187C39.3125 106.687 38.25 107.969 38.1562 108.156C38.0812 108.306 36.1875 108.135 35.25 108.031Z" fill="url(#paint0_linear)"/>
<path d="M34.4375 118.875L34.6875 108.25L37.8125 108.469L38.3125 108.781C39.1146 108.927 40.7687 109.237 40.9688 109.312C41.1688 109.387 45.3646 111.969 47.4375 113.25L49.375 113.625L50.2812 116.875L50.3125 120.125L49.2812 126.719L46.5312 127.562L45.0625 127.406L44.5938 126.906L44.5625 125.406L45.6875 124.625L40.4062 124.281L39.8125 124.781L38.0938 124.312L36.9375 123.969L34.4375 118.875Z" fill="#0B2856"/>
<path d="M58.9062 135.811L55.7188 138.249L55.5312 126.499L56.8125 123.186C57.2917 122.916 58.3688 122.343 58.8438 122.218C59.3187 122.093 59.5625 122.103 59.625 122.124C59.7917 122.551 60.1188 123.499 60.0938 123.874C60.0687 124.249 59.4062 129.676 59.0781 132.343C59.3125 132.707 59.7906 133.449 59.8281 133.499C59.8656 133.549 59.2293 135.061 58.9062 135.811Z" fill="#0B2856"/>
<path d="M42.6562 19.218L42.5625 10.9055C44.2083 10.843 47.725 10.7805 48.625 11.0305C49.75 11.343 51.7812 12.4368 53.0625 13.6243C54.3438 14.8118 53.25 15.6555 53.2812 17.6555C53.3125 19.6555 49.5312 20.093 48.5625 20.9368C48.0687 21.3668 46.6439 21.3546 45.303 21.2137C46.3577 21.5359 47.2952 21.8118 47.4062 21.8118C47.4065 21.8118 47.4067 21.8118 47.4069 21.8118L51.4375 21.9681L52 23.6868L52.3125 26.0305L51.8101 28.2108C53.846 27.8562 56.042 27.5112 56.5312 27.5618C57.4375 27.6555 58.1562 29.5618 58.125 30.2493C58.0938 30.9368 57.4375 34.5931 57.5 36.3118C57.5625 38.0305 53.5 39.5618 53.375 39.4681C53.3154 39.4234 52.3212 39.4504 51.2408 39.495L51.7812 39.8118C52.8958 40.1347 55.15 40.8556 55.25 41.1555C55.375 41.5305 56.4688 43.8743 57 44.7181C57.425 45.393 54.6146 47.8118 53.1562 48.9368C50.8229 48.4889 46.05 47.5556 45.625 47.4055C45.2 47.2555 45.9688 46.2597 46.4062 45.7805L48.4688 42.7805L47.9375 40.9993L49.1875 39.5931L46.875 36.4055L46.9062 34.7805L47.3438 33.8743L46.1562 33.2181L42.875 31.2493L42.9062 20.4681C42.9826 20.4922 43.0632 20.5176 43.1474 20.5442L42.6562 19.218Z" fill="#0B2856"/>
<path d="M191.188 53.7188L191.219 65L189.281 71.25L188.25 71.5938L186.281 70.875L184.5 73.5938L182.453 74.3438L182.406 77.5625L182.281 85.1875C179.042 84.3333 172.512 82.5562 172.312 82.2811C172.113 82.0061 170.312 78.8332 169.438 77.2811L168.469 71.7188L169.844 68.4061L171.438 64.6561L173.031 63.9062L180.031 61.0312L183.969 60.1875L186.156 58.6875L187.875 60.1875L188.812 59.6562C187.875 59.0104 186.044 57.6188 186.219 57.2188C186.438 56.7188 188.094 55.0311 188.25 54.9688C188.375 54.9187 190.135 54.1771 191 53.8125L191.188 53.7188Z" fill="#0B2856"/>
<path d="M182.375 97.9375C182.427 93.8125 182.531 85.525 182.531 85.375L181.031 85.25L179.188 86C178.823 86.5521 178.075 87.75 178 88.125C177.906 88.5938 177.188 90.5625 177.094 91.4688C177.019 92.1937 177.312 94.875 177.469 96.125L180.469 98.5938L182.375 97.9375Z" fill="#0B2856"/>
<path d="M154.393 20.1657L154.479 20.0716L154.582 19.9231L154.912 19.5592L155.666 19.1044L156.185 18.9225L156.656 18.8011H157.033L157.411 18.8618L157.741 18.9831L158.024 19.1347L158.448 19.4986L158.707 19.6502L159.037 19.7109L166.632 21.2153L166.638 21.261L166.986 24.096L167.575 24.8844L168.353 25.0663L169.225 25.127H170.05L168.854 27.3202H169.302L169.585 27.4415L169.75 27.6234L169.915 28.1086L170.174 29.1093L166.729 30.4937L166.89 36.0031L168.002 37.5727L168.473 37.9669L168.968 38.2094L170.854 38.4218L171.349 38.543L171.514 38.7249L171.496 38.8433L171.609 38.9676L171.585 39.1191L171.349 39.2708L170.736 39.483L170.076 39.6347L169.77 39.7863L168.668 40.2536L164.533 42.3995L164.558 42.4901L164.721 42.7459L165.027 42.9885L165.381 43.0795L166.677 43.2008L166.89 43.3524L166.97 43.5851L166.984 43.595L167.078 43.8679L167.031 44.1408L166.866 44.7776L166.842 45.1414L166.909 45.4165L167.149 45.5963L167.526 45.6873L168.21 45.566L170.426 44.8686L171.274 45.1414L172.594 45.7479L175.706 47.6886L177.026 48.3557L177.922 48.659L178.205 48.5074L178.653 48.1435L180.492 47.0822L180.94 47.0518L181.482 47.0822L181.367 47.313L181.576 47.3248L180.803 48.8725L181.246 49.1138L183.321 50.6603L184.069 52.5426L184.305 52.6942L185.271 53.5476L185.436 53.149L185.672 52.9975L186.025 52.9368L189.161 53.1187L190.41 53.0277L191 53.0884L191.141 53.3007V53.4018L191.235 53.5433V53.7858L191.07 54.0284L190.057 55.4233L189.962 55.6659L189.939 55.9388L190.033 56.5453L189.986 56.8485L189.373 57.8188L189.137 58.3647L189.043 58.6679L189.019 58.9408V59.2137L189.144 59.626L189.255 59.8505L189.283 59.9596L189.349 60.093L189.42 60.366V60.6085L189.232 60.7905L189.019 60.9725L188.454 61.215L188.194 61.306L187.935 61.3666L187.723 61.2454L187.558 61.0937L187.393 60.8815L187.016 60.4873L186.78 60.3054L186.261 59.9718L186.02 59.8423L185.978 59.8505L185.698 59.9914L186.073 60.093L185.53 60.366L185.318 60.5479L185.106 60.7602L184.847 61.306L184.635 61.9124L184.517 62.1854L184.375 62.3976L180.509 64.2084L180.391 64.451L180.273 64.7239L180.25 64.9968L180.368 65.7549V65.9974L180.25 66.2704L180.112 66.425L181.24 66.5129L179.794 66.6256L179.778 66.6342L181.334 66.7555L179.778 66.8768L178.387 66.8162L177.515 66.6949L177.185 66.5433L176.926 66.3917L176.643 66.2704L176.313 66.2097H175.582L175.205 66.1793L174.898 66.0581L174.639 65.9065L174.38 65.8155L174.05 65.8458L173.743 65.8762L173.154 66.149L172.895 66.3613L172.73 66.6949L172.855 67.2239L173.201 67.6956L174.498 69.1511L174.733 69.5453L174.828 69.7876V69.7879L174.922 70.0304L175.016 70.273L175.441 72.0015L175.417 72.2744L175.323 72.5169L175.111 72.6685L174.828 72.8202L174.191 73.0021L170.325 73.3963L169.924 73.457L169.618 73.6085L169.406 73.8815L169.419 73.9421L169.453 74.0937L169.594 74.306L170.066 74.6396L172.022 75.7009L172.682 75.9435L175.959 76.6712L177.374 77.1564L177.656 77.308L176.484 79.566L177.781 80.779L178.441 81.537L179.573 83.5687L179.903 83.9932L180.28 84.2965L182.452 85.2839L182.509 85.2619L183.015 85.5397L182.452 85.2839L173.415 88.7619L169.509 90.3869L166.509 93.7932L163.665 98.7619L162.603 95.7307L160.103 94.1057L156.384 92.8244L149.04 92.8869L135.228 96.1057L127.384 101.231L124.103 104.887L119.071 99.7932L102.353 100.325L97.1339 101.512L87.4776 105.106L77.9776 111.668L68.0089 114.825L55.3526 126.95L55.6339 125.7L54.1964 117.168L51.2901 113.512L49.2589 113.981L51.0401 117.668L47.936 119.691L47.6392 119.609L47.6059 119.6L47.5823 119.539L47.5352 119.448L47.4645 118.721V118.478L47.5588 118.266L47.7945 118.084L48.0303 117.932L48.266 117.72L48.4074 117.417L48.3863 117.227L48.1953 117.083L47.7945 116.962L44.2583 116.871L41.6888 117.023L40.9816 116.962L40.6044 116.81L40.3686 116.598L40.2036 116.386L40.0621 116.113L39.8971 115.87L37.964 114.081L37.634 113.687L37.4925 113.475L37.3747 113.232L37.3584 113.138L37.2568 112.929L37.2097 112.656L37.2568 112.413L37.3747 112.141L37.7518 111.716L38.4355 111.17L38.6241 110.958L38.7184 110.715L38.742 110.442L38.7184 110.2L38.6712 110.018L38.3882 109.654L37.9403 109.078L37.5632 108.775L37.1153 108.623L35.3472 108.532L34.8286 108.411L35.1142 108.202L34.7107 108.108L38.5287 105.315L37.5356 104.859L37.7297 104.699L37.4177 104.556H36.9461L36.1919 104.404L35.8618 104.192L35.6967 103.919L35.6402 103.717L35.5789 103.616L35.3667 102.858V102.615L35.3903 102.372L35.5553 102.16L35.7675 102.009L36.0504 101.827L36.3568 101.736L36.734 101.675L38.7615 101.584L39.1386 101.523L39.4923 101.432L39.7515 101.281L39.9402 101.069L40.1051 100.826L40.5295 100.401L41.0716 100.098L41.7082 99.8856L41.9911 99.734L42.2033 99.5521L42.3683 99.3094L42.7219 98.4604L42.8869 98.1875L43.0519 97.9753L43.5234 97.5204L43.6648 97.3082L43.7592 97.0656L43.6884 95.4584L43.7592 95.1855L43.8535 94.943L44.0657 94.7913L44.3721 94.67L45.0793 94.5184L46.9888 93.9423L47.2717 93.821L47.4131 93.4874L47.3441 92.9541L47.0359 92.1835L46.7296 91.6984L46.4231 91.3648L46.1402 91.2132L45.8102 91.0919L45.4093 91.0312L44.5607 91.0009L44.0892 90.9402L43.5234 90.6977L43.2169 90.4551L43.0048 90.2125L42.0147 87.9989L41.7317 87.6047L41.4488 87.3621L41.1188 87.2408L37.4648 86.5737L36.8047 86.3614L35.9089 85.9066L35.5789 85.7853L35.2017 85.664L33.3393 85.4821L32.8443 85.3304L32.585 85.1182L32.4671 84.9059L32.4253 84.7397L32.3492 84.6027L32.1055 83.6338L31.9249 83.2078L31.7127 82.8743L31.477 82.6317L31.2412 82.5104L31.1705 82.48L30.1332 82.3587L29.4967 82.1768L29.1903 81.9949L29.0017 81.7523L28.91 81.4828L28.8838 81.4491L28.7188 80.9639L28.4645 78.6449L27.1393 75.627L26.8564 75.3238L26.4557 75.1721L25.4419 74.9599L24.7818 74.7173L24.5226 74.4747L24.3811 74.2018L24.3465 74.0592L24.2632 73.8986L24.1512 73.4374L23.8861 72.7766L23.8803 72.7529L23.7682 72.4734L23.6503 71.9882L23.5796 71.4424V71.1695L23.721 69.714V69.4714L23.6739 69.2288L22.943 67.3184L22.8959 67.0758L22.8723 66.8029L22.9666 66.5603L23.1081 66.3481L23.4852 66.1358L23.6503 65.9235L23.7682 65.6506L23.7469 65.1299L23.721 65.0745L23.5324 64.8926L22.4009 64.4074L21.8822 64.1042L21.6701 63.8312L21.5758 63.5585V63.5583L21.5522 63.528L21.4579 63.2551L21.4344 62.9822L21.4815 62.406L21.5758 62.1028L21.6936 61.8299L21.9059 61.6176L22.1651 61.466L23.226 61.1324L23.4852 61.0112L23.6739 60.8292L23.733 60.639L23.5324 60.4957L23.2731 60.435L22.9902 60.4047L18.016 60.8899L17.3796 61.1021L17.1202 61.2538L16.9787 61.4964L16.8845 61.7693L16.8373 62.0422L16.7195 62.2848L16.3187 62.679L16.1065 62.9215L15.8236 63.437L15.5879 63.619L15.2814 63.7403L14.9043 63.7706L14.5035 63.7403L14.1263 63.6796L13.0655 63.3461L12.6176 63.2551L11.651 63.3764L11.321 63.4674L10.4958 63.9222L9.85925 64.1042L9.48205 64.1648L9.08136 64.1345L8.58624 63.9829L8.37414 63.7706L8.25622 63.4977L8.25169 63.4569L8.13837 63.1945L8.02051 62.1331L8.00817 62.0974L7.87909 61.8602L7.07757 60.7079L2.90485 52.9149L0.865503 49.8639L0.736084 49.6703L0.808696 49.6522L9.12848 47.578L18.346 46.0921L28.2472 42.7262L29.0489 42.6049L32.7499 42.8475L39.1386 44.3637L46.7531 45.0612L51.5859 45.0915L52.2223 44.9702L52.458 44.8185L52.8371 44.503L53.0475 44.1818L53.1418 43.9695L53.4718 42.4533V42.1804L53.4247 41.9075L53.3067 41.6952L53.0946 41.5133L52.6231 41.2101L51.1379 40.543L50.8785 40.3914L50.7607 40.1791V39.9365L50.8551 39.6939L51.798 37.8442L52.1752 36.6313L52.5995 34.5389L53.071 33.4473L53.6603 30.1421L53.6368 29.8692L53.5425 29.6266L53.2596 29.475L52.8824 29.3537L51.1144 29.2627L49.7942 29.0504L49.417 28.9291L49.2284 28.7472V28.4743L49.4406 27.5646L49.417 27.2917L49.3227 27.0491L49.2049 26.8368L49.1105 26.5943L49.0634 26.3213L49.1105 25.9878L49.3463 25.5633L49.5082 25.3383L49.5348 25.2903L49.9599 24.6998L50.1007 24.4413L50.1714 24.1684V23.9561L50.1242 23.8348L49.9827 23.7135L49.5113 23.4406L43.6884 21.3786L43.1934 21.0451L43.0284 20.8328L42.9105 20.6205L42.8634 20.3477L42.8397 20.105L42.8869 19.7412L42.9812 19.3773L43.2169 18.8921L43.3224 18.7904L43.4056 18.6192L43.7828 18.2553L45.6451 17.1334L46.0695 16.9514L49.2284 16.3753L49.9827 16.1327L50.2688 15.8699L50.3128 15.7992L50.3835 15.4959L50.4071 15.1927L50.3835 14.9501L50.1478 14.4953L49.9592 14.283L49.6999 14.1314L49.3227 14.0404L46.6116 13.6462L45.8808 13.434L45.5979 13.2823L45.3622 13.1307L45.1972 12.9185L45.0558 12.7062L44.9615 12.4636L44.9143 12.221L44.8672 11.8268L44.7964 11.6449L44.655 11.4629L44.3957 11.3416L44.0184 11.3113H43.2169L42.8634 11.2507L42.6276 11.1294L42.5097 10.8868V10.5836L42.6512 10.159L42.7732 10.0858L42.8397 9.88614L43.1934 9.67389L44.1599 9.21902L44.2837 9.09163L44.3249 9.00677L44.3485 7.30865L44.3957 6.9751L44.49 6.76285L44.5843 6.48993V6.39898L44.5371 6.24737L44.1128 5.67123L43.7356 5.00412L43.6412 4.70086L43.6648 4.33697L43.9714 3.70022L44.0599 3.63516L44.1599 3.4273L44.5371 3.18469L44.9378 3.03308L45.3622 3.00277H45.763L46.1166 3.06341L46.3288 3.21502L46.3759 3.4273L46.3995 3.79117L46.4466 4.27633L46.5645 4.79184L46.7296 5.27701L46.8474 5.48926L47.0124 5.70151L47.3189 5.85318L47.7196 5.91382L51.8688 5.79251L53.6839 4.94345L55.9707 3.54858L57.055 3.09375L57.8566 2.88147L58.5403 2.94214H59.2475L60.4969 2.79049L61.1334 2.54791L61.6049 2.33566L63.09 2.06277L64.316 2.0021L65.0939 2.03241L67.1213 2.57824H67.7342L68.3943 2.4266L69.6438 2.18402L73.5099 1.60791H74.2171L75.7022 1.82016L80.5822 3.18469L92.0865 4.09442L93.1709 4.42798L93.4066 4.45828H93.9017L94.5382 4.33697L95.6697 4.03378L96.3534 3.70022L97.9093 2.54791L99.0173 1.9111L99.6538 1.66855L102.648 1.00143L104.651 0.728516L105.524 0.758851L105.948 0.849824L106.278 0.9711L106.537 1.15304L106.797 1.30465L107.433 1.82016L108.423 2.48727L108.706 2.63888L109.083 2.72989L112.667 3.06341L113.044 3.15439L113.374 3.306L113.657 3.45761L114.836 4.57959L115.401 4.64023L116.274 4.51892L120.116 3.306L124.36 2.45694H125.185L125.585 2.48727L125.963 2.57824L126.245 2.76016L126.434 2.94214L126.528 3.18469V3.45761L126.34 4.36734L126.316 4.67056L126.363 4.94345L126.458 5.18606L126.906 5.82281L126.953 6.06543L126.976 6.61123L127.165 6.85385L127.495 7.00543H128.296L128.721 6.91446L129.027 6.85385L131.267 5.70151L131.785 5.58026L132.163 5.61056L132.328 5.82281L132.422 6.03509L132.375 6.30801L132.233 6.5506L132.045 6.79318L131.856 7.03576L130.937 7.76352L130.748 7.97577L130.654 8.21838L130.677 8.46097L130.913 8.61255L131.172 8.67322L132.186 8.76419L132.587 8.82483L132.893 8.9461L133.106 9.12808L133.247 9.34033L133.436 9.79516L133.719 10.7958L133.766 11.0688L133.719 11.8571L133.836 12.0694L134.143 12.1301L134.52 12.1907L134.85 12.2513L135.109 12.3726L135.298 12.5242L135.416 12.6455L135.628 12.7668L135.958 12.8578L137.962 12.6759L138.127 12.7062L138.174 12.7668L138.198 12.9488L138.033 13.434L137.985 13.6765V13.9191L138.103 14.1314L138.268 14.3436L138.386 14.5559V14.7985L138.315 15.0714L137.868 15.8598L137.396 17.0424L137.208 17.3759L137.085 17.5024L137.019 17.6186L136.665 17.9825L136.288 18.0734L135.958 18.0431L135.392 17.7399L135.062 17.6186L134.52 17.5882L134.469 17.6213L134.449 17.6792L134.473 17.9218L134.591 18.1644L134.779 18.3463L135.463 18.5889L135.675 18.7709L135.746 19.0134L135.84 19.2257L136.005 19.3773L136.736 19.5289L137.066 19.6502L137.255 19.8322L137.49 19.9838L138.127 20.0141L141.427 19.6502L141.993 19.4986L142.116 19.3757L142.37 18.9831L142.503 18.8261L142.559 18.7405L142.842 18.4069L143.384 17.9825L143.832 17.8308L144.256 17.7095H144.657H144.987L145.246 17.8611L145.388 18.0734L145.482 18.2857L145.765 19.256L145.836 19.4986L145.906 19.7412L146.071 19.9535L146.402 20.0748L146.779 20.1354L148.429 20.1657L148.83 20.2263L149.16 20.3477L149.985 20.8025L150.551 20.8935L151.352 20.9238L152.955 20.8328L153.709 20.7115L154.152 20.5123L154.393 20.1657Z" fill="#1C4587"/>
<defs>
<linearGradient id="paint0_linear" x1="216" y1="-262" x2="69.288" y2="127.892" gradientUnits="userSpaceOnUse">
<stop stop-color="#3A90B6"/>
<stop offset="1" stop-color="#075F92"/>
</linearGradient>
</defs>
</svg>
