<svg width="10" height="17" viewBox="0 0 10 17" fill="none" xmlns="http://www.w3.org/2000/svg">
<path d="M9.55309 11.472C9.55309 12.528 9.21709 13.386 8.54509 14.046C7.87309 14.694 6.99709 15.084 5.91709 15.216V16.8H4.71109V15.234C3.70309 15.162 2.83909 14.88 2.11909 14.388C1.39909 13.896 0.883094 13.23 0.571094 12.39L2.71309 11.148C3.09709 12.108 3.76309 12.654 4.71109 12.786V9.672C4.69909 9.672 4.69309 9.672 4.69309 9.672L4.65709 9.654C4.23709 9.498 3.89509 9.36 3.63109 9.24C3.36709 9.12 3.05509 8.946 2.69509 8.718C2.34709 8.49 2.07109 8.256 1.86709 8.016C1.67509 7.764 1.50109 7.446 1.34509 7.062C1.20109 6.678 1.12909 6.258 1.12909 5.802C1.12909 4.746 1.47109 3.9 2.15509 3.264C2.85109 2.628 3.70309 2.262 4.71109 2.166V0.6H5.91709V2.202C7.54909 2.394 8.70109 3.24 9.37309 4.74L7.28509 5.964C6.99709 5.244 6.54109 4.806 5.91709 4.65V7.656C7.03309 8.1 7.78309 8.454 8.16709 8.718C9.09109 9.378 9.55309 10.296 9.55309 11.472ZM3.59509 5.82C3.59509 6.084 3.67909 6.318 3.84709 6.522C4.01509 6.714 4.30309 6.912 4.71109 7.116V4.596C4.35109 4.668 4.07509 4.812 3.88309 5.028C3.69109 5.244 3.59509 5.508 3.59509 5.82ZM5.91709 12.75C6.68509 12.582 7.06909 12.162 7.06909 11.49C7.06909 11.19 6.97309 10.938 6.78109 10.734C6.60109 10.53 6.31309 10.338 5.91709 10.158V12.75Z" fill="#C4C4C4"/>
</svg>
