<svg width="48" height="37" viewBox="0 0 48 37" fill="none" xmlns="http://www.w3.org/2000/svg">
<path d="M46.5 27.9999C45.4575 27.9999 44.9841 27.7158 44.3859 27.3568C43.7156 26.9555 42.9572 26.4999 41.4994 26.4999C40.0416 26.4999 39.2831 26.9555 38.6138 27.3568C38.0147 27.7158 37.5413 27.9999 36.4987 27.9999C35.4562 27.9999 34.9837 27.7158 34.3847 27.3568C33.7153 26.9555 32.9569 26.4999 31.4991 26.4999C30.8987 26.4888 30.3013 26.5863 29.7356 26.7877L31.4016 23.8721C31.4668 23.758 31.5009 23.6288 31.5004 23.4974C31.5 23.3659 31.465 23.237 31.399 23.1233C31.333 23.0097 31.2384 22.9153 31.1244 22.8498C31.0105 22.7843 30.8814 22.7498 30.75 22.7499H15.75V21.2499H27C27.1384 21.25 27.2742 21.2117 27.3922 21.1394C27.5102 21.0671 27.6059 20.9635 27.6687 20.8401C27.7315 20.7168 27.7589 20.5785 27.748 20.4405C27.737 20.3025 27.6881 20.1702 27.6066 20.0583L15.6066 3.55834C15.5134 3.43024 15.3821 3.33492 15.2314 3.28604C15.0807 3.23717 14.9185 3.23725 14.7679 3.28628C14.6172 3.33531 14.486 3.43076 14.393 3.55895C14.3 3.68715 14.2499 3.84151 14.25 3.9999V11.9827L7.66969 20.0246C7.57968 20.1345 7.52271 20.2676 7.50542 20.4086C7.48813 20.5496 7.51122 20.6926 7.57202 20.8209C7.63281 20.9493 7.7288 21.0577 7.84883 21.1337C7.96885 21.2096 8.10797 21.2499 8.25 21.2499H14.25V22.7499H9.75C9.55109 22.7499 9.36032 22.8289 9.21967 22.9696C9.07902 23.1102 9 23.301 9 23.4999V26.4999C8.99988 26.7008 9.0203 26.9012 9.06094 27.098C8.90344 27.1833 8.75625 27.2715 8.61375 27.3568C8.01469 27.7158 7.54219 27.9999 6.49969 27.9999C5.45719 27.9999 4.98469 27.7158 4.38562 27.3568C3.71625 26.9555 2.95781 26.4999 1.5 26.4999C1.30109 26.4999 1.11032 26.5789 0.96967 26.7196C0.829018 26.8602 0.75 27.051 0.75 27.2499C0.75 27.4488 0.829018 27.6396 0.96967 27.7802C1.11032 27.9209 1.30109 27.9999 1.5 27.9999C2.5425 27.9999 3.015 28.284 3.61406 28.643C4.28344 29.0443 5.04188 29.4999 6.49969 29.4999C7.9575 29.4999 8.71594 29.0443 9.38531 28.643C9.655 28.4696 9.9403 28.3218 10.2375 28.2015C10.245 28.1987 10.2534 28.1958 10.2609 28.193C10.6587 28.0543 11.0783 27.9889 11.4994 27.9999C12.5419 27.9999 13.0153 28.284 13.6134 28.643C14.2828 29.0443 15.0422 29.4999 16.5 29.4999C17.9578 29.4999 18.7162 29.0443 19.3856 28.643C19.9847 28.284 20.4572 27.9999 21.4997 27.9999C22.5422 27.9999 23.0147 28.284 23.6138 28.643C24.2831 29.0443 25.0416 29.4999 26.4994 29.4999H27.75C27.8719 29.4996 27.9919 29.4696 28.0996 29.4124C28.2072 29.3552 28.2993 29.2726 28.3678 29.1718C28.7213 29.0249 29.0616 28.848 29.385 28.643C29.9841 28.284 30.4566 27.9999 31.4991 27.9999C32.5416 27.9999 33.0141 28.284 33.6131 28.643C34.2825 29.0443 35.0409 29.4999 36.4987 29.4999C37.9566 29.4999 38.7159 29.0443 39.3853 28.643C39.9844 28.284 40.4569 27.9999 41.4994 27.9999C42.5419 27.9999 43.0153 28.284 43.6134 28.643C44.2837 29.0443 45.0422 29.4999 46.5 29.4999C46.6989 29.4999 46.8897 29.4209 47.0303 29.2802C47.171 29.1396 47.25 28.9488 47.25 28.7499C47.25 28.551 47.171 28.3602 47.0303 28.2196C46.8897 28.0789 46.6989 27.9999 46.5 27.9999ZM15.75 6.30615L25.5272 19.7499H15.75V6.30615ZM9.8325 19.7499L14.25 14.3508V19.7499H9.8325ZM27.3628 27.9155C27.0789 27.9749 26.7894 28.0032 26.4994 27.9999C25.4569 27.9999 24.9844 27.7158 24.3853 27.3568C23.7159 26.9555 22.9575 26.4999 21.4997 26.4999C20.0419 26.4999 19.2825 26.9555 18.6131 27.3568C18.015 27.7158 17.5416 27.9999 16.5 27.9999C15.4584 27.9999 14.9841 27.7158 14.3859 27.3568C13.7166 26.9555 12.9572 26.4999 11.4994 26.4999C11.1661 26.498 10.8332 26.5253 10.5047 26.5815C10.5028 26.5543 10.5 26.5271 10.5 26.4999V24.2499H29.4572L27.3628 27.9155Z" fill="url(#paint0_linear)"/>
<path d="M46.5 31.75C45.4576 31.75 44.9844 31.4662 44.3855 31.1068C43.7161 30.7051 42.9573 30.25 41.4995 30.25C40.0417 30.25 39.2828 30.7051 38.6134 31.1068C38.0144 31.4662 37.5412 31.75 36.4989 31.75C35.4566 31.75 34.9837 31.4662 34.3849 31.1068C33.7155 30.7051 32.9568 30.25 31.4991 30.25C30.0413 30.25 29.2827 30.7051 28.6133 31.1068C28.0144 31.4662 27.5414 31.75 26.4991 31.75C25.4568 31.75 24.984 31.4662 24.3851 31.1069C23.7157 30.7051 22.957 30.25 21.4993 30.25C20.0416 30.25 19.283 30.7051 18.6136 31.1069C18.0147 31.4662 17.5417 31.75 16.5 31.75C15.4583 31.75 14.9848 31.4662 14.3859 31.1069C13.7166 30.7051 12.9578 30.25 11.5 30.25C10.0422 30.25 9.28369 30.7051 8.61431 31.1068C8.01544 31.4662 7.54247 31.75 6.50025 31.75C5.45803 31.75 4.98506 31.4662 4.38619 31.1068C3.71644 30.7051 2.95772 30.25 1.5 30.25C1.30109 30.25 1.11032 30.329 0.96967 30.4696C0.829018 30.6103 0.75 30.8011 0.75 31C0.75 31.1989 0.829018 31.3896 0.96967 31.5303C1.11032 31.671 1.30109 31.75 1.5 31.75C2.54222 31.75 3.01519 32.0337 3.61406 32.3931C4.28344 32.7948 5.04216 33.25 6.49988 33.25C7.95759 33.25 8.71631 32.7948 9.38569 32.393C9.98438 32.0338 10.4575 31.75 11.4997 31.75C12.5418 31.75 13.0149 32.0337 13.6138 32.3931C14.2832 32.7948 15.0419 33.25 16.4996 33.25C17.9573 33.25 18.7161 32.7948 19.3853 32.393C19.9842 32.0338 20.4572 31.75 21.4993 31.75C22.5414 31.75 23.0145 32.0337 23.6134 32.3931C24.2828 32.7948 25.0415 33.25 26.4991 33.25C27.9567 33.25 28.7156 32.7948 29.385 32.393C29.9839 32.0338 30.4568 31.75 31.4991 31.75C32.5413 31.75 33.0143 32.0337 33.6131 32.3931C34.2826 32.7948 35.0412 33.25 36.4989 33.25C37.9567 33.25 38.7156 32.7948 39.3849 32.3931C39.9839 32.0337 40.4571 31.75 41.4995 31.75C42.5419 31.75 43.0149 32.0337 43.6138 32.3931C44.2833 32.7948 45.0421 33.25 46.5 33.25C46.6989 33.25 46.8897 33.171 47.0303 33.0303C47.171 32.8896 47.25 32.6989 47.25 32.5C47.25 32.3011 47.171 32.1103 47.0303 31.9696C46.8897 31.829 46.6989 31.75 46.5 31.75Z" fill="url(#paint1_linear)"/>
<path d="M46.5 35.5C45.4576 35.5 44.9844 35.2162 44.3855 34.8568C43.7161 34.4551 42.9573 34 41.4995 34C40.0417 34 39.2828 34.4551 38.6134 34.8568C38.0144 35.2162 37.5412 35.5 36.4989 35.5C35.4566 35.5 34.9837 35.2162 34.3849 34.8568C33.7155 34.4551 32.9568 34 31.4991 34C30.0413 34 29.2827 34.4551 28.6133 34.8568C28.0144 35.2162 27.5414 35.5 26.4991 35.5C25.4568 35.5 24.984 35.2162 24.3851 34.8569C23.7157 34.4551 22.957 34 21.4993 34C20.0416 34 19.283 34.4551 18.6136 34.8569C18.0147 35.2162 17.5417 35.5 16.5 35.5C15.4583 35.5 14.9848 35.2162 14.3859 34.8569C13.7166 34.4551 12.9578 34 11.5 34C10.0422 34 9.28369 34.4551 8.61431 34.8568C8.01544 35.2162 7.54247 35.5 6.50025 35.5C5.45803 35.5 4.98506 35.2162 4.38619 34.8568C3.71644 34.4551 2.95772 34 1.5 34C1.30109 34 1.11032 34.079 0.96967 34.2196C0.829018 34.3603 0.75 34.5511 0.75 34.75C0.75 34.9489 0.829018 35.1396 0.96967 35.2803C1.11032 35.421 1.30109 35.5 1.5 35.5C2.54222 35.5 3.01519 35.7837 3.61406 36.1431C4.28344 36.5448 5.04216 37 6.49988 37C7.95759 37 8.71631 36.5448 9.38569 36.143C9.98438 35.7838 10.4575 35.5 11.4997 35.5C12.5418 35.5 13.0149 35.7837 13.6138 36.1431C14.2832 36.5448 15.0419 37 16.4996 37C17.9573 37 18.7161 36.5448 19.3853 36.143C19.9842 35.7838 20.4572 35.5 21.4993 35.5C22.5414 35.5 23.0145 35.7837 23.6134 36.1431C24.2828 36.5448 25.0415 37 26.4991 37C27.9567 37 28.7156 36.5448 29.385 36.143C29.9839 35.7838 30.4568 35.5 31.4991 35.5C32.5413 35.5 33.0143 35.7837 33.6131 36.1431C34.2826 36.5448 35.0412 37 36.4989 37C37.9567 37 38.7156 36.5448 39.3849 36.1431C39.9839 35.7837 40.4571 35.5 41.4995 35.5C42.5419 35.5 43.0149 35.7837 43.6138 36.1431C44.2833 36.5448 45.0421 37 46.5 37C46.6989 37 46.8897 36.921 47.0303 36.7803C47.171 36.6396 47.25 36.4489 47.25 36.25C47.25 36.0511 47.171 35.8603 47.0303 35.7196C46.8897 35.579 46.6989 35.5 46.5 35.5Z" fill="url(#paint2_linear)"/>
<circle cx="38.1429" cy="6.85714" r="5.85714" stroke="#FEAE16" stroke-width="2"/>
<defs>
<linearGradient id="paint0_linear" x1="3.66806" y1="43.4569" x2="48.7995" y2="-1.6745" gradientUnits="userSpaceOnUse">
<stop stop-color="#003F8A"/>
<stop offset="0.518" stop-color="#00D7DF"/>
<stop offset="1" stop-color="#006DF0"/>
</linearGradient>
<linearGradient id="paint1_linear" x1="3959.06" y1="1814.88" x2="4144.64" y2="-1061.56" gradientUnits="userSpaceOnUse">
<stop stop-color="#003F8A"/>
<stop offset="0.518" stop-color="#00D7DF"/>
<stop offset="1" stop-color="#006DF0"/>
</linearGradient>
<linearGradient id="paint2_linear" x1="4889.06" y1="1878.63" x2="5074.64" y2="-997.814" gradientUnits="userSpaceOnUse">
<stop stop-color="#003F8A"/>
<stop offset="0.518" stop-color="#00D7DF"/>
<stop offset="1" stop-color="#006DF0"/>
</linearGradient>
</defs>
</svg>
