<svg width="11" height="15" viewBox="0 0 11 15" fill="none" xmlns="http://www.w3.org/2000/svg">
<path d="M6.00922 14.18C4.54522 14.18 3.44722 13.856 2.71522 13.208C1.99522 12.56 1.63522 11.666 1.63522 10.526C1.63522 10.166 1.67722 9.842 1.76122 9.554H0.879219V8.222H2.44522C2.66122 7.97 2.91922 7.736 3.21922 7.52C3.51922 7.304 3.85522 7.106 4.22722 6.926H0.879219V5.594H6.89122C7.20322 5.306 7.35922 4.928 7.35922 4.46C7.35922 4.076 7.21522 3.776 6.92722 3.56C6.65122 3.344 6.24922 3.236 5.72122 3.236C5.24122 3.236 4.75522 3.302 4.26322 3.434C3.78322 3.566 3.24322 3.752 2.64322 3.992L1.83322 1.868C2.45722 1.592 3.10522 1.376 3.77722 1.22C4.46122 1.052 5.18122 0.967999 5.93722 0.967999C7.18522 0.967999 8.17522 1.274 8.90722 1.886C9.65122 2.486 10.0232 3.362 10.0232 4.514C10.0232 4.886 9.97522 5.246 9.87922 5.594H10.7972V6.926H9.12322C8.85922 7.226 8.54722 7.478 8.18722 7.682C7.82722 7.874 7.45522 8.054 7.07122 8.222H10.7972V9.554H4.64122C4.41322 9.818 4.29922 10.142 4.29922 10.526C4.29922 10.97 4.45522 11.318 4.76722 11.57C5.07922 11.81 5.54722 11.93 6.17122 11.93C6.81922 11.93 7.45522 11.858 8.07922 11.714C8.70322 11.558 9.32722 11.354 9.95122 11.102V13.37C9.43522 13.622 8.84122 13.82 8.16922 13.964C7.49722 14.108 6.77722 14.18 6.00922 14.18Z" fill="#C4C4C4"/>
</svg>
