<svg width="30" height="30" viewBox="0 0 30 30" fill="none" xmlns="http://www.w3.org/2000/svg">
<path fill-rule="evenodd" clip-rule="evenodd" d="M13.3333 22.5L9.16667 17.5L3.33333 25H26.6667L19.1667 15L13.3333 22.5ZM30 3.33333V26.6667C30 27.5507 29.6488 28.3986 29.0237 29.0237C28.3986 29.6488 27.5507 30 26.6667 30H3.33333C2.44928 30 1.60143 29.6488 0.976311 29.0237C0.351189 28.3986 0 27.5507 0 26.6667V3.33333C0 2.44928 0.351189 1.60143 0.976311 0.976311C1.60143 0.351189 2.44928 0 3.33333 0H26.6667C28.5 0 30 1.48333 30 3.33333ZM11.5 13C13.433 13 15 11.433 15 9.5C15 7.567 13.433 6 11.5 6C9.567 6 8 7.567 8 9.5C8 11.433 9.567 13 11.5 13Z" fill="#DDE2E5"/>
</svg>
