<svg width="40" height="40" viewBox="0 0 40 40" fill="none" xmlns="http://www.w3.org/2000/svg">
<circle cx="20" cy="20" r="20" fill="#393D5C" fill-opacity="0.1"/>
<g opacity="0.5">
<path d="M10.8333 13.3333V18.3333H15.8333" stroke="#393D5C" stroke-width="1.5" stroke-linecap="round" stroke-linejoin="round"/>
<path d="M29.1667 26.6667V21.6667H24.1667" stroke="#393D5C" stroke-width="1.5" stroke-linecap="round" stroke-linejoin="round"/>
<path d="M27.075 17.5C26.6523 16.3056 25.934 15.2378 24.9871 14.3961C24.0401 13.5545 22.8954 12.9664 21.6597 12.6868C20.4241 12.4073 19.1377 12.4453 17.9207 12.7973C16.7036 13.1493 15.5956 13.8039 14.7 14.7L10.8333 18.3333M29.1666 21.6666L25.3 25.3C24.4044 26.196 23.2963 26.8506 22.0793 27.2027C20.8623 27.5547 19.5759 27.5927 18.3402 27.3131C17.1045 27.0335 15.9598 26.4454 15.0129 25.6038C14.0659 24.7621 13.3476 23.6943 12.925 22.5" stroke="#393D5C" stroke-width="1.5" stroke-linecap="round" stroke-linejoin="round"/>
</g>
</svg>
