<svg width="18" height="18" viewBox="0 0 18 18" fill="none" xmlns="http://www.w3.org/2000/svg">
<path d="M1 11.6667C1 12.1382 1.1873 12.5903 1.5207 12.9237C1.8541 13.2571 2.30628 13.4444 2.77778 13.4444H13.4444L17 17V2.77778C17 2.30628 16.8127 1.8541 16.4793 1.5207C16.1459 1.1873 15.6937 1 15.2222 1H2.77778C2.30628 1 1.8541 1.1873 1.5207 1.5207C1.1873 1.8541 1 2.30628 1 2.77778V11.6667Z" stroke="white" stroke-width="2" stroke-linecap="round" stroke-linejoin="round"/>
<circle r="1" transform="matrix(-1 0 0 1 13 7)" fill="white"/>
<circle r="1" transform="matrix(-1 0 0 1 9 7)" fill="white"/>
<circle r="1" transform="matrix(-1 0 0 1 5 7)" fill="white"/>
</svg>
