<svg width="1078" height="716" viewBox="0 0 1078 716" fill="none" xmlns="http://www.w3.org/2000/svg">
<circle cx="720" cy="358" r="358" fill="#F44B11"/>
<path d="M31.2 338.8H40.8V342C40.8 348.933 39.2 354.133 36 357.6C32.8 361.067 28.4 362.8 22.8 362.8C17.2 362.8 12.8 361.067 9.6 357.6C6.4 354.133 4.8 348.933 4.8 342V322C4.8 315.013 6.4 309.813 9.6 306.4C12.8 302.933 17.2 301.2 22.8 301.2C28.4 301.2 32.8 302.933 36 306.4C39.2 309.813 40.8 315.013 40.8 322V324.4H31.2V322C31.2 317.467 30.4533 314.347 28.96 312.64C27.52 310.88 25.4667 310 22.8 310C20.1867 310 18.1333 310.88 16.64 312.64C15.1467 314.347 14.4 317.467 14.4 322V342C14.4 346.533 15.1467 349.68 16.64 351.44C18.1333 353.147 20.1867 354 22.8 354C25.4133 354 27.4667 353.147 28.96 351.44C30.4533 349.68 31.2 346.533 31.2 342V338.8ZM68.825 362.8C64.9317 362.8 61.4383 361.92 58.345 360.16C55.305 358.4 52.8783 355.947 51.065 352.8C49.305 349.653 48.425 346.053 48.425 342C48.425 337.893 49.305 334.293 51.065 331.2C52.8783 328.053 55.305 325.6 58.345 323.84C61.4383 322.08 64.9317 321.2 68.825 321.2C72.7183 321.2 76.185 322.08 79.225 323.84C82.3183 325.6 84.745 328.053 86.505 331.2C88.3183 334.293 89.225 337.893 89.225 342C89.225 346.053 88.3183 349.653 86.505 352.8C84.745 355.947 82.3183 358.4 79.225 360.16C76.185 361.92 72.7183 362.8 68.825 362.8ZM68.825 354C71.9183 354 74.4783 352.907 76.505 350.72C78.585 348.48 79.625 345.573 79.625 342C79.625 338.373 78.585 335.467 76.505 333.28C74.4783 331.093 71.9183 330 68.825 330C65.7317 330 63.145 331.093 61.065 333.28C59.0383 335.467 58.025 338.373 58.025 342C58.025 345.573 59.0383 348.48 61.065 350.72C63.145 352.907 65.7317 354 68.825 354ZM108.271 338.08H114.671C116.538 338.08 117.845 337.68 118.591 336.88C119.391 336.08 119.791 335.013 119.791 333.68C119.791 332.293 119.258 331.147 118.191 330.24C117.125 329.28 115.338 328.8 112.831 328.8C107.551 328.8 104.911 331.333 104.911 336.4H95.3113C95.3113 333.68 95.9513 331.173 97.2313 328.88C98.5113 326.587 100.431 324.747 102.991 323.36C105.605 321.92 108.885 321.2 112.831 321.2C116.618 321.2 119.685 321.76 122.031 322.88C124.431 323.947 126.191 325.387 127.311 327.2C128.431 328.96 128.991 330.853 128.991 332.88C128.991 334.587 128.565 336.267 127.711 337.92C126.858 339.573 125.525 340.827 123.711 341.68C127.871 343.333 129.951 346.267 129.951 350.48C129.951 354.213 128.511 357.2 125.631 359.44C122.805 361.68 118.538 362.8 112.831 362.8C107.018 362.8 102.565 361.44 99.4713 358.72C96.3779 356 94.8313 352.16 94.8313 347.2H104.431C104.431 349.653 105.098 351.627 106.431 353.12C107.765 354.56 109.925 355.28 112.911 355.28C115.738 355.28 117.685 354.773 118.751 353.76C119.818 352.693 120.351 351.493 120.351 350.16C120.351 348.667 119.898 347.493 118.991 346.64C118.085 345.733 116.645 345.28 114.671 345.28H108.271V338.08ZM135.116 353.2H139.116C139.489 352.4 139.862 351.36 140.236 350.08C140.609 348.747 140.956 346.96 141.276 344.72C141.596 342.48 141.836 339.547 141.996 335.92C142.209 332.24 142.316 327.6 142.316 322H174.156V353.2H179.756V372.8H170.956V362H143.916V372.8H135.116V353.2ZM150.236 345.44C149.969 347.253 149.702 348.8 149.436 350.08C149.169 351.307 148.876 352.347 148.556 353.2H164.556V330.8H151.116C151.062 334.16 150.956 337.04 150.796 339.44C150.636 341.84 150.449 343.84 150.236 345.44ZM199.149 362.8C196.856 362.8 194.669 362.4 192.589 361.6C190.563 360.8 188.909 359.547 187.629 357.84C186.349 356.133 185.709 353.947 185.709 351.28C185.709 348.4 186.323 346.16 187.549 344.56C188.829 342.907 190.456 341.68 192.429 340.88C194.403 340.027 196.483 339.413 198.669 339.04C200.909 338.667 203.016 338.347 204.989 338.08C206.963 337.76 208.563 337.307 209.789 336.72C211.069 336.08 211.709 335.093 211.709 333.76C211.709 332.213 210.989 331.013 209.549 330.16C208.163 329.253 206.429 328.8 204.349 328.8C202.163 328.8 200.376 329.387 198.989 330.56C197.603 331.68 196.909 333.36 196.909 335.6H186.909C186.909 332.133 187.736 329.36 189.389 327.28C191.043 325.147 193.203 323.6 195.869 322.64C198.536 321.68 201.363 321.2 204.349 321.2C207.283 321.2 210.029 321.627 212.589 322.48C215.203 323.333 217.309 324.72 218.909 326.64C220.509 328.507 221.309 331.013 221.309 334.16V362H211.869V356.08C210.589 358.427 208.829 360.133 206.589 361.2C204.403 362.267 201.923 362.8 199.149 362.8ZM195.549 350.64C195.549 352.027 196.083 353.067 197.149 353.76C198.216 354.453 199.549 354.8 201.149 354.8C203.016 354.8 204.749 354.453 206.349 353.76C208.003 353.067 209.336 352.027 210.349 350.64C211.363 349.253 211.869 347.547 211.869 345.52V343.68C210.269 344.373 208.536 344.88 206.669 345.2C204.803 345.52 203.016 345.867 201.309 346.24C199.603 346.56 198.216 347.067 197.149 347.76C196.083 348.4 195.549 349.36 195.549 350.64ZM268.414 345.2H238.334C238.867 348.133 240.04 350.4 241.854 352C243.72 353.6 246.147 354.4 249.134 354.4C251.267 354.4 252.974 354.027 254.254 353.28C255.534 352.48 256.494 351.387 257.134 350H267.534C266.36 354.16 264.12 357.333 260.814 359.52C257.507 361.707 253.48 362.8 248.734 362.8C244.947 362.8 241.534 361.92 238.494 360.16C235.507 358.4 233.16 355.947 231.454 352.8C229.747 349.653 228.894 346.053 228.894 342C228.894 337.893 229.747 334.293 231.454 331.2C233.16 328.053 235.507 325.6 238.494 323.84C241.534 322.08 244.947 321.2 248.734 321.2C252.574 321.2 255.987 322.08 258.974 323.84C261.96 325.6 264.307 328.053 266.014 331.2C267.72 334.293 268.574 337.893 268.574 342C268.574 342.533 268.547 343.067 268.494 343.6C268.494 344.133 268.467 344.667 268.414 345.2ZM248.734 329.6C245.907 329.6 243.614 330.373 241.854 331.92C240.094 333.413 238.947 335.573 238.414 338.4H259.054C258.52 335.573 257.374 333.413 255.614 331.92C253.854 330.373 251.56 329.6 248.734 329.6ZM306.126 362H295.406L285.806 329.12V362H277.006V322H293.246L301.326 352.56L309.326 322H325.326V362H315.726V328.88L306.126 362ZM372.575 362.8C368.682 362.8 365.188 361.92 362.095 360.16C359.055 358.4 356.628 355.947 354.815 352.8C353.055 349.653 352.175 346.053 352.175 342C352.175 337.893 353.055 334.293 354.815 331.2C356.628 328.053 359.055 325.6 362.095 323.84C365.188 322.08 368.682 321.2 372.575 321.2C376.468 321.2 379.935 322.08 382.975 323.84C386.068 325.6 388.495 328.053 390.255 331.2C392.068 334.293 392.975 337.893 392.975 342C392.975 346.053 392.068 349.653 390.255 352.8C388.495 355.947 386.068 358.4 382.975 360.16C379.935 361.92 376.468 362.8 372.575 362.8ZM372.575 354C375.668 354 378.228 352.907 380.255 350.72C382.335 348.48 383.375 345.573 383.375 342C383.375 338.373 382.335 335.467 380.255 333.28C378.228 331.093 375.668 330 372.575 330C369.482 330 366.895 331.093 364.815 333.28C362.788 335.467 361.775 338.373 361.775 342C361.775 345.573 362.788 348.48 364.815 350.72C366.895 352.907 369.482 354 372.575 354ZM410.981 362H401.381V322H410.981V337.52H427.781V322H437.381V362H427.781V346.32H410.981V362ZM481.529 362H471.929V330.8H459.849C459.742 338.96 459.395 344.907 458.809 348.64C458.275 352.16 457.475 354.907 456.409 356.88C455.395 358.8 454.062 360.133 452.409 360.88C450.809 361.627 448.809 362 446.409 362H444.969V353.2H445.449C447.475 353.2 448.862 352.08 449.609 349.84C449.929 348.933 450.195 347.52 450.409 345.6C450.622 343.68 450.782 340.853 450.889 337.12C450.995 333.333 451.049 328.293 451.049 322H481.529V362ZM504.149 362.8C501.856 362.8 499.669 362.4 497.589 361.6C495.563 360.8 493.909 359.547 492.629 357.84C491.349 356.133 490.709 353.947 490.709 351.28C490.709 348.4 491.323 346.16 492.549 344.56C493.829 342.907 495.456 341.68 497.429 340.88C499.403 340.027 501.483 339.413 503.669 339.04C505.909 338.667 508.016 338.347 509.989 338.08C511.963 337.76 513.563 337.307 514.789 336.72C516.069 336.08 516.709 335.093 516.709 333.76C516.709 332.213 515.989 331.013 514.549 330.16C513.163 329.253 511.429 328.8 509.349 328.8C507.163 328.8 505.376 329.387 503.989 330.56C502.603 331.68 501.909 333.36 501.909 335.6H491.909C491.909 332.133 492.736 329.36 494.389 327.28C496.043 325.147 498.203 323.6 500.869 322.64C503.536 321.68 506.363 321.2 509.349 321.2C512.283 321.2 515.029 321.627 517.589 322.48C520.203 323.333 522.309 324.72 523.909 326.64C525.509 328.507 526.309 331.013 526.309 334.16V362H516.869V356.08C515.589 358.427 513.829 360.133 511.589 361.2C509.403 362.267 506.923 362.8 504.149 362.8ZM500.549 350.64C500.549 352.027 501.083 353.067 502.149 353.76C503.216 354.453 504.549 354.8 506.149 354.8C508.016 354.8 509.749 354.453 511.349 353.76C513.003 353.067 514.336 352.027 515.349 350.64C516.363 349.253 516.869 347.547 516.869 345.52V343.68C515.269 344.373 513.536 344.88 511.669 345.2C509.803 345.52 508.016 345.867 506.309 346.24C504.603 346.56 503.216 347.067 502.149 347.76C501.083 348.4 500.549 349.36 500.549 350.64ZM573.894 362H564.694V332.16L549.014 362H536.694V322H545.894V351.92L561.574 322H573.894V362ZM560.054 302H567.654C567.654 305.733 566.507 308.667 564.214 310.8C561.92 312.933 558.88 314 555.094 314C551.36 314 548.347 312.933 546.054 310.8C543.76 308.667 542.614 305.733 542.614 302H550.214C550.214 303.813 550.694 305.147 551.654 306C552.667 306.8 553.814 307.2 555.094 307.2C556.48 307.2 557.654 306.8 558.614 306C559.574 305.147 560.054 303.813 560.054 302ZM594.731 362H585.131V322H594.731V337.52H611.531V322H621.131V362H611.531V346.32H594.731V362ZM650.719 344.4H630.719V335.6H650.719V344.4ZM669.888 382H660.288V322H669.888V327.04C671.381 325.173 673.141 323.733 675.168 322.72C677.248 321.707 679.488 321.2 681.888 321.2C685.568 321.2 688.848 322.08 691.728 323.84C694.608 325.6 696.874 328.053 698.528 331.2C700.234 334.293 701.088 337.893 701.088 342C701.088 346.053 700.234 349.653 698.528 352.8C696.874 355.947 694.608 358.4 691.728 360.16C688.848 361.92 685.568 362.8 681.888 362.8C679.488 362.8 677.248 362.293 675.168 361.28C673.141 360.267 671.381 358.827 669.888 356.96V382ZM680.688 354C683.781 354 686.341 352.907 688.368 350.72C690.448 348.48 691.488 345.573 691.488 342C691.488 338.373 690.448 335.467 688.368 333.28C686.341 331.093 683.781 330 680.688 330C677.594 330 675.008 331.093 672.928 333.28C670.901 335.467 669.888 338.373 669.888 342C669.888 345.573 670.901 348.48 672.928 350.72C675.008 352.907 677.594 354 680.688 354ZM746.226 345.2H716.146C716.68 348.133 717.853 350.4 719.666 352C721.533 353.6 723.96 354.4 726.946 354.4C729.08 354.4 730.786 354.027 732.066 353.28C733.346 352.48 734.306 351.387 734.946 350H745.346C744.173 354.16 741.933 357.333 738.626 359.52C735.32 361.707 731.293 362.8 726.546 362.8C722.76 362.8 719.346 361.92 716.306 360.16C713.32 358.4 710.973 355.947 709.266 352.8C707.56 349.653 706.706 346.053 706.706 342C706.706 337.893 707.56 334.293 709.266 331.2C710.973 328.053 713.32 325.6 716.306 323.84C719.346 322.08 722.76 321.2 726.546 321.2C730.386 321.2 733.8 322.08 736.786 323.84C739.773 325.6 742.12 328.053 743.826 331.2C745.533 334.293 746.386 337.893 746.386 342C746.386 342.533 746.36 343.067 746.306 343.6C746.306 344.133 746.28 344.667 746.226 345.2ZM726.546 329.6C723.72 329.6 721.426 330.373 719.666 331.92C717.906 333.413 716.76 335.573 716.226 338.4H736.866C736.333 335.573 735.186 333.413 733.426 331.92C731.666 330.373 729.373 329.6 726.546 329.6ZM765.219 322V353.2H777.619V322H787.219V353.2H800.419V322H810.019V362H754.819V322H765.219ZM857.945 345.2H827.865C828.398 348.133 829.572 350.4 831.385 352C833.252 353.6 835.678 354.4 838.665 354.4C840.798 354.4 842.505 354.027 843.785 353.28C845.065 352.48 846.025 351.387 846.665 350H857.065C855.892 354.16 853.652 357.333 850.345 359.52C847.038 361.707 843.012 362.8 838.265 362.8C834.478 362.8 831.065 361.92 828.025 360.16C825.038 358.4 822.692 355.947 820.985 352.8C819.278 349.653 818.425 346.053 818.425 342C818.425 337.893 819.278 334.293 820.985 331.2C822.692 328.053 825.038 325.6 828.025 323.84C831.065 322.08 834.478 321.2 838.265 321.2C842.105 321.2 845.518 322.08 848.505 323.84C851.492 325.6 853.838 328.053 855.545 331.2C857.252 334.293 858.105 337.893 858.105 342C858.105 342.533 858.078 343.067 858.025 343.6C858.025 344.133 857.998 344.667 857.945 345.2ZM838.265 329.6C835.438 329.6 833.145 330.373 831.385 331.92C829.625 333.413 828.478 335.573 827.945 338.4H848.585C848.052 335.573 846.905 333.413 845.145 331.92C843.385 330.373 841.092 329.6 838.265 329.6ZM876.138 362H866.538V322H876.138V337.52H892.938V322H902.538V362H892.938V346.32H876.138V362ZM950.925 362H941.725V332.16L926.045 362H913.725V322H922.925V351.92L938.605 322H950.925V362ZM961.621 334.56C961.621 331.52 962.315 329.093 963.701 327.28C965.141 325.413 967.008 324.08 969.301 323.28C971.648 322.427 974.155 322 976.821 322H994.341V362H984.741V344.64L969.701 362H958.581L972.341 346.8C970.421 346.427 968.635 345.733 966.981 344.72C965.381 343.653 964.075 342.293 963.061 340.64C962.101 338.933 961.621 336.907 961.621 334.56ZM978.341 340.4H984.741V329.2H978.341C976.101 329.2 974.341 329.68 973.061 330.64C971.835 331.6 971.221 332.933 971.221 334.64C971.221 336.613 971.861 338.08 973.141 339.04C974.421 339.947 976.155 340.4 978.341 340.4ZM1.6 454.2H5.6C5.97333 453.4 6.34667 452.36 6.72 451.08C7.09333 449.747 7.44 447.96 7.76 445.72C8.08 443.48 8.32 440.547 8.48 436.92C8.69333 433.24 8.8 428.6 8.8 423H40.64V454.2H46.24V473.8H37.44V463H10.4V473.8H1.6V454.2ZM16.72 446.44C16.4533 448.253 16.1867 449.8 15.92 451.08C15.6533 452.307 15.36 453.347 15.04 454.2H31.04V431.8H17.6C17.5467 435.16 17.44 438.04 17.28 440.44C17.12 442.84 16.9333 444.84 16.72 446.44ZM87.5444 463H77.9444V431.8H65.8644C65.7577 439.96 65.411 445.907 64.8244 449.64C64.291 453.16 63.491 455.907 62.4244 457.88C61.411 459.8 60.0777 461.133 58.4244 461.88C56.8244 462.627 54.8244 463 52.4244 463H50.9844V454.2H51.4644C53.491 454.2 54.8777 453.08 55.6244 450.84C55.9444 449.933 56.211 448.52 56.4244 446.6C56.6377 444.68 56.7977 441.853 56.9044 438.12C57.011 434.333 57.0644 429.293 57.0644 423H87.5444V463ZM98.1838 435.56C98.1838 432.52 98.8771 430.093 100.264 428.28C101.704 426.413 103.57 425.08 105.864 424.28C108.21 423.427 110.717 423 113.384 423H130.904V463H121.304V445.64L106.264 463H95.1438L108.904 447.8C106.984 447.427 105.197 446.733 103.544 445.72C101.944 444.653 100.637 443.293 99.6238 441.64C98.6638 439.933 98.1838 437.907 98.1838 435.56ZM114.904 441.4H121.304V430.2H114.904C112.664 430.2 110.904 430.68 109.624 431.64C108.397 432.6 107.784 433.933 107.784 435.64C107.784 437.613 108.424 439.08 109.704 440.04C110.984 440.947 112.717 441.4 114.904 441.4ZM193.482 463H183.882V431.8H171.802C171.695 439.96 171.349 445.907 170.762 449.64C170.229 453.16 169.429 455.907 168.362 457.88C167.349 459.8 166.015 461.133 164.362 461.88C162.762 462.627 160.762 463 158.362 463H156.922V454.2H157.402C159.429 454.2 160.815 453.08 161.562 450.84C161.882 449.933 162.149 448.52 162.362 446.6C162.575 444.68 162.735 441.853 162.842 438.12C162.949 434.333 163.002 429.293 163.002 423H193.482V463ZM214.263 463H204.663V423H214.263V438.52H219.863C220.503 435.267 221.756 432.413 223.623 429.96C225.489 427.507 227.809 425.613 230.583 424.28C233.356 422.893 236.449 422.2 239.863 422.2C243.756 422.2 247.223 423.08 250.263 424.84C253.356 426.6 255.783 429.053 257.543 432.2C259.356 435.293 260.263 438.893 260.263 443C260.263 447.053 259.356 450.653 257.543 453.8C255.783 456.947 253.356 459.4 250.263 461.16C247.223 462.92 243.756 463.8 239.863 463.8C236.449 463.8 233.329 463.133 230.503 461.8C227.729 460.413 225.409 458.493 223.543 456.04C221.676 453.533 220.449 450.627 219.863 447.32H214.263V463ZM239.863 455C242.956 455 245.516 453.907 247.543 451.72C249.623 449.48 250.663 446.573 250.663 443C250.663 439.373 249.623 436.467 247.543 434.28C245.516 432.093 242.956 431 239.863 431C236.769 431 234.183 432.093 232.103 434.28C230.076 436.467 229.063 439.373 229.063 443C229.063 446.573 230.076 449.48 232.103 451.72C234.183 453.907 236.769 455 239.863 455ZM289.348 423C292.601 423 295.615 423.88 298.388 425.64C301.215 427.347 303.481 429.72 305.188 432.76C306.948 435.8 307.828 439.347 307.828 443.4C307.828 447.4 306.921 450.947 305.108 454.04C303.348 457.08 300.921 459.48 297.828 461.24C294.788 462.947 291.321 463.8 287.428 463.8C283.588 463.8 280.121 462.947 277.028 461.24C273.988 459.533 271.561 457.16 269.748 454.12C267.935 451.027 267.028 447.507 267.028 443.56V428.68C267.028 423.347 267.721 419.213 269.108 416.28C270.548 413.293 272.628 411.107 275.348 409.72C278.121 408.333 281.508 407.347 285.508 406.76L294.948 405.4C296.015 405.24 296.681 404.947 296.948 404.52C297.268 404.04 297.428 403.533 297.428 403H307.028C307.028 405.56 306.628 407.56 305.828 409C305.028 410.44 303.721 411.533 301.908 412.28C300.148 412.973 297.748 413.533 294.708 413.96L286.388 415.16C283.775 415.533 281.721 416.12 280.228 416.92C278.735 417.72 277.668 418.973 277.028 420.68C276.441 422.387 276.148 424.813 276.148 427.96V429.24C277.268 427.427 278.921 425.933 281.108 424.76C283.295 423.587 286.041 423 289.348 423ZM287.428 455C290.628 455 293.215 453.907 295.188 451.72C297.215 449.533 298.228 446.76 298.228 443.4C298.228 440.093 297.241 437.347 295.268 435.16C293.295 432.92 290.681 431.8 287.428 431.8C284.281 431.8 281.695 432.893 279.668 435.08C277.641 437.213 276.628 439.987 276.628 443.4C276.628 446.813 277.641 449.613 279.668 451.8C281.695 453.933 284.281 455 287.428 455ZM333.825 463.8C329.932 463.8 326.438 462.92 323.345 461.16C320.305 459.4 317.878 456.947 316.065 453.8C314.305 450.653 313.425 447.053 313.425 443C313.425 438.893 314.305 435.293 316.065 432.2C317.878 429.053 320.305 426.6 323.345 424.84C326.438 423.08 329.932 422.2 333.825 422.2C337.718 422.2 341.185 423.08 344.225 424.84C347.318 426.6 349.745 429.053 351.505 432.2C353.318 435.293 354.225 438.893 354.225 443C354.225 447.053 353.318 450.653 351.505 453.8C349.745 456.947 347.318 459.4 344.225 461.16C341.185 462.92 337.718 463.8 333.825 463.8ZM333.825 455C336.918 455 339.478 453.907 341.505 451.72C343.585 449.48 344.625 446.573 344.625 443C344.625 439.373 343.585 436.467 341.505 434.28C339.478 432.093 336.918 431 333.825 431C330.732 431 328.145 432.093 326.065 434.28C324.038 436.467 323.025 439.373 323.025 443C323.025 446.573 324.038 449.48 326.065 451.72C328.145 453.907 330.732 455 333.825 455ZM372.231 463H362.631V423H389.511V431.8H372.231V463ZM413.513 463.8C409.619 463.8 406.126 462.92 403.033 461.16C399.993 459.4 397.566 456.947 395.753 453.8C393.993 450.653 393.113 447.053 393.113 443C393.113 438.893 393.993 435.293 395.753 432.2C397.566 429.053 399.993 426.6 403.033 424.84C406.126 423.08 409.619 422.2 413.513 422.2C417.406 422.2 420.873 423.08 423.913 424.84C427.006 426.6 429.433 429.053 431.193 432.2C433.006 435.293 433.913 438.893 433.913 443C433.913 447.053 433.006 450.653 431.193 453.8C429.433 456.947 427.006 459.4 423.913 461.16C420.873 462.92 417.406 463.8 413.513 463.8ZM413.513 455C416.606 455 419.166 453.907 421.193 451.72C423.273 449.48 424.313 446.573 424.313 443C424.313 439.373 423.273 436.467 421.193 434.28C419.166 432.093 416.606 431 413.513 431C410.419 431 407.833 432.093 405.753 434.28C403.726 436.467 402.713 439.373 402.713 443C402.713 446.573 403.726 449.48 405.753 451.72C407.833 453.907 410.419 455 413.513 455ZM480.676 423C483.93 423 486.943 423.88 489.716 425.64C492.543 427.347 494.81 429.72 496.516 432.76C498.276 435.8 499.156 439.347 499.156 443.4C499.156 447.4 498.25 450.947 496.436 454.04C494.676 457.08 492.25 459.48 489.156 461.24C486.116 462.947 482.65 463.8 478.756 463.8C474.916 463.8 471.45 462.947 468.356 461.24C465.316 459.533 462.89 457.16 461.076 454.12C459.263 451.027 458.356 447.507 458.356 443.56V428.68C458.356 423.347 459.05 419.213 460.436 416.28C461.876 413.293 463.956 411.107 466.676 409.72C469.45 408.333 472.836 407.347 476.836 406.76L486.276 405.4C487.343 405.24 488.01 404.947 488.276 404.52C488.596 404.04 488.756 403.533 488.756 403H498.356C498.356 405.56 497.956 407.56 497.156 409C496.356 410.44 495.05 411.533 493.236 412.28C491.476 412.973 489.076 413.533 486.036 413.96L477.716 415.16C475.103 415.533 473.05 416.12 471.556 416.92C470.063 417.72 468.996 418.973 468.356 420.68C467.77 422.387 467.476 424.813 467.476 427.96V429.24C468.596 427.427 470.25 425.933 472.436 424.76C474.623 423.587 477.37 423 480.676 423ZM478.756 455C481.956 455 484.543 453.907 486.516 451.72C488.543 449.533 489.556 446.76 489.556 443.4C489.556 440.093 488.57 437.347 486.596 435.16C484.623 432.92 482.01 431.8 478.756 431.8C475.61 431.8 473.023 432.893 470.996 435.08C468.97 437.213 467.956 439.987 467.956 443.4C467.956 446.813 468.97 449.613 470.996 451.8C473.023 453.933 475.61 455 478.756 455ZM544.753 463H535.553V433.16L519.873 463H507.553V423H516.753V452.92L532.433 423H544.753V463ZM566.631 439.08H573.031C574.897 439.08 576.204 438.68 576.951 437.88C577.751 437.08 578.151 436.013 578.151 434.68C578.151 433.293 577.617 432.147 576.551 431.24C575.484 430.28 573.697 429.8 571.191 429.8C565.911 429.8 563.271 432.333 563.271 437.4H553.671C553.671 434.68 554.311 432.173 555.591 429.88C556.871 427.587 558.791 425.747 561.351 424.36C563.964 422.92 567.244 422.2 571.191 422.2C574.977 422.2 578.044 422.76 580.391 423.88C582.791 424.947 584.551 426.387 585.671 428.2C586.791 429.96 587.351 431.853 587.351 433.88C587.351 435.587 586.924 437.267 586.071 438.92C585.217 440.573 583.884 441.827 582.071 442.68C586.231 444.333 588.311 447.267 588.311 451.48C588.311 455.213 586.871 458.2 583.991 460.44C581.164 462.68 576.897 463.8 571.191 463.8C565.377 463.8 560.924 462.44 557.831 459.72C554.737 457 553.191 453.16 553.191 448.2H562.791C562.791 450.653 563.457 452.627 564.791 454.12C566.124 455.56 568.284 456.28 571.271 456.28C574.097 456.28 576.044 455.773 577.111 454.76C578.177 453.693 578.711 452.493 578.711 451.16C578.711 449.667 578.257 448.493 577.351 447.64C576.444 446.733 575.004 446.28 573.031 446.28H566.631V439.08ZM606.294 463H596.694V423H606.294V438.52H623.094V423H632.694V463H623.094V447.32H606.294V463ZM680.601 446.2H650.521C651.055 449.133 652.228 451.4 654.041 453C655.908 454.6 658.335 455.4 661.321 455.4C663.455 455.4 665.161 455.027 666.441 454.28C667.721 453.48 668.681 452.387 669.321 451H679.721C678.548 455.16 676.308 458.333 673.001 460.52C669.695 462.707 665.668 463.8 660.921 463.8C657.135 463.8 653.721 462.92 650.681 461.16C647.695 459.4 645.348 456.947 643.641 453.8C641.935 450.653 641.081 447.053 641.081 443C641.081 438.893 641.935 435.293 643.641 432.2C645.348 429.053 647.695 426.6 650.681 424.84C653.721 423.08 657.135 422.2 660.921 422.2C664.761 422.2 668.175 423.08 671.161 424.84C674.148 426.6 676.495 429.053 678.201 432.2C679.908 435.293 680.761 438.893 680.761 443C680.761 443.533 680.735 444.067 680.681 444.6C680.681 445.133 680.655 445.667 680.601 446.2ZM660.921 430.6C658.095 430.6 655.801 431.373 654.041 432.92C652.281 434.413 651.135 436.573 650.601 439.4H671.241C670.708 436.573 669.561 434.413 667.801 432.92C666.041 431.373 663.748 430.6 660.921 430.6ZM716.394 438.92C716.074 436.253 714.954 434.28 713.034 433C711.167 431.667 708.98 431 706.474 431C703.487 431 700.98 432.093 698.954 434.28C696.98 436.467 695.994 439.373 695.994 443C695.994 446.573 696.98 449.48 698.954 451.72C700.98 453.907 703.487 455 706.474 455C708.98 455 711.194 454.28 713.114 452.84C715.087 451.347 716.26 449.133 716.634 446.2H726.554C726.394 449.72 725.407 452.813 723.594 455.48C721.834 458.093 719.46 460.147 716.474 461.64C713.54 463.08 710.207 463.8 706.474 463.8C702.634 463.8 699.194 462.92 696.154 461.16C693.167 459.4 690.794 456.947 689.034 453.8C687.274 450.653 686.394 447.053 686.394 443C686.394 438.893 687.274 435.293 689.034 432.2C690.794 429.053 693.167 426.6 696.154 424.84C699.194 423.08 702.634 422.2 706.474 422.2C710.1 422.2 713.354 422.893 716.234 424.28C719.114 425.667 721.46 427.613 723.274 430.12C725.087 432.627 726.154 435.56 726.474 438.92H716.394ZM746.415 463.8C744.122 463.8 741.935 463.4 739.855 462.6C737.828 461.8 736.175 460.547 734.895 458.84C733.615 457.133 732.975 454.947 732.975 452.28C732.975 449.4 733.588 447.16 734.815 445.56C736.095 443.907 737.722 442.68 739.695 441.88C741.668 441.027 743.748 440.413 745.935 440.04C748.175 439.667 750.282 439.347 752.255 439.08C754.228 438.76 755.828 438.307 757.055 437.72C758.335 437.08 758.975 436.093 758.975 434.76C758.975 433.213 758.255 432.013 756.815 431.16C755.428 430.253 753.695 429.8 751.615 429.8C749.428 429.8 747.642 430.387 746.255 431.56C744.868 432.68 744.175 434.36 744.175 436.6H734.175C734.175 433.133 735.002 430.36 736.655 428.28C738.308 426.147 740.468 424.6 743.135 423.64C745.802 422.68 748.628 422.2 751.615 422.2C754.548 422.2 757.295 422.627 759.855 423.48C762.468 424.333 764.575 425.72 766.175 427.64C767.775 429.507 768.575 432.013 768.575 435.16V463H759.135V457.08C757.855 459.427 756.095 461.133 753.855 462.2C751.668 463.267 749.188 463.8 746.415 463.8ZM742.815 451.64C742.815 453.027 743.348 454.067 744.415 454.76C745.482 455.453 746.815 455.8 748.415 455.8C750.282 455.8 752.015 455.453 753.615 454.76C755.268 454.067 756.602 453.027 757.615 451.64C758.628 450.253 759.135 448.547 759.135 446.52V444.68C757.535 445.373 755.802 445.88 753.935 446.2C752.068 446.52 750.282 446.867 748.575 447.24C746.868 447.56 745.482 448.067 744.415 448.76C743.348 449.4 742.815 450.36 742.815 451.64Z" fill="#1D1D1F"/>
<path fill-rule="evenodd" clip-rule="evenodd" d="M362.006 360.108C362.036 360.126 362.065 360.143 362.095 360.16C365.188 361.92 368.682 362.8 372.575 362.8C376.468 362.8 379.935 361.92 382.975 360.16C386.068 358.4 388.495 355.947 390.255 352.8C392.068 349.653 392.975 346.053 392.975 342C392.975 337.893 392.068 334.293 390.255 331.2C388.495 328.053 386.068 325.6 382.975 323.84C379.935 322.08 376.468 321.2 372.575 321.2C369.335 321.2 366.372 321.809 363.686 323.028C363.241 327.622 362.882 332.242 362.612 336.885C363.118 335.521 363.852 334.319 364.815 333.28C366.895 331.093 369.482 330 372.575 330C375.668 330 378.228 331.093 380.255 333.28C382.335 335.467 383.375 338.373 383.375 342C383.375 345.573 382.335 348.48 380.255 350.72C378.228 352.907 375.668 354 372.575 354C369.482 354 366.895 352.907 364.815 350.72C363.551 349.323 362.681 347.667 362.206 345.751C362.069 349.817 362 353.901 362 358C362 358.703 362.002 359.406 362.006 360.108ZM372.231 443.326C370.592 436.623 369.142 429.846 367.886 423H389.511V431.8H372.231V443.326ZM401.381 362H410.981V346.32H427.781V362H437.381V322H427.781V337.52H410.981V322H401.381V362ZM471.929 362H481.529V322H451.049C451.049 328.293 450.995 333.333 450.889 337.12C450.782 340.853 450.622 343.68 450.409 345.6C450.195 347.52 449.929 348.933 449.609 349.84C448.862 352.08 447.475 353.2 445.449 353.2H444.969V362H446.409C448.809 362 450.809 361.627 452.409 360.88C454.062 360.133 455.395 358.8 456.409 356.88C457.475 354.907 458.275 352.16 458.809 348.64C459.395 344.907 459.742 338.96 459.849 330.8H471.929V362ZM497.589 361.6C499.669 362.4 501.856 362.8 504.149 362.8C506.923 362.8 509.403 362.267 511.589 361.2C513.829 360.133 515.589 358.427 516.869 356.08V362H526.309V334.16C526.309 331.013 525.509 328.507 523.909 326.64C522.309 324.72 520.203 323.333 517.589 322.48C515.029 321.627 512.283 321.2 509.349 321.2C506.363 321.2 503.536 321.68 500.869 322.64C498.203 323.6 496.043 325.147 494.389 327.28C492.736 329.36 491.909 332.133 491.909 335.6H501.909C501.909 333.36 502.603 331.68 503.989 330.56C505.376 329.387 507.163 328.8 509.349 328.8C511.429 328.8 513.163 329.253 514.549 330.16C515.989 331.013 516.709 332.213 516.709 333.76C516.709 335.093 516.069 336.08 514.789 336.72C513.563 337.307 511.963 337.76 509.989 338.08C508.016 338.347 505.909 338.667 503.669 339.04C501.483 339.413 499.403 340.027 497.429 340.88C495.456 341.68 493.829 342.907 492.549 344.56C491.323 346.16 490.709 348.4 490.709 351.28C490.709 353.947 491.349 356.133 492.629 357.84C493.909 359.547 495.563 360.8 497.589 361.6ZM502.149 353.76C501.083 353.067 500.549 352.027 500.549 350.64C500.549 349.36 501.083 348.4 502.149 347.76C503.216 347.067 504.603 346.56 506.309 346.24C508.016 345.867 509.803 345.52 511.669 345.2C513.536 344.88 515.269 344.373 516.869 343.68V345.52C516.869 347.547 516.363 349.253 515.349 350.64C514.336 352.027 513.003 353.067 511.349 353.76C509.749 354.453 508.016 354.8 506.149 354.8C504.549 354.8 503.216 354.453 502.149 353.76ZM564.694 362H573.894V322H561.574L545.894 351.92V322H536.694V362H549.014L564.694 332.16V362ZM567.654 302H560.054C560.054 303.813 559.574 305.147 558.614 306C557.654 306.8 556.48 307.2 555.094 307.2C553.814 307.2 552.667 306.8 551.654 306C550.694 305.147 550.214 303.813 550.214 302H542.614C542.614 305.733 543.76 308.667 546.054 310.8C548.347 312.933 551.36 314 555.094 314C558.88 314 561.92 312.933 564.214 310.8C566.507 308.667 567.654 305.733 567.654 302ZM585.131 362H594.731V346.32H611.531V362H621.131V322H611.531V337.52H594.731V322H585.131V362ZM630.719 344.4H650.719V335.6H630.719V344.4ZM660.288 382H669.888V356.96C671.381 358.827 673.141 360.267 675.168 361.28C677.247 362.293 679.487 362.8 681.888 362.8C685.568 362.8 688.848 361.92 691.728 360.16C694.608 358.4 696.874 355.947 698.527 352.8C700.234 349.653 701.087 346.053 701.087 342C701.087 337.893 700.234 334.293 698.527 331.2C696.874 328.053 694.608 325.6 691.728 323.84C688.848 322.08 685.568 321.2 681.888 321.2C679.487 321.2 677.247 321.707 675.168 322.72C673.141 323.733 671.381 325.173 669.888 327.04V322H660.288V382ZM688.367 350.72C686.341 352.907 683.781 354 680.688 354C677.594 354 675.008 352.907 672.927 350.72C670.901 348.48 669.888 345.573 669.888 342C669.888 338.373 670.901 335.467 672.927 333.28C675.008 331.093 677.594 330 680.688 330C683.781 330 686.341 331.093 688.367 333.28C690.448 335.467 691.487 338.373 691.487 342C691.487 345.573 690.448 348.48 688.367 350.72ZM716.146 345.2H746.226C746.28 344.667 746.306 344.133 746.306 343.6C746.36 343.067 746.386 342.533 746.386 342C746.386 337.893 745.533 334.293 743.826 331.2C742.12 328.053 739.773 325.6 736.786 323.84C733.8 322.08 730.386 321.2 726.546 321.2C722.76 321.2 719.346 322.08 716.306 323.84C713.32 325.6 710.973 328.053 709.266 331.2C707.56 334.293 706.706 337.893 706.706 342C706.706 346.053 707.56 349.653 709.266 352.8C710.973 355.947 713.32 358.4 716.306 360.16C719.346 361.92 722.76 362.8 726.546 362.8C731.293 362.8 735.32 361.707 738.626 359.52C741.933 357.333 744.173 354.16 745.346 350H734.946C734.306 351.387 733.346 352.48 732.066 353.28C730.786 354.027 729.08 354.4 726.946 354.4C723.96 354.4 721.533 353.6 719.666 352C717.853 350.4 716.68 348.133 716.146 345.2ZM719.666 331.92C721.426 330.373 723.72 329.6 726.546 329.6C729.373 329.6 731.666 330.373 733.426 331.92C735.186 333.413 736.333 335.573 736.866 338.4H716.226C716.76 335.573 717.906 333.413 719.666 331.92ZM765.219 353.2V322H754.819V362H810.019V322H800.419V353.2H787.219V322H777.619V353.2H765.219ZM827.865 345.2H857.945C857.998 344.667 858.025 344.133 858.025 343.6C858.078 343.067 858.105 342.533 858.105 342C858.105 337.893 857.252 334.293 855.545 331.2C853.838 328.053 851.492 325.6 848.505 323.84C845.518 322.08 842.105 321.2 838.265 321.2C834.478 321.2 831.065 322.08 828.025 323.84C825.038 325.6 822.692 328.053 820.985 331.2C819.278 334.293 818.425 337.893 818.425 342C818.425 346.053 819.278 349.653 820.985 352.8C822.692 355.947 825.038 358.4 828.025 360.16C831.065 361.92 834.478 362.8 838.265 362.8C843.012 362.8 847.038 361.707 850.345 359.52C853.652 357.333 855.892 354.16 857.065 350H846.665C846.025 351.387 845.065 352.48 843.785 353.28C842.505 354.027 840.798 354.4 838.665 354.4C835.678 354.4 833.252 353.6 831.385 352C829.572 350.4 828.398 348.133 827.865 345.2ZM831.385 331.92C833.145 330.373 835.438 329.6 838.265 329.6C841.092 329.6 843.385 330.373 845.145 331.92C846.905 333.413 848.052 335.573 848.585 338.4H827.945C828.478 335.573 829.625 333.413 831.385 331.92ZM866.538 362H876.138V346.32H892.938V362H902.537V322H892.938V337.52H876.138V322H866.538V362ZM941.725 362H950.925V322H938.605L922.925 351.92V322H913.725V362H926.045L941.725 332.16V362ZM963.701 327.28C962.315 329.093 961.621 331.52 961.621 334.56C961.621 336.907 962.101 338.933 963.061 340.64C964.075 342.293 965.381 343.653 966.981 344.72C968.635 345.733 970.421 346.427 972.341 346.8L958.581 362H969.701L984.741 344.64V362H994.341V322H976.821C974.155 322 971.648 322.427 969.301 323.28C967.008 324.08 965.141 325.413 963.701 327.28ZM984.741 340.4H978.341C976.155 340.4 974.421 339.947 973.141 339.04C971.861 338.08 971.221 336.613 971.221 334.64C971.221 332.933 971.835 331.6 973.061 330.64C974.341 329.68 976.101 329.2 978.341 329.2H984.741V340.4ZM403.033 461.16C406.126 462.92 409.619 463.8 413.513 463.8C417.406 463.8 420.873 462.92 423.913 461.16C427.006 459.4 429.433 456.947 431.193 453.8C433.006 450.653 433.912 447.053 433.912 443C433.912 438.893 433.006 435.293 431.193 432.2C429.433 429.053 427.006 426.6 423.913 424.84C420.873 423.08 417.406 422.2 413.513 422.2C409.619 422.2 406.126 423.08 403.033 424.84C399.993 426.6 397.566 429.053 395.752 432.2C393.993 435.293 393.112 438.893 393.112 443C393.112 447.053 393.993 450.653 395.752 453.8C397.566 456.947 399.993 459.4 403.033 461.16ZM421.193 451.72C419.166 453.907 416.606 455 413.513 455C410.419 455 407.833 453.907 405.752 451.72C403.726 449.48 402.713 446.573 402.713 443C402.713 439.373 403.726 436.467 405.752 434.28C407.833 432.093 410.419 431 413.513 431C416.606 431 419.166 432.093 421.193 434.28C423.272 436.467 424.312 439.373 424.312 443C424.312 446.573 423.272 449.48 421.193 451.72ZM489.716 425.64C486.943 423.88 483.93 423 480.676 423C477.37 423 474.623 423.587 472.436 424.76C470.25 425.933 468.596 427.427 467.476 429.24V427.96C467.476 424.813 467.77 422.387 468.356 420.68C468.996 418.973 470.063 417.72 471.556 416.92C473.05 416.12 475.103 415.533 477.716 415.16L486.036 413.96C489.076 413.533 491.476 412.973 493.236 412.28C495.05 411.533 496.356 410.44 497.156 409C497.956 407.56 498.356 405.56 498.356 403H488.756C488.756 403.533 488.596 404.04 488.276 404.52C488.01 404.947 487.343 405.24 486.276 405.4L476.836 406.76C472.836 407.347 469.45 408.333 466.676 409.72C463.956 411.107 461.876 413.293 460.436 416.28C459.05 419.213 458.356 423.347 458.356 428.68V443.56C458.356 447.507 459.263 451.027 461.076 454.12C462.89 457.16 465.316 459.533 468.356 461.24C471.45 462.947 474.916 463.8 478.756 463.8C482.65 463.8 486.116 462.947 489.156 461.24C492.25 459.48 494.676 457.08 496.436 454.04C498.25 450.947 499.156 447.4 499.156 443.4C499.156 439.347 498.276 435.8 496.516 432.76C494.81 429.72 492.543 427.347 489.716 425.64ZM486.516 451.72C484.543 453.907 481.956 455 478.756 455C475.61 455 473.023 453.933 470.996 451.8C468.97 449.613 467.956 446.813 467.956 443.4C467.956 439.987 468.97 437.213 470.996 435.08C473.023 432.893 475.61 431.8 478.756 431.8C482.01 431.8 484.623 432.92 486.596 435.16C488.57 437.347 489.556 440.093 489.556 443.4C489.556 446.76 488.543 449.533 486.516 451.72ZM535.553 463H544.753V423H532.433L516.753 452.92V423H507.553V463H519.873L535.553 433.16V463ZM573.031 439.08H566.631V446.28H573.031C575.004 446.28 576.444 446.733 577.351 447.64C578.257 448.493 578.711 449.667 578.711 451.16C578.711 452.493 578.177 453.693 577.111 454.76C576.044 455.773 574.097 456.28 571.271 456.28C568.284 456.28 566.124 455.56 564.791 454.12C563.457 452.627 562.791 450.653 562.791 448.2H553.191C553.191 453.16 554.737 457 557.831 459.72C560.924 462.44 565.377 463.8 571.191 463.8C576.897 463.8 581.164 462.68 583.991 460.44C586.871 458.2 588.311 455.213 588.311 451.48C588.311 447.267 586.231 444.333 582.071 442.68C583.884 441.827 585.217 440.573 586.071 438.92C586.924 437.267 587.351 435.587 587.351 433.88C587.351 431.853 586.791 429.96 585.671 428.2C584.551 426.387 582.791 424.947 580.391 423.88C578.044 422.76 574.977 422.2 571.191 422.2C567.244 422.2 563.964 422.92 561.351 424.36C558.791 425.747 556.871 427.587 555.591 429.88C554.311 432.173 553.671 434.68 553.671 437.4H563.271C563.271 432.333 565.911 429.8 571.191 429.8C573.697 429.8 575.484 430.28 576.551 431.24C577.617 432.147 578.151 433.293 578.151 434.68C578.151 436.013 577.751 437.08 576.951 437.88C576.204 438.68 574.897 439.08 573.031 439.08ZM596.694 463H606.294V447.32H623.094V463H632.694V423H623.094V438.52H606.294V423H596.694V463ZM650.521 446.2H680.601C680.655 445.667 680.681 445.133 680.681 444.6C680.735 444.067 680.761 443.533 680.761 443C680.761 438.893 679.908 435.293 678.201 432.2C676.495 429.053 674.148 426.6 671.161 424.84C668.175 423.08 664.761 422.2 660.921 422.2C657.135 422.2 653.721 423.08 650.681 424.84C647.695 426.6 645.348 429.053 643.641 432.2C641.935 435.293 641.081 438.893 641.081 443C641.081 447.053 641.935 450.653 643.641 453.8C645.348 456.947 647.695 459.4 650.681 461.16C653.721 462.92 657.135 463.8 660.921 463.8C665.668 463.8 669.695 462.707 673.001 460.52C676.308 458.333 678.548 455.16 679.721 451H669.321C668.681 452.387 667.721 453.48 666.441 454.28C665.161 455.027 663.455 455.4 661.321 455.4C658.335 455.4 655.908 454.6 654.041 453C652.228 451.4 651.055 449.133 650.521 446.2ZM654.041 432.92C655.801 431.373 658.095 430.6 660.921 430.6C663.748 430.6 666.041 431.373 667.801 432.92C669.561 434.413 670.708 436.573 671.241 439.4H650.601C651.135 436.573 652.281 434.413 654.041 432.92ZM713.034 433C714.954 434.28 716.074 436.253 716.394 438.92H726.474C726.154 435.56 725.087 432.627 723.274 430.12C721.46 427.613 719.114 425.667 716.234 424.28C713.354 422.893 710.1 422.2 706.474 422.2C702.634 422.2 699.194 423.08 696.154 424.84C693.167 426.6 690.794 429.053 689.034 432.2C687.274 435.293 686.394 438.893 686.394 443C686.394 447.053 687.274 450.653 689.034 453.8C690.794 456.947 693.167 459.4 696.154 461.16C699.194 462.92 702.634 463.8 706.474 463.8C710.207 463.8 713.54 463.08 716.474 461.64C719.46 460.147 721.834 458.093 723.594 455.48C725.407 452.813 726.394 449.72 726.554 446.2H716.634C716.26 449.133 715.087 451.347 713.114 452.84C711.194 454.28 708.98 455 706.474 455C703.487 455 700.98 453.907 698.954 451.72C696.98 449.48 695.994 446.573 695.994 443C695.994 439.373 696.98 436.467 698.954 434.28C700.98 432.093 703.487 431 706.474 431C708.98 431 711.167 431.667 713.034 433ZM739.855 462.6C741.935 463.4 744.122 463.8 746.415 463.8C749.188 463.8 751.668 463.267 753.855 462.2C756.095 461.133 757.855 459.427 759.135 457.08V463H768.575V435.16C768.575 432.013 767.775 429.507 766.175 427.64C764.575 425.72 762.468 424.333 759.855 423.48C757.295 422.627 754.548 422.2 751.615 422.2C748.628 422.2 745.802 422.68 743.135 423.64C740.468 424.6 738.308 426.147 736.655 428.28C735.002 430.36 734.175 433.133 734.175 436.6H744.175C744.175 434.36 744.868 432.68 746.255 431.56C747.642 430.387 749.428 429.8 751.615 429.8C753.695 429.8 755.428 430.253 756.815 431.16C758.255 432.013 758.975 433.213 758.975 434.76C758.975 436.093 758.335 437.08 757.055 437.72C755.828 438.307 754.228 438.76 752.255 439.08C750.282 439.347 748.175 439.667 745.935 440.04C743.748 440.413 741.668 441.027 739.695 441.88C737.722 442.68 736.095 443.907 734.815 445.56C733.588 447.16 732.975 449.4 732.975 452.28C732.975 454.947 733.615 457.133 734.895 458.84C736.175 460.547 737.828 461.8 739.855 462.6ZM744.415 454.76C743.348 454.067 742.815 453.027 742.815 451.64C742.815 450.36 743.348 449.4 744.415 448.76C745.482 448.067 746.868 447.56 748.575 447.24C750.282 446.867 752.068 446.52 753.935 446.2C755.802 445.88 757.535 445.373 759.135 444.68V446.52C759.135 448.547 758.628 450.253 757.615 451.64C756.602 453.027 755.268 454.067 753.615 454.76C752.015 455.453 750.282 455.8 748.415 455.8C746.815 455.8 745.482 455.453 744.415 454.76Z" fill="white"/>
</svg>
