<svg width="1010" height="578" viewBox="0 0 1010 578" fill="none" xmlns="http://www.w3.org/2000/svg">
<circle cx="721" cy="289" r="289" fill="#F44B11"/>
<path d="M29.25 267.25H38.25V270.25C38.25 276.75 36.75 281.625 33.75 284.875C30.75 288.125 26.625 289.75 21.375 289.75C16.125 289.75 12 288.125 9 284.875C6 281.625 4.5 276.75 4.5 270.25V251.5C4.5 244.95 6 240.075 9 236.875C12 233.625 16.125 232 21.375 232C26.625 232 30.75 233.625 33.75 236.875C36.75 240.075 38.25 244.95 38.25 251.5V253.75H29.25V251.5C29.25 247.25 28.55 244.325 27.15 242.725C25.8 241.075 23.875 240.25 21.375 240.25C18.925 240.25 17 241.075 15.6 242.725C14.2 244.325 13.5 247.25 13.5 251.5V270.25C13.5 274.5 14.2 277.45 15.6 279.1C17 280.7 18.925 281.5 21.375 281.5C23.825 281.5 25.75 280.7 27.15 279.1C28.55 277.45 29.25 274.5 29.25 270.25V267.25ZM64.5234 289.75C60.8734 289.75 57.5984 288.925 54.6984 287.275C51.8484 285.625 49.5734 283.325 47.8734 280.375C46.2234 277.425 45.3984 274.05 45.3984 270.25C45.3984 266.4 46.2234 263.025 47.8734 260.125C49.5734 257.175 51.8484 254.875 54.6984 253.225C57.5984 251.575 60.8734 250.75 64.5234 250.75C68.1734 250.75 71.4234 251.575 74.2734 253.225C77.1734 254.875 79.4484 257.175 81.0984 260.125C82.7984 263.025 83.6484 266.4 83.6484 270.25C83.6484 274.05 82.7984 277.425 81.0984 280.375C79.4484 283.325 77.1734 285.625 74.2734 287.275C71.4234 288.925 68.1734 289.75 64.5234 289.75ZM64.5234 281.5C67.4234 281.5 69.8234 280.475 71.7234 278.425C73.6734 276.325 74.6484 273.6 74.6484 270.25C74.6484 266.85 73.6734 264.125 71.7234 262.075C69.8234 260.025 67.4234 259 64.5234 259C61.6234 259 59.1984 260.025 57.2484 262.075C55.3484 264.125 54.3984 266.85 54.3984 270.25C54.3984 273.6 55.3484 276.325 57.2484 278.425C59.1984 280.475 61.6234 281.5 64.5234 281.5ZM101.504 266.575H107.504C109.254 266.575 110.479 266.2 111.179 265.45C111.929 264.7 112.304 263.7 112.304 262.45C112.304 261.15 111.804 260.075 110.804 259.225C109.804 258.325 108.129 257.875 105.779 257.875C100.829 257.875 98.3543 260.25 98.3543 265H89.3543C89.3543 262.45 89.9543 260.1 91.1543 257.95C92.3543 255.8 94.1543 254.075 96.5543 252.775C99.0043 251.425 102.079 250.75 105.779 250.75C109.329 250.75 112.204 251.275 114.404 252.325C116.654 253.325 118.304 254.675 119.354 256.375C120.404 258.025 120.929 259.8 120.929 261.7C120.929 263.3 120.529 264.875 119.729 266.425C118.929 267.975 117.679 269.15 115.979 269.95C119.879 271.5 121.829 274.25 121.829 278.2C121.829 281.7 120.479 284.5 117.779 286.6C115.129 288.7 111.129 289.75 105.779 289.75C100.329 289.75 96.1543 288.475 93.2543 285.925C90.3543 283.375 88.9043 279.775 88.9043 275.125H97.9043C97.9043 277.425 98.5293 279.275 99.7793 280.675C101.029 282.025 103.054 282.7 105.854 282.7C108.504 282.7 110.329 282.225 111.329 281.275C112.329 280.275 112.829 279.15 112.829 277.9C112.829 276.5 112.404 275.4 111.554 274.6C110.704 273.75 109.354 273.325 107.504 273.325H101.504V266.575ZM126.671 280.75H130.421C130.771 280 131.121 279.025 131.471 277.825C131.821 276.575 132.146 274.9 132.446 272.8C132.746 270.7 132.971 267.95 133.121 264.55C133.321 261.1 133.421 256.75 133.421 251.5H163.271V280.75H168.521V299.125H160.271V289H134.921V299.125H126.671V280.75ZM140.846 273.475C140.596 275.175 140.346 276.625 140.096 277.825C139.846 278.975 139.571 279.95 139.271 280.75H154.271V259.75H141.671C141.621 262.9 141.521 265.6 141.371 267.85C141.221 270.1 141.046 271.975 140.846 273.475ZM186.703 289.75C184.553 289.75 182.503 289.375 180.553 288.625C178.653 287.875 177.103 286.7 175.903 285.1C174.703 283.5 174.103 281.45 174.103 278.95C174.103 276.25 174.678 274.15 175.828 272.65C177.028 271.1 178.553 269.95 180.403 269.2C182.253 268.4 184.203 267.825 186.253 267.475C188.353 267.125 190.328 266.825 192.178 266.575C194.028 266.275 195.528 265.85 196.678 265.3C197.878 264.7 198.478 263.775 198.478 262.525C198.478 261.075 197.803 259.95 196.453 259.15C195.153 258.3 193.528 257.875 191.578 257.875C189.528 257.875 187.853 258.425 186.553 259.525C185.253 260.575 184.603 262.15 184.603 264.25H175.228C175.228 261 176.003 258.4 177.553 256.45C179.103 254.45 181.128 253 183.628 252.1C186.128 251.2 188.778 250.75 191.578 250.75C194.328 250.75 196.903 251.15 199.303 251.95C201.753 252.75 203.728 254.05 205.228 255.85C206.728 257.6 207.478 259.95 207.478 262.9V289H198.628V283.45C197.428 285.65 195.778 287.25 193.678 288.25C191.628 289.25 189.303 289.75 186.703 289.75ZM183.328 278.35C183.328 279.65 183.828 280.625 184.828 281.275C185.828 281.925 187.078 282.25 188.578 282.25C190.328 282.25 191.953 281.925 193.453 281.275C195.003 280.625 196.253 279.65 197.203 278.35C198.153 277.05 198.628 275.45 198.628 273.55V271.825C197.128 272.475 195.503 272.95 193.753 273.25C192.003 273.55 190.328 273.875 188.728 274.225C187.128 274.525 185.828 275 184.828 275.65C183.828 276.25 183.328 277.15 183.328 278.35ZM251.638 273.25H223.438C223.938 276 225.038 278.125 226.738 279.625C228.488 281.125 230.763 281.875 233.563 281.875C235.563 281.875 237.163 281.525 238.363 280.825C239.563 280.075 240.463 279.05 241.063 277.75H250.813C249.713 281.65 247.613 284.625 244.513 286.675C241.413 288.725 237.638 289.75 233.188 289.75C229.638 289.75 226.438 288.925 223.588 287.275C220.788 285.625 218.588 283.325 216.988 280.375C215.388 277.425 214.588 274.05 214.588 270.25C214.588 266.4 215.388 263.025 216.988 260.125C218.588 257.175 220.788 254.875 223.588 253.225C226.438 251.575 229.638 250.75 233.188 250.75C236.788 250.75 239.988 251.575 242.788 253.225C245.588 254.875 247.788 257.175 249.388 260.125C250.988 263.025 251.788 266.4 251.788 270.25C251.788 270.75 251.763 271.25 251.713 271.75C251.713 272.25 251.688 272.75 251.638 273.25ZM233.188 258.625C230.538 258.625 228.388 259.35 226.738 260.8C225.088 262.2 224.013 264.225 223.513 266.875H242.863C242.363 264.225 241.288 262.2 239.638 260.8C237.988 259.35 235.838 258.625 233.188 258.625ZM286.993 289H276.943L267.943 258.175V289H259.693V251.5H274.918L282.493 280.15L289.993 251.5H304.993V289H295.993V257.95L286.993 289ZM349.289 289.75C345.639 289.75 342.364 288.925 339.464 287.275C336.614 285.625 334.339 283.325 332.639 280.375C330.989 277.425 330.164 274.05 330.164 270.25C330.164 266.4 330.989 263.025 332.639 260.125C334.339 257.175 336.614 254.875 339.464 253.225C342.364 251.575 345.639 250.75 349.289 250.75C352.939 250.75 356.189 251.575 359.039 253.225C361.939 254.875 364.214 257.175 365.864 260.125C367.564 263.025 368.414 266.4 368.414 270.25C368.414 274.05 367.564 277.425 365.864 280.375C364.214 283.325 361.939 285.625 359.039 287.275C356.189 288.925 352.939 289.75 349.289 289.75ZM349.289 281.5C352.189 281.5 354.589 280.475 356.489 278.425C358.439 276.325 359.414 273.6 359.414 270.25C359.414 266.85 358.439 264.125 356.489 262.075C354.589 260.025 352.189 259 349.289 259C346.389 259 343.964 260.025 342.014 262.075C340.114 264.125 339.164 266.85 339.164 270.25C339.164 273.6 340.114 276.325 342.014 278.425C343.964 280.475 346.389 281.5 349.289 281.5ZM385.295 289H376.295V251.5H385.295V266.05H401.045V251.5H410.045V289H401.045V274.3H385.295V289ZM451.433 289H442.433V259.75H431.108C431.008 267.4 430.683 272.975 430.133 276.475C429.633 279.775 428.883 282.35 427.883 284.2C426.933 286 425.683 287.25 424.133 287.95C422.633 288.65 420.758 289 418.508 289H417.158V280.75H417.608C419.508 280.75 420.808 279.7 421.508 277.6C421.808 276.75 422.058 275.425 422.258 273.625C422.458 271.825 422.608 269.175 422.708 265.675C422.808 262.125 422.858 257.4 422.858 251.5H451.433V289ZM472.64 289.75C470.49 289.75 468.44 289.375 466.49 288.625C464.59 287.875 463.04 286.7 461.84 285.1C460.64 283.5 460.04 281.45 460.04 278.95C460.04 276.25 460.615 274.15 461.765 272.65C462.965 271.1 464.49 269.95 466.34 269.2C468.19 268.4 470.14 267.825 472.19 267.475C474.29 267.125 476.265 266.825 478.115 266.575C479.965 266.275 481.465 265.85 482.615 265.3C483.815 264.7 484.415 263.775 484.415 262.525C484.415 261.075 483.74 259.95 482.39 259.15C481.09 258.3 479.465 257.875 477.515 257.875C475.465 257.875 473.79 258.425 472.49 259.525C471.19 260.575 470.54 262.15 470.54 264.25H461.165C461.165 261 461.94 258.4 463.49 256.45C465.04 254.45 467.065 253 469.565 252.1C472.065 251.2 474.715 250.75 477.515 250.75C480.265 250.75 482.84 251.15 485.24 251.95C487.69 252.75 489.665 254.05 491.165 255.85C492.665 257.6 493.415 259.95 493.415 262.9V289H484.565V283.45C483.365 285.65 481.715 287.25 479.615 288.25C477.565 289.25 475.24 289.75 472.64 289.75ZM469.265 278.35C469.265 279.65 469.765 280.625 470.765 281.275C471.765 281.925 473.015 282.25 474.515 282.25C476.265 282.25 477.89 281.925 479.39 281.275C480.94 280.625 482.19 279.65 483.14 278.35C484.09 277.05 484.565 275.45 484.565 273.55V271.825C483.065 272.475 481.44 272.95 479.69 273.25C477.94 273.55 476.265 273.875 474.665 274.225C473.065 274.525 471.765 275 470.765 275.65C469.765 276.25 469.265 277.15 469.265 278.35ZM538.025 289H529.4V261.025L514.7 289H503.15V251.5H511.775V279.55L526.475 251.5H538.025V289ZM525.05 232.75H532.175C532.175 236.25 531.1 239 528.95 241C526.8 243 523.95 244 520.4 244C516.9 244 514.075 243 511.925 241C509.775 239 508.7 236.25 508.7 232.75H515.825C515.825 234.45 516.275 235.7 517.175 236.5C518.125 237.25 519.2 237.625 520.4 237.625C521.7 237.625 522.8 237.25 523.7 236.5C524.6 235.7 525.05 234.45 525.05 232.75ZM557.561 289H548.561V251.5H557.561V266.05H573.311V251.5H582.311V289H573.311V274.3H557.561V289ZM610.049 272.5H591.299V264.25H610.049V272.5ZM628.02 307.75H619.02V251.5H628.02V256.225C629.42 254.475 631.07 253.125 632.97 252.175C634.92 251.225 637.02 250.75 639.27 250.75C642.72 250.75 645.795 251.575 648.495 253.225C651.195 254.875 653.32 257.175 654.87 260.125C656.47 263.025 657.27 266.4 657.27 270.25C657.27 274.05 656.47 277.425 654.87 280.375C653.32 283.325 651.195 285.625 648.495 287.275C645.795 288.925 642.72 289.75 639.27 289.75C637.02 289.75 634.92 289.275 632.97 288.325C631.07 287.375 629.42 286.025 628.02 284.275V307.75ZM638.145 281.5C641.045 281.5 643.445 280.475 645.345 278.425C647.295 276.325 648.27 273.6 648.27 270.25C648.27 266.85 647.295 264.125 645.345 262.075C643.445 260.025 641.045 259 638.145 259C635.245 259 632.82 260.025 630.87 262.075C628.97 264.125 628.02 266.85 628.02 270.25C628.02 273.6 628.97 276.325 630.87 278.425C632.82 280.475 635.245 281.5 638.145 281.5ZM699.587 273.25H671.387C671.887 276 672.987 278.125 674.687 279.625C676.437 281.125 678.712 281.875 681.512 281.875C683.512 281.875 685.112 281.525 686.312 280.825C687.512 280.075 688.412 279.05 689.012 277.75H698.762C697.662 281.65 695.562 284.625 692.462 286.675C689.362 288.725 685.587 289.75 681.137 289.75C677.587 289.75 674.387 288.925 671.537 287.275C668.737 285.625 666.537 283.325 664.937 280.375C663.337 277.425 662.537 274.05 662.537 270.25C662.537 266.4 663.337 263.025 664.937 260.125C666.537 257.175 668.737 254.875 671.537 253.225C674.387 251.575 677.587 250.75 681.137 250.75C684.737 250.75 687.937 251.575 690.737 253.225C693.537 254.875 695.737 257.175 697.337 260.125C698.937 263.025 699.737 266.4 699.737 270.25C699.737 270.75 699.712 271.25 699.662 271.75C699.662 272.25 699.637 272.75 699.587 273.25ZM681.137 258.625C678.487 258.625 676.337 259.35 674.687 260.8C673.037 262.2 671.962 264.225 671.462 266.875H690.812C690.312 264.225 689.237 262.2 687.587 260.8C685.937 259.35 683.787 258.625 681.137 258.625ZM717.393 251.5V280.75H729.018V251.5H738.018V280.75H750.393V251.5H759.393V289H707.643V251.5H717.393ZM804.323 273.25H776.123C776.623 276 777.723 278.125 779.423 279.625C781.173 281.125 783.448 281.875 786.248 281.875C788.248 281.875 789.848 281.525 791.048 280.825C792.248 280.075 793.148 279.05 793.748 277.75H803.498C802.398 281.65 800.298 284.625 797.198 286.675C794.098 288.725 790.323 289.75 785.873 289.75C782.323 289.75 779.123 288.925 776.273 287.275C773.473 285.625 771.273 283.325 769.673 280.375C768.073 277.425 767.273 274.05 767.273 270.25C767.273 266.4 768.073 263.025 769.673 260.125C771.273 257.175 773.473 254.875 776.273 253.225C779.123 251.575 782.323 250.75 785.873 250.75C789.473 250.75 792.673 251.575 795.473 253.225C798.273 254.875 800.473 257.175 802.073 260.125C803.673 263.025 804.473 266.4 804.473 270.25C804.473 270.75 804.448 271.25 804.398 271.75C804.398 272.25 804.373 272.75 804.323 273.25ZM785.873 258.625C783.223 258.625 781.073 259.35 779.423 260.8C777.773 262.2 776.698 264.225 776.198 266.875H795.548C795.048 264.225 793.973 262.2 792.323 260.8C790.673 259.35 788.523 258.625 785.873 258.625ZM821.379 289H812.379V251.5H821.379V266.05H837.129V251.5H846.129V289H837.129V274.3H821.379V289ZM891.492 289H882.867V261.025L868.167 289H856.617V251.5H865.242V279.55L879.942 251.5H891.492V289ZM901.52 263.275C901.52 260.425 902.17 258.15 903.47 256.45C904.82 254.7 906.57 253.45 908.72 252.7C910.92 251.9 913.27 251.5 915.77 251.5H932.195V289H923.195V272.725L909.095 289H898.67L911.57 274.75C909.77 274.4 908.095 273.75 906.545 272.8C905.045 271.8 903.82 270.525 902.87 268.975C901.97 267.375 901.52 265.475 901.52 263.275ZM917.195 268.75H923.195V258.25H917.195C915.095 258.25 913.445 258.7 912.245 259.6C911.095 260.5 910.52 261.75 910.52 263.35C910.52 265.2 911.12 266.575 912.32 267.475C913.52 268.325 915.145 268.75 917.195 268.75ZM1.5 375.75H5.25C5.6 375 5.95 374.025 6.3 372.825C6.65 371.575 6.975 369.9 7.275 367.8C7.575 365.7 7.8 362.95 7.95 359.55C8.15 356.1 8.25 351.75 8.25 346.5H38.1V375.75H43.35V394.125H35.1V384H9.75V394.125H1.5V375.75ZM15.675 368.475C15.425 370.175 15.175 371.625 14.925 372.825C14.675 373.975 14.4 374.95 14.1 375.75H29.1V354.75H16.5C16.45 357.9 16.35 360.6 16.2 362.85C16.05 365.1 15.875 366.975 15.675 368.475ZM82.0729 384H73.0729V354.75H61.7479C61.6479 362.4 61.3229 367.975 60.7729 371.475C60.2729 374.775 59.5229 377.35 58.5229 379.2C57.5729 381 56.3229 382.25 54.7729 382.95C53.2729 383.65 51.3979 384 49.1479 384H47.7979V375.75H48.2479C50.1479 375.75 51.4479 374.7 52.1479 372.6C52.4479 371.75 52.6979 370.425 52.8979 368.625C53.0979 366.825 53.2479 364.175 53.3479 360.675C53.4479 357.125 53.4979 352.4 53.4979 346.5H82.0729V384ZM92.0473 358.275C92.0473 355.425 92.6973 353.15 93.9973 351.45C95.3473 349.7 97.0973 348.45 99.2473 347.7C101.447 346.9 103.797 346.5 106.297 346.5H122.722V384H113.722V367.725L99.6223 384H89.1973L102.097 369.75C100.297 369.4 98.6223 368.75 97.0723 367.8C95.5723 366.8 94.3473 365.525 93.3973 363.975C92.4973 362.375 92.0473 360.475 92.0473 358.275ZM107.722 363.75H113.722V353.25H107.722C105.622 353.25 103.972 353.7 102.772 354.6C101.622 355.5 101.047 356.75 101.047 358.35C101.047 360.2 101.647 361.575 102.847 362.475C104.047 363.325 105.672 363.75 107.722 363.75ZM181.389 384H172.389V354.75H161.064C160.964 362.4 160.639 367.975 160.089 371.475C159.589 374.775 158.839 377.35 157.839 379.2C156.889 381 155.639 382.25 154.089 382.95C152.589 383.65 150.714 384 148.464 384H147.114V375.75H147.564C149.464 375.75 150.764 374.7 151.464 372.6C151.764 371.75 152.014 370.425 152.214 368.625C152.414 366.825 152.564 364.175 152.664 360.675C152.764 357.125 152.814 352.4 152.814 346.5H181.389V384ZM200.871 384H191.871V346.5H200.871V361.05H206.121C206.721 358 207.896 355.325 209.646 353.025C211.396 350.725 213.571 348.95 216.171 347.7C218.771 346.4 221.671 345.75 224.871 345.75C228.521 345.75 231.771 346.575 234.621 348.225C237.521 349.875 239.796 352.175 241.446 355.125C243.146 358.025 243.996 361.4 243.996 365.25C243.996 369.05 243.146 372.425 241.446 375.375C239.796 378.325 237.521 380.625 234.621 382.275C231.771 383.925 228.521 384.75 224.871 384.75C221.671 384.75 218.746 384.125 216.096 382.875C213.496 381.575 211.321 379.775 209.571 377.475C207.821 375.125 206.671 372.4 206.121 369.3H200.871V384ZM224.871 376.5C227.771 376.5 230.171 375.475 232.071 373.425C234.021 371.325 234.996 368.6 234.996 365.25C234.996 361.85 234.021 359.125 232.071 357.075C230.171 355.025 227.771 354 224.871 354C221.971 354 219.546 355.025 217.596 357.075C215.696 359.125 214.746 361.85 214.746 365.25C214.746 368.6 215.696 371.325 217.596 373.425C219.546 375.475 221.971 376.5 224.871 376.5ZM271.264 346.5C274.314 346.5 277.139 347.325 279.739 348.975C282.389 350.575 284.514 352.8 286.114 355.65C287.764 358.5 288.589 361.825 288.589 365.625C288.589 369.375 287.739 372.7 286.039 375.6C284.389 378.45 282.114 380.7 279.214 382.35C276.364 383.95 273.114 384.75 269.464 384.75C265.864 384.75 262.614 383.95 259.714 382.35C256.864 380.75 254.589 378.525 252.889 375.675C251.189 372.775 250.339 369.475 250.339 365.775V351.825C250.339 346.825 250.989 342.95 252.289 340.2C253.639 337.4 255.589 335.35 258.139 334.05C260.739 332.75 263.914 331.825 267.664 331.275L276.514 330C277.514 329.85 278.139 329.575 278.389 329.175C278.689 328.725 278.839 328.25 278.839 327.75H287.839C287.839 330.15 287.464 332.025 286.714 333.375C285.964 334.725 284.739 335.75 283.039 336.45C281.389 337.1 279.139 337.625 276.289 338.025L268.489 339.15C266.039 339.5 264.114 340.05 262.714 340.8C261.314 341.55 260.314 342.725 259.714 344.325C259.164 345.925 258.889 348.2 258.889 351.15V352.35C259.939 350.65 261.489 349.25 263.539 348.15C265.589 347.05 268.164 346.5 271.264 346.5ZM269.464 376.5C272.464 376.5 274.889 375.475 276.739 373.425C278.639 371.375 279.589 368.775 279.589 365.625C279.589 362.525 278.664 359.95 276.814 357.9C274.964 355.8 272.514 354.75 269.464 354.75C266.514 354.75 264.089 355.775 262.189 357.825C260.289 359.825 259.339 362.425 259.339 365.625C259.339 368.825 260.289 371.45 262.189 373.5C264.089 375.5 266.514 376.5 269.464 376.5ZM312.961 384.75C309.311 384.75 306.036 383.925 303.136 382.275C300.286 380.625 298.011 378.325 296.311 375.375C294.661 372.425 293.836 369.05 293.836 365.25C293.836 361.4 294.661 358.025 296.311 355.125C298.011 352.175 300.286 349.875 303.136 348.225C306.036 346.575 309.311 345.75 312.961 345.75C316.611 345.75 319.861 346.575 322.711 348.225C325.611 349.875 327.886 352.175 329.536 355.125C331.236 358.025 332.086 361.4 332.086 365.25C332.086 369.05 331.236 372.425 329.536 375.375C327.886 378.325 325.611 380.625 322.711 382.275C319.861 383.925 316.611 384.75 312.961 384.75ZM312.961 376.5C315.861 376.5 318.261 375.475 320.161 373.425C322.111 371.325 323.086 368.6 323.086 365.25C323.086 361.85 322.111 359.125 320.161 357.075C318.261 355.025 315.861 354 312.961 354C310.061 354 307.636 355.025 305.686 357.075C303.786 359.125 302.836 361.85 302.836 365.25C302.836 368.6 303.786 371.325 305.686 373.425C307.636 375.475 310.061 376.5 312.961 376.5ZM348.967 384H339.967V346.5H365.167V354.75H348.967V384ZM387.668 384.75C384.018 384.75 380.743 383.925 377.843 382.275C374.993 380.625 372.718 378.325 371.018 375.375C369.368 372.425 368.543 369.05 368.543 365.25C368.543 361.4 369.368 358.025 371.018 355.125C372.718 352.175 374.993 349.875 377.843 348.225C380.743 346.575 384.018 345.75 387.668 345.75C391.318 345.75 394.568 346.575 397.418 348.225C400.318 349.875 402.593 352.175 404.243 355.125C405.943 358.025 406.793 361.4 406.793 365.25C406.793 369.05 405.943 372.425 404.243 375.375C402.593 378.325 400.318 380.625 397.418 382.275C394.568 383.925 391.318 384.75 387.668 384.75ZM387.668 376.5C390.568 376.5 392.968 375.475 394.868 373.425C396.818 371.325 397.793 368.6 397.793 365.25C397.793 361.85 396.818 359.125 394.868 357.075C392.968 355.025 390.568 354 387.668 354C384.768 354 382.343 355.025 380.393 357.075C378.493 359.125 377.543 361.85 377.543 365.25C377.543 368.6 378.493 371.325 380.393 373.425C382.343 375.475 384.768 376.5 387.668 376.5ZM450.634 346.5C453.684 346.5 456.509 347.325 459.109 348.975C461.759 350.575 463.884 352.8 465.484 355.65C467.134 358.5 467.959 361.825 467.959 365.625C467.959 369.375 467.109 372.7 465.409 375.6C463.759 378.45 461.484 380.7 458.584 382.35C455.734 383.95 452.484 384.75 448.834 384.75C445.234 384.75 441.984 383.95 439.084 382.35C436.234 380.75 433.959 378.525 432.259 375.675C430.559 372.775 429.709 369.475 429.709 365.775V351.825C429.709 346.825 430.359 342.95 431.659 340.2C433.009 337.4 434.959 335.35 437.509 334.05C440.109 332.75 443.284 331.825 447.034 331.275L455.884 330C456.884 329.85 457.509 329.575 457.759 329.175C458.059 328.725 458.209 328.25 458.209 327.75H467.209C467.209 330.15 466.834 332.025 466.084 333.375C465.334 334.725 464.109 335.75 462.409 336.45C460.759 337.1 458.509 337.625 455.659 338.025L447.859 339.15C445.409 339.5 443.484 340.05 442.084 340.8C440.684 341.55 439.684 342.725 439.084 344.325C438.534 345.925 438.259 348.2 438.259 351.15V352.35C439.309 350.65 440.859 349.25 442.909 348.15C444.959 347.05 447.534 346.5 450.634 346.5ZM448.834 376.5C451.834 376.5 454.259 375.475 456.109 373.425C458.009 371.375 458.959 368.775 458.959 365.625C458.959 362.525 458.034 359.95 456.184 357.9C454.334 355.8 451.884 354.75 448.834 354.75C445.884 354.75 443.459 355.775 441.559 357.825C439.659 359.825 438.709 362.425 438.709 365.625C438.709 368.825 439.659 371.45 441.559 373.5C443.459 375.5 445.884 376.5 448.834 376.5ZM510.706 384H502.081V356.025L487.381 384H475.831V346.5H484.456V374.55L499.156 346.5H510.706V384ZM531.216 361.575H537.216C538.966 361.575 540.191 361.2 540.891 360.45C541.641 359.7 542.016 358.7 542.016 357.45C542.016 356.15 541.516 355.075 540.516 354.225C539.516 353.325 537.841 352.875 535.491 352.875C530.541 352.875 528.066 355.25 528.066 360H519.066C519.066 357.45 519.666 355.1 520.866 352.95C522.066 350.8 523.866 349.075 526.266 347.775C528.716 346.425 531.791 345.75 535.491 345.75C539.041 345.75 541.916 346.275 544.116 347.325C546.366 348.325 548.016 349.675 549.066 351.375C550.116 353.025 550.641 354.8 550.641 356.7C550.641 358.3 550.241 359.875 549.441 361.425C548.641 362.975 547.391 364.15 545.691 364.95C549.591 366.5 551.541 369.25 551.541 373.2C551.541 376.7 550.191 379.5 547.491 381.6C544.841 383.7 540.841 384.75 535.491 384.75C530.041 384.75 525.866 383.475 522.966 380.925C520.066 378.375 518.616 374.775 518.616 370.125H527.616C527.616 372.425 528.241 374.275 529.491 375.675C530.741 377.025 532.766 377.7 535.566 377.7C538.216 377.7 540.041 377.225 541.041 376.275C542.041 375.275 542.541 374.15 542.541 372.9C542.541 371.5 542.116 370.4 541.266 369.6C540.416 368.75 539.066 368.325 537.216 368.325H531.216V361.575ZM568.4 384H559.4V346.5H568.4V361.05H584.15V346.5H593.15V384H584.15V369.3H568.4V384ZM638.064 368.25H609.864C610.364 371 611.464 373.125 613.164 374.625C614.914 376.125 617.189 376.875 619.989 376.875C621.989 376.875 623.589 376.525 624.789 375.825C625.989 375.075 626.889 374.05 627.489 372.75H637.239C636.139 376.65 634.039 379.625 630.939 381.675C627.839 383.725 624.064 384.75 619.614 384.75C616.064 384.75 612.864 383.925 610.014 382.275C607.214 380.625 605.014 378.325 603.414 375.375C601.814 372.425 601.014 369.05 601.014 365.25C601.014 361.4 601.814 358.025 603.414 355.125C605.014 352.175 607.214 349.875 610.014 348.225C612.864 346.575 616.064 345.75 619.614 345.75C623.214 345.75 626.414 346.575 629.214 348.225C632.014 349.875 634.214 352.175 635.814 355.125C637.414 358.025 638.214 361.4 638.214 365.25C638.214 365.75 638.189 366.25 638.139 366.75C638.139 367.25 638.114 367.75 638.064 368.25ZM619.614 353.625C616.964 353.625 614.814 354.35 613.164 355.8C611.514 357.2 610.439 359.225 609.939 361.875H629.289C628.789 359.225 627.714 357.2 626.064 355.8C624.414 354.35 622.264 353.625 619.614 353.625ZM671.619 361.425C671.319 358.925 670.269 357.075 668.469 355.875C666.719 354.625 664.669 354 662.319 354C659.519 354 657.169 355.025 655.269 357.075C653.419 359.125 652.494 361.85 652.494 365.25C652.494 368.6 653.419 371.325 655.269 373.425C657.169 375.475 659.519 376.5 662.319 376.5C664.669 376.5 666.744 375.825 668.544 374.475C670.394 373.075 671.494 371 671.844 368.25H681.144C680.994 371.55 680.069 374.45 678.369 376.95C676.719 379.4 674.494 381.325 671.694 382.725C668.944 384.075 665.819 384.75 662.319 384.75C658.719 384.75 655.494 383.925 652.644 382.275C649.844 380.625 647.619 378.325 645.969 375.375C644.319 372.425 643.494 369.05 643.494 365.25C643.494 361.4 644.319 358.025 645.969 355.125C647.619 352.175 649.844 349.875 652.644 348.225C655.494 346.575 658.719 345.75 662.319 345.75C665.719 345.75 668.769 346.4 671.469 347.7C674.169 349 676.369 350.825 678.069 353.175C679.769 355.525 680.769 358.275 681.069 361.425H671.619ZM699.764 384.75C697.614 384.75 695.564 384.375 693.614 383.625C691.714 382.875 690.164 381.7 688.964 380.1C687.764 378.5 687.164 376.45 687.164 373.95C687.164 371.25 687.739 369.15 688.889 367.65C690.089 366.1 691.614 364.95 693.464 364.2C695.314 363.4 697.264 362.825 699.314 362.475C701.414 362.125 703.389 361.825 705.239 361.575C707.089 361.275 708.589 360.85 709.739 360.3C710.939 359.7 711.539 358.775 711.539 357.525C711.539 356.075 710.864 354.95 709.514 354.15C708.214 353.3 706.589 352.875 704.639 352.875C702.589 352.875 700.914 353.425 699.614 354.525C698.314 355.575 697.664 357.15 697.664 359.25H688.289C688.289 356 689.064 353.4 690.614 351.45C692.164 349.45 694.189 348 696.689 347.1C699.189 346.2 701.839 345.75 704.639 345.75C707.389 345.75 709.964 346.15 712.364 346.95C714.814 347.75 716.789 349.05 718.289 350.85C719.789 352.6 720.539 354.95 720.539 357.9V384H711.689V378.45C710.489 380.65 708.839 382.25 706.739 383.25C704.689 384.25 702.364 384.75 699.764 384.75ZM696.389 373.35C696.389 374.65 696.889 375.625 697.889 376.275C698.889 376.925 700.139 377.25 701.639 377.25C703.389 377.25 705.014 376.925 706.514 376.275C708.064 375.625 709.314 374.65 710.264 373.35C711.214 372.05 711.689 370.45 711.689 368.55V366.825C710.189 367.475 708.564 367.95 706.814 368.25C705.064 368.55 703.389 368.875 701.789 369.225C700.189 369.525 698.889 370 697.889 370.65C696.889 371.25 696.389 372.15 696.389 373.35Z" fill="#1D1D1F"/>
<path fill-rule="evenodd" clip-rule="evenodd" d="M436 259C436.277 256.241 436.592 253.491 436.943 250.75H451.524V288.25H442.524V259H436ZM449.691 383.988C453.031 383.883 456.026 383.087 458.675 381.6C461.575 379.95 463.85 377.7 465.5 374.85C467.2 371.95 468.05 368.625 468.05 364.875C468.05 361.075 467.225 357.75 465.575 354.9C463.975 352.05 461.85 349.825 459.2 348.225C456.6 346.575 453.775 345.75 450.725 345.75C447.625 345.75 445.05 346.3 443 347.4C442.049 347.91 441.205 348.485 440.47 349.124C440.977 351.636 441.516 354.138 442.086 356.631C443.916 354.877 446.196 354 448.925 354C451.975 354 454.425 355.05 456.275 357.15C458.125 359.2 459.05 361.775 459.05 364.875C459.05 368.025 458.1 370.625 456.2 372.675C454.35 374.725 451.925 375.75 448.925 375.75C448.281 375.75 447.663 375.702 447.07 375.607C447.904 378.414 448.778 381.208 449.691 383.988ZM439.332 343.187C438.734 339.889 438.19 336.576 437.7 333.25C440.282 331.976 443.423 331.068 447.125 330.525L455.975 329.25C456.975 329.1 457.6 328.825 457.85 328.425C458.15 327.975 458.3 327.5 458.3 327H467.3C467.3 329.4 466.925 331.275 466.175 332.625C465.425 333.975 464.2 335 462.5 335.7C460.85 336.35 458.6 336.875 455.75 337.275L447.95 338.4C445.5 338.75 443.575 339.3 442.175 340.05C440.89 340.738 439.943 341.784 439.332 343.187ZM466.581 287.875C468.531 288.625 470.581 289 472.731 289C475.331 289 477.656 288.5 479.706 287.5C481.806 286.5 483.456 284.9 484.656 282.7V288.25H493.506V262.15C493.506 259.2 492.756 256.85 491.256 255.1C489.756 253.3 487.781 252 485.331 251.2C482.931 250.4 480.356 250 477.606 250C474.806 250 472.156 250.45 469.656 251.35C467.156 252.25 465.131 253.7 463.581 255.7C462.031 257.65 461.256 260.25 461.256 263.5H470.631C470.631 261.4 471.281 259.825 472.581 258.775C473.881 257.675 475.556 257.125 477.606 257.125C479.556 257.125 481.181 257.55 482.481 258.4C483.831 259.2 484.506 260.325 484.506 261.775C484.506 263.025 483.906 263.95 482.706 264.55C481.556 265.1 480.056 265.525 478.206 265.825C476.356 266.075 474.381 266.375 472.281 266.725C470.231 267.075 468.281 267.65 466.431 268.45C464.581 269.2 463.056 270.35 461.856 271.9C460.706 273.4 460.131 275.5 460.131 278.2C460.131 280.7 460.731 282.75 461.931 284.35C463.131 285.95 464.681 287.125 466.581 287.875ZM470.856 280.525C469.856 279.875 469.356 278.9 469.356 277.6C469.356 276.4 469.856 275.5 470.856 274.9C471.856 274.25 473.156 273.775 474.756 273.475C476.356 273.125 478.031 272.8 479.781 272.5C481.531 272.2 483.156 271.725 484.656 271.075V272.8C484.656 274.7 484.181 276.3 483.231 277.6C482.281 278.9 481.031 279.875 479.481 280.525C477.981 281.175 476.356 281.5 474.606 281.5C473.106 281.5 471.856 281.175 470.856 280.525ZM529.491 288.25H538.116V250.75H526.566L511.866 278.8V250.75H503.241V288.25H514.791L529.491 260.275V288.25ZM532.266 232H525.141C525.141 233.7 524.691 234.95 523.791 235.75C522.891 236.5 521.791 236.875 520.491 236.875C519.291 236.875 518.216 236.5 517.266 235.75C516.366 234.95 515.916 233.7 515.916 232H508.791C508.791 235.5 509.866 238.25 512.016 240.25C514.166 242.25 516.991 243.25 520.491 243.25C524.041 243.25 526.891 242.25 529.041 240.25C531.191 238.25 532.266 235.5 532.266 232ZM548.651 288.25H557.651V273.55H573.401V288.25H582.401V250.75H573.401V265.3H557.651V250.75H548.651V288.25ZM591.389 271.75H610.139V263.5H591.389V271.75ZM619.11 307H628.11V283.525C629.51 285.275 631.16 286.625 633.06 287.575C635.01 288.525 637.11 289 639.36 289C642.81 289 645.885 288.175 648.585 286.525C651.285 284.875 653.41 282.575 654.96 279.625C656.56 276.675 657.36 273.3 657.36 269.5C657.36 265.65 656.56 262.275 654.96 259.375C653.41 256.425 651.285 254.125 648.585 252.475C645.885 250.825 642.81 250 639.36 250C637.11 250 635.01 250.475 633.06 251.425C631.16 252.375 629.51 253.725 628.11 255.475V250.75H619.11V307ZM645.435 277.675C643.535 279.725 641.135 280.75 638.235 280.75C635.335 280.75 632.91 279.725 630.96 277.675C629.06 275.575 628.11 272.85 628.11 269.5C628.11 266.1 629.06 263.375 630.96 261.325C632.91 259.275 635.335 258.25 638.235 258.25C641.135 258.25 643.535 259.275 645.435 261.325C647.385 263.375 648.36 266.1 648.36 269.5C648.36 272.85 647.385 275.575 645.435 277.675ZM671.478 272.5H699.678C699.728 272 699.753 271.5 699.753 271C699.803 270.5 699.828 270 699.828 269.5C699.828 265.65 699.028 262.275 697.428 259.375C695.828 256.425 693.628 254.125 690.828 252.475C688.028 250.825 684.828 250 681.228 250C677.678 250 674.478 250.825 671.628 252.475C668.828 254.125 666.628 256.425 665.028 259.375C663.428 262.275 662.628 265.65 662.628 269.5C662.628 273.3 663.428 276.675 665.028 279.625C666.628 282.575 668.828 284.875 671.628 286.525C674.478 288.175 677.678 289 681.228 289C685.678 289 689.453 287.975 692.553 285.925C695.653 283.875 697.753 280.9 698.853 277H689.103C688.503 278.3 687.603 279.325 686.403 280.075C685.203 280.775 683.603 281.125 681.603 281.125C678.803 281.125 676.528 280.375 674.778 278.875C673.078 277.375 671.978 275.25 671.478 272.5ZM674.778 260.05C676.428 258.6 678.578 257.875 681.228 257.875C683.878 257.875 686.028 258.6 687.678 260.05C689.328 261.45 690.403 263.475 690.903 266.125H671.553C672.053 263.475 673.128 261.45 674.778 260.05ZM717.483 280V250.75H707.733V288.25H759.483V250.75H750.483V280H738.108V250.75H729.108V280H717.483ZM776.214 272.5H804.414C804.464 272 804.489 271.5 804.489 271C804.539 270.5 804.564 270 804.564 269.5C804.564 265.65 803.764 262.275 802.164 259.375C800.564 256.425 798.364 254.125 795.564 252.475C792.764 250.825 789.564 250 785.964 250C782.414 250 779.214 250.825 776.364 252.475C773.564 254.125 771.364 256.425 769.764 259.375C768.164 262.275 767.364 265.65 767.364 269.5C767.364 273.3 768.164 276.675 769.764 279.625C771.364 282.575 773.564 284.875 776.364 286.525C779.214 288.175 782.414 289 785.964 289C790.414 289 794.189 287.975 797.289 285.925C800.389 283.875 802.489 280.9 803.589 277H793.839C793.239 278.3 792.339 279.325 791.139 280.075C789.939 280.775 788.339 281.125 786.339 281.125C783.539 281.125 781.264 280.375 779.514 278.875C777.814 277.375 776.714 275.25 776.214 272.5ZM779.514 260.05C781.164 258.6 783.314 257.875 785.964 257.875C788.614 257.875 790.764 258.6 792.414 260.05C794.064 261.45 795.139 263.475 795.639 266.125H776.289C776.789 263.475 777.864 261.45 779.514 260.05ZM812.469 288.25H821.469V273.55H837.219V288.25H846.219V250.75H837.219V265.3H821.469V250.75H812.469V288.25ZM882.958 288.25H891.583V250.75H880.033L865.333 278.8V250.75H856.708V288.25H868.258L882.958 260.275V288.25ZM903.56 255.7C902.26 257.4 901.61 259.675 901.61 262.525C901.61 264.725 902.06 266.625 902.96 268.225C903.91 269.775 905.135 271.05 906.635 272.05C908.185 273 909.86 273.65 911.66 274L898.76 288.25H909.185L923.285 271.975V288.25H932.285V250.75H915.86C913.36 250.75 911.01 251.15 908.81 251.95C906.66 252.7 904.91 253.95 903.56 255.7ZM923.285 268H917.285C915.235 268 913.61 267.575 912.41 266.725C911.21 265.825 910.61 264.45 910.61 262.6C910.61 261 911.185 259.75 912.335 258.85C913.535 257.95 915.185 257.5 917.285 257.5H923.285V268ZM502.172 383.25H510.797V345.75H499.247L484.547 373.8V345.75H475.922V383.25H487.472L502.172 355.275V383.25ZM537.307 360.825H531.307V367.575H537.307C539.157 367.575 540.507 368 541.357 368.85C542.207 369.65 542.632 370.75 542.632 372.15C542.632 373.4 542.132 374.525 541.132 375.525C540.132 376.475 538.307 376.95 535.657 376.95C532.857 376.95 530.832 376.275 529.582 374.925C528.332 373.525 527.707 371.675 527.707 369.375H518.707C518.707 374.025 520.157 377.625 523.057 380.175C525.957 382.725 530.132 384 535.582 384C540.932 384 544.932 382.95 547.582 380.85C550.282 378.75 551.632 375.95 551.632 372.45C551.632 368.5 549.682 365.75 545.782 364.2C547.482 363.4 548.732 362.225 549.532 360.675C550.332 359.125 550.732 357.55 550.732 355.95C550.732 354.05 550.207 352.275 549.157 350.625C548.107 348.925 546.457 347.575 544.207 346.575C542.007 345.525 539.132 345 535.582 345C531.882 345 528.807 345.675 526.357 347.025C523.957 348.325 522.157 350.05 520.957 352.2C519.757 354.35 519.157 356.7 519.157 359.25H528.157C528.157 354.5 530.632 352.125 535.582 352.125C537.932 352.125 539.607 352.575 540.607 353.475C541.607 354.325 542.107 355.4 542.107 356.7C542.107 357.95 541.732 358.95 540.982 359.7C540.282 360.45 539.057 360.825 537.307 360.825ZM559.491 383.25H568.491V368.55H584.241V383.25H593.241V345.75H584.241V360.3H568.491V345.75H559.491V383.25ZM609.954 367.5H638.154C638.204 367 638.229 366.5 638.229 366C638.279 365.5 638.304 365 638.304 364.5C638.304 360.65 637.504 357.275 635.904 354.375C634.304 351.425 632.104 349.125 629.304 347.475C626.504 345.825 623.304 345 619.704 345C616.154 345 612.954 345.825 610.104 347.475C607.304 349.125 605.104 351.425 603.504 354.375C601.904 357.275 601.104 360.65 601.104 364.5C601.104 368.3 601.904 371.675 603.504 374.625C605.104 377.575 607.304 379.875 610.104 381.525C612.954 383.175 616.154 384 619.704 384C624.154 384 627.929 382.975 631.029 380.925C634.129 378.875 636.229 375.9 637.329 372H627.579C626.979 373.3 626.079 374.325 624.879 375.075C623.679 375.775 622.079 376.125 620.079 376.125C617.279 376.125 615.004 375.375 613.254 373.875C611.554 372.375 610.454 370.25 609.954 367.5ZM613.254 355.05C614.904 353.6 617.054 352.875 619.704 352.875C622.354 352.875 624.504 353.6 626.154 355.05C627.804 356.45 628.879 358.475 629.379 361.125H610.029C610.529 358.475 611.604 356.45 613.254 355.05ZM668.56 355.125C670.36 356.325 671.41 358.175 671.71 360.675H681.16C680.86 357.525 679.86 354.775 678.16 352.425C676.46 350.075 674.26 348.25 671.56 346.95C668.86 345.65 665.81 345 662.41 345C658.81 345 655.585 345.825 652.735 347.475C649.935 349.125 647.71 351.425 646.06 354.375C644.41 357.275 643.585 360.65 643.585 364.5C643.585 368.3 644.41 371.675 646.06 374.625C647.71 377.575 649.935 379.875 652.735 381.525C655.585 383.175 658.81 384 662.41 384C665.91 384 669.035 383.325 671.785 381.975C674.585 380.575 676.81 378.65 678.46 376.2C680.16 373.7 681.085 370.8 681.235 367.5H671.935C671.585 370.25 670.485 372.325 668.635 373.725C666.835 375.075 664.76 375.75 662.41 375.75C659.61 375.75 657.26 374.725 655.36 372.675C653.51 370.575 652.585 367.85 652.585 364.5C652.585 361.1 653.51 358.375 655.36 356.325C657.26 354.275 659.61 353.25 662.41 353.25C664.76 353.25 666.81 353.875 668.56 355.125ZM693.705 382.875C695.655 383.625 697.705 384 699.855 384C702.455 384 704.78 383.5 706.83 382.5C708.93 381.5 710.58 379.9 711.78 377.7V383.25H720.63V357.15C720.63 354.2 719.88 351.85 718.38 350.1C716.88 348.3 714.905 347 712.455 346.2C710.055 345.4 707.48 345 704.73 345C701.93 345 699.28 345.45 696.78 346.35C694.28 347.25 692.255 348.7 690.705 350.7C689.155 352.65 688.38 355.25 688.38 358.5H697.755C697.755 356.4 698.405 354.825 699.705 353.775C701.005 352.675 702.68 352.125 704.73 352.125C706.68 352.125 708.305 352.55 709.605 353.4C710.955 354.2 711.63 355.325 711.63 356.775C711.63 358.025 711.03 358.95 709.83 359.55C708.68 360.1 707.18 360.525 705.33 360.825C703.48 361.075 701.505 361.375 699.405 361.725C697.355 362.075 695.405 362.65 693.555 363.45C691.705 364.2 690.18 365.35 688.98 366.9C687.83 368.4 687.255 370.5 687.255 373.2C687.255 375.7 687.855 377.75 689.055 379.35C690.255 380.95 691.805 382.125 693.705 382.875ZM697.98 375.525C696.98 374.875 696.48 373.9 696.48 372.6C696.48 371.4 696.98 370.5 697.98 369.9C698.98 369.25 700.28 368.775 701.88 368.475C703.48 368.125 705.155 367.8 706.905 367.5C708.655 367.2 710.28 366.725 711.78 366.075V367.8C711.78 369.7 711.305 371.3 710.355 372.6C709.405 373.9 708.155 374.875 706.605 375.525C705.105 376.175 703.48 376.5 701.73 376.5C700.23 376.5 698.98 376.175 697.98 375.525Z" fill="white"/>
</svg>
