<svg width="161" height="58" viewBox="0 0 161 58" fill="none" xmlns="http://www.w3.org/2000/svg">
<g clip-path="url(#clip0)">
<path d="M19.2507 0C22.6019 0 25.0571 0.604833 26.6164 1.8145C28.0081 2.81414 29.0778 4.2039 29.6928 5.81119C29.9267 6.44184 30.0941 7.09558 30.1923 7.76158C30.2772 8.3359 30.3222 8.9155 30.3271 9.49614C30.3742 11.2926 29.7615 13.0432 28.6065 14.4121C27.5399 15.719 26.1507 16.7197 24.5788 17.3137V17.4256C25.0993 17.5589 25.6127 17.7189 26.1169 17.9052C26.765 18.1432 27.3868 18.4486 27.9722 18.8164C29.1688 19.5855 30.2056 20.5818 31.0248 21.75C32.0369 23.3016 32.5287 25.1394 32.4282 26.9937C32.4282 27.2015 32.4282 27.4093 32.4282 27.6012C32.4161 27.8061 32.4161 28.0117 32.4282 28.2166C32.1232 30.6245 31.003 32.8523 29.2567 34.5234C27.3855 36.4525 24.4175 37.4144 20.3528 37.409H0.745117V0H19.2507ZM15.4846 14.7478C16.6276 14.8391 17.7721 14.5889 18.775 14.0284C19.368 13.6444 19.8301 13.0865 20.0991 12.4297C20.1662 12.2306 20.2088 12.0239 20.2259 11.8142C20.2373 11.6279 20.2373 11.441 20.2259 11.2547C20.2219 10.2891 19.8501 9.36188 19.1873 8.66483C18.5001 7.89746 17.2553 7.51378 15.4528 7.51378H11.6709V14.7798L15.4846 14.7478ZM15.9127 29.9352H17.0227C17.4872 29.9173 17.9491 29.8557 18.4023 29.7514C19.1881 29.5671 19.9157 29.188 20.5193 28.6483C20.862 28.3053 21.1256 27.8904 21.2914 27.4332C21.4572 26.9759 21.5211 26.4874 21.4786 26.0025C21.5215 25.5321 21.4549 25.0582 21.2842 24.6183C21.1136 24.1785 20.8435 23.7848 20.4955 23.4686C19.8829 22.9595 19.1691 22.5887 18.4023 22.3815C17.99 22.3163 17.5744 22.2737 17.1575 22.2536C16.7452 22.2536 16.4043 22.2536 16.1188 22.2536H11.6709V29.9512L15.9127 29.9352Z" fill="#12485A"/>
<path d="M59.7271 34.4994C58.593 35.608 57.272 36.5039 55.8261 37.1452C54.5546 37.6527 53.2212 37.9861 51.8618 38.1364C50.5853 38.2563 49.5942 38.3203 48.8885 38.3203L48.3652 38.3682C44.7276 38.4063 41.192 37.156 38.3751 34.8351C35.5683 32.5224 34.1623 29.0586 34.157 24.4437C34.036 20.778 35.3618 17.2135 37.8439 14.5319C40.3018 11.9101 43.7745 10.6019 48.2622 10.6072H48.7934C52.9639 10.6072 56.0561 11.6037 58.07 13.5967C59.9621 15.4021 61.3673 17.6633 62.1532 20.1673C62.4245 21.1541 62.6128 22.1621 62.7162 23.1808C62.8201 24.0669 62.8731 24.9583 62.8748 25.8506V26.602H43.3702V26.8657C43.3702 27.0789 43.3702 27.2947 43.3702 27.5132C43.3702 27.721 43.4177 27.9369 43.4495 28.1527C43.6775 29.3209 44.2082 30.4075 44.9876 31.3021C45.4494 31.8001 46.0139 32.1899 46.6413 32.444C47.2687 32.6981 47.9438 32.8104 48.619 32.7729C49.6876 32.7407 50.7292 32.4264 51.6398 31.8616C52.4461 31.3323 53.0152 30.5061 53.2255 29.5595H62.6369C62.0784 31.4196 61.0798 33.1149 59.7271 34.4994ZM53.4396 21.4862C53.3729 20.205 52.9192 18.975 52.1393 17.9611C51.7061 17.4127 51.1528 16.9729 50.5228 16.6761C49.8928 16.3793 49.2032 16.2336 48.508 16.2505C47.847 16.2575 47.1946 16.4032 46.5926 16.6785C45.9906 16.9537 45.4521 17.3524 45.0114 17.8492C44.1354 18.8583 43.6387 20.1455 43.608 21.4862H53.4396Z" fill="#12485A"/>
<path d="M79.2869 11.5183C80.6838 10.9146 82.1914 10.615 83.7111 10.639H84.2423C87.0649 10.639 89.1184 11.3664 90.387 12.8292C91.6076 14.1898 92.4668 15.8397 92.8846 17.6253C93.0875 18.4517 93.2201 19.294 93.281 20.1432C93.3286 20.9425 93.3603 21.6939 93.3603 22.3334V37.4089H83.5525V23.1807C83.5525 22.9329 83.5525 22.6131 83.5525 22.2135C83.5377 21.8193 83.4953 21.4266 83.4256 21.0384C83.2746 20.3868 82.9851 19.7759 82.5773 19.2479C82.3276 18.9558 82.0185 18.7211 81.6711 18.5598C81.3237 18.3984 80.9459 18.3142 80.5634 18.3127C79.9098 18.3421 79.2715 18.5215 78.6971 18.8374C78.1228 19.1532 77.6276 19.5971 77.2492 20.1352C76.3266 21.4605 75.869 23.0583 75.9489 24.6754V37.4089H66.1094V11.5982H75.9172V13.9483C76.8523 12.9015 78.0021 12.0723 79.2869 11.5183Z" fill="#12485A"/>
<path d="M100.06 34.3715C98.7978 33.0703 97.8076 31.5267 97.1484 29.8322C96.4892 28.1378 96.1744 26.3272 96.2226 24.5077C96.1521 20.8717 97.5151 17.356 100.012 14.7318C102.534 12.0194 106.377 10.6658 111.541 10.6712H112.072C117.236 10.6712 121.079 12.0247 123.6 14.7318C126.098 17.356 127.461 20.8717 127.39 24.5077C127.459 28.1458 126.097 31.6636 123.6 34.2916C121.074 37.004 117.231 38.3576 112.072 38.3523L111.541 38.4082C106.424 38.3496 102.597 37.004 100.06 34.3715ZM115.125 30.4948C115.826 29.8047 116.368 28.9667 116.71 28.0408C116.968 27.3431 117.136 26.6152 117.21 25.8746C117.265 25.2111 117.289 24.7555 117.289 24.5077C117.353 22.7387 116.871 20.9933 115.91 19.5118C115.441 18.8582 114.826 18.3258 114.114 17.9587C113.402 17.5916 112.614 17.4002 111.814 17.4002C111.015 17.4002 110.226 17.5916 109.514 17.9587C108.803 18.3258 108.187 18.8582 107.719 19.5118C106.779 21.0014 106.309 22.7433 106.371 24.5077C106.371 24.7555 106.371 25.2111 106.451 25.8746C106.521 26.6158 106.689 27.3443 106.95 28.0408C107.299 28.9471 107.84 29.7656 108.536 30.4388C109.434 31.2377 110.597 31.6659 111.795 31.6378C113.004 31.6986 114.189 31.2765 115.093 30.4628L115.125 30.4948Z" fill="#12485A"/>
<path d="M138.364 11.5984L145.151 24.8514L150.875 11.5984H161L139.497 54.0912H128.952L139.688 33.6681L127.073 11.5984H138.364Z" fill="#12485A"/>
<path d="M0 45.866H3.27455C5.60559 45.866 6.69974 47.057 6.69974 48.8395C6.75357 49.4196 6.60026 50 6.26741 50.4762C5.93455 50.9525 5.44401 51.2933 4.88407 51.4374C5.54172 51.5621 6.129 51.931 6.5298 52.4713C6.9306 53.0115 7.11574 53.6837 7.04861 54.3549C7.04861 56.5691 5.76416 57.7601 3.44105 57.7601H0V45.866ZM1.38752 50.9258H3.10012C4.48764 50.9258 5.26465 50.4462 5.26465 48.9274C5.26465 47.5686 4.47178 47.057 3.23491 47.057H1.38752V50.9258ZM1.38752 56.5771H3.44105C4.93165 56.5771 5.60559 55.8977 5.60559 54.347C5.60559 52.7962 4.75722 52.1168 3.32212 52.1168H1.38752V56.5771Z" fill="#12485A"/>
<path d="M15.0648 54.8268C15.0648 56.5614 14.2164 58.0241 12.2739 58.0241C10.3313 58.0241 9.21338 56.9131 9.21338 53.364C9.21338 51.1498 9.73667 48.7358 12.1708 48.7358C14.7872 48.7358 15.0648 51.3497 15.0648 53.6758H10.5454C10.5454 55.6901 10.6643 56.961 12.2025 56.961C13.4711 56.961 13.7089 55.8579 13.7089 54.8508L15.0648 54.8268ZM13.6614 52.5966C13.6614 51.2538 13.4711 49.767 12.1549 49.767C10.696 49.767 10.5692 51.4216 10.5692 52.5966H13.6614Z" fill="#12485A"/>
<path d="M22.367 48.9595V48.1601C22.367 46.6893 22.589 45.8101 24.4602 45.8101C24.6505 45.8101 24.8884 45.8101 25.1183 45.8101V46.8732C24.9439 46.8732 24.7536 46.8732 24.595 46.8732C23.9211 46.8732 23.6753 47.105 23.6753 47.9923V48.9355H25.1183V49.9906H23.6753V57.7442H22.367V49.9906H21.0112V48.9595H22.367Z" fill="#12485A"/>
<path d="M27.021 47.4566V45.8579H28.3372V47.4566H27.021ZM28.3372 57.7681H27.021V48.9753H28.3372V57.7681Z" fill="#12485A"/>
<path d="M32.4519 50.3583C32.6118 49.8752 32.9235 49.4577 33.3398 49.1692C33.7562 48.8808 34.2545 48.737 34.7592 48.7597C34.8816 48.7623 35.0037 48.7757 35.1239 48.7996V50.0226C34.9412 49.985 34.7553 49.9662 34.5689 49.9667C33.221 49.9667 32.436 50.9259 32.436 52.3647V57.7202H31.1357V48.9275H32.4519V50.3583Z" fill="#12485A"/>
<path d="M40.7774 51.3016C40.7774 50.2625 40.3652 49.7669 39.3106 49.7669C39.1272 49.7461 38.9414 49.7683 38.7679 49.8318C38.5944 49.8953 38.4377 49.9985 38.3103 50.1331C38.1829 50.2678 38.088 50.4304 38.0333 50.6081C37.9785 50.7859 37.9652 50.974 37.9945 51.1577C37.9945 52.117 38.6684 52.4287 39.6595 52.7564C41.0232 53.22 42.387 53.7796 42.387 55.4022C42.387 57.0249 41.2849 58.0321 39.3265 58.0321C37.1937 58.0001 36.4722 57.0888 36.4722 55.1544H37.717C37.717 56.2975 38.0817 56.905 39.3027 56.905C40.5237 56.905 41.0708 56.4973 41.0708 55.4182C41.0708 54.3391 39.9132 54.0833 38.9618 53.6996C37.5188 53.1241 36.71 52.5486 36.71 51.1418C36.6994 50.801 36.761 50.4619 36.8906 50.1471C37.0203 49.8322 37.215 49.5489 37.4619 49.3159C37.7087 49.0829 38.002 48.9056 38.3222 48.796C38.6423 48.6863 38.982 48.6467 39.3186 48.6798C41.0708 48.6798 42.1095 49.591 42.1095 51.2697L40.7774 51.3016Z" fill="#12485A"/>
<path d="M46.2165 48.9434H47.7388V49.9986H46.2165V56.0176C46.2165 56.5291 46.2878 56.705 46.819 56.705H47.707V57.7681H46.264C45.4712 57.7681 44.9003 57.6482 44.9003 56.3133V49.9986H43.6079V48.9434H44.8924V46.5454H46.2085L46.2165 48.9434Z" fill="#12485A"/>
<path d="M51.3067 56.1775V57.7762H49.8003V56.1775H51.3067Z" fill="#12485A"/>
<path d="M58.8311 45.866H62.1056C64.4842 45.866 65.5308 47.057 65.5308 48.8395C65.5846 49.4196 65.4313 50 65.0985 50.4762C64.7656 50.9525 64.2751 51.2933 63.7151 51.4374C64.3728 51.5621 64.9601 51.931 65.3609 52.4713C65.7617 53.0115 65.9468 53.6837 65.8797 54.3549C65.8797 56.5691 64.5952 57.7601 62.28 57.7601H58.8311V45.866ZM60.2582 50.9258H61.9708C63.3583 50.9258 64.1354 50.4462 64.1354 48.9274C64.1354 47.5686 63.3425 47.057 62.1135 47.057H60.2582V50.9258ZM60.2582 56.5771H62.3197C63.8103 56.5771 64.4842 55.8977 64.4842 54.347C64.4842 52.7962 63.5803 52.1168 62.1611 52.1168H60.2582V56.5771Z" fill="#12485A"/>
<path d="M73.8558 54.8268C73.8558 56.5614 73.0074 58.0241 71.0728 58.0241C69.1382 58.0241 68.0044 56.9131 68.0044 53.364C68.0044 51.1498 68.5277 48.7358 70.9697 48.7358C73.5783 48.7358 73.8558 51.3497 73.8558 53.6758H69.3761C69.3761 55.6901 69.495 56.961 71.0332 56.961C72.3017 56.961 72.5396 55.8579 72.5396 54.8508L73.8558 54.8268ZM72.492 52.5966C72.492 51.2538 72.3017 49.767 70.9856 49.767C69.5267 49.767 69.3998 51.4216 69.3998 52.5966H72.492Z" fill="#12485A"/>
<path d="M84.7099 51.3015C84.7099 50.2623 84.2976 49.7667 83.2352 49.7667C83.0554 49.7483 82.8738 49.7711 82.704 49.8335C82.5342 49.8958 82.3806 49.9961 82.2548 50.1269C82.1289 50.2576 82.034 50.4154 81.9773 50.5883C81.9205 50.7613 81.9033 50.945 81.927 51.1256C81.927 52.0848 82.6009 52.3966 83.584 52.7243C84.9557 53.1879 86.3195 53.7474 86.3195 55.3701C86.3195 56.9928 85.2094 57.9999 83.259 57.9999C81.1262 57.9999 80.3809 57.0887 80.3809 55.1863H81.6653C81.6653 56.3293 82.03 56.9368 83.251 56.9368C84.3214 56.9368 85.0191 56.5291 85.0191 55.45C85.0191 54.3709 83.8536 54.1151 82.9022 53.7315C81.4671 53.1559 80.6504 52.5804 80.6504 51.1736C80.6397 50.8321 80.7014 50.4922 80.8315 50.1768C80.9617 49.8613 81.1571 49.5775 81.4049 49.3444C81.6526 49.1113 81.9469 48.9342 82.268 48.8251C82.5892 48.716 82.9297 48.6773 83.2669 48.7116C85.0191 48.7116 86.0578 49.6229 86.0578 51.3015H84.7099Z" fill="#12485A"/>
<path d="M89.9195 49.9188C90.1765 49.5462 90.5192 49.2419 90.9182 49.0317C91.3172 48.8215 91.7607 48.7118 92.2108 48.7118C92.6646 48.659 93.1228 48.7621 93.5112 49.0043C93.8997 49.2465 94.1958 49.6138 94.3516 50.0467C94.6155 49.6398 94.9752 49.3051 95.3985 49.0722C95.8217 48.8393 96.2956 48.7155 96.7778 48.7118C97.0856 48.6649 97.4 48.6897 97.6969 48.7844C97.9938 48.8791 98.2651 49.0411 98.4902 49.258C98.7153 49.4748 98.8881 49.7408 98.9953 50.0355C99.1026 50.3302 99.1414 50.6458 99.1088 50.9579V57.7683H97.7926V51.4216C97.7926 50.4304 97.5389 49.7669 96.413 49.7669C96.1529 49.7566 95.8935 49.8025 95.6524 49.9016C95.4114 50.0008 95.1941 50.1508 95.0153 50.3416C94.8366 50.5325 94.7004 50.7597 94.616 51.008C94.5316 51.2563 94.5009 51.52 94.526 51.7813V57.7683H93.2099V51.3017C93.2099 50.3824 92.8768 49.7669 91.7906 49.7669C91.5338 49.7637 91.2791 49.8148 91.0431 49.9168C90.807 50.0189 90.5947 50.1696 90.42 50.3594C90.2452 50.5491 90.1118 50.7737 90.0283 51.0186C89.9448 51.2635 89.9131 51.5233 89.9353 51.7813V57.7683H88.6191V48.9756H89.9353L89.9195 49.9188Z" fill="#12485A"/>
<path d="M101.741 51.3255C101.741 49.503 102.676 48.7117 104.405 48.7117C106.26 48.7117 106.99 49.7668 106.99 50.9578V56.1615C106.99 56.5772 107.14 56.8729 107.489 56.8729C107.587 56.8816 107.685 56.8816 107.783 56.8729V57.8002C107.611 57.8685 107.428 57.9012 107.243 57.8961C106.45 57.8961 106.038 57.8002 105.824 56.6091C105.652 57.0172 105.368 57.3676 105.006 57.6195C104.644 57.8714 104.218 58.0144 103.779 58.032C102.193 58.032 101.4 57.2326 101.4 55.6339C101.4 54.0353 102.098 53.4997 103.707 52.9082C104.31 52.6924 105.214 52.3087 105.348 52.2447C105.681 52.0929 105.697 51.6532 105.697 51.2056C105.697 50.1984 105.348 49.8307 104.294 49.8307C103.239 49.8307 102.946 50.3583 102.946 51.3895L101.741 51.3255ZM102.748 55.522C102.748 56.3214 103.089 56.8729 103.977 56.8729C104.21 56.8911 104.445 56.8569 104.664 56.7727C104.883 56.6884 105.081 56.5564 105.243 56.3859C105.405 56.2154 105.528 56.0109 105.602 55.7869C105.677 55.5628 105.701 55.325 105.673 55.0904V52.9562C104.302 53.7155 102.748 53.8194 102.748 55.522Z" fill="#12485A"/>
<path d="M111.105 50.3584C111.264 49.8745 111.575 49.4563 111.992 49.1676C112.408 48.8789 112.907 48.7357 113.412 48.7597C113.535 48.7624 113.657 48.7757 113.777 48.7996V50.0226C113.594 49.985 113.408 49.9663 113.222 49.9667C111.866 49.9667 111.089 50.9259 111.089 52.3647V57.7203H109.773V48.9275H111.089L111.105 50.3584Z" fill="#12485A"/>
<path d="M117.495 48.9434H119.017V49.9986H117.495V56.0176C117.495 56.5291 117.559 56.705 118.098 56.705H118.986V57.7681H117.543C116.75 57.7681 116.179 57.6482 116.179 56.3133V49.9986H114.895V48.9434H116.179V46.5454H117.495V48.9434Z" fill="#12485A"/>
<path d="M122.586 56.1775V57.7762H121.079V56.1775H122.586Z" fill="#12485A"/>
</g>
<defs>
<clipPath id="clip0">
<rect width="161" height="58" fill="white"/>
</clipPath>
</defs>
</svg>
