<svg width="80" height="80" viewBox="0 0 80 80" fill="none" xmlns="http://www.w3.org/2000/svg">
<path d="M39.7645 80C61.7258 80 79.529 62.0914 79.529 40C79.529 17.9086 61.7258 0 39.7645 0C17.8032 0 0 17.9086 0 40C0 62.0914 17.8032 80 39.7645 80Z" fill="#FF0000"/>
<path d="M70.1486 27.989V52.5466H67.6966V46.9702C65.6711 50.6164 61.9398 53.0828 57.2491 53.0828C50.3196 53.0828 44.6694 47.5064 44.6694 40.3214C44.6694 33.0292 50.3196 27.5601 57.2491 27.5601C61.9398 27.5601 65.6711 29.9193 67.6966 33.6727V28.0963H70.1486V27.989ZM67.6966 40.3214C67.6966 34.5306 63.2191 29.9193 57.4623 29.9193C51.7055 29.9193 47.1214 34.5306 47.1214 40.3214C47.1214 46.1123 51.5989 50.7236 57.4623 50.7236C63.3257 50.7236 67.6966 46.1123 67.6966 40.3214Z" fill="white"/>
<path d="M57.2483 54.1557C49.5725 54.1557 43.6025 48.0431 43.6025 40.3219C43.6025 32.6007 49.5725 26.3809 57.2483 26.3809C60.9795 26.3809 64.2844 27.775 66.6297 30.2414V26.9171H71.2138V53.6195H66.6297V50.2951C64.2844 52.7616 60.9795 54.1557 57.2483 54.1557ZM57.2483 28.5256C50.7452 28.5256 45.7347 33.6731 45.7347 40.2146C45.7347 46.7562 50.8518 51.9037 57.2483 51.9037C60.0201 51.9037 62.472 51.0457 64.391 49.3299C62.472 50.8313 60.1267 51.6892 57.4615 51.6892C51.0651 51.6892 46.0545 46.649 46.0545 40.2146C46.0545 33.7803 51.0651 28.7401 57.4615 28.7401C60.1267 28.7401 62.472 29.598 64.391 31.0994C62.472 29.4908 60.0201 28.5256 57.2483 28.5256ZM68.7619 51.4747H69.0817V29.0618H68.7619V37.6409L68.2288 36.6758C68.5487 37.7482 68.7619 39.035 68.7619 40.2146C68.7619 41.5015 68.5487 42.6811 68.2288 43.7535L68.7619 42.8956V51.4747ZM57.4615 30.8849C52.2377 30.8849 48.1867 34.9599 48.1867 40.2146C48.1867 45.4693 52.2377 49.5444 57.4615 49.5444C62.5786 49.5444 66.6297 45.4693 66.6297 40.2146C66.6297 35.0672 62.5786 30.8849 57.4615 30.8849Z" fill="white"/>
<path d="M36.1411 40.7506C36.1411 41.1795 36.1411 41.5012 36.1411 41.9302H13.9668C14.4998 47.5066 18.7641 51.1527 24.3077 51.1527C28.2522 51.1527 31.3438 49.3296 32.7297 46.6487L34.8618 47.9355C32.8363 51.2599 29.105 53.512 24.2011 53.512C16.7386 53.512 11.4082 48.15 11.4082 40.7506C11.4082 33.5656 16.5254 27.9892 23.9879 27.9892C31.4504 27.8819 36.1411 34.1018 36.1411 40.7506ZM13.9668 39.5709H33.5825C33.0495 33.5656 28.8918 30.2412 24.0945 30.2412C18.5509 30.2412 14.4998 34.1018 13.9668 39.5709Z" fill="white"/>
<path d="M24.3067 54.5844C16.3112 54.5844 10.4478 48.7935 10.4478 40.7506C10.4478 32.7077 16.0979 26.8096 24.0935 26.8096C32.6221 26.8096 37.2062 33.9946 37.2062 40.7506C37.2062 40.9651 37.2062 41.1795 37.2062 41.394C37.2062 41.6085 37.2062 41.7157 37.2062 41.9302V43.0026H15.2451C16.2045 47.2921 19.7226 50.0804 24.3067 50.0804C27.7181 50.0804 30.4899 48.579 31.7692 46.2198L32.3022 45.2546L36.3533 47.6139L35.8203 48.579C33.4749 52.3324 29.2106 54.5844 24.3067 54.5844ZM24.0935 28.9543C17.3772 28.9543 12.5799 33.8873 12.5799 40.6434C12.5799 47.5066 17.3772 52.3324 24.3067 52.3324C28.1446 52.3324 31.4494 50.831 33.3683 48.2573L33.0485 48.0428C31.2362 50.6165 28.0379 52.1179 24.3067 52.1179C18.1235 52.1179 13.5394 48.0428 12.8997 42.0375L12.7931 40.8578H35.074V40.7506C35.074 35.0669 31.2362 28.9543 24.0935 28.9543ZM34.7542 40.6434H12.7931L12.8997 39.4637C13.4328 33.3511 18.0169 29.1688 24.0935 29.1688C29.8503 29.1688 34.1146 33.3511 34.6476 39.4637L34.7542 40.6434ZM15.2451 38.4986H32.4088C31.4494 33.5656 27.7181 31.3136 24.0935 31.3136C19.5094 31.3136 16.0979 34.1018 15.2451 38.4986Z" fill="white"/>
</svg>
