<svg width="142" height="96" viewBox="0 0 142 96" fill="none" xmlns="http://www.w3.org/2000/svg">
<path d="M107.197 67.6159C107.533 67.8786 108.118 68.0093 108.951 68.0093C109.394 68.0093 109.778 67.9212 110.1 67.7465C110.422 67.5719 110.685 67.3532 110.887 67.0919C111.088 66.8306 111.239 66.5451 111.34 66.2355C111.44 65.9259 111.49 65.6448 111.49 65.3891C111.49 64.9319 111.335 64.5527 111.027 64.2502C110.718 63.9477 110.174 63.7972 109.394 63.7972C108.924 63.7972 108.518 63.8852 108.174 64.0585C107.832 64.2332 107.547 64.4547 107.318 64.7231C107.09 64.9915 106.918 65.2911 106.804 65.6192C106.689 65.9487 106.632 66.2682 106.632 66.5764C106.674 67.0081 106.862 67.3532 107.197 67.6159Z" fill="#090909"/>
<path d="M141.539 77.4406C141.283 77.1864 140.988 77.0572 140.652 77.0572C140.572 77.0572 140.252 77.1722 139.695 77.3995C139.137 77.6281 138.473 77.9263 137.7 78.2956C136.928 78.6648 136.121 79.0823 135.282 79.5453C134.443 80.0082 133.7 80.4825 133.055 80.9668L137.57 71.5542C137.636 71.3938 137.67 71.2191 137.67 71.0302C137.67 70.8016 137.609 70.5843 137.489 70.3756C137.368 70.1668 137.166 70.0631 136.884 70.0631C136.723 70.0631 136.564 70.0702 136.411 70.083C136.256 70.0958 136.086 70.1398 135.897 70.2137C135.709 70.2875 135.484 70.4025 135.222 70.5559C134.96 70.7107 134.642 70.9351 134.265 71.2305L125.943 79.4132C125.741 79.6021 125.527 79.7696 125.298 79.9173C125.069 80.065 124.882 80.1389 124.734 80.1389C124.572 80.1389 124.493 80.038 124.493 79.8364C124.493 79.6077 124.587 79.2996 124.775 78.909L128.463 71.2305C128.517 71.1098 128.544 70.9677 128.544 70.8073C128.544 70.4849 128.399 70.2264 128.111 70.0319C127.821 69.8373 127.469 69.7393 127.053 69.7393C126.65 69.7393 126.234 69.8572 125.804 70.0915C125.373 70.3273 125.024 70.7064 124.756 71.2305C124.365 72.2118 124.013 73.0681 123.698 73.7995C123.382 74.5322 123.093 75.177 122.831 75.7351C122.738 75.9339 122.65 76.1171 122.562 76.3017C122.33 76.4934 122.086 76.6937 121.823 76.9038C121.346 77.2873 120.846 77.6693 120.322 78.0527C119.798 78.4361 119.27 78.8054 118.74 79.1618C118.209 79.5183 117.7 79.8335 117.208 80.109C116.718 80.3845 116.261 80.6061 115.838 80.7737C115.415 80.9427 115.061 81.025 114.78 81.025C114.551 81.025 114.397 80.9654 114.317 80.8432C114.236 80.7225 114.196 80.5606 114.196 80.359C114.196 80.0366 114.267 79.6702 114.408 79.2612C114.549 78.8508 114.693 78.4929 114.841 78.1834C115.176 77.4577 115.577 76.6014 116.041 75.6129C116.504 74.626 117.001 73.5808 117.532 72.4787C118.063 71.3767 118.607 70.2449 119.165 69.0832C119.723 67.9216 120.267 66.8025 120.797 65.7275C121.328 64.6525 121.825 63.6584 122.288 62.7453C122.751 61.8321 123.151 61.0596 123.488 60.4276C123.662 60.118 123.807 59.8298 123.921 59.5614C124.034 59.2929 124.092 59.0373 124.092 58.7959C124.092 58.2847 123.921 57.9154 123.578 57.6868C123.236 57.4582 122.856 57.3445 122.44 57.3445C122.024 57.3445 121.61 57.4525 121.2 57.6669C120.79 57.8828 120.464 58.252 120.223 58.776L114.117 71.7758C113.714 72.6364 113.271 73.5836 112.786 74.6174C112.42 75.4028 112.059 76.1952 111.7 76.989C111.611 77.0842 111.525 77.1765 111.426 77.2787C111.124 77.5883 110.794 77.9107 110.439 78.2458C110.083 78.5824 109.704 78.9147 109.3 79.2442C108.897 79.5737 108.487 79.8662 108.071 80.1204C107.655 80.376 107.241 80.5834 106.831 80.7453C106.421 80.9072 106.029 80.9867 105.652 80.9867C105.316 80.9867 105.057 80.9299 104.877 80.8148C104.695 80.7012 104.604 80.4612 104.604 80.0991C104.604 79.764 104.668 79.3933 104.796 78.99C104.924 78.5867 105.079 78.1777 105.259 77.7602C105.441 77.3441 105.632 76.9379 105.834 76.5403C106.036 76.1441 106.217 75.7777 106.378 75.4411C106.513 75.1585 106.626 74.9171 106.72 74.7154C106.814 74.5138 106.912 74.3093 107.013 74.1005C107.114 73.8932 107.224 73.6674 107.345 73.426C107.466 73.1845 107.62 72.8892 107.808 72.5398C107.875 72.4191 107.919 72.2984 107.939 72.1777C107.958 72.057 107.975 71.9363 107.988 71.8141C107.988 71.3029 107.804 70.884 107.434 70.5545C107.065 70.225 106.625 70.0603 106.115 70.0603C105.806 70.0603 105.503 70.1412 105.208 70.3017C104.913 70.4622 104.65 70.732 104.423 71.1083C104.181 71.6054 103.953 72.0754 103.737 72.5185C103.548 72.8948 103.37 73.2641 103.203 73.6276C103.035 73.9912 102.917 74.2596 102.851 74.4343C102.662 74.9043 102.435 75.3985 102.165 75.9154C101.896 76.4324 101.641 76.9706 101.399 77.5273C101.348 77.6451 101.304 77.7673 101.256 77.8866C100.755 78.3538 100.224 78.8068 99.6557 79.2399C99.0309 79.7171 98.389 80.1232 97.7316 80.4584C97.0727 80.795 96.4621 80.9625 95.8983 80.9625C95.603 80.9625 95.3644 80.9228 95.1827 80.8418C95.0009 80.7609 94.91 80.5734 94.91 80.278C94.91 79.9557 95.0037 79.6092 95.1926 79.2399C95.38 78.8707 95.603 78.5114 95.8572 78.1621C96.1113 77.8127 96.374 77.4832 96.6424 77.1751C96.9108 76.8655 97.1266 76.6113 97.2871 76.4096C97.7841 75.8047 98.2172 75.1401 98.5864 74.4144C98.9556 73.6887 99.1402 72.9232 99.1402 72.1166C99.1402 71.6054 99.0493 71.1765 98.8676 70.8271C98.6858 70.4778 98.4373 70.1924 98.1221 69.9708C97.8068 69.7493 97.4461 69.5916 97.0443 69.4979C96.641 69.4042 96.2178 69.3573 95.7748 69.3573C95.1699 69.3573 94.6189 69.4312 94.1219 69.5789C93.6249 69.7266 93.1648 69.9211 92.7417 70.1625C92.3185 70.404 91.9252 70.6766 91.5631 70.9791C91.1996 71.2816 90.8644 71.5869 90.5549 71.8965C90.5279 71.4392 90.4299 71.0501 90.2624 70.7277C90.0948 70.4054 89.879 70.1427 89.6177 69.941C89.355 69.7393 89.0568 69.5916 88.7202 69.4979C88.3837 69.4042 88.0287 69.3573 87.6524 69.3573C86.8998 69.3573 86.221 69.4653 85.6175 69.6797C85.0126 69.8941 84.4659 70.1668 83.9746 70.4963C83.4833 70.8257 83.0303 71.185 82.6142 71.5741C82.1982 71.9632 81.8077 72.3268 81.4456 72.6619C81.6075 72.2458 81.687 71.8624 81.687 71.5131C81.687 71.043 81.5563 70.6837 81.2936 70.4352C81.0324 70.1867 80.7327 70.0617 80.3976 70.0617C80.0071 70.0617 79.6152 70.2023 79.219 70.4849C78.8228 70.7675 78.5033 71.1978 78.2619 71.7744C78.0603 72.2444 77.809 72.8125 77.5065 73.4771C77.204 74.1417 76.8817 74.8518 76.5395 75.603C76.4415 75.8174 76.3421 76.0361 76.2441 76.2506C75.3992 77.1098 74.5998 77.8752 73.8486 78.5455C73.5262 78.8281 73.194 79.1064 72.8503 79.3819C72.5081 79.6574 72.1758 79.9031 71.8535 80.1176C71.5311 80.3334 71.2315 80.5038 70.956 80.6317C70.6806 80.7595 70.442 80.8234 70.2404 80.8234C69.918 80.8234 69.6894 80.6927 69.5545 80.43C69.4196 80.1673 69.3529 79.835 69.3529 79.4317C69.3529 79.1235 69.3997 78.75 69.4934 78.3126C69.5872 77.8766 69.7079 77.4094 69.857 76.9124C70.0046 76.4153 70.1694 75.9083 70.3511 75.39C70.5329 74.8731 70.7104 74.376 70.885 73.8989C71.0597 73.4217 71.2173 72.9886 71.3579 72.5995C71.4985 72.2103 71.6021 71.888 71.6703 71.6324C71.6831 71.5784 71.6902 71.5045 71.6902 71.4108C71.6902 71.0757 71.5297 70.7661 71.206 70.4835C70.8836 70.2009 70.4676 70.0603 69.9564 70.0603C69.7945 70.0603 69.6042 70.0972 69.3827 70.1711C69.1612 70.2449 68.9496 70.3287 68.7479 70.4224C68.5065 70.5303 68.2708 70.644 68.0422 70.7647C67.7738 70.5105 67.4643 70.2747 67.1149 70.0589C66.8054 69.8842 66.4305 69.7237 65.986 69.576C65.543 69.4283 65.0247 69.3545 64.434 69.3545C63.2923 69.3545 62.2571 69.5533 61.3299 69.9495C61.0444 70.0716 60.7718 70.2094 60.5048 70.3543C60.3898 70.2918 60.262 70.2378 60.1101 70.2009C59.8346 70.1341 59.5151 70.093 59.153 70.0802C58.7895 70.0674 58.4004 70.0603 57.9843 70.0603H53.2884C53.6235 69.2537 54.0538 68.4655 54.5778 67.6915C55.1017 66.919 55.6484 66.2302 56.2207 65.6253C56.7915 65.0203 57.3553 64.5374 57.9133 64.1739C58.4714 63.8103 58.957 63.63 59.3745 63.63C59.7238 63.63 60.0022 63.7507 60.2109 63.9935C60.4196 64.235 60.5233 64.6383 60.5233 65.2035C60.5233 65.3512 60.5134 65.4989 60.4935 65.6466C60.4736 65.7943 60.4637 65.9561 60.4637 66.1308C60.4637 66.3992 60.5773 66.598 60.8059 66.7258C61.0345 66.8537 61.283 66.9176 61.5514 66.9176C61.6593 66.9176 61.7857 66.9005 61.9348 66.8679C62.0825 66.8338 62.2301 66.777 62.3778 66.696C62.5255 66.6151 62.6604 66.5114 62.7811 66.3836C62.9018 66.2558 62.9827 66.0982 63.0225 65.9107C63.1844 65.212 63.2639 64.5744 63.2639 63.9964C63.2639 63.3914 63.183 62.8645 63.0225 62.4144C62.862 61.9642 62.649 61.5921 62.3878 61.2953C62.1251 60.9999 61.824 60.7784 61.4804 60.6307C61.1382 60.483 60.7775 60.4092 60.4026 60.4092C59.596 60.4092 58.7526 60.5498 57.8736 60.8324C56.9932 61.115 56.0901 61.6191 55.1628 62.3434C54.2355 63.069 53.2912 64.056 52.3313 65.3057C51.37 66.5554 50.4129 68.1403 49.4601 70.0617H47.0816C46.4369 70.0617 45.9456 70.2122 45.6105 70.5147C45.2739 70.8172 45.1063 71.1296 45.1063 71.452C45.1063 71.7616 45.2412 72.03 45.5096 72.2586C45.778 72.4873 46.2821 72.6009 47.0205 72.6009H48.0884L40.9741 87.6769C40.8265 87.985 40.7115 88.2577 40.6319 88.4934C40.551 88.7292 40.5112 88.9337 40.5112 89.1083C40.5112 89.4577 40.639 89.7133 40.8946 89.8738C41.1502 90.0343 41.4385 90.1152 41.7608 90.1152C41.9894 90.1152 42.2379 90.0655 42.5063 89.9647C42.7747 89.8638 43.0374 89.719 43.293 89.5315C43.5486 89.3441 43.7829 89.1183 43.9988 88.857C44.2132 88.5943 44.3949 88.3088 44.5426 88.0006C44.757 87.5703 45.0396 86.9895 45.3889 86.2567C45.7383 85.524 46.1273 84.7046 46.5576 83.7985C46.9879 82.8911 47.4408 81.9311 47.918 80.9171C48.3951 79.9031 48.8722 78.8991 49.3493 77.9036C49.8264 76.9095 50.2837 75.958 50.7196 75.052C51.1556 74.1445 51.5489 73.3493 51.8982 72.6634C52.4889 72.6634 53.074 72.6634 53.6519 72.6634C54.2299 72.6634 54.8135 72.6605 55.4056 72.6534C55.9963 72.6463 56.6055 72.6364 57.2289 72.6236C57.4036 72.6193 57.5867 72.6151 57.7671 72.6094C57.4802 72.946 57.2119 73.2982 56.9662 73.6716C56.4351 74.4783 55.9992 75.2934 55.657 76.1199C55.3147 76.9464 55.0591 77.7417 54.8916 78.5086C54.724 79.274 54.6402 79.9329 54.6402 80.484C54.6402 81.2224 54.7808 81.8473 55.0634 82.3585C55.346 82.8698 55.6953 83.2858 56.1114 83.6082C56.5274 83.9306 56.9676 84.1621 57.432 84.3041C57.8949 84.4447 58.301 84.5157 58.6517 84.5157C59.3376 84.5157 60.0121 84.358 60.6767 84.0428C61.3412 83.7275 61.9802 83.3242 62.5908 82.8328C63.2014 82.3429 63.7723 81.799 64.3033 81.1997C64.8344 80.6018 65.3073 80.021 65.7233 79.4558C65.6296 79.6972 65.5629 79.9571 65.5217 80.2326C65.4819 80.5081 65.4621 80.7864 65.4621 81.069C65.4621 81.4993 65.516 81.9183 65.6225 82.3287C65.7304 82.7391 65.8952 83.1041 66.1167 83.4264C66.3382 83.7488 66.6165 84.0115 66.9531 84.2132C67.2882 84.4148 67.6915 84.5157 68.1615 84.5157C68.6855 84.5157 69.2435 84.3907 69.8342 84.1422C70.425 83.8937 71.0256 83.5741 71.6376 83.185C72.2482 82.7959 72.8461 82.3614 73.4311 81.8856C73.6441 81.7124 73.8472 81.5391 74.0516 81.3673C73.992 81.5292 73.9366 81.6882 73.8855 81.8359C73.7108 82.3472 73.6228 82.7221 73.6228 82.9649C73.6228 83.3952 73.7634 83.7644 74.046 84.074C74.3285 84.3822 74.7105 84.537 75.1947 84.537C75.6378 84.537 76.007 84.3864 76.3038 84.084C76.5991 83.7815 76.8647 83.4094 77.1004 82.9649C77.3361 82.5218 77.5534 82.0376 77.755 81.5135C77.9566 80.9895 78.1782 80.5053 78.4196 80.0622C78.6879 79.6319 78.9833 79.1547 79.3056 78.6307C79.628 78.1067 79.973 77.5798 80.3437 77.0487C80.7129 76.5176 81.109 76.0035 81.5322 75.5064C81.9554 75.0094 82.4012 74.5692 82.8727 74.1857C83.3427 73.8023 83.8326 73.4941 84.3438 73.2584C84.855 73.0227 85.3847 72.9062 85.9356 72.9062C86.1642 72.9062 86.3389 72.9772 86.4596 73.1178C86.5803 73.2584 86.6414 73.4373 86.6414 73.6518C86.6414 73.8534 86.6016 74.0522 86.5207 74.2468C86.4397 74.4414 86.3318 74.6473 86.1983 74.8617C85.7283 75.6272 85.2313 76.377 84.7073 77.1083C84.1833 77.8411 83.6991 78.5625 83.2561 79.2754C82.813 79.9883 82.4467 80.6799 82.1584 81.3516C81.8687 82.0234 81.7253 82.6823 81.7253 83.327C81.7381 83.5017 81.7963 83.6636 81.8971 83.8113C81.998 83.959 82.1258 84.0868 82.2805 84.1947C82.4353 84.3027 82.6057 84.3864 82.7946 84.4461C82.982 84.5057 83.1567 84.537 83.3186 84.537C83.7616 84.537 84.1308 84.3864 84.4276 84.084C84.7229 83.7815 84.9885 83.4094 85.2242 82.9649C85.4585 82.5218 85.6772 82.0376 85.8788 81.5135C86.0805 80.9895 86.302 80.5053 86.5434 80.0622C86.8118 79.6319 87.1071 79.1547 87.4295 78.6307C87.7518 78.1067 88.0983 77.5798 88.4675 77.0487C88.8367 76.5176 89.2329 76.0035 89.656 75.5064C90.0792 75.0094 90.5251 74.5692 90.9965 74.1857C91.4665 73.8023 91.9564 73.4941 92.4676 73.2584C92.9774 73.0227 93.5085 72.9062 94.0594 72.9062C94.2881 72.9062 94.4627 72.9772 94.5834 73.1178C94.7041 73.2584 94.7652 73.4373 94.7652 73.6518C94.7652 73.8534 94.7254 74.0522 94.6445 74.2468C94.5635 74.4414 94.457 74.6473 94.3221 74.8617C94.0126 75.373 93.6505 75.8828 93.2344 76.394C92.8184 76.9053 92.4208 77.4321 92.0459 77.976C91.6696 78.5199 91.3543 79.088 91.0987 79.6788C90.8431 80.2695 90.7153 80.9015 90.7153 81.5732C90.7153 82.5942 91.0206 83.3398 91.6327 83.8099C92.2433 84.2799 93.047 84.5157 94.041 84.5157C94.8064 84.5157 95.576 84.368 96.3485 84.0726C97.121 83.7772 97.8934 83.3838 98.6659 82.8939C99.2921 82.4963 99.9127 82.0376 100.529 81.5434C100.604 82.4863 100.908 83.2006 101.446 83.6806C102.071 84.2388 102.927 84.5171 104.016 84.5171C104.782 84.5171 105.542 84.3694 106.294 84.074C107.047 83.7786 107.795 83.3853 108.541 82.8953C109.164 82.4863 109.772 82.012 110.371 81.4993C110.37 81.5576 110.364 81.6172 110.364 81.6754C110.364 82.0645 110.411 82.4352 110.504 82.7845C110.598 83.1339 110.756 83.4364 110.977 83.692C111.199 83.9476 111.494 84.1479 111.863 84.297C112.233 84.4447 112.693 84.5185 113.244 84.5185C114.05 84.5185 114.879 84.3566 115.733 84.0343C116.586 83.7119 117.445 83.2788 118.312 82.7348C118.911 82.3585 119.512 81.9396 120.114 81.4823C119.928 82.0944 119.832 82.6567 119.832 83.168C119.832 83.6508 119.993 83.9973 120.315 84.2061C120.638 84.4148 121.027 84.5185 121.484 84.5185C122.908 84.5185 124.439 83.8866 126.079 82.6241C127.718 81.3616 129.545 79.5339 131.56 77.1424L127.53 85.3053C126.644 86.4201 125.909 87.3914 125.324 88.2179C124.739 89.0444 124.269 89.7928 123.914 90.4646C123.557 91.1363 123.309 91.7512 123.168 92.3093C123.027 92.866 122.956 93.4283 122.956 93.9921C122.956 94.5971 123.124 95.0771 123.461 95.4335C123.796 95.7886 124.233 95.9675 124.77 95.9675C126.073 95.9675 127.269 94.8385 128.357 92.5819C128.369 92.555 128.458 92.3661 128.619 92.0182C128.78 91.6688 128.986 91.2115 129.234 90.6477C129.483 90.084 129.758 89.4321 130.061 88.6922C130.363 87.9538 130.668 87.1812 130.978 86.3746C131.394 85.9841 131.78 85.6461 132.137 85.3564C132.493 85.0667 132.855 84.7954 133.224 84.5398C133.594 84.2842 133.987 84.0357 134.403 83.7943C134.819 83.5528 135.296 83.283 135.834 82.9876C136.371 82.6922 136.99 82.3599 137.689 81.9893C138.388 81.6201 139.207 81.1727 140.148 80.6487C140.806 80.2866 141.267 79.9102 141.529 79.5197C141.791 79.1306 141.922 78.7614 141.922 78.4106C141.921 78.0186 141.793 77.6963 141.539 77.4406ZM65.6438 75.5064C65.4422 75.8828 65.1809 76.306 64.8571 76.776C64.5348 77.2461 64.1713 77.7261 63.7694 78.2175C63.3661 78.7074 62.9529 79.1576 62.5298 79.568C62.1066 79.9784 61.6962 80.3135 61.3 80.5763C60.9039 80.839 60.5574 80.9696 60.262 80.9696C59.8857 80.9696 59.5875 80.8887 59.3646 80.7282C59.1431 80.5677 58.9712 80.3647 58.8505 80.1232C58.7298 79.8818 58.6517 79.6163 58.6191 79.328C58.585 79.0397 58.5694 78.7599 58.5694 78.4915C58.5694 77.8326 58.7029 77.1779 58.9727 76.5261C59.241 75.8743 59.6046 75.2863 60.0604 74.7623C60.5162 74.2383 61.0416 73.8151 61.6323 73.4927C62.223 73.1703 62.8351 73.0084 63.467 73.0084C63.6814 73.0084 63.9341 73.0454 64.2224 73.1192C64.5107 73.1931 64.7833 73.3038 65.0389 73.4515C65.2931 73.5992 65.5089 73.7767 65.6836 73.9855C65.8582 74.1942 65.9463 74.4257 65.9463 74.6814C65.9449 74.8546 65.844 75.1301 65.6438 75.5064Z" fill="#090909"/>
<path d="M75.8609 30.7851C74.2237 30.7851 72.6546 31.0862 71.2062 31.6315L68.3349 25.7451C69.4368 25.8473 70.5388 25.951 71.6407 26.0476C72.4103 26.1143 73.1842 26.2237 73.9539 26.2095C74.9493 26.191 75.6635 25.6585 75.9021 24.8831C76.0029 24.5635 76.0171 24.2043 75.9419 23.8208C75.7587 22.9077 75.0047 22.3538 73.7054 22.2346C71.2374 22.0059 68.7694 21.7844 66.2972 21.6012C65.786 21.5643 65.4537 21.4222 65.1896 21.0502C64.0337 18.2469 62.8338 15.462 61.6226 12.6828C60.7152 10.6095 58.9175 9.61822 57.0388 9.92497C56.3416 10.04 55.6359 10.3354 54.9571 10.8196C53.3198 11.9912 51.6826 13.1628 50.0482 14.3387C49.0371 15.0658 48.0247 15.7929 47.0136 16.5214L58.9956 18.7524C59.0112 18.7396 59.0297 18.7283 59.0439 18.7155C59.0524 18.7311 59.0623 18.7496 59.068 18.7638C59.1901 18.9953 59.308 19.2239 59.4273 19.4511C60.0819 20.6994 60.7152 21.9008 61.3301 23.1093C61.4209 23.2854 61.509 23.4587 61.5984 23.6362C62.1522 24.7354 62.9858 25.3105 64.234 25.3986C64.5946 25.4241 64.9553 25.4554 65.316 25.4838L66.0913 27.0729H55.4584C54.3763 26.2592 53.2971 25.4383 52.2193 24.6189C52.083 24.5153 51.951 24.4002 51.8118 24.2753C51.7294 24.1986 51.6386 24.1205 51.5434 24.0381C52.8583 23.1065 54.1491 22.1905 55.4385 21.2746C55.4413 21.2717 55.4413 21.2717 55.4413 21.2717C56.1045 20.8002 56.7719 20.3288 57.4378 19.8559L45.4715 17.6277C44.6493 18.2185 43.8314 18.8092 43.0092 19.3957C42.1814 19.9893 41.5765 20.7406 41.2924 21.7304C41.1618 22.1778 41.1007 22.6166 41.1093 23.0398C41.1249 24.413 41.8519 25.6514 43.2421 26.7406C44.3582 27.6154 45.4701 28.4959 46.5805 29.3763C46.6359 29.534 46.7765 29.649 46.9483 29.6675C47.1116 29.7967 47.2763 29.9273 47.4396 30.0566L45.2954 32.8286C43.2506 31.5363 40.8309 30.7851 38.238 30.7851C30.9279 30.7851 24.9795 36.7325 24.9795 44.0447C24.9795 51.3555 30.9265 57.3044 38.238 57.3044C45.1108 57.3044 50.7766 52.0471 51.4327 45.3427H52.3045C52.2875 45.6069 52.269 45.8724 52.2577 46.1366C52.2023 47.3351 52.8938 48.3889 53.9106 48.8604C53.9801 48.8944 54.0511 48.9214 54.1236 48.9484C55.3107 49.3901 56.6796 49.0819 57.4222 48.0196C57.8113 47.463 58.0456 46.7146 58.1138 46.0286C58.1791 45.3683 58.243 44.7093 58.3055 44.049L58.3182 44.032L68.1588 31.3091L68.8759 32.7804C65.1144 35.1221 62.6038 39.2944 62.6038 44.0433C62.6038 51.3541 68.5508 57.303 75.8623 57.303C83.1725 57.303 89.1209 51.3555 89.1209 44.0433C89.1195 36.7325 83.1725 30.7851 75.8609 30.7851ZM58.7968 29.6717H66.1396L58.7414 39.2362C58.9445 36.9626 59.1504 34.689 59.3875 32.4168C59.5039 31.3134 59.3023 30.4173 58.7968 29.6717ZM44.4164 38.2123C45.5737 39.4379 46.3718 41.0028 46.6402 42.7425H40.9105L44.4164 38.2123ZM37.2341 43.2495C37.227 43.258 37.2213 43.2679 37.2156 43.2764C37.2 43.2977 37.1858 43.3176 37.1716 43.3404C37.1602 43.3574 37.1503 43.3744 37.1404 43.3915C37.129 43.4114 37.1177 43.4298 37.1077 43.4497C37.0978 43.4682 37.0893 43.488 37.0807 43.5065C37.0722 43.5264 37.0637 43.5448 37.0552 43.5647C37.0467 43.5846 37.0396 43.6045 37.0325 43.6244C37.0254 43.6443 37.0197 43.6641 37.0126 43.6854C37.0069 43.7067 37.0012 43.7266 36.997 43.7479C36.9927 43.7678 36.9884 43.7891 36.9842 43.809C36.9799 43.8317 36.9771 43.853 36.9742 43.8757C36.9714 43.8956 36.9685 43.9155 36.9671 43.934C36.9657 43.9581 36.9643 43.9823 36.9629 44.0078C36.9629 44.0206 36.9615 44.032 36.9615 44.0447C36.9615 44.0504 36.9629 44.0575 36.9629 44.0632C36.9629 44.0888 36.9643 44.1129 36.9671 44.1385C36.9685 44.1569 36.97 44.1754 36.9714 44.1938C36.9742 44.2166 36.9785 44.2393 36.9813 44.2634C36.9842 44.2833 36.987 44.3018 36.9913 44.3217C36.9955 44.343 37.0026 44.3643 37.0083 44.387C37.014 44.4054 37.0183 44.4253 37.0239 44.4438C37.031 44.4665 37.041 44.4892 37.0495 44.512C37.0552 44.5276 37.0609 44.5446 37.068 44.5602C37.0793 44.5872 37.0921 44.6128 37.1063 44.6383C37.112 44.6497 37.1162 44.6596 37.1219 44.671C37.1375 44.6994 37.1546 44.7278 37.173 44.7548C37.1773 44.7619 37.1815 44.769 37.1858 44.7761C37.2043 44.8045 37.2256 44.8301 37.2469 44.857C37.2525 44.8641 37.2568 44.8698 37.2625 44.8769C37.2824 44.9011 37.3051 44.9238 37.3264 44.9479C37.3335 44.955 37.3406 44.9636 37.3491 44.9707C37.3704 44.9905 37.3917 45.0104 37.4144 45.0289C37.4244 45.0374 37.4357 45.0473 37.4457 45.0559C37.4528 45.0615 37.4599 45.0686 37.467 45.0743C37.4826 45.0857 37.4982 45.0956 37.5138 45.107C37.5252 45.1155 37.5365 45.124 37.5493 45.1311C37.5749 45.1482 37.599 45.1624 37.6246 45.1766C37.6345 45.1822 37.6459 45.1879 37.6558 45.1936C37.6842 45.2092 37.7126 45.222 37.7425 45.2348C37.751 45.2391 37.7595 45.2419 37.768 45.2462C37.8007 45.2589 37.8319 45.2717 37.8646 45.2817C37.8717 45.2845 37.8774 45.2859 37.8845 45.2873C37.92 45.2987 37.9554 45.3072 37.9924 45.3157C37.9966 45.3172 38.0009 45.3172 38.0066 45.3186C38.0463 45.3271 38.0861 45.3328 38.1258 45.337C38.1287 45.337 38.1301 45.337 38.133 45.3385C38.177 45.3427 38.2196 45.3456 38.2636 45.3456C38.2792 45.3456 38.2962 45.3456 38.3119 45.3456H46.643C46.0154 49.4199 42.4867 52.5498 38.2409 52.5498C33.5534 52.5498 29.7393 48.7354 29.7393 44.0476C29.7393 39.3598 33.5534 35.5453 38.2409 35.5453C39.739 35.5453 41.1462 35.9359 42.3688 36.6189L37.2341 43.2495ZM51.4327 42.7439C51.1132 39.4805 49.6051 36.5621 47.3487 34.4249L49.4787 31.6712C50.2058 32.2464 50.9328 32.8201 51.6613 33.391C52.0106 33.631 52.3642 33.8653 52.7178 34.1039C53.1622 34.4021 53.2716 34.7131 53.2162 35.2272C52.9876 37.4284 52.803 39.6338 52.607 41.8379C52.58 42.1404 52.553 42.4428 52.5246 42.7453H51.4327V42.7439ZM71.0102 37.1586L74.8385 45.009C75.1538 45.6537 75.9319 45.9221 76.5766 45.6069C77.2213 45.2916 77.4897 44.5134 77.1744 43.8686L73.3234 35.9714C74.1626 35.693 75.0586 35.5411 75.9887 35.5411C80.6761 35.5411 84.4903 39.3555 84.4903 44.0433C84.4903 48.7311 80.6761 52.5456 75.9887 52.5456C71.3013 52.5456 67.4872 48.7311 67.4872 44.0433C67.4872 41.2144 68.8774 38.7051 71.0102 37.1586Z" fill="#53AE00"/>
<path d="M39.7105 19.9212C39.9689 20.2777 40.4674 20.3572 40.8238 20.0988L52.6467 11.5312L45.3124 1.40717L33.4895 9.97474C33.1331 10.2332 33.0535 10.7317 33.312 11.0881L39.7105 19.9212Z" fill="#53AE00"/>
<path d="M54.3053 10.2942C54.6177 10.0684 54.6872 9.63105 54.4615 9.32004L47.9451 0.325017C47.7193 0.0125907 47.282 -0.056995 46.971 0.168804L45.8975 0.947029L53.2332 11.0711L54.3053 10.2942Z" fill="#53AE00"/>
<path d="M63.4416 12.6952C63.4814 12.7222 63.5211 12.7506 63.5637 12.7748C65.8584 14.2417 68.9356 13.6112 70.499 11.3234C72.0965 8.98872 71.4603 5.80766 69.0747 4.22281C68.6672 3.95156 68.2341 3.75133 67.7911 3.61358C65.7335 2.97736 63.4061 3.74139 62.0912 5.64008C60.505 7.92932 61.1171 11.1161 63.4416 12.6952Z" fill="#53AE00"/>
<path d="M17.6478 30.7851H3.91501C2.73215 30.7851 1.79779 31.1288 1.11051 31.8161C0.42323 32.5034 0.0795898 33.4393 0.0795898 34.6208V52.5612C0.0795898 53.2769 0.16195 53.8535 0.32667 54.2937C0.49139 54.734 0.73847 55.0776 1.06933 55.3247C1.39877 55.5718 1.80489 55.7451 2.28627 55.8402C2.76765 55.9368 3.32429 55.9851 3.95619 55.9851C4.58809 55.9851 5.22709 55.9439 5.87461 55.8615C6.52071 55.7792 6.99499 55.6968 7.29745 55.6144V46.912H14.5139C15.2835 46.912 15.8956 46.6847 16.3485 46.2317C16.8029 45.7773 17.0287 45.0289 17.0287 43.9837C17.0287 43.4341 16.952 42.9115 16.8015 42.4173C16.6496 41.9217 16.465 41.524 16.2449 41.2215H7.21367V36.5607H15.8743C16.6439 36.5607 17.2559 36.3335 17.7089 35.8805C18.1619 35.4275 18.3891 34.6634 18.3891 33.5912C18.3891 33.0417 18.3124 32.512 18.1619 32.0036C18.0114 31.4937 17.8395 31.0876 17.6478 30.7851Z" fill="#53AE00"/>
<path d="M119.664 38.1658C118.976 36.5156 118.006 35.1495 116.757 34.0617C115.506 32.9753 114.008 32.1715 112.261 31.6489C110.515 31.1263 108.571 30.865 106.426 30.865C105.381 30.865 104.2 30.9261 102.879 31.051C101.56 31.1746 100.308 31.4288 99.1261 31.8136C98.5766 32.0068 98.1435 32.261 97.8268 32.5762C97.5102 32.8929 97.3525 33.3388 97.3525 33.9168V53.1765C97.3525 54.6066 98.108 55.6092 99.6203 56.1871C100.17 56.4073 100.768 56.5791 101.414 56.7026C102.06 56.8262 102.706 56.9299 103.352 57.0122C103.998 57.0946 104.623 57.15 105.228 57.177C105.833 57.204 106.368 57.2182 106.837 57.2182C108.899 57.2182 110.781 56.9426 112.487 56.3931C114.191 55.8435 115.655 55.0113 116.879 53.8979C118.102 52.7845 119.044 51.4099 119.703 49.7739C120.364 48.1379 120.693 46.2207 120.693 44.021C120.695 41.7687 120.351 39.816 119.664 38.1658ZM112.796 47.4662C112.48 48.3878 112.04 49.1363 111.477 49.7142C110.914 50.2922 110.24 50.7183 109.457 50.9923C108.673 51.2679 107.814 51.4042 106.879 51.4042C106.493 51.4042 106.081 51.3829 105.643 51.3417C105.202 51.3005 104.832 51.2522 104.529 51.1968V36.8465C104.941 36.7911 105.347 36.75 105.746 36.723C106.144 36.696 106.536 36.6818 106.922 36.6818C108.846 36.6818 110.387 37.3081 111.541 38.5578C112.696 39.8089 113.274 41.6721 113.274 44.1459C113.272 45.4397 113.113 46.546 112.796 47.4662Z" fill="#53AE00"/>
</svg>
