<svg width="268" height="45" viewBox="0 0 268 45" fill="none" xmlns="http://www.w3.org/2000/svg">
<path d="M53.648 28.024H50.072V24.424H57.248V31.912C56.528 32.632 55.568 33.208 54.368 33.64C53.2 34.072 52.064 34.288 50.96 34.288C48.144 34.288 45.936 33.504 44.336 31.936C42.752 30.368 41.96 28.256 41.96 25.6C41.96 23.12 42.736 21.056 44.288 19.408C45.856 17.744 47.92 16.912 50.48 16.912C52.688 16.912 54.52 17.496 55.976 18.664L54.368 21.76C54.032 21.408 53.536 21.112 52.88 20.872C52.24 20.632 51.592 20.512 50.936 20.512C49.448 20.512 48.256 20.952 47.36 21.832C46.48 22.712 46.04 23.968 46.04 25.6C46.04 27.152 46.488 28.392 47.384 29.32C48.296 30.232 49.504 30.688 51.008 30.688C51.456 30.688 51.96 30.6 52.52 30.424C53.048 30.248 53.424 30.056 53.648 29.848V28.024ZM69.2375 28.12V34H65.3975V17.2C66.3095 17.2 67.3175 17.192 68.4215 17.176C69.5255 17.16 70.4215 17.152 71.1095 17.152C75.2535 17.152 77.3255 18.944 77.3255 22.528C77.3255 24.832 76.3815 26.448 74.4935 27.376L79.3895 34H74.7335L70.6535 28.12H69.2375ZM70.9175 20.752C70.9015 20.752 70.8295 20.76 70.7015 20.776C70.5735 20.776 70.3735 20.784 70.1015 20.8C69.8295 20.8 69.5415 20.8 69.2375 20.8V24.52H70.6295C72.3735 24.52 73.2455 23.872 73.2455 22.576C73.2455 21.36 72.4695 20.752 70.9175 20.752ZM88.0499 34H84.1859L91.1699 17.2H94.6019L101.586 34H97.4819L96.0899 30.472H89.4419L88.0499 34ZM94.6499 26.872L92.7779 22.12L90.8819 26.872H94.6499ZM112.617 34H108.777V17.2H112.617V34ZM136.625 17.2V34H133.553L125.585 23.92V34H121.985V17.2H125.057L133.025 27.328V17.2H136.625ZM149.586 34H145.746V17.2H149.61L154.794 24.28L159.69 17.2H163.314V34H159.474V23.296L154.794 29.848H154.242L149.586 23.368V34ZM174.141 34H170.277L177.261 17.2H180.693L187.677 34H183.573L182.181 30.472H175.533L174.141 34ZM180.741 26.872L178.869 22.12L176.973 26.872H180.741ZM198.467 28.12V34H194.627V17.2C195.539 17.2 196.547 17.192 197.651 17.176C198.755 17.16 199.651 17.152 200.339 17.152C204.483 17.152 206.555 18.944 206.555 22.528C206.555 24.832 205.611 26.448 203.723 27.376L208.619 34H203.963L199.883 28.12H198.467ZM200.147 20.752C200.131 20.752 200.059 20.76 199.931 20.776C199.803 20.776 199.603 20.784 199.331 20.8C199.059 20.8 198.771 20.8 198.467 20.8V24.52H199.859C201.603 24.52 202.475 23.872 202.475 22.576C202.475 21.36 201.699 20.752 200.147 20.752ZM219.416 34H215.576V17.2H219.416V24.52L224.912 17.2H229.52L223.208 24.952L230.024 34H225.152L219.416 26.008V34ZM247.193 34H236.993V17.2H246.953V20.8H240.833V23.752H246.233V27.352H240.833V30.4H247.193V34ZM258.718 20.8H253.678V17.2H267.598V20.8H262.558V34H258.718V20.8Z" fill="#234048"/>
<g clip-path="url(#clip0)">
<path d="M11.8016 36.4808C10.5064 36.4795 9.26458 35.9667 8.34872 35.0549C7.43286 34.1431 6.91777 32.9068 6.91651 31.6173V28.7192H9.45466L8.53213 27.8911C8.02307 27.4338 7.6162 26.8751 7.33788 26.2513C7.05956 25.6274 6.916 24.9523 6.91651 24.2697V21.3668H9.45466L8.53213 20.5578C8.025 20.103 7.61921 19.5475 7.34094 18.927C7.06267 18.3065 6.91808 17.6349 6.91651 16.9554V14.0572H9.83228C10.2155 14.0597 10.5973 14.106 10.9699 14.1952L11.9594 14.4332L11.51 13.5243C11.0607 12.6144 10.9076 11.5876 11.0722 10.5871C11.2367 9.5865 11.7105 8.66193 12.4278 7.94216L14.488 5.89111L16.5481 7.94216C17.2742 8.65599 17.7569 9.57861 17.9284 10.58C18.0999 11.5815 17.9515 12.6112 17.5041 13.5243L17.0548 14.4332L18.0442 14.1952C18.4169 14.106 18.7986 14.0597 19.1819 14.0572H22.0929V16.9554C22.091 17.6344 21.9468 18.3055 21.6694 18.9259C21.392 19.5462 20.9876 20.102 20.482 20.5578L19.5595 21.3858H22.0929V24.2697C22.0907 24.9486 21.9463 25.6197 21.669 26.24C21.3916 26.8603 20.9874 27.4161 20.482 27.8721L19.5595 28.7001H22.0929V31.5982C22.0948 32.2383 21.9698 32.8725 21.7252 33.4645C21.4806 34.0565 21.1212 34.5947 20.6674 35.0482C20.2137 35.5017 19.6745 35.8617 19.0809 36.1075C18.4872 36.3533 17.8507 36.4802 17.2078 36.4808H11.8016Z" fill="#FFC643"/>
<path d="M15.1957 0H13.8047V6.86697H15.1957V0Z" fill="#545454"/>
<path d="M22.5565 4.1543H21.1655V14.2715H22.5565V4.1543Z" fill="#545454"/>
<path d="M18.8758 2.07959H17.4849V14.2764H18.8758V2.07959Z" fill="#545454"/>
<path d="M11.515 2.07959H10.124V14.2764H11.515V2.07959Z" fill="#545454"/>
<path d="M7.82944 4.1543H6.43848V14.2715H7.82944V4.1543Z" fill="#545454"/>
<path d="M15.8288 22.4064L14.4971 21.0806L13.1654 22.4064L14.4971 23.7322L15.8288 22.4064Z" fill="#545454"/>
<path d="M14.4976 44.0003L14.206 43.867C5.44437 39.8458 0 32.127 0 23.7182V10.5981H7.13648V11.9877H1.40053V23.7182C1.40053 31.4846 6.4147 38.6466 14.5072 42.4727C22.6044 38.6656 27.6186 31.4846 27.6186 23.7182V11.9877H21.8826V10.5981H29V23.7182C29 32.127 23.5556 39.8458 14.7892 43.867L14.4976 44.0003Z" fill="#545454"/>
<path d="M27.609 23.7182C27.609 31.4846 22.5949 38.6466 14.4976 42.4727C12.0655 41.3359 9.82943 39.8229 7.87259 37.9899C7.49975 37.6377 7.13648 37.2761 6.79232 36.9049C6.44816 36.5337 6.11835 36.1673 5.80765 35.7628C5.18318 34.9951 4.61452 34.184 4.10598 33.3358C3.85743 32.917 3.62799 32.4887 3.40333 32.0556C3.17867 31.6226 2.98747 31.1848 2.80105 30.7374C1.87454 28.512 1.39547 26.1272 1.39097 23.7182V11.9877H7.12692V10.5981H0V23.7182C0 32.127 5.44437 39.8458 14.206 43.867L14.4976 44.0003L14.7892 43.867C23.5556 39.8458 29 32.127 29 23.7182V10.5981H21.8635V11.9877H27.5995L27.609 23.7182Z" fill="#545454"/>
<path d="M2.96826 13.5581V23.7182C2.97938 26.0708 3.48409 28.3952 4.45005 30.5423V13.5581H2.96826Z" fill="#545454"/>
<path d="M26.0316 13.5581H24.5498V30.5423C25.5158 28.3952 26.0205 26.0708 26.0316 23.7182V13.5581Z" fill="#545454"/>
<path d="M15.1954 22.2954H11.8016C10.3796 22.2942 9.0162 21.7312 8.01069 20.7302C7.00519 19.7291 6.43974 18.3717 6.43848 16.956V13.582H9.83225C11.2542 13.5833 12.6176 14.1462 13.6231 15.1473C14.6286 16.1483 15.1941 17.5057 15.1954 18.9214V22.2954ZM7.82944 14.9668V16.956C7.83071 18.0045 8.24961 19.0096 8.99426 19.7509C9.7389 20.4923 10.7485 20.9093 11.8016 20.9106H13.8044V18.9214C13.8031 17.873 13.3842 16.8679 12.6396 16.1265C11.8949 15.3851 10.8853 14.9681 9.83225 14.9668H7.82944Z" fill="#545454"/>
<path d="M17.208 22.2954H13.8047V18.9214C13.806 17.5057 14.3714 16.1483 15.3769 15.1473C16.3824 14.1462 17.7458 13.5833 19.1678 13.582H22.5568V16.956C22.5555 18.3693 21.9921 19.7245 20.9896 20.7251C19.9872 21.7258 18.6275 22.2904 17.208 22.2954ZM15.21 20.9106H17.208C18.2611 20.9093 19.2707 20.4923 20.0153 19.7509C20.76 19.0096 21.1789 18.0045 21.1802 16.956V14.9668H19.1678C18.1147 14.9681 17.1051 15.3851 16.3605 16.1265C15.6158 16.8679 15.1969 17.873 15.1957 18.9214L15.21 20.9106Z" fill="#545454"/>
<path d="M15.1954 29.6283H11.8016C11.0959 29.6277 10.3972 29.4885 9.74556 29.2188C9.09391 28.949 8.50208 28.554 8.00395 28.0563C7.50581 27.5586 7.11114 26.968 6.84252 26.3183C6.5739 25.6686 6.43661 24.9725 6.4385 24.2699V20.8911H9.83226C10.538 20.8917 11.2367 21.0309 11.8883 21.3006C12.54 21.5704 13.1318 21.9654 13.6299 22.4631C14.1281 22.9608 14.5227 23.5514 14.7913 24.2011C15.06 24.8509 15.1973 25.5469 15.1954 26.2495V29.6283ZM7.82946 22.295V24.2699C7.83073 25.3183 8.24963 26.3234 8.99427 27.0648C9.73892 27.8061 10.7485 28.2232 11.8016 28.2245H13.8044V26.2495C13.8031 25.2011 13.3842 24.196 12.6396 23.4546C11.8949 22.7133 10.8854 22.2962 9.83226 22.295H7.82946Z" fill="#545454"/>
<path d="M17.208 29.6283H13.8047V26.2495C13.806 24.8338 14.3714 23.4765 15.3769 22.4754C16.3824 21.4744 17.7458 20.9114 19.1678 20.9102H22.5568V24.2699C22.5606 25.6864 21.9994 27.0465 20.9964 28.0513C19.9935 29.056 18.6308 29.6233 17.208 29.6283ZM15.21 28.2435H17.208C18.2619 28.2384 19.2707 27.8171 20.0128 27.0721C20.7549 26.327 21.1696 25.3191 21.1658 24.2699V22.295H19.1678C18.1147 22.2962 17.1051 22.7133 16.3605 23.4546C15.6158 24.196 15.1969 25.2011 15.1957 26.2495L15.21 28.2435Z" fill="#545454"/>
<path d="M15.1954 36.957H11.8016C10.3796 36.9558 9.0162 36.3928 8.01069 35.3918C7.00519 34.3907 6.43974 33.0334 6.43848 31.6177V28.2437H9.83225C11.2542 28.2449 12.6176 28.8079 13.6231 29.8089C14.6286 30.81 15.1941 32.1673 15.1954 33.583V36.957ZM7.82944 29.6285V31.6177C7.83071 32.6661 8.24961 33.6712 8.99426 34.4126C9.7389 35.1539 10.7485 35.571 11.8016 35.5722H13.8044V33.583C13.8031 32.5346 13.3842 31.5295 12.6396 30.7881C11.8949 30.0468 10.8853 29.6297 9.83225 29.6285H7.82944Z" fill="#545454"/>
<path d="M17.208 36.957H13.8047V33.583C13.806 32.1673 14.3714 30.81 15.3769 29.8089C16.3824 28.8079 17.7458 28.2449 19.1678 28.2437H22.5568V31.6177C22.5555 33.0309 21.9921 34.3861 20.9896 35.3867C19.9872 36.3874 18.6275 36.952 17.208 36.957ZM15.21 35.5722H17.208C18.2611 35.571 19.2707 35.1539 20.0153 34.4126C20.76 33.6712 21.1789 32.6661 21.1802 31.6177V29.6285H19.1678C18.1147 29.6297 17.1051 30.0468 16.3605 30.7881C15.6158 31.5295 15.1969 32.5346 15.1957 33.583L15.21 35.5722Z" fill="#545454"/>
<path d="M14.4976 17.5456L12.1076 15.1661C11.6096 14.6707 11.2145 14.0824 10.9449 13.4349C10.6754 12.7874 10.5366 12.0933 10.5366 11.3924C10.5366 10.6915 10.6754 9.99741 10.9449 9.34989C11.2145 8.70237 11.6096 8.11409 12.1076 7.61866L14.4976 5.23926L16.8876 7.61866C17.3862 8.11377 17.7818 8.70195 18.0517 9.34951C18.3216 9.99708 18.4606 10.6913 18.4606 11.3924C18.4606 12.0935 18.3216 12.7877 18.0517 13.4353C17.7818 14.0829 17.3862 14.671 16.8876 15.1661L14.4976 17.5456ZM14.4976 7.18085L13.0636 8.6085C12.3202 9.3507 11.9027 10.3561 11.9027 11.4043C11.9027 12.4525 12.3202 13.4579 13.0636 14.2001L14.4976 15.604L15.9316 14.2001C16.3014 13.8335 16.5949 13.3979 16.7952 12.9181C16.9954 12.4383 17.0985 11.9239 17.0985 11.4043C17.0985 10.8847 16.9954 10.3703 16.7952 9.89052C16.5949 9.41074 16.3014 8.97506 15.9316 8.6085L14.4976 7.18085Z" fill="#545454"/>
<path d="M15.1957 33.3354H13.8047V43.2385H15.1957V33.3354Z" fill="#545454"/>
<path d="M15.8288 29.8639L14.4971 28.5381L13.1654 29.8639L14.4971 31.1897L15.8288 29.8639Z" fill="#545454"/>
</g>
<defs>
<clipPath id="clip0">
<rect width="29" height="44" fill="white"/>
</clipPath>
</defs>
</svg>
