<svg width="151" height="78" viewBox="0 0 151 78" fill="none" xmlns="http://www.w3.org/2000/svg">
<path d="M99.0184 12.8779C100.547 12.8779 102.171 13.3091 103.36 14.3776L102.038 16.4396C101.397 15.8585 100.245 15.4086 99.2826 15.4086C96.9044 15.4086 95.9418 16.9082 95.9418 18.5766C95.9418 20.7135 97.4329 21.9882 99.1883 21.9882C100.019 21.9882 100.83 21.6696 101.472 21.1634V20.3011H99.8678V17.9392H103.907V24.2752H101.604V23.9565C101.604 23.7128 101.623 23.4879 101.623 23.4879H101.585C100.906 24.0877 99.7168 24.4626 98.622 24.4626C95.7341 24.4626 93.0728 22.3069 93.0728 18.6328C93.0916 15.3898 95.5643 12.8779 99.0184 12.8779Z" fill="#3A4F4E"/>
<path d="M107.003 13.0652H110.929C112.08 13.0652 112.627 13.1402 113.118 13.3276C114.402 13.815 115.194 14.9585 115.194 16.5893C115.194 17.7891 114.628 19.0825 113.496 19.6449V19.6823C113.496 19.6823 113.647 19.8885 113.93 20.3572L116.119 24.275H113.043L111.042 20.4884H109.739V24.275H106.965V13.0652H107.003ZM110.966 18.1452C111.853 18.1452 112.401 17.6578 112.401 16.758C112.401 16.1957 112.25 15.7645 111.74 15.5583C111.495 15.4459 111.155 15.4084 110.702 15.4084H109.777V18.1452H110.966Z" fill="#3A4F4E"/>
<path d="M118.516 13.0652H125.594V15.4271H121.272V17.4704H124.726V19.8323H121.272V21.9318H125.802V24.2937H118.497V13.0652H118.516Z" fill="#3A4F4E"/>
<path d="M128.69 13.0652H135.768V15.4271H131.446V17.4704H134.9V19.8323H131.446V21.9318H135.976V24.2937H128.671V13.0652H128.69Z" fill="#3A4F4E"/>
<path d="M138.864 13.0652H141.657L144.79 18.3139C145.224 19.045 145.734 20.226 145.734 20.226H145.772C145.772 20.226 145.64 19.0263 145.64 18.3139V13.0652H148.395V24.2937H145.621L142.469 19.0637C142.035 18.3327 141.525 17.1517 141.525 17.1517H141.487C141.487 17.1517 141.619 18.3514 141.619 19.0637V24.2937H138.845V13.0652H138.864Z" fill="#3A4F4E"/>
<path d="M96.1115 34.1166H92.6763V31.7546H102.303V34.1166H98.8673V42.9832H96.1115V34.1166Z" fill="#3A4F4E"/>
<path d="M104.794 31.7546H111.872V34.1166H107.55V36.1598H110.985V38.5218H107.55V40.64H112.08V43.0019H104.775V31.7546H104.794Z" fill="#3A4F4E"/>
<path d="M120.083 31.5671C121.593 31.5671 123.216 32.0733 124.311 33.1605L123.027 35.2225C122.291 34.6039 121.215 34.079 120.196 34.079C117.931 34.079 117.006 35.6724 117.006 37.2845C117.006 38.9529 118.025 40.6587 120.196 40.6587C121.31 40.6587 122.423 40.0401 123.197 39.2715L124.613 41.2773C123.612 42.2896 122.14 43.1519 120.064 43.1519C116.421 43.1519 114.137 40.6587 114.137 37.322C114.156 34.079 116.591 31.5671 120.083 31.5671Z" fill="#3A4F4E"/>
<path d="M127.161 31.7546H129.917V36.2348H134.032V31.7546H136.787V42.9832H134.032V38.5967H129.917V42.9832H127.161V31.7546Z" fill="#3A4F4E"/>
<path d="M96.1115 52.8246H92.6763V50.4626H102.303V52.8246H98.8673V61.6912H96.1115V52.8246Z" fill="#3A4F4E"/>
<path d="M104.794 50.4626H108.72C109.872 50.4626 110.419 50.5376 110.91 50.7251C112.193 51.2125 112.986 52.3559 112.986 53.9868C112.986 55.1865 112.42 56.4799 111.287 57.0423V57.0798C111.287 57.0798 111.438 57.286 111.721 57.7546L113.911 61.6725H110.834L108.834 57.8859H107.531V61.6725H104.775V50.4626H104.794ZM108.758 55.5427C109.645 55.5427 110.193 55.0553 110.193 54.1555C110.193 53.5931 110.042 53.162 109.532 52.9558C109.287 52.8433 108.947 52.8058 108.494 52.8058H107.569V55.5427H108.758Z" fill="#3A4F4E"/>
<path d="M118.912 50.4626H121.819L125.651 61.6912H122.801L122.102 59.3293H118.573L117.893 61.6912H115.043L118.912 50.4626ZM121.46 57.136L120.838 54.9616C120.63 54.2492 120.385 53.0308 120.385 53.0308H120.347C120.347 53.0308 120.101 54.2492 119.894 54.9616L119.252 57.136H121.46Z" fill="#3A4F4E"/>
<path d="M127.897 50.4626H131.917C135.466 50.4626 137.75 52.5246 137.75 56.0488C137.75 59.573 135.466 61.6912 131.917 61.6912H127.897V50.4626ZM131.804 59.3293C133.71 59.3293 134.881 58.2045 134.881 56.0488C134.881 53.9118 133.673 52.8246 131.804 52.8246H130.672V59.3293H131.804Z" fill="#3A4F4E"/>
<path d="M140.657 50.4626H147.735V52.8246H143.412V54.8678H146.866V57.2298H143.412V59.348H147.942V61.7099H140.638V50.4626H140.657Z" fill="#3A4F4E"/>
<path d="M93.5252 67.165H94.1103V70.2955H94.7898L96.0545 68.7584H96.7528L95.2617 70.5205V70.5392L96.9038 72.8074H96.2055L94.7898 70.8017H94.0915V72.8074H93.5063V67.165H93.5252Z" fill="#3A4F4E"/>
<path d="M99.9807 68.6648C101.151 68.6648 101.755 69.5271 101.755 70.5206C101.755 70.6143 101.755 70.7081 101.736 70.8018H98.4707C98.4896 71.8328 99.2446 72.3952 100.132 72.3952C100.604 72.3952 101.075 72.2077 101.434 71.9078L101.698 72.3202C101.302 72.6576 100.679 72.8825 100.113 72.8825C98.8482 72.8825 97.8667 72.0202 97.8667 70.783C97.8667 69.4521 98.8105 68.6648 99.9807 68.6648ZM101.17 70.3706C101.132 69.5271 100.585 69.1147 99.9618 69.1147C99.2446 69.1147 98.6217 69.5646 98.4896 70.3706H101.17Z" fill="#3A4F4E"/>
<path d="M105.247 68.6648C106.417 68.6648 107.021 69.5271 107.021 70.5206C107.021 70.6143 107.021 70.7081 107.002 70.8018H103.737C103.756 71.8328 104.511 72.3952 105.398 72.3952C105.87 72.3952 106.342 72.2077 106.7 71.9078L106.964 72.3202C106.568 72.6576 105.945 72.8825 105.379 72.8825C104.114 72.8825 103.133 72.0202 103.133 70.783C103.133 69.4521 104.095 68.6648 105.247 68.6648ZM106.436 70.3706C106.398 69.5271 105.851 69.1147 105.228 69.1147C104.511 69.1147 103.888 69.5646 103.756 70.3706H106.436Z" fill="#3A4F4E"/>
<path d="M108.701 68.7586H109.248V69.1897C109.248 69.3584 109.229 69.5084 109.229 69.5084H109.248C109.512 68.9835 110.078 68.6836 110.739 68.6836C111.89 68.6836 112.589 69.5459 112.589 70.7831C112.589 72.0578 111.796 72.9013 110.682 72.9013C110.078 72.9013 109.55 72.6014 109.267 72.0953H109.248C109.248 72.0953 109.267 72.2452 109.267 72.4514V74.401H108.682V68.7586H108.701ZM110.626 72.3952C111.381 72.3952 112.004 71.7953 112.004 70.7831C112.004 69.7896 111.437 69.171 110.645 69.171C109.927 69.171 109.267 69.6584 109.267 70.8018C109.267 71.5891 109.739 72.3952 110.626 72.3952Z" fill="#3A4F4E"/>
<path d="M116.968 67.165H117.591V67.8399H116.968V67.165ZM117.006 68.7584H117.591V72.7887H117.006V68.7584Z" fill="#3A4F4E"/>
<path d="M119.686 69.246H119.12V68.7961H119.686V67.6526H120.252V68.7961H121.328V69.246H120.252V71.2705C120.252 72.2077 120.894 72.3389 121.215 72.3389C121.271 72.3389 121.328 72.3389 121.404 72.3202V72.8076C121.347 72.8076 121.271 72.8263 121.158 72.8263C120.667 72.8263 119.667 72.6764 119.667 71.3267V69.246H119.686Z" fill="#3A4F4E"/>
<path d="M127.085 73.9698C127.915 73.9698 128.576 73.6136 128.576 72.7138V72.3202C128.576 72.1702 128.614 72.0202 128.614 72.0202H128.595C128.35 72.4701 127.897 72.7701 127.236 72.7701C126.085 72.7701 125.33 71.9078 125.33 70.7081C125.33 69.5083 126.028 68.6648 127.179 68.6648C127.746 68.6648 128.331 68.871 128.595 69.3771H128.614C128.614 69.3771 128.595 69.3209 128.595 69.2459V68.7773H129.161V72.7138C129.161 73.9885 128.161 74.4946 127.104 74.4946C126.613 74.4946 126.122 74.3822 125.707 74.1572L125.915 73.7073C126.254 73.8573 126.689 73.9698 127.085 73.9698ZM127.311 72.2827C127.991 72.2827 128.576 71.889 128.576 70.7081C128.576 69.5271 127.991 69.1522 127.236 69.1522C126.405 69.1522 125.915 69.7333 125.915 70.6893C125.915 71.6641 126.481 72.2827 127.311 72.2827Z" fill="#3A4F4E"/>
<path d="M131.124 68.7584H131.691V69.5083C131.691 69.677 131.653 69.8269 131.653 69.8269H131.672C131.879 69.2271 132.37 68.7209 133.031 68.7209C133.106 68.7209 133.201 68.7209 133.257 68.7397V69.2833C133.238 69.2833 133.125 69.2646 133.05 69.2646C132.087 69.2646 131.691 70.2768 131.691 71.0829V72.7887H131.105V68.7584H131.124Z" fill="#3A4F4E"/>
<path d="M136.428 68.6648C137.598 68.6648 138.202 69.5271 138.202 70.5206C138.202 70.6143 138.202 70.7081 138.183 70.8018H134.918C134.937 71.8328 135.692 72.3952 136.579 72.3952C137.051 72.3952 137.523 72.2077 137.881 71.9078L138.146 72.3202C137.749 72.6576 137.126 72.8825 136.56 72.8825C135.295 72.8825 134.314 72.0202 134.314 70.783C134.314 69.4521 135.258 68.6648 136.428 68.6648ZM137.617 70.3706C137.579 69.5271 137.032 69.1147 136.409 69.1147C135.692 69.1147 135.069 69.5646 134.937 70.3706H137.617Z" fill="#3A4F4E"/>
<path d="M141.694 68.6648C142.864 68.6648 143.468 69.5271 143.468 70.5206C143.468 70.6143 143.468 70.7081 143.449 70.8018H140.184C140.203 71.8328 140.958 72.3952 141.845 72.3952C142.317 72.3952 142.789 72.2077 143.147 71.9078L143.412 72.3202C143.015 72.6576 142.392 72.8825 141.826 72.8825C140.562 72.8825 139.58 72.0202 139.58 70.783C139.58 69.4521 140.543 68.6648 141.694 68.6648ZM142.883 70.3706C142.845 69.5271 142.298 69.1147 141.675 69.1147C140.958 69.1147 140.335 69.5646 140.203 70.3706H142.883Z" fill="#3A4F4E"/>
<path d="M145.148 68.7585H145.715V69.3959C145.715 69.5646 145.677 69.7145 145.677 69.7145H145.696C145.866 69.3396 146.413 68.6648 147.413 68.6648C148.47 68.6648 148.848 69.2272 148.848 70.2207V72.7888H148.263V70.3706C148.263 69.7333 148.15 69.1709 147.338 69.1709C146.432 69.1709 145.715 69.8832 145.715 70.8205V72.7888H145.148V68.7585Z" fill="#3A4F4E"/>
<path d="M4.64307 73.1075L26.5569 30.4802L58.7199 30.8176L80.4451 73.1075H48.1688L42.5441 62.2726L37.0326 73.1075H4.64307Z" fill="#3A4F4E"/>
<path d="M57.7382 32.261L77.7835 71.3266H49.1312L43.4121 60.3605L57.7382 32.261Z" fill="white"/>
<path d="M41.6006 60.3607L36.0513 71.3268H7.30469L20.4228 45.6267H34.1638L41.6006 60.3607Z" fill="white"/>
<path d="M42.1479 32.0173L35.5605 44.8205L42.5254 58.4672L56.1532 32.0173H42.1479Z" fill="white"/>
<path d="M35.2583 45.6265H2.94434L24.4618 3.24292H56.7758L35.2583 45.6265Z" fill="#3A4F4E"/>
</svg>
