<svg width="288" height="57" viewBox="0 0 288 57" fill="none" xmlns="http://www.w3.org/2000/svg">
<path d="M8.35018 21.8353C8.691 22.5176 9.37266 23.0294 10.2247 22.8588L23.8578 20.9824C24.5395 20.8118 25.0507 20.4706 25.2212 19.7882C25.3916 19.1059 25.2212 18.4235 24.7099 18.0824L22.1537 15.8647L29.1407 3.41176L35.2756 3.58235L38.5135 7.67647C39.0247 8.35882 40.2176 8.52941 40.8993 8.01765C41.5809 7.50588 41.7513 6.31176 41.2401 5.62941L37.491 0.852941C37.1502 0.511765 36.6389 0.170588 36.1277 0.170588L28.2886 0C28.2886 0 28.2886 0 28.1182 0L15.5076 0.341176C14.9963 0.341176 14.4851 0.682353 14.1442 1.02353L9.03183 8.18824L4.60106 5.45882C3.91941 5.11765 3.06734 5.11765 2.55609 5.62941C2.04485 6.14118 1.87444 6.99412 2.04485 7.67647L5.19751 14.7559L8.35018 21.8353ZM16.53 3.75294L25.2212 3.41176L18.4046 15.3529C18.0638 16.0353 18.2342 17.0588 18.7454 17.5706L19.2567 17.9118L10.9064 19.1059L7.32769 11.0882L8.691 11.9412C9.37266 12.4529 10.3951 12.1118 10.9064 11.4294L16.53 3.75294ZM80.6058 34.2882C77.5383 34.2882 74.9821 33.2647 72.9371 31.3882C70.8922 29.3412 69.8697 26.7824 69.8697 23.7118C69.8697 20.6412 70.8922 18.0824 72.9371 16.0353C74.9821 13.9882 77.5383 13.1353 80.6058 13.1353C84.1845 13.1353 86.9111 14.5 88.7857 17.4L85.8886 19.1059C85.3774 18.2529 84.5253 17.5706 83.6732 17.0588C82.8212 16.5471 81.7987 16.3765 80.6058 16.3765C78.5608 16.3765 76.8567 17.0588 75.4934 18.4235C74.13 19.7882 73.4484 21.6647 73.4484 23.7118C73.4484 25.7588 74.13 27.6353 75.4934 29C76.8567 30.3647 78.5608 31.0471 80.6058 31.0471C81.6283 31.0471 82.4803 30.8765 83.3324 30.5353C84.1845 30.1941 84.8661 29.6824 85.3774 29.1706V25.9294H79.2425V22.6882H88.9561V30.3647C86.9111 33.0941 84.0141 34.2882 80.6058 34.2882ZM108.724 33.9471H104.634L100.033 26.2706H96.4543V33.9471H92.8756V13.4765H101.908C103.953 13.4765 105.486 13.9882 106.679 15.1824C107.872 16.3765 108.554 17.9118 108.554 19.7882C108.554 21.4941 108.043 22.8588 107.191 23.8824C106.168 24.9059 105.146 25.5882 103.782 25.7588L108.724 33.9471ZM101.397 23.0294C102.419 23.0294 103.271 22.6882 103.953 22.1765C104.634 21.6647 104.975 20.8118 104.975 19.7882C104.975 18.7647 104.634 18.0824 103.953 17.4C103.271 16.8882 102.419 16.5471 101.397 16.5471H96.4543V23.0294H101.397ZM126.107 33.9471H112.133V13.4765H126.107V16.7176H115.711V22.0059H125.936V25.2471H115.711V30.7059H126.107V33.9471ZM143.83 33.9471H129.856V13.4765H143.83V16.7176H133.434V22.0059H143.659V25.2471H133.434V30.7059H143.83V33.9471ZM165.302 33.9471H161.894L151.157 19.2765V33.9471H147.579V13.4765H151.328L161.723 27.6353V13.4765H165.302V33.9471ZM180.98 33.9471H177.401V13.4765H186.433C188.478 13.4765 190.182 14.1588 191.375 15.3529C192.568 16.5471 193.25 18.0824 193.25 19.9588C193.25 21.8353 192.568 23.2 191.375 24.5647C190.182 25.7588 188.649 26.4412 186.433 26.4412H180.98V33.9471ZM185.922 23.0294C186.944 23.0294 187.797 22.6882 188.478 22.1765C189.16 21.6647 189.501 20.8118 189.501 19.7882C189.501 18.7647 189.16 18.0824 188.478 17.4C187.797 16.8882 186.944 16.5471 185.922 16.5471H180.98V23.0294H185.922ZM208.757 33.9471H196.147V13.4765H199.726V30.7059H208.757V33.9471ZM230.4 33.9471H226.31L224.776 30.0235H215.404L213.87 33.9471H209.78L217.789 13.4765H222.22L230.4 33.9471ZM223.754 26.7824L220.005 17.0588L216.256 26.7824H223.754ZM250.339 33.9471H246.93L236.194 19.2765V33.9471H232.615V13.4765H236.365L246.76 27.6353V13.4765H250.339V33.9471ZM268.743 33.9471H254.769V13.4765H268.743V16.7176H258.348V22.0059H268.573V25.2471H258.348V30.7059H268.743V33.9471ZM280.843 33.9471H277.264V16.5471H271.129V13.4765H287.148V16.7176H281.013V33.9471H280.843ZM38.1726 14.5C38.5135 13.8176 39.1951 13.3059 39.8768 13.4765L55.2141 15.1824C55.8957 15.1824 56.5774 15.8647 56.7478 16.5471C56.9182 17.2294 56.5774 18.0824 55.8957 18.4235L51.2945 20.9824L54.8732 29C55.0436 29.5118 55.0436 30.0235 54.8732 30.5353L48.9087 41.6235C48.9087 41.6235 48.9087 41.6235 48.9087 41.7941L44.6484 48.6176C44.3076 49.1294 43.9667 49.3 43.4555 49.4706L27.2793 52C26.4272 52.1706 28.59 50.0705 28.59 50.0705L29.7558 48.3544L42.0922 46.4L45.33 41.1118L38.0022 28.8294L35.1052 30.0235C34.4235 30.1941 33.7419 30.1941 33.2306 29.6824C32.7194 29.1706 32.549 28.4882 32.8898 27.8059L38.1726 14.5ZM47.375 37.1882L51.465 29.5118L47.5454 20.9824C47.2046 20.1294 47.5454 19.2765 48.2271 18.7647L49.5904 17.9118L40.7289 16.8882L37.491 24.7353L38.0022 24.5647C38.8543 24.2235 39.7064 24.5647 40.0472 25.2471L47.375 37.1882ZM33.2306 40.9412C33.7419 41.4529 33.7419 42.3059 33.401 42.9882L24.7099 55.7824C24.3691 56.4647 23.517 56.6353 22.8354 56.4647C22.1537 56.2941 21.6425 55.6118 21.6425 54.9294L21.4721 49.4706L12.7809 48.9588C12.2697 48.9588 11.7584 48.6176 11.4176 48.2765L4.43065 37.8706C4.43065 37.8706 4.43065 37.8706 4.43065 37.7L0.170291 30.7059C-0.000123024 30.3647 -0.000123024 29.8529 0.170291 29.3412L5.19751 14.7559L6.14711 16.8882L6.98276 18.7647L3.57858 29.6824L6.64603 35.1412L20.9608 34.4588L21.3016 31.3882C21.3016 30.7059 21.8129 30.1941 22.4945 29.8529C23.1762 29.6824 23.8579 29.8529 24.3691 30.3647L33.2306 40.9412ZM8.86142 38.3824L13.633 45.5471L23.0058 46.0588C23.8579 46.0588 24.5395 46.7412 24.5395 47.7647V49.4706L29.4815 42.1353L24.0283 35.6529V36.3353C23.8579 37.1882 23.1762 37.8706 22.4945 37.8706L8.86142 38.3824ZM78.22 51.0059H79.0721V43.6706H72.9371V51.0059H73.7892V44.3529H78.0496V51.0059H78.22ZM80.7762 51.0059H85.5478V50.1529H81.7987V47.5941H85.7182V46.7412H81.7987V44.3529H85.7182V43.5H80.9466V51.0059H80.7762ZM87.0815 51.0059H87.9336V48.1059H89.9786C90.6602 48.1059 91.1715 47.9353 91.6827 47.4235C92.0235 46.9118 92.3644 46.4 92.3644 45.8882C92.3644 45.2059 92.1939 44.6941 91.6827 44.3529C91.3419 43.8412 90.6602 43.6706 89.9786 43.6706H87.0815V51.0059ZM91.0011 46.7412C90.6602 47.0823 90.3194 47.0824 89.9786 47.0824H88.104V44.3529H89.9786C90.4898 44.3529 90.8306 44.5235 91.0011 44.6941C91.3419 45.0353 91.3419 45.2059 91.3419 45.7176C91.5123 46.2294 91.3419 46.5706 91.0011 46.7412ZM93.5573 51.0059H98.3289V50.1529H94.4093V47.5941H98.3289V46.7412H94.4093V44.3529H98.3289V43.5H93.5573V51.0059ZM99.8626 51.0059H100.715V48.1059H102.76C103.441 48.1059 103.953 47.9353 104.464 47.4235C104.805 46.9118 105.146 46.4 105.146 45.8882C105.146 45.2059 104.975 44.6941 104.464 44.3529C104.123 43.8412 103.441 43.6706 102.76 43.6706H99.8626V51.0059ZM103.782 46.7412C103.441 47.0823 103.101 47.0824 102.76 47.0824H100.885V44.3529H102.76C103.271 44.3529 103.612 44.5235 103.782 44.6941C104.123 45.0353 104.123 45.2059 104.123 45.7176C104.294 46.2294 104.123 46.5706 103.782 46.7412ZM110.94 51.0059H111.962L109.065 43.6706H107.872L104.975 51.0059H105.998L106.679 49.3H110.428L110.94 51.0059ZM108.383 44.5235L109.917 48.4471H106.85L108.383 44.5235ZM117.756 43.5H112.985V50.8353H115.882C116.563 50.8353 117.245 50.6647 117.586 50.1529C117.927 49.6412 118.268 49.1294 118.268 48.6176C118.268 47.9353 118.097 47.4235 117.586 47.0824C117.245 46.5706 116.563 46.4 115.882 46.4H113.837V44.3529H117.756V43.5ZM113.837 47.2529H115.711C116.223 47.2529 116.563 47.4235 116.734 47.5941C117.075 47.9353 117.075 48.1059 117.075 48.6176C117.075 48.9588 116.904 49.3 116.734 49.6412C116.393 49.9823 116.052 49.9823 115.711 49.9823H113.837V47.2529ZM120.142 49.9823C120.824 50.6647 121.676 51.0059 122.869 51.0059C123.891 51.0059 124.743 50.6647 125.425 49.9823C126.107 49.3 126.447 48.2765 126.447 47.2529C126.447 46.2294 126.107 45.2059 125.425 44.5235C124.743 43.8412 123.891 43.5 122.869 43.5C121.846 43.5 120.824 43.8412 120.142 44.5235C119.46 45.2059 119.12 46.2294 119.12 47.2529C119.12 48.2765 119.46 49.3 120.142 49.9823ZM124.743 49.4706C124.232 49.9824 123.55 50.3235 122.698 50.3235C121.846 50.3235 121.165 49.9824 120.653 49.4706C120.142 48.9588 119.972 48.1059 119.972 47.2529C119.972 46.4 120.142 45.7176 120.653 45.0353C121.165 44.5235 121.846 44.1824 122.698 44.1824C123.55 44.1824 124.232 44.5235 124.743 45.0353C125.255 45.5471 125.425 46.4 125.425 47.2529C125.425 48.1059 125.255 48.7882 124.743 49.4706ZM129.344 51.0059H130.197V44.3529H132.582V43.5H126.959V44.3529H129.344V51.0059ZM138.376 51.0059H139.569L136.161 47.0824L139.228 43.5H138.036L134.798 47.2529V43.5H133.946V50.8353H134.798V48.2765L135.479 47.4235L138.376 51.0059ZM145.875 51.0059H146.897L144 43.6706H142.807L139.74 51.0059H140.762L141.444 49.3H145.193L145.875 51.0059ZM143.318 44.5235L144.852 48.4471H141.785L143.318 44.5235ZM150.646 51.0059H154.055C154.736 51.0059 155.247 50.8353 155.588 50.4941C155.929 50.1529 156.099 49.6412 156.099 48.9588C156.099 48.4471 155.929 48.1059 155.588 47.7647C155.247 47.4235 154.907 47.2529 154.566 47.0824C154.907 47.0824 155.247 46.7412 155.418 46.5706C155.588 46.2294 155.759 45.8882 155.759 45.3765C155.759 44.8647 155.588 44.3529 155.247 44.0118C154.907 43.6706 154.395 43.5 153.714 43.5H150.476V51.0059H150.646ZM154.736 46.4C154.566 46.5706 154.225 46.7412 153.714 46.7412H151.669V44.3529H153.884C154.225 44.3529 154.566 44.5235 154.736 44.6941C154.907 44.8647 155.077 45.2059 155.077 45.5471C155.077 45.8882 154.907 46.2294 154.736 46.4ZM154.907 49.8118C154.736 49.9824 154.395 50.1529 153.884 50.1529H151.669V47.5941H153.884C154.395 47.5941 154.736 47.7647 154.907 47.9353C155.077 48.1059 155.247 48.4471 155.247 48.7882C155.247 49.3 155.077 49.4706 154.907 49.8118ZM159.337 51.0059H160.189V44.3529H162.575V43.5H156.952V44.3529H159.337V51.0059ZM164.109 49.9823C164.791 50.6647 165.643 51.0059 166.836 51.0059C167.858 51.0059 168.71 50.6647 169.392 49.9823C170.073 49.3 170.414 48.2765 170.414 47.2529C170.414 46.2294 170.073 45.2059 169.392 44.5235C168.71 43.8412 167.858 43.5 166.836 43.5C165.813 43.5 164.791 43.8412 164.109 44.5235C163.427 45.2059 163.086 46.2294 163.086 47.2529C163.086 48.2765 163.427 49.3 164.109 49.9823ZM168.71 49.4706C168.199 49.9824 167.517 50.3235 166.665 50.3235C165.813 50.3235 165.131 49.9824 164.62 49.4706C164.109 48.9588 163.939 48.1059 163.939 47.2529C163.939 46.4 164.109 45.7176 164.62 45.0353C165.131 44.5235 165.813 44.1824 166.665 44.1824C167.517 44.1824 168.199 44.5235 168.71 45.0353C169.221 45.5471 169.392 46.4 169.392 47.2529C169.562 48.1059 169.221 48.7882 168.71 49.4706ZM171.948 51.0059H172.8V48.1059H174.845C175.527 48.1059 176.038 47.9353 176.549 47.4235C176.89 46.9118 177.231 46.4 177.231 45.8882C177.231 45.2059 177.06 44.6941 176.549 44.3529C176.208 43.8412 175.527 43.6706 174.845 43.6706H171.948V51.0059ZM175.868 46.7412C175.527 47.0823 175.186 47.0824 174.845 47.0824H172.97V44.3529H174.845C175.356 44.3529 175.697 44.5235 175.868 44.6941C176.208 45.0353 176.208 45.2059 176.208 45.7176C176.208 46.2294 176.208 46.5706 175.868 46.7412ZM178.424 51.0059H179.276L183.536 45.0353V51.0059H184.388V43.6706H183.366L179.105 49.4706V43.6706H178.253V51.0059H178.424ZM188.649 47.2529C187.456 47.2529 186.944 46.7412 186.944 45.5471V43.6706H186.092V45.5471C186.092 46.4 186.263 46.9118 186.774 47.4235C187.285 47.9353 187.797 48.1059 188.649 48.1059C189.16 48.1059 189.841 48.1059 190.353 47.9353V51.1765H191.205V43.8412H190.353V47.2529C189.841 47.0824 189.33 47.2529 188.649 47.2529ZM198.362 51.0059H199.214V43.6706H198.362V46.9118H194.102V43.6706H193.25V51.0059H194.102V47.5941H198.362V51.0059ZM201.77 43.5H200.918V50.8353H203.815C204.497 50.8353 205.179 50.6647 205.52 50.1529C205.86 49.6412 206.201 49.1294 206.201 48.6176C206.201 47.9353 206.031 47.4235 205.52 47.0824C205.179 46.5706 204.497 46.4 203.815 46.4H201.77V43.5ZM201.77 47.2529H203.645C204.156 47.2529 204.497 47.4235 204.668 47.5941C205.008 47.9353 205.008 48.1059 205.008 48.6176C205.008 48.9588 204.838 49.3 204.668 49.6412C204.327 49.9823 203.986 49.9823 203.645 49.9823H201.77V47.2529ZM207.053 51.0059H207.905V43.6706H207.053V51.0059ZM214.722 51.0059H215.915L213.018 47.2529L215.744 43.6706H214.552L212.336 46.5706L210.121 43.6706H208.928L211.654 47.2529L208.757 51.0059H209.95L212.336 47.9353L214.722 51.0059ZM219.664 51.0059H220.516V48.1059H222.561C223.243 48.1059 223.754 47.9353 224.265 47.4235C224.606 46.9118 224.947 46.4 224.947 45.8882C224.947 45.2059 224.776 44.6941 224.265 44.3529C223.924 43.8412 223.243 43.6706 222.561 43.6706H219.664V51.0059ZM223.584 46.7412C223.243 47.0823 222.902 47.0824 222.561 47.0824H220.686V44.3529H222.561C223.072 44.3529 223.413 44.5235 223.584 44.6941C223.924 45.0353 223.924 45.2059 223.924 45.7176C224.095 46.2294 223.924 46.5706 223.584 46.7412ZM226.31 51.0059H231.082V50.1529H227.162V47.5941H231.082V46.7412H227.162V44.3529H231.082V43.5H226.31V51.0059ZM233.297 49.9823C233.979 50.6647 235.001 51.0059 236.024 51.0059C237.217 51.0059 238.069 50.4941 238.921 49.4706L238.069 48.9588C237.898 49.3 237.557 49.4706 237.217 49.8118C236.876 49.9824 236.535 50.1529 236.024 50.1529C235.172 50.1529 234.49 49.8118 233.979 49.3C233.468 48.7882 233.127 47.9353 233.127 47.0824C233.127 46.2294 233.468 45.5471 233.979 44.8647C234.49 44.3529 235.172 44.0118 236.024 44.0118C236.365 44.0118 236.876 44.1824 237.217 44.3529C237.557 44.5235 237.898 44.8647 238.069 45.2059L238.921 44.6941C238.239 43.6706 237.217 43.1588 236.194 43.1588C235.172 43.1588 234.149 43.5 233.468 44.1824C232.786 44.8647 232.445 45.8882 232.445 46.9118C232.275 48.4471 232.615 49.3 233.297 49.9823ZM239.943 50.8353C240.284 51.0059 240.455 51.0059 240.795 51.0059C241.307 51.0059 241.647 50.8353 241.988 50.6647C242.329 50.4941 242.499 49.9823 242.84 49.6412L246.078 43.5H245.056L242.67 48.1059L240.284 43.5H239.262L242.159 48.9588L241.988 49.1294C241.818 49.4706 241.647 49.8118 241.477 49.9823C241.307 50.1529 241.136 50.1529 240.795 50.1529C240.455 50.1529 240.114 49.9823 239.773 49.6412L239.432 50.3235C239.432 50.6647 239.602 50.8353 239.943 50.8353ZM246.93 51.0059H247.782V48.1059H249.827C250.509 48.1059 251.02 47.9353 251.531 47.4235C251.872 46.9118 252.213 46.4 252.213 45.8882C252.213 45.2059 252.043 44.6941 251.531 44.3529C251.191 43.8412 250.509 43.6706 249.827 43.6706H246.93V51.0059ZM250.85 46.7412C250.509 47.0823 250.168 47.0824 249.827 47.0824H247.953V44.3529H249.827C250.339 44.3529 250.679 44.5235 250.85 44.6941C251.191 45.0353 251.191 45.2059 251.191 45.7176C251.361 46.2294 251.191 46.5706 250.85 46.7412ZM254.258 49.9823C254.94 50.6647 255.962 51.0059 256.985 51.0059C258.178 51.0059 259.03 50.4941 259.882 49.4706L259.03 48.9588C258.859 49.3 258.518 49.4706 258.178 49.8118C257.837 49.9824 257.496 50.1529 256.985 50.1529C256.133 50.1529 255.451 49.8118 254.94 49.3C254.428 48.7882 254.088 47.9353 254.088 47.0824C254.088 46.2294 254.428 45.5471 254.94 44.8647C255.451 44.3529 256.133 44.0118 256.985 44.0118C257.326 44.0118 257.837 44.1824 258.178 44.3529C258.518 44.5235 258.859 44.8647 259.03 45.2059L259.882 44.6941C259.2 43.6706 258.178 43.1588 257.155 43.1588C256.133 43.1588 255.11 43.5 254.428 44.1824C253.747 44.8647 253.406 45.8882 253.406 46.9118C253.236 48.4471 253.576 49.3 254.258 49.9823ZM261.756 49.9823C262.438 50.6647 263.29 51.0059 264.483 51.0059C265.505 51.0059 266.357 50.6647 267.039 49.9823C267.721 49.3 268.062 48.2765 268.062 47.2529C268.062 46.2294 267.721 45.2059 267.039 44.5235C266.357 43.8412 265.505 43.5 264.483 43.5C263.46 43.5 262.438 43.8412 261.756 44.5235C261.075 45.2059 260.734 46.2294 260.734 47.2529C260.734 48.2765 261.075 49.3 261.756 49.9823ZM266.357 49.4706C265.846 49.9824 265.165 50.3235 264.313 50.3235C263.46 50.3235 262.779 49.9824 262.268 49.4706C261.756 48.9588 261.586 48.1059 261.586 47.2529C261.586 46.4 261.756 45.7176 262.268 45.0353C262.779 44.5235 263.46 44.1824 264.313 44.1824C265.165 44.1824 265.846 44.5235 266.357 45.0353C266.869 45.5471 267.039 46.4 267.039 47.2529C267.039 48.1059 266.869 48.7882 266.357 49.4706ZM269.425 51.0059H272.833C273.515 51.0059 274.026 50.8353 274.367 50.4941C274.708 50.1529 274.878 49.6412 274.878 48.9588C274.878 48.4471 274.708 48.1059 274.367 47.7647C274.026 47.4235 273.685 47.2529 273.344 47.0824C273.685 47.0824 274.026 46.7412 274.197 46.5706C274.367 46.2294 274.537 45.8882 274.537 45.3765C274.537 44.8647 274.367 44.3529 274.026 44.0118C273.685 43.6706 273.174 43.5 272.492 43.5H269.255V51.0059H269.425ZM273.515 46.4C273.344 46.5706 273.004 46.7412 272.492 46.7412H270.277V44.3529H272.492C272.833 44.3529 273.174 44.5235 273.344 44.6941C273.515 44.8647 273.685 45.2059 273.685 45.5471C273.856 45.8882 273.685 46.2294 273.515 46.4ZM273.685 49.8118C273.515 49.9824 273.174 50.1529 272.663 50.1529H270.447V47.5941H272.663C273.174 47.5941 273.515 47.7647 273.685 47.9353C273.856 48.1059 274.026 48.4471 274.026 48.7882C274.026 49.3 273.856 49.4706 273.685 49.8118Z" fill="url(#paint0_linear)"/>
<defs>
<linearGradient id="paint0_linear" x1="143.595" y1="0" x2="143.595" y2="56.5262" gradientUnits="userSpaceOnUse">
<stop stop-color="#8DBD1B"/>
<stop offset="1" stop-color="#4FB36A"/>
</linearGradient>
</defs>
</svg>
