<svg width="190" height="96" viewBox="0 0 190 96" fill="none" xmlns="http://www.w3.org/2000/svg">
<path fill-rule="evenodd" clip-rule="evenodd" d="M86.3292 23.9952L82.5008 35.1491H90.2236L86.4284 23.9952H86.3292ZM35.2599 54.0132H35.2379H35.2296H34.9319C33.7109 54.0132 32.6801 54.2224 31.8009 54.6326C30.9355 55.0565 30.2189 55.6263 29.6621 56.3805C29.0998 57.1072 28.7112 57.9771 28.4714 58.9185C28.2041 59.8902 28.0718 60.9472 28.0718 62.0676C28.0718 63.4549 28.3143 64.7267 28.7746 65.8718C29.2597 67.0142 29.9846 67.9418 30.9878 68.619C31.9856 69.2796 33.2507 69.6265 34.7252 69.6265H34.8768V69.6402H34.9567C36.547 69.6402 38.0519 69.3815 39.4162 68.9218V79.2912H21.8979V16.7115H39.419V35.1711H47.5277V16.7115H64.8944V37.2576L72.2534 16.7115H101.097L108.836 37.8687V16.7115H125.555V40.6517H130.221V16.7115H146.734V40.6517H151.427V16.7115H168.102V79.2912H47.5277V68.8777C48.9002 69.3732 50.4492 69.6402 52.0754 69.6402H52.1553V69.6265C53.2743 69.6265 54.2527 69.4255 55.0906 69.0374C55.945 68.6493 56.6231 68.1015 57.1853 67.405C57.7228 66.7086 58.1169 65.9241 58.376 65.024C58.5276 65.3323 58.6957 65.6433 58.8969 65.9296C59.7045 67.1463 60.9365 68.0739 62.5268 68.6906C64.1529 69.3154 66.1071 69.6265 68.425 69.6265C70.7264 69.6265 72.6971 69.3182 74.3122 68.6906C75.9356 68.0712 77.1621 67.1435 77.9779 65.9351C78.1268 65.6984 78.2756 65.4534 78.3941 65.2001V75.3108H86.7977V68.608C88.3329 69.2631 90.1327 69.6375 92.0427 69.6375H92.1254V69.6237C93.7736 69.6237 95.1379 69.2796 96.2542 68.6162C97.3594 67.9391 98.1725 67.0114 98.7044 65.869C98.8588 65.5607 98.9828 65.2139 99.082 64.8836V69.2769H106.273L105.937 59.5681H106.044L109.332 69.2769H115.002L118.411 59.5681H118.477L118.138 69.2769H125.641V67.5069C125.698 67.5867 125.74 67.6445 125.784 67.7161C126.399 68.385 127.154 68.8585 128.121 69.1558C129.105 69.4861 130.144 69.6237 131.291 69.6237C133.722 69.6237 135.116 69.409 136.999 68.2281V69.2769H144.779V60.2013C144.779 59.6755 144.741 59.202 144.644 58.7644H148.459V69.2769H156.849V58.7644H162.808V54.3408H142.495V55.7006C142.164 55.4639 141.795 55.2684 141.384 55.1033C140.359 54.6711 139.262 54.3848 138.071 54.2389C136.878 54.0958 135.593 54.0077 134.16 54.0077C132.625 54.0077 131.362 54.0793 130.398 54.2032C129.425 54.305 128.256 54.5417 126.903 54.8803V59.0506C128.846 58.2166 130.775 57.7927 132.699 57.7927C134.022 57.7927 135.08 57.922 135.894 58.2166C136.707 58.5194 137.109 59.0864 137.12 59.9342C136.875 59.9122 136.599 59.8902 136.246 59.8627C135.888 59.8407 135.516 59.8049 135.078 59.7691C134.67 59.7471 134.265 59.7471 133.859 59.7471C132.264 59.7471 130.784 59.8902 129.469 60.1985C128.138 60.4931 127.046 61.0684 126.184 61.8887C125.971 62.0813 125.776 62.3126 125.632 62.5493V54.338H114.597L112.449 61.6602H112.37L110.129 54.338H99.0737V58.9681C99.0737 58.9543 99.06 58.9323 99.06 58.9185C98.7733 57.9551 98.3296 57.099 97.7205 56.3723C97.1141 55.618 96.3258 55.0482 95.3474 54.6243C94.3717 54.2142 93.2086 54.005 91.8718 54.005C91.3978 54.005 90.9816 54.0325 90.5571 54.0903C88.9751 54.2417 87.4812 54.6656 86.1969 55.285V54.3353H78.3859V58.0184C78.2701 57.7872 78.1185 57.5724 77.9697 57.3577C77.1511 56.2429 75.9301 55.4033 74.3232 54.8335C72.7164 54.272 70.7375 54.0077 68.4168 54.0077C66.0823 54.0077 64.1199 54.2747 62.513 54.8335C60.9034 55.4033 59.6934 56.2429 58.8886 57.366C58.6268 57.7046 58.4311 58.0789 58.2547 58.4671C58.0012 57.6908 57.6291 56.9916 57.1798 56.375C56.6203 55.6208 55.923 55.051 55.0438 54.6271C54.1701 54.2169 53.12 54.0077 51.8879 54.0077C51.6509 54.0077 51.4111 54.016 51.1796 54.0435C49.8704 54.1096 48.6549 54.3738 47.5249 54.7482V43.2365H39.4162V54.7207C38.1484 54.2912 36.7427 54.0545 35.2599 54.0132ZM34.3421 61.9933C34.3421 63.0283 34.5268 63.8348 34.8933 64.4101C35.2461 64.9854 35.9903 65.2662 37.0928 65.2662C38.1318 65.2662 38.8457 64.9854 39.215 64.4239C39.2784 64.3028 39.3556 64.1789 39.4162 64.0578C39.6147 63.4026 39.6781 62.742 39.6781 62.0869C39.6781 61.4758 39.6147 60.8729 39.4162 60.2673C38.9835 59.3617 38.1815 58.9158 36.9908 58.9158C35.2324 58.9158 34.3421 59.9453 34.3421 61.9933ZM47.5277 63.21C47.5993 63.6917 47.7675 64.0936 47.9687 64.4101C48.349 64.9854 49.0877 65.2662 50.1764 65.2662C51.2265 65.2662 51.9265 64.9854 52.2959 64.4239C52.6514 63.8623 52.8388 63.1136 52.8388 62.1667C52.8388 60.0168 51.9183 58.9158 50.0882 58.9158C48.6605 58.9158 47.806 59.5764 47.5332 60.8784C47.4588 61.2803 47.4477 61.6987 47.4477 62.0869C47.445 62.475 47.4753 62.8356 47.5277 63.21ZM65.6551 61.9933C65.6551 63.0283 65.8563 63.8348 66.2201 64.4101C66.5701 64.9854 67.3115 65.2662 68.4085 65.2662C69.4531 65.2662 70.1724 64.9854 70.5307 64.4239C70.8973 63.8623 71.0985 63.1136 71.0985 62.1667C71.0985 60.0168 70.1669 58.9158 68.323 58.9158C66.5398 58.9158 65.6551 59.9453 65.6551 61.9933ZM86.8528 61.9933C86.8528 63.0283 87.0568 63.8348 87.4123 64.4101C87.7789 64.9854 88.4955 65.2662 89.6008 65.2662C90.6702 65.2662 91.3564 64.9854 91.7313 64.4239C92.0979 63.8623 92.2715 63.1136 92.2715 62.1667C92.2715 60.0168 91.3564 58.9158 89.507 58.9158C87.7514 58.9158 86.8528 59.9453 86.8528 61.9933ZM137.123 63.1742V62.7282H136.312C135.166 62.7282 134.27 62.8301 133.589 63.0531C132.895 63.254 132.581 63.722 132.581 64.4184C132.581 65.3598 133.228 65.836 134.546 65.836C135.072 65.836 135.555 65.7149 135.94 65.4561C136.351 65.1974 136.66 64.8726 136.839 64.4707C137.029 64.0523 137.123 63.6284 137.123 63.1742ZM93.2555 47.6848L91.9159 43.319H80.657L79.3863 47.6848H93.2555Z" fill="#ED1C24"/>
</svg>
