<svg width="954" height="147" viewBox="0 0 954 147" fill="none" xmlns="http://www.w3.org/2000/svg">
<path d="M53.043 89.2383H19.4492V145H0.503906V2.8125H53.043C63.7852 2.8125 72.8672 4.66797 80.2891 8.37891C87.7109 12.0898 93.3424 17.2005 97.1836 23.7109C101.025 30.2214 102.945 37.7083 102.945 46.1719C102.945 59.9089 98.6484 70.5208 90.0547 78.0078C81.526 85.4948 69.1888 89.2383 53.043 89.2383ZM53.043 18.1445H19.4492V74.0039H53.043C64.0456 74.0039 71.9557 71.4323 76.7734 66.2891C81.5911 61.0807 84 54.4401 84 46.3672C84 41.4844 82.9258 36.8945 80.7773 32.5977C78.694 28.3008 75.3737 24.8177 70.8164 22.1484C66.3242 19.4792 60.3997 18.1445 53.043 18.1445ZM146.301 145H128.039V39.3359H145.812L146.203 51.3477C148.872 47.0508 152.258 43.6654 156.359 41.1914C160.526 38.6523 165.474 37.3828 171.203 37.3828C172.44 37.3828 173.905 37.5456 175.598 37.8711C177.355 38.1315 178.56 38.4245 179.211 38.75V55.4492C176.411 54.9284 173.449 54.668 170.324 54.668C164.204 54.668 159.159 56.0677 155.188 58.8672C151.216 61.6016 148.254 65.3125 146.301 70V145ZM243.758 146.953C233.927 146.953 225.366 144.772 218.074 140.41C210.848 135.983 205.216 129.928 201.18 122.246C197.208 114.564 195.223 105.775 195.223 95.8789V91.6797C195.223 80.2214 197.404 70.4557 201.766 62.3828C206.193 54.2448 211.922 48.0599 218.953 43.8281C226.049 39.5312 233.536 37.3828 241.414 37.3828C251.57 37.3828 259.839 39.6615 266.219 44.2188C272.664 48.7109 277.384 54.8633 280.379 62.6758C283.439 70.4232 284.969 79.2122 284.969 89.043V97.1484H213.484C213.68 103.659 215.014 109.583 217.488 114.922C220.027 120.195 223.608 124.427 228.23 127.617C232.853 130.742 238.354 132.305 244.734 132.305C251.115 132.305 256.518 131.003 260.945 128.398C265.372 125.794 269.246 122.311 272.566 117.949L283.602 126.543C280.216 131.751 275.333 136.471 268.953 140.703C262.638 144.87 254.24 146.953 243.758 146.953ZM241.414 52.0312C234.253 52.0312 228.198 54.668 223.25 59.9414C218.367 65.2148 215.307 72.7344 214.07 82.5H266.707V81.1328C266.447 76.4453 265.503 71.888 263.875 67.4609C262.247 62.9688 259.643 59.2904 256.062 56.4258C252.482 53.4961 247.599 52.0312 241.414 52.0312ZM371.586 116.973C371.586 114.368 371 111.96 369.828 109.746C368.721 107.467 366.443 105.417 362.992 103.594C359.542 101.706 354.333 100.046 347.367 98.6133C335.648 96.1393 326.371 92.6237 319.535 88.0664C312.699 83.5091 309.281 76.901 309.281 68.2422C309.281 62.6432 310.876 57.5326 314.066 52.9102C317.322 48.2227 321.879 44.4792 327.738 41.6797C333.663 38.8151 340.564 37.3828 348.441 37.3828C356.905 37.3828 364.132 38.8802 370.121 41.875C376.176 44.8047 380.798 48.776 383.988 53.7891C387.178 58.737 388.773 64.2383 388.773 70.293H370.512C370.512 65.931 368.591 61.7969 364.75 57.8906C360.974 53.9844 355.538 52.0312 348.441 52.0312C340.954 52.0312 335.583 53.6914 332.328 57.0117C329.138 60.2669 327.543 63.8151 327.543 67.6562C327.543 70.2604 328.194 72.5391 329.496 74.4922C330.798 76.3802 333.174 78.0729 336.625 79.5703C340.141 81.0677 345.219 82.5651 351.859 84.0625C364.815 87.0573 374.385 90.9635 380.57 95.7812C386.755 100.534 389.848 107.174 389.848 115.703C389.848 124.948 386.104 132.467 378.617 138.262C371.195 144.056 361.299 146.953 348.93 146.953C339.62 146.953 331.742 145.293 325.297 141.973C318.852 138.652 313.969 134.388 310.648 129.18C307.328 123.906 305.668 118.34 305.668 112.48H323.93C324.255 117.428 325.688 121.367 328.227 124.297C330.831 127.161 333.988 129.212 337.699 130.449C341.475 131.686 345.219 132.305 348.93 132.305C356.286 132.305 361.885 130.84 365.727 127.91C369.633 124.98 371.586 121.335 371.586 116.973ZM461.328 146.953C451.497 146.953 442.936 144.772 435.645 140.41C428.418 135.983 422.786 129.928 418.75 122.246C414.779 114.564 412.793 105.775 412.793 95.8789V91.6797C412.793 80.2214 414.974 70.4557 419.336 62.3828C423.763 54.2448 429.492 48.0599 436.523 43.8281C443.62 39.5312 451.107 37.3828 458.984 37.3828C469.141 37.3828 477.409 39.6615 483.789 44.2188C490.234 48.7109 494.954 54.8633 497.949 62.6758C501.009 70.4232 502.539 79.2122 502.539 89.043V97.1484H431.055C431.25 103.659 432.585 109.583 435.059 114.922C437.598 120.195 441.178 124.427 445.801 127.617C450.423 130.742 455.924 132.305 462.305 132.305C468.685 132.305 474.089 131.003 478.516 128.398C482.943 125.794 486.816 122.311 490.137 117.949L501.172 126.543C497.786 131.751 492.904 136.471 486.523 140.703C480.208 144.87 471.81 146.953 461.328 146.953ZM458.984 52.0312C451.823 52.0312 445.768 54.668 440.82 59.9414C435.938 65.2148 432.878 72.7344 431.641 82.5H484.277V81.1328C484.017 76.4453 483.073 71.888 481.445 67.4609C479.818 62.9688 477.214 59.2904 473.633 56.4258C470.052 53.4961 465.169 52.0312 458.984 52.0312ZM545.895 145H527.633V39.3359H544.918L545.504 52.3242C549.28 47.6367 553.837 43.9909 559.176 41.3867C564.514 38.7174 570.439 37.3828 576.949 37.3828C587.366 37.3828 595.602 40.3451 601.656 46.2695C607.776 52.1289 610.836 61.9596 610.836 75.7617V145H592.574V75.5664C592.574 67.2331 590.784 61.3086 587.203 57.793C583.622 54.2773 578.414 52.5195 571.578 52.5195C565.784 52.5195 560.673 54.082 556.246 57.207C551.884 60.332 548.434 64.401 545.895 69.4141V145ZM686.613 53.1055H666.887V118.828C666.887 124.297 668.059 127.78 670.402 129.277C672.811 130.775 675.513 131.523 678.508 131.523C680.005 131.523 681.568 131.393 683.195 131.133C684.888 130.872 686.125 130.645 686.906 130.449L687.004 145C685.572 145.456 683.684 145.879 681.34 146.27C679.061 146.725 676.294 146.953 673.039 146.953C668.612 146.953 664.543 146.074 660.832 144.316C657.121 142.559 654.159 139.629 651.945 135.527C649.732 131.361 648.625 125.762 648.625 118.73V53.1055H629.387V39.3359H648.625V13.6523H666.887V39.3359H686.613V53.1055ZM773.914 72.5391C773.914 66.224 772.026 61.2109 768.25 57.5C764.539 53.724 759.038 51.8359 751.746 51.8359C744.975 51.8359 739.507 53.5286 735.34 56.9141C731.173 60.2995 729.09 64.2057 729.09 68.6328H710.828C710.828 63.5547 712.553 58.6393 716.004 53.8867C719.454 49.069 724.305 45.1302 730.555 42.0703C736.87 38.9453 744.292 37.3828 752.82 37.3828C764.344 37.3828 773.784 40.3125 781.141 46.1719C788.497 52.0312 792.176 60.8854 792.176 72.7344V121.953C792.176 125.469 792.469 129.212 793.055 133.184C793.706 137.155 794.65 140.573 795.887 143.438V145H776.844C776.258 143.698 775.737 142.07 775.281 140.117C774.891 138.164 774.565 136.113 774.305 133.965C770.919 137.546 766.688 140.605 761.609 143.145C756.596 145.684 750.835 146.953 744.324 146.953C737.163 146.953 730.88 145.586 725.477 142.852C720.138 140.052 715.971 136.276 712.977 131.523C710.047 126.771 708.582 121.497 708.582 115.703C708.582 104.31 712.879 95.6836 721.473 89.8242C730.066 83.8997 741.622 80.9375 756.141 80.9375H773.914V72.5391ZM746.961 131.328C753.471 131.328 759.103 129.701 763.855 126.445C768.608 123.125 771.961 119.447 773.914 115.41V93.6328H759.07C748.784 93.6328 740.841 95.2604 735.242 98.5156C729.643 101.771 726.844 106.654 726.844 113.164C726.844 118.242 728.536 122.539 731.922 126.055C735.372 129.57 740.385 131.328 746.961 131.328ZM869.027 53.1055H849.301V118.828C849.301 124.297 850.473 127.78 852.816 129.277C855.225 130.775 857.927 131.523 860.922 131.523C862.419 131.523 863.982 131.393 865.609 131.133C867.302 130.872 868.539 130.645 869.32 130.449L869.418 145C867.986 145.456 866.098 145.879 863.754 146.27C861.475 146.725 858.708 146.953 855.453 146.953C851.026 146.953 846.957 146.074 843.246 144.316C839.535 142.559 836.573 139.629 834.359 135.527C832.146 131.361 831.039 125.762 831.039 118.73V53.1055H811.801V39.3359H831.039V13.6523H849.301V39.3359H869.027V53.1055ZM894.219 11.2109C894.219 8.34635 895.098 5.90495 896.855 3.88672C898.678 1.86849 901.348 0.859375 904.863 0.859375C908.379 0.859375 911.048 1.86849 912.871 3.88672C914.759 5.90495 915.703 8.34635 915.703 11.2109C915.703 14.0104 914.759 16.4193 912.871 18.4375C911.048 20.3906 908.379 21.3672 904.863 21.3672C901.348 21.3672 898.678 20.3906 896.855 18.4375C895.098 16.4193 894.219 14.0104 894.219 11.2109ZM913.848 145H895.586V39.3359H913.848V145ZM941.969 91.0938C941.969 80.8724 943.922 71.7253 947.828 63.6523C951.734 55.5794 957.268 49.1992 964.43 44.5117C971.591 39.7591 980.087 37.3828 989.918 37.3828C999.879 37.3828 1008.47 39.7591 1015.7 44.5117C1022.93 49.1992 1028.46 55.5794 1032.3 63.6523C1036.21 71.7253 1038.16 80.8724 1038.16 91.0938V93.3398C1038.16 103.496 1036.21 112.643 1032.3 120.781C1028.46 128.854 1022.93 135.234 1015.7 139.922C1008.54 144.609 1000.01 146.953 990.113 146.953C980.217 146.953 971.656 144.609 964.43 139.922C957.268 135.234 951.734 128.854 947.828 120.781C943.922 112.643 941.969 103.496 941.969 93.3398V91.0938ZM960.23 93.3398C960.23 100.306 961.337 106.751 963.551 112.676C965.764 118.6 969.052 123.353 973.414 126.934C977.841 130.514 983.408 132.305 990.113 132.305C996.754 132.305 1002.26 130.514 1006.62 126.934C1011.04 123.353 1014.36 118.6 1016.58 112.676C1018.79 106.751 1019.9 100.306 1019.9 93.3398V91.0938C1019.9 84.1276 1018.79 77.6823 1016.58 71.7578C1014.36 65.8333 1011.04 61.0807 1006.62 57.5C1002.19 53.8542 996.624 52.0312 989.918 52.0312C983.342 52.0312 977.841 53.8542 973.414 57.5C968.987 61.0807 965.667 65.8333 963.453 71.7578C961.305 77.6823 960.23 84.1276 960.23 91.0938V93.3398ZM1083.18 145H1064.91V39.3359H1082.2L1082.79 52.3242C1086.56 47.6367 1091.12 43.9909 1096.46 41.3867C1101.8 38.7174 1107.72 37.3828 1114.23 37.3828C1124.65 37.3828 1132.88 40.3451 1138.94 46.2695C1145.06 52.1289 1148.12 61.9596 1148.12 75.7617V145H1129.86V75.5664C1129.86 67.2331 1128.07 61.3086 1124.48 57.793C1120.9 54.2773 1115.7 52.5195 1108.86 52.5195C1103.07 52.5195 1097.95 54.082 1093.53 57.207C1089.17 60.332 1085.71 64.401 1083.18 69.4141V145Z" fill="#292929"/>
</svg>
