<svg width="212" height="41" viewBox="0 0 212 41" fill="none" xmlns="http://www.w3.org/2000/svg">
<g clip-path="url(#clip0)">
<path fill-rule="evenodd" clip-rule="evenodd" d="M109.2 39.9H127.5L129.8 38.1H165.1L168.5 35.4H115L114.7 35.6L109.2 39.9Z" fill="#007CAA"/>
<path fill-rule="evenodd" clip-rule="evenodd" d="M101.9 39.9H83.6L81.3 38.1H45.9L42.5 35.4H96.1L96.3 35.6L101.9 39.9Z" fill="#007CAA"/>
<path fill-rule="evenodd" clip-rule="evenodd" d="M108.4 33.5H182.6L184.9 31.7H200.2L203.6 29H118L120.9 26.8H208.9L211.1 25.1H119.2L108.4 33.5Z" fill="#007CAA"/>
<path fill-rule="evenodd" clip-rule="evenodd" d="M102.7 33.5H28.5L26.1 31.7H10.9L7.5 29H93.1L90.2 26.8H2.2L0 25.1H91.9L102.7 33.5Z" fill="#007CAA"/>
<path fill-rule="evenodd" clip-rule="evenodd" d="M178.3 13.8H172.6V2.1H167V0.300003H184V2.1H178.3V13.8Z" fill="#58595B"/>
<path fill-rule="evenodd" clip-rule="evenodd" d="M150.8 7.4C150.8 8.7 151.2 9.8 151.9 10.7C152.8 11.9 154.1 12.5 155.8 12.5C157.5 12.5 158.7 11.9 159.5 10.7C160.1 9.8 160.4 8.7 160.4 7.4C160.4 5.5 159.9 4 158.9 2.9C158.1 2 156.9 1.6 155.5 1.6C153.7 1.6 152.3 2.3 151.5 3.7C151.1 4.6 150.8 5.9 150.8 7.4ZM144.8 7.4C144.8 5.3 145.9 3.5 148 2.1C150.1 0.7 152.7 0 155.7 0C158.7 0 161.3 0.7 163.3 2C165.5 3.4 166.6 5.2 166.6 7.4C166.6 9.5 165.5 11.2 163.2 12.4C161.1 13.6 158.6 14.2 155.6 14.2C152.7 14.2 150.2 13.6 148.1 12.5C145.9 11.1 144.8 9.5 144.8 7.4Z" fill="#58595B"/>
<path fill-rule="evenodd" clip-rule="evenodd" d="M127.7 13.8H124.7L132 0.300003H137.7L145.1 13.8H139L133.3 3.3L127.7 13.8Z" fill="#58595B"/>
<path fill-rule="evenodd" clip-rule="evenodd" d="M108 11V3C106.3 3 105 3.3 104.1 3.8C103 4.4 102.5 5.5 102.5 6.9C102.5 8.3 103 9.4 104.1 10.1C105 10.7 106.3 11 108 11ZM113.6 3V11C115.3 11 116.6 10.7 117.5 10.1C118.6 9.4 119.1 8.4 119.1 6.9C119.1 5.5 118.6 4.5 117.5 3.8C116.6 3.3 115.3 3 113.6 3ZM113.6 13.8H108V12.7H107C104 12.7 101.6 12.2 99.8001 11.3C97.7001 10.3 96.6001 8.8 96.6001 6.9C96.6001 5.1 97.7001 3.6 99.9001 2.6C101.8 1.7 104.2 1.2 107.1 1.2H108.1V0.300003H113.8V1.2H114.8C117.7 1.2 120.1 1.7 122 2.6C124.2 3.6 125.3 5.1 125.3 6.9C125.3 8.8 124.2 10.3 122.1 11.3C120.2 12.2 117.8 12.7 114.9 12.7H113.9V13.8H113.6Z" fill="#58595B"/>
<path fill-rule="evenodd" clip-rule="evenodd" d="M90.4001 13.8H84.8001V2.1H79.1001V0.300003H96.1001V2.1H90.4001V13.8Z" fill="#58595B"/>
<path fill-rule="evenodd" clip-rule="evenodd" d="M60.2002 13.8V0.300003H65.8002V6.1H71.8002V0.300003H77.4002V13.8H71.8002V7.9H65.8002V13.8H60.2002Z" fill="#58595B"/>
<path fill-rule="evenodd" clip-rule="evenodd" d="M58.5 13.8H45.5V0.300003H58.3V2.1H51.2V6.1H57.9V7.9H51.2V12H58.5V13.8Z" fill="#58595B"/>
<path fill-rule="evenodd" clip-rule="evenodd" d="M32.9998 2.1V6.6H34.4998C35.5998 6.6 36.3998 6.5 37.0998 6.2C37.8998 5.8 38.2998 5.3 38.2998 4.5C38.2998 3.7 37.8998 3.1 37.1998 2.7C36.5998 2.3 35.6998 2.2 34.5998 2.2H32.9998V2.1ZM32.9998 13.8H27.2998V0.300003H36.2998C38.2998 0.300003 40.0998 0.600003 41.4998 1.3C43.0998 2 43.8998 3 43.8998 4.4C43.8998 5.8 43.1998 6.8 41.6998 7.5C40.4998 8 38.8998 8.3 36.7998 8.3H32.9998V13.8Z" fill="#58595B"/>
<path fill-rule="evenodd" clip-rule="evenodd" d="M2.1 19.6V17.6H1.5V22H2.1V19.7L4.3 22H5.1L2.7 19.6L5 17.5H4.2L2.1 19.6ZM9.5 21.1V17.5H8.9V22H9.5L12 18.4V22H12.6V17.5H12L9.5 21.1ZM17.6 19.4V18H20.3V17.5H17V22H20.5V21.5H17.7V20H20.2V19.5H17.6V19.4ZM24.3 17.5V22H26.3C27.6 22 28 21.4 28 20.8C28 20 27.4 19.7 27 19.7C27.4 19.6 27.8 19.2 27.8 18.7C27.8 18.2 27.5 17.6 26.4 17.6H24.3V17.5ZM24.9 18H26.2C27 18 27.1 18.4 27.1 18.7C27.1 19.1 26.9 19.4 26.2 19.4H24.9V18ZM24.9 19.9H26.2C26.9 19.9 27.3 20.1 27.3 20.7C27.3 21.4 26.6 21.5 26.2 21.5H24.9V19.9ZM35.5 20.5C35.5 21.1 34.9 21.6 34.2 21.6C33.2 21.6 32.6 20.8 32.6 19.8C32.6 18.8 33 17.9 34.2 17.9C35.3 17.9 35.5 18.6 35.5 18.9H36.1C36 18.2 35.6 17.4 34.1 17.4C33.7 17.4 31.9 17.5 31.9 19.9C31.9 21.3 32.7 22.2 34.2 22.2C35.7 22.2 36.1 21.2 36.2 20.6H35.5V20.5ZM40.7 19.6V17.6H40.1V22H40.7V19.7L43 22H43.8L41.4 19.6L43.7 17.5H42.9L40.7 19.6ZM48 20.9H50L50.4 22.1H51.1L49.3 17.6H48.6L46.9 22H47.6L48 20.9ZM48.2 20.4L49 18.2L49.8 20.4H48.2ZM57.7 20.2V22H58.3V17.5H56.3C55.1 17.5 54.7 18.1 54.7 18.8C54.7 19.8 55.5 20.1 56 20.1L54.7 22H55.5L56.7 20.2H57.7ZM57.7 18V19.7H56.5C55.5 19.7 55.4 19.2 55.4 18.8C55.4 18.4 55.6 18 56.4 18H57.7ZM70.7 20.5C70.7 21.1 70.1 21.6 69.4 21.6C68.4 21.6 67.8 20.8 67.8 19.8C67.8 18.8 68.2 17.9 69.4 17.9C70.5 17.9 70.7 18.6 70.7 18.9H71.3C71.2 18.2 70.8 17.4 69.3 17.4C68.9 17.4 67.1 17.5 67.1 19.9C67.1 21.3 67.9 22.2 69.4 22.2C70.9 22.2 71.3 21.2 71.4 20.6H70.7V20.5ZM77 20.2L75.6 17.5H74.8L76.6 20.9C76.4 21.5 76.1 21.6 75.9 21.6C75.7 21.6 75.6 21.6 75.5 21.5V22C75.7 22.1 75.8 22.1 76 22.1C76.4 22.1 76.8 22.1 77.2 21.2L78.8 17.5H78.1L77 20.2ZM86.2 21.5V17.5H83.3V18.4C83.3 20.1 82.8 20.9 82.4 21.5H82V23H82.6V22H86.3V23H86.9L87 21.5H86.2ZM85.5 18V21.5H83.1C83.7 20.6 83.9 19.8 83.9 18.6V18H85.5ZM90.4 19.8C90.4 22.1 92.4 22.2 92.7 22.2C93 22.2 95 22.2 95 19.8C95 18 93.8 17.4 92.7 17.4C91.3 17.4 90.4 18.2 90.4 19.8ZM91.1 19.8C91.1 19.3 91.2 17.9 92.7 17.9C93.8 17.9 94.3 18.7 94.3 19.8C94.3 21.6 93 21.7 92.7 21.7C91.3 21.6 91.1 20.5 91.1 19.8ZM100.5 19.3L99.3 17.5H98.5L100.1 19.7L98.4 22H99.2L100.4 20.1L101.6 22H102.4L100.7 19.7L102.3 17.5H101.5L100.5 19.3ZM106 19.8C106 22.1 108 22.2 108.3 22.2C108.6 22.2 110.6 22.2 110.6 19.8C110.6 18 109.4 17.4 108.3 17.4C106.9 17.4 106 18.2 106 19.8ZM106.7 19.8C106.7 19.3 106.8 17.9 108.3 17.9C109.4 17.9 109.9 18.7 109.9 19.8C109.9 21.6 108.6 21.7 108.3 21.7C106.9 21.6 106.7 20.5 106.7 19.8ZM118.2 21.5V17.5H115.3V18.4C115.3 20.1 114.8 20.9 114.4 21.5H114V23H114.6V22H118.3V23H118.9L119 21.5H118.2ZM117.6 18V21.5H115.2C115.8 20.6 116 19.8 116 18.6V18H117.6ZM123.4 19.9H125.8V22H126.4V17.5H125.8V19.4H123.4V17.5H122.8V22H123.4V19.9ZM131.2 20.9H133.2L133.6 22.1H134.3L132.5 17.6H131.8L130 22.1H130.7L131.2 20.9ZM131.4 20.4L132.2 18.2L133 20.4H131.4ZM140.9 20.2V22H141.5V17.5H139.5C138.3 17.5 137.9 18.1 137.9 18.8C137.9 19.8 138.7 20.1 139.2 20.1L137.9 21.9H138.7L139.9 20.1H140.9V20.2ZM140.9 18V19.7H139.7C138.7 19.7 138.6 19.2 138.6 18.8C138.6 18.4 138.8 18 139.6 18H140.9ZM151.2 19.6V17.6H150.6V22H151.2V19.7L153.4 22H154.2L151.8 19.6L154.1 17.5H153.3L151.2 19.6ZM157.7 19.8C157.7 22.1 159.7 22.2 160 22.2C160.3 22.2 162.3 22.2 162.3 19.8C162.3 18 161.1 17.4 160 17.4C158.6 17.4 157.7 18.2 157.7 19.8ZM158.4 19.8C158.4 19.3 158.5 17.9 160 17.9C161.1 17.9 161.6 18.7 161.6 19.8C161.6 21.6 160.3 21.7 160 21.7C158.6 21.6 158.4 20.5 158.4 19.8ZM168.5 22H169L170.5 18.2V18.4V22H171.1V17.5H170.1L168.6 21.2L167.1 17.5H166.1V22H166.7V18.4V18.2L168.5 22ZM176.1 18H178.5V22H179.1V17.5H175.4V22H176V18H176.1ZM184 20.9H186L186.4 22.1H187.1L185.3 17.6H184.6L182.8 22.1H183.5L184 20.9ZM184.1 20.4L184.9 18.2L185.7 20.4H184.1ZM191.4 19.9H193.8V22H194.4V17.5H193.8V19.4H191.4V17.5H190.8V22H191.4V19.9ZM199.4 21.1V17.5H198.8V22H199.4L201.9 18.4V22H202.5V17.5H201.9L199.4 21.1ZM209.7 20.2V22H210.3V17.5H208.3C207.1 17.5 206.7 18.1 206.7 18.8C206.7 19.8 207.5 20.1 208 20.1L206.7 21.9H207.5L208.7 20.1H209.7V20.2ZM209.7 18V19.7H208.5C207.5 19.7 207.4 19.2 207.4 18.8C207.4 18.4 207.6 18 208.4 18H209.7Z" fill="#58595B"/>
<path fill-rule="evenodd" clip-rule="evenodd" d="M105.5 24.6C105.9 24.6 106.3 24.8 106.6 25.1C106.9 25.4 107.1 25.8 107.1 26.2C107.1 26.6 106.9 27 106.6 27.3C106.5 27.4 106.4 27.5 106.2 27.6H109.8V28.5H106C106 29.4 106.1 30.5 106.1 31.7C106.2 32.9 106.2 34.3 106.3 35.9C106.4 36.3 106.6 37.2 107.1 37.3C107.7 37.5 108.8 37.3 109.5 36.5C110.2 35.8 110.2 35.8 110.2 35.8C110.2 35.8 109.6 34.7 110.4 34.6C111.2 34.6 111.3 34.6 111.3 34.6C111.3 34.6 110.6 38.2 107.8 38.8C106.1 39.2 105.6 39.7 105.5 40C105.5 40 105.5 40 105.5 39.9C105.4 39.6 104.8 39.1 103.1 38.7C100.3 38.1 99.6001 34.5 99.6001 34.5C99.6001 34.5 99.8001 34.4 100.5 34.5C101.3 34.5 100.7 35.7 100.7 35.7C100.7 35.7 100.7 35.7 101.4 36.4C102.1 37.1 103.1 37.4 103.8 37.2C104.2 37.1 104.5 36.4 104.6 36C104.7 34.3 104.7 32.9 104.8 31.6C104.9 30.4 104.9 29.4 104.9 28.4H101.1V27.5H104.7C104.6 27.4 104.4 27.3 104.3 27.2C104 26.9 103.8 26.5 103.8 26.1C103.8 25.7 104 25.3 104.3 25C104.7 24.8 105.1 24.6 105.5 24.6ZM105.5 25.5C105.3 25.5 105.1 25.6 105 25.7C104.9 25.8 104.8 26 104.8 26.2C104.8 26.4 104.9 26.6 105 26.7C105.1 26.8 105.3 26.9 105.5 26.9C105.7 26.9 105.9 26.8 106 26.7C106.1 26.6 106.2 26.4 106.2 26.2C106.2 26 106.1 25.8 106 25.7C105.9 25.6 105.7 25.5 105.5 25.5Z" fill="#007CAA"/>
</g>
<defs>
<clipPath id="clip0">
<rect width="211.1" height="40.1" fill="white"/>
</clipPath>
</defs>
</svg>
