<svg width="219" height="72" viewBox="0 0 219 72" fill="none" xmlns="http://www.w3.org/2000/svg">
<path d="M107.774 29.9341V3.15417H101.347V24.0425H95.5745V3.15417H89.0879V24.0425H83.3153V3.15417H76.8286V29.9341H107.774ZM126.877 19.5792C128.425 18.4485 129.079 17.1987 129.079 15.4134C129.079 11.9618 126.639 9.75988 122.771 9.75988H112.714V29.9936H123.128C126.877 29.9936 129.317 27.6727 129.317 24.0425C129.317 21.9596 128.603 20.7099 126.877 19.5792ZM118.665 17.4368V14.1637H121.343C122.473 14.1637 123.128 14.7588 123.128 15.7705C123.128 16.8417 122.473 17.4368 121.343 17.4368C121.283 17.4368 118.665 17.4368 118.665 17.4368ZM118.665 25.4708V21.9596H121.581C122.711 21.9596 123.366 22.6142 123.366 23.7449C123.366 24.8161 122.652 25.5303 121.581 25.5303H118.665V25.4708ZM139.256 29.9341L144.552 19.3411V29.9341H150.563V9.70037H144.492L139.256 19.8767V9.70037H133.185V29.9341H139.256ZM174.486 34.2189V24.4591H172.165V9.70037H157.049V10.593C157.049 17.7343 156.514 20.7694 155.383 24.4591H153.419V34.2189H159.073V29.9341H168.832V34.2189H174.486ZM166.154 24.4591H161.453C162.227 21.9596 162.941 19.5197 162.941 15.2349H166.154V24.4591ZM196.267 29.9341L188.769 18.0914L196.088 9.70037H188.828L183.472 16.9607V9.70037H177.402V29.9341H183.472V23.983L184.662 22.5547L188.769 29.9341H196.267ZM214.953 19.7577C214.953 15.83 214.418 13.8066 212.751 12.0213C211.204 10.355 209.002 9.40282 206.384 9.40282C203.765 9.40282 201.563 10.2955 200.016 12.0213C198.409 13.7471 197.814 15.7705 197.814 19.5197C197.814 23.7449 198.35 25.7088 200.016 27.4941C201.563 29.1604 203.765 30.1126 206.384 30.1126C209.002 30.1126 211.145 29.2199 212.751 27.4941C214.358 25.7683 214.953 23.864 214.953 19.7577ZM208.883 19.6982C208.883 23.4474 208.288 24.5781 206.384 24.5781C204.479 24.5781 203.884 23.4474 203.884 19.6982C203.884 16.1871 204.539 15.0563 206.384 15.0563C208.288 15.0563 208.883 16.1871 208.883 19.6982ZM94.1463 59.9871C94.1463 57.3091 92.6585 55.1667 90.6351 54.0955C92.4205 52.9648 93.7892 50.9414 93.7892 48.5015C93.7892 43.8596 89.683 40.8841 84.8031 40.8841C81.2919 40.8841 77.8998 41.7172 75.3408 44.0977L79.3876 48.2039C80.7563 46.9542 82.6012 46.5971 84.446 46.5971C85.8743 46.5971 87.362 47.4898 87.362 48.918C87.362 50.5248 86.2313 51.477 84.5055 51.477H81.0539V56.833H84.5055C86.2908 56.833 87.6596 58.0232 87.6596 59.749C87.6596 61.2963 86.1123 62.2485 84.446 62.2485C82.4822 62.2485 80.0422 61.7129 78.4949 60.3441L74.3887 64.6289C77.4237 67.4259 80.8158 68.14 84.8031 68.14C90.04 68.14 94.1463 64.9265 94.1463 59.9871ZM113.725 67.9615V54.8096C113.725 49.9297 110.75 47.4898 104.858 47.4898C103.073 47.4898 101.704 47.7278 100.573 48.2039C99.5618 48.6205 98.9667 49.0371 97.7764 50.1678L101.526 53.9765C102.656 52.9053 103.251 52.6077 104.68 52.6077C106.822 52.6077 107.655 53.3218 107.655 55.1072V55.6428H103.668C99.5023 55.6428 96.9433 57.9042 96.9433 61.5939C96.9433 65.5216 99.5023 68.0805 103.489 68.0805C104.382 68.0805 105.215 67.902 105.87 67.664C106.584 67.3664 107.001 67.0689 107.834 66.2357V67.902L113.725 67.9615ZM107.715 59.8085V60.3441C107.715 62.308 106.882 63.1411 104.977 63.1411C103.549 63.1411 102.716 62.546 102.716 61.4748C102.716 60.5227 103.489 59.868 104.62 59.868L107.715 59.8085ZM132.709 40.2295H128.782C128.663 41.4197 127.948 42.0148 126.639 42.0148C125.33 42.0148 124.675 41.4792 124.497 40.2295H120.569C120.807 43.9191 122.771 46.121 126.639 46.121C130.507 46.121 132.471 43.9191 132.709 40.2295ZM135.387 67.9615V47.7278H129.317L124.021 57.9042V47.7278H118.01V67.9615H124.08L129.377 57.3686V67.9615H135.387ZM160.739 67.9615V47.7278H154.788L150.325 56.6544L145.861 47.7278H139.91V67.9615H145.98V57.8447L148.777 63.2006H151.931L154.728 57.8447V67.902H160.739V67.9615Z" fill="#D22027"/>
<g clip-path="url(#clip0)">
<path d="M60.2396 35.5389H59.1152L59.072 34.155L58.9855 32.8145L58.8125 31.4739L58.5963 30.1765L58.2936 28.8792L57.9476 27.6251L57.5152 26.371L57.0395 25.1602L56.5206 23.9926L55.9151 22.825L55.2665 21.7006L54.5746 20.6195L53.8394 19.5816L53.061 18.587L52.2393 17.6356L51.3312 16.7275L50.3798 15.8626L49.4285 15.0409L48.4338 14.2625L47.396 13.5274L46.3148 12.8355L45.1905 12.1868L44.0229 11.5814L42.8553 11.0624L41.6444 10.5867L40.3903 10.1543L39.1362 9.80835L37.8389 9.50563L36.4983 9.28941L35.1577 9.11643L33.7307 8.81372L32.3468 8.77048V7.64612L33.7739 7.68936L35.201 7.8191L36.5848 7.99207L37.9686 8.25154L39.3092 8.55425L40.6498 8.94346L41.9471 9.3759L43.2012 9.85159L44.4553 10.4138L45.6662 11.0192L46.8338 11.6679L47.9581 12.403L49.0392 13.1814L50.0771 14.0031L51.0717 14.868L52.0231 15.7761L52.9313 16.7275L53.7962 17.7221L54.6178 18.76L55.3962 19.8411L56.1314 20.9654L56.8233 22.133L57.4287 23.3439L57.9909 24.598L58.5098 25.8521L58.9423 27.1494L59.3315 28.49L59.6342 29.8306L59.8936 31.2144L60.0666 32.5982L60.1963 34.0253L60.2396 35.5389ZM32.3468 63.4316V62.3072L33.7307 62.264L35.0713 62.1775L36.4118 62.0045L37.7524 61.7883L39.0498 61.4856L40.3038 61.1396L41.5579 60.7072L42.7688 60.2315L43.9364 59.7126L45.104 59.1072L46.2284 58.4585L47.3095 57.7666L48.3473 57.0314L49.342 56.253L50.2933 55.4314L51.2447 54.5232L52.1529 53.6151L52.9745 52.6205L53.7529 51.6258L54.4881 50.588L55.18 49.5069L55.8286 48.3825L56.4341 47.2149L56.953 46.0473L57.4287 44.8364L57.8611 43.5824L58.2071 42.3283L58.5098 41.0309L58.726 39.7336L58.899 38.393L58.9855 37.0524L59.0287 35.6686H60.1531L60.1099 37.0957L59.9801 38.5227L59.8071 39.9066L59.5477 41.2904L59.245 42.631L58.8558 43.9716L58.4233 45.2689L57.9044 46.523L57.3422 47.7338L56.7368 48.9447L56.0449 50.1123L55.3097 51.2366L54.5313 52.3178L53.7097 53.3556L52.8448 54.3503L51.9366 55.3016L50.9853 56.2098L49.9906 57.0747L48.9528 57.8963L47.8716 58.6747L46.7473 59.4099L45.5797 60.1018L44.3688 60.7072L43.1147 61.2694L41.8607 61.7451L40.5633 62.1775L39.2227 62.5667L37.8821 62.8694L36.4983 63.1289L35.1145 63.3019L33.6874 63.4316H32.3468ZM4.4541 35.5389H5.57846L5.6217 36.9227L5.70819 38.2633L5.88117 39.6039L6.14064 40.9012L6.44335 42.1985L6.78931 43.4526L7.22175 44.7067L7.69744 45.9176L8.21638 47.0852L8.8218 48.2528L9.47047 49.3771L10.1624 50.4582L10.8975 51.4961L11.6759 52.4907L12.5408 53.4854L13.4057 54.3935L14.3139 55.3016L15.3085 56.1233L16.3031 56.9017L17.341 57.6368L18.4221 58.3288L19.5465 58.9774L20.7573 59.6261L21.9249 60.145L23.1358 60.6207L24.3898 61.0532L25.6439 61.3991L26.9413 61.7018L28.2386 61.918L29.5792 62.091L30.9198 62.1775L32.3036 62.2208V63.3451L30.8765 63.3019L29.4495 63.1721L28.1089 63.0857L26.7251 62.8262L25.3845 62.5235L24.0439 62.1343L22.7466 61.7018L21.4925 61.2261L20.2816 60.664L19.0275 60.0585L17.8599 59.3666L16.7356 58.6315L15.6544 57.8531L14.6166 57.0314L13.622 56.1665L12.6706 55.2584L11.7624 54.307L10.8975 53.3124L10.0759 52.2745L9.29749 51.1934L8.56234 50.069L7.91367 48.9014L7.30824 47.6906L6.74606 46.4797L6.27037 45.2256L5.83793 43.9283L5.44873 42.5877L5.14601 41.2471L4.75681 39.7768L4.58384 38.393L4.4541 36.9659V35.5389ZM32.3468 7.64612V8.77048L30.963 8.81372L29.6224 8.90021L28.2819 9.07319L26.9845 9.28941L25.6872 9.59212L24.4331 9.93808L23.179 10.3705L21.9682 10.8462L20.7573 11.4084L19.5897 12.0138L18.4653 12.6625L17.3842 13.3544L16.3464 14.0896L15.3517 14.868L14.3571 15.6896L13.449 16.5545L12.5841 17.5059L11.7192 18.4573L10.9408 19.4519L10.2056 20.4898L9.51372 21.5709L8.86505 22.6952L8.21638 23.9493L7.69744 25.1169L7.22175 26.3278L6.78931 27.5819L6.44335 28.836L6.14064 30.1333L5.88117 31.4739L5.75144 32.8145L5.6217 34.155L5.57846 35.5389H4.4541L4.49735 34.1118L4.62708 32.6847L4.80006 31.3009L5.05953 29.9171L5.36224 28.5765L5.75144 27.2359L6.18388 25.9386L6.65957 24.6845L7.22175 23.4304L7.82718 22.2195L8.47585 21.0519L9.211 19.9276L9.98941 18.8465L10.8111 17.8086L11.6759 16.814L12.5841 15.8626L13.5355 14.9545L14.5301 14.0896L15.568 13.2679L16.6491 12.4895L17.7734 11.7544L18.941 11.1057L20.1519 10.5003L21.3627 9.93808L22.6168 9.46239L23.9142 9.02994L25.2547 8.64074L26.5953 8.33803L27.9791 8.07856L29.363 7.90559L30.79 7.77585L32.3468 7.64612Z" fill="#D22027"/>
<path d="M49.4287 30.4791L46.0556 26.4573L45.7529 26.1114C45.4935 25.8086 45.3637 25.7654 44.9745 25.7221H41.3852H23.5685H20.3251C20.0224 25.7221 19.5467 25.6789 19.2008 26.1114L15.5682 30.4358C15.0061 31.0845 15.0925 32.0791 15.7845 32.598C16.4331 33.1602 17.4277 33.0737 17.9467 32.4251L20.9738 28.7925H44.0232L47.0503 32.4251C47.6124 33.0737 48.5638 33.1602 49.2125 32.598C49.9044 32.1223 49.9909 31.1277 49.4287 30.4791Z" fill="#D22027"/>
<path d="M15.3087 42.6308L22.0116 30.5656H42.9419L49.7746 42.9335C50.9854 46.9552 48.607 50.1121 44.0231 52.7068C38.0986 56.0798 22.5305 55.5609 17.0385 50.2418C14.7032 47.7769 13.6654 45.0957 15.3087 42.6308Z" fill="#D22027"/>
<path d="M49.1259 44.0145C49.5151 47.1714 47.3961 49.6796 43.6771 51.7985C38.3148 54.8689 24.1738 54.3932 19.2007 49.5498C17.5141 47.82 16.606 45.9605 16.9087 44.1875C17.1249 45.4848 17.9898 46.8254 19.2007 48.0363C24.1738 52.8797 38.3148 53.3554 43.6771 50.285C46.7907 48.5552 48.7799 46.4795 49.1259 44.0145Z" fill="white"/>
<path d="M29.4061 23.041H25.6006V24.5114H30.098C30.4007 24.5114 30.617 24.4249 30.7899 24.2519L34.9414 20.7058L34.4225 20.3166L33.6873 19.8409L30.098 22.8248C29.8386 23.041 29.8386 23.041 29.4061 23.041Z" fill="#D22027"/>
<path d="M25.3411 23.0409H28.5412C28.9304 23.0409 29.2764 23.3868 29.2764 23.776C29.2764 24.1653 28.9304 24.5112 28.5412 24.5112H25.3411C24.9519 24.5112 24.606 24.1653 24.606 23.776C24.606 23.3868 24.9519 23.0409 25.3411 23.0409Z" fill="#D22027"/>
<path d="M38.8335 23.0409H34.5091C34.1199 23.0409 33.7739 23.3868 33.7739 23.776C33.7739 24.1653 34.1199 24.5112 34.5091 24.5112H38.8335C39.2227 24.5112 39.5687 24.1653 39.5687 23.776C39.6119 23.3868 39.266 23.0409 38.8335 23.0409Z" fill="#D22027"/>
<path d="M29.1037 15.9058C30.5307 15.9058 31.6551 17.0301 31.6551 18.4572C31.6551 19.8843 30.4875 21.0086 29.1037 21.0086C27.7199 21.0086 26.5522 19.841 26.5522 18.4572C26.5522 17.0734 27.6766 15.9058 29.1037 15.9058ZM30.3578 16.9869C30.7902 17.3328 31.0497 17.895 31.0497 18.5004C31.0497 19.5815 30.1415 20.4897 29.0604 20.4897C28.4118 20.4897 27.8063 20.1437 27.4604 19.668C27.8063 19.9707 28.2388 20.1437 28.7577 20.1437C29.8388 20.1437 30.747 19.2356 30.747 18.1545C30.7037 17.6788 30.574 17.2896 30.3578 16.9869Z" fill="#D22027"/>
<path d="M35.6335 15.9058C37.0605 15.9058 38.1849 17.0301 38.1849 18.4572C38.1849 19.8843 37.0173 21.0086 35.6335 21.0086C34.2064 21.0086 33.082 19.841 33.082 18.4572C33.082 17.0734 34.2064 15.9058 35.6335 15.9058ZM36.8443 16.9869C37.2768 17.3328 37.5362 17.895 37.5362 18.5004C37.5362 19.5815 36.6281 20.4897 35.547 20.4897C34.8983 20.4897 34.2929 20.1437 33.9469 19.668C34.2929 19.9707 34.7253 20.1437 35.2443 20.1437C36.3254 20.1437 37.2335 19.2356 37.2335 18.1545C37.2335 17.6788 37.1038 17.2896 36.8443 16.9869Z" fill="#D22027"/>
<path d="M32.3037 66.4586C49.3802 66.4586 63.2235 52.6153 63.2235 35.5388C63.2235 18.4622 49.3802 4.6189 32.3037 4.6189C15.2271 4.6189 1.38379 18.4622 1.38379 35.5388C1.38379 52.6153 15.2271 66.4586 32.3037 66.4586Z" stroke="#D22027" stroke-width="5" stroke-miterlimit="10"/>
</g>
<defs>
<clipPath id="clip0">
<rect width="64.8668" height="64.8668" fill="white" transform="translate(0 2.97559)"/>
</clipPath>
</defs>
</svg>
