<svg width="170" height="47" viewBox="0 0 170 47" fill="none" xmlns="http://www.w3.org/2000/svg">
<g clip-path="url(#clip0)">
<path d="M41.1682 0V4.49372C34.2222 5.04152 28.2503 8.72209 25.4634 13.5753C26.3105 5.96594 33.0193 0 41.1682 0Z" fill="url(#paint0_linear)"/>
<path d="M41.1678 4.49371V27.202C41.1678 38.1324 31.96 47 20.5923 47C12.0029 47 4.64179 41.9414 1.56689 34.7514C3.83706 38.2608 7.88609 40.6061 12.5027 40.6061C20.2111 40.6061 25.1495 35.2821 25.3698 28.6314H25.3782V15.193C25.3792 14.6439 25.4104 14.0953 25.4714 13.5496C28.792 8.30267 34.0608 4.64778 41.1678 4.49371Z" fill="url(#paint1_linear)"/>
<path d="M19.7029 32.5431C19.0506 33.7414 17.8647 34.6145 15.7979 35.3249C8.37747 37.1652 1.26202 31.6187 0.152344 25.1049C4.56562 33.7329 13.1126 32.817 15.8063 30.6429C15.9758 32.6715 17.8478 33.0652 19.7029 32.5431Z" fill="url(#paint2_linear)"/>
<path d="M15.798 30.3604C15.798 30.4631 15.8065 30.5658 15.8065 30.66C13.1043 32.8341 4.82834 34.1095 0.152474 25.1049C0.0509488 24.5314 -7.51147e-05 23.9499 8.29962e-08 23.3673V0C8.7249 0 15.7895 6.80477 15.7895 15.193V30.3604H15.798Z" fill="url(#paint3_linear)"/>
<path d="M72.4589 28.5972C72.4707 29.6583 72.2749 30.7113 71.8829 31.6957C71.5136 32.6096 70.9429 33.4264 70.2141 34.0838C69.4456 34.769 68.5461 35.2876 67.5712 35.6074C66.5378 35.9669 65.3604 36.1381 64.0559 36.1381C62.7514 36.1381 61.5739 35.9583 60.5405 35.6074C59.507 35.2564 58.6176 34.7429 57.8976 34.0838C57.1715 33.424 56.6012 32.6079 56.2289 31.6957C55.8368 30.7113 55.641 29.6583 55.6528 28.5972V16.5797C55.8816 16.5369 56.2458 16.477 56.7456 16.4085C57.2193 16.3348 57.6978 16.2976 58.1771 16.2972C58.6005 16.291 59.0234 16.3283 59.4393 16.4085C59.7695 16.4692 60.082 16.6038 60.3541 16.8022C60.6101 17.0063 60.8039 17.2793 60.9132 17.5897C61.0403 17.9235 61.0996 18.3686 61.0996 18.9079V28.503C61.0996 29.513 61.3706 30.292 61.9212 30.8654C62.4718 31.4389 63.1834 31.7128 64.0559 31.7128C64.9453 31.7128 65.6653 31.4304 66.2074 30.8654C66.7496 30.3005 67.0206 29.513 67.0206 28.503V16.5797C67.2493 16.5369 67.6136 16.477 68.1134 16.4085C68.5875 16.339 69.0658 16.3019 69.5449 16.2972C69.9683 16.291 70.3912 16.3283 70.8071 16.4085C71.1372 16.4692 71.4498 16.6038 71.7219 16.8022C71.9779 17.0063 72.1717 17.2793 72.281 17.5897C72.4081 17.9235 72.4674 18.3686 72.4674 18.9079V28.5972H72.4589Z" fill="#001E41"/>
<path d="M81.8868 28.5629V35.5132C81.5269 35.5994 81.1619 35.6623 80.7941 35.7015C80.3079 35.7622 79.8186 35.7936 79.3287 35.7957C78.9053 35.8023 78.4824 35.765 78.0665 35.6844C77.7364 35.6237 77.4238 35.4891 77.1517 35.2907C76.8957 35.0866 76.7019 34.8136 76.5926 34.5032C76.4655 34.1694 76.4062 33.7243 76.4062 33.185V16.5797C76.635 16.5369 76.9992 16.477 77.499 16.4085C77.9727 16.3348 78.4513 16.2976 78.9305 16.2972C79.3539 16.291 79.7768 16.3283 80.1927 16.4085C80.5229 16.4692 80.8354 16.6038 81.1075 16.8022C81.3635 17.0063 81.5573 17.2793 81.6666 17.5897C81.7937 17.9235 81.853 18.3686 81.853 18.9079V23.9066L88.3246 16.3914C89.7393 16.3914 90.7473 16.6567 91.3572 17.196C91.9671 17.7352 92.272 18.3686 92.272 19.0962C92.2739 19.6371 92.1335 20.1687 91.8654 20.6369C91.5944 21.1162 91.1623 21.664 90.5609 22.2717L86.6728 26.2005C87.1895 26.7911 87.7317 27.3989 88.3077 28.0237C88.8837 28.6485 89.4428 29.2648 89.9849 29.864C90.527 30.4631 91.0607 31.0366 91.5689 31.5759C92.0772 32.1151 92.5177 32.5944 92.8904 32.9882C92.9016 33.3907 92.8255 33.7908 92.6675 34.1605C92.5094 34.5301 92.2733 34.8604 91.9755 35.128C91.698 35.3759 91.3759 35.5677 91.0268 35.693C90.6677 35.8205 90.2894 35.8842 89.9087 35.8813C89.0616 35.8813 88.367 35.6673 87.8249 35.2393C87.2581 34.7832 86.7362 34.2729 86.2662 33.7157L81.8868 28.5629Z" fill="#001E41"/>
<path d="M99.9383 17.1532C100.294 16.9477 100.828 16.7423 101.539 16.554C102.245 16.3676 102.97 16.2727 103.699 16.2715C104.741 16.2715 105.656 16.4256 106.452 16.7252C107.249 17.0248 107.765 17.5041 107.994 18.1546C108.367 19.2417 108.773 20.517 109.205 21.9636C109.637 23.4101 110.078 24.908 110.51 26.4487C110.942 27.9894 111.374 29.513 111.789 31.0109C112.204 32.5088 112.568 33.8356 112.882 34.9911C112.636 35.2821 112.263 35.5218 111.764 35.7015C111.264 35.8813 110.671 35.9669 109.993 35.9669C109.569 35.9746 109.145 35.9315 108.731 35.8385C108.429 35.7724 108.143 35.6442 107.892 35.4619C107.667 35.2887 107.487 35.0624 107.367 34.8028C107.22 34.5008 107.101 34.1856 107.011 33.8612L106.452 31.6871H100.819C100.65 32.3205 100.489 32.9711 100.319 33.6387C100.15 34.3063 99.9891 34.9569 99.8197 35.5903C99.5209 35.699 99.2153 35.7876 98.9049 35.8556C98.5207 35.9374 98.1285 35.9748 97.7359 35.9669C96.677 35.9669 95.8977 35.7786 95.381 35.4191C94.8643 35.0596 94.6187 34.546 94.6187 33.8955C94.6193 33.597 94.6621 33.3001 94.7457 33.0139C94.8304 32.7228 94.9236 32.3719 95.0252 31.9782C95.1692 31.4132 95.3726 30.7114 95.6351 29.8725C95.8977 29.0337 96.1773 28.1264 96.4907 27.1506C96.8041 26.1748 97.1345 25.1734 97.4902 24.1463C97.846 23.1191 98.1764 22.1519 98.4898 21.236C98.8032 20.3202 99.0827 19.507 99.3453 18.7966C99.591 18.069 99.7943 17.5298 99.9383 17.1532ZM103.674 21.2104C103.386 22.092 103.056 23.0678 102.691 24.1463C102.327 25.2247 102.005 26.3204 101.709 27.4331H105.571C105.283 26.3032 104.987 25.1905 104.682 24.112C104.377 23.0335 104.106 22.0663 103.86 21.2018H103.674V21.2104Z" fill="#001E41"/>
<path d="M120.92 28.0665C120.005 27.7498 119.175 27.4331 118.43 27.1078C117.732 26.812 117.081 26.414 116.499 25.9266C115.965 25.4739 115.535 24.9104 115.236 24.2746C114.94 23.6327 114.787 22.8538 114.787 21.9293C114.787 20.149 115.468 18.7224 116.829 17.6496C118.19 16.5768 120.093 16.0433 122.538 16.049C123.372 16.0433 124.205 16.1063 125.029 16.2373C125.791 16.3657 126.452 16.554 127.002 16.8194C127.507 17.0475 127.952 17.3937 128.298 17.8294C128.611 18.2381 128.775 18.7425 128.764 19.2588C128.776 19.7532 128.647 20.2407 128.392 20.6626C128.149 21.0443 127.842 21.3803 127.485 21.6554C127.028 21.3644 126.418 21.1076 125.647 20.8851C124.825 20.6555 123.975 20.5431 123.123 20.5513C122.191 20.5513 121.505 20.6797 121.064 20.945C120.624 21.2104 120.412 21.5356 120.412 21.9379C120.41 22.0905 120.447 22.2411 120.518 22.3757C120.589 22.5103 120.692 22.6247 120.819 22.7083C121.09 22.9051 121.496 23.0934 122.03 23.2561L123.682 23.7868C125.63 24.4116 127.129 25.2133 128.18 26.192C129.23 27.1706 129.755 28.4973 129.755 30.1721C129.755 31.9525 129.061 33.399 127.672 34.4946C126.282 35.5902 124.241 36.1466 121.539 36.1466C120.646 36.1538 119.756 36.0735 118.879 35.9069C118.134 35.7768 117.41 35.5435 116.727 35.2136C116.17 34.954 115.68 34.5672 115.296 34.0838C114.952 33.6396 114.77 33.0897 114.779 32.526C114.766 31.9602 114.952 31.408 115.304 30.9681C115.624 30.5681 116.015 30.2315 116.456 29.9752C117.109 30.4733 117.827 30.8766 118.591 31.1736C119.469 31.5156 120.403 31.687 121.344 31.6786C122.36 31.6786 123.072 31.5245 123.487 31.2078C123.902 30.8911 124.114 30.523 124.114 30.1036C124.121 29.9136 124.079 29.7249 123.991 29.5567C123.903 29.3884 123.773 29.2464 123.614 29.145C123.284 28.9224 122.818 28.7084 122.216 28.503L120.92 28.0665Z" fill="#001E41"/>
<path d="M138.192 28.5629V35.5132C137.832 35.5994 137.467 35.6623 137.099 35.7015C136.613 35.7622 136.124 35.7936 135.634 35.7957C135.21 35.8023 134.788 35.765 134.372 35.6844C134.042 35.6237 133.729 35.4891 133.457 35.2907C133.201 35.0866 133.007 34.8136 132.898 34.5032C132.771 34.1694 132.711 33.7243 132.711 33.185V16.5797C132.94 16.5369 133.304 16.477 133.804 16.4085C134.278 16.3348 134.756 16.2976 135.236 16.2972C135.659 16.291 136.082 16.3283 136.498 16.4085C136.828 16.4692 137.141 16.6038 137.413 16.8022C137.669 17.0063 137.862 17.2793 137.972 17.5897C138.099 17.9235 138.158 18.3686 138.158 18.9079V23.9066L144.63 16.3914C146.044 16.3914 147.052 16.6567 147.662 17.196C148.272 17.7352 148.577 18.3686 148.577 19.0962C148.579 19.6371 148.439 20.1687 148.171 20.6369C147.9 21.1162 147.468 21.664 146.866 22.2717L142.978 26.2005C143.495 26.7911 144.037 27.3989 144.613 28.0237C145.189 28.6485 145.748 29.2648 146.29 29.864C146.832 30.4631 147.366 31.0366 147.874 31.5759C148.382 32.1151 148.823 32.5944 149.196 32.9882C149.207 33.3907 149.131 33.7908 148.973 34.1605C148.815 34.5301 148.578 34.8604 148.281 35.128C148.003 35.3759 147.681 35.5677 147.332 35.693C146.973 35.8205 146.595 35.8842 146.214 35.8813C145.367 35.8813 144.672 35.6673 144.13 35.2393C143.563 34.7832 143.041 34.2729 142.571 33.7157L138.192 28.5629Z" fill="#001E41"/>
<path d="M150.297 26.0807C150.297 24.4458 150.551 22.9993 151.059 21.741C151.567 20.4828 152.262 19.43 153.143 18.5826C154.035 17.727 155.094 17.0682 156.252 16.6482C158.765 15.7694 161.498 15.7694 164.011 16.6482C165.174 17.068 166.238 17.7267 167.137 18.5826C168.054 19.4699 168.771 20.5474 169.238 21.741C169.746 22.9993 170 24.4458 170 26.0807C170 27.7155 169.754 29.1707 169.254 30.4375C168.755 31.7043 168.069 32.7656 167.188 33.613C166.29 34.4696 165.225 35.1284 164.062 35.5475C162.802 35.9953 161.475 36.2184 160.14 36.2065C158.803 36.2213 157.474 35.9922 156.218 35.5303C155.053 35.1043 153.99 34.4333 153.101 33.5617C152.202 32.6603 151.501 31.5785 151.042 30.3861C150.551 29.1364 150.297 27.6984 150.297 26.0807ZM155.905 26.0807C155.905 27.9894 156.286 29.4103 157.057 30.3604C157.827 31.3105 158.852 31.7727 160.14 31.7727C161.444 31.7727 162.486 31.302 163.257 30.3604C164.028 29.4189 164.409 27.9894 164.409 26.0807C164.409 24.189 164.031 22.7739 163.274 21.8352C162.517 20.8965 161.484 20.4257 160.174 20.4229C158.886 20.4229 157.853 20.8936 157.073 21.8266C156.294 22.7596 155.905 24.1719 155.905 26.0807Z" fill="#001E41"/>
</g>
<defs>
<linearGradient id="paint0_linear" x1="25.4591" y1="6.744" x2="41.1648" y2="6.82951" gradientUnits="userSpaceOnUse">
<stop stop-color="#FD9B14"/>
<stop offset="0.3" stop-color="#FA9511"/>
<stop offset="0.68" stop-color="#F28509"/>
<stop offset="1" stop-color="#E97200"/>
</linearGradient>
<linearGradient id="paint1_linear" x1="40.5604" y1="9.38887" x2="15.8847" y2="40.6949" gradientUnits="userSpaceOnUse">
<stop stop-color="#FD9B14"/>
<stop offset="1" stop-color="#E98600"/>
</linearGradient>
<linearGradient id="paint2_linear" x1="7.36775" y1="29.3924" x2="14.5737" y2="34.1353" gradientUnits="userSpaceOnUse">
<stop stop-color="#00577B"/>
<stop offset="0.23" stop-color="#006594"/>
<stop offset="0.5" stop-color="#0072AA"/>
<stop offset="0.76" stop-color="#0079B7"/>
<stop offset="1" stop-color="#007CBC"/>
</linearGradient>
<linearGradient id="paint3_linear" x1="3.37306" y1="5.27605" x2="11.6305" y2="29.3117" gradientUnits="userSpaceOnUse">
<stop stop-color="#0060AA"/>
<stop offset="0.6" stop-color="#0075B7"/>
<stop offset="1" stop-color="#007CBC"/>
</linearGradient>
<clipPath id="clip0">
<rect width="170" height="47" fill="white"/>
</clipPath>
</defs>
</svg>
