<svg width="136" height="136" viewBox="0 0 136 136" fill="none" xmlns="http://www.w3.org/2000/svg">
<g clip-path="url(#clip0)">
<path d="M68.2878 43.6783C68.9361 43.6783 69.5844 43.6783 70.1607 43.6064C71.5293 41.1598 75.059 41.4476 77.1479 39.9365C87.0166 32.5969 87.0166 21.5154 88.8895 11.5852C76.9318 16.9101 64.7581 19.5006 63.8937 32.7408C61.2284 26.8402 58.059 21.2995 56.6183 19.7884C52.8005 20.0762 50.2793 22.091 50.2793 22.091C56.3301 28.3513 61.1564 36.6265 63.1734 43.2466C64.6861 43.5344 66.3429 43.6783 68.2878 43.6783Z" fill="#00823F"/>
<path d="M109.564 51.6657C105.17 42.5271 93.356 36.7705 81.9026 37.9937C77.6526 38.4255 74.6992 40.5123 68.6483 40.5123C62.5975 40.5123 59.7161 38.3535 55.4661 37.9937C44.2289 36.8424 32.5594 42.3112 28.0933 51.234C23.6272 59.8689 22.9789 69.4393 25.8602 78.362C27.2289 82.6795 29.3178 86.5652 31.767 89.9472H37.8899V70.5906H71.0255V89.9472H76.0678V70.5906H97.3899V89.9472H105.674C109.131 85.126 111.797 79.4414 112.877 72.9652C114.03 65.7694 112.949 58.4297 109.564 51.6657ZM37.8899 65.9133L29.1738 53.2488H62.3094L71.0255 65.9133H37.8899ZM97.5339 65.9133H76.0678L84.7839 53.2488H106.25L97.5339 65.9133Z" fill="#E5282B"/>
<path d="M28.7414 101.46H31.1905V113.477H34.288V101.46H36.7371V98.6538H28.8134V101.46H28.7414ZM19.0168 105.778C19.8812 105.418 20.3134 104.842 20.3134 104.77C20.6736 104.267 20.8176 103.331 20.8176 102.54C20.8176 101.46 20.5295 100.453 19.8812 99.7332C18.8727 98.6538 17.5041 98.7258 16.2075 98.7258H12.2456V113.477H16.7837C18.1524 113.477 19.5931 113.405 20.6015 111.966C21.1058 111.174 21.3219 110.383 21.3219 109.519C21.3219 108.656 21.1058 107.577 20.6015 106.857C20.3134 106.353 19.7371 105.994 19.0168 105.778ZM15.199 101.028H16.2795C16.6397 101.028 17.1439 101.1 17.432 101.46C17.7202 101.748 17.8642 102.396 17.8642 102.827C17.8642 103.187 17.7922 103.763 17.5761 104.123C17.36 104.41 16.9278 104.626 16.2795 104.626H15.199V101.028ZM17.7922 110.527C17.432 110.959 16.8558 111.031 16.3515 111.031H15.199V107.073H16.2795C16.7117 107.073 17.2159 107.001 17.6481 107.361C18.0083 107.649 18.2244 108.224 18.2244 109.016C18.2244 109.519 18.0804 110.167 17.7922 110.527ZM23.627 113.477H26.7244V98.7258H23.627V113.477ZM63.3176 113.477H66.4151V98.7258H63.3176V113.477ZM96.3812 98.438C95.3727 98.438 94.0041 98.7258 92.9236 100.237C92.4193 100.956 91.699 102.54 91.699 106.065C91.699 109.591 92.4193 111.103 92.9236 111.894C94.0041 113.477 95.3727 113.693 96.3812 113.693C97.3897 113.693 98.7583 113.405 99.8388 111.894C100.343 111.174 101.063 109.591 101.063 106.065C101.063 102.54 100.343 101.028 99.8388 100.237C98.7583 98.7258 97.3897 98.438 96.3812 98.438ZM97.3176 110.527C97.1736 110.743 96.8854 111.031 96.3812 111.031C95.877 111.031 95.5888 110.743 95.4448 110.527C95.0846 110.023 94.9405 108.944 94.9405 106.065C94.9405 103.187 95.0846 102.108 95.4448 101.604C95.5888 101.388 95.877 101.1 96.3812 101.1C96.8854 101.1 97.1736 101.388 97.3176 101.604C97.6778 102.108 97.8219 103.187 97.8219 106.065C97.8219 108.944 97.6778 110.023 97.3176 110.527ZM89.1778 109.016C89.1058 108.152 89.0337 107.433 88.6736 106.785C88.3134 106.065 87.6651 105.706 86.9448 105.634V105.562C87.449 105.49 87.7371 105.274 88.0253 104.986C88.4575 104.554 88.6015 104.051 88.6736 103.619C88.8176 102.755 88.8897 102.468 88.9617 101.892C89.1058 101.028 89.466 100.956 89.682 100.956H89.8261V98.6538C89.538 98.5099 89.3219 98.5099 88.9617 98.5099C88.3854 98.5099 87.8092 98.5819 87.3049 98.8697C86.9448 99.1575 86.5846 99.5893 86.4405 100.021C86.2965 100.525 86.2244 101.028 86.0804 102.036C86.0083 102.971 86.0083 103.187 85.9363 103.475C85.8643 103.763 85.7202 104.41 84.7117 104.41H83.7753V98.5819H80.6778V113.333H83.7032V106.857H84.6397C84.9278 106.857 85.5041 106.857 85.7922 107.289C86.0804 107.649 86.1524 108.224 86.2244 108.944C86.3685 110.743 86.4405 111.606 86.8007 112.326C87.377 113.333 88.3854 113.477 89.1778 113.477C89.466 113.477 89.682 113.477 90.0422 113.333V110.815C89.7541 110.887 89.538 110.815 89.3939 110.527C89.3219 110.455 89.2498 110.167 89.1778 109.016ZM55.0337 104.554C54.8176 105.634 54.5295 106.929 54.3854 109.088C54.3134 108.152 54.1693 105.922 53.9532 104.842L52.8007 98.5819H48.6227V113.333H51.0719V104.554C51.0719 103.619 50.9998 101.46 50.9278 100.453C51.288 102.971 51.36 103.907 51.5041 104.626L53.2329 113.333H55.1778L56.9787 104.77C57.0507 104.267 57.4829 101.748 57.627 100.453C57.4829 103.835 57.4829 102.54 57.4829 104.914V113.333H60.3643V98.5819H56.2583L55.0337 104.554ZM74.627 104.482H72.3939V98.6538H69.3685V113.405H72.3939V107.001H74.627V113.405H77.6524V98.6538H74.627V104.482ZM40.1948 98.6538L36.8092 113.405H39.4744L40.0507 110.239H43.0041L43.5804 113.405H46.6778L43.3643 98.6538H40.1948ZM40.4109 107.864L41.2032 103.763C41.4914 102.396 41.4914 101.676 41.5634 101.388C41.5634 101.892 41.6354 102.755 41.8515 103.907L42.6439 107.864H40.4109ZM127.716 95.9194C123.538 99.3014 116.046 96.9268 113.957 100.741C113.093 99.3734 111.58 98.7258 109.924 98.6538H107.042C105.241 98.6538 103.513 99.5173 102.72 101.316C102.216 102.468 102.144 103.763 102.144 104.554C102.144 105.922 102.36 107.073 103.08 108.224C103.585 109.088 104.665 110.527 107.114 110.455V113.333H109.996V110.455C112.373 110.527 113.525 109.088 114.03 108.224C114.534 109.088 115.686 110.527 118.063 110.455V113.333H120.945V110.455C123.394 110.527 124.474 109.088 124.979 108.224C125.699 107.073 125.915 105.922 125.915 104.554C125.915 103.835 125.843 102.468 125.339 101.316C125.267 101.244 125.267 101.172 125.195 101.028C127.572 99.7332 128.004 96.711 127.716 95.9194ZM107.186 108.152C106.826 108.152 106.034 108.008 105.53 107.145C105.241 106.569 105.169 105.274 105.169 104.626C105.169 102.755 105.602 101.964 105.674 101.892C105.89 101.532 106.394 101.1 107.186 101.028V108.152ZM111.508 107.001C111.076 107.936 110.284 108.008 109.852 108.008V100.956C110.14 100.956 110.86 101.028 111.364 101.82C111.796 102.468 111.868 103.619 111.868 104.482C111.868 105.13 111.796 106.425 111.508 107.001ZM118.063 108.152C117.703 108.152 116.911 108.008 116.407 107.145C116.118 106.569 116.046 105.274 116.046 104.626C116.046 102.755 116.479 101.964 116.551 101.892C116.767 101.532 117.271 101.1 118.063 101.028V108.152ZM122.385 107.001C121.953 107.936 121.161 108.008 120.729 108.008V100.956C121.017 100.956 121.737 101.028 122.241 101.82C122.674 102.468 122.746 103.619 122.746 104.482C122.746 105.13 122.674 106.425 122.385 107.001Z" fill="#00823F"/>
</g>
<defs>
<clipPath id="clip0">
<rect width="136" height="136" fill="white"/>
</clipPath>
</defs>
</svg>
