<svg width="292" height="60" viewBox="0 0 292 60" fill="none" xmlns="http://www.w3.org/2000/svg">
<path d="M100.941 26.0124C100.941 26.7601 100.783 27.3504 100.429 27.8226C100.075 28.2948 99.6028 28.649 99.0125 28.9245C98.4222 29.2 97.7532 29.3967 97.0449 29.5148C96.2971 29.6328 95.5888 29.7115 94.8411 29.7115H81.7365C80.0443 29.7115 78.7457 29.3574 77.8012 28.6884C76.8961 28.0194 76.4238 27.2717 76.4238 26.4846V25.9336H94.8411V22.5493H84.2944C83.1532 22.5493 82.2481 22.4312 81.6184 22.1558C80.9888 21.8803 80.5166 21.5655 80.1624 21.2113C79.8869 20.8571 79.6508 20.4636 79.6114 20.1094C79.5327 19.7159 79.4934 19.4404 79.4934 19.2043V18.6533H94.8804V15.269H80.8707C79.2573 15.269 78.116 14.9541 77.4864 14.3245C76.8567 13.6948 76.5025 12.9471 76.4632 12.042V11.4517H100.941V14.8361C100.941 15.1509 100.862 15.5051 100.744 15.938C100.626 16.3708 100.39 16.7644 100.075 17.1973C99.7602 17.6301 99.288 17.945 98.6977 18.2598C98.1074 18.5353 97.3597 18.6927 96.4546 18.6927V18.8894C97.0055 18.9681 97.4777 19.0469 97.95 19.1256C98.4222 19.2043 98.8551 19.3617 99.2093 19.5978C99.6815 19.9126 100.114 20.2668 100.429 20.6997C100.744 21.1326 100.901 21.8016 100.901 22.746V26.0124H100.941ZM121.522 29.7115V22.5099H109.205V25.3434C109.205 26.2485 109.087 26.9175 108.811 27.4291C108.536 27.9013 108.142 28.3342 107.591 28.649C107.08 28.9638 106.45 29.2 105.742 29.3967C105.034 29.5935 104.286 29.6722 103.499 29.6722H103.145V15.4657C103.145 14.7574 103.302 14.1671 103.577 13.6555C103.853 13.1439 104.286 12.7504 104.797 12.4355C105.309 12.1207 105.899 11.8846 106.568 11.6878C107.237 11.5304 107.946 11.4517 108.654 11.4517H127.701V29.7115H121.522ZM121.522 15.269H109.205V18.6533H121.522V15.269ZM148.283 29.7115V15.1903H135.965V29.7115H129.865V11.4517H154.343V29.7115H148.283ZM174.964 15.269H162.646V29.7115H156.547V15.4657C156.547 14.7574 156.704 14.1671 156.98 13.6555C157.255 13.1439 157.688 12.7504 158.2 12.4355C158.711 12.1207 159.301 11.8846 159.97 11.6878C160.639 11.5304 161.348 11.4517 162.056 11.4517H181.103V29.7115H174.925V15.269H174.964ZM201.724 29.7115V22.5099H189.407V25.3434C189.407 26.2485 189.289 26.9175 189.013 27.4291C188.738 27.9013 188.344 28.3342 187.793 28.649C187.282 28.9638 186.652 29.2 185.944 29.3967C185.235 29.5935 184.487 29.6722 183.7 29.6722H183.346V15.4657C183.346 14.7574 183.504 14.1671 183.779 13.6555C184.055 13.1439 184.487 12.7504 184.999 12.4355C185.511 12.1207 186.101 11.8846 186.77 11.6878C187.439 11.5304 188.147 11.4517 188.856 11.4517H207.903V29.7115H201.724ZM201.724 15.269H189.407V18.6533H201.724V15.269ZM234.82 12.2388C234.82 13.0258 234.623 13.6161 234.269 14.0097C233.915 14.4425 233.443 14.718 232.931 14.8754C232.42 15.0328 231.869 15.1509 231.318 15.1903C230.767 15.2296 230.255 15.2296 229.862 15.2296H225.611V25.8549C225.611 27.2323 225.297 28.1768 224.667 28.7671C224.037 29.3574 222.896 29.6328 221.204 29.6328H219.433V15.269H210.067V14.7574C210.067 13.4587 210.421 12.5929 211.169 12.1207C211.917 11.6485 212.979 11.4124 214.317 11.4124H234.781V12.2388H234.82ZM255.874 29.7115C255.126 29.7115 254.497 29.6328 253.985 29.5148C253.473 29.3967 253.041 29.2393 252.686 29.0819C252.293 28.9245 251.978 28.7277 251.703 28.4916C251.427 28.2555 251.112 28.0587 250.837 27.8619L243.124 21.2506V26.1698C243.124 26.8388 242.966 27.3897 242.651 27.8226C242.337 28.2555 241.943 28.649 241.431 28.8851C240.92 29.1606 240.329 29.3574 239.66 29.4754C238.991 29.5935 238.283 29.6722 237.575 29.6722H237.024V11.4517H243.124V19.5191L251.073 11.4517H257.763L249.459 20.0307L260.518 29.7115H255.874ZM281.099 29.7115V22.5099H268.782V25.3434C268.782 26.2485 268.664 26.9175 268.388 27.4291C268.113 27.9013 267.719 28.3342 267.168 28.649C266.657 28.9638 266.027 29.2 265.319 29.3967C264.61 29.5935 263.863 29.6722 263.076 29.6722H262.721V15.4657C262.721 14.7574 262.879 14.1671 263.154 13.6555C263.43 13.1439 263.863 12.7504 264.374 12.4355C264.886 12.1207 265.476 11.8846 266.145 11.6878C266.814 11.5304 267.522 11.4517 268.231 11.4517H287.278V29.7115H281.099ZM281.099 15.269H268.782V18.6533H281.099V15.269Z" fill="black"/>
<path d="M76.4629 37.7789H78.1551V39.7859C78.1551 40.4549 78.1944 40.8878 78.2338 41.0846C78.2731 41.2813 78.4305 41.4781 78.6667 41.6355C78.9028 41.7929 79.257 41.8716 79.7292 41.8716C80.0834 41.8716 80.3982 41.8323 80.713 41.7536C80.9885 41.6749 81.2246 41.5568 81.4607 41.3994V37.7789H83.1529V46.2005H81.4607V42.8161C81.1066 42.9735 80.7917 43.0916 80.4376 43.1703C80.1227 43.249 79.7686 43.2884 79.4537 43.2884C78.6273 43.2884 77.919 43.0916 77.368 42.6981C76.8171 42.3045 76.5022 41.5962 76.5022 40.6517V37.7789H76.4629ZM92.4402 46.2005H90.5907L89.8429 44.2722H86.4979L85.7896 46.2005H83.9793L87.285 37.7789H89.0952L92.4402 46.2005ZM89.3314 42.8555L88.1508 39.7466L87.0095 42.8555H89.3314ZM98.4219 43.0916L100.075 43.6032C99.8386 44.5083 99.4057 45.2167 98.8155 45.6495C98.2252 46.0824 97.4774 46.3185 96.5723 46.3185C95.4704 46.3185 94.526 45.925 93.8176 45.1773C93.1093 44.4296 92.7551 43.3671 92.7551 42.0291C92.7551 40.6123 93.1093 39.5498 93.857 38.7627C94.5653 37.9757 95.5491 37.5822 96.6904 37.5822C97.7136 37.5822 98.54 37.897 99.209 38.4873C99.6025 38.8415 99.878 39.353 100.075 40.022L98.3826 40.4156C98.2645 39.9827 98.0677 39.6285 97.7529 39.3924C97.4381 39.1563 97.0446 38.9989 96.6117 38.9989C95.982 38.9989 95.4704 39.235 95.0769 39.6679C94.6834 40.1008 94.4866 40.8485 94.4866 41.8323C94.4866 42.8948 94.6834 43.6425 95.0769 44.1148C95.4704 44.5477 95.9427 44.7838 96.5723 44.7838C97.0052 44.7838 97.3987 44.6264 97.7529 44.3509C98.0677 44.1541 98.3039 43.7212 98.4219 43.0916ZM104.836 37.7789H106.529V44.7838H108.969V37.7789H110.661V44.7838H113.179V37.7789H114.872V46.2005H104.836V37.7789ZM116.642 37.7789H119.987C120.656 37.7789 121.168 37.8183 121.483 37.8576C121.798 37.897 122.112 38.015 122.349 38.2118C122.624 38.3692 122.821 38.6053 122.978 38.9202C123.136 39.1956 123.254 39.5498 123.254 39.904C123.254 40.2975 123.136 40.6517 122.939 41.0059C122.742 41.3207 122.427 41.5962 122.073 41.7536C122.585 41.911 122.978 42.1471 123.254 42.5013C123.529 42.8555 123.687 43.2884 123.687 43.7606C123.687 44.1541 123.608 44.5083 123.411 44.8625C123.214 45.2167 122.978 45.5315 122.663 45.7282C122.349 45.925 121.994 46.0824 121.522 46.1218C121.247 46.1611 120.538 46.1611 119.476 46.1611H116.603V37.7789H116.642ZM118.335 39.1956V41.1239H119.436C120.105 41.1239 120.499 41.1239 120.656 41.0846C120.932 41.0452 121.168 40.9665 121.325 40.7698C121.483 40.6123 121.562 40.3762 121.562 40.1008C121.562 39.8253 121.483 39.6285 121.365 39.4711C121.207 39.3137 121.011 39.1956 120.735 39.1563C120.578 39.1563 120.066 39.1169 119.279 39.1169H118.335V39.1956ZM118.335 42.5406V44.7838H119.909C120.538 44.7838 120.893 44.7838 121.089 44.7444C121.325 44.7051 121.562 44.587 121.719 44.3902C121.876 44.1935 121.955 43.9574 121.955 43.6819C121.955 43.4458 121.876 43.2096 121.758 43.0522C121.64 42.8948 121.443 42.7374 121.247 42.6587C121.011 42.58 120.499 42.5406 119.751 42.5406H118.335ZM125.143 37.7789H126.717V43.3671L130.141 37.7789H131.833V46.2005H130.259V40.691L126.874 46.2005H125.143V37.7789ZM134.233 37.7789H140.057V44.7838H140.805V48.0501H139.388V46.2005H134.076V48.0501H132.659V44.7838H133.367C133.722 44.0754 133.958 43.249 134.076 42.2652C134.194 41.3207 134.233 40.1008 134.233 38.6447V37.7789ZM135.847 39.1956C135.847 41.7536 135.611 43.6032 135.138 44.7838H138.326V39.1956H135.847ZM141.986 37.7789H143.678V41.3601C144.072 41.3207 144.308 41.242 144.465 41.0846C144.583 40.9272 144.819 40.4943 145.095 39.7859C145.449 38.8808 145.803 38.2905 146.157 38.0937C146.511 37.8576 147.062 37.7789 147.849 37.7789H148.086V39.0382H147.849C147.495 39.0382 147.259 39.0776 147.102 39.1563C146.944 39.235 146.826 39.3924 146.708 39.5498C146.59 39.7072 146.472 40.1008 146.275 40.6517C146.157 40.9272 146.079 41.2026 145.921 41.3994C145.803 41.5962 145.606 41.7929 145.291 41.9503C145.685 42.0684 146 42.2652 146.236 42.6194C146.472 42.9342 146.748 43.4064 147.062 43.9967L148.204 46.3185H146.197L145.173 44.1541C145.173 44.1148 145.134 44.0754 145.095 43.9574C145.055 43.918 145.016 43.7999 144.898 43.5638C144.662 43.1309 144.504 42.8948 144.347 42.7768C144.19 42.6587 143.993 42.6194 143.717 42.6194V46.3185H142.025V37.7789H141.986ZM149.148 37.7789H150.722V43.3671L154.146 37.7789H155.838V46.2005H154.264V40.691L150.88 46.2005H149.148V37.7789ZM156.704 46.2005L159.577 41.7929L156.979 37.7789H158.947L160.639 40.4943L162.292 37.7789H164.26L161.662 41.8716L164.535 46.2005H162.489L160.639 43.2884L158.75 46.2005H156.704ZM168.707 37.7789H175.397V46.2005H173.704V39.1956H170.399V46.2005H168.707V37.7789ZM176.774 42.0291C176.774 41.1633 176.892 40.4549 177.167 39.8646C177.364 39.4318 177.6 39.0382 177.955 38.7234C178.269 38.3692 178.663 38.1331 179.056 37.9757C179.568 37.7396 180.198 37.6609 180.867 37.6609C182.087 37.6609 183.11 38.0544 183.858 38.8021C184.605 39.5892 184.959 40.6517 184.959 42.0291C184.959 43.4064 184.605 44.4689 183.858 45.2167C183.11 46.0037 182.126 46.3579 180.906 46.3579C179.647 46.3579 178.663 45.9644 177.915 45.2167C177.128 44.4296 176.774 43.3671 176.774 42.0291ZM178.545 41.9897C178.545 42.9342 178.781 43.6819 179.214 44.1541C179.647 44.6264 180.198 44.9018 180.906 44.9018C181.575 44.9018 182.126 44.6657 182.559 44.1541C182.992 43.6819 183.228 42.9342 183.228 41.9503C183.228 40.9665 183.031 40.2582 182.598 39.7859C182.165 39.3137 181.614 39.0776 180.906 39.0776C180.198 39.0776 179.647 39.3137 179.214 39.7859C178.742 40.2975 178.545 41.0059 178.545 41.9897ZM187.478 40.0614L185.825 39.6679C186.179 38.2905 187.203 37.6215 188.855 37.6215C189.839 37.6215 190.587 37.8576 191.098 38.2905C191.61 38.7234 191.846 39.235 191.846 39.8253C191.846 40.2188 191.728 40.573 191.492 40.9272C191.256 41.242 190.902 41.5175 190.469 41.7929C191.02 41.9897 191.453 42.2652 191.728 42.6194C192.004 42.9735 192.161 43.4064 192.161 43.918C192.161 44.6657 191.886 45.256 191.335 45.7282C190.784 46.2005 189.997 46.3972 188.895 46.3972C188.029 46.3972 187.321 46.2398 186.809 45.9644C186.297 45.6889 185.904 45.1379 185.668 44.3115L187.242 43.7999C187.399 44.3115 187.635 44.6264 187.872 44.7838C188.147 44.9412 188.462 45.0199 188.855 45.0199C189.406 45.0199 189.8 44.9018 190.036 44.6657C190.272 44.4296 190.39 44.1541 190.39 43.8786C190.39 43.5245 190.233 43.249 189.957 43.0522C189.682 42.8555 189.249 42.7374 188.698 42.7374H188.304V41.4781H188.501C189.013 41.4781 189.406 41.3601 189.682 41.1239C189.957 40.8878 190.075 40.573 190.075 40.1795C190.075 39.8646 189.957 39.6285 189.721 39.3924C189.485 39.1956 189.17 39.0776 188.777 39.0776C188.108 39.0382 187.675 39.3924 187.478 40.0614ZM193.656 37.7789H195.231V43.3671L198.654 37.7789H200.346V46.2005H198.772V40.691L195.388 46.2005H193.696V37.7789H193.656ZM202.117 37.7789H203.81V41.3601C204.203 41.3207 204.439 41.242 204.597 41.0846C204.715 40.9272 204.951 40.4943 205.226 39.7859C205.58 38.8808 205.935 38.2905 206.289 38.0937C206.643 37.8576 207.194 37.7789 207.981 37.7789H208.217V39.0382H207.981C207.627 39.0382 207.391 39.0776 207.233 39.1563C207.076 39.235 206.958 39.3924 206.84 39.5498C206.722 39.7072 206.604 40.1008 206.407 40.6517C206.289 40.9272 206.21 41.2026 206.053 41.3994C205.935 41.5962 205.698 41.7929 205.423 41.9503C205.817 42.0684 206.131 42.2652 206.367 42.6194C206.604 42.9342 206.879 43.4064 207.194 43.9967L208.335 46.3185H206.328L205.305 44.1541C205.305 44.1148 205.266 44.0754 205.226 43.9574C205.187 43.918 205.148 43.7999 205.029 43.5638C204.793 43.1309 204.636 42.8948 204.479 42.7768C204.321 42.6587 204.124 42.6194 203.849 42.6194V46.3185H202.157V37.7789H202.117Z" fill="black"/>
<path d="M38.8417 7.43795L7.91016 24.3991C7.7921 24.4385 7.63469 24.5172 7.43792 24.6352L6.57215 25.1075C5.35221 25.6584 4.32903 25.6978 4.32903 25.6978C3.03038 25.7765 1.96784 25.2649 5.15544 22.2347L3.73873 23.2185C2.28267 24.0056 1.73172 25.8552 2.51879 27.3506L3.97485 30.0266L4.05356 30.184L17.591 54.9371C18.3781 56.3932 20.2277 56.9441 21.7231 56.1571L55.37 37.7005C56.8261 36.9134 57.377 35.0638 56.5899 33.5684L42.9738 8.69725C42.1474 7.16248 40.3371 6.61153 38.8417 7.43795Z" fill="url(#paint0_linear)"/>
<path d="M5.1553 22.1952C1.9677 25.2254 3.03024 25.737 4.32889 25.6583C4.32889 25.6583 5.35207 25.619 6.57201 25.068L7.43778 24.5958C7.63455 24.4777 7.79196 24.399 7.91002 24.3597L37.5035 8.14618L35.3391 4.13216C34.5521 2.6761 32.7025 2.12516 31.207 2.91222L5.11595 22.2346L5.1553 22.1952Z" fill="black"/>
<path d="M21.3688 55.3695C20.2669 55.9598 18.9289 55.5663 18.3386 54.4644L3.26639 26.9173C3.14833 26.6811 3.06963 26.445 3.03027 26.2089C3.38445 26.4057 3.85669 26.4844 4.44699 26.445C4.6044 26.445 5.70628 26.3663 6.96558 25.8154C6.96558 25.8154 7.00494 25.8154 7.00494 25.776L7.8707 25.3038L7.91006 25.2644C7.98876 25.2251 8.02812 25.1857 8.10682 25.1464C8.14618 25.107 8.18553 25.107 8.22488 25.107C8.26424 25.107 8.30359 25.0677 8.30359 25.0677L39.2351 8.10647C40.337 7.51617 41.675 7.9097 42.2653 9.01159L55.8815 33.8827C56.4718 34.9846 56.0783 36.3226 54.9764 36.9129L21.3688 55.3695Z" fill="url(#paint1_linear)"/>
<path d="M48.7583 30.8528C49.1912 31.6399 48.9157 32.6237 48.1287 33.0566L23.1394 47.1056C22.3524 47.5385 21.3686 47.263 20.9357 46.476L13.0257 32.4663C12.5928 31.6792 12.8683 30.6954 13.6553 30.2625L38.6446 16.2134C39.4316 15.7806 40.4155 16.056 40.8483 16.8431L48.7583 30.8528Z" fill="black"/>
<path d="M48.8374 30.538C49.2703 31.3251 48.9948 32.3089 48.2078 32.7418L23.2185 46.8302C22.4315 47.2631 21.4477 46.9876 21.0148 46.2006L13.1048 32.1909C12.6719 31.4038 12.9474 30.42 13.7345 29.9871L38.7237 15.9381C39.5107 15.5052 40.4946 15.7806 40.9274 16.5677L48.8374 30.538Z" fill="black"/>
<path d="M48.8374 30.5379C49.2703 31.3249 48.9948 32.3087 48.2078 32.7416L23.2185 46.83C22.4315 47.2629 38.7237 15.8985 38.7237 15.8985C39.5107 15.4656 40.4946 15.7411 40.9274 16.5282L48.8374 30.5379Z" fill="url(#paint2_linear)"/>
<path d="M48.837 30.5379L40.927 16.5282C40.4942 15.7411 39.471 15.4656 38.7233 15.8985L27.1928 22.3524C27.2322 22.4705 27.2715 22.5885 27.2715 22.6672C29.1211 29.7114 25.1858 37.1098 18.1416 41.1632L20.975 46.2004C21.4079 46.9875 22.4311 47.2629 23.1788 46.83L48.168 32.781C48.9944 32.3481 49.2699 31.3249 48.837 30.5379Z" fill="black"/>
<path d="M48.0109 29.1213L46.3581 26.1698C46.3187 26.2092 46.2794 26.2485 46.2007 26.2879L18.4961 41.8717L20.1489 44.7838L48.0109 29.1213Z" fill="black"/>
<defs>
<linearGradient id="paint0_linear" x1="10.0336" y1="41.0077" x2="49.009" y2="19.6578" gradientUnits="userSpaceOnUse">
<stop stop-color="#FFC900"/>
<stop offset="0.197" stop-color="#FFC600"/>
<stop offset="1" stop-color="#FFC400"/>
</linearGradient>
<linearGradient id="paint1_linear" x1="11.1278" y1="41.3667" x2="48.7226" y2="20.773" gradientUnits="userSpaceOnUse">
<stop stop-color="#FFC709"/>
<stop offset="0.859" stop-color="#FFC709"/>
<stop offset="1" stop-color="#FFC709"/>
</linearGradient>
<linearGradient id="paint2_linear" x1="19.8572" y1="34.2704" x2="47.9013" y2="26.8692" gradientUnits="userSpaceOnUse">
<stop stop-color="#005573"/>
<stop offset="1" stop-color="#00ACE4"/>
</linearGradient>
</defs>
</svg>
