<svg width="168" height="40" viewBox="0 0 168 40" fill="none" xmlns="http://www.w3.org/2000/svg">
<g clip-path="url(#clip0)">
<path d="M79.4668 0H39.9409L43.5557 9.10714H54.5779V37.2619H64.8298V9.10714L75.7928 9.16667L79.4668 0Z" fill="#1D1D1D"/>
<path d="M109.096 0.0595703L99.4372 23.75L89.7186 0.0595703H79.4668L94.6372 37.262H104.237L119.408 0.0595703H109.096Z" fill="#1D1D1D"/>
<path d="M32.5926 16.9643C32.1185 16.7262 31.5852 16.5476 31.1111 16.369C30.9926 16.3095 16.8889 11.4881 16.8889 11.4881L17.837 9.16667H36.3259L39.9407 0H39.7037H18.1333C12.563 0 7.46667 4.76191 7.46667 10.7143C7.46667 12.1429 7.76296 13.5714 8.2963 14.8214C9.3037 17.2619 11.1407 19.2262 13.4519 20.3571C13.9259 20.5952 14.4593 20.7738 14.9333 20.9524C15.0519 21.0119 29.1556 25.8333 29.1556 25.8333L28.2074 28.1548H3.55556L0 37.2619H27.8519H27.9111C33.7778 37.2619 38.5778 32.5 38.5778 26.5476C38.5778 25.119 38.2815 23.6905 37.7481 22.4405C36.7407 20.0595 34.9037 18.0952 32.5926 16.9643Z" fill="#1D1D1D"/>
<path d="M119.407 39.0477L120.296 37.0835C121.245 37.6192 122.133 37.9168 123.378 37.9168C125.156 37.9168 125.985 37.0835 125.985 35.4168V35.0001C125.215 35.893 124.385 36.4882 123.022 36.4882C120.889 36.4882 118.993 34.9406 118.993 32.2025C118.993 29.4644 120.948 27.9763 123.022 27.9763C124.445 27.9763 125.274 28.5716 125.926 29.3454V28.1549H128.474V35.2382C128.474 36.8454 128.059 38.0358 127.348 38.8097C126.519 39.643 125.215 40.0597 123.437 40.0597C121.956 40.0001 120.533 39.7025 119.407 39.0477ZM125.926 32.2025C125.926 30.9525 124.978 30.1192 123.733 30.1192C122.489 30.1192 121.541 31.012 121.541 32.262C121.541 33.512 122.489 34.3454 123.733 34.3454C124.978 34.3454 125.926 33.512 125.926 32.2025Z" fill="#1D1D1D"/>
<path d="M130.607 28.1552H133.156V30.0004C133.689 28.7504 134.519 27.9171 136.059 27.9766V30.6552H135.941C134.222 30.6552 133.156 31.6671 133.156 33.8695V37.2623H130.607V28.1552Z" fill="#1D1D1D"/>
<path d="M136.771 32.7382C136.771 30.1192 138.845 27.9763 141.689 27.9763C144.474 27.9763 146.608 30.0597 146.608 32.7382C146.608 35.3573 144.533 37.5001 141.689 37.5001C138.845 37.4406 136.771 35.3573 136.771 32.7382ZM144.059 32.7382C144.059 31.3692 143.111 30.2382 141.689 30.2382C140.208 30.2382 139.319 31.3692 139.319 32.7382C139.319 34.1073 140.267 35.2382 141.689 35.2382C143.171 35.2382 144.059 34.1073 144.059 32.7382Z" fill="#1D1D1D"/>
<path d="M148.03 34.0472V28.1543H150.578V33.2138C150.578 34.4638 151.171 35.0591 152.119 35.0591C153.126 35.0591 153.719 34.4043 153.719 33.2138V28.1543H156.267V37.2614H153.719V35.9519C153.126 36.7257 152.356 37.44 151.052 37.44C149.156 37.44 148.03 36.1305 148.03 34.0472Z" fill="#1D1D1D"/>
<path d="M158.459 28.1549H161.008V29.4644C161.659 28.6311 162.489 27.9763 163.852 27.9763C165.985 27.9763 168 29.643 168 32.7382C168 35.7739 166.045 37.4406 163.852 37.4406C162.489 37.4406 161.659 36.7858 161.008 36.0716V40.0001H158.459V28.1549ZM165.393 32.6787C165.393 31.1906 164.385 30.1787 163.2 30.1787C162.015 30.1787 161.008 31.1906 161.008 32.7382C161.008 34.2263 162.015 35.2382 163.2 35.2382C164.385 35.2382 165.393 34.2263 165.393 32.6787Z" fill="#1D1D1D"/>
</g>
<defs>
<clipPath id="clip0">
<rect width="168" height="40" fill="white"/>
</clipPath>
</defs>
</svg>
