<svg width="40" height="40" viewBox="0 0 40 40" fill="none" xmlns="http://www.w3.org/2000/svg">
<path d="M20.0001 3.33334C15.4051 3.33334 11.6667 7.07168 11.6667 11.6667V15H10.0001C8.16175 15 6.66675 16.495 6.66675 18.3333V33.3333C6.66675 35.1717 8.16175 36.6667 10.0001 36.6667H30.0001C31.8384 36.6667 33.3334 35.1717 33.3334 33.3333V18.3333C33.3334 16.495 31.8384 15 30.0001 15H28.3334V11.6667C28.3334 7.07168 24.5951 3.33334 20.0001 3.33334ZM15.0001 11.6667C15.0001 8.91001 17.2434 6.66668 20.0001 6.66668C22.7567 6.66668 25.0001 8.91001 25.0001 11.6667V15H15.0001V11.6667ZM30.0034 33.3333H21.6667V29.5367C22.6584 28.9583 23.3334 27.895 23.3334 26.6667C23.3334 24.8283 21.8384 23.3333 20.0001 23.3333C18.1617 23.3333 16.6667 24.8283 16.6667 26.6667C16.6667 27.8933 17.3417 28.9583 18.3334 29.5367V33.3333H10.0001V18.3333H30.0001L30.0034 33.3333Z" fill="url(#paint0_linear)"/>
<defs>
<linearGradient id="paint0_linear" x1="33.5995" y1="3.75009" x2="-1.17666" y2="20.7699" gradientUnits="userSpaceOnUse">
<stop stop-color="#86BFFF"/>
<stop offset="1" stop-color="#E195FF"/>
</linearGradient>
</defs>
</svg>
