<svg width="40" height="40" viewBox="0 0 40 40" fill="none" xmlns="http://www.w3.org/2000/svg">
<path fill-rule="evenodd" clip-rule="evenodd" d="M3.33398 16.6668C3.33398 9.31516 10.8107 3.3335 20.0007 3.3335C29.1907 3.3335 36.6673 9.31516 36.6673 16.6668C36.6673 23.8668 29.4957 29.7535 20.5673 29.9935L11.6673 36.6668V28.2235C6.49565 25.8585 3.33398 21.5135 3.33398 16.6668ZM19.4457 26.6668H20.0007C27.3523 26.6668 33.334 22.1818 33.334 16.6668C33.334 11.1518 27.3523 6.66683 20.0007 6.66683C12.649 6.66683 6.66732 11.1518 6.66732 16.6668C6.66732 20.4268 9.45232 23.8352 13.9323 25.5602L15.0007 25.9718V30.0002L19.4457 26.6668ZM15.834 18.3335C17.2147 18.3335 18.334 17.2142 18.334 15.8335C18.334 14.4528 17.2147 13.3335 15.834 13.3335C14.4533 13.3335 13.334 14.4528 13.334 15.8335C13.334 17.2142 14.4533 18.3335 15.834 18.3335ZM24.166 18.3335C25.5467 18.3335 26.666 17.2142 26.666 15.8335C26.666 14.4528 25.5467 13.3335 24.166 13.3335C22.7853 13.3335 21.666 14.4528 21.666 15.8335C21.666 17.2142 22.7853 18.3335 24.166 18.3335Z" fill="url(#paint0_linear)"/>
<defs>
<linearGradient id="paint0_linear" x1="37" y1="3.75025" x2="-2.20846" y2="27.7365" gradientUnits="userSpaceOnUse">
<stop stop-color="#86BFFF"/>
<stop offset="1" stop-color="#E195FF"/>
</linearGradient>
</defs>
</svg>
