<svg width="40" height="40" viewBox="0 0 40 40" fill="none" xmlns="http://www.w3.org/2000/svg">
<path d="M35.4545 27.7273H4.54545C4.13557 27.7273 3.74248 27.8901 3.45265 28.1799C3.16282 28.4698 3 28.8628 3 29.2727C3 29.6826 3.16282 30.0757 3.45265 30.3655C3.74248 30.6554 4.13557 30.8182 4.54545 30.8182H35.4545C35.8644 30.8182 36.2575 30.6554 36.5473 30.3655C36.8372 30.0757 37 29.6826 37 29.2727C37 28.8628 36.8372 28.4698 36.5473 28.1799C36.2575 27.8901 35.8644 27.7273 35.4545 27.7273ZM35.4545 33.9091H4.54545C4.13557 33.9091 3.74248 34.0719 3.45265 34.3617C3.16282 34.6516 3 35.0447 3 35.4545C3 35.8644 3.16282 36.2575 3.45265 36.5473C3.74248 36.8372 4.13557 37 4.54545 37H35.4545C35.8644 37 36.2575 36.8372 36.5473 36.5473C36.8372 36.2575 37 35.8644 37 35.4545C37 35.0447 36.8372 34.6516 36.5473 34.3617C36.2575 34.0719 35.8644 33.9091 35.4545 33.9091ZM10.7273 12.2727C10.4216 12.2727 10.1228 12.3634 9.86866 12.5332C9.61452 12.703 9.41643 12.9444 9.29946 13.2268C9.18249 13.5092 9.15188 13.8199 9.21151 14.1197C9.27114 14.4195 9.41834 14.6948 9.63447 14.911C9.85061 15.1271 10.126 15.2743 10.4258 15.3339C10.7256 15.3936 11.0363 15.363 11.3187 15.246C11.6011 15.129 11.8425 14.9309 12.0123 14.6768C12.1821 14.4226 12.2727 14.1238 12.2727 13.8182C12.2727 13.4083 12.1099 13.0152 11.8201 12.7254C11.5302 12.4356 11.1372 12.2727 10.7273 12.2727ZM32.3636 3H7.63636C6.40672 3 5.22745 3.48847 4.35796 4.35796C3.48847 5.22745 3 6.40672 3 7.63636V20C3 21.2296 3.48847 22.4089 4.35796 23.2784C5.22745 24.1479 6.40672 24.6364 7.63636 24.6364H32.3636C33.5933 24.6364 34.7726 24.1479 35.642 23.2784C36.5115 22.4089 37 21.2296 37 20V7.63636C37 6.40672 36.5115 5.22745 35.642 4.35796C34.7726 3.48847 33.5933 3 32.3636 3ZM33.9091 20C33.9091 20.4099 33.7463 20.803 33.4564 21.0928C33.1666 21.3826 32.7735 21.5455 32.3636 21.5455H7.63636C7.22648 21.5455 6.83339 21.3826 6.54356 21.0928C6.25373 20.803 6.09091 20.4099 6.09091 20V7.63636C6.09091 7.22648 6.25373 6.83339 6.54356 6.54356C6.83339 6.25373 7.22648 6.09091 7.63636 6.09091H32.3636C32.7735 6.09091 33.1666 6.25373 33.4564 6.54356C33.7463 6.83339 33.9091 7.22648 33.9091 7.63636V20ZM20 9.18182C19.083 9.18182 18.1866 9.45374 17.4242 9.96319C16.6617 10.4726 16.0675 11.1967 15.7166 12.0439C15.3656 12.8911 15.2738 13.8233 15.4527 14.7227C15.6316 15.6221 16.0732 16.4482 16.7216 17.0966C17.37 17.745 18.1961 18.1866 19.0955 18.3655C19.9949 18.5444 20.9271 18.4525 21.7743 18.1016C22.6214 17.7507 23.3455 17.1565 23.855 16.394C24.3644 15.6316 24.6364 14.7352 24.6364 13.8182C24.6364 12.5885 24.1479 11.4093 23.2784 10.5398C22.4089 9.67029 21.2296 9.18182 20 9.18182ZM20 15.3636C19.6943 15.3636 19.3955 15.273 19.1414 15.1032C18.8872 14.9334 18.6892 14.692 18.5722 14.4096C18.4552 14.1272 18.4246 13.8165 18.4842 13.5167C18.5439 13.2169 18.6911 12.9415 18.9072 12.7254C19.1233 12.5092 19.3987 12.3621 19.6985 12.3024C19.9983 12.2428 20.309 12.2734 20.5914 12.3904C20.8738 12.5073 21.1152 12.7054 21.285 12.9596C21.4548 13.2137 21.5455 13.5125 21.5455 13.8182C21.5455 14.2281 21.3826 14.6212 21.0928 14.911C20.803 15.2008 20.4099 15.3636 20 15.3636ZM29.2727 12.2727C28.9671 12.2727 28.6683 12.3634 28.4141 12.5332C28.16 12.703 27.9619 12.9444 27.8449 13.2268C27.7279 13.5092 27.6973 13.8199 27.757 14.1197C27.8166 14.4195 27.9638 14.6948 28.1799 14.911C28.3961 15.1271 28.6714 15.2743 28.9712 15.3339C29.271 15.3936 29.5818 15.363 29.8641 15.246C30.1465 15.129 30.3879 14.9309 30.5577 14.6768C30.7275 14.4226 30.8182 14.1238 30.8182 13.8182C30.8182 13.4083 30.6554 13.0152 30.3655 12.7254C30.0757 12.4356 29.6826 12.2727 29.2727 12.2727Z" fill="url(#paint0_linear)"/>
<defs>
<linearGradient id="paint0_linear" x1="37.3393" y1="3.42508" x2="-2.65329" y2="27.8911" gradientUnits="userSpaceOnUse">
<stop stop-color="#86BFFF"/>
<stop offset="1" stop-color="#E195FF"/>
</linearGradient>
</defs>
</svg>
