<svg width="56" height="56" viewBox="0 0 56 56" fill="none" xmlns="http://www.w3.org/2000/svg">
<path d="M46.6668 37.3334V9.33335H18.6667V37.3334H46.6668ZM51.3334 37.3334C51.3334 38.571 50.8418 39.758 49.9666 40.6332C49.0914 41.5084 47.9044 42 46.6668 42H18.6667C17.4291 42 16.2421 41.5084 15.3669 40.6332C14.4917 39.758 14.0001 38.571 14.0001 37.3334V9.33335C14.0001 6.74335 16.0767 4.66669 18.6667 4.66669H46.6668C47.9044 4.66669 49.0914 5.15835 49.9666 6.03352C50.8418 6.90869 51.3334 8.09568 51.3334 9.33335V37.3334ZM37.3334 46.6667V51.3334H9.33342C8.09574 51.3334 6.90875 50.8417 6.03358 49.9665C5.15841 49.0914 4.66675 47.9044 4.66675 46.6667V16.3334H9.33342V46.6667H37.3334Z" fill="url(#paint0_linear)"/>
<defs>
<linearGradient id="paint0_linear" x1="51.7991" y1="5.25014" x2="-3.09267" y2="38.8309" gradientUnits="userSpaceOnUse">
<stop stop-color="#86BFFF"/>
<stop offset="1" stop-color="#E195FF"/>
</linearGradient>
</defs>
</svg>
