<svg width="56" height="56" viewBox="0 0 56 56" fill="none" xmlns="http://www.w3.org/2000/svg">
<path d="M49.6608 19.3107L35.7756 17.2927L29.5686 4.70911C29.3991 4.36458 29.1202 4.08568 28.7756 3.91615C27.9116 3.48958 26.8616 3.84505 26.4295 4.70911L20.2225 17.2927L6.33735 19.3107C5.95453 19.3654 5.60453 19.5458 5.33656 19.8193C5.01261 20.1522 4.83409 20.6002 4.84024 21.0647C4.84639 21.5293 5.03671 21.9723 5.36938 22.2966L15.4155 32.0911L13.042 45.9216C12.9864 46.2433 13.022 46.5742 13.1448 46.8768C13.2676 47.1793 13.4728 47.4413 13.7369 47.6332C14.0011 47.8251 14.3138 47.9391 14.6395 47.9623C14.9651 47.9855 15.2908 47.917 15.5795 47.7646L27.9991 41.2349L40.4186 47.7646C40.7577 47.9451 41.1514 48.0052 41.5288 47.9396C42.4803 47.7755 43.1202 46.8732 42.9561 45.9216L40.5827 32.0911L50.6288 22.2966C50.9022 22.0286 51.0827 21.6786 51.1373 21.2958C51.285 20.3388 50.6178 19.4529 49.6608 19.3107ZM36.3553 30.713L38.3295 42.2138L27.9991 36.7888L17.6686 42.2193L19.6428 30.7185L11.2866 22.5701L22.8366 20.8911L27.9991 10.4294L33.1616 20.8911L44.7116 22.5701L36.3553 30.713Z" fill="url(#paint0_linear)"/>
<defs>
<linearGradient id="paint0_linear" x1="51.62" y1="4.28866" x2="-1.46509" y2="38.2963" gradientUnits="userSpaceOnUse">
<stop stop-color="#86BFFF"/>
<stop offset="1" stop-color="#E195FF"/>
</linearGradient>
</defs>
</svg>
