<svg width="56" height="56" viewBox="0 0 56 56" fill="none" xmlns="http://www.w3.org/2000/svg">
<path d="M21.9404 37.394L23.4338 37.1374C23.7231 37.086 24.0684 37.0114 24.4674 36.9087C29.4001 35.672 32.6667 31.9854 32.6667 28C32.6667 23.0184 27.5894 18.6667 21.0001 18.6667C14.4107 18.6667 9.33342 23.0184 9.33342 28C9.33342 30.842 10.9714 33.5487 13.8391 35.35L13.9231 35.3967L16.3334 36.7267V43.1737L21.9404 37.394ZM24.2318 41.734L15.6754 50.554C15.3521 50.8876 14.9365 51.117 14.4819 51.213C14.0274 51.3089 13.5545 51.267 13.124 51.0925C12.6934 50.9181 12.3247 50.6191 12.0651 50.2338C11.8055 49.8486 11.6668 49.3946 11.6667 48.93V39.48C11.5625 39.4237 11.4598 39.3646 11.3587 39.3027C7.30108 36.7547 4.66675 32.641 4.66675 28C4.66675 20.2674 11.9794 14 21.0001 14C30.0208 14 37.3334 20.2674 37.3334 28C37.3334 34.3607 32.3844 39.732 25.6061 41.4354C25.1518 41.5518 24.6934 41.6514 24.2318 41.734ZM20.8507 11.6667C23.6741 7.48302 28.9567 4.66669 35.0001 4.66669C44.0208 4.66669 51.3334 10.934 51.3334 18.6667C51.3334 23.3077 48.6968 27.4214 44.6414 29.9694C44.5404 30.0312 44.4377 30.0904 44.3334 30.1467V39.5967C44.3334 40.0613 44.1947 40.5152 43.9351 40.9005C43.6755 41.2858 43.3068 41.5848 42.8762 41.7592C42.4456 41.9336 41.9728 41.9756 41.5182 41.8796C41.0637 41.7837 40.6481 41.5542 40.3247 41.2207L36.2764 37.0487L38.7101 32.8534L39.6668 33.8404V27.3934L42.0771 26.0634L42.1611 26.0167C45.0311 24.2154 46.6668 21.5087 46.6668 18.6667C46.6668 13.685 41.5894 9.33335 35.0001 9.33335C32.0134 9.33335 29.3394 10.227 27.3071 11.6667H20.8507Z" fill="url(#paint0_linear)"/>
<defs>
<linearGradient id="paint0_linear" x1="51.7991" y1="5.24926" x2="-3.04769" y2="38.853" gradientUnits="userSpaceOnUse">
<stop stop-color="#86BFFF"/>
<stop offset="1" stop-color="#E195FF"/>
</linearGradient>
</defs>
</svg>
