<svg width="56" height="56" viewBox="0 0 56 56" fill="none" xmlns="http://www.w3.org/2000/svg">
<path d="M25.6667 11.6667V9.33333C25.6667 8.71449 25.9126 8.121 26.3502 7.68342C26.7878 7.24583 27.3812 7 28.0001 7C28.6189 7 29.2124 7.24583 29.65 7.68342C30.0876 8.121 30.3334 8.71449 30.3334 9.33333V11.6667H37.3334V9.33333C37.3334 8.71449 37.5792 8.121 38.0168 7.68342C38.4544 7.24583 39.0479 7 39.6668 7C40.2856 7 40.8791 7.24583 41.3167 7.68342C41.7543 8.121 42.0001 8.71449 42.0001 9.33333V11.6667H44.3334C46.1899 11.6667 47.9704 12.4042 49.2832 13.7169C50.5959 15.0297 51.3334 16.8102 51.3334 18.6667V42C51.3334 43.8565 50.5959 45.637 49.2832 46.9497C47.9704 48.2625 46.1899 49 44.3334 49H11.6667C9.81023 49 8.02976 48.2625 6.717 46.9497C5.40425 45.637 4.66675 43.8565 4.66675 42V18.6667C4.66675 16.8102 5.40425 15.0297 6.717 13.7169C8.02976 12.4042 9.81023 11.6667 11.6667 11.6667H14.0001V9.33333C14.0001 8.71449 14.2459 8.121 14.6835 7.68342C15.1211 7.24583 15.7146 7 16.3334 7C16.9523 7 17.5457 7.24583 17.9833 7.68342C18.4209 8.121 18.6667 8.71449 18.6667 9.33333V11.6667H25.6667ZM25.6667 16.3333H18.6667V18.6667C18.6667 19.2855 18.4209 19.879 17.9833 20.3166C17.5457 20.7542 16.9523 21 16.3334 21C15.7146 21 15.1211 20.7542 14.6835 20.3166C14.2459 19.879 14.0001 19.2855 14.0001 18.6667V16.3333H11.6667C11.0479 16.3333 10.4544 16.5792 10.0168 17.0168C9.57925 17.4543 9.33342 18.0478 9.33342 18.6667V42C9.33342 42.6188 9.57925 43.2123 10.0168 43.6499C10.4544 44.0875 11.0479 44.3333 11.6667 44.3333H44.3334C44.9523 44.3333 45.5457 44.0875 45.9833 43.6499C46.4209 43.2123 46.6668 42.6188 46.6668 42V18.6667C46.6668 18.0478 46.4209 17.4543 45.9833 17.0168C45.5457 16.5792 44.9523 16.3333 44.3334 16.3333H42.0001V18.6667C42.0001 19.2855 41.7543 19.879 41.3167 20.3166C40.8791 20.7542 40.2856 21 39.6668 21C39.0479 21 38.4544 20.7542 38.0168 20.3166C37.5792 19.879 37.3334 19.2855 37.3334 18.6667V16.3333H30.3334V18.6667C30.3334 19.2855 30.0876 19.879 29.65 20.3166C29.2124 20.7542 28.6189 21 28.0001 21C27.3812 21 26.7878 20.7542 26.3502 20.3166C25.9126 19.879 25.6667 19.2855 25.6667 18.6667V16.3333ZM11.6667 25.6667H16.3334V30.3333H11.6667V25.6667ZM11.6667 35H16.3334V39.6667H11.6667V35ZM39.6668 35H44.3334V39.6667H39.6668V35ZM39.6668 25.6667H44.3334V30.3333H39.6668V25.6667ZM21.0001 25.6667H25.6667V30.3333H21.0001V25.6667ZM30.3334 25.6667H35.0001V30.3333H30.3334V25.6667ZM30.3334 35H35.0001V39.6667H30.3334V35ZM21.0001 35H25.6667V39.6667H21.0001V35Z" fill="url(#paint0_linear)"/>
<defs>
<linearGradient id="paint0_linear" x1="51.7991" y1="7.5251" x2="0.203305" y2="42.5967" gradientUnits="userSpaceOnUse">
<stop stop-color="#86BFFF"/>
<stop offset="1" stop-color="#E195FF"/>
</linearGradient>
</defs>
</svg>
