<svg width="34" height="28" viewBox="0 0 34 28" fill="none" xmlns="http://www.w3.org/2000/svg">
<path d="M1.99992 24H31.9999C32.4419 24 32.8659 24.1756 33.1784 24.4881C33.491 24.8007 33.6666 25.2246 33.6666 25.6666C33.6666 26.1087 33.491 26.5326 33.1784 26.8451C32.8659 27.1577 32.4419 27.3333 31.9999 27.3333H1.99992C1.55789 27.3333 1.13397 27.1577 0.821407 26.8451C0.508847 26.5326 0.333252 26.1087 0.333252 25.6666C0.333252 25.2246 0.508847 24.8007 0.821407 24.4881C1.13397 24.1756 1.55789 24 1.99992 24ZM3.66659 0.666626H30.3333C31.2173 0.666626 32.0652 1.01782 32.6903 1.64294C33.3154 2.26806 33.6666 3.1159 33.6666 3.99996V20.6666C33.6666 21.1087 33.491 21.5326 33.1784 21.8451C32.8659 22.1577 32.4419 22.3333 31.9999 22.3333H1.99992C1.55789 22.3333 1.13397 22.1577 0.821407 21.8451C0.508847 21.5326 0.333252 21.1087 0.333252 20.6666V3.99996C0.333252 3.1159 0.684441 2.26806 1.30956 1.64294C1.93468 1.01782 2.78253 0.666626 3.66659 0.666626ZM30.3333 19V3.99996H3.66659V19H30.3333Z" fill="url(#paint0_linear)"/>
<defs>
<linearGradient id="paint0_linear" x1="33.9992" y1="1.00003" x2="-0.000807144" y2="27" gradientUnits="userSpaceOnUse">
<stop stop-color="#86BFFF"/>
<stop offset="1" stop-color="#E195FF"/>
</linearGradient>
</defs>
</svg>
