<svg width="40" height="40" viewBox="0 0 40 40" fill="none" xmlns="http://www.w3.org/2000/svg">
<g clip-path="url(#clip0)">
<path d="M38.7959 14.8292L23.9079 10.8372L21.3019 1.11524C21.0839 0.303236 20.2119 -0.168764 19.3559 0.0572358L1.20393 4.92124C0.347934 5.14924 -0.168066 5.99724 0.0499342 6.80924L6.50993 30.9112C6.72793 31.7232 7.59793 32.1972 8.45193 31.9652L15.6779 30.0312L14.6939 33.7072C14.4759 34.5192 14.9919 35.3672 15.8479 35.5932L32.0679 39.9412C32.9239 40.1712 33.7919 39.6992 34.0119 38.8832L39.9519 16.7152C40.1679 15.9032 39.6519 15.0552 38.7959 14.8292ZM3.26593 7.26124L18.9259 3.06924L24.7219 24.7052L9.06193 28.8972L3.26593 7.26124ZM31.3559 36.9252L17.7279 33.1992L18.7999 29.1952L26.6019 27.1012C27.4579 26.8752 27.9779 26.0272 27.7579 25.2152L24.7419 13.9612L36.6359 17.2232L31.3559 36.9252Z" fill="url(#paint0_linear)"/>
</g>
<defs>
<linearGradient id="paint0_linear" x1="40.4003" y1="0.500816" x2="-6.64959" y2="29.2859" gradientUnits="userSpaceOnUse">
<stop stop-color="#86BFFF"/>
<stop offset="1" stop-color="#E195FF"/>
</linearGradient>
<clipPath id="clip0">
<rect width="40" height="40" fill="white"/>
</clipPath>
</defs>
</svg>
