<svg width="28" height="34" viewBox="0 0 28 34" fill="none" xmlns="http://www.w3.org/2000/svg">
<path fill-rule="evenodd" clip-rule="evenodd" d="M3.79102 0.333496H24.2077C25.0362 0.334378 25.8306 0.663902 26.4164 1.24976C27.0023 1.83562 27.3318 2.62997 27.3327 3.4585V23.8752C27.3318 24.7037 27.0023 25.498 26.4164 26.0839C25.8306 26.6698 25.0362 26.9993 24.2077 27.0002H15.666V30.3335H22.3327V33.6668H5.66602V30.3335H12.3327V27.0002H3.79102C2.06768 27.0002 0.666016 25.5985 0.666016 23.8752V3.4585C0.666898 2.62997 0.996421 1.83562 1.58228 1.24976C2.16814 0.663902 2.96248 0.334378 3.79102 0.333496ZM3.99935 23.6668H23.9993V3.66683H3.99935V23.6668ZM20.6673 13.6667C20.6673 17.3433 17.6773 20.3333 14.0007 20.3333C10.324 20.3333 7.33398 17.3433 7.33398 13.6667C7.33398 9.99 10.324 7 14.0007 7C17.6773 7 20.6673 9.99 20.6673 13.6667ZM17.334 13.6667C17.334 11.8283 15.839 10.3333 14.0007 10.3333C12.1623 10.3333 10.6673 11.8283 10.6673 13.6667C10.6673 15.505 12.1623 17 14.0007 17C15.839 17 17.334 15.505 17.334 13.6667Z" fill="url(#paint0_linear)"/>
<defs>
<linearGradient id="paint0_linear" x1="27.5988" y1="0.750246" x2="-7.17739" y2="17.7701" gradientUnits="userSpaceOnUse">
<stop stop-color="#86BFFF"/>
<stop offset="1" stop-color="#E195FF"/>
</linearGradient>
</defs>
</svg>
