<svg width="34" height="34" viewBox="0 0 34 34" fill="none" xmlns="http://www.w3.org/2000/svg">
<path d="M17 0C12.3073 0 8.30078 1.66016 4.98047 4.98047C1.66016 8.30078 0 12.3073 0 17C0 21.6927 1.66016 25.6992 4.98047 29.0195C8.30078 32.3398 12.3073 34 17 34C21.6927 34 25.6992 32.3398 29.0195 29.0195C32.3398 25.6992 34 21.6927 34 17C34 12.3073 32.3398 8.30078 29.0195 4.98047C25.6992 1.66016 21.6927 0 17 0ZM7.23828 21.9805C8.16797 24.3268 8.63281 26.4518 8.63281 28.3555C6.86198 27.1159 5.45638 25.4889 4.41602 23.4746C3.37565 21.4603 2.85547 19.3021 2.85547 17C2.85547 12.4401 4.64844 8.76562 8.23438 5.97656C9.03125 6.59635 9.76172 7.4043 10.4258 8.40039C11.0898 9.39648 11.3997 10.3372 11.3555 11.2227C11.1784 12.5951 10.2708 13.9453 8.63281 15.2734C7.79167 16.1589 7.22721 17.2103 6.93945 18.4277C6.65169 19.6452 6.7513 20.8294 7.23828 21.9805ZM31.1445 17C31.1445 20.8958 29.7611 24.2272 26.9941 26.9941C24.2272 29.7611 20.8958 31.1445 17 31.1445C15.0521 31.1445 13.2148 30.7682 11.4883 30.0156C11.7096 27.138 11.1341 24.1276 9.76172 20.9844C9.27474 19.4792 9.5625 18.2839 10.625 17.3984C12.8385 15.1849 14.0117 13.2148 14.1445 11.4883C14.4102 9.09766 13.2812 6.6849 10.7578 4.25C12.4844 3.32031 14.5651 2.85547 17 2.85547C18.151 2.85547 19.2357 2.98828 20.2539 3.25391L17.3984 6.10938L16.4023 7.10547L20.5195 11.2227L30.4805 12.6172C30.9232 14.1667 31.1445 15.6276 31.1445 17ZM21.9805 8.63281L20.3867 7.10547L23.2422 4.25C25.6771 5.40104 27.6029 7.19401 29.0195 9.62891L21.9805 8.63281ZM17.8633 14.6094L16.7344 16.2695C15.849 17.6862 15.7383 19.1029 16.4023 20.5195L17 21.8477L17.9961 26.6289C18.1289 27.6471 18.7487 28.3112 19.8555 28.6211C20.0326 28.7096 20.2539 28.7539 20.5195 28.7539C21.1836 28.7539 21.8034 28.5104 22.3789 28.0234L23.9727 26.4961L24.1055 26.2305C24.7695 23.7513 25.5221 22.0911 26.3633 21.25C27.5586 20.4089 27.8906 18.9036 27.3594 16.7344C27.0495 15.5391 26.2305 14.6758 24.9023 14.1445L21.5156 12.75H21.25C19.7005 12.75 18.5716 13.3698 17.8633 14.6094ZM19.125 17.8633L20.2539 16.1367C20.431 15.7826 20.7188 15.6055 21.1172 15.6055L23.9727 16.6016C24.3268 16.7786 24.5039 16.9557 24.5039 17.1328C24.5924 17.4427 24.6367 17.974 24.6367 18.7266C23.4414 19.612 22.3568 21.6263 21.3828 24.7695L20.6523 25.5L19.8555 20.9844L18.9922 19.2578C18.7266 18.8594 18.7708 18.3945 19.125 17.8633Z" fill="url(#paint0_linear)"/>
<defs>
<linearGradient id="paint0_linear" x1="34.3393" y1="0.425085" x2="-5.65329" y2="24.8911" gradientUnits="userSpaceOnUse">
<stop stop-color="#86BFFF"/>
<stop offset="1" stop-color="#E195FF"/>
</linearGradient>
</defs>
</svg>
