<svg width="311" height="95" viewBox="0 0 311 95" fill="none" xmlns="http://www.w3.org/2000/svg">
<mask id="path-1-outside-1" maskUnits="userSpaceOnUse" x="0" y="0" width="311" height="95" fill="black">
<rect fill="white" width="311" height="95"/>
<path fill-rule="evenodd" clip-rule="evenodd" d="M14.48 18.51V90.66H31.38V3.95H2V18.51H14.48ZM86.5061 92.61C95.7794 92.61 103.666 88.6233 110.166 80.65C116.753 72.59 120.046 61.4967 120.046 47.37C120.046 33.1567 116.753 22.0633 110.166 14.09C103.666 6.03 95.7794 2 86.5061 2C77.2328 2 69.3028 6.03 62.7161 14.09C56.2161 22.0633 52.9661 33.1133 52.9661 47.24C52.9661 61.4533 56.2161 72.59 62.7161 80.65C69.3028 88.6233 77.2328 92.61 86.5061 92.61ZM86.5061 16.56C90.7528 16.56 94.5661 19.1167 97.9461 24.23C101.413 29.2567 103.146 36.9267 103.146 47.24C103.146 57.5533 101.456 65.2667 98.0761 70.38C94.6961 75.4933 90.8394 78.05 86.5061 78.05C82.1728 78.05 78.3161 75.4933 74.9361 70.38C71.5561 65.2667 69.8661 57.5533 69.8661 47.24C69.8661 36.9267 71.5561 29.2567 74.9361 24.23C78.4028 19.1167 82.2594 16.56 86.5061 16.56ZM160.393 92.61C169.666 92.61 177.553 88.6233 184.053 80.65C190.639 72.59 193.933 61.4967 193.933 47.37C193.933 33.1567 190.639 22.0633 184.053 14.09C177.553 6.03 169.666 2 160.393 2C151.119 2 143.189 6.03 136.603 14.09C130.103 22.0633 126.853 33.1133 126.853 47.24C126.853 61.4533 130.103 72.59 136.603 80.65C143.189 88.6233 151.119 92.61 160.393 92.61ZM160.393 16.56C164.639 16.56 168.453 19.1167 171.833 24.23C175.299 29.2567 177.033 36.9267 177.033 47.24C177.033 57.5533 175.343 65.2667 171.963 70.38C168.583 75.4933 164.726 78.05 160.393 78.05C156.059 78.05 152.203 75.4933 148.823 70.38C145.443 65.2667 143.753 57.5533 143.753 47.24C143.753 36.9267 145.443 29.2567 148.823 24.23C152.289 19.1167 156.146 16.56 160.393 16.56ZM234.28 92.61C243.553 92.61 251.44 88.6233 257.94 80.65C264.526 72.59 267.82 61.4967 267.82 47.37C267.82 33.1567 264.526 22.0633 257.94 14.09C251.44 6.03 243.553 2 234.28 2C225.006 2 217.076 6.03 210.49 14.09C203.99 22.0633 200.74 33.1133 200.74 47.24C200.74 61.4533 203.99 72.59 210.49 80.65C217.076 88.6233 225.006 92.61 234.28 92.61ZM234.28 16.56C238.526 16.56 242.34 19.1167 245.72 24.23C249.186 29.2567 250.92 36.9267 250.92 47.24C250.92 57.5533 249.23 65.2667 245.85 70.38C242.47 75.4933 238.613 78.05 234.28 78.05C229.946 78.05 226.09 75.4933 222.71 70.38C219.33 65.2667 217.64 57.5533 217.64 47.24C217.64 36.9267 219.33 29.2567 222.71 24.23C226.176 19.1167 230.033 16.56 234.28 16.56ZM284.391 77.54V83.812H293.127V92.548H299.959V83.812H308.695V77.54H299.959V68.804H293.127V77.54H284.391Z"/>
</mask>
<path d="M14.48 90.66H12.48V92.66H14.48V90.66ZM14.48 18.51H16.48V16.51H14.48V18.51ZM31.38 90.66V92.66H33.38V90.66H31.38ZM31.38 3.95H33.38V1.95H31.38V3.95ZM2 3.95V1.95H0V3.95H2ZM2 18.51H0V20.51H2V18.51ZM110.166 80.65L108.617 79.3844L108.616 79.3863L110.166 80.65ZM110.166 14.09L108.609 15.3455L108.617 15.3547L108.624 15.3638L110.166 14.09ZM62.7161 14.09L61.1674 12.8244L61.1659 12.8263L62.7161 14.09ZM62.7161 80.65L61.1593 81.9055L61.1667 81.9147L61.1742 81.9238L62.7161 80.65ZM97.9461 24.23L96.2777 25.3329L96.2885 25.3493L96.2997 25.3655L97.9461 24.23ZM98.0761 70.38L99.7445 71.4829L98.0761 70.38ZM74.9361 70.38L73.2677 71.4829L74.9361 70.38ZM74.9361 24.23L73.2807 23.1077L73.2764 23.114L74.9361 24.23ZM184.053 80.65L182.504 79.3844L182.503 79.3863L184.053 80.65ZM184.053 14.09L182.496 15.3455L182.503 15.3547L182.511 15.3638L184.053 14.09ZM136.603 14.09L135.054 12.8244L135.053 12.8263L136.603 14.09ZM136.603 80.65L135.046 81.9055L135.053 81.9147L135.061 81.9238L136.603 80.65ZM171.833 24.23L170.164 25.3329L170.175 25.3493L170.186 25.3655L171.833 24.23ZM148.823 70.38L150.491 69.2771V69.2771L148.823 70.38ZM148.823 24.23L147.167 23.1077L147.163 23.114L148.823 24.23ZM257.94 80.65L256.391 79.3844L256.389 79.3863L257.94 80.65ZM257.94 14.09L256.383 15.3455L256.39 15.3547L256.398 15.3638L257.94 14.09ZM210.49 14.09L208.941 12.8244L208.939 12.8263L210.49 14.09ZM210.49 80.65L208.933 81.9055L208.94 81.9147L208.948 81.9238L210.49 80.65ZM245.72 24.23L244.051 25.3329L244.062 25.3493L244.073 25.3655L245.72 24.23ZM222.71 70.38L224.378 69.2771V69.2771L222.71 70.38ZM222.71 24.23L221.054 23.1077L221.05 23.114L222.71 24.23ZM284.391 83.812H282.391V85.812H284.391V83.812ZM284.391 77.54V75.54H282.391V77.54H284.391ZM293.127 83.812H295.127V81.812H293.127V83.812ZM293.127 92.548H291.127V94.548H293.127V92.548ZM299.959 92.548V94.548H301.959V92.548H299.959ZM299.959 83.812V81.812H297.959V83.812H299.959ZM308.695 83.812V85.812H310.695V83.812H308.695ZM308.695 77.54H310.695V75.54H308.695V77.54ZM299.959 77.54H297.959V79.54H299.959V77.54ZM299.959 68.804H301.959V66.804H299.959V68.804ZM293.127 68.804V66.804H291.127V68.804H293.127ZM293.127 77.54V79.54H295.127V77.54H293.127ZM16.48 90.66V18.51H12.48V90.66H16.48ZM31.38 88.66H14.48V92.66H31.38V88.66ZM29.38 3.95V90.66H33.38V3.95H29.38ZM2 5.95H31.38V1.95H2V5.95ZM4 18.51V3.95H0V18.51H4ZM14.48 16.51H2V20.51H14.48V16.51ZM108.616 79.3863C102.449 86.9515 95.1076 90.61 86.5061 90.61V94.61C96.4513 94.61 104.884 90.2952 111.716 81.9137L108.616 79.3863ZM118.046 47.37C118.046 61.1997 114.823 71.791 108.617 79.3844L111.715 81.9156C118.683 73.3891 122.046 61.7936 122.046 47.37H118.046ZM108.624 15.3638C114.821 22.8647 118.046 33.4485 118.046 47.37H122.046C122.046 32.8648 118.685 21.2619 111.708 12.8162L108.624 15.3638ZM86.5061 4C95.0989 4 102.439 7.69405 108.609 15.3455L111.723 12.8345C104.893 4.36595 96.4599 0 86.5061 0V4ZM64.2648 15.3556C70.5241 7.69606 77.9114 4 86.5061 4V0C76.5541 0 68.0814 4.36394 61.1674 12.8244L64.2648 15.3556ZM54.9661 47.24C54.9661 33.4032 58.1493 22.8572 64.2663 15.3537L61.1659 12.8263C54.2829 21.2695 50.9661 32.8235 50.9661 47.24H54.9661ZM64.2729 79.3945C58.1503 71.8024 54.9661 61.1653 54.9661 47.24H50.9661C50.9661 61.7413 54.2819 73.3776 61.1593 81.9055L64.2729 79.3945ZM86.5061 90.61C77.9029 90.61 70.5142 86.9495 64.258 79.3762L61.1742 81.9238C68.0913 90.2971 76.5626 94.61 86.5061 94.61V90.61ZM99.6145 23.1271C96.0411 17.7211 91.6917 14.56 86.5061 14.56V18.56C89.8139 18.56 93.0911 20.5122 96.2777 25.3329L99.6145 23.1271ZM105.146 47.24C105.146 36.7716 103.399 28.6146 99.5925 23.0945L96.2997 25.3655C99.4261 29.8988 101.146 37.0817 101.146 47.24H105.146ZM99.7445 71.4829C103.443 65.8877 105.146 57.7061 105.146 47.24H101.146C101.146 57.4005 99.4692 64.6456 96.4077 69.2771L99.7445 71.4829ZM86.5061 80.05C91.7654 80.05 96.1609 76.9043 99.7445 71.4829L96.4077 69.2771C93.2313 74.0824 89.9135 76.05 86.5061 76.05V80.05ZM73.2677 71.4829C76.8513 76.9043 81.2468 80.05 86.5061 80.05V76.05C83.0987 76.05 79.7809 74.0824 76.6045 69.2771L73.2677 71.4829ZM67.8661 47.24C67.8661 57.7061 69.5692 65.8877 73.2677 71.4829L76.6045 69.2771C73.543 64.6456 71.8661 57.4005 71.8661 47.24H67.8661ZM73.2764 23.114C69.5676 28.6297 67.8661 36.778 67.8661 47.24H71.8661C71.8661 37.0753 73.5446 29.8837 76.5958 25.346L73.2764 23.114ZM86.5061 14.56C81.3285 14.56 76.9387 17.7122 73.2807 23.1077L76.5915 25.3523C79.8669 20.5212 83.1904 18.56 86.5061 18.56V14.56ZM182.503 79.3863C176.335 86.9515 168.994 90.61 160.393 90.61V94.61C170.338 94.61 178.77 90.2952 185.603 81.9137L182.503 79.3863ZM191.933 47.37C191.933 61.1997 188.71 71.791 182.504 79.3844L185.601 81.9156C192.569 73.3891 195.933 61.7936 195.933 47.37H191.933ZM182.511 15.3638C188.707 22.8647 191.933 33.4485 191.933 47.37H195.933C195.933 32.8648 192.572 21.2619 185.595 12.8162L182.511 15.3638ZM160.393 4C168.986 4 176.325 7.69405 182.496 15.3455L185.61 12.8345C178.78 4.36595 170.347 0 160.393 0V4ZM138.151 15.3556C144.411 7.69607 151.798 4 160.393 4V0C150.441 0 141.968 4.36393 135.054 12.8244L138.151 15.3556ZM128.853 47.24C128.853 33.4032 132.036 22.8572 138.153 15.3537L135.053 12.8263C128.17 21.2695 124.853 32.8235 124.853 47.24H128.853ZM138.16 79.3945C132.037 71.8024 128.853 61.1653 128.853 47.24H124.853C124.853 61.7413 128.169 73.3776 135.046 81.9055L138.16 79.3945ZM160.393 90.61C151.79 90.61 144.401 86.9495 138.145 79.3762L135.061 81.9238C141.978 90.2971 150.449 94.61 160.393 94.61V90.61ZM173.501 23.1271C169.928 17.7211 165.578 14.56 160.393 14.56V18.56C163.701 18.56 166.978 20.5122 170.164 25.3329L173.501 23.1271ZM179.033 47.24C179.033 36.7716 177.286 28.6146 173.479 23.0945L170.186 25.3655C173.313 29.8988 175.033 37.0817 175.033 47.24H179.033ZM173.631 71.4829C177.33 65.8877 179.033 57.7061 179.033 47.24H175.033C175.033 57.4005 173.356 64.6456 170.294 69.2771L173.631 71.4829ZM160.393 80.05C165.652 80.05 170.048 76.9043 173.631 71.4829L170.294 69.2771C167.118 74.0824 163.8 76.05 160.393 76.05V80.05ZM147.154 71.4829C150.738 76.9043 155.134 80.05 160.393 80.05V76.05C156.985 76.05 153.668 74.0824 150.491 69.2771L147.154 71.4829ZM141.753 47.24C141.753 57.7061 143.456 65.8877 147.154 71.4829L150.491 69.2771C147.43 64.6456 145.753 57.4005 145.753 47.24H141.753ZM147.163 23.114C143.454 28.6297 141.753 36.778 141.753 47.24H145.753C145.753 37.0753 147.431 29.8837 150.482 25.346L147.163 23.114ZM160.393 14.56C155.215 14.56 150.825 17.7122 147.167 23.1077L150.478 25.3523C153.754 20.5212 157.077 18.56 160.393 18.56V14.56ZM256.389 79.3863C250.222 86.9515 242.881 90.61 234.28 90.61V94.61C244.225 94.61 252.657 90.2952 259.49 81.9137L256.389 79.3863ZM265.82 47.37C265.82 61.1997 262.596 71.791 256.391 79.3844L259.488 81.9156C266.456 73.3891 269.82 61.7936 269.82 47.37H265.82ZM256.398 15.3638C262.594 22.8647 265.82 33.4485 265.82 47.37H269.82C269.82 32.8648 266.458 21.2619 259.481 12.8162L256.398 15.3638ZM234.28 4C242.872 4 250.212 7.69405 256.383 15.3455L259.496 12.8345C252.667 4.36595 244.233 0 234.28 0V4ZM212.038 15.3556C218.298 7.69607 225.685 4 234.28 4V0C224.328 0 215.855 4.36393 208.941 12.8244L212.038 15.3556ZM202.74 47.24C202.74 33.4032 205.923 22.8572 212.04 15.3537L208.939 12.8263C202.056 21.2695 198.74 32.8235 198.74 47.24H202.74ZM212.046 79.3945C205.924 71.8024 202.74 61.1653 202.74 47.24H198.74C198.74 61.7413 202.055 73.3776 208.933 81.9055L212.046 79.3945ZM234.28 90.61C225.676 90.61 218.288 86.9495 212.031 79.3762L208.948 81.9238C215.865 90.2971 224.336 94.61 234.28 94.61V90.61ZM247.388 23.1271C243.814 17.7211 239.465 14.56 234.28 14.56V18.56C237.587 18.56 240.865 20.5122 244.051 25.3329L247.388 23.1271ZM252.92 47.24C252.92 36.7716 251.173 28.6146 247.366 23.0945L244.073 25.3655C247.2 29.8988 248.92 37.0817 248.92 47.24H252.92ZM247.518 71.4829C251.216 65.8877 252.92 57.7061 252.92 47.24H248.92C248.92 57.4005 247.243 64.6456 244.181 69.2771L247.518 71.4829ZM234.28 80.05C239.539 80.05 243.934 76.9043 247.518 71.4829L244.181 69.2771C241.005 74.0824 237.687 76.05 234.28 76.05V80.05ZM221.041 71.4829C224.625 76.9043 229.02 80.05 234.28 80.05V76.05C230.872 76.05 227.554 74.0824 224.378 69.2771L221.041 71.4829ZM215.64 47.24C215.64 57.7061 217.343 65.8877 221.041 71.4829L224.378 69.2771C221.316 64.6456 219.64 57.4005 219.64 47.24H215.64ZM221.05 23.114C217.341 28.6297 215.64 36.778 215.64 47.24H219.64C219.64 37.0753 221.318 29.8837 224.369 25.346L221.05 23.114ZM234.28 14.56C229.102 14.56 224.712 17.7122 221.054 23.1077L224.365 25.3523C227.64 20.5212 230.964 18.56 234.28 18.56V14.56ZM286.391 83.812V77.54H282.391V83.812H286.391ZM293.127 81.812H284.391V85.812H293.127V81.812ZM295.127 92.548V83.812H291.127V92.548H295.127ZM299.959 90.548H293.127V94.548H299.959V90.548ZM297.959 83.812V92.548H301.959V83.812H297.959ZM308.695 81.812H299.959V85.812H308.695V81.812ZM306.695 77.54V83.812H310.695V77.54H306.695ZM299.959 79.54H308.695V75.54H299.959V79.54ZM297.959 68.804V77.54H301.959V68.804H297.959ZM293.127 70.804H299.959V66.804H293.127V70.804ZM295.127 77.54V68.804H291.127V77.54H295.127ZM284.391 79.54H293.127V75.54H284.391V79.54Z" fill="white" mask="url(#path-1-outside-1)"/>
</svg>
