<svg width="305" height="103" viewBox="0 0 305 103" fill="none" xmlns="http://www.w3.org/2000/svg">
<mask id="path-1-outside-1" maskUnits="userSpaceOnUse" x="0" y="0.339844" width="305" height="102" fill="black">
<rect fill="white" y="0.339844" width="305" height="102"/>
<path fill-rule="evenodd" clip-rule="evenodd" d="M14.48 18.8498V90.9998H31.38V4.28984H2V18.8498H14.48ZM106.63 18.8498V4.28984H66.5897L56.3197 49.7898C62.5597 46.0632 68.7997 44.1998 75.0397 44.1998C80.673 44.1998 85.1797 45.6732 88.5597 48.6198C91.9397 51.6532 93.6297 55.6398 93.6297 60.5798C93.6297 65.7798 92.113 69.9832 89.0797 73.1899C85.7864 76.6565 81.3664 78.3898 75.8197 78.3898C71.3997 78.3898 67.1964 77.3065 63.2097 75.1398C59.743 73.3198 56.753 70.7199 54.2397 67.3398L48.6497 81.8999C51.943 85.0198 55.453 87.4898 59.1797 89.3098C64.1197 91.7365 70.3597 92.9498 77.8997 92.9498C87.8664 92.9498 95.7964 90.0032 101.69 84.1098C107.583 78.2165 110.53 70.6765 110.53 61.4898C110.53 52.8232 107.973 45.8898 102.86 40.6898C97.2264 34.8832 89.773 31.9798 80.4997 31.9798C78.853 31.9798 76.903 32.1532 74.6497 32.4998L77.7697 18.8498H106.63ZM156.076 92.9498C165.35 92.9498 173.236 88.9632 179.736 80.9898C186.323 72.9298 189.616 61.8365 189.616 47.7098C189.616 33.4965 186.323 22.4032 179.736 14.4298C173.236 6.36984 165.35 2.33984 156.076 2.33984C146.803 2.33984 138.873 6.36984 132.286 14.4298C125.786 22.4032 122.536 33.4532 122.536 47.5798C122.536 61.7932 125.786 72.9298 132.286 80.9898C138.873 88.9632 146.803 92.9498 156.076 92.9498ZM156.076 16.8998C160.323 16.8998 164.136 19.4565 167.516 24.5698C170.983 29.5965 172.716 37.2665 172.716 47.5798C172.716 57.8932 171.026 65.6065 167.646 70.7199C164.266 75.8332 160.41 78.3898 156.076 78.3898C151.743 78.3898 147.886 75.8332 144.506 70.7199C141.126 65.6065 139.436 57.8932 139.436 47.5798C139.436 37.2665 141.126 29.5965 144.506 24.5698C147.973 19.4565 151.83 16.8998 156.076 16.8998ZM229.963 92.9498C239.236 92.9498 247.123 88.9632 253.623 80.9898C260.21 72.9298 263.503 61.8365 263.503 47.7098C263.503 33.4965 260.21 22.4032 253.623 14.4298C247.123 6.36984 239.236 2.33984 229.963 2.33984C220.69 2.33984 212.76 6.36984 206.173 14.4298C199.673 22.4032 196.423 33.4532 196.423 47.5798C196.423 61.7932 199.673 72.9298 206.173 80.9898C212.76 88.9632 220.69 92.9498 229.963 92.9498ZM229.963 16.8998C234.21 16.8998 238.023 19.4565 241.403 24.5698C244.87 29.5965 246.603 37.2665 246.603 47.5798C246.603 57.8932 244.913 65.6065 241.533 70.7199C238.153 75.8332 234.296 78.3898 229.963 78.3898C225.63 78.3898 221.773 75.8332 218.393 70.7199C215.013 65.6065 213.323 57.8932 213.323 47.5798C213.323 37.2665 215.013 29.5965 218.393 24.5698C221.86 19.4565 225.716 16.8998 229.963 16.8998ZM292.951 51.1598H288.359V56.7598C286.007 57.2825 284.028 58.4212 282.423 60.1758C280.743 62.0798 279.903 64.3572 279.903 67.0078C279.903 69.6585 280.78 71.8052 282.535 73.4478C284.14 74.9785 286.623 76.4158 289.983 77.7599C292.223 78.7305 293.567 79.4585 294.015 79.9438C294.874 80.8772 295.303 81.9038 295.303 83.0239C295.303 84.4052 294.836 85.5625 293.903 86.4959C292.895 87.4665 291.476 87.9519 289.647 87.9519C287.668 87.9519 285.97 87.4292 284.551 86.3839C283.431 85.6372 282.367 84.5172 281.359 83.0239L277.159 87.3358C278.279 88.9785 279.642 90.3412 281.247 91.4238C283.375 92.8425 285.746 93.7012 288.359 93.9998V100.16H292.951V93.8878C295.452 93.4025 297.543 92.3198 299.223 90.6398C301.463 88.4745 302.583 85.6932 302.583 82.2958C302.583 79.4585 301.631 77.1438 299.727 75.3518C299.354 75.0158 298.962 74.6985 298.551 74.3999C298.14 74.0638 297.655 73.7652 297.095 73.5038C296.572 73.2052 296.143 72.9812 295.807 72.8318C295.471 72.6452 294.948 72.4025 294.239 72.1038C293.567 71.8052 293.138 71.6185 292.951 71.5438C290.45 70.4238 288.919 69.6585 288.359 69.2479C287.388 68.5385 286.903 67.6612 286.903 66.6158C286.903 65.5705 287.258 64.6932 287.967 63.9839C288.826 63.0879 290.095 62.6398 291.775 62.6398C294.052 62.6398 296.012 63.6478 297.655 65.6638L301.351 60.9598C300.343 59.8398 299.074 58.8692 297.543 58.0478C296.05 57.3012 294.519 56.8718 292.951 56.7598V51.1598Z"/>
</mask>
<path d="M14.48 90.9998H12.48V92.9998H14.48V90.9998ZM14.48 18.8498H16.48V16.8498H14.48V18.8498ZM31.38 90.9998V92.9998H33.38V90.9998H31.38ZM31.38 4.28984H33.38V2.28984H31.38V4.28984ZM2 4.28984V2.28984H0V4.28984H2ZM2 18.8498H0V20.8498H2V18.8498ZM106.63 4.28984H108.63V2.28984H106.63V4.28984ZM106.63 18.8498V20.8498H108.63V18.8498H106.63ZM66.5897 4.28984V2.28984H64.9908L64.6388 3.84949L66.5897 4.28984ZM56.3197 49.7898L54.3688 49.3495L53.3422 53.8976L57.3452 51.5069L56.3197 49.7898ZM88.5597 48.6198L89.8955 47.1314L89.8848 47.1218L89.874 47.1123L88.5597 48.6198ZM89.0797 73.1899L90.5297 74.5674L90.5326 74.5642L89.0797 73.1899ZM63.2097 75.1398L64.1647 73.3826L64.1521 73.3757L64.1394 73.3691L63.2097 75.1398ZM54.2397 67.3398L55.8446 66.1464L53.6755 63.2293L52.3726 66.623L54.2397 67.3398ZM48.6497 81.8999L46.7826 81.183L46.3031 82.4318L47.2742 83.3518L48.6497 81.8999ZM59.1797 89.3098L60.0615 87.5147L60.0574 87.5127L59.1797 89.3098ZM101.69 84.1098L100.275 82.6956L100.275 82.6956L101.69 84.1098ZM102.86 40.6898L101.424 42.0825L101.434 42.0921L102.86 40.6898ZM74.6497 32.4998L72.7 32.0542L72.044 34.9243L74.9538 34.4766L74.6497 32.4998ZM77.7697 18.8498V16.8498H76.1753L75.82 18.4042L77.7697 18.8498ZM179.736 80.9898L178.188 79.7243L178.186 79.7261L179.736 80.9898ZM179.736 14.4298L178.18 15.6853L178.187 15.6945L178.194 15.7036L179.736 14.4298ZM132.286 14.4298L130.738 13.1643L130.736 13.1661L132.286 14.4298ZM132.286 80.9898L130.73 82.2454L130.737 82.2545L130.744 82.2636L132.286 80.9898ZM167.516 24.5698L165.848 25.6727L165.859 25.6891L165.87 25.7053L167.516 24.5698ZM144.506 70.7199L146.175 69.617L146.175 69.617L144.506 70.7199ZM144.506 24.5698L142.851 23.4475L142.847 23.4538L144.506 24.5698ZM253.623 80.9898L252.074 79.7243L252.073 79.7261L253.623 80.9898ZM253.623 14.4298L252.066 15.6853L252.074 15.6945L252.081 15.7036L253.623 14.4298ZM206.173 14.4298L204.624 13.1643L204.623 13.1661L206.173 14.4298ZM206.173 80.9898L204.616 82.2454L204.624 82.2545L204.631 82.2636L206.173 80.9898ZM241.403 24.5698L239.735 25.6727L239.746 25.6891L239.757 25.7053L241.403 24.5698ZM218.393 70.7199L220.062 69.617L220.062 69.617L218.393 70.7199ZM218.393 24.5698L216.738 23.4475L216.733 23.4538L218.393 24.5698ZM288.359 51.1598V49.1598H286.359V51.1598H288.359ZM292.951 51.1598H294.951V49.1598H292.951V51.1598ZM288.359 56.7598L288.793 58.7122L290.359 58.3642V56.7598H288.359ZM282.423 60.1758L280.947 58.8258L280.935 58.8391L280.923 58.8526L282.423 60.1758ZM282.535 73.4478L283.915 72.0004L283.908 71.9941L283.902 71.9878L282.535 73.4478ZM289.983 77.7599L290.778 75.9247L290.752 75.9134L290.726 75.9029L289.983 77.7599ZM294.015 79.9438L295.487 78.5897L295.484 78.5873L294.015 79.9438ZM293.903 86.4959L295.29 87.9365L295.304 87.9234L295.317 87.9101L293.903 86.4959ZM284.551 86.3839L285.737 84.7737L285.699 84.7458L285.66 84.7198L284.551 86.3839ZM281.359 83.0239L283.017 81.9049L281.641 79.8675L279.926 81.6284L281.359 83.0239ZM277.159 87.3358L275.726 85.9404L274.585 87.1116L275.506 88.4625L277.159 87.3358ZM281.247 91.4238L280.129 93.082L280.137 93.0879L281.247 91.4238ZM288.359 93.9998H290.359V92.2154L288.586 92.0128L288.359 93.9998ZM288.359 100.16H286.359V102.16H288.359V100.16ZM292.951 100.16V102.16H294.951V100.16H292.951ZM292.951 93.8878L292.57 91.9245L290.951 92.2386V93.8878H292.951ZM299.223 90.6398L297.833 89.2019L297.821 89.2136L297.809 89.2256L299.223 90.6398ZM299.727 75.3518L301.098 73.8954L301.081 73.8802L301.065 73.8652L299.727 75.3518ZM298.551 74.3999L297.284 75.9477L297.328 75.9838L297.375 76.0173L298.551 74.3999ZM297.095 73.5038L296.103 75.2403L296.174 75.2813L296.249 75.3162L297.095 73.5038ZM295.807 72.8318L294.836 74.5802L294.913 74.6234L294.995 74.6595L295.807 72.8318ZM294.239 72.1038L293.427 73.9315L293.445 73.9395L293.463 73.9471L294.239 72.1038ZM292.951 71.5438L292.134 73.3692L292.17 73.3857L292.208 73.4008L292.951 71.5438ZM288.359 69.2479L289.542 67.635L289.539 67.6331L288.359 69.2479ZM287.967 63.9839L289.381 65.3981L289.396 65.383L289.411 65.3677L287.967 63.9839ZM297.655 65.6638L296.104 66.9272L297.683 68.8649L299.227 66.8995L297.655 65.6638ZM301.351 60.9598L302.923 62.1955L303.963 60.8725L302.837 59.6219L301.351 60.9598ZM297.543 58.0478L298.488 56.2855L298.463 56.2719L298.437 56.259L297.543 58.0478ZM292.951 56.7598H290.951V58.6221L292.808 58.7548L292.951 56.7598ZM16.48 90.9998V18.8498H12.48V90.9998H16.48ZM31.38 88.9998H14.48V92.9998H31.38V88.9998ZM29.38 4.28984V90.9998H33.38V4.28984H29.38ZM2 6.28984H31.38V2.28984H2V6.28984ZM4 18.8498V4.28984H0V18.8498H4ZM14.48 16.8498H2V20.8498H14.48V16.8498ZM104.63 4.28984V18.8498H108.63V4.28984H104.63ZM66.5897 6.28984H106.63V2.28984H66.5897V6.28984ZM58.2706 50.2302L68.5406 4.73019L64.6388 3.84949L54.3688 49.3495L58.2706 50.2302ZM75.0397 42.1998C68.3827 42.1998 61.7925 44.1919 55.2942 48.0728L57.3452 51.5069C63.3269 47.9345 69.2166 46.1998 75.0397 46.1998V42.1998ZM89.874 47.1123C86.0436 43.7731 81.0283 42.1998 75.0397 42.1998V46.1998C80.3178 46.1998 84.3157 47.5733 87.2454 50.1274L89.874 47.1123ZM95.6297 60.5798C95.6297 55.1278 93.7381 50.5798 89.8955 47.1314L87.2239 50.1083C90.1413 52.7265 91.6297 56.1519 91.6297 60.5798H95.6297ZM90.5326 74.5642C93.9788 70.9212 95.6297 66.1939 95.6297 60.5798H91.6297C91.6297 65.3658 90.2473 69.0452 87.6268 71.8155L90.5326 74.5642ZM75.8197 80.3898C81.8189 80.3898 86.7976 78.4959 90.5297 74.5674L87.6297 71.8124C84.7751 74.8172 80.9138 76.3898 75.8197 76.3898V80.3898ZM62.2547 76.8971C66.5263 79.2187 71.057 80.3898 75.8197 80.3898V76.3898C71.7424 76.3898 67.8664 75.3944 64.1647 73.3826L62.2547 76.8971ZM52.6348 68.5332C55.3132 72.1353 58.5281 74.9409 62.28 76.9106L64.1394 73.3691C60.958 71.6988 58.1928 69.3044 55.8446 66.1464L52.6348 68.5332ZM50.5168 82.6167L56.1068 68.0567L52.3726 66.623L46.7826 81.183L50.5168 82.6167ZM60.0574 87.5127C56.5295 85.7898 53.1848 83.4413 50.0252 80.4479L47.2742 83.3518C50.7012 86.5984 54.3766 89.1899 58.302 91.107L60.0574 87.5127ZM77.8997 90.9498C70.5584 90.9498 64.645 89.7663 60.0615 87.5147L58.2979 91.105C63.5944 93.7068 70.1609 94.9498 77.8997 94.9498V90.9498ZM100.275 82.6956C94.8292 88.1419 87.4472 90.9498 77.8997 90.9498V94.9498C88.2855 94.9498 96.7635 91.8645 103.104 85.5241L100.275 82.6956ZM108.53 61.4898C108.53 70.2056 105.754 77.2175 100.275 82.6956L103.104 85.5241C109.412 79.2155 112.53 71.1474 112.53 61.4898H108.53ZM101.434 42.0921C106.111 46.8488 108.53 53.242 108.53 61.4898H112.53C112.53 52.4044 109.835 44.9309 104.286 39.2876L101.434 42.0921ZM80.4997 33.9798C89.3184 33.9798 96.2237 36.7219 101.424 42.0825L104.295 39.2972C98.229 33.0444 90.2277 29.9798 80.4997 29.9798V33.9798ZM74.9538 34.4766C77.1417 34.14 78.9852 33.9798 80.4997 33.9798V29.9798C78.7209 29.9798 76.6643 30.1664 74.3456 30.5231L74.9538 34.4766ZM75.82 18.4042L72.7 32.0542L76.5994 32.9455L79.7194 19.2955L75.82 18.4042ZM106.63 16.8498H77.7697V20.8498H106.63V16.8498ZM178.186 79.7261C172.019 87.2913 164.678 90.9498 156.076 90.9498V94.9498C166.022 94.9498 174.454 90.635 181.287 82.2536L178.186 79.7261ZM187.616 47.7098C187.616 61.5396 184.393 72.1308 178.188 79.7243L181.285 82.2554C188.253 73.7289 191.616 62.1335 191.616 47.7098H187.616ZM178.194 15.7036C184.391 23.2046 187.616 33.7884 187.616 47.7098H191.616C191.616 33.2046 188.255 21.6018 181.278 13.1561L178.194 15.7036ZM156.076 4.33984C164.669 4.33984 172.009 8.0339 178.18 15.6853L181.293 13.1743C174.464 4.70579 166.03 0.339844 156.076 0.339844V4.33984ZM133.835 15.6954C140.094 8.03591 147.482 4.33984 156.076 4.33984V0.339844C146.124 0.339844 137.652 4.70378 130.738 13.1643L133.835 15.6954ZM124.536 47.5798C124.536 33.743 127.72 23.197 133.837 15.6936L130.736 13.1661C123.853 21.6093 120.536 33.1634 120.536 47.5798H124.536ZM133.843 79.7343C127.721 72.1422 124.536 61.5052 124.536 47.5798H120.536C120.536 62.0812 123.852 73.7175 130.73 82.2454L133.843 79.7343ZM156.076 90.9498C147.473 90.9498 140.085 87.2894 133.828 79.7161L130.744 82.2636C137.662 90.637 146.133 94.9498 156.076 94.9498V90.9498ZM169.185 23.467C165.611 18.061 161.262 14.8998 156.076 14.8998V18.8998C159.384 18.8998 162.661 20.8521 165.848 25.6727L169.185 23.467ZM174.716 47.5798C174.716 37.1115 172.97 28.9544 169.163 23.4344L165.87 25.7053C168.996 30.2386 170.716 37.4215 170.716 47.5798H174.716ZM169.315 71.8227C173.013 66.2275 174.716 58.046 174.716 47.5798H170.716C170.716 57.7404 169.039 64.9855 165.978 69.617L169.315 71.8227ZM156.076 80.3898C161.336 80.3898 165.731 77.2442 169.315 71.8227L165.978 69.617C162.802 74.4222 159.484 76.3898 156.076 76.3898V80.3898ZM142.838 71.8227C146.422 77.2442 150.817 80.3898 156.076 80.3898V76.3898C152.669 76.3898 149.351 74.4222 146.175 69.617L142.838 71.8227ZM137.436 47.5798C137.436 58.046 139.139 66.2275 142.838 71.8227L146.175 69.617C143.113 64.9855 141.436 57.7404 141.436 47.5798H137.436ZM142.847 23.4538C139.138 28.9695 137.436 37.1179 137.436 47.5798H141.436C141.436 37.4151 143.115 30.2235 146.166 25.6858L142.847 23.4538ZM156.076 14.8998C150.899 14.8998 146.509 18.052 142.851 23.4475L146.162 25.6922C149.437 20.861 152.761 18.8998 156.076 18.8998V14.8998ZM252.073 79.7261C245.906 87.2913 238.565 90.9498 229.963 90.9498V94.9498C239.908 94.9498 248.341 90.635 255.173 82.2536L252.073 79.7261ZM261.503 47.7098C261.503 61.5396 258.28 72.1308 252.074 79.7243L255.172 82.2554C262.14 73.7289 265.503 62.1335 265.503 47.7098H261.503ZM252.081 15.7036C258.278 23.2046 261.503 33.7884 261.503 47.7098H265.503C265.503 33.2046 262.142 21.6018 255.165 13.1561L252.081 15.7036ZM229.963 4.33984C238.556 4.33984 245.896 8.0339 252.066 15.6853L255.18 13.1743C248.35 4.70579 239.917 0.339844 229.963 0.339844V4.33984ZM207.722 15.6954C213.981 8.03591 221.368 4.33984 229.963 4.33984V0.339844C220.011 0.339844 211.538 4.70378 204.624 13.1643L207.722 15.6954ZM198.423 47.5798C198.423 33.743 201.606 23.197 207.723 15.6936L204.623 13.1661C197.74 21.6093 194.423 33.1634 194.423 47.5798H198.423ZM207.73 79.7343C201.607 72.1422 198.423 61.5052 198.423 47.5798H194.423C194.423 62.0812 197.739 73.7175 204.616 82.2454L207.73 79.7343ZM229.963 90.9498C221.36 90.9498 213.971 87.2894 207.715 79.7161L204.631 82.2636C211.548 90.637 220.02 94.9498 229.963 94.9498V90.9498ZM243.072 23.467C239.498 18.061 235.149 14.8998 229.963 14.8998V18.8998C233.271 18.8998 236.548 20.8521 239.735 25.6727L243.072 23.467ZM248.603 47.5798C248.603 37.1115 246.856 28.9544 243.05 23.4344L239.757 25.7053C242.883 30.2386 244.603 37.4215 244.603 47.5798H248.603ZM243.202 71.8227C246.9 66.2275 248.603 58.046 248.603 47.5798H244.603C244.603 57.7404 242.926 64.9855 239.865 69.617L243.202 71.8227ZM229.963 80.3898C235.222 80.3898 239.618 77.2442 243.202 71.8227L239.865 69.617C236.688 74.4222 233.371 76.3898 229.963 76.3898V80.3898ZM216.725 71.8227C220.308 77.2442 224.704 80.3898 229.963 80.3898V76.3898C226.556 76.3898 223.238 74.4222 220.062 69.617L216.725 71.8227ZM211.323 47.5798C211.323 58.046 213.026 66.2275 216.725 71.8227L220.062 69.617C217 64.9855 215.323 57.7404 215.323 47.5798H211.323ZM216.733 23.4538C213.025 28.9695 211.323 37.1179 211.323 47.5798H215.323C215.323 37.4151 217.002 30.2235 220.053 25.6858L216.733 23.4538ZM229.963 14.8998C224.786 14.8998 220.396 18.052 216.738 23.4475L220.049 25.6922C223.324 20.861 226.647 18.8998 229.963 18.8998V14.8998ZM288.359 53.1598H292.951V49.1598H288.359V53.1598ZM290.359 56.7598V51.1598H286.359V56.7598H290.359ZM283.898 61.5259C285.223 60.0784 286.836 59.1471 288.793 58.7122L287.925 54.8075C285.178 55.418 282.834 56.764 280.947 58.8258L283.898 61.5259ZM281.903 67.0078C281.903 64.8211 282.58 63.0205 283.923 61.4991L280.923 58.8526C278.906 61.1392 277.903 63.8933 277.903 67.0078H281.903ZM283.902 71.9878C282.595 70.7644 281.903 69.1683 281.903 67.0078H277.903C277.903 70.1487 278.966 72.846 281.168 74.9079L283.902 71.9878ZM290.726 75.9029C287.472 74.6013 285.256 73.2789 283.915 72.0004L281.155 74.8953C283.024 76.6781 285.774 78.2304 289.24 79.6168L290.726 75.9029ZM295.484 78.5873C295.015 78.0785 294.302 77.6427 293.623 77.2753C292.879 76.8721 291.924 76.4214 290.778 75.9247L289.188 79.595C290.282 80.069 291.119 80.4676 291.718 80.7924C292.384 81.153 292.567 81.3239 292.545 81.3004L295.484 78.5873ZM297.303 83.0239C297.303 81.3351 296.637 79.8397 295.487 78.5897L292.543 81.298C293.11 81.9147 293.303 82.4726 293.303 83.0239H297.303ZM295.317 87.9101C296.644 86.5827 297.303 84.9081 297.303 83.0239H293.303C293.303 83.9022 293.028 84.5424 292.489 85.0816L295.317 87.9101ZM289.647 89.9519C291.829 89.9519 293.806 89.3658 295.29 87.9365L292.516 85.0552C291.984 85.5672 291.123 85.9519 289.647 85.9519V89.9519ZM283.364 87.994C285.169 89.3233 287.296 89.9519 289.647 89.9519V85.9519C288.04 85.9519 286.77 85.5351 285.737 84.7737L283.364 87.994ZM279.701 84.1428C280.808 85.7829 282.045 87.1171 283.441 88.048L285.66 84.7198C284.817 84.1573 283.925 83.2515 283.017 81.9049L279.701 84.1428ZM278.592 88.7313L282.792 84.4193L279.926 81.6284L275.726 85.9404L278.592 88.7313ZM282.365 89.7657C280.976 88.8286 279.792 87.6482 278.811 86.2092L275.506 88.4625C276.765 90.3089 278.307 91.8538 280.129 93.082L282.365 89.7657ZM288.586 92.0128C286.279 91.7491 284.212 90.9971 282.356 89.7597L280.137 93.0879C282.537 94.6879 285.212 95.6532 288.132 95.9869L288.586 92.0128ZM290.359 100.16V93.9998H286.359V100.16H290.359ZM292.951 98.1599H288.359V102.16H292.951V98.1599ZM290.951 93.8878V100.16H294.951V93.8878H290.951ZM297.809 89.2256C296.431 90.603 294.71 91.5093 292.57 91.9245L293.332 95.8512C296.195 95.2957 298.654 94.0367 300.637 92.0541L297.809 89.2256ZM300.583 82.2958C300.583 85.2053 299.646 87.4495 297.833 89.2019L300.613 92.0778C303.28 89.4995 304.583 86.1811 304.583 82.2958H300.583ZM298.356 76.8082C299.822 78.1879 300.583 79.9577 300.583 82.2958H304.583C304.583 78.9594 303.44 76.0998 301.098 73.8954L298.356 76.8082ZM297.375 76.0173C297.73 76.2756 298.068 76.5494 298.389 76.8385L301.065 73.8652C300.639 73.4823 300.193 73.1214 299.727 72.7824L297.375 76.0173ZM296.249 75.3162C296.683 75.5185 297.021 75.7327 297.284 75.9477L299.817 72.852C299.259 72.395 298.627 72.0119 297.941 71.6915L296.249 75.3162ZM294.995 74.6595C295.243 74.7698 295.607 74.9569 296.103 75.2403L298.087 71.7674C297.538 71.4534 297.043 71.1925 296.619 71.0042L294.995 74.6595ZM293.463 73.9471C294.157 74.2396 294.598 74.4483 294.836 74.5802L296.778 71.0835C296.344 70.8421 295.739 70.5654 295.015 70.2606L293.463 73.9471ZM292.208 73.4008C292.352 73.4585 292.744 73.6281 293.427 73.9315L295.051 70.2762C294.39 69.9823 293.923 69.7785 293.694 69.6869L292.208 73.4008ZM287.176 70.8607C287.608 71.1774 288.27 71.5375 289.032 71.9187C289.834 72.3193 290.87 72.8036 292.134 73.3692L293.768 69.7185C292.53 69.1641 291.551 68.7057 290.821 68.341C290.053 67.9569 289.67 67.729 289.542 67.635L287.176 70.8607ZM284.903 66.6158C284.903 68.4017 285.781 69.8414 287.179 70.8626L289.539 67.6331C288.995 67.2356 288.903 66.9207 288.903 66.6158H284.903ZM286.553 62.5696C285.451 63.6713 284.903 65.0649 284.903 66.6158H288.903C288.903 66.0761 289.064 65.7151 289.381 65.3981L286.553 62.5696ZM291.775 60.6398C289.749 60.6398 287.878 61.1865 286.523 62.6L289.411 65.3677C289.774 64.9892 290.441 64.6398 291.775 64.6398V60.6398ZM299.205 64.4005C297.243 61.9928 294.743 60.6398 291.775 60.6398V64.6398C293.361 64.6398 294.781 65.3029 296.104 66.9272L299.205 64.4005ZM299.778 59.7242L296.082 64.4282L299.227 66.8995L302.923 62.1955L299.778 59.7242ZM296.597 59.8102C297.955 60.5387 299.032 61.3735 299.864 62.2978L302.837 59.6219C301.653 58.3062 300.192 57.1996 298.488 56.2855L296.597 59.8102ZM292.808 58.7548C294.099 58.8469 295.375 59.2 296.648 59.8367L298.437 56.259C296.724 55.4024 294.939 54.8968 293.093 54.7649L292.808 58.7548ZM290.951 51.1598V56.7598H294.951V51.1598H290.951Z" fill="white" mask="url(#path-1-outside-1)"/>
</svg>
