<svg width="133" height="91" viewBox="0 0 133 91" fill="none" xmlns="http://www.w3.org/2000/svg">
<mask id="path-1-outside-1" maskUnits="userSpaceOnUse" x="0" y="0.290039" width="133" height="91" fill="black">
<rect fill="white" y="0.290039" width="133" height="91"/>
<path fill-rule="evenodd" clip-rule="evenodd" d="M14.48 16.85V89H31.38V2.29004H2V16.85H14.48ZM64.4995 16.85V89H81.3995V2.29004H52.0195V16.85H64.4995ZM106.641 73.88V80.152H115.377V88.888H122.209V80.152H130.945V73.88H122.209V65.144H115.377V73.88H106.641Z"/>
</mask>
<path d="M14.48 89H12.48V91H14.48V89ZM14.48 16.85H16.48V14.85H14.48V16.85ZM31.38 89V91H33.38V89H31.38ZM31.38 2.29004H33.38V0.290039H31.38V2.29004ZM2 2.29004V0.290039H0V2.29004H2ZM2 16.85H0V18.85H2V16.85ZM64.4995 89H62.4995V91H64.4995V89ZM64.4995 16.85H66.4995V14.85H64.4995V16.85ZM81.3995 89V91H83.3995V89H81.3995ZM81.3995 2.29004H83.3995V0.290039H81.3995V2.29004ZM52.0195 2.29004V0.290039H50.0195V2.29004H52.0195ZM52.0195 16.85H50.0195V18.85H52.0195V16.85ZM106.641 80.152H104.641V82.152H106.641V80.152ZM106.641 73.88V71.88H104.641V73.88H106.641ZM115.377 80.152H117.377V78.152H115.377V80.152ZM115.377 88.888H113.377V90.888H115.377V88.888ZM122.209 88.888V90.888H124.209V88.888H122.209ZM122.209 80.152V78.152H120.209V80.152H122.209ZM130.945 80.152V82.152H132.945V80.152H130.945ZM130.945 73.88H132.945V71.88H130.945V73.88ZM122.209 73.88H120.209V75.88H122.209V73.88ZM122.209 65.144H124.209V63.144H122.209V65.144ZM115.377 65.144V63.144H113.377V65.144H115.377ZM115.377 73.88V75.88H117.377V73.88H115.377ZM16.48 89V16.85H12.48V89H16.48ZM31.38 87H14.48V91H31.38V87ZM29.38 2.29004V89H33.38V2.29004H29.38ZM2 4.29004H31.38V0.290039H2V4.29004ZM4 16.85V2.29004H0V16.85H4ZM14.48 14.85H2V18.85H14.48V14.85ZM66.4995 89V16.85H62.4995V89H66.4995ZM81.3995 87H64.4995V91H81.3995V87ZM79.3995 2.29004V89H83.3995V2.29004H79.3995ZM52.0195 4.29004H81.3995V0.290039H52.0195V4.29004ZM54.0195 16.85V2.29004H50.0195V16.85H54.0195ZM64.4995 14.85H52.0195V18.85H64.4995V14.85ZM108.641 80.152V73.88H104.641V80.152H108.641ZM115.377 78.152H106.641V82.152H115.377V78.152ZM117.377 88.888V80.152H113.377V88.888H117.377ZM122.209 86.888H115.377V90.888H122.209V86.888ZM120.209 80.152V88.888H124.209V80.152H120.209ZM130.945 78.152H122.209V82.152H130.945V78.152ZM128.945 73.88V80.152H132.945V73.88H128.945ZM122.209 75.88H130.945V71.88H122.209V75.88ZM120.209 65.144V73.88H124.209V65.144H120.209ZM115.377 67.144H122.209V63.144H115.377V67.144ZM117.377 73.88V65.144H113.377V73.88H117.377ZM106.641 75.88H115.377V71.88H106.641V75.88Z" fill="white" mask="url(#path-1-outside-1)"/>
</svg>
