<svg width="46" height="46" viewBox="0 0 46 46" fill="none" xmlns="http://www.w3.org/2000/svg">
<path d="M23 0C10.3176 0 0 10.3176 0 23C0 35.6824 10.3176 46 23 46C35.6824 46 46 35.6824 46 23C46 10.3176 35.6824 0 23 0ZM21.6523 11.2894C19.6021 11.2013 17.5725 10.9132 15.6346 10.4447C15.9441 9.7112 16.28 9.00684 16.6422 8.33932C18.1281 5.6012 19.9523 3.67973 21.6523 2.9838V11.2894ZM21.6523 13.9868V21.6523H13.2348C13.3534 18.6605 13.8633 15.6904 14.7066 12.9887C16.9415 13.5517 19.2876 13.8924 21.6523 13.9868ZM21.6523 24.3477V32.0132C19.2876 32.1076 16.9415 32.4483 14.7066 33.0113C13.8633 30.3096 13.3534 27.3395 13.2348 24.3477H21.6523ZM21.6523 34.7106V43.0162C19.9523 42.3203 18.1281 40.3988 16.6422 37.6607C16.28 36.9932 15.9441 36.2888 15.6346 35.5553C17.5725 35.0868 19.6017 34.7987 21.6523 34.7106ZM24.3477 34.7106C26.3979 34.7987 28.4275 35.0868 30.3654 35.5553C30.0559 36.2888 29.72 36.9932 29.3578 37.6607C27.8719 40.3988 26.0477 42.3203 24.3477 43.0162V34.7106ZM24.3477 32.0132V24.3477H32.7652C32.6466 27.3395 32.1367 30.3096 31.2934 33.0113C29.0585 32.4483 26.7124 32.1076 24.3477 32.0132ZM24.3477 21.6523V13.9868C26.7124 13.8924 29.0585 13.5517 31.2934 12.9887C32.1367 15.6904 32.6466 18.6605 32.7652 21.6523H24.3477ZM24.3477 11.2894V2.9838C26.0477 3.67973 27.8719 5.6012 29.3578 8.33932C29.72 9.00684 30.0559 9.7112 30.3654 10.4447C28.4275 10.9132 26.3979 11.2013 24.3477 11.2894ZM31.7268 7.05379C31.0519 5.81001 30.3188 4.71364 29.546 3.77835C32.2406 4.69855 34.6814 6.17079 36.7342 8.05891C35.5634 8.68607 34.3017 9.23074 32.9744 9.68593C32.5978 8.77135 32.1816 7.89151 31.7268 7.05379ZM14.2732 7.05379C13.8184 7.89151 13.4022 8.77135 13.0256 9.68593C11.6983 9.23074 10.4366 8.68571 9.26584 8.05891C11.3186 6.17079 13.7594 4.69855 16.454 3.77835C15.6812 4.71364 14.9485 5.80966 14.2732 7.05379ZM12.1138 12.2191C11.194 15.1618 10.6532 18.3699 10.5366 21.6523H2.74129C3.02977 17.2721 4.71188 13.2663 7.34964 10.0776C8.81346 10.9171 10.4166 11.6351 12.1138 12.2191ZM10.5366 24.3477C10.6532 27.6305 11.194 30.8382 12.1138 33.7809C10.4166 34.3649 8.81346 35.0829 7.34964 35.9224C4.71188 32.7337 3.02977 28.7279 2.74129 24.3477H10.5366ZM13.0256 36.3141C13.4022 37.2287 13.8184 38.1085 14.2732 38.9462C14.9485 40.19 15.6812 41.2864 16.454 42.2216C13.7594 41.3015 11.3186 39.8292 9.26619 37.9411C10.4363 37.3143 11.6983 36.7693 13.0256 36.3141ZM31.7268 38.9462C32.1816 38.1085 32.5978 37.2287 32.9744 36.3141C34.3017 36.7693 35.5634 37.3143 36.7342 37.9411C34.6814 39.8292 32.2406 41.3015 29.546 42.2216C30.3188 41.2864 31.0515 40.1903 31.7268 38.9462ZM33.8862 33.7809C34.806 30.8382 35.3468 27.6301 35.4634 24.3477H43.2587C42.9702 28.7279 41.2881 32.7337 38.6504 35.9224C37.1865 35.0829 35.5834 34.3649 33.8862 33.7809ZM35.4634 21.6523C35.3468 18.3695 34.806 15.1618 33.8862 12.2191C35.5834 11.6351 37.1865 10.9171 38.6504 10.0776C41.2881 13.2663 42.9702 17.2721 43.2587 21.6523H35.4634Z" fill="url(#paint0_linear)"/>
<defs>
<linearGradient id="paint0_linear" x1="0.219049" y1="-0.25273" x2="51.367" y2="38.9637" gradientUnits="userSpaceOnUse">
<stop stop-color="#FFC643"/>
<stop offset="1" stop-color="#FF9800"/>
</linearGradient>
</defs>
</svg>
