<svg width="46" height="46" viewBox="0 0 46 46" fill="none" xmlns="http://www.w3.org/2000/svg">
<g clip-path="url(#clip0)">
<path d="M7.06193 34.6663C7.64972 37.7957 9.73789 40.416 12.6544 41.687L20 45.3378C20.0327 45.3542 20.065 45.3682 20.0978 45.3827C21.0571 45.7941 22.0876 46 23.1177 46C24.1482 46 25.1782 45.795 26.1376 45.3827C26.1704 45.3682 26.2031 45.3532 26.2354 45.3378L33.581 41.687C36.4975 40.416 38.5871 37.7957 39.1823 34.6213L43.179 10.0903C43.3774 9.03216 43.1186 7.93145 42.4686 7.07176C41.819 6.213 40.8306 5.66405 39.7762 5.56811L34.3747 5.0229C33.0119 4.89935 31.7132 4.49829 30.5774 3.86884L24.9779 0.480602C23.8117 -0.166159 22.4199 -0.166159 21.1933 0.517105L15.7179 3.83327C14.3518 4.59235 13.6741 4.91152 12.4621 5.0229L6.47647 5.56624C5.40291 5.66405 4.41592 6.213 3.76495 7.07176C3.12099 7.9249 2.86126 9.01391 3.04986 10.0641L7.06193 34.6663ZM12.8116 8.83935C14.7973 8.65917 16.0417 8.03909 17.6441 7.14757L23.1186 3.83234L28.6559 7.18314C30.3224 8.10976 32.1302 8.66666 34.0097 8.83748L39.4028 9.42761L35.4061 33.9591C35.0514 35.8484 33.785 37.4288 32.0188 38.186C31.9861 38.2 31.9538 38.2155 31.921 38.2309L24.5834 41.8775C23.6489 42.2641 22.587 42.2641 21.6524 41.8775L14.3144 38.2309C14.2821 38.2145 14.2493 38.2 14.2165 38.186C12.4504 37.4288 11.183 35.8493 10.8372 34.005L6.83308 9.42855C6.82981 9.41357 6.82793 9.39907 6.82513 9.38362L12.8116 8.83935Z" fill="url(#paint0_linear)"/>
<path d="M20.805 30.1062C21.179 30.4811 21.6699 30.6678 22.1603 30.6678C22.6513 30.6678 23.1417 30.4811 23.5156 30.1062L33.1 20.5218C33.8488 19.773 33.8488 18.56 33.1 17.8112C32.3527 17.0629 31.1373 17.0629 30.3895 17.8112L22.1603 26.0394L17.765 21.645C17.0176 20.8967 15.8022 20.8967 15.0544 21.645C14.3061 22.3938 14.3061 23.6068 15.0544 24.3556L20.805 30.1062Z" fill="url(#paint1_linear)"/>
</g>
<defs>
<linearGradient id="paint0_linear" x1="3.18144" y1="-0.25273" x2="52.1904" y2="32.6302" gradientUnits="userSpaceOnUse">
<stop stop-color="#FFC643"/>
<stop offset="1" stop-color="#FF9800"/>
</linearGradient>
<linearGradient id="paint1_linear" x1="14.5844" y1="17.1763" x2="29.9695" y2="34.028" gradientUnits="userSpaceOnUse">
<stop stop-color="#FFC643"/>
<stop offset="1" stop-color="#FF9800"/>
</linearGradient>
<clipPath id="clip0">
<rect width="46" height="46" fill="white"/>
</clipPath>
</defs>
</svg>
