<svg width="56" height="56" viewBox="0 0 56 56" fill="none" xmlns="http://www.w3.org/2000/svg">
<path d="M11.5243 43.5657C9.53472 41.5786 7.95709 39.2182 6.88197 36.6199C5.80686 34.0216 5.25543 31.2366 5.25933 28.4247C5.25872 24.6376 6.26192 20.9181 8.16673 17.645C10.0715 14.3719 12.8099 11.6621 16.1028 9.79181C19.3958 7.92148 23.1256 6.9574 26.9124 6.99778C30.6992 7.03816 34.4077 8.08155 37.66 10.0217L37.562 9.968L40.1053 7.42467C36.1013 4.84664 31.4369 3.48201 26.6747 3.49534C12.9103 3.49534 1.75 14.6533 1.75 28.42C1.75 35.301 4.53833 41.5333 9.04867 46.0437C11.3619 48.3615 14.1102 50.1995 17.1358 51.452C20.1614 52.7045 23.4047 53.3469 26.6793 53.3423C31.6447 53.3423 36.2717 51.891 40.1567 49.3897L40.0587 49.448L37.5083 46.8977C29.302 51.709 18.557 50.5983 11.5243 43.5657Z" fill="url(#paint0_linear)"/>
<path d="M51.2868 38.6167C52.5701 35.6043 53.3168 32.0997 53.3168 28.42C53.3168 24.7403 52.5701 21.2357 51.2214 18.0483L51.2868 18.2233C51.1911 17.99 51.0884 17.759 50.9858 17.528C49.66 14.5671 47.8049 11.8731 45.5118 9.57833L44.2751 8.33933L24.1968 28.42L44.2751 48.4983L45.5118 47.2617C47.7292 45.0497 49.5375 42.4625 50.8528 39.62L50.9204 39.4567C51.0464 39.179 51.1701 38.899 51.2868 38.6167ZM44.2261 13.3373C47.7004 17.3623 49.8168 22.6427 49.8168 28.42C49.8168 34.1973 47.7004 39.4777 44.2028 43.5307L44.2284 43.5003L29.1458 28.4177L44.2261 13.3373Z" fill="url(#paint1_linear)"/>
<defs>
<linearGradient id="paint0_linear" x1="1.93289" y1="3.22137" x2="52.1998" y2="32.9167" gradientUnits="userSpaceOnUse">
<stop stop-color="#FFC643"/>
<stop offset="1" stop-color="#FF9800"/>
</linearGradient>
<linearGradient id="paint1_linear" x1="24.3354" y1="8.11869" x2="63.6093" y2="29.9536" gradientUnits="userSpaceOnUse">
<stop stop-color="#FFC643"/>
<stop offset="1" stop-color="#FF9800"/>
</linearGradient>
</defs>
</svg>
