<svg width="181" height="32" viewBox="0 0 181 32" fill="none" xmlns="http://www.w3.org/2000/svg">
<path d="M37.432 17.2505H35.048V14.8505H39.832V19.8425C39.352 20.3225 38.712 20.7065 37.912 20.9945C37.1333 21.2825 36.376 21.4265 35.64 21.4265C33.7627 21.4265 32.2907 20.9038 31.224 19.8585C30.168 18.8132 29.64 17.4052 29.64 15.6345C29.64 13.9812 30.1573 12.6052 31.192 11.5065C32.2373 10.3972 33.6133 9.8425 35.32 9.8425C36.792 9.8425 38.0133 10.2318 38.984 11.0105L37.912 13.0745C37.688 12.8398 37.3573 12.6425 36.92 12.4825C36.4933 12.3225 36.0613 12.2425 35.624 12.2425C34.632 12.2425 33.8373 12.5358 33.24 13.1225C32.6533 13.7092 32.36 14.5465 32.36 15.6345C32.36 16.6692 32.6587 17.4958 33.256 18.1145C33.864 18.7225 34.6693 19.0265 35.672 19.0265C35.9707 19.0265 36.3067 18.9678 36.68 18.8505C37.032 18.7332 37.2827 18.6052 37.432 18.4665V17.2505ZM47.825 17.3145V21.2345H45.265V10.0345C45.873 10.0345 46.545 10.0292 47.281 10.0185C48.017 10.0078 48.6143 10.0025 49.073 10.0025C51.8357 10.0025 53.217 11.1972 53.217 13.5865C53.217 15.1225 52.5877 16.1998 51.329 16.8185L54.593 21.2345H51.489L48.769 17.3145H47.825ZM48.945 12.4025C48.9343 12.4025 48.8863 12.4078 48.801 12.4185C48.7157 12.4185 48.5823 12.4238 48.401 12.4345C48.2197 12.4345 48.0277 12.4345 47.825 12.4345V14.9145H48.753C49.9157 14.9145 50.497 14.4825 50.497 13.6185C50.497 12.8078 49.9797 12.4025 48.945 12.4025ZM60.3666 21.2345H57.7906L62.4466 10.0345H64.7346L69.3906 21.2345H66.6546L65.7266 18.8825H61.2946L60.3666 21.2345ZM64.7666 16.4825L63.5186 13.3145L62.2546 16.4825H64.7666ZM76.7444 21.2345H74.1844V10.0345H76.7444V21.2345ZM92.75 10.0345V21.2345H90.702L85.39 14.5145V21.2345H82.99V10.0345H85.038L90.35 16.7865V10.0345H92.75ZM101.391 21.2345H98.8306V10.0345H101.407L104.863 14.7545L108.127 10.0345H110.543V21.2345H107.983V14.0985L104.863 18.4665H104.495L101.391 14.1465V21.2345ZM117.76 21.2345H115.184L119.84 10.0345H122.128L126.784 21.2345H124.048L123.12 18.8825H118.688L117.76 21.2345ZM122.16 16.4825L120.912 13.3145L119.648 16.4825H122.16ZM133.978 17.3145V21.2345H131.418V10.0345C132.026 10.0345 132.698 10.0292 133.434 10.0185C134.17 10.0078 134.767 10.0025 135.226 10.0025C137.989 10.0025 139.37 11.1972 139.37 13.5865C139.37 15.1225 138.741 16.1998 137.482 16.8185L140.746 21.2345H137.642L134.922 17.3145H133.978ZM135.098 12.4025C135.087 12.4025 135.039 12.4078 134.954 12.4185C134.869 12.4185 134.735 12.4238 134.554 12.4345C134.373 12.4345 134.181 12.4345 133.978 12.4345V14.9145H134.906C136.069 14.9145 136.65 14.4825 136.65 13.6185C136.65 12.8078 136.133 12.4025 135.098 12.4025ZM147.944 21.2345H145.384V10.0345H147.944V14.9145L151.608 10.0345H154.68L150.472 15.2025L155.016 21.2345H151.768L147.944 15.9065V21.2345ZM166.462 21.2345H159.662V10.0345H166.302V12.4345H162.222V14.4025H165.822V16.8025H162.222V18.8345H166.462V21.2345ZM174.145 12.4345H170.785V10.0345H180.065V12.4345H176.705V21.2345H174.145V12.4345Z" fill="#234048"/>
<g clip-path="url(#clip0)">
<path d="M8.54629 26.5317C7.60837 26.5308 6.70912 26.1578 6.04591 25.4947C5.3827 24.8316 5.00971 23.9324 5.00879 22.9946V20.8869H6.84677L6.17873 20.2847C5.8101 19.9521 5.51547 19.5458 5.31393 19.092C5.11238 18.6383 5.00843 18.1473 5.00879 17.6509V15.5397H6.84677L6.17873 14.9513C5.81149 14.6206 5.51765 14.2166 5.31614 13.7653C5.11463 13.3141 5.00993 12.8256 5.00879 12.3314V10.2237H7.12021C7.39775 10.2254 7.67417 10.2591 7.94401 10.324L8.66051 10.4971L8.33515 9.83604C8.00977 9.17432 7.89893 8.4276 8.01805 7.69991C8.13717 6.97222 8.48033 6.2998 8.99972 5.77634L10.4916 4.28467L11.9834 5.77634C12.5092 6.29549 12.8588 6.96648 12.9829 7.6948C13.1071 8.42311 12.9997 9.17203 12.6757 9.83604L12.3503 10.4971L13.0668 10.324C13.3367 10.2591 13.6131 10.2254 13.8906 10.2237H15.9986V12.3314C15.9972 12.8252 15.8928 13.3133 15.6919 13.7645C15.491 14.2156 15.1982 14.6199 14.8321 14.9513L14.1641 15.5535H15.9986V17.6509C15.997 18.1447 15.8925 18.6327 15.6916 19.0838C15.4908 19.535 15.198 19.9392 14.8321 20.2708L14.1641 20.873H15.9986V22.9808C15.9999 23.4463 15.9095 23.9075 15.7323 24.3381C15.5552 24.7686 15.2949 25.16 14.9663 25.4898C14.6378 25.8196 14.2474 26.0814 13.8175 26.2602C13.3876 26.439 12.9267 26.5312 12.4611 26.5317H8.54629Z" fill="#FFC643"/>
<path d="M11.0033 0H9.99609V4.99416H11.0033V0Z" fill="#545454"/>
<path d="M16.3344 3.02142H15.3271V10.3794H16.3344V3.02142Z" fill="#545454"/>
<path d="M13.6684 1.51245H12.6611V10.3829H13.6684V1.51245Z" fill="#545454"/>
<path d="M8.33831 1.51245H7.33105V10.3829H8.33831V1.51245Z" fill="#545454"/>
<path d="M5.66936 3.02142H4.66211V10.3794H5.66936V3.02142Z" fill="#545454"/>
<path d="M11.4624 16.2956L10.498 15.3314L9.53371 16.2956L10.498 17.2599L11.4624 16.2956Z" fill="#545454"/>
<path d="M10.4983 32L10.2871 31.9031C3.94248 28.9786 0 23.3649 0 17.2494V7.70755H5.16779V8.71815H1.01418V17.2494C1.01418 22.8977 4.64513 28.1064 10.5052 30.889C16.3687 28.1203 19.9997 22.8977 19.9997 17.2494V8.71815H15.8461V7.70755H21V17.2494C21 23.3649 17.0575 28.9786 10.7094 31.9031L10.4983 32Z" fill="#545454"/>
<path d="M19.9927 17.2494C19.9927 22.8977 16.3618 28.1064 10.4983 30.889C8.73706 30.0623 7.11787 28.9619 5.70084 27.6288C5.43086 27.3727 5.16779 27.1097 4.91858 26.8397C4.66936 26.5698 4.43053 26.3033 4.20554 26.0091C3.75334 25.4508 3.34155 24.8609 2.9733 24.244C2.79331 23.9394 2.62716 23.6279 2.46448 23.313C2.3018 22.9981 2.16334 22.6796 2.02835 22.3543C1.35743 20.7358 1.01051 19.0014 1.00725 17.2494V8.71815H5.16087V7.70755H0V17.2494C0 23.3649 3.94248 28.9786 10.2871 31.9031L10.4983 32L10.7094 31.9031C17.0575 28.9786 21 23.3649 21 17.2494V7.70755H15.8322V8.71815H19.9858L19.9927 17.2494Z" fill="#545454"/>
<path d="M2.14941 9.86026V17.2494C2.15747 18.9604 2.52295 20.6509 3.22243 22.2124V9.86026H2.14941Z" fill="#545454"/>
<path d="M18.8504 9.86026H17.7773V22.2124C18.4768 20.6509 18.8423 18.9604 18.8504 17.2494V9.86026Z" fill="#545454"/>
<path d="M11.0033 16.2146H8.54574C7.51602 16.2137 6.52873 15.8042 5.80061 15.0762C5.07249 14.3482 4.66303 13.361 4.66211 12.3314V9.87756H7.11967C8.14939 9.87848 9.13667 10.2879 9.8648 11.0159C10.5929 11.744 11.0024 12.7311 11.0033 13.7608V16.2146ZM5.66936 10.8847V12.3314C5.67028 13.0939 5.97362 13.8249 6.51285 14.364C7.05207 14.9032 7.78316 15.2065 8.54574 15.2074H9.99605V13.7608C9.99513 12.9983 9.69179 12.2673 9.15256 11.7281C8.61334 11.1889 7.88225 10.8856 7.11967 10.8847H5.66936Z" fill="#545454"/>
<path d="M12.4606 16.2146H9.99609V13.7608C9.99701 12.7311 10.4065 11.744 11.1346 11.0159C11.8627 10.2879 12.85 9.87848 13.8797 9.87756H16.3338V12.3314C16.3329 13.3592 15.9249 14.3448 15.199 15.0725C14.4731 15.8003 13.4885 16.2109 12.4606 16.2146ZM11.0137 15.2074H12.4606C13.2232 15.2065 13.9542 14.9032 14.4935 14.364C15.0327 13.8249 15.336 13.0939 15.337 12.3314V10.8847H13.8797C13.1171 10.8856 12.3861 11.1889 11.8468 11.7281C11.3076 12.2673 11.0043 12.9983 11.0033 13.7608L11.0137 15.2074Z" fill="#545454"/>
<path d="M11.0033 21.5479H8.54576C8.03471 21.5475 7.52877 21.4463 7.05689 21.2501C6.58501 21.0539 6.15645 20.7666 5.79573 20.4047C5.43501 20.0427 5.14921 19.6132 4.9547 19.1406C4.76018 18.6681 4.66076 18.1619 4.66212 17.6509V15.1936H7.11968C7.63072 15.1941 8.13666 15.2953 8.60855 15.4914C9.08043 15.6876 9.50899 15.9749 9.86971 16.3369C10.2304 16.6988 10.5162 17.1284 10.7107 17.6009C10.9053 18.0734 11.0047 18.5797 11.0033 19.0906V21.5479ZM5.66938 16.2146V17.6509C5.67029 18.4134 5.97363 19.1444 6.51286 19.6836C7.05209 20.2227 7.78317 20.526 8.54576 20.5269H9.99606V19.0906C9.99514 18.3281 9.6918 17.5971 9.15258 17.058C8.61335 16.5188 7.88226 16.2155 7.11968 16.2146H5.66938Z" fill="#545454"/>
<path d="M12.4606 21.5479H9.99609V19.0906C9.99701 18.061 10.4065 17.0738 11.1346 16.3458C11.8627 15.6178 12.85 15.2083 13.8797 15.2074H16.3338V17.6509C16.3366 18.6811 15.9302 19.6702 15.2039 20.401C14.4776 21.1317 13.4909 21.5442 12.4606 21.5479ZM11.0137 20.5408H12.4606C13.2238 20.5371 13.9543 20.2307 14.4917 19.6888C15.029 19.1469 15.3293 18.414 15.3266 17.6509V16.2146H13.8797C13.1171 16.2155 12.3861 16.5188 11.8468 17.058C11.3076 17.5971 11.0043 18.3281 11.0033 19.0906L11.0137 20.5408Z" fill="#545454"/>
<path d="M11.0033 26.8778H8.54574C7.51602 26.8769 6.52873 26.4674 5.80061 25.7394C5.07249 25.0114 4.66303 24.0242 4.66211 22.9946V20.5408H7.11967C8.14939 20.5417 9.13667 20.9511 9.8648 21.6791C10.5929 22.4072 11.0024 23.3944 11.0033 24.424V26.8778ZM5.66936 21.5479V22.9946C5.67028 23.7571 5.97362 24.4881 6.51285 25.0273C7.05207 25.5664 7.78316 25.8697 8.54574 25.8706H9.99605V24.424C9.99513 23.6615 9.69179 22.9305 9.15256 22.3913C8.61334 21.8521 7.88225 21.5488 7.11967 21.5479H5.66936Z" fill="#545454"/>
<path d="M12.4606 26.8778H9.99609V24.424C9.99701 23.3944 10.4065 22.4072 11.1346 21.6791C11.8627 20.9511 12.85 20.5417 13.8797 20.5408H16.3338V22.9946C16.3329 24.0224 15.9249 25.008 15.199 25.7358C14.4731 26.4635 13.4885 26.8741 12.4606 26.8778ZM11.0137 25.8706H12.4606C13.2232 25.8697 13.9542 25.5664 14.4935 25.0273C15.0327 24.4881 15.336 23.7571 15.337 22.9946V21.5479H13.8797C13.1171 21.5488 12.3861 21.8521 11.8468 22.3913C11.3076 22.9305 11.0043 23.6615 11.0033 24.424L11.0137 25.8706Z" fill="#545454"/>
<path d="M10.4982 12.7605L8.76751 11.0301C8.40686 10.6698 8.12076 10.2419 7.92556 9.771C7.73035 9.30007 7.62988 8.7953 7.62988 8.28553C7.62988 7.77576 7.73035 7.27099 7.92556 6.80007C8.12076 6.32915 8.40686 5.9013 8.76751 5.54099L10.4982 3.81052L12.2289 5.54099C12.5899 5.90107 12.8764 6.32884 13.0719 6.79979C13.2673 7.27075 13.3679 7.77564 13.3679 8.28553C13.3679 8.79543 13.2673 9.30032 13.0719 9.77127C12.8764 10.2422 12.5899 10.67 12.2289 11.0301L10.4982 12.7605ZM10.4982 5.22259L9.45978 6.26087C8.92143 6.80066 8.61911 7.53187 8.61911 8.29418C8.61911 9.0565 8.92143 9.78771 9.45978 10.3275L10.4982 11.3485L11.5366 10.3275C11.8044 10.0609 12.0169 9.74405 12.1619 9.39512C12.3069 9.04618 12.3816 8.67204 12.3816 8.29418C12.3816 7.91633 12.3069 7.54219 12.1619 7.19325C12.0169 6.84432 11.8044 6.52746 11.5366 6.26087L10.4982 5.22259Z" fill="#545454"/>
<path d="M11.0033 24.244H9.99609V31.4463H11.0033V24.244Z" fill="#545454"/>
<path d="M11.4624 21.7191L10.498 20.7549L9.53371 21.7191L10.498 22.6833L11.4624 21.7191Z" fill="#545454"/>
</g>
<defs>
<clipPath id="clip0">
<rect width="21" height="32" fill="white"/>
</clipPath>
</defs>
</svg>
