<svg width="54" height="46" viewBox="0 0 54 46" fill="none" xmlns="http://www.w3.org/2000/svg">
<path d="M52.7763 18.2703L47.3327 10.4933C47.0098 10.0323 46.5806 9.65591 46.0815 9.39596C45.5823 9.13601 45.0278 9.00019 44.465 9H35.75V3.75C35.7488 2.82212 35.3796 1.9326 34.7235 1.27649C34.0674 0.62038 33.1779 0.251235 32.25 0.25H4.25C3.32212 0.251235 2.4326 0.62038 1.77649 1.27649C1.12038 1.9326 0.751235 2.82212 0.75 3.75V39.625H6.55533C6.8616 41.3392 7.75972 42.8915 9.09314 44.0115C10.4266 45.1314 12.1107 45.7478 13.852 45.7534C15.5933 45.7589 17.2814 45.1532 18.6219 44.0418C19.9625 42.9305 20.8705 41.3839 21.1877 39.6717L21.1947 39.625H32.8053C33.1116 41.3392 34.0097 42.8915 35.3431 44.0115C36.6766 45.1314 38.3607 45.7478 40.102 45.7534C41.8433 45.7589 43.5314 45.1532 44.8719 44.0418C46.2125 42.9305 47.1205 41.3839 47.4377 39.6717L47.4447 39.625H53.25V19.7753V19.7707C53.25 19.2083 53.0727 18.688 52.7693 18.261L52.774 18.268L52.7763 18.2703ZM4.25 3.75H32.25V23H4.25L4.24767 3.75H4.25ZM13.875 42.25C13.096 42.25 12.3345 42.019 11.6868 41.5862C11.0391 41.1534 10.5343 40.5383 10.2361 39.8186C9.93804 39.0989 9.86004 38.307 10.012 37.5429C10.164 36.7789 10.5391 36.0771 11.0899 35.5263C11.6408 34.9754 12.3426 34.6003 13.1066 34.4483C13.8706 34.2964 14.6626 34.3744 15.3823 34.6725C16.102 34.9706 16.7171 35.4754 17.1499 36.1231C17.5827 36.7708 17.8137 37.5323 17.8137 38.3113C17.8124 39.3552 17.3974 40.3559 16.6595 41.0942C15.9216 41.8325 14.9211 42.2481 13.8773 42.25H13.875ZM40.125 42.25C39.346 42.25 38.5845 42.019 37.9368 41.5862C37.2891 41.1534 36.7843 40.5383 36.4861 39.8186C36.188 39.0989 36.11 38.307 36.262 37.5429C36.414 36.7789 36.7891 36.0771 37.3399 35.5263C37.8908 34.9754 38.5926 34.6003 39.3566 34.4483C40.1206 34.2964 40.9126 34.3744 41.6323 34.6725C42.352 34.9706 42.9671 35.4754 43.3999 36.1231C43.8327 36.7708 44.0637 37.5323 44.0637 38.3113C44.0624 39.3552 43.6474 40.3559 42.9095 41.0942C42.1716 41.8325 41.1711 42.2481 40.1273 42.25H40.125ZM49.75 36.125H47.2347C46.2687 33.059 43.4523 30.875 40.125 30.875C36.7977 30.875 33.9813 33.059 33.0317 36.0713L33.0177 36.125H20.9847C20.0187 33.059 17.2023 30.875 13.875 30.875C10.5477 30.875 7.73133 33.059 6.78167 36.0713L6.76767 36.125H4.25233V26.5H49.7523L49.75 36.125ZM49.75 23H35.75V12.5H44.465L49.75 20.0507V23Z" fill="url(#paint0_linear)"/>
<defs>
<linearGradient id="paint0_linear" x1="1" y1="-1.75542e-06" x2="53" y2="46" gradientUnits="userSpaceOnUse">
<stop stop-color="#FFC643"/>
<stop offset="1" stop-color="#FF9800"/>
</linearGradient>
</defs>
</svg>
