<svg width="40" height="40" viewBox="0 0 40 40" fill="none" xmlns="http://www.w3.org/2000/svg">
<circle cx="20" cy="20" r="20" fill="#1C9DEB"/>
<path d="M30.7504 13.9602C30.0332 14.2695 29.2527 14.4922 28.4488 14.5789C29.2835 14.0831 29.9085 13.2997 30.2066 12.3758C29.4234 12.8417 28.5654 13.1684 27.6707 13.3414C27.2967 12.9416 26.8445 12.6231 26.342 12.4058C25.8396 12.1885 25.2978 12.0769 24.7504 12.0781C22.5355 12.0781 20.7543 13.8734 20.7543 16.0766C20.7543 16.3859 20.7918 16.6953 20.8527 16.993C17.5363 16.8195 14.5785 15.2352 12.6121 12.8094C12.2538 13.4214 12.066 14.1182 12.0684 14.8274C12.0684 16.2149 12.7738 17.4383 13.8496 18.1578C13.2156 18.1329 12.5965 17.9586 12.0426 17.6492V17.6984C12.0426 19.6414 13.416 21.2516 15.2465 21.6219C14.9028 21.7112 14.5492 21.7568 14.1941 21.7578C13.934 21.7578 13.6879 21.732 13.4395 21.6969C13.9457 23.2813 15.4199 24.432 17.1754 24.4695C15.802 25.5453 14.0816 26.1781 12.2137 26.1781C11.8785 26.1781 11.5691 26.1664 11.248 26.1289C13.0199 27.2656 15.1223 27.9219 17.3863 27.9219C24.7363 27.9219 28.7582 21.8328 28.7582 16.5477C28.7582 16.3742 28.7582 16.2008 28.7465 16.0274C29.5246 15.4578 30.2066 14.7524 30.7504 13.9602Z" fill="white"/>
</svg>
